<svg xmlns="http://www.w3.org/2000/svg" xmlns:xlink="http://www.w3.org/1999/xlink" viewBox="0 0 102.7 102.7"><defs><style>.cls-1{fill:#fff;stroke-miterlimit:10;stroke-width:2px;stroke:url(#linear-gradient);}.cls-2{fill:url(#linear-gradient-2);}.cls-3{fill:url(#linear-gradient-3);}.cls-4{fill:url(#linear-gradient-4);}</style><linearGradient id="linear-gradient" x1="51.35" x2="51.35" y2="102.7" gradientUnits="userSpaceOnUse"><stop offset="0" stop-color="#2696ff"/><stop offset="1" stop-color="#196eb0"/></linearGradient><linearGradient id="linear-gradient-2" x1="24.6" y1="14.83" x2="77.48" y2="87.03" xlink:href="#linear-gradient"/><linearGradient id="linear-gradient-3" x1="21.15" y1="17.35" x2="74.04" y2="89.55" xlink:href="#linear-gradient"/><linearGradient id="linear-gradient-4" x1="29.5" y1="11.24" x2="82.38" y2="83.44" xlink:href="#linear-gradient"/></defs><g id="Layer_2" data-name="Layer 2"><g id="Layer_3" data-name="Layer 3"><circle class="cls-1" cx="51.35" cy="51.35" r="50.35"/><path class="cls-2" d="M85.83,48.26a3.1,3.1,0,0,0-3,2.29H68.55V43.09H75a3.09,3.09,0,1,0,0-1.59H68.55V38.61a4.43,4.43,0,0,0-4.44-4.43H61.25V28.11a3.09,3.09,0,1,0-1.6,0v6.07H52.2V20.23a3.09,3.09,0,1,0-1.6,0v14H43.15V28.11a3.09,3.09,0,1,0-1.6,0v6.07H38.69a4.43,4.43,0,0,0-4.43,4.43V41.5H27.73a3.09,3.09,0,1,0,0,1.59h6.53v7.46H19.85a3.09,3.09,0,1,0,0,1.6H34.26V59.6H27.73a3.09,3.09,0,1,0,0,1.6h6.53V64a4.43,4.43,0,0,0,4.43,4.44h2.86v6.12a3.09,3.09,0,1,0,1.6,0V68.47H50.6v14a3.09,3.09,0,1,0,1.6,0v-14h7.45v6.12a3.09,3.09,0,1,0,1.6,0V68.47h2.86A4.44,4.44,0,0,0,68.55,64V61.2H75a3.09,3.09,0,1,0,0-1.6H68.55V52.15H82.84a3.09,3.09,0,1,0,3-3.89ZM77.94,40.8a1.5,1.5,0,1,1-1.49,1.5A1.5,1.5,0,0,1,77.94,40.8ZM59,25.12a1.49,1.49,0,1,1,1.49,1.49A1.49,1.49,0,0,1,59,25.12Zm-9.05-7.88a1.49,1.49,0,1,1,1.49,1.49A1.49,1.49,0,0,1,49.91,17.24Zm-9,7.88a1.49,1.49,0,1,1,1.49,1.49A1.49,1.49,0,0,1,40.86,25.12ZM24.75,43.79a1.5,1.5,0,1,1,1.49-1.49A1.49,1.49,0,0,1,24.75,43.79Zm-7.88,9.05a1.49,1.49,0,1,1,1.49-1.49A1.49,1.49,0,0,1,16.87,52.84Zm7.88,9a1.49,1.49,0,1,1,1.49-1.49A1.49,1.49,0,0,1,24.75,61.89ZM43.84,77.57a1.49,1.49,0,1,1-1.49-1.49A1.49,1.49,0,0,1,43.84,77.57Zm9,7.88A1.49,1.49,0,1,1,51.4,84,1.49,1.49,0,0,1,52.89,85.45Zm9-7.88a1.49,1.49,0,1,1-1.49-1.49A1.49,1.49,0,0,1,61.94,77.57Zm16-18.66a1.49,1.49,0,1,1-1.49,1.49A1.5,1.5,0,0,1,77.94,58.91ZM67,64a2.84,2.84,0,0,1-2.84,2.84H38.69A2.84,2.84,0,0,1,35.85,64V38.61a2.84,2.84,0,0,1,2.84-2.84h3.37a.72.72,0,0,0,.29.06.64.64,0,0,0,.28-.06h8.49a.64.64,0,0,0,.28.06.72.72,0,0,0,.29-.06h8.48a.67.67,0,0,0,.28.06.72.72,0,0,0,.29-.06h3.37A2.84,2.84,0,0,1,67,38.61ZM85.83,52.84a1.49,1.49,0,1,1,1.49-1.49A1.5,1.5,0,0,1,85.83,52.84Z"/><path class="cls-3" d="M48.26,43.77l-6,15.57h1.94l1.45-3.89h7l1.45,3.89h2l-6-15.57Zm-1.92,9.9L49.19,46,52,53.67Z"/><rect class="cls-4" x="58.08" y="43.77" width="1.88" height="15.57"/></g></g></svg>