<svg xmlns="http://www.w3.org/2000/svg" xmlns:xlink="http://www.w3.org/1999/xlink" viewBox="0 0 102.7 102.7"><defs><style>.cls-1{fill:#fff;stroke-miterlimit:10;stroke-width:2px;stroke:url(#linear-gradient);}.cls-2{fill:url(#linear-gradient-2);}.cls-3{fill:url(#linear-gradient-3);}.cls-4{fill:url(#linear-gradient-4);}.cls-5{fill:url(#linear-gradient-5);}.cls-6{fill:url(#linear-gradient-6);}.cls-7{fill:url(#linear-gradient-7);}.cls-8{fill:url(#linear-gradient-8);}</style><linearGradient id="linear-gradient" x1="51.35" x2="51.35" y2="102.7" gradientUnits="userSpaceOnUse"><stop offset="0" stop-color="#2696ff"/><stop offset="1" stop-color="#196eb0"/></linearGradient><linearGradient id="linear-gradient-2" x1="24.75" y1="24.7" x2="77.97" y2="78.03" xlink:href="#linear-gradient"/><linearGradient id="linear-gradient-3" x1="22.61" y1="26.84" x2="75.83" y2="80.16" xlink:href="#linear-gradient"/><linearGradient id="linear-gradient-4" x1="15.69" y1="33.74" x2="68.91" y2="87.07" xlink:href="#linear-gradient"/><linearGradient id="linear-gradient-5" x1="27.45" y1="22.01" x2="80.67" y2="75.33" xlink:href="#linear-gradient"/><linearGradient id="linear-gradient-6" x1="37.32" y1="12.16" x2="90.54" y2="65.49" xlink:href="#linear-gradient"/><linearGradient id="linear-gradient-7" x1="40.75" y1="8.74" x2="93.97" y2="62.06" xlink:href="#linear-gradient"/><linearGradient id="linear-gradient-8" x1="44.18" y1="5.31" x2="97.4" y2="58.64" xlink:href="#linear-gradient"/></defs><g id="Layer_2" data-name="Layer 2"><g id="Layer_3" data-name="Layer 3"><circle class="cls-1" cx="51.35" cy="51.35" r="50.35"/><path class="cls-2" d="M72.6,24H30.1A6.16,6.16,0,0,0,24,30.1V72.6a6.16,6.16,0,0,0,6.15,6.15H72.6a6.16,6.16,0,0,0,6.15-6.15V30.1A6.16,6.16,0,0,0,72.6,24ZM30.1,26.8H72.6a3.3,3.3,0,0,1,3.29,3.3v6.55H26.8V30.1A3.3,3.3,0,0,1,30.1,26.8ZM72.6,75.89H30.1a3.3,3.3,0,0,1-3.3-3.29V39.5H75.89V72.6A3.3,3.3,0,0,1,72.6,75.89Z"/><path class="cls-3" d="M42.07,66.33h18a1.43,1.43,0,0,0,1.43-1.42V45.78a1.43,1.43,0,0,0-1.43-1.43h-6a1.43,1.43,0,0,0-1.43,1.43v3.57H48.07a1.43,1.43,0,0,0-1.43,1.43v4.14H42.07a1.42,1.42,0,0,0-1.43,1.42v8.57A1.43,1.43,0,0,0,42.07,66.33ZM55.49,47.21h3.14V63.48H55.49V47.21Zm-6,5h3.14V63.48H49.49V52.2Zm-6,5.57h3.14v5.71H43.5Z"/><path class="cls-4" d="M65.9,68.05H36.79a1.43,1.43,0,1,0,0,2.85H65.9a1.43,1.43,0,1,0,0-2.85Z"/><path class="cls-5" d="M32.94,33.51h9.13a1.43,1.43,0,0,0,0-2.86H32.94a1.43,1.43,0,1,0,0,2.86Z"/><circle class="cls-6" cx="56.77" cy="31.65" r="1.57"/><circle class="cls-7" cx="63.76" cy="31.8" r="1.57"/><circle class="cls-8" cx="70.76" cy="31.94" r="1.57"/></g></g></svg>