<svg xmlns="http://www.w3.org/2000/svg" xmlns:xlink="http://www.w3.org/1999/xlink" viewBox="0 0 343.08 225"><defs><style>.cls-1{fill:none;}.cls-2{fill:url(#linear-gradient);}.cls-3{clip-path:url(#clip-path);}.cls-4{fill:url(#linear-gradient-2);}.cls-5{fill:url(#linear-gradient-3);}.cls-6{fill:url(#linear-gradient-4);}.cls-7{fill:url(#linear-gradient-5);}.cls-8{fill:url(#radial-gradient);}</style><linearGradient id="linear-gradient" x1="171.7" y1="198.66" x2="171.7" y2="2.55" gradientUnits="userSpaceOnUse"><stop offset="0" stop-color="#fff"/><stop offset="0.5" stop-color="#034d3c"/><stop offset="1" stop-color="#00212a"/></linearGradient><clipPath id="clip-path" transform="translate(0.39)"><path class="cls-1" d="M35.68,0H306.93a35.68,35.68,0,0,1,35.68,35.68V195.93a.52.52,0,0,1-.52.52H.52a.52.52,0,0,1-.52-.52V35.68A35.68,35.68,0,0,1,35.68,0Z"/></clipPath><linearGradient id="linear-gradient-2" x1="89.73" y1="195.96" x2="89.73" y2="-17.8" xlink:href="#linear-gradient"/><linearGradient id="linear-gradient-3" x1="253.57" y1="195.83" x2="253.57" y2="-17.93" xlink:href="#linear-gradient"/><linearGradient id="linear-gradient-4" x1="66.54" y1="195.58" x2="66.54" y2="-69.84" xlink:href="#linear-gradient"/><linearGradient id="linear-gradient-5" x1="275.12" y1="195.58" x2="275.12" y2="-69.84" xlink:href="#linear-gradient"/><radialGradient id="radial-gradient" cx="137.28" cy="83.23" r="232.29" gradientUnits="userSpaceOnUse"><stop offset="0" stop-color="#fff" stop-opacity="0"/><stop offset="1" stop-color="#fff" stop-opacity="0.5"/></radialGradient></defs><g id="Layer_2" data-name="Layer 2"><g id="Layer_1-2" data-name="Layer 1"><rect class="cls-2" x="0.39" width="342.61" height="196.45"/><g class="cls-3"><path class="cls-4" d="M179.85,180.23a38.54,38.54,0,0,1-3.43,16H-.39V38.57a56.76,56.76,0,0,1,16.15-2.33c32.09,0,58.1,26.69,58.1,59.63,0,1,0,1.92-.07,2.88a46.19,46.19,0,0,1,8.85-.85c25.54,0,46.4,20.51,47.82,46.35a36.19,36.19,0,0,1,12.26-2.13C163.23,142.12,179.85,159.18,179.85,180.23Z" transform="translate(0.39)"/><path class="cls-5" d="M342.69,58V195.83H175.22a38.86,38.86,0,0,1-10.76-27.05c0-21,16.28-38.11,36.36-38.11a34.77,34.77,0,0,1,14.22,3c1.25-26,21.75-46.66,46.86-46.66A45,45,0,0,1,282.41,92c9-20.43,28.77-34.6,51.67-34.6A55.57,55.57,0,0,1,342.69,58Z" transform="translate(0.39)"/><path class="cls-6" d="M133.47,185a27.32,27.32,0,0,1-2.55,11.57H-.39V82.52A43.18,43.18,0,0,1,54.75,124c0,.7,0,1.39,0,2.08A35.59,35.59,0,0,1,96.79,159a27.59,27.59,0,0,1,36.68,26Z" transform="translate(0.39)"/><path class="cls-7" d="M342.69,96.89v99.7h-127a27.58,27.58,0,0,1,30.19-45A35.59,35.59,0,0,1,297,121.44a43.15,43.15,0,0,1,39.17-25A43.93,43.93,0,0,1,342.69,96.89Z" transform="translate(0.39)"/><path class="cls-8" d="M226.79,64.39a79.26,79.26,0,0,0-112.08,0,80.23,80.23,0,0,0-9.35,11.24,3.49,3.49,0,0,0-3.7,5.9A79.31,79.31,0,0,0,209.5,189.6a3.66,3.66,0,0,0,6.2-3.87,80.32,80.32,0,0,0,11.09-9.26,79.23,79.23,0,0,0,0-112.08ZM215.28,185.11a3.66,3.66,0,0,0-6.47,2.36,3.48,3.48,0,0,0,.32,1.48,78.52,78.52,0,0,1-106.81-107,3.57,3.57,0,0,0,1.4.29A3.48,3.48,0,0,0,106,76.05,78.53,78.53,0,1,1,215.28,185.11Z" transform="translate(0.39)"/><circle class="cls-8" cx="88.23" cy="47.11" r="2.44"/><circle class="cls-8" cx="62.39" cy="95.82" r="1.92"/><circle class="cls-8" cx="98.7" cy="170.36" r="1.92"/><path class="cls-8" d="M169.88,213.82a2.27,2.27,0,0,0-2.25,2,97.94,97.94,0,0,1-95.27-96.3,2.44,2.44,0,0,0,0-4.81A97.82,97.82,0,0,1,232.32,42.5a2.23,2.23,0,0,0-.3,1.12,2.28,2.28,0,1,0,.74-1.67A98.52,98.52,0,0,0,71.7,114.68a2.44,2.44,0,0,0,0,4.86,98.51,98.51,0,0,0,96,97,2.27,2.27,0,1,0,2.23-2.7Z" transform="translate(0.39)"/><path class="cls-8" d="M265.72,115.54a3.67,3.67,0,0,0-3.67-3.66h-.23a88.5,88.5,0,0,0-24.65-53.66,83.73,83.73,0,0,0-58.75-25.78,1.74,1.74,0,1,0-1.73,1.92,1.72,1.72,0,0,0,1.65-1.22C221.59,34,257,68.35,261.12,112a3.66,3.66,0,0,0,.39,7.17c0,.44,0,.89,0,1.34,0,47.34-36.75,86-82.41,87.34a2.26,2.26,0,1,0,0,.7,83.76,83.76,0,0,0,58.09-25.76,88.83,88.83,0,0,0,25.05-62.28c0-.44,0-.87,0-1.31A3.67,3.67,0,0,0,265.72,115.54Z" transform="translate(0.39)"/><circle class="cls-8" cx="248.65" cy="152.38" r="1.75"/><circle class="cls-8" cx="141.12" cy="223.25" r="1.75"/><circle class="cls-8" cx="240.27" cy="94.07" r="1.75"/><circle class="cls-8" cx="259.47" cy="63.7" r="3.49"/></g></g></g></svg>