<svg xmlns="http://www.w3.org/2000/svg" xmlns:xlink="http://www.w3.org/1999/xlink" viewBox="0 0 778.91 1668.88"><defs><style>.cls-1{fill:none;}.cls-2{fill:url(#linear-gradient);}.cls-3{clip-path:url(#clip-path);}.cls-4{fill:url(#linear-gradient-2);}.cls-5{fill:url(#linear-gradient-3);}.cls-6{fill:url(#linear-gradient-4);}.cls-7{fill:url(#linear-gradient-5);}.cls-8{fill:url(#linear-gradient-6);}.cls-9{fill:url(#linear-gradient-7);}.cls-10{fill:url(#linear-gradient-8);}.cls-11{fill:url(#linear-gradient-9);}.cls-12{fill:url(#linear-gradient-10);}.cls-13{fill:url(#linear-gradient-11);}.cls-14{fill:url(#linear-gradient-12);}.cls-15{fill:url(#linear-gradient-13);}.cls-16{fill:url(#linear-gradient-14);}.cls-17{fill:url(#linear-gradient-15);}.cls-18{fill:url(#linear-gradient-16);}.cls-19{fill:url(#linear-gradient-17);}.cls-20{fill:url(#linear-gradient-18);}.cls-21{fill:url(#linear-gradient-19);}.cls-22{fill:url(#linear-gradient-20);}.cls-23{fill:url(#linear-gradient-21);}.cls-24{fill:url(#linear-gradient-22);}.cls-25{fill:url(#linear-gradient-23);}.cls-26{fill:url(#linear-gradient-24);}.cls-27{fill:url(#linear-gradient-25);}.cls-28{fill:url(#linear-gradient-26);}.cls-29{fill:url(#linear-gradient-27);}.cls-30{fill:url(#linear-gradient-28);}.cls-31{fill:url(#linear-gradient-29);}.cls-32{fill:url(#linear-gradient-30);}.cls-33{fill:url(#linear-gradient-31);}.cls-34{fill:url(#linear-gradient-32);}.cls-35{fill:url(#linear-gradient-33);}.cls-36{fill:url(#linear-gradient-34);}.cls-37{fill:url(#linear-gradient-35);}.cls-38{fill:url(#linear-gradient-36);}.cls-39{fill:url(#linear-gradient-37);}.cls-40{fill:url(#linear-gradient-38);}.cls-41{fill:url(#linear-gradient-39);}.cls-42{fill:url(#linear-gradient-40);}.cls-43{fill:url(#linear-gradient-41);}.cls-44{fill:url(#linear-gradient-42);}.cls-45{fill:url(#linear-gradient-43);}.cls-46{fill:url(#linear-gradient-44);}.cls-47{fill:url(#linear-gradient-45);}.cls-48{fill:url(#linear-gradient-46);}.cls-49{fill:url(#linear-gradient-47);}.cls-50{fill:url(#linear-gradient-48);}.cls-51{fill:url(#linear-gradient-49);}.cls-52{fill:url(#linear-gradient-50);}.cls-53{fill:url(#linear-gradient-51);}.cls-54{fill:url(#linear-gradient-52);}.cls-55{fill:url(#linear-gradient-53);}.cls-56{fill:url(#linear-gradient-54);}.cls-57{fill:url(#linear-gradient-55);}.cls-58{fill:url(#linear-gradient-56);}.cls-59{fill:url(#linear-gradient-57);}.cls-60{fill:url(#linear-gradient-58);}.cls-61{fill:url(#linear-gradient-59);}.cls-62{fill:url(#linear-gradient-60);}.cls-63{fill:url(#linear-gradient-61);}.cls-64{fill:url(#linear-gradient-62);}.cls-65{fill:url(#linear-gradient-63);}.cls-66{fill:url(#linear-gradient-64);}.cls-67{fill:url(#linear-gradient-65);}.cls-68{fill:url(#linear-gradient-66);}.cls-69{fill:url(#linear-gradient-67);}.cls-70{fill:url(#linear-gradient-68);}.cls-71{fill:url(#linear-gradient-69);}.cls-72{fill:url(#linear-gradient-70);}.cls-73{fill:url(#linear-gradient-71);}.cls-74{fill:url(#linear-gradient-72);}.cls-75{fill:url(#linear-gradient-73);}.cls-76{fill:url(#linear-gradient-74);}.cls-77{fill:url(#linear-gradient-75);}.cls-78{fill:url(#linear-gradient-76);}.cls-79{fill:url(#linear-gradient-77);}.cls-80{fill:url(#linear-gradient-78);}.cls-81{fill:url(#linear-gradient-79);}.cls-82{fill:url(#linear-gradient-80);}.cls-83{fill:url(#linear-gradient-81);}.cls-84{fill:url(#linear-gradient-82);}.cls-85{fill:url(#linear-gradient-83);}.cls-86{fill:url(#linear-gradient-84);}.cls-87{fill:url(#linear-gradient-85);}.cls-88{fill:url(#linear-gradient-86);}.cls-89{fill:url(#linear-gradient-87);}.cls-90{fill:url(#linear-gradient-88);}.cls-91{fill:url(#linear-gradient-89);}.cls-92{fill:url(#linear-gradient-90);}.cls-93{fill:url(#linear-gradient-91);}.cls-94{fill:url(#linear-gradient-92);}.cls-95{fill:url(#linear-gradient-93);}.cls-96{fill:url(#linear-gradient-94);}.cls-97{fill:url(#linear-gradient-95);}.cls-98{fill:url(#linear-gradient-96);}.cls-99{fill:url(#linear-gradient-97);}.cls-100{fill:url(#linear-gradient-98);}.cls-101{fill:url(#linear-gradient-99);}.cls-102{fill:url(#linear-gradient-100);}.cls-103{fill:url(#linear-gradient-101);}.cls-104{fill:url(#linear-gradient-102);}.cls-105{fill:url(#linear-gradient-103);}.cls-106{fill:url(#linear-gradient-104);}.cls-107{fill:url(#linear-gradient-105);}.cls-108{opacity:0.35;}.cls-109{fill:#bce9fe;}.cls-110{fill:url(#linear-gradient-106);}.cls-111{fill:url(#linear-gradient-107);}.cls-112{fill:url(#linear-gradient-108);}.cls-113{fill:#1c81d1;}.cls-114{fill:#2181d5;}.cls-115{fill:#fff;}.cls-116{fill:url(#linear-gradient-109);}.cls-117{fill:url(#linear-gradient-110);}.cls-118{fill:url(#linear-gradient-111);}.cls-119{fill:url(#linear-gradient-112);}.cls-120{fill:#209dbb;}.cls-121{fill:url(#linear-gradient-113);}.cls-122{fill:url(#linear-gradient-114);}.cls-123{fill:url(#linear-gradient-115);}.cls-124{fill:url(#linear-gradient-116);}.cls-125{fill:url(#linear-gradient-117);}</style><linearGradient id="linear-gradient" x1="422.8" y1="-43.53" x2="422.8" y2="945.31" gradientUnits="userSpaceOnUse"><stop offset="0" stop-color="#c4eafd"/><stop offset="1" stop-color="#fff"/></linearGradient><clipPath id="clip-path" transform="translate(212.8 180.61)"><rect class="cls-1" y="3.31" width="420" height="773.69"/></clipPath><linearGradient id="linear-gradient-2" x1="422.8" y1="599.93" x2="422.8" y2="852.92" xlink:href="#linear-gradient"/><linearGradient id="linear-gradient-3" x1="-292.41" y1="152.15" x2="452.81" y2="152.15" gradientTransform="translate(499.09 124.29) rotate(90)" gradientUnits="userSpaceOnUse"><stop offset="0" stop-color="#fff" stop-opacity="0.05"/><stop offset="1" stop-color="#fff" stop-opacity="0.2"/></linearGradient><linearGradient id="linear-gradient-4" x1="-292.34" y1="273.53" x2="452.73" y2="273.53" xlink:href="#linear-gradient-3"/><linearGradient id="linear-gradient-5" x1="-289.75" y1="153.41" x2="452.67" y2="153.41" xlink:href="#linear-gradient-3"/><linearGradient id="linear-gradient-6" x1="-292.04" y1="170.93" x2="452.4" y2="170.93" xlink:href="#linear-gradient-3"/><linearGradient id="linear-gradient-7" x1="-289.08" y1="273.46" x2="452.36" y2="273.46" xlink:href="#linear-gradient-3"/><linearGradient id="linear-gradient-8" x1="-287.88" y1="232.99" x2="452.59" y2="232.99" xlink:href="#linear-gradient-3"/><linearGradient id="linear-gradient-9" x1="-287.05" y1="139.06" x2="452.67" y2="139.06" xlink:href="#linear-gradient-3"/><linearGradient id="linear-gradient-10" x1="-286.74" y1="273.57" x2="452.88" y2="273.57" xlink:href="#linear-gradient-3"/><linearGradient id="linear-gradient-11" x1="-285.79" y1="104.08" x2="452.9" y2="104.08" xlink:href="#linear-gradient-3"/><linearGradient id="linear-gradient-12" x1="-290.06" y1="183.37" x2="450.18" y2="183.37" xlink:href="#linear-gradient-3"/><linearGradient id="linear-gradient-13" x1="-290.06" y1="319.72" x2="450.18" y2="319.72" xlink:href="#linear-gradient-3"/><linearGradient id="linear-gradient-14" x1="-270.73" y1="253.25" x2="451.3" y2="253.25" xlink:href="#linear-gradient-3"/><linearGradient id="linear-gradient-15" x1="-288.07" y1="492.62" x2="457.69" y2="492.62" xlink:href="#linear-gradient-3"/><linearGradient id="linear-gradient-16" x1="-288.03" y1="514.94" x2="457.64" y2="514.94" xlink:href="#linear-gradient-3"/><linearGradient id="linear-gradient-17" x1="-287.88" y1="540.91" x2="457.47" y2="540.91" xlink:href="#linear-gradient-3"/><linearGradient id="linear-gradient-18" x1="-292.52" y1="377.06" x2="452.93" y2="377.06" xlink:href="#linear-gradient-3"/><linearGradient id="linear-gradient-19" x1="-285.16" y1="443.32" x2="457.27" y2="443.32" xlink:href="#linear-gradient-3"/><linearGradient id="linear-gradient-20" x1="-289.08" y1="337.89" x2="452.36" y2="337.89" xlink:href="#linear-gradient-3"/><linearGradient id="linear-gradient-21" x1="-287.88" y1="371.68" x2="452.59" y2="371.68" xlink:href="#linear-gradient-3"/><linearGradient id="linear-gradient-22" x1="-282.46" y1="452.25" x2="457.26" y2="452.25" xlink:href="#linear-gradient-3"/><linearGradient id="linear-gradient-23" x1="-286.74" y1="337.77" x2="452.87" y2="337.77" xlink:href="#linear-gradient-3"/><linearGradient id="linear-gradient-24" x1="-281.19" y1="485.55" x2="457.49" y2="485.55" xlink:href="#linear-gradient-3"/><linearGradient id="linear-gradient-25" x1="-270.73" y1="358.51" x2="451.3" y2="358.51" xlink:href="#linear-gradient-3"/><linearGradient id="linear-gradient-26" x1="-292.67" y1="91.58" x2="453.1" y2="91.58" xlink:href="#linear-gradient-3"/><linearGradient id="linear-gradient-27" x1="-292.62" y1="74.69" x2="453.05" y2="74.69" xlink:href="#linear-gradient-3"/><linearGradient id="linear-gradient-28" x1="-292.47" y1="52.48" x2="452.88" y2="52.48" xlink:href="#linear-gradient-3"/><linearGradient id="linear-gradient-29" x1="-292.52" y1="212.57" x2="452.93" y2="212.57" xlink:href="#linear-gradient-3"/><linearGradient id="linear-gradient-30" x1="-292.43" y1="153.41" x2="450" y2="153.41" xlink:href="#linear-gradient-3"/><linearGradient id="linear-gradient-31" x1="-292.17" y1="273.46" x2="449.27" y2="273.46" xlink:href="#linear-gradient-3"/><linearGradient id="linear-gradient-32" x1="-292.46" y1="232.99" x2="448" y2="232.99" xlink:href="#linear-gradient-3"/><linearGradient id="linear-gradient-33" x1="-292.58" y1="139.06" x2="447.14" y2="139.06" xlink:href="#linear-gradient-3"/><linearGradient id="linear-gradient-34" x1="-292.79" y1="273.57" x2="446.82" y2="273.57" xlink:href="#linear-gradient-3"/><linearGradient id="linear-gradient-35" x1="-291.88" y1="298.22" x2="452.22" y2="298.22" xlink:href="#linear-gradient-3"/><linearGradient id="linear-gradient-36" x1="-292.86" y1="104.08" x2="445.82" y2="104.08" xlink:href="#linear-gradient-3"/><linearGradient id="linear-gradient-37" x1="-292.21" y1="253.25" x2="429.81" y2="253.25" xlink:href="#linear-gradient-3"/><linearGradient id="linear-gradient-38" x1="-287.82" y1="437.49" x2="457.4" y2="437.49" xlink:href="#linear-gradient-3"/><linearGradient id="linear-gradient-39" x1="-292.34" y1="337.82" x2="452.73" y2="337.82" xlink:href="#linear-gradient-3"/><linearGradient id="linear-gradient-40" x1="-287.84" y1="443.32" x2="454.59" y2="443.32" xlink:href="#linear-gradient-3"/><linearGradient id="linear-gradient-41" x1="-287.45" y1="419.12" x2="456.99" y2="419.12" xlink:href="#linear-gradient-3"/><linearGradient id="linear-gradient-42" x1="-292.17" y1="337.89" x2="449.27" y2="337.89" xlink:href="#linear-gradient-3"/><linearGradient id="linear-gradient-43" x1="-292.46" y1="371.68" x2="448.01" y2="371.68" xlink:href="#linear-gradient-3"/><linearGradient id="linear-gradient-44" x1="-287.99" y1="452.25" x2="451.74" y2="452.25" xlink:href="#linear-gradient-3"/><linearGradient id="linear-gradient-45" x1="-282.46" y1="410.5" x2="457.26" y2="410.5" xlink:href="#linear-gradient-3"/><linearGradient id="linear-gradient-46" x1="-287.99" y1="410.5" x2="451.74" y2="410.5" xlink:href="#linear-gradient-3"/><linearGradient id="linear-gradient-47" x1="-282.46" y1="305.71" x2="457.26" y2="305.71" xlink:href="#linear-gradient-3"/><linearGradient id="linear-gradient-48" x1="-287.99" y1="305.71" x2="451.74" y2="305.71" xlink:href="#linear-gradient-3"/><linearGradient id="linear-gradient-49" x1="-282.46" y1="192.98" x2="457.26" y2="192.98" xlink:href="#linear-gradient-3"/><linearGradient id="linear-gradient-50" x1="-287.99" y1="192.98" x2="451.74" y2="192.98" xlink:href="#linear-gradient-3"/><linearGradient id="linear-gradient-51" x1="-292.79" y1="337.77" x2="446.82" y2="337.77" xlink:href="#linear-gradient-3"/><linearGradient id="linear-gradient-52" x1="-288.27" y1="485.55" x2="450.41" y2="485.55" xlink:href="#linear-gradient-3"/><linearGradient id="linear-gradient-53" x1="-290.06" y1="402.5" x2="450.17" y2="402.5" xlink:href="#linear-gradient-3"/><linearGradient id="linear-gradient-54" x1="-292.21" y1="358.51" x2="429.81" y2="358.51" xlink:href="#linear-gradient-3"/><linearGradient id="linear-gradient-55" x1="70.9" y1="146.31" x2="-18.54" y2="40.2" xlink:href="#linear-gradient"/><linearGradient id="linear-gradient-56" x1="76.94" y1="53.64" x2="-37.89" y2="124.12" xlink:href="#linear-gradient"/><linearGradient id="linear-gradient-57" x1="356.72" y1="14.16" x2="429.14" y2="138.93" xlink:href="#linear-gradient"/><linearGradient id="linear-gradient-58" x1="318.73" y1="110.35" x2="409.3" y2="191.86" xlink:href="#linear-gradient"/><linearGradient id="linear-gradient-59" x1="102.83" y1="509.03" x2="102.83" y2="449.87" xlink:href="#linear-gradient"/><linearGradient id="linear-gradient-60" x1="364.29" y1="566.72" x2="360.02" y2="528.27" xlink:href="#linear-gradient"/><linearGradient id="linear-gradient-61" x1="218.2" y1="669.38" x2="218.2" y2="755.72" xlink:href="#linear-gradient"/><linearGradient id="linear-gradient-62" x1="103" y1="641.48" x2="103" y2="736.82" gradientUnits="userSpaceOnUse"><stop offset="0" stop-color="#2696ff"/><stop offset="1" stop-color="#196eb0"/></linearGradient><linearGradient id="linear-gradient-63" x1="118.57" y1="641.48" x2="118.57" y2="736.82" xlink:href="#linear-gradient-62"/><linearGradient id="linear-gradient-64" x1="110.69" y1="641.48" x2="110.69" y2="736.82" xlink:href="#linear-gradient-62"/><linearGradient id="linear-gradient-65" x1="103.38" y1="641.48" x2="103.38" y2="736.82" xlink:href="#linear-gradient-62"/><linearGradient id="linear-gradient-66" x1="126.3" y1="641.48" x2="126.3" y2="736.82" xlink:href="#linear-gradient-62"/><linearGradient id="linear-gradient-67" x1="130.89" y1="641.48" x2="130.89" y2="736.82" xlink:href="#linear-gradient-62"/><linearGradient id="linear-gradient-68" x1="117.9" y1="641.48" x2="117.9" y2="736.82" xlink:href="#linear-gradient-62"/><linearGradient id="linear-gradient-69" x1="122.1" y1="641.48" x2="122.1" y2="736.82" xlink:href="#linear-gradient-62"/><linearGradient id="linear-gradient-70" x1="87.43" y1="641.48" x2="87.43" y2="736.82" xlink:href="#linear-gradient-62"/><linearGradient id="linear-gradient-71" x1="95.31" y1="641.48" x2="95.31" y2="736.82" xlink:href="#linear-gradient-62"/><linearGradient id="linear-gradient-72" x1="79.7" y1="641.48" x2="79.7" y2="736.82" xlink:href="#linear-gradient-62"/><linearGradient id="linear-gradient-73" x1="75.11" y1="641.48" x2="75.11" y2="736.82" xlink:href="#linear-gradient-62"/><linearGradient id="linear-gradient-74" x1="88.1" y1="641.48" x2="88.1" y2="736.82" xlink:href="#linear-gradient-62"/><linearGradient id="linear-gradient-75" x1="83.9" y1="641.48" x2="83.9" y2="736.82" xlink:href="#linear-gradient-62"/><linearGradient id="linear-gradient-76" x1="334.5" y1="672.58" x2="334.5" y2="735.68" xlink:href="#linear-gradient-62"/><linearGradient id="linear-gradient-77" x1="344.8" y1="672.58" x2="344.8" y2="735.68" xlink:href="#linear-gradient-62"/><linearGradient id="linear-gradient-78" x1="339.59" y1="672.58" x2="339.59" y2="735.68" xlink:href="#linear-gradient-62"/><linearGradient id="linear-gradient-79" x1="334.75" y1="672.58" x2="334.75" y2="735.68" xlink:href="#linear-gradient-62"/><linearGradient id="linear-gradient-80" x1="349.92" y1="672.58" x2="349.92" y2="735.68" xlink:href="#linear-gradient-62"/><linearGradient id="linear-gradient-81" x1="352.96" y1="672.58" x2="352.96" y2="735.68" xlink:href="#linear-gradient-62"/><linearGradient id="linear-gradient-82" x1="344.36" y1="672.58" x2="344.36" y2="735.68" xlink:href="#linear-gradient-62"/><linearGradient id="linear-gradient-83" x1="347.14" y1="672.58" x2="347.14" y2="735.68" xlink:href="#linear-gradient-62"/><linearGradient id="linear-gradient-84" x1="324.2" y1="672.58" x2="324.2" y2="735.68" xlink:href="#linear-gradient-62"/><linearGradient id="linear-gradient-85" x1="329.41" y1="672.58" x2="329.41" y2="735.68" xlink:href="#linear-gradient-62"/><linearGradient id="linear-gradient-86" x1="319.08" y1="672.58" x2="319.08" y2="735.68" xlink:href="#linear-gradient-62"/><linearGradient id="linear-gradient-87" x1="316.04" y1="672.58" x2="316.04" y2="735.68" xlink:href="#linear-gradient-62"/><linearGradient id="linear-gradient-88" x1="324.64" y1="672.58" x2="324.64" y2="735.68" xlink:href="#linear-gradient-62"/><linearGradient id="linear-gradient-89" x1="321.86" y1="672.58" x2="321.86" y2="735.68" xlink:href="#linear-gradient-62"/><linearGradient id="linear-gradient-90" x1="-31.02" y1="725.17" x2="-31.02" y2="792.47" xlink:href="#linear-gradient"/><linearGradient id="linear-gradient-91" x1="47.79" y1="611.33" x2="23.58" y2="645.69" xlink:href="#linear-gradient-62"/><linearGradient id="linear-gradient-92" x1="18.39" y1="606.82" x2="58.45" y2="645.63" xlink:href="#linear-gradient-62"/><linearGradient id="linear-gradient-93" x1="17.6" y1="648.07" x2="48.4" y2="689.73" xlink:href="#linear-gradient-62"/><linearGradient id="linear-gradient-94" x1="49.61" y1="644.82" x2="29.14" y2="689.15" xlink:href="#linear-gradient-62"/><linearGradient id="linear-gradient-95" x1="44.19" y1="576.3" x2="5.11" y2="615.37" xlink:href="#linear-gradient-62"/><linearGradient id="linear-gradient-96" x1="20.79" y1="564.44" x2="47.85" y2="589.84" xlink:href="#linear-gradient-62"/><linearGradient id="linear-gradient-97" x1="32.67" y1="646.37" x2="32.67" y2="785.02" xlink:href="#linear-gradient-62"/><linearGradient id="linear-gradient-98" x1="412.65" y1="638.1" x2="384.08" y2="678.65" xlink:href="#linear-gradient-62"/><linearGradient id="linear-gradient-99" x1="382.82" y1="625.21" x2="433.87" y2="674.68" xlink:href="#linear-gradient-62"/><linearGradient id="linear-gradient-100" x1="381.73" y1="668.69" x2="414.21" y2="712.63" xlink:href="#linear-gradient-62"/><linearGradient id="linear-gradient-101" x1="416.57" y1="664.96" x2="393.34" y2="715.26" xlink:href="#linear-gradient-62"/><linearGradient id="linear-gradient-102" x1="409.58" y1="584.38" x2="368.82" y2="625.14" xlink:href="#linear-gradient-62"/><linearGradient id="linear-gradient-103" x1="385" y1="578.59" x2="413.24" y2="605.08" xlink:href="#linear-gradient-62"/><linearGradient id="linear-gradient-104" x1="397.6" y1="663.13" x2="397.6" y2="807.77" xlink:href="#linear-gradient-62"/><linearGradient id="linear-gradient-105" x1="291.29" y1="714.49" x2="291.29" y2="846.59" gradientUnits="userSpaceOnUse"><stop offset="0" stop-color="#36adf7"/><stop offset="1" stop-color="#0d76a5"/></linearGradient><linearGradient id="linear-gradient-106" x1="45.78" y1="721.97" x2="45.78" y2="890.28" xlink:href="#linear-gradient-105"/><linearGradient id="linear-gradient-107" x1="220.45" y1="859.78" x2="220.45" y2="927.79" gradientUnits="userSpaceOnUse"><stop offset="0" stop-color="#399fe1"/><stop offset="1" stop-color="#1e7dcf"/></linearGradient><linearGradient id="linear-gradient-108" x1="242.77" y1="874.13" x2="242.77" y2="938.05" xlink:href="#linear-gradient-107"/><linearGradient id="linear-gradient-109" x1="265.9" y1="959.72" x2="265.9" y2="919.58" xlink:href="#linear-gradient-62"/><linearGradient id="linear-gradient-110" x1="-18.41" y1="891.63" x2="223.71" y2="1147.99" xlink:href="#linear-gradient-62"/><linearGradient id="linear-gradient-111" x1="76.57" y1="1051.51" x2="245.34" y2="1095.66" xlink:href="#linear-gradient-62"/><linearGradient id="linear-gradient-112" x1="211.88" y1="928.39" x2="211.88" y2="993.94" xlink:href="#linear-gradient-62"/><linearGradient id="linear-gradient-113" x1="558.82" y1="894.03" x2="558.82" y2="952.79" xlink:href="#linear-gradient-62"/><linearGradient id="linear-gradient-114" x1="616.37" y1="894.03" x2="616.37" y2="952.79" xlink:href="#linear-gradient-62"/><linearGradient id="linear-gradient-115" x1="469.79" y1="994.66" x2="574.56" y2="994.66" xlink:href="#linear-gradient-62"/><linearGradient id="linear-gradient-116" x1="474.82" y1="658.61" x2="526.77" y2="658.61" xlink:href="#linear-gradient-107"/><linearGradient id="linear-gradient-117" x1="465.36" y1="650.31" x2="519.31" y2="650.31" xlink:href="#linear-gradient-107"/></defs><g id="Layer_2" data-name="Layer 2"><g id="Layer_2-2" data-name="Layer 2"><rect class="cls-2" x="212.8" y="180.61" width="420" height="777"/><g class="cls-3"><ellipse class="cls-4" cx="422.8" cy="710" rx="189.56" ry="194.26"/><path class="cls-5" d="M329.84,377.71a3.66,3.66,0,0,1,1.83-3.29c1.63-.89,1.76-2.1,1.76-3.47v-.1q0-6.72,0-13.44c0-6,0-12.27,0-18.4V339a4.66,4.66,0,0,1,1.5-3.67c4.4-4.36,8.85-8.81,13.16-13.12s8.62-8.62,12.95-12.91a5.24,5.24,0,0,0,1.67-4.1c0-19.39,0-39.49,0-59.76q0-28.64,0-57.27V188l-.05-.09a1.49,1.49,0,0,1-.09-.59,7.08,7.08,0,0,1,.07-.89c0-.24.06-.48.07-.7v-4.63c0-.24,0-.48-.07-.73a6.93,6.93,0,0,1-.07-.88,1.58,1.58,0,0,1,.09-.6l.05-.08v-.1q0-28.63,0-57.27c0-20.26,0-40.36,0-59.75A5.32,5.32,0,0,0,361,57.62c-4.34-4.28-8.72-8.67-13-12.91S339.28,36,334.88,31.6a4.68,4.68,0,0,1-1.5-3.67v-.05c0-6.13,0-12.37,0-18.4q0-6.72,0-13.44v-.1c0-1.37-.13-2.58-1.76-3.47a3.66,3.66,0,0,1-1.83-3.3,4.15,4.15,0,0,1,.22-1.35,4.17,4.17,0,0,1,4.05-2.93,4,4,0,0,1,3.95,2.81,4,4,0,0,1,.28,1.49,3.76,3.76,0,0,1-1.91,3.33,3.21,3.21,0,0,0-1.72,3.3v0c0,5.17,0,10.34,0,15.51,0,5.73,0,10.93-.05,15.9v0a5.06,5.06,0,0,0,1.66,3.87c4,4,8,8,12,11.93,4.62,4.63,9.41,9.42,14.14,14.1A4.71,4.71,0,0,1,364,60.91c0,13.15,0,26.1,0,37v44.13c0,11.57,0,24,0,36.65v.1l0,.09a1.39,1.39,0,0,1,.09.56c0,.28,0,.58-.07.88s-.06.42-.07.61v4.94c0,.22,0,.42.07.64s.07.6.07.88a1.39,1.39,0,0,1-.09.56l0,.09v.09c0,12.64,0,25.09,0,36.66V269c0,10.93,0,23.88,0,37a4.73,4.73,0,0,1-1.51,3.71c-4.73,4.68-9.51,9.46-14.13,14.08-3.92,3.92-8,8-12,11.95a5.06,5.06,0,0,0-1.66,3.87v0c0,5,.05,10.17.05,15.9,0,5.17,0,10.34,0,15.51v.05a3.21,3.21,0,0,0,1.72,3.3,3.75,3.75,0,0,1,1.91,3.33,4.35,4.35,0,0,1-4.23,4.3,4.29,4.29,0,0,1-4.27-4.29Z" transform="translate(212.8 180.61)"/><path class="cls-6" d="M215.87,360.78a4,4,0,0,1,2.06-3.43,2.81,2.81,0,0,0,1.45-2.79v-.05c0-.68,0-1.36,0-2,0-1.32,0-2.63,0-4s0-2.63,0-3.94c0-1.89,0-3.45,0-4.9v-.12a4.42,4.42,0,0,1,1.47-3.42c1.62-1.58,3.25-3.22,4.82-4.8,2-2,4.08-4.1,6.16-6.1a6.15,6.15,0,0,0,2.07-4.84c0-24.19,0-48.09,0-76.55V198q0-5,0-10.07v-.09a2,2,0,0,1-.05-.46c0-.21,0-.44,0-.66l0-.26v-6l0-.29c0-.23,0-.45,0-.66a1.89,1.89,0,0,1,.05-.46V179c0-3.35,0-6.71,0-10.06V123c0-28.46,0-52.37,0-76.54a6.16,6.16,0,0,0-2.07-4.85c-2.08-2-4.15-4.08-6.16-6.1-1.57-1.58-3.2-3.22-4.82-4.81a4.39,4.39,0,0,1-1.47-3.42v-.11c0-1.46,0-3,0-4.9,0-1.31,0-2.63,0-3.95s0-2.62,0-3.94c0-.68,0-1.36,0-2v-.05a2.81,2.81,0,0,0-1.45-2.79,4,4,0,0,1-2.06-3.43,4.51,4.51,0,0,1,.21-1.34,4.2,4.2,0,0,1,8.09.13,4.33,4.33,0,0,1,.18,1.21,4.07,4.07,0,0,1-2.19,3.5,2.64,2.64,0,0,0-1.42,2.58v.06c0,3,0,5.69,0,8.2,0,2.26,0,4.35,0,6.4v.06a4.3,4.3,0,0,0,1.41,3.31c1.67,1.62,3.34,3.31,5,4.93,2.07,2.07,4.2,4.21,6.35,6.27a5.34,5.34,0,0,1,1.8,4.24c0,14.58-.05,29-.05,41.2v35q0,28.59,0,57.17v.09a2.21,2.21,0,0,1,0,.48c0,.2,0,.41,0,.61s0,.29,0,.43v5.64c0,.15,0,.29,0,.44s0,.41,0,.61a2.21,2.21,0,0,1,0,.48v.08q0,28.59,0,57.18v35c0,12.19,0,26.62.05,41.17a5.38,5.38,0,0,1-1.8,4.27c-2.15,2.06-4.29,4.2-6.35,6.27-1.62,1.63-3.3,3.31-5,4.93a4.28,4.28,0,0,0-1.41,3.3V340c0,2,0,4.14,0,6.4,0,2.5,0,5.19,0,8.2v.06a2.65,2.65,0,0,0,1.42,2.58,4.07,4.07,0,0,1,2.19,3.5,4.33,4.33,0,0,1-.18,1.21,4.2,4.2,0,0,1-8.09.13,4.56,4.56,0,0,1-.21-1.34Zm7.59.13a3.36,3.36,0,0,0-3.24-3.31,3.28,3.28,0,0,0-2.38.88,3.37,3.37,0,0,0-1.07,2.32v.12a3.36,3.36,0,0,0,3.22,3.31,3.4,3.4,0,0,0,3.47-3.2Zm0-355A3.4,3.4,0,0,0,220,2.66,3.35,3.35,0,0,0,216.77,6v.12a3.37,3.37,0,0,0,1.07,2.32,3.28,3.28,0,0,0,2.38.88A3.37,3.37,0,0,0,223.46,6Z" transform="translate(212.8 180.61)"/><path class="cls-7" d="M336,479.59a3.72,3.72,0,0,1,1.89-3.31,3.2,3.2,0,0,0,1.71-3.33c0-2.66,0-5.3,0-7.93V452.17c0-7.06,0-14.66-.07-22.43v-.08a6.35,6.35,0,0,1,2.19-5.1c2.11-2,4.18-4.07,6.18-6.09,1.52-1.54,3.09-3.12,4.67-4.65a4.78,4.78,0,0,0,1.52-3.73c0-14.31,0-28.49,0-40.49V344.44c0-.65,0-1.3,0-2s.44-.79.58-.8a.62.62,0,0,1,.47.13,1,1,0,0,1,.21.74c0,.72,0,1.45,0,2.17v49c0,6.92,0,12.19,0,17.09v0a4.38,4.38,0,0,1-1.43,3.48c-2.21,2.15-4.42,4.37-6.56,6.51-1.7,1.7-3.45,3.46-5.2,5.17a4.09,4.09,0,0,0-1.31,3.15q0,11.52,0,23,0,10.55,0,21.07a2.88,2.88,0,0,0,1.58,3,3.85,3.85,0,0,1,2,3.43,4.55,4.55,0,0,1-.22,1.36,4.2,4.2,0,0,1-4,2.93,4,4,0,0,1-4-2.81A4.16,4.16,0,0,1,336,479.59Zm7.6.11a3.4,3.4,0,0,0-3-3.3,3.18,3.18,0,0,0-2.42.7,3.27,3.27,0,0,0-1.21,2.25c0,.12,0,.23,0,.34a3.24,3.24,0,0,0,2.95,3.3,3.32,3.32,0,0,0,3.66-2.94A2,2,0,0,0,343.59,479.7Z" transform="translate(212.8 180.61)"/><path class="cls-8" d="M318.45,311.93a3.83,3.83,0,0,1,2-3.35,3.13,3.13,0,0,0,1.66-3.14c0-6.25,0-12.46,0-18.68,0-8.33,0-16.94-.06-25.42a4.87,4.87,0,0,1,1.64-3.87c2-1.91,3.95-3.89,5.85-5.8s3.62-3.63,5.46-5.42a5,5,0,0,0,1.6-3.91c0-9.64,0-19.61,0-30.49v0q0-11.85,0-23.7V188l0-.07a1.56,1.56,0,0,1-.06-.48c0-.23,0-.47,0-.71a3.89,3.89,0,0,0,0-.47v-5.69a3.89,3.89,0,0,0,0-.49c0-.24,0-.49,0-.71a1.68,1.68,0,0,1,.06-.49l0-.06v-.07q0-11.85,0-23.7c0-10.9,0-20.89,0-30.53a5,5,0,0,0-1.6-3.93c-1.84-1.78-3.68-3.63-5.46-5.42s-3.87-3.88-5.85-5.79a4.84,4.84,0,0,1-1.64-3.83c0-8.52.05-17.13.06-25.46q0-9.33,0-18.65h0a3.14,3.14,0,0,0-1.66-3.17,3.84,3.84,0,0,1-2-3.35,4.27,4.27,0,0,1,.26-1.45,4.06,4.06,0,0,1,3.92-2.87,4.3,4.3,0,0,1,4.09,2.89,3.89,3.89,0,0,1,.22,1.32,4,4,0,0,1-2,3.48,3,3,0,0,0-1.61,3q0,12.62,0,25.19,0,9.45,0,18.89a4.33,4.33,0,0,0,1.44,3.33c1.84,1.8,3.69,3.65,5.48,5.44,2.05,2.06,4.17,4.18,6.29,6.24a3.94,3.94,0,0,1,1.28,3.11c0,6,0,11.84,0,16.27,0,2.54,0,28.09,0,28.09q0,5.49,0,11v.06l0,.06a1.47,1.47,0,0,1,.06.46c0,.22,0,.46-.05.69l0,.33v6c0,.13,0,.24,0,.36s.05.47.05.69a1.36,1.36,0,0,1-.06.45l0,.06v.07q0,5.47,0,10.95s0,25.56,0,28.09c0,4.44,0,10.29,0,16.25a4,4,0,0,1-1.28,3.14c-2.12,2.06-4.24,4.18-6.29,6.24-1.79,1.79-3.64,3.64-5.48,5.44a4.32,4.32,0,0,0-1.44,3.31c0,6.32,0,12.61,0,18.91q0,12.58,0,25.17a3,3,0,0,0,1.61,3,4,4,0,0,1,1.77,4.8,4.32,4.32,0,0,1-4.09,2.89,4.06,4.06,0,0,1-3.92-2.87A4.31,4.31,0,0,1,318.45,311.93Zm7.61.08a3.29,3.29,0,0,0-3.36-3.27,3.21,3.21,0,0,0-3.29,3.3,3.33,3.33,0,0,0,1,2.38,3.25,3.25,0,0,0,2.33.94,3.4,3.4,0,0,0,3.32-3.31h0Zm0-257.17a3.39,3.39,0,0,0-3.32-3.31,3.22,3.22,0,0,0-2.33.93,3.35,3.35,0,0,0-1,2.38,3.21,3.21,0,0,0,3.29,3.31,3.29,3.29,0,0,0,3.36-3.27Z" transform="translate(212.8 180.61)"/><path class="cls-9" d="M215.91,453.07a3.6,3.6,0,0,1,1.64-3.1,4.1,4.1,0,0,0,1.95-4.05v-.06q0-10.2,0-20.38c0-7.55,0-15.36,0-23a4.68,4.68,0,0,1,1.52-3.72c2-1.93,4-3.93,5.92-5.86s3.68-3.69,5.55-5.5a5,5,0,0,0,1.6-3.9c0-6.24,0-12.6,0-19.48,0-6.27,0-12.9,0-20.26h0a5.91,5.91,0,0,0-.05-.7c0-.24-.05-.48-.05-.71,0-.6.17-.79.72-.79a.8.8,0,0,1,.55.15,1.07,1.07,0,0,1,.18.73c0,.2,0,.43,0,.65s0,.45,0,.64c0,3,0,6.24,0,10.43v10.1c0,1.77,0,3.54,0,5.31s0,3.69,0,5.53c0,3.53,0,6.4.06,9v.11a4.77,4.77,0,0,1-1.64,3.77c-2,1.9-3.93,3.87-5.83,5.78-1.73,1.74-3.52,3.54-5.32,5.28a5.25,5.25,0,0,0-1.75,4.07c0,6.79.05,13.95.05,21.91q0,10.65,0,21.31h0a3.45,3.45,0,0,0,1.79,3.53,3.65,3.65,0,0,1,1.81,3.23,4.4,4.4,0,0,1-1,2.81,4.27,4.27,0,0,1-3,1.51,4.14,4.14,0,0,1-3.13-1.19,4.42,4.42,0,0,1-1.31-3.12Z" transform="translate(212.8 180.61)"/><path class="cls-10" d="M256.41,433.67v-.29c0-1.5.07-3.13.07-5.13,0-1.15,0-2.31,0-3.46s0-2.31,0-3.47v-6.87c0-2.42,0-4.83,0-7.25h0c0-.13,0-.24,0-.36s0-.22,0-.33a1.14,1.14,0,0,1,.17-.74.7.7,0,0,1,.49-.14c.52,0,.7.17.7,1.11v5c0,3.19,0,6.38,0,9.57,0,4.63,0,8.45,0,12v.05a4.72,4.72,0,0,0,1.56,3.68c1.8,1.75,3.59,3.55,5.33,5.3,2,2,4.06,4.08,6.13,6.07a4.62,4.62,0,0,1,1.49,3.67c0,7.7,0,15.48,0,23q0,8.69,0,17.38a3.34,3.34,0,0,0,1.73,3.36,3.68,3.68,0,0,1,1.84,3.28,4.32,4.32,0,0,1-.22,1.37,4.23,4.23,0,0,1-8.06,0,5,5,0,0,1-.18-1.31,3.76,3.76,0,0,1,2-3.45,2.84,2.84,0,0,0,1.58-3q0-9.94,0-19.85c0-7.4,0-14,0-20.3a4.5,4.5,0,0,0-1.48-3.54c-1.61-1.58-3.22-3.2-4.78-4.78-2.12-2.13-4.31-4.33-6.52-6.44A5.28,5.28,0,0,1,256.41,433.67Z" transform="translate(212.8 180.61)"/><path class="cls-11" d="M355.79,515.2a3.7,3.7,0,0,1,1.93-3.32c1.57-.86,1.7-2,1.7-3.34q0-16.28,0-32.53c0-14.93,0-28.48,0-41.43,0-.26,0-.54-.07-.84a6.7,6.7,0,0,1-.08-.87.94.94,0,0,1,.18-.67.84.84,0,0,1,.62-.15c.49,0,.75.16.75.92a6.79,6.79,0,0,1-.07.88c0,.3-.06.58-.06.84,0,7.52,0,15,0,20.71v32.33c0,6.14,0,13.39,0,20.69v.06c0,1.37.14,2.58,1.78,3.5a3.61,3.61,0,0,1,1.8,3.23,4.42,4.42,0,0,1-.24,1.43,4.15,4.15,0,0,1-4.08,2.88,4,4,0,0,1-3.91-2.84,4.17,4.17,0,0,1-.27-1.48Z" transform="translate(212.8 180.61)"/><path class="cls-12" d="M215.8,537.14a3.64,3.64,0,0,1,1.88-3.25,3.1,3.1,0,0,0,1.64-3.15c0-5.21,0-10.39,0-15.57,0-7.27,0-14.78,0-22.17a4.9,4.9,0,0,1,1.59-3.91c2.21-2.14,4.41-4.35,6.53-6.49,1.65-1.66,3.36-3.38,5.06-5a4.34,4.34,0,0,0,1.4-3.3v-.07c0-2,0-4.25,0-6.95,0-1.66,0-3.32,0-5,0-1.4,0-2.8,0-4.2v-.68c0-.27,0-.55,0-.83.05-.87.23-1,.59-1.06a.63.63,0,0,1,.5.12,1.26,1.26,0,0,1,.26.92c0,1.52,0,3,0,4.56v5.66h0v2.1c0,.84,0,1.68,0,2.52,0,1.43,0,2.61,0,3.69v.12a3.47,3.47,0,0,1-1.17,2.65c-2.12,2.08-4.25,4.22-6.31,6.28s-3.92,3.92-5.89,5.87a3.85,3.85,0,0,0-1.25,2.95c0,6.28,0,12.8,0,19.4q0,9.17,0,18.32h0a3,3,0,0,0,1.67,3.16,3.69,3.69,0,0,1,2,3.34,4.8,4.8,0,0,1-.23,1.43,4.15,4.15,0,0,1-4.05,2.92,4.09,4.09,0,0,1-4-3,4.55,4.55,0,0,1-.22-1.36Zm7.57.16a3.31,3.31,0,0,0-5.68-2.33,3.28,3.28,0,0,0-1,2.32,3.34,3.34,0,0,0,3.34,3.3,3.38,3.38,0,0,0,2.39-1,3.27,3.27,0,0,0,1-2.32Z" transform="translate(212.8 180.61)"/><path class="cls-13" d="M385.14,499c0-1.66,0-3.47,0-5.7,0-1.2,0-2.39,0-3.59V479.34q0-3.06,0-6.12h0c0-.17,0-.33,0-.5s0-.31,0-.47c0-.64.15-.83.66-.84a.75.75,0,0,1,.53.13,1,1,0,0,1,.16.7c0,.15,0,.3,0,.45s0,.31,0,.46v1c0,3.94,0,7.87,0,11.81,0,4.49,0,8.42,0,12v.05a4.48,4.48,0,0,0,1.45,3.5c2,2,4.1,4.05,6.08,6s3.77,3.78,5.67,5.65a3.65,3.65,0,0,1,1.24,2.88v.06c0,3.24,0,6.52,0,9.3v5.44c0,1.92,0,3.84,0,5.76v.09a2.53,2.53,0,0,0,1.65,2.81,3.78,3.78,0,0,1,2.39,3.55,4.48,4.48,0,0,1-.16,1.19,4,4,0,0,1-3.66,3.15,4.09,4.09,0,0,1-4.29-2.54,4.57,4.57,0,0,1-.37-1.74,4,4,0,0,1,1.87-3.32,2.85,2.85,0,0,0,1.3-2.66c0-3.46,0-6.88,0-10.3,0-3.66,0-6.93,0-10v0a4,4,0,0,0-1.33-3.1c-1.87-1.84-3.75-3.73-5.57-5.55-2.07-2.08-4.2-4.22-6.33-6.3a3.63,3.63,0,0,1-1.21-2.85ZM404,543.29a3.32,3.32,0,1,0-3.34,3.33,3.28,3.28,0,0,0,3.34-3.33Z" transform="translate(212.8 180.61)"/><path class="cls-14" d="M311.48,226.37a3.77,3.77,0,0,1,1.88-3.29,3.24,3.24,0,0,0,1.71-3.29c0-6.1,0-12.55,0-20.95V168c0-8.4,0-14.84,0-20.9h0a3.26,3.26,0,0,0-1.71-3.33,3.74,3.74,0,0,1-1.88-3.3,4.32,4.32,0,0,1,.29-1.53,4,4,0,0,1,4-2.78,4.23,4.23,0,0,1,4,2.93,4.73,4.73,0,0,1,.2,1.34,3.85,3.85,0,0,1-2,3.45,2.93,2.93,0,0,0-1.61,3.07v.1c0,3.13,0,6.27,0,9.41v53.89c0,3.14,0,6.28,0,9.41v.1A2.93,2.93,0,0,0,318,223a3.84,3.84,0,0,1,2,3.45,4.73,4.73,0,0,1-.2,1.34,4.24,4.24,0,0,1-4,2.93,4,4,0,0,1-4-2.79,4.23,4.23,0,0,1-.29-1.52Z" transform="translate(212.8 180.61)"/><path class="cls-15" d="M175.14,226.37a3.77,3.77,0,0,1,1.88-3.29,3.24,3.24,0,0,0,1.71-3.29c0-6.1,0-12.55,0-20.95V168c0-8.4,0-14.84,0-20.9h0a3.26,3.26,0,0,0-1.71-3.33,3.72,3.72,0,0,1-1.88-3.3,4.11,4.11,0,0,1,.29-1.53,4,4,0,0,1,3.95-2.78,4.21,4.21,0,0,1,4,2.93,4.4,4.4,0,0,1,.2,1.34,3.84,3.84,0,0,1-2,3.45A2.92,2.92,0,0,0,180,147v.1c0,3.13,0,6.27,0,9.41v53.89c0,3.14,0,6.28,0,9.41v.1a2.92,2.92,0,0,0,1.62,3.07,3.83,3.83,0,0,1,2,3.45,4.4,4.4,0,0,1-.2,1.34,4.22,4.22,0,0,1-4,2.93,4.35,4.35,0,0,1-4.24-4.31Z" transform="translate(212.8 180.61)"/><path class="cls-16" d="M241.57,515.22a3.52,3.52,0,0,1,1.68-3.12,3.82,3.82,0,0,0,1.95-3.82V508c0-1.26,0-2.53,0-3.79,0-1.64,0-3.29,0-4.94,0-.85,0-2.57,0-2.57v-.3c0-.09,0-.18,0-.28h0c0-.74.16-.87.54-.89a.68.68,0,0,1,.54.12c.24.22.24.81.24,1.29V503s0,2.23,0,2.69,0,1.1,0,1.65v.59c0,1.65.16,3.24,2.19,4.52a3.11,3.11,0,0,1,1.42,2.74,4.58,4.58,0,0,1-1.43,3.27,4.21,4.21,0,0,1-6-.28A4.42,4.42,0,0,1,241.57,515.22Z" transform="translate(212.8 180.61)"/><path class="cls-17" d="M-10.53,485a4.22,4.22,0,0,1,.66-2.23A4,4,0,0,1-5.08,481a2.68,2.68,0,0,0,3.25-.89C7,471.22,14.2,464,20.84,457.43a4.11,4.11,0,0,0,1.31-3.17q0-26.53,0-53.05,0-26.15,0-52.29a4.31,4.31,0,0,0-1.44-3.33c-1.59-1.55-3.17-3.15-4.71-4.69-2.14-2.16-4.36-4.39-6.6-6.53A5.57,5.57,0,0,1,7.53,330c0-15.08,0-30.18,0-43V89.09c0-12.79,0-27.89,0-42.94A5.56,5.56,0,0,1,9.4,41.71c2.24-2.14,4.46-4.38,6.61-6.54,1.53-1.54,3.12-3.14,4.7-4.69a4.29,4.29,0,0,0,1.44-3.32q0-26.14,0-52.3,0-26.52,0-53a4.09,4.09,0,0,0-1.31-3.16C14.22-87.92,7-95.13-1.83-104a2.69,2.69,0,0,0-3.25-.89,4,4,0,0,1-4.79-1.78,4.17,4.17,0,0,1-.66-2.22,4.18,4.18,0,0,1,1.06-2.75,4.24,4.24,0,0,1,4.88-1.1A4,4,0,0,1-2.11-109a4.94,4.94,0,0,1-.11,1,3.09,3.09,0,0,0-.07.66,3.09,3.09,0,0,0,1.19,2.23l.09.08L5.25-98.8C10.72-93.31,16.38-87.64,22-82.1a4.49,4.49,0,0,1,1.49,3.5c0,17.44,0,35.62,0,54.05q0,26.09,0,52.18A4.2,4.2,0,0,1,22.12,31c-1.94,1.89-3.88,3.83-5.76,5.72s-3.88,3.89-5.85,5.8A5,5,0,0,0,8.9,46.41c0,34.37,0,69.31,0,103.1v77.06c0,33.78,0,68.72,0,103.08a5,5,0,0,0,1.61,3.93c2,1.91,4,3.89,5.85,5.81s3.82,3.83,5.76,5.71a4.21,4.21,0,0,1,1.34,3.34q0,26.1,0,52.19c0,18.42,0,36.61,0,54A4.48,4.48,0,0,1,22,458.17c-5.58,5.53-11.22,11.18-16.67,16.64L-1,481.14l-.09.09a3.06,3.06,0,0,0-1.19,2.23,3.09,3.09,0,0,0,.07.66,4.84,4.84,0,0,1,.11,1,4,4,0,0,1-2.48,3.72,4.24,4.24,0,0,1-4.88-1.1A4.15,4.15,0,0,1-10.53,485Z" transform="translate(212.8 180.61)"/><path class="cls-18" d="M-25.7,464.45a4.13,4.13,0,0,1,.6-2.16,4.1,4.1,0,0,1,5-1.73,2.32,2.32,0,0,0,2.69-.71c2.74-2.8,5.57-5.7,8.48-8.47a4.92,4.92,0,0,0,1.63-3.9q0-20.76,0-41.48c0-16.28,0-33.37,0-50.79a4.31,4.31,0,0,0-1.41-3.35c-1.72-1.68-3.45-3.41-5.13-5.09-2.11-2.12-4.3-4.31-6.49-6.42a4.89,4.89,0,0,1-1.62-3.88c0-16.12,0-32.06,0-45.53V85.13c0-13.47,0-29.41,0-45.51a4.92,4.92,0,0,1,1.62-3.9c2.19-2.11,4.38-4.3,6.49-6.42,1.68-1.67,3.41-3.41,5.13-5.09a4.29,4.29,0,0,0,1.41-3.34c0-17.43,0-34.52,0-50.8q0-20.73,0-41.46a4.93,4.93,0,0,0-1.63-3.92c-2.91-2.78-5.74-5.67-8.48-8.46a2.31,2.31,0,0,0-2.69-.72,4.09,4.09,0,0,1-5-1.73,4.1,4.1,0,0,1-.6-2.15,4.27,4.27,0,0,1,1.05-2.83,4.23,4.23,0,0,1,4.89-1,3.92,3.92,0,0,1,2.44,3.7,5.51,5.51,0,0,1-.11,1,3.17,3.17,0,0,0-.08.72,2.77,2.77,0,0,0,1,2.1q2,2,3.93,3.93C-10.79-79-9-77.2-7.2-75.45A3.49,3.49,0,0,1-6-72.71Q-6-51-6-29.29C-6-12.23-6,5-6,22a3.33,3.33,0,0,1-1.17,2.54c-1.55,1.54-3.1,3.1-4.64,4.65C-14.18,31.51-16.62,34-19,36.35a4.52,4.52,0,0,0-1.5,3.53c0,36.29,0,73.18,0,108.85v9.21q0,13.16,0,26.31v7.56q0,13.17,0,26.32v9.21c0,35.68,0,72.57,0,108.85a4.55,4.55,0,0,0,1.5,3.54c2.43,2.38,4.88,4.84,7.24,7.21,1.55,1.55,3.09,3.1,4.64,4.64A3.33,3.33,0,0,1-6,354.12c0,16.95,0,34.19,0,51.24q0,21.7,0,43.42a3.48,3.48,0,0,1-1.19,2.74c-1.79,1.75-3.59,3.56-5.33,5.31l-3.94,3.93a2.75,2.75,0,0,0-1,2.09,3.11,3.11,0,0,0,.08.72,5.51,5.51,0,0,1,.11,1.05,4,4,0,0,1-2.44,3.71,4.23,4.23,0,0,1-4.89-1.06A4.24,4.24,0,0,1-25.7,464.45Z" transform="translate(212.8 180.61)"/><path class="cls-19" d="M-51.43,342.15c0-16.44,0-32.54,0-46.13v-216c0-13.58,0-29.69,0-46.13a5.57,5.57,0,0,1,1.8-4.48c2.21-2.11,4.4-4.31,6.51-6.43,1.57-1.58,3.19-3.21,4.8-4.79a4.73,4.73,0,0,0,1.57-3.68c0-5.25,0-10.56,0-16.3,0-5.21,0-10.67,0-16.67v-.05c0-1.49-.3-2.49-1.83-3.22a3.81,3.81,0,0,1-2.08-3.49,4.06,4.06,0,0,1,.13-1,4.23,4.23,0,0,1,3.84-3.21,4.13,4.13,0,0,1,4.2,2.67,5.48,5.48,0,0,1,.3,1.73,3.5,3.5,0,0,1-1.65,3,3.52,3.52,0,0,0-1.65,3.36c0,4.58,0,9.11,0,13.65,0,6.41,0,13,.06,19.54v.09A5.44,5.44,0,0,1-37.22,19c-2.16,2.05-4.3,4.2-6.36,6.28-1.56,1.57-3.18,3.2-4.8,4.78A5,5,0,0,0-50,34c0,27.83,0,55.43,0,81.32V260.76c0,25.89,0,53.49,0,81.32A5,5,0,0,0-48.38,346c1.62,1.57,3.24,3.2,4.8,4.78,2.06,2.08,4.2,4.22,6.36,6.27a5.44,5.44,0,0,1,1.8,4.39v.08c0,6.51,0,13.14-.06,19.54q0,6.81,0,13.61h0a3.53,3.53,0,0,0,1.65,3.4,3.5,3.5,0,0,1,1.65,3.05,5.47,5.47,0,0,1-.3,1.72,4.13,4.13,0,0,1-4.2,2.67,4.21,4.21,0,0,1-3.84-3.21,4,4,0,0,1-.13-1,3.79,3.79,0,0,1,2.08-3.49,3,3,0,0,0,1.83-3.23v-.05c0-6,0-11.45,0-16.67,0-5.73,0-11.05,0-16.26h0a4.78,4.78,0,0,0-1.57-3.72c-1.61-1.58-3.23-3.21-4.8-4.78-2.11-2.13-4.3-4.33-6.51-6.44a5.54,5.54,0,0,1-1.8-4.45Zm18.3,59.16a3.32,3.32,0,0,0-1-2.35,3.26,3.26,0,0,0-2.35-.95,3.33,3.33,0,0,0-3.32,3.3,3.43,3.43,0,0,0,3.36,3.34,3.27,3.27,0,0,0,3.28-3.32h0Zm0-426.57a3.28,3.28,0,0,0-3.28-3.32,3.42,3.42,0,0,0-3.36,3.31,3.33,3.33,0,0,0,3.32,3.33,3.25,3.25,0,0,0,2.35-.94,3.34,3.34,0,0,0,1-2.36Z" transform="translate(212.8 180.61)"/><path class="cls-20" d="M117.77,410.79a3.6,3.6,0,0,1,1.68-3.1c1.77-1.13,1.91-2.48,1.91-4.12q0-37.4,0-74.74V282q0-46.93,0-93.88V188l0-.06a2,2,0,0,1-.06-.54c0-.24,0-.49,0-.73s0-.4,0-.58v-5.32c0-.19,0-.39,0-.59s0-.5,0-.73a2,2,0,0,1,.06-.54l0-.06v-.07q0-46.94,0-93.87V38.05q0-37.35,0-74.71c0-1.66-.14-3-1.91-4.14a3.6,3.6,0,0,1-1.68-3.1,4.39,4.39,0,0,1,1.18-3A4.25,4.25,0,0,1,122-48.21a4.22,4.22,0,0,1,3.09,1.34,4.27,4.27,0,0,1,1.17,2.93,3.79,3.79,0,0,1-1.79,3.28,3.6,3.6,0,0,0-1.82,3.52c0,54.06,0,109,0,162.18v29.4q0,12.15,0,24.3v.08l0,.07a1.48,1.48,0,0,1,.07.52,7.27,7.27,0,0,1-.05.78c0,.15,0,.3,0,.44v5.6c0,.17,0,.32,0,.47a7,7,0,0,1,.05.78,1.48,1.48,0,0,1-.07.52l0,.07v.07q0,12.17,0,24.31v29.39c0,53.16,0,108.12,0,162.18a3.61,3.61,0,0,0,1.82,3.53,3.79,3.79,0,0,1,1.79,3.28,4.27,4.27,0,0,1-1.17,2.93,4.21,4.21,0,0,1-6.18,0A4.38,4.38,0,0,1,117.77,410.79Z" transform="translate(212.8 180.61)"/><path class="cls-21" d="M46.08,415.3c0-4.88,0-10.11,0-17v-49.1c0-.73,0-1.46,0-2.18a1,1,0,0,1,.21-.74.62.62,0,0,1,.47-.13c.14,0,.58,0,.58.81s0,1.3,0,1.95v25.11c0,12,0,26.28,0,40.53a4.74,4.74,0,0,0,1.52,3.74c1.58,1.53,3.15,3.12,4.67,4.65,2,2,4.07,4.11,6.18,6.09a6.35,6.35,0,0,1,2.19,5.1v.08c-.06,7.77-.07,15.38-.07,22.44v12.84c0,2.63,0,5.27,0,7.9h0c0,1.34.13,2.49,1.71,3.37a3.69,3.69,0,0,1,1.89,3.3,4.18,4.18,0,0,1-.28,1.52,4,4,0,0,1-3.95,2.8,4.2,4.2,0,0,1-4.05-2.93,4.54,4.54,0,0,1-.22-1.35,3.83,3.83,0,0,1,2-3.43,2.89,2.89,0,0,0,1.58-3c0-7.05,0-14.07,0-21.1q0-11.47,0-23a4.08,4.08,0,0,0-1.31-3.16c-1.75-1.72-3.5-3.48-5.2-5.18-2.14-2.15-4.35-4.36-6.56-6.51a4.36,4.36,0,0,1-1.43-3.47Zm18.43,68.9c0-.12,0-.23,0-.35a3.27,3.27,0,0,0-3.63-3,3.39,3.39,0,0,0-3,3.3,2,2,0,0,0,0,.35,3.32,3.32,0,0,0,3.66,2.94A3.23,3.23,0,0,0,64.51,484.2Z" transform="translate(212.8 180.61)"/><path class="cls-22" d="M151.48,342.3a1.06,1.06,0,0,1,.18-.72.8.8,0,0,1,.55-.15c.55,0,.72.19.72.79,0,.23,0,.47-.05.71a6,6,0,0,0-.06.69c0,7.33,0,13.95,0,20.23,0,6.89,0,13.26,0,19.48a5,5,0,0,0,1.6,3.93c1.87,1.82,3.74,3.69,5.55,5.51s3.92,3.93,5.91,5.86a4.67,4.67,0,0,1,1.53,3.69c0,7.71,0,15.52,0,23.07q0,10.19,0,20.37v.06c0,1.54.14,2.9,2,4.06a3.6,3.6,0,0,1,1.64,3.1,4.44,4.44,0,0,1-1.31,3.12,4.14,4.14,0,0,1-3.13,1.19,4.25,4.25,0,0,1-3-1.51,4.4,4.4,0,0,1-1-2.81h0a3.64,3.64,0,0,1,1.81-3.23,3.44,3.44,0,0,0,1.79-3.5q0-10.73,0-21.39c0-8,0-15.09,0-21.83h0a5.24,5.24,0,0,0-1.75-4.1c-1.79-1.74-3.59-3.54-5.32-5.29-1.9-1.91-3.85-3.88-5.82-5.77a4.77,4.77,0,0,1-1.64-3.77V384c0-2.61.05-5.46.05-9,0-1.84,0-3.67,0-5.51s0-3.57,0-5.36V354c0-4.17,0-7.37,0-10.36h0q0-.31,0-.66C151.5,342.74,151.48,342.51,151.48,342.3Z" transform="translate(212.8 180.61)"/><path class="cls-23" d="M117.72,499.06a3.7,3.7,0,0,1,1.84-3.28,3.29,3.29,0,0,0,1.72-3.31q0-8.76,0-17.45c0-7.52,0-15.29,0-22.94a4.64,4.64,0,0,1,1.49-3.71c2.07-2,4.13-4.06,6.12-6.06,1.74-1.75,3.54-3.56,5.34-5.31a4.74,4.74,0,0,0,1.56-3.68v-.05c0-3.59,0-7.43,0-12.07,0-3.23,0-6.46,0-9.69v-4.86c0-.94.18-1.11.7-1.11a.72.72,0,0,1,.49.14,1.14,1.14,0,0,1,.16.74v.33c0,.12,0,.23,0,.33,0,2.42,0,4.81,0,7.2v7c0,1.15,0,2.31,0,3.46s0,2.31,0,3.46c0,2,0,3.64.07,5.14v.29a5.31,5.31,0,0,1-1.8,4.18c-2.21,2.11-4.4,4.31-6.52,6.44-1.56,1.58-3.17,3.2-4.79,4.77a4.54,4.54,0,0,0-1.47,3.52c0,6.28,0,12.9,0,20.27q0,9.94,0,19.89a2.83,2.83,0,0,0,1.59,3,3.77,3.77,0,0,1,2,3.46,4.61,4.61,0,0,1-.19,1.31,4.22,4.22,0,0,1-8,.05A4.33,4.33,0,0,1,117.72,499.06Z" transform="translate(212.8 180.61)"/><path class="cls-24" d="M42.6,519.71a3.61,3.61,0,0,1,1.8-3.23c1.64-.92,1.77-2.13,1.77-3.5v-.06c0-7.32,0-14.56,0-20.67V460c0-5.7,0-13.22,0-20.77h0a6.48,6.48,0,0,0-.07-.85c0-.3-.06-.6-.06-.88,0-.76.26-.91.75-.92a.87.87,0,0,1,.62.15.94.94,0,0,1,.18.67,7,7,0,0,1-.08.88,6.2,6.2,0,0,0-.07.83c0,13,0,26.62,0,41.58q0,16.18,0,32.37c0,1.33.13,2.5,1.7,3.35a3.71,3.71,0,0,1,1.93,3.32,4.22,4.22,0,0,1-.27,1.49A4,4,0,0,1,46.92,524a4.16,4.16,0,0,1-4.08-2.89A4.42,4.42,0,0,1,42.6,519.71Z" transform="translate(212.8 180.61)"/><path class="cls-25" d="M151.6,475c0-1.08,0-2.26,0-3.69,0-.84,0-1.68,0-2.52s0-1.41,0-2.11l0-.41V461c0-1.51,0-3,0-4.53a1.31,1.31,0,0,1,.25-.92.71.71,0,0,1,.51-.13c.36,0,.54.2.59,1.07,0,.28,0,.55,0,.83V458c0,1.43,0,2.83,0,4.23v5c0,2.7,0,4.91,0,7v.06a4.32,4.32,0,0,0,1.41,3.3c1.7,1.68,3.41,3.4,5.07,5.07,2.12,2.13,4.31,4.34,6.51,6.47a4.84,4.84,0,0,1,1.6,3.87c0,7.43,0,14.94,0,22.2q0,7.78,0,15.55h0a3.11,3.11,0,0,0,1.64,3.18,3.63,3.63,0,0,1,1.87,3.25,4.54,4.54,0,0,1-.21,1.36,4.2,4.2,0,0,1-8,.09,4.8,4.8,0,0,1-.23-1.43,3.69,3.69,0,0,1,2-3.34,3,3,0,0,0,1.67-3.13c0-6.16,0-12.28,0-18.41,0-6.59,0-13.1,0-19.32a3.83,3.83,0,0,0-1.25-3c-2-1.94-4-3.93-5.87-5.86s-4.2-4.21-6.32-6.3a3.44,3.44,0,0,1-1.17-2.64Zm18.56,62.22a3.32,3.32,0,0,0-1-2.32,3.31,3.31,0,0,0-5.68,2.33,3.27,3.27,0,0,0,1,2.33,3.37,3.37,0,0,0,5.73-2.33h0Z" transform="translate(212.8 180.61)"/><path class="cls-26" d="M3.67,547.64a3.79,3.79,0,0,1,2.4-3.55,2.53,2.53,0,0,0,1.65-2.81v-.09c0-1.94,0-3.89,0-5.83V530c0-2.78,0-6.06,0-9.29v-.05a3.7,3.7,0,0,1,1.23-2.89c1.91-1.87,3.82-3.78,5.67-5.64s4-4.05,6.09-6a4.51,4.51,0,0,0,1.44-3.51v-.05c0-3.59,0-7.51,0-12,0-3.94,0-7.87,0-11.81v-1c0-.15,0-.3,0-.46s0-.3,0-.45a1,1,0,0,1,.16-.7.74.74,0,0,1,.53-.13c.51,0,.66.2.66.84,0,.16,0,.32,0,.48s0,.32,0,.47c0,2.07,0,4.11,0,6.15v6.8c0,1.18,0,2.36,0,3.55v3.55c0,2.24,0,4.05,0,5.71v.1a3.63,3.63,0,0,1-1.21,2.85c-2.13,2.08-4.27,4.23-6.34,6.31-1.82,1.82-3.69,3.71-5.56,5.54A4,4,0,0,0,9,521.37v0c0,3.09,0,6.37,0,10,0,3.42,0,6.83,0,10.25H9a2.87,2.87,0,0,0,1.3,2.69,4,4,0,0,1,1.86,3.32,4.39,4.39,0,0,1-.37,1.74A4.06,4.06,0,0,1,7.5,552a3.94,3.94,0,0,1-3.66-3.15,4.39,4.39,0,0,1-.17-1.19Zm7.56.15a3.32,3.32,0,1,0-3.3,3.33,3.29,3.29,0,0,0,3.3-3.33h0Z" transform="translate(212.8 180.61)"/><path class="cls-27" d="M136.3,515.05a3.11,3.11,0,0,1,1.42-2.74c2-1.28,2.19-2.87,2.19-4.52v-.57c0-.57,0-1.12,0-1.67v-9c0-.5,0-1.1.24-1.32a.77.77,0,0,1,.54-.12c.38,0,.54.16.54.9,0,.09,0,.19,0,.28v.27c0,.89,0,1.74,0,2.59,0,1.65,0,3.29,0,4.93,0,1.4,0,2.65,0,3.81v.29a3.81,3.81,0,0,0,2,3.82,3.55,3.55,0,0,1,1.68,3.13,4.42,4.42,0,0,1-1.11,2.91,4.21,4.21,0,0,1-6,.28,4.58,4.58,0,0,1-1.43-3.27Z" transform="translate(212.8 180.61)"/><path class="cls-28" d="M390.52,450.16c0-17.45,0-35.68,0-54.16q0-26,0-52.05a4.21,4.21,0,0,1,1.34-3.35c1.94-1.88,3.88-3.83,5.76-5.72s3.88-3.89,5.85-5.8a5,5,0,0,0,1.61-3.92c0-34.87,0-70.32,0-104.6V187.12c0-.11,0-.2,0-.29s0-.45,0-.45v-6.32a2.62,2.62,0,0,1,0-.28V146.33c0-34.28,0-69.73,0-104.59a5,5,0,0,0-1.61-3.93c-2-1.91-3.94-3.89-5.85-5.81s-3.82-3.83-5.76-5.71A4.21,4.21,0,0,1,390.52,23q0-26,0-52.07c0-18.48,0-36.7,0-54.15A4.5,4.5,0,0,1,392-86.78c5.57-5.51,11.19-11.15,16.63-16.6l6.37-6.37.08-.09a3,3,0,0,0,1.2-2.23,3.13,3.13,0,0,0-.08-.66,4.84,4.84,0,0,1-.11-1,4,4,0,0,1,2.48-3.72,4.23,4.23,0,0,1,4.88,1.1,4.15,4.15,0,0,1,1.06,2.74,4.3,4.3,0,0,1-.65,2.23,4,4,0,0,1-4.79,1.78,2.68,2.68,0,0,0-3.25.88c-8.89,8.94-16.1,16.14-22.67,22.67a4.11,4.11,0,0,0-1.31,3.16q0,26.46,0,52.89,0,26.24,0,52.46a4.32,4.32,0,0,0,1.45,3.33c1.58,1.55,3.16,3.14,4.7,4.69,2.14,2.16,4.36,4.39,6.6,6.53a5.54,5.54,0,0,1,1.87,4.42c0,15.05-.05,30.18-.05,43v29s0,54.45,0,70,0,72.59,0,72.59v26.42c0,12.82,0,27.95.05,43a5.56,5.56,0,0,1-1.87,4.45c-2.24,2.14-4.46,4.37-6.6,6.53-1.54,1.54-3.12,3.14-4.7,4.69a4.3,4.3,0,0,0-1.45,3.32q0,26.25,0,52.47,0,26.43,0,52.88a4.09,4.09,0,0,0,1.31,3.16c6.6,6.56,13.8,13.76,22.67,22.67a2.67,2.67,0,0,0,3.25.89,4,4,0,0,1,4.79,1.78,4.3,4.3,0,0,1,.65,2.22,4.18,4.18,0,0,1-1.06,2.75,4.23,4.23,0,0,1-4.88,1.1,4,4,0,0,1-2.48-3.72,4.77,4.77,0,0,1,.11-1,3.2,3.2,0,0,0,.08-.66,3.07,3.07,0,0,0-1.2-2.24l-.08-.08-6.37-6.37c-5.44-5.45-11.06-11.09-16.63-16.6a4.51,4.51,0,0,1-1.48-3.5Z" transform="translate(212.8 180.61)"/><path class="cls-29" d="M414.56,349.62a3.3,3.3,0,0,1,1.17-2.54l4.64-4.64c2.36-2.37,4.81-4.83,7.24-7.22a4.55,4.55,0,0,0,1.5-3.53c0-36.29,0-73.18,0-108.85v-9.22q0-13.23,0-26.48a1.28,1.28,0,0,1,0-.19v-7a.91.91,0,0,1,0-.17q0-13.26,0-26.5v-9.21c0-35.68,0-72.57,0-108.85a4.58,4.58,0,0,0-1.5-3.54c-2.43-2.38-4.88-4.84-7.24-7.21l-4.64-4.64a3.3,3.3,0,0,1-1.17-2.54c0-16.85,0-34,0-51.12q0-21.76,0-43.54a3.51,3.51,0,0,1,1.19-2.74c1.8-1.76,3.61-3.57,5.35-5.32,1.31-1.31,2.61-2.62,3.93-3.92a2.78,2.78,0,0,0,1-2.09,3.11,3.11,0,0,0-.08-.72,5.51,5.51,0,0,1-.11-1,4,4,0,0,1,2.44-3.71,4.23,4.23,0,0,1,4.89,1.06,4.24,4.24,0,0,1,1.05,2.82,4.13,4.13,0,0,1-.6,2.16,4.11,4.11,0,0,1-5,1.73,2.31,2.31,0,0,0-2.68.71c-2.75,2.81-5.58,5.7-8.49,8.47a4.91,4.91,0,0,0-1.62,3.9q0,20.84,0,41.63c0,16.22,0,33.26,0,50.64a4.31,4.31,0,0,0,1.41,3.35c1.72,1.68,3.45,3.42,5.13,5.1,2.11,2.11,4.3,4.3,6.49,6.41a4.89,4.89,0,0,1,1.62,3.88c0,16.16,0,32.26,0,45.87v205.3c0,13.62,0,29.72,0,45.86a4.92,4.92,0,0,1-1.62,3.9c-2.19,2.11-4.38,4.3-6.49,6.41-1.68,1.68-3.41,3.42-5.13,5.1a4.3,4.3,0,0,0-1.41,3.34c0,17.39,0,34.43,0,50.64q0,20.82,0,41.62a4.93,4.93,0,0,0,1.62,3.92c2.9,2.76,5.74,5.66,8.49,8.46a2.29,2.29,0,0,0,2.68.72,4.15,4.15,0,0,1,5.62,3.89,4.21,4.21,0,0,1-5.94,3.88,4,4,0,0,1-2.44-3.71,5.51,5.51,0,0,1,.11-1.05,3.17,3.17,0,0,0,.08-.72,2.8,2.8,0,0,0-1-2.1c-1.31-1.29-2.61-2.6-3.91-3.9-1.75-1.76-3.56-3.57-5.37-5.33a3.52,3.52,0,0,1-1.19-2.74q0-21.78,0-43.54c0-17.07,0-34.27,0-51.12Z" transform="translate(212.8 180.61)"/><path class="cls-30" d="M437,396.61a3.5,3.5,0,0,1,1.65-3,3.51,3.51,0,0,0,1.65-3.36c0-4.58,0-9.11,0-13.65,0-6.41,0-13-.06-19.54v-.09a5.44,5.44,0,0,1,1.8-4.38c2.16-2.05,4.29-4.19,6.35-6.27,1.57-1.58,3.19-3.21,4.81-4.79a5,5,0,0,0,1.65-3.91c0-28,0-55.54,0-83.68V113c0-28.14,0-55.72,0-83.68a5,5,0,0,0-1.65-3.92c-1.62-1.57-3.24-3.2-4.8-4.78-2.06-2.08-4.2-4.22-6.36-6.27a5.44,5.44,0,0,1-1.8-4.39V9.87c0-6.51,0-13.14.06-19.54q0-6.81,0-13.61h0a3.53,3.53,0,0,0-1.65-3.39A3.5,3.5,0,0,1,437-29.73h0a5.47,5.47,0,0,1,.3-1.72,4.15,4.15,0,0,1,4.2-2.68,4.24,4.24,0,0,1,3.84,3.22,4,4,0,0,1,.13,1,3.79,3.79,0,0,1-2.08,3.49c-1.53.73-1.83,1.74-1.83,3.23v.05c0,6,0,11.47,0,16.66,0,5.75,0,11.07,0,16.27a4.79,4.79,0,0,0,1.58,3.72c1.61,1.58,3.23,3.21,4.8,4.78,2.11,2.13,4.3,4.33,6.51,6.43a5.58,5.58,0,0,1,1.8,4.46c0,16.39,0,32.39,0,45.89V291.79c0,13.5,0,29.5,0,45.86a5.57,5.57,0,0,1-1.8,4.48c-2.21,2.11-4.4,4.31-6.51,6.43-1.57,1.58-3.19,3.21-4.8,4.79a4.75,4.75,0,0,0-1.58,3.68c0,5.24,0,10.56,0,16.3,0,5.2,0,10.65,0,16.67v.05a3,3,0,0,0,1.83,3.23,3.79,3.79,0,0,1,2.08,3.49,4,4,0,0,1-.13,1,4.21,4.21,0,0,1-3.84,3.21,4.13,4.13,0,0,1-4.2-2.67A5.48,5.48,0,0,1,437,396.61Zm7.58-426.56a3.44,3.44,0,0,0-3.36-3.32,3.28,3.28,0,0,0-3.28,3.33,3.33,3.33,0,0,0,1,2.37,3.26,3.26,0,0,0,2.35.95,3.33,3.33,0,0,0,3.32-3.3h0Zm0,426.76a3.33,3.33,0,0,0-3.32-3.3,3.32,3.32,0,0,0,0,6.64,3.42,3.42,0,0,0,3.36-3.31Z" transform="translate(212.8 180.61)"/><path class="cls-31" d="M282.26,410.92a3.79,3.79,0,0,1,1.79-3.28,3.62,3.62,0,0,0,1.82-3.52c0-50.31,0-100.18,0-151.09V212.15q0-12,0-24.1V188l0-.07a1.76,1.76,0,0,1-.07-.52,7,7,0,0,1,.06-.78c0-.15,0-.3,0-.45v-5.41c0-.17,0-.32,0-.47a7,7,0,0,1-.06-.78,1.76,1.76,0,0,1,.07-.52l0-.07v-.08q0-12,0-24.09V113.86c0-50.92,0-100.78,0-151.09a3.61,3.61,0,0,0-1.82-3.52A3.79,3.79,0,0,1,282.26-44,4.3,4.3,0,0,1,283.42-47a4.24,4.24,0,0,1,3.1-1.34,4.21,4.21,0,0,1,3.08,1.35,4.35,4.35,0,0,1,1.19,3,3.61,3.61,0,0,1-1.68,3.1c-1.77,1.13-1.91,2.48-1.91,4.12q0,37.37,0,74.7V83.19q0,47.85,0,95.7V179l0,.06a2,2,0,0,1,.06.54c0,.23,0,.49,0,.73s0,.4,0,.58V186c0,.19,0,.38,0,.59s0,.49,0,.73a2,2,0,0,1-.06.54l0,.06V188q0,47.87,0,95.71V329q0,37.34,0,74.68c0,1.66.14,3,1.91,4.14a3.6,3.6,0,0,1,1.68,3.1,4.35,4.35,0,0,1-1.19,3,4.22,4.22,0,0,1-6.18,0A4.3,4.3,0,0,1,282.26,410.92Z" transform="translate(212.8 180.61)"/><path class="cls-32" d="M336-112.7a4.18,4.18,0,0,1,.28-1.52,4,4,0,0,1,4-2.8,4.2,4.2,0,0,1,4,2.93,4.54,4.54,0,0,1,.22,1.35,3.83,3.83,0,0,1-2,3.43,2.88,2.88,0,0,0-1.58,3q0,10.57,0,21.09,0,11.49,0,23a4.08,4.08,0,0,0,1.31,3.16c1.75,1.72,3.5,3.48,5.2,5.18,2.14,2.14,4.35,4.36,6.56,6.51A4.36,4.36,0,0,1,355.38-44v.05c0,6.28,0,12.43,0,17.08v49c0,.73,0,1.46,0,2.18a1,1,0,0,1-.21.74.62.62,0,0,1-.47.13c-.14,0-.58,0-.58-.81s0-1.3,0-1.95V-2.72c0-12,0-26.17,0-40.47a4.78,4.78,0,0,0-1.52-3.74c-1.57-1.53-3.15-3.11-4.67-4.65-2-2-4.07-4.11-6.18-6.09a6.35,6.35,0,0,1-2.19-5.1v-.09c.06-7.76.07-15.37.07-22.42V-98.13c0-2.63,0-5.27,0-7.9h0c0-1.34-.13-2.49-1.71-3.37A3.69,3.69,0,0,1,336-112.7Zm7.6-.12a2.16,2.16,0,0,0,0-.35,3.32,3.32,0,0,0-3.66-2.93,3.23,3.23,0,0,0-2.95,3.29c0,.12,0,.23,0,.34a3.23,3.23,0,0,0,1.21,2.25,3.23,3.23,0,0,0,2.42.71A3.41,3.41,0,0,0,343.59-112.82Z" transform="translate(212.8 180.61)"/><path class="cls-33" d="M215.91-86.18a4.42,4.42,0,0,1,1.31-3.12,4.1,4.1,0,0,1,3.13-1.19,4.23,4.23,0,0,1,3,1.51,4.4,4.4,0,0,1,1,2.81,3.65,3.65,0,0,1-1.81,3.23,3.43,3.43,0,0,0-1.79,3.5q0,10.69,0,21.34c0,8,0,15.12-.05,21.88a5.25,5.25,0,0,0,1.75,4.09c1.8,1.74,3.59,3.55,5.32,5.29,1.9,1.91,3.86,3.88,5.83,5.78a4.75,4.75,0,0,1,1.64,3.76v.12c0,2.61-.06,5.47-.06,9,0,1.84,0,3.68,0,5.53s0,3.54,0,5.31V12.76c0,4.2,0,7.41,0,10.42h0c0,.21,0,.43,0,.65s0,.45,0,.66a1,1,0,0,1-.18.72.75.75,0,0,1-.55.16c-.55,0-.72-.19-.72-.8,0-.22,0-.47.05-.7a5.91,5.91,0,0,0,.05-.7c0-7.37,0-14,0-20.26,0-6.89,0-13.24,0-19.44h0a5,5,0,0,0-1.6-3.94c-1.87-1.81-3.75-3.69-5.55-5.51S223-29.91,221-31.84a4.63,4.63,0,0,1-1.52-3.68c0-7.71,0-15.52,0-23.07q0-10.18,0-20.38V-79a4.1,4.1,0,0,0-1.95-4,3.6,3.6,0,0,1-1.64-3.1Z" transform="translate(212.8 180.61)"/><path class="cls-34" d="M256.41-66.78a5.28,5.28,0,0,1,1.8-4.18c2.21-2.11,4.4-4.32,6.52-6.45,1.56-1.57,3.17-3.2,4.78-4.77A4.5,4.5,0,0,0,271-85.7c0-6.28,0-12.92,0-20.32q0-9.92,0-19.83h0a2.85,2.85,0,0,0-1.58-3,3.76,3.76,0,0,1-2-3.45,4.87,4.87,0,0,1,.18-1.31,4.18,4.18,0,0,1,4-3,4.18,4.18,0,0,1,4.06,2.93,4.32,4.32,0,0,1,.22,1.37A3.68,3.68,0,0,1,274-129a3.31,3.31,0,0,0-1.73,3.32c0,5.83,0,11.62,0,17.42,0,7.53,0,15.31,0,23a4.62,4.62,0,0,1-1.49,3.71c-2.07,2-4.13,4.07-6.12,6.07-1.74,1.75-3.54,3.56-5.34,5.3a4.76,4.76,0,0,0-1.56,3.69v0c0,3.58,0,7.4,0,12,0,3.19,0,6.38,0,9.57v5c0,.94-.18,1.11-.7,1.11a.7.7,0,0,1-.49-.14,1.15,1.15,0,0,1-.17-.74c0-.11,0-.23,0-.34s0-.22,0-.33c0-2.44,0-4.86,0-7.27v-6.87c0-1.16,0-2.31,0-3.47s0-2.31,0-3.47c0-2,0-3.62-.07-5.12Z" transform="translate(212.8 180.61)"/><path class="cls-35" d="M355.79-148.31a4.22,4.22,0,0,1,.27-1.49,4,4,0,0,1,3.91-2.84,4.16,4.16,0,0,1,4.08,2.89,4.42,4.42,0,0,1,.24,1.43,3.61,3.61,0,0,1-1.8,3.23c-1.64.92-1.78,2.13-1.78,3.5v.05c0,7.31,0,14.56,0,20.69v32.34c0,5.69,0,13.19,0,20.7,0,.27,0,.55.06.85a6.79,6.79,0,0,1,.07.88c0,.76-.26.91-.75.92a.84.84,0,0,1-.62-.15.94.94,0,0,1-.18-.67h0a7,7,0,0,1,.08-.88c0-.29.07-.57.07-.83,0-13,0-26.5,0-41.43q0-16.26,0-32.52c0-1.33-.13-2.5-1.7-3.35A3.71,3.71,0,0,1,355.79-148.31Z" transform="translate(212.8 180.61)"/><path class="cls-36" d="M215.8-170.26a4.6,4.6,0,0,1,.22-1.36,4.1,4.1,0,0,1,4-3,4.15,4.15,0,0,1,4.05,2.92,4.75,4.75,0,0,1,.23,1.43,3.7,3.7,0,0,1-2,3.34,3,3,0,0,0-1.67,3.12c0,6.15,0,12.25,0,18.36,0,6.6,0,13.12,0,19.38a3.87,3.87,0,0,0,1.25,3c2,1.94,4,3.94,5.89,5.87s4.19,4.2,6.31,6.28a3.46,3.46,0,0,1,1.17,2.65v.12c0,1.08,0,2.25,0,3.69,0,.84,0,1.68,0,2.52v7.75c0,1.53,0,3,0,4.57a1.24,1.24,0,0,1-.26.91.59.59,0,0,1-.5.13c-.36,0-.54-.19-.59-1.07,0-.27,0-.55,0-.82v-.68c0-1.4,0-2.8,0-4.2,0-1.66,0-3.31,0-5,0-2.7,0-4.91,0-7v-.07a4.32,4.32,0,0,0-1.4-3.3c-1.7-1.67-3.41-3.39-5.06-5-2.13-2.14-4.32-4.35-6.53-6.48a4.87,4.87,0,0,1-1.59-3.87c0-7.43,0-14.94,0-22.21q0-7.77,0-15.54h0a3.11,3.11,0,0,0-1.64-3.18A3.64,3.64,0,0,1,215.8-170.26Zm7.57-.16a3.27,3.27,0,0,0-1-2.32,3.38,3.38,0,0,0-2.39-1,3.33,3.33,0,0,0-3.34,3.29,3.3,3.3,0,0,0,1,2.33,3.37,3.37,0,0,0,2.36,1,3.39,3.39,0,0,0,3.32-3.34Z" transform="translate(212.8 180.61)"/><path class="cls-37" d="M191.15,294.8a3.63,3.63,0,0,1,1.87-3.25,3.09,3.09,0,0,0,1.65-3.15c0-5.21,0-10.39,0-15.57,0-7.27,0-14.78,0-22.17a4.9,4.9,0,0,1,1.59-3.91c2.2-2.13,4.4-4.34,6.52-6.48,1.66-1.66,3.37-3.38,5.07-5.05a4.32,4.32,0,0,0,1.4-3.3v-.07c0-2,0-4.25,0-6.95,0-1.66,0-3.31,0-5,0-1.4,0-2.8,0-4.2v-15c0-6.34,0-13.18,0-17.27s0-10.92,0-17.26v-15c0-1.4,0-2.8,0-4.2,0-1.66,0-3.32,0-5,0-2.7,0-4.91,0-7V135a4.31,4.31,0,0,0-1.4-3.3c-1.7-1.67-3.41-3.39-5.07-5-2.12-2.14-4.32-4.35-6.52-6.48a4.89,4.89,0,0,1-1.59-3.87c0-7.43,0-15,0-22.21q0-7.77,0-15.54h0A3.11,3.11,0,0,0,193,75.34a3.64,3.64,0,0,1-1.87-3.26,4.3,4.3,0,0,1,.22-1.36,4.19,4.19,0,0,1,8-.08,4.47,4.47,0,0,1,.24,1.43,3.7,3.7,0,0,1-2,3.34A3,3,0,0,0,196,78.53c0,6.13,0,12.22,0,18.31,0,6.62,0,13.16,0,19.43a3.87,3.87,0,0,0,1.25,3c2,2,4,3.94,5.89,5.87s4.19,4.2,6.3,6.28A3.44,3.44,0,0,1,210.6,134v.12c0,1.08,0,2.25,0,3.69v2.52c0,.7,0,1.4,0,2.1v81.95h0c0,.7,0,1.4,0,2.1V229c0,1.44,0,2.61,0,3.69v.12a3.44,3.44,0,0,1-1.18,2.65c-2.11,2.08-4.24,4.21-6.3,6.28s-3.92,3.92-5.89,5.87A3.85,3.85,0,0,0,196,250.6c0,6.29,0,12.83,0,19.45q0,9.13,0,18.27h0a3,3,0,0,0,1.67,3.16,3.69,3.69,0,0,1,2,3.34,4.52,4.52,0,0,1-.24,1.43,4.2,4.2,0,0,1-8-.08A4.32,4.32,0,0,1,191.15,294.8Zm7.57.16a3.31,3.31,0,0,0-5.68-2.33,3.3,3.3,0,0,0-1,2.32,3.37,3.37,0,0,0,5.72,2.34,3.23,3.23,0,0,0,1-2.32Zm0-223a3.22,3.22,0,0,0-1-2.32A3.32,3.32,0,1,0,193,74.26a3.31,3.31,0,0,0,5.68-2.34Z" transform="translate(212.8 180.61)"/><path class="cls-38" d="M385.14-132.17a3.63,3.63,0,0,1,1.21-2.85c2.13-2.08,4.26-4.22,6.32-6.29,1.82-1.83,3.71-3.72,5.58-5.56a4,4,0,0,0,1.33-3.11v0c0-3.08,0-6.36,0-10,0-3.42,0-6.85,0-10.27h0a2.87,2.87,0,0,0-1.3-2.69,4,4,0,0,1-1.87-3.32h0a4.57,4.57,0,0,1,.37-1.74,4.08,4.08,0,0,1,4.29-2.54,3.94,3.94,0,0,1,3.66,3.15,4.38,4.38,0,0,1,.16,1.19,3.78,3.78,0,0,1-2.39,3.55,2.53,2.53,0,0,0-1.65,2.8v.1c0,1.92,0,3.84,0,5.76v5.43c0,2.79,0,6.07,0,9.31v.05a3.67,3.67,0,0,1-1.24,2.89c-1.9,1.87-3.81,3.78-5.66,5.64s-4,4.05-6.09,6a4.51,4.51,0,0,0-1.45,3.51v0c0,3.59,0,7.51,0,12,0,3.94,0,7.87,0,11.81v1c0,.15,0,.3,0,.46s0,.3,0,.45a1,1,0,0,1-.16.7.75.75,0,0,1-.53.13c-.51,0-.66-.2-.66-.84,0-.16,0-.32,0-.48s0-.32,0-.47c0-2.06,0-4.1,0-6.14v-10.33c0-1.2,0-2.39,0-3.59,0-2.23,0-4,0-5.7ZM404-176.44a3.29,3.29,0,0,0-3.34-3.29,3.29,3.29,0,0,0-3.29,3.31,3.28,3.28,0,0,0,1,2.37,3.3,3.3,0,0,0,2.36,1,3.28,3.28,0,0,0,3.29-3.31h0Z" transform="translate(212.8 180.61)"/><path class="cls-39" d="M241.57-148.33a4.4,4.4,0,0,1,1.11-2.91,4.15,4.15,0,0,1,3-1.41,4.17,4.17,0,0,1,3.06,1.13,4.56,4.56,0,0,1,1.43,3.27,3.11,3.11,0,0,1-1.42,2.74c-2,1.28-2.19,2.87-2.19,4.52v.57c0,.57,0,1.12,0,1.67s0,2.69,0,2.69v6.31c0,.5,0,1.09-.24,1.31a.68.68,0,0,1-.54.12c-.38,0-.54-.16-.54-.89,0-.1,0-.19,0-.28v-.28c0-.88,0-1.74,0-2.59,0-1.65,0-3.3,0-4.94,0-1.27,0-2.53,0-3.79v-.3a3.82,3.82,0,0,0-1.95-3.82,3.52,3.52,0,0,1-1.68-3.12Z" transform="translate(212.8 180.61)"/><path class="cls-40" d="M44.51,192.1a6.93,6.93,0,0,1,.07-.88c0-.21.05-.42.07-.6v-5.14c0-.21,0-.42-.07-.63a6.79,6.79,0,0,1-.07-.88,1.39,1.39,0,0,1,.09-.56l0-.09v-.09c0-12.56,0-24.91,0-36.38V102.62c0-10.93,0-23.88,0-37A4.73,4.73,0,0,1,46.1,61.9c4.73-4.68,9.51-9.46,14.13-14.08,3.92-3.92,8-8,12-12A5,5,0,0,0,73.86,32v0c0-4.94,0-10.12,0-15.83q0-7.78,0-15.57V.51A3.23,3.23,0,0,0,72.13-2.8a3.73,3.73,0,0,1-1.91-3.33,4.22,4.22,0,0,1,.27-1.49,4.07,4.07,0,0,1,4-2.81,4.19,4.19,0,0,1,4,2.93,4.49,4.49,0,0,1,.21,1.36,3.63,3.63,0,0,1-1.83,3.29C75.26-2,75.13-.75,75.13.63V.72q0,6.72,0,13.44c0,6,0,12.27,0,18.41v0a4.7,4.7,0,0,1-1.5,3.67c-4.41,4.36-8.86,8.82-13.17,13.13S51.9,58,47.57,62.31a5.22,5.22,0,0,0-1.67,4.1c0,19.52,0,39.73,0,60.05q0,28.39,0,56.8v.09l0,.09a1.31,1.31,0,0,1,.1.59c0,.27,0,.58-.07.88s-.06.49-.07.71v4.82c0,.23,0,.47.07.72s.07.61.07.89a1.33,1.33,0,0,1-.1.59l0,.08v.1q0,28.4,0,56.79c0,20.33,0,40.53,0,60.05a5.24,5.24,0,0,0,1.67,4.11c4.33,4.28,8.71,8.66,13,12.9s8.76,8.76,13.16,13.12a4.7,4.7,0,0,1,1.5,3.67v.05c0,6.13,0,12.37,0,18.4q0,6.72,0,13.44v.1c0,1.37.13,2.58,1.75,3.47a3.64,3.64,0,0,1,1.83,3.3,4.43,4.43,0,0,1-.21,1.35,4.17,4.17,0,0,1-4,2.93,4.05,4.05,0,0,1-4-2.81,4.22,4.22,0,0,1-.27-1.49,3.74,3.74,0,0,1,1.91-3.33,3.21,3.21,0,0,0,1.72-3.3v-.05q0-7.8,0-15.58c0-5.71,0-10.88,0-15.83v0a5,5,0,0,0-1.66-3.87c-4-4-8.06-8-12-12-4.62-4.62-9.4-9.39-14.12-14.07a4.71,4.71,0,0,1-1.51-3.69c0-13.15,0-26.1,0-37V229.23c0-11.48,0-23.83,0-36.38v-.1l0-.09A1.39,1.39,0,0,1,44.51,192.1Z" transform="translate(212.8 180.61)"/><path class="cls-41" d="M151.58,321.11c0-14.64,0-29.19,0-41.49v-34.8q0-28.42,0-56.85v-.09a2.21,2.21,0,0,1,0-.48c0-.2,0-.41,0-.61l0-.43v-5.82l0-.44c0-.2,0-.41,0-.61a2.15,2.15,0,0,1,0-.48v-.09q0-28.42,0-56.85V87.27c0-12.31,0-26.86,0-41.5a5.34,5.34,0,0,1,1.8-4.26c2.14-2.06,4.28-4.2,6.34-6.27,1.62-1.62,3.3-3.3,5-4.93A4.29,4.29,0,0,0,166.1,27v-.06c0-2.06,0-4.16,0-6.42,0-2.51,0-5.19,0-8.18v-.06a2.64,2.64,0,0,0-1.42-2.58,4,4,0,0,1-2.19-3.5A4.33,4.33,0,0,1,162.68,5a4.19,4.19,0,0,1,8.08-.13A4.22,4.22,0,0,1,171,6.2a4,4,0,0,1-2.06,3.43,2.81,2.81,0,0,0-1.45,2.79v2.09c0,1.32,0,2.63,0,4s0,2.63,0,3.94c0,1.89,0,3.44,0,4.9v.11A4.42,4.42,0,0,1,166,30.84c-1.62,1.58-3.25,3.22-4.82,4.8-2,2-4.08,4.1-6.17,6.1A6.18,6.18,0,0,0,153,46.58c0,25.53,0,51.44,0,75.64v47c0,3.22,0,6.45,0,9.67v.1a1.92,1.92,0,0,1,0,.45c0,.22,0,.45,0,.67l0,.25v6.18l0,.28c0,.22,0,.45,0,.66a2,2,0,0,1,0,.46V188c0,3.23,0,6.46,0,9.68v47c0,24.2,0,50.11,0,75.63a6.2,6.2,0,0,0,2.06,4.85c2.09,2,4.16,4.08,6.16,6.1,1.58,1.58,3.2,3.22,4.83,4.8a4.42,4.42,0,0,1,1.47,3.43v.11c0,1.45,0,3,0,4.9,0,1.31,0,2.63,0,3.94s0,2.63,0,3.95v2.09a2.81,2.81,0,0,0,1.45,2.79,4,4,0,0,1,2.06,3.42,4.28,4.28,0,0,1-.22,1.35,4.19,4.19,0,0,1-8.08-.13,4.33,4.33,0,0,1-.18-1.21,4,4,0,0,1,2.19-3.5,2.65,2.65,0,0,0,1.42-2.58v-.06c0-3,0-5.67,0-8.18,0-2.26,0-4.36,0-6.42v-.06a4.29,4.29,0,0,0-1.41-3.31c-1.67-1.63-3.34-3.31-5-4.93-2.07-2.07-4.2-4.21-6.35-6.27a5.34,5.34,0,0,1-1.8-4.24Zm18.49,39.59a3.31,3.31,0,0,0-3.45-3.19,3.36,3.36,0,0,0-3.23,3.31v.12a3.35,3.35,0,0,0,6.69-.11S170.07,360.74,170.07,360.7Zm0-354.64A3.35,3.35,0,0,0,163.39,6v.12a3.36,3.36,0,0,0,3.23,3.31,3.31,3.31,0,0,0,3.45-3.2S170.08,6.1,170.08,6.06Z" transform="translate(212.8 180.61)"/><path class="cls-42" d="M46.08-39.27a4.38,4.38,0,0,1,1.43-3.48c2.21-2.14,4.42-4.36,6.56-6.51,1.7-1.7,3.45-3.46,5.2-5.17a4.09,4.09,0,0,0,1.31-3.15c0-7.68,0-15.33,0-23q0-10.55,0-21.07a2.88,2.88,0,0,0-1.58-3A3.85,3.85,0,0,1,57-108a4.44,4.44,0,0,1,.22-1.35,4.21,4.21,0,0,1,4.05-2.94,4,4,0,0,1,3.95,2.81,4.16,4.16,0,0,1,.28,1.51,3.72,3.72,0,0,1-1.89,3.31,3.2,3.2,0,0,0-1.71,3.33c0,2.67,0,5.3,0,7.94v12.83c0,7.06,0,14.67.07,22.44v.09A6.35,6.35,0,0,1,59.75-53c-2.11,2-4.18,4.08-6.19,6.1-1.52,1.53-3.09,3.12-4.66,4.64a4.75,4.75,0,0,0-1.52,3.73c0,14.26,0,28.5,0,40.55v25.1c0,.65,0,1.3,0,2s-.44.8-.58.8a.62.62,0,0,1-.47-.13,1,1,0,0,1-.21-.74c0-.72,0-1.45,0-2.17V-22.26c0-6.86,0-12.09,0-17Zm18.43-68.85a3.24,3.24,0,0,0-3-3.3,3.32,3.32,0,0,0-3.66,2.94,2.06,2.06,0,0,0,0,.35,3.39,3.39,0,0,0,3,3.3,3.18,3.18,0,0,0,2.42-.7,3.27,3.27,0,0,0,1.21-2.25C64.5-107.9,64.51-108,64.51-108.12Z" transform="translate(212.8 180.61)"/><path class="cls-43" d="M70.26,192.18c0-.22,0-.46,0-.69l0-.32v-6.23c0-.14,0-.25,0-.36s0-.47,0-.69a1.36,1.36,0,0,1,.06-.45l0-.06v-.07q0-5.33,0-10.67V144.38c0-4.41,0-10.25,0-16.18a3.93,3.93,0,0,1,1.28-3.13c2.12-2.06,4.24-4.19,6.29-6.24,1.79-1.79,3.64-3.65,5.47-5.45a4.29,4.29,0,0,0,1.45-3.31q0-9.46,0-18.9,0-12.6,0-25.18a3,3,0,0,0-1.61-3,4.06,4.06,0,0,1-1.77-4.81,4.32,4.32,0,0,1,4.09-2.89,4.06,4.06,0,0,1,3.92,2.87,4.31,4.31,0,0,1,.26,1.45,3.83,3.83,0,0,1-2,3.35,3.14,3.14,0,0,0-1.66,3.14q0,9.33,0,18.61c0,8.35,0,17,.06,25.49a4.91,4.91,0,0,1-1.64,3.88c-2,1.9-3.94,3.87-5.85,5.78s-3.62,3.64-5.46,5.43a5,5,0,0,0-1.6,3.91c0,9.65,0,19.65,0,30.58q0,11.73,0,23.48v.07l0,.07a1.56,1.56,0,0,1,.06.48c0,.23,0,.47,0,.71a3.91,3.91,0,0,0,0,.46V191a4,4,0,0,0,0,.49c0,.23,0,.48,0,.7a1.68,1.68,0,0,1-.06.49l0,.06v.07q0,11.75,0,23.49c0,10.93,0,20.92,0,30.56a5,5,0,0,0,1.6,3.93c1.84,1.78,3.68,3.63,5.46,5.42s3.87,3.88,5.85,5.79a4.84,4.84,0,0,1,1.64,3.83c0,8.54,0,17.18-.06,25.53q0,9.3,0,18.58a3.14,3.14,0,0,0,1.66,3.17,3.84,3.84,0,0,1,2,3.35,4.27,4.27,0,0,1-.26,1.45,4.06,4.06,0,0,1-3.92,2.87,4.3,4.3,0,0,1-4.09-2.89,4,4,0,0,1,1.77-4.8,3,3,0,0,0,1.61-3q0-12.62,0-25.19,0-9.45,0-18.89a4.31,4.31,0,0,0-1.45-3.33c-1.83-1.8-3.68-3.65-5.47-5.44-2.05-2.06-4.17-4.18-6.29-6.24a3.93,3.93,0,0,1-1.28-3.1c0-6,0-11.8,0-16.22V203.43c0-3.56,0-7.11,0-10.67v-.06l0-.06A1.47,1.47,0,0,1,70.26,192.18ZM88.73,316.55a3.21,3.21,0,0,0-3.29-3.31,3.29,3.29,0,0,0-3.36,3.27v0a3.39,3.39,0,0,0,3.32,3.31,3.21,3.21,0,0,0,2.33-.94,3.31,3.31,0,0,0,1-2.37Zm0-257a3.35,3.35,0,0,0-1-2.37,3.22,3.22,0,0,0-2.33-.94,3.4,3.4,0,0,0-3.32,3.31v0a3.29,3.29,0,0,0,3.36,3.26,3.2,3.2,0,0,0,3.29-3.3Z" transform="translate(212.8 180.61)"/><path class="cls-44" d="M151.48,24.58c0-.21,0-.43,0-.65s0-.45,0-.64c0-3,0-6.21,0-10.38V2.76c0-1.78,0-3.57,0-5.36s0-3.67,0-5.5c0-3.53,0-6.38-.05-9v-.11A4.77,4.77,0,0,1,153.14-21c2-1.89,3.92-3.87,5.82-5.77,1.73-1.75,3.53-3.55,5.32-5.29A5.23,5.23,0,0,0,166-36.1c0-6.77,0-13.91,0-21.86q0-10.68,0-21.36h0a3.46,3.46,0,0,0-1.79-3.53,3.65,3.65,0,0,1-1.81-3.23h0a4.4,4.4,0,0,1,1-2.81,4.21,4.21,0,0,1,3-1.51,4.1,4.1,0,0,1,3.13,1.19,4.42,4.42,0,0,1,1.31,3.12A3.6,3.6,0,0,1,169.3-83c-1.81,1.16-2,2.52-2,4v.06q0,10.2,0,20.38c0,7.55,0,15.36,0,23a4.7,4.7,0,0,1-1.53,3.73c-2,1.92-4,3.92-5.91,5.85s-3.68,3.7-5.55,5.51a5,5,0,0,0-1.6,3.9c0,6.26,0,12.63,0,19.52,0,6.28,0,12.89,0,20.22h0a6,6,0,0,0,.06.7c0,.24.05.48.05.7,0,.61-.17.8-.72.8a.75.75,0,0,1-.55-.16A1,1,0,0,1,151.48,24.58Z" transform="translate(212.8 180.61)"/><path class="cls-45" d="M117.72-132.18a4.32,4.32,0,0,1,.22-1.37,4.17,4.17,0,0,1,4-2.93,4.16,4.16,0,0,1,4,3,4.61,4.61,0,0,1,.19,1.31,3.76,3.76,0,0,1-2,3.45,2.83,2.83,0,0,0-1.59,3q0,10,0,19.91c0,7.37,0,14,0,20.24A4.54,4.54,0,0,0,124-82.09c1.62,1.58,3.23,3.2,4.79,4.78,2.12,2.13,4.31,4.33,6.52,6.44a5.31,5.31,0,0,1,1.8,4.18v.29c-.05,1.5-.07,3.14-.07,5.14,0,1.15,0,2.31,0,3.46s0,2.3,0,3.46v6.94c0,2.39,0,4.79,0,7.18h0c0,.13,0,.24,0,.36v.33a1.14,1.14,0,0,1-.16.74.72.72,0,0,1-.49.14c-.52,0-.7-.17-.7-1.11v-4.87c0-3.22,0-6.45,0-9.68,0-4.64,0-8.48,0-12.07v-.05a4.72,4.72,0,0,0-1.56-3.68c-1.8-1.75-3.6-3.56-5.34-5.31-2-2-4-4.07-6.12-6.06a4.63,4.63,0,0,1-1.49-3.68c0-7.68,0-15.45,0-23q0-8.7,0-17.42h0a3.34,3.34,0,0,0-1.72-3.35A3.68,3.68,0,0,1,117.72-132.18Z" transform="translate(212.8 180.61)"/><path class="cls-46" d="M42.6-143.63a4.44,4.44,0,0,1,.24-1.44,4.15,4.15,0,0,1,4.08-2.88,4,4,0,0,1,3.91,2.84,4.21,4.21,0,0,1,.27,1.48,3.7,3.7,0,0,1-1.93,3.32c-1.57.86-1.7,2-1.7,3.34q0,16.22,0,32.39c0,15,0,28.55,0,41.57a6.48,6.48,0,0,0,.07.84,6.7,6.7,0,0,1,.08.87.94.94,0,0,1-.18.67.87.87,0,0,1-.62.16c-.49,0-.75-.17-.75-.93,0-.27,0-.58.06-.88a6.34,6.34,0,0,0,.07-.84c0-7.56,0-15.07,0-20.77v-32.28c0-6.12,0-13.35,0-20.68v-.06c0-1.37-.13-2.58-1.77-3.5a3.6,3.6,0,0,1-1.8-3.22Z" transform="translate(212.8 180.61)"/><path class="cls-47" d="M84.35,519.71a3.61,3.61,0,0,1,1.8-3.23c1.64-.92,1.77-2.13,1.77-3.5v-.06c0-7.32,0-14.56,0-20.67V460c0-5.7,0-13.22,0-20.77h0a6.48,6.48,0,0,0-.07-.85c0-.3-.06-.6-.06-.88,0-.76.26-.91.75-.92a.87.87,0,0,1,.62.15.94.94,0,0,1,.18.67,7,7,0,0,1-.08.88,6.2,6.2,0,0,0-.07.83c0,13,0,26.62,0,41.58q0,16.18,0,32.37c0,1.33.12,2.5,1.7,3.35a3.71,3.71,0,0,1,1.93,3.32,4.22,4.22,0,0,1-.27,1.49A4,4,0,0,1,88.67,524a4.16,4.16,0,0,1-4.08-2.89A4.42,4.42,0,0,1,84.35,519.71Z" transform="translate(212.8 180.61)"/><path class="cls-48" d="M84.35-143.63a4.44,4.44,0,0,1,.24-1.44,4.15,4.15,0,0,1,4.08-2.88,4,4,0,0,1,3.91,2.84,4.21,4.21,0,0,1,.27,1.48,3.7,3.7,0,0,1-1.93,3.32c-1.58.86-1.7,2-1.7,3.34q0,16.22,0,32.39c0,15,0,28.55,0,41.57a6.48,6.48,0,0,0,.07.84,6.7,6.7,0,0,1,.08.87.94.94,0,0,1-.18.67.87.87,0,0,1-.62.16c-.49,0-.75-.17-.75-.93,0-.27,0-.58.06-.88a6.34,6.34,0,0,0,.07-.84c0-7.56,0-15.07,0-20.77v-32.28c0-6.12,0-13.35,0-20.68v-.06c0-1.37-.13-2.58-1.77-3.5a3.6,3.6,0,0,1-1.8-3.22Z" transform="translate(212.8 180.61)"/><path class="cls-49" d="M189.14,519.71a3.61,3.61,0,0,1,1.8-3.23c1.64-.92,1.77-2.13,1.77-3.5v-.06c0-7.32,0-14.56,0-20.67V460c0-5.7,0-13.22,0-20.77h0a6.48,6.48,0,0,0-.07-.85c0-.3-.06-.6-.06-.88,0-.76.26-.91.75-.92a.87.87,0,0,1,.62.15.94.94,0,0,1,.18.67,7,7,0,0,1-.08.88,6.2,6.2,0,0,0-.07.83c0,13,0,26.62,0,41.58q0,16.18,0,32.37c0,1.33.13,2.5,1.7,3.35a3.71,3.71,0,0,1,1.93,3.32,4.22,4.22,0,0,1-.27,1.49,4,4,0,0,1-3.91,2.84,4.16,4.16,0,0,1-4.08-2.89A4.42,4.42,0,0,1,189.14,519.71Z" transform="translate(212.8 180.61)"/><path class="cls-50" d="M189.14-143.63a4.44,4.44,0,0,1,.24-1.44,4.15,4.15,0,0,1,4.08-2.88,4,4,0,0,1,3.91,2.84,4.21,4.21,0,0,1,.27,1.48,3.7,3.7,0,0,1-1.93,3.32c-1.57.86-1.7,2-1.7,3.34q0,16.22,0,32.39c0,15,0,28.55,0,41.57a6.48,6.48,0,0,0,.07.84,6.7,6.7,0,0,1,.08.87.94.94,0,0,1-.18.67.87.87,0,0,1-.62.16c-.49,0-.75-.17-.75-.93,0-.27,0-.58.06-.88a6.34,6.34,0,0,0,.07-.84c0-7.56,0-15.07,0-20.77v-32.28c0-6.12,0-13.35,0-20.68v-.06c0-1.37-.13-2.58-1.77-3.5a3.6,3.6,0,0,1-1.8-3.22Z" transform="translate(212.8 180.61)"/><path class="cls-51" d="M301.86,519.71a3.63,3.63,0,0,1,1.8-3.23c1.64-.92,1.78-2.13,1.78-3.5v-.06c0-7.32,0-14.56,0-20.67V460c0-5.7,0-13.22,0-20.77h0c0-.27,0-.55-.06-.85a6.79,6.79,0,0,1-.07-.88c0-.76.26-.91.75-.92a.84.84,0,0,1,.62.15.94.94,0,0,1,.18.67,7,7,0,0,1-.08.88c0,.29-.07.57-.07.83,0,13,0,26.62,0,41.58q0,16.18,0,32.37c0,1.33.13,2.5,1.7,3.35a3.71,3.71,0,0,1,1.93,3.32,4.22,4.22,0,0,1-.27,1.49,4,4,0,0,1-3.91,2.84,4.16,4.16,0,0,1-4.08-2.89A4.42,4.42,0,0,1,301.86,519.71Z" transform="translate(212.8 180.61)"/><path class="cls-52" d="M301.86-143.63a4.44,4.44,0,0,1,.24-1.44,4.15,4.15,0,0,1,4.08-2.88,4,4,0,0,1,3.91,2.84,4.21,4.21,0,0,1,.27,1.48,3.7,3.7,0,0,1-1.93,3.32c-1.57.86-1.7,2-1.7,3.34q0,16.22,0,32.39c0,15,0,28.55,0,41.57,0,.26,0,.54.07.84a6.7,6.7,0,0,1,.08.87.94.94,0,0,1-.18.67.84.84,0,0,1-.62.16c-.49,0-.75-.17-.75-.93a6.93,6.93,0,0,1,.07-.88c0-.29.06-.58.06-.84,0-7.56,0-15.07,0-20.77v-32.28c0-6.12,0-13.35,0-20.68v-.06c0-1.37-.14-2.58-1.78-3.5a3.62,3.62,0,0,1-1.8-3.22Z" transform="translate(212.8 180.61)"/><path class="cls-53" d="M151.6-108.21a3.46,3.46,0,0,1,1.17-2.65c2.12-2.08,4.25-4.22,6.31-6.28S163-121.07,165-123a3.82,3.82,0,0,0,1.25-2.95c0-6.25,0-12.75,0-19.35q0-9.18,0-18.37h0a3,3,0,0,0-1.67-3.16,3.69,3.69,0,0,1-2-3.34h0a4.8,4.8,0,0,1,.23-1.43,4.13,4.13,0,0,1,4-2.92,4.1,4.1,0,0,1,4,3,4.49,4.49,0,0,1,.21,1.36,3.63,3.63,0,0,1-1.87,3.25,3.1,3.1,0,0,0-1.64,3.15c0,5.21,0,10.39,0,15.57,0,7.27,0,14.78,0,22.17a4.88,4.88,0,0,1-1.6,3.91c-2.2,2.13-4.39,4.34-6.51,6.47-1.66,1.67-3.37,3.39-5.07,5.06a4.33,4.33,0,0,0-1.41,3.3v.07c0,2,0,4.25,0,6.95v5c0,1.4,0,2.8,0,4.2v.68c0,.28,0,.55,0,.82-.05.88-.23,1-.59,1.07a.63.63,0,0,1-.51-.13,1.29,1.29,0,0,1-.25-.91c0-1.51,0-3,0-4.53v-5.69h0c0-.7,0-1.4,0-2.1s0-1.68,0-2.52c0-1.44,0-2.61,0-3.69Zm18.56-62.11a3.33,3.33,0,0,0-3.34-3.29,3.36,3.36,0,0,0-2.39,1,3.27,3.27,0,0,0-1,2.32A3.38,3.38,0,0,0,166.8-167a3.37,3.37,0,0,0,2.36-1,3.34,3.34,0,0,0,1-2.32Z" transform="translate(212.8 180.61)"/><path class="cls-54" d="M3.67-171.57a4.5,4.5,0,0,1,.17-1.19A3.93,3.93,0,0,1,7.5-175.9a4.07,4.07,0,0,1,4.28,2.53,4.39,4.39,0,0,1,.37,1.74,4,4,0,0,1-1.86,3.32A2.85,2.85,0,0,0,9-165.65c0,3.45,0,6.86,0,10.28,0,3.66,0,6.94,0,10v.05a4,4,0,0,0,1.34,3.1c1.87,1.84,3.75,3.73,5.57,5.56,2.07,2.07,4.2,4.21,6.33,6.29a3.65,3.65,0,0,1,1.21,2.86v.09c0,1.66,0,3.48,0,5.72v3.55c0,1.18,0,2.36,0,3.55v6.8q0,3.06,0,6.12h0c0,.17,0,.33,0,.5s0,.32,0,.47c0,.64-.15.83-.66.84a.69.69,0,0,1-.53-.13,1,1,0,0,1-.16-.69c0-.15,0-.31,0-.46s0-.31,0-.45v-1.05q0-5.89,0-11.81c0-4.49,0-8.42,0-12v0a4.48,4.48,0,0,0-1.44-3.5c-2.05-2-4.11-4.06-6.1-6s-3.75-3.77-5.66-5.63a3.71,3.71,0,0,1-1.23-2.89v-.06c0-3.23,0-6.51,0-9.29v-5.38c0-1.94,0-3.88,0-5.83v-.09A2.54,2.54,0,0,0,6.07-168,3.79,3.79,0,0,1,3.67-171.57Zm7.56-.16A3.28,3.28,0,0,0,7.93-175a3.28,3.28,0,0,0-3.33,3.29,3.28,3.28,0,0,0,3.29,3.33,3.28,3.28,0,0,0,3.34-3.29Z" transform="translate(212.8 180.61)"/><path class="cls-55" d="M92.35,226.33a3.83,3.83,0,0,1,2-3.45A2.93,2.93,0,0,0,96,219.81v-.1c0-3.15,0-6.31,0-9.46V156.64c0-3.15,0-6.31,0-9.46v-.1A2.93,2.93,0,0,0,94.35,144a3.84,3.84,0,0,1-2-3.45h0a4.73,4.73,0,0,1,.2-1.34,4.24,4.24,0,0,1,4-2.93,4,4,0,0,1,4,2.78,4.11,4.11,0,0,1,.29,1.53A3.72,3.72,0,0,1,99,143.9a3.24,3.24,0,0,0-1.71,3.29c0,6.12,0,12.6,0,21,0,3.73,0,15.23,0,15.23s0,11.5,0,15.24c0,8.42,0,14.89,0,21A3.26,3.26,0,0,0,99,223a3.72,3.72,0,0,1,1.88,3.29,4.35,4.35,0,0,1-4.24,4.32,4.24,4.24,0,0,1-4-2.93A4.73,4.73,0,0,1,92.35,226.33Z" transform="translate(212.8 180.61)"/><path class="cls-56" d="M136.3-148.16a4.58,4.58,0,0,1,1.43-3.27,4.17,4.17,0,0,1,3.06-1.13,4.15,4.15,0,0,1,3,1.41,4.42,4.42,0,0,1,1.11,2.91,3.52,3.52,0,0,1-1.68,3.12,3.83,3.83,0,0,0-2,3.83v.29c0,1.16,0,2.41,0,3.81q0,2.46,0,4.92c0,.86,0,2.57,0,2.57v.3c0,.09,0,.18,0,.28,0,.73-.16.87-.54.89a.68.68,0,0,1-.54-.12c-.24-.22-.24-.81-.24-1.29v-9c0-.55,0-1.1,0-1.65v-.59c0-1.65-.16-3.24-2.19-4.52a3.11,3.11,0,0,1-1.42-2.74Z" transform="translate(212.8 180.61)"/><path class="cls-57" d="M42,121.88a27.19,27.19,0,0,0-2-4.53c15.92-13,23.75-30.73,18.45-46.24a32.67,32.67,0,0,0-12.26-16C58.83,42.59,64.63,26.92,59.89,13,52.26-9.34,20.3-18.65-11.5-7.8S-62.89,30-55.27,52.31A32.75,32.75,0,0,0-43,68.35C-55.72,80.83-61.53,96.5-56.78,110.41c3.68,10.78,13,18.52,25.27,22.44a27.38,27.38,0,0,0,1,13.77c5.7,16.7,26.54,24.7,46.56,17.87S47.65,138.58,42,121.88Z" transform="translate(212.8 180.61)"/><path class="cls-58" d="M22.48,162.29a23.62,23.62,0,0,0-5.7-9.12c8-12.42,10.74-27,6.09-40.66a44.39,44.39,0,0,0-19-23.35c10.65-10.8,15.24-25.44,10.67-38.83C7.62,30-17.7,20.33-42,28.63s-38.4,31.46-31.48,51.74a33.15,33.15,0,0,0,7.17,11.92C-87.51,106.2-98.24,130-90.95,151.37c6.75,19.79,27.06,31.79,50.12,31.88.06.2.11.39.18.59,5,14.54,23.12,21.51,40.56,15.56S27.45,176.83,22.48,162.29Z" transform="translate(212.8 180.61)"/><path class="cls-59" d="M395,105.3a27.73,27.73,0,0,0,2.52,4.29c-14.4,14.68-20.24,33.14-13.28,48a32.73,32.73,0,0,0,13.95,14.6c-11.28,13.79-15.33,30-9.09,43.32,10,21.37,42.82,27.13,73.24,12.86s46.94-43.17,36.91-64.55a32.73,32.73,0,0,0-13.95-14.6c11.29-13.79,15.34-30,9.09-43.31-4.83-10.31-15-17-27.57-19.54a27.4,27.4,0,0,0-2.5-13.58c-7.49-16-29.09-21.64-48.23-12.65S387.53,89.33,395,105.3Z" transform="translate(212.8 180.61)"/><path class="cls-60" d="M499.82,195.36a23.71,23.71,0,0,0-10.75-.32c-5.85-13.6-16.52-23.95-30.43-27.65a44.37,44.37,0,0,0-30,2.82c-3.07-14.85-12.7-26.8-26.37-30.44-20.72-5.51-42.86,10.15-49.46,35s4.84,49.41,25.55,54.92a33,33,0,0,0,13.89.65c-.21,25.36,13.64,47.5,35.44,53.3,20.21,5.38,41.47-4.84,54.36-24,.19.06.38.13.58.18,14.86,3.95,30.74-7.28,35.47-25.08S514.67,199.31,499.82,195.36Z" transform="translate(212.8 180.61)"/><path class="cls-61" d="M188.28,468.22v0a2.83,2.83,0,0,1-2.84,2.79h-164a2.84,2.84,0,0,1-2.68-1.9,23.84,23.84,0,0,1,37.51-26.39c0-.74-.07-1.49-.07-2.25a36.64,36.64,0,0,1,72.67-6.7,18.79,18.79,0,0,1,32.09,13.28v.54a21.46,21.46,0,0,1,27.37,20.6Z" transform="translate(212.8 180.61)"/><path class="cls-62" d="M403.47,534.34a14.07,14.07,0,0,1-1.19,7.11,3.15,3.15,0,0,1-2.89,1.86H322.26a3.17,3.17,0,0,1-2.9-1.88,13.63,13.63,0,0,1,19.39-17.29,21.43,21.43,0,0,1,42.82-.31,14.15,14.15,0,0,1,21.9,10.51Z" transform="translate(212.8 180.61)"/><path class="cls-63" d="M33.16,762S-9.38,696.67,53.1,668.48,134.85,707,179.48,704.65s42.69-48,91.14-24.9c59.19,28.19,75.63-75.16,117.91-51.2,44.9,25.44,40.41,127.78-34.76,125.9S33.16,762,33.16,762Z" transform="translate(212.8 180.61)"/><path class="cls-64" d="M103,735.31a1.54,1.54,0,0,1-1.53-1.53v-81a1.53,1.53,0,0,1,3.06,0v81A1.54,1.54,0,0,1,103,735.31Z" transform="translate(212.8 180.61)"/><path class="cls-65" d="M113.7,735.31a1.53,1.53,0,0,1-1.53-1.53V703l10.19-10.19a1.53,1.53,0,0,1,2.16,2.16l-9.3,9.29v29.55A1.53,1.53,0,0,1,113.7,735.31Z" transform="translate(212.8 180.61)"/><path class="cls-66" d="M103.38,691.57A1.53,1.53,0,0,1,102.3,689l14.61-14.62a1.53,1.53,0,1,1,2.16,2.17l-14.61,14.61A1.52,1.52,0,0,1,103.38,691.57Z" transform="translate(212.8 180.61)"/><path class="cls-67" d="M103.38,653.94a6.12,6.12,0,1,1,6.11-6.12A6.12,6.12,0,0,1,103.38,653.94Zm0-9.17a3.06,3.06,0,1,0,3.06,3.05A3.06,3.06,0,0,0,103.38,644.77Z" transform="translate(212.8 180.61)"/><path class="cls-68" d="M126.3,696a6.12,6.12,0,1,1,6.12-6.11A6.12,6.12,0,0,1,126.3,696Zm0-9.17a3.06,3.06,0,1,0,3.06,3.06A3.06,3.06,0,0,0,126.3,686.79Z" transform="translate(212.8 180.61)"/><path class="cls-69" d="M130.89,681.44a6.11,6.11,0,1,1,6.11-6.11A6.12,6.12,0,0,1,130.89,681.44Zm0-9.17a3.06,3.06,0,1,0,3.05,3.06A3.06,3.06,0,0,0,130.89,672.27Z" transform="translate(212.8 180.61)"/><path class="cls-70" d="M117.9,667.69a6.12,6.12,0,1,1,6.11-6.11A6.12,6.12,0,0,1,117.9,667.69Zm0-9.17a3.06,3.06,0,1,0,3.06,3.06A3.06,3.06,0,0,0,117.9,658.52Z" transform="translate(212.8 180.61)"/><path class="cls-71" d="M126.3,676.86h-9.93V666.4a1.53,1.53,0,0,1,3.06,0v7.4h6.87a1.53,1.53,0,0,1,0,3.06Z" transform="translate(212.8 180.61)"/><path class="cls-72" d="M92.3,735.31a1.53,1.53,0,0,1-1.52-1.53V704.23l-9.3-9.29a1.53,1.53,0,0,1,2.16-2.16L93.83,703v30.81A1.53,1.53,0,0,1,92.3,735.31Z" transform="translate(212.8 180.61)"/><path class="cls-73" d="M102.62,691.57a1.52,1.52,0,0,1-1.08-.45L86.93,676.51a1.53,1.53,0,1,1,2.16-2.17L103.7,689a1.53,1.53,0,0,1-1.08,2.61Z" transform="translate(212.8 180.61)"/><path class="cls-74" d="M79.7,696a6.12,6.12,0,1,1,6.11-6.11A6.12,6.12,0,0,1,79.7,696Zm0-9.17a3.06,3.06,0,1,0,3,3.06A3.06,3.06,0,0,0,79.7,686.79Z" transform="translate(212.8 180.61)"/><path class="cls-75" d="M75.11,681.44a6.11,6.11,0,1,1,6.11-6.11A6.12,6.12,0,0,1,75.11,681.44Zm0-9.17a3.06,3.06,0,1,0,3.06,3.06A3.06,3.06,0,0,0,75.11,672.27Z" transform="translate(212.8 180.61)"/><path class="cls-76" d="M88.1,667.69a6.12,6.12,0,1,1,6.11-6.11A6.12,6.12,0,0,1,88.1,667.69Zm0-9.17a3.06,3.06,0,1,0,3.06,3.06A3.07,3.07,0,0,0,88.1,658.52Z" transform="translate(212.8 180.61)"/><path class="cls-77" d="M89.63,676.86H79.7a1.53,1.53,0,1,1,0-3.06h6.87v-7.4a1.53,1.53,0,0,1,3.06,0Z" transform="translate(212.8 180.61)"/><path class="cls-78" d="M334.5,734.67a1,1,0,0,1-1-1V680.07a1,1,0,1,1,2,0v53.59A1,1,0,0,1,334.5,734.67Z" transform="translate(212.8 180.61)"/><path class="cls-79" d="M341.58,734.67a1,1,0,0,1-1-1V713.27l6.74-6.74a1,1,0,0,1,1.43,1.43l-6.15,6.15v19.55A1,1,0,0,1,341.58,734.67Z" transform="translate(212.8 180.61)"/><path class="cls-80" d="M334.75,705.73A1,1,0,0,1,334,704l9.67-9.67a1,1,0,0,1,1.43,0,1,1,0,0,1,0,1.43l-9.67,9.67A1,1,0,0,1,334.75,705.73Z" transform="translate(212.8 180.61)"/><path class="cls-81" d="M334.75,680.82a4,4,0,1,1,4.05-4A4,4,0,0,1,334.75,680.82Zm0-6.06a2,2,0,1,0,2,2A2,2,0,0,0,334.75,674.76Z" transform="translate(212.8 180.61)"/><path class="cls-82" d="M349.92,708.63a4,4,0,1,1,4.05-4A4,4,0,0,1,349.92,708.63Zm0-6.06a2,2,0,1,0,2,2A2,2,0,0,0,349.92,702.57Z" transform="translate(212.8 180.61)"/><path class="cls-83" d="M353,699a4,4,0,1,1,4-4A4.05,4.05,0,0,1,353,699Zm0-6.07a2,2,0,1,0,2,2A2,2,0,0,0,353,693Z" transform="translate(212.8 180.61)"/><path class="cls-84" d="M344.36,689.93a4,4,0,1,1,4-4A4.06,4.06,0,0,1,344.36,689.93Zm0-6.07a2,2,0,1,0,2,2A2,2,0,0,0,344.36,683.86Z" transform="translate(212.8 180.61)"/><path class="cls-85" d="M349.92,696h-6.57v-6.92a1,1,0,1,1,2,0V694h4.55a1,1,0,1,1,0,2Z" transform="translate(212.8 180.61)"/><path class="cls-86" d="M327.42,734.67a1,1,0,0,1-1-1V714.11L320.26,708a1,1,0,0,1,1.43-1.43l6.74,6.74v20.39A1,1,0,0,1,327.42,734.67Z" transform="translate(212.8 180.61)"/><path class="cls-87" d="M334.25,705.73a1,1,0,0,1-.72-.3l-9.67-9.67a1,1,0,0,1,0-1.43,1,1,0,0,1,1.43,0L335,704a1,1,0,0,1-.71,1.73Z" transform="translate(212.8 180.61)"/><path class="cls-88" d="M319.08,708.63a4,4,0,1,1,4-4A4.05,4.05,0,0,1,319.08,708.63Zm0-6.06a2,2,0,1,0,2,2A2,2,0,0,0,319.08,702.57Z" transform="translate(212.8 180.61)"/><path class="cls-89" d="M316,699a4,4,0,1,1,4-4A4.05,4.05,0,0,1,316,699Zm0-6.07a2,2,0,1,0,2,2A2,2,0,0,0,316,693Z" transform="translate(212.8 180.61)"/><path class="cls-90" d="M324.64,689.93a4,4,0,1,1,4.05-4A4.05,4.05,0,0,1,324.64,689.93Zm0-6.07a2,2,0,1,0,2,2A2,2,0,0,0,324.64,683.86Z" transform="translate(212.8 180.61)"/><path class="cls-91" d="M325.65,696h-6.57a1,1,0,1,1,0-2h4.55v-4.9a1,1,0,1,1,2,0Z" transform="translate(212.8 180.61)"/><path class="cls-92" d="M-11.49,702.77c-13,0-24,10.58-28.13,25.35a25.23,25.23,0,0,0-9.46-1.86c-17.29,0-31.3,17.88-31.3,39.93s14,39.94,31.3,39.94c14.18,0,26.14-12,30-28.5a23.82,23.82,0,0,0,7.59,1.25c16.47,0,29.83-17,29.83-38S5,702.77-11.49,702.77Z" transform="translate(212.8 180.61)"/><path class="cls-93" d="M35.72,619.85a29.78,29.78,0,0,1,8-13.15c6.1-5.64,10.8-23,18.32-18.79s.47,18.32-9.4,23S35.72,631.6,35.72,631.6Z" transform="translate(212.8 180.61)"/><path class="cls-94" d="M30.08,616.57s-1.41-6.11-5.63-9.87A57.23,57.23,0,0,1,14.58,595c-2.82-4.23-7.52-2.82-8.46.94s-.47,8,5.64,12.68,16.91,11.74,18.32,16Z" transform="translate(212.8 180.61)"/><path class="cls-95" d="M31,673.41v-8s-.94,0-3.76-6.1-2.34-4.7-6.57-11.28-3.29-16.91-10.34-17.38-6.57,6.58-4.7,11.27,6.11,9.4,15,15.51C27.84,662.33,31,673.41,31,673.41Z" transform="translate(212.8 180.61)"/><path class="cls-96" d="M35.25,673.88v-8s1.41-.37,4.23-7,2.35-4.23,4.23-12.69c1.81-8.14,1.41-16.91,10.8-18.79,6.93-1.38,7.52,7.08,5.64,12.22s-5.64,8.82-14.56,15.5C38.44,660.43,35.25,673.88,35.25,673.88Z" transform="translate(212.8 180.61)"/><path class="cls-97" d="M35.72,581.33a69.29,69.29,0,0,1,5.64-8c2.82-3.29,6.11-12.69,10.33-11.75s2.82,8.46-1.88,13.62S35.72,594,35.72,594Z" transform="translate(212.8 180.61)"/><path class="cls-98" d="M28.67,564.89s-9.86-14.09-16-10.34S15,567.91,19.28,571a87.82,87.82,0,0,1,9.39,8Z" transform="translate(212.8 180.61)"/><path class="cls-99" d="M37.84,546.8l-2.4,151.51a2.77,2.77,0,0,1-5.54,0L27.5,546.8a5.17,5.17,0,1,1,10.34-.16Z" transform="translate(212.8 180.61)"/><path class="cls-100" d="M398.4,648.16a35.16,35.16,0,0,1,9.42-15.52c7.21-6.65,12.76-27.17,21.63-22.18s.55,21.62-11.09,27.17-20,24.39-20,24.39Z" transform="translate(212.8 180.61)"/><path class="cls-101" d="M397.72,637.63s-1.79-7.79-7.18-12.58a72.53,72.53,0,0,1-12.58-15c-3.59-5.39-9.58-3.59-10.78,1.2s-.6,10.18,7.19,16.17,21.56,15,23.35,20.36Z" transform="translate(212.8 180.61)"/><path class="cls-102" d="M395.89,695.42V687s-1,0-4-6.44-2.48-4.95-6.94-11.89-3.46-17.84-10.9-18.34-6.94,6.94-4.95,11.9,6.44,9.91,15.85,16.35C392.53,683.73,395.89,695.42,395.89,695.42Z" transform="translate(212.8 180.61)"/><path class="cls-103" d="M400.28,697.93v-9.06s1.6-.42,4.8-8,2.66-4.79,4.79-14.39c2.06-9.23,1.6-19.19,12.26-21.32,7.87-1.57,8.53,8,6.4,13.86s-6.4,10-16.52,17.59C403.89,682.68,400.28,697.93,400.28,697.93Z" transform="translate(212.8 180.61)"/><path class="cls-104" d="M400.75,589.63a72.91,72.91,0,0,1,5.88-8.33c2.94-3.43,6.37-13.23,10.78-12.25s2.94,8.82-2,14.21-14.7,19.6-14.7,19.6Z" transform="translate(212.8 180.61)"/><path class="cls-105" d="M393.23,579.05s-10.29-14.7-16.66-10.78,2.43,13.93,6.86,17.16a93.1,93.1,0,0,1,9.8,8.33Z" transform="translate(212.8 180.61)"/><path class="cls-106" d="M403,559.24l-2.5,158.07a2.89,2.89,0,0,1-5.78,0l-2.5-158.07a5.39,5.39,0,0,1,10.78-.17Z" transform="translate(212.8 180.61)"/><path class="cls-107" d="M327.93,722.5a29.86,29.86,0,0,0-6.57.73c-7.43-12.58-20.44-20.93-35.24-20.93-14.6,0-27.44,8.11-34.92,20.41-18.62,2.14-33.2,21.53-33.2,45.13,0,25,16.41,45.33,36.64,45.33,12.73,0,23.94-8,30.51-20.21h1a38.53,38.53,0,0,0,10.56-1.46c6.44,13,18,21.66,31.25,21.66,20.24,0,36.65-20.29,36.65-45.33S348.17,722.5,327.93,722.5Z" transform="translate(212.8 180.61)"/><g class="cls-108"><path class="cls-109" d="M286.35,774.89a.94.94,0,0,1-.93-.94v-49.8a.94.94,0,1,1,1.87,0V774A.94.94,0,0,1,286.35,774.89Z" transform="translate(212.8 180.61)"/><path class="cls-109" d="M292.93,774.89A.94.94,0,0,1,292,774V755l6.27-6.26a.94.94,0,0,1,1.33,1.32l-5.72,5.72V774A.94.94,0,0,1,292.93,774.89Z" transform="translate(212.8 180.61)"/><path class="cls-109" d="M286.59,748a.94.94,0,0,1-.66-1.6l9-9a.94.94,0,0,1,1.33,1.33l-9,9A.93.93,0,0,1,286.59,748Z" transform="translate(212.8 180.61)"/><path class="cls-109" d="M286.59,724.85a3.76,3.76,0,1,1,3.76-3.76A3.76,3.76,0,0,1,286.59,724.85Zm0-5.63a1.88,1.88,0,1,0,1.88,1.87A1.88,1.88,0,0,0,286.59,719.22Z" transform="translate(212.8 180.61)"/><path class="cls-109" d="M300.68,750.69a3.76,3.76,0,1,1,3.76-3.76A3.75,3.75,0,0,1,300.68,750.69Zm0-5.64a1.88,1.88,0,1,0,1.88,1.88A1.89,1.89,0,0,0,300.68,745.05Z" transform="translate(212.8 180.61)"/><path class="cls-109" d="M303.5,741.77a3.76,3.76,0,1,1,3.76-3.76A3.77,3.77,0,0,1,303.5,741.77Zm0-5.64a1.88,1.88,0,1,0,1.88,1.88A1.88,1.88,0,0,0,303.5,736.13Z" transform="translate(212.8 180.61)"/><path class="cls-109" d="M295.52,733.31a3.76,3.76,0,1,1,3.75-3.76A3.76,3.76,0,0,1,295.52,733.31Zm0-5.64a1.88,1.88,0,1,0,1.87,1.88A1.88,1.88,0,0,0,295.52,727.67Z" transform="translate(212.8 180.61)"/><path class="cls-109" d="M300.68,739h-6.1v-6.43a.94.94,0,0,1,1.88,0v4.55h4.22a.94.94,0,1,1,0,1.88Z" transform="translate(212.8 180.61)"/><path class="cls-109" d="M279.78,774.89a.94.94,0,0,1-.94-.94V755.78l-5.72-5.72a.94.94,0,1,1,1.33-1.32l6.27,6.26v19A.94.94,0,0,1,279.78,774.89Z" transform="translate(212.8 180.61)"/><path class="cls-109" d="M286.12,748a.93.93,0,0,1-.66-.27l-9-9a.94.94,0,0,1,1.33-1.33l9,9a.94.94,0,0,1-.66,1.6Z" transform="translate(212.8 180.61)"/><path class="cls-109" d="M272,750.69a3.76,3.76,0,1,1,3.75-3.76A3.76,3.76,0,0,1,272,750.69Zm0-5.64a1.88,1.88,0,1,0,1.87,1.88A1.88,1.88,0,0,0,272,745.05Z" transform="translate(212.8 180.61)"/><path class="cls-109" d="M269.21,741.77A3.76,3.76,0,1,1,273,738,3.76,3.76,0,0,1,269.21,741.77Zm0-5.64a1.88,1.88,0,1,0,1.88,1.88A1.88,1.88,0,0,0,269.21,736.13Z" transform="translate(212.8 180.61)"/><path class="cls-109" d="M277.19,733.31a3.76,3.76,0,1,1,3.76-3.76A3.76,3.76,0,0,1,277.19,733.31Zm0-5.64a1.88,1.88,0,1,0,1.88,1.88A1.88,1.88,0,0,0,277.19,727.67Z" transform="translate(212.8 180.61)"/><path class="cls-109" d="M278.13,739H272a.94.94,0,0,1,0-1.88h4.22v-4.55a.94.94,0,1,1,1.88,0Z" transform="translate(212.8 180.61)"/></g><path class="cls-110" d="M128.44,774.15c-4.28-41.43-32.17-72.49-62.3-69.38-12.87,1.33-24.07,8.68-32.34,19.9-23.74-8.11-47.45-4.74-61,11-19.75,23-10.17,63.6,21.4,90.75,19.16,16.48,42,24.21,61.44,22.61a43.16,43.16,0,0,0,25.94,5.79C111.75,851.67,132.71,815.57,128.44,774.15Z" transform="translate(212.8 180.61)"/><g class="cls-108"><path class="cls-109" d="M71.19,780.05a.94.94,0,0,1-.94-.94V729.32a.94.94,0,1,1,1.88,0v49.79A.94.94,0,0,1,71.19,780.05Z" transform="translate(212.8 180.61)"/><path class="cls-109" d="M77.77,780.05a.94.94,0,0,1-.94-.94V760.17l6.26-6.27a1,1,0,0,1,1.33,0,.94.94,0,0,1,0,1.33L78.71,761v18.16A.94.94,0,0,1,77.77,780.05Z" transform="translate(212.8 180.61)"/><path class="cls-109" d="M71.42,753.16a.9.9,0,0,1-.66-.28.94.94,0,0,1,0-1.33l9-9a.92.92,0,0,1,1.32,0,.94.94,0,0,1,0,1.33l-9,9A.91.91,0,0,1,71.42,753.16Z" transform="translate(212.8 180.61)"/><path class="cls-109" d="M71.43,730a3.76,3.76,0,1,1,3.75-3.76A3.76,3.76,0,0,1,71.43,730Zm0-5.64a1.88,1.88,0,1,0,1.87,1.88A1.88,1.88,0,0,0,71.43,724.38Z" transform="translate(212.8 180.61)"/><path class="cls-109" d="M85.52,755.86a3.76,3.76,0,1,1,3.76-3.76A3.77,3.77,0,0,1,85.52,755.86Zm0-5.64a1.88,1.88,0,1,0,1.88,1.88A1.88,1.88,0,0,0,85.52,750.22Z" transform="translate(212.8 180.61)"/><path class="cls-109" d="M88.34,746.93a3.76,3.76,0,1,1,3.76-3.76A3.76,3.76,0,0,1,88.34,746.93Zm0-5.63a1.88,1.88,0,1,0,1.88,1.87A1.88,1.88,0,0,0,88.34,741.3Z" transform="translate(212.8 180.61)"/><path class="cls-109" d="M80.35,738.48a3.76,3.76,0,1,1,3.76-3.76A3.77,3.77,0,0,1,80.35,738.48Zm0-5.64a1.88,1.88,0,1,0,1.88,1.88A1.88,1.88,0,0,0,80.35,732.84Z" transform="translate(212.8 180.61)"/><path class="cls-109" d="M85.52,744.11H79.41v-6.43a.94.94,0,0,1,1.88,0v4.56h4.23a.94.94,0,1,1,0,1.87Z" transform="translate(212.8 180.61)"/><path class="cls-109" d="M64.61,780.05a.94.94,0,0,1-.94-.94V761L58,755.23a.94.94,0,0,1,0-1.33,1,1,0,0,1,1.33,0l6.26,6.27v18.94A.94.94,0,0,1,64.61,780.05Z" transform="translate(212.8 180.61)"/><path class="cls-109" d="M71,753.16a.92.92,0,0,1-.67-.28l-9-9a.94.94,0,0,1,0-1.33.92.92,0,0,1,1.32,0l9,9a.94.94,0,0,1,0,1.33A.9.9,0,0,1,71,753.16Z" transform="translate(212.8 180.61)"/><path class="cls-109" d="M56.86,755.86a3.76,3.76,0,1,1,3.76-3.76A3.77,3.77,0,0,1,56.86,755.86Zm0-5.64a1.88,1.88,0,1,0,1.88,1.88A1.88,1.88,0,0,0,56.86,750.22Z" transform="translate(212.8 180.61)"/><path class="cls-109" d="M54,746.93a3.76,3.76,0,1,1,3.76-3.76A3.76,3.76,0,0,1,54,746.93Zm0-5.63a1.88,1.88,0,1,0,1.88,1.87A1.88,1.88,0,0,0,54,741.3Z" transform="translate(212.8 180.61)"/><path class="cls-109" d="M62,738.48a3.76,3.76,0,1,1,3.76-3.76A3.77,3.77,0,0,1,62,738.48Zm0-5.64a1.88,1.88,0,1,0,1.88,1.88A1.88,1.88,0,0,0,62,732.84Z" transform="translate(212.8 180.61)"/><path class="cls-109" d="M63,744.11H56.86a.94.94,0,1,1,0-1.87h4.23v-4.56a.94.94,0,0,1,1.88,0Z" transform="translate(212.8 180.61)"/></g><g class="cls-108"><path class="cls-109" d="M-.22,795.56a.94.94,0,0,1-.94-.94v-49.8a.94.94,0,0,1,.94-.94.94.94,0,0,1,.94.94v49.8A.94.94,0,0,1-.22,795.56Z" transform="translate(212.8 180.61)"/><path class="cls-109" d="M6.36,795.56a.94.94,0,0,1-.94-.94v-19l6.26-6.26a.94.94,0,0,1,1.33,0,.92.92,0,0,1,0,1.32L7.3,776.45v18.17A.94.94,0,0,1,6.36,795.56Z" transform="translate(212.8 180.61)"/><path class="cls-109" d="M0,768.66a1,1,0,0,1-.67-.27,1,1,0,0,1,0-1.33l9-9a.94.94,0,0,1,1.33,1.33l-9,9A.93.93,0,0,1,0,768.66Z" transform="translate(212.8 180.61)"/><path class="cls-109" d="M0,745.52a3.75,3.75,0,0,1-3.76-3.75A3.76,3.76,0,0,1,0,738a3.76,3.76,0,0,1,3.76,3.76A3.76,3.76,0,0,1,0,745.52Zm0-5.63a1.88,1.88,0,0,0-1.88,1.88A1.88,1.88,0,0,0,0,743.64a1.88,1.88,0,0,0,1.88-1.87A1.88,1.88,0,0,0,0,739.89Z" transform="translate(212.8 180.61)"/><path class="cls-109" d="M14.11,771.36a3.76,3.76,0,1,1,3.76-3.76A3.76,3.76,0,0,1,14.11,771.36Zm0-5.63A1.88,1.88,0,1,0,16,767.6,1.88,1.88,0,0,0,14.11,765.73Z" transform="translate(212.8 180.61)"/><path class="cls-109" d="M16.93,762.44a3.76,3.76,0,1,1,3.76-3.76A3.77,3.77,0,0,1,16.93,762.44Zm0-5.64a1.88,1.88,0,1,0,1.88,1.88A1.88,1.88,0,0,0,16.93,756.8Z" transform="translate(212.8 180.61)"/><path class="cls-109" d="M8.94,754a3.76,3.76,0,1,1,3.76-3.76A3.77,3.77,0,0,1,8.94,754Zm0-5.64a1.88,1.88,0,1,0,1.88,1.88A1.89,1.89,0,0,0,8.94,748.34Z" transform="translate(212.8 180.61)"/><path class="cls-109" d="M14.11,759.62H8v-6.43a.94.94,0,1,1,1.88,0v4.55h4.23a.94.94,0,0,1,0,1.88Z" transform="translate(212.8 180.61)"/><path class="cls-109" d="M-6.8,795.56a1,1,0,0,1-.94-.94V776.45l-5.71-5.72a.92.92,0,0,1,0-1.32.94.94,0,0,1,1.33,0l6.26,6.26v19A.94.94,0,0,1-6.8,795.56Z" transform="translate(212.8 180.61)"/><path class="cls-109" d="M-.45,768.66a1,1,0,0,1-.67-.27l-9-9a.94.94,0,0,1,0-1.33,1,1,0,0,1,1.33,0l9,9a.94.94,0,0,1,0,1.33A.93.93,0,0,1-.45,768.66Z" transform="translate(212.8 180.61)"/><path class="cls-109" d="M-14.55,771.36a3.76,3.76,0,0,1-3.76-3.76,3.76,3.76,0,0,1,3.76-3.75,3.75,3.75,0,0,1,3.76,3.75A3.76,3.76,0,0,1-14.55,771.36Zm0-5.63a1.88,1.88,0,0,0-1.88,1.87,1.88,1.88,0,0,0,1.88,1.88,1.88,1.88,0,0,0,1.88-1.88A1.88,1.88,0,0,0-14.55,765.73Z" transform="translate(212.8 180.61)"/><path class="cls-109" d="M-17.37,762.44a3.76,3.76,0,0,1-3.75-3.76,3.76,3.76,0,0,1,3.75-3.76,3.76,3.76,0,0,1,3.76,3.76A3.76,3.76,0,0,1-17.37,762.44Zm0-5.64a1.88,1.88,0,0,0-1.88,1.88,1.89,1.89,0,0,0,1.88,1.88,1.88,1.88,0,0,0,1.88-1.88A1.88,1.88,0,0,0-17.37,756.8Z" transform="translate(212.8 180.61)"/><path class="cls-109" d="M-9.38,754a3.77,3.77,0,0,1-3.76-3.76,3.77,3.77,0,0,1,3.76-3.76,3.77,3.77,0,0,1,3.76,3.76A3.77,3.77,0,0,1-9.38,754Zm0-5.64a1.88,1.88,0,0,0-1.88,1.88,1.88,1.88,0,0,0,1.88,1.88,1.88,1.88,0,0,0,1.88-1.88A1.88,1.88,0,0,0-9.38,748.34Z" transform="translate(212.8 180.61)"/><path class="cls-109" d="M-8.44,759.62h-6.11a.94.94,0,0,1-.94-.94.94.94,0,0,1,.94-.94h4.23v-4.55a.94.94,0,0,1,.94-.94.94.94,0,0,1,.94.94Z" transform="translate(212.8 180.61)"/></g><rect class="cls-111" x="211.53" y="859.41" width="17.85" height="68.6"/><rect class="cls-112" x="230.79" y="873.98" width="23.96" height="64.37"/><rect class="cls-113" x="257.57" y="897.94" width="12.68" height="27.73"/><rect class="cls-114" x="248.64" y="873.98" width="6.11" height="64.37"/><circle class="cls-115" cx="218.57" cy="864.11" r="0.47"/><circle class="cls-115" cx="218.57" cy="870.78" r="0.7"/><circle class="cls-115" cx="218.57" cy="877.45" r="0.94"/><circle class="cls-115" cx="218.57" cy="897.47" r="0.47"/><circle class="cls-115" cx="218.57" cy="890.8" r="0.7"/><circle class="cls-115" cx="218.57" cy="884.13" r="0.94"/><circle class="cls-115" cx="238.31" cy="881.02" r="0.47"/><circle class="cls-115" cx="238.31" cy="887.7" r="0.7"/><circle class="cls-115" cx="238.31" cy="894.37" r="0.94"/><circle class="cls-115" cx="238.31" cy="914.38" r="0.47"/><circle class="cls-115" cx="238.31" cy="907.71" r="0.7"/><circle class="cls-115" cx="238.31" cy="901.04" r="0.94"/><circle class="cls-116" cx="265.9" cy="943.52" r="23.96"/><path class="cls-117" d="M566.12,1109.61c0,148-84.93,276.19-208.71,338.46a374.54,374.54,0,0,1-36.07,15.85q-11.29,4.26-22.94,7.83-8.62,2.64-17.42,4.88a379.3,379.3,0,0,1-93.52,11.63c-209.12,0-378.65-169.52-378.65-378.65S-21.66,731,187.46,731A382.52,382.52,0,0,1,233,733.67,373.09,373.09,0,0,1,272,740.43q10.73,2.43,21.22,5.48a375.53,375.53,0,0,1,49.43,18.2C474.37,823.36,566.12,955.77,566.12,1109.61Z" transform="translate(212.8 180.61)"/><path class="cls-118" d="M566.12,1109.61c0,148-84.93,276.19-208.71,338.46a374.54,374.54,0,0,1-36.07,15.85q-11.29,4.26-22.94,7.83C130,1433.36,4.24,1282.64,4.24,1102.57,4.24,932.05,117,787.85,272,740.43q10.73,2.43,21.22,5.48a375.53,375.53,0,0,1,49.43,18.2C474.37,823.36,566.12,955.77,566.12,1109.61Z" transform="translate(212.8 180.61)"/><circle class="cls-119" cx="211.88" cy="960.9" r="37.58"/><circle class="cls-120" cx="159.96" cy="1096.9" r="159.96"/><ellipse class="cls-121" cx="558.82" cy="974.46" rx="37.35" ry="52.33"/><ellipse class="cls-122" cx="616.37" cy="956.91" rx="45.1" ry="63.19"/><path class="cls-109" d="M404.51,725.79q.57,9.51.77,19c.16,6.34.21,12.68.23,19s-.06,12.68-.22,19-.39,12.69-.78,19q-.58-9.51-.78-19c-.16-6.34-.2-12.68-.22-19s.06-12.69.22-19S404.12,732.13,404.51,725.79Z" transform="translate(212.8 180.61)"/><path class="cls-109" d="M388.06,735.19c1.54,1.28,3,2.62,4.47,4s2.9,2.72,4.32,4.1c2.86,2.76,5.63,5.6,8.38,8.46H403.8c2.74-2.72,5.5-5.41,8.34-8s5.71-5.2,8.73-7.64c-2.44,3-5,5.9-7.64,8.73s-5.3,5.6-8,8.34l-.72.73-.7-.75c-2.74-2.88-5.44-5.77-8.07-8.75-1.32-1.48-2.62-3-3.9-4.51S389.27,736.78,388.06,735.19Z" transform="translate(212.8 180.61)"/><path class="cls-109" d="M388.06,751.63c1.54,1.28,3,2.62,4.47,4s2.9,2.72,4.32,4.11c2.86,2.76,5.63,5.59,8.38,8.46l-1.43,0c2.74-2.71,5.5-5.41,8.34-8s5.71-5.2,8.73-7.63c-2.44,3-5,5.89-7.64,8.72s-5.3,5.6-8,8.34l-.72.73-.7-.75c-2.74-2.87-5.44-5.77-8.07-8.75-1.32-1.48-2.62-3-3.9-4.5S389.27,753.22,388.06,751.63Z" transform="translate(212.8 180.61)"/><path class="cls-109" d="M388.06,768.07c1.54,1.28,3,2.63,4.47,4s2.9,2.71,4.32,4.1c2.86,2.76,5.63,5.6,8.38,8.46l-1.43,0c2.74-2.71,5.5-5.4,8.34-8s5.71-5.19,8.73-7.63c-2.44,3-5,5.89-7.64,8.73s-5.3,5.59-8,8.33l-.72.73-.7-.74c-2.74-2.88-5.44-5.78-8.07-8.76-1.32-1.48-2.62-3-3.9-4.5S389.27,769.66,388.06,768.07Z" transform="translate(212.8 180.61)"/><path class="cls-109" d="M347.19,753.51c.42,5.25.63,10.49.78,15.74s.2,10.49.22,15.74-.06,10.49-.22,15.73-.36,10.5-.78,15.74c-.41-5.24-.63-10.49-.78-15.74s-.2-10.49-.22-15.73.07-10.5.23-15.74S346.78,758.76,347.19,753.51Z" transform="translate(212.8 180.61)"/><path class="cls-109" d="M333.59,761.28c1.3,1,2.53,2.13,3.76,3.22s2.43,2.22,3.61,3.36c2.38,2.26,4.68,4.61,7,7h-1.42c2.27-2.25,4.55-4.47,6.92-6.61s4.77-4.26,7.31-6.22c-2,2.55-4.06,5-6.21,7.31s-4.37,4.66-6.61,6.93l-.72.73-.71-.75c-2.26-2.38-4.49-4.78-6.64-7.27-1.09-1.23-2.15-2.49-3.19-3.76S334.56,762.62,333.59,761.28Z" transform="translate(212.8 180.61)"/><path class="cls-109" d="M333.59,774.88c1.3,1,2.53,2.13,3.76,3.22s2.43,2.22,3.61,3.36c2.38,2.27,4.68,4.61,7,7h-1.42c2.27-2.24,4.55-4.47,6.92-6.61s4.77-4.25,7.31-6.22c-2,2.55-4.06,4.95-6.21,7.31s-4.37,4.66-6.61,6.93l-.72.73-.71-.75c-2.26-2.38-4.49-4.78-6.64-7.27-1.09-1.23-2.15-2.49-3.19-3.76S334.56,776.22,333.59,774.88Z" transform="translate(212.8 180.61)"/><path class="cls-109" d="M333.59,788.48c1.3,1,2.53,2.13,3.76,3.22s2.43,2.22,3.61,3.36c2.38,2.27,4.68,4.61,7,7h-1.42c2.27-2.24,4.55-4.47,6.92-6.61s4.77-4.25,7.31-6.22c-2,2.55-4.06,4.95-6.21,7.31s-4.37,4.66-6.61,6.93l-.72.73-.71-.75c-2.26-2.38-4.49-4.78-6.64-7.27-1.09-1.23-2.15-2.49-3.19-3.76S334.56,789.83,333.59,788.48Z" transform="translate(212.8 180.61)"/><ellipse class="cls-123" cx="522.17" cy="994.66" rx="52.38" ry="52.33"/><rect class="cls-124" x="474.82" y="636.74" width="51.95" height="43.75" rx="8.3"/><rect class="cls-125" x="465.36" y="627.44" width="53.95" height="45.75" rx="9.3"/><path class="cls-115" d="M297.21,447.83a8.31,8.31,0,0,1,8.3,8.3v27.14a8.31,8.31,0,0,1-8.3,8.31H261.87a8.31,8.31,0,0,1-8.31-8.31V456.13a8.31,8.31,0,0,1,8.31-8.3h35.34m0-2H261.87a10.31,10.31,0,0,0-10.31,10.3v27.14a10.32,10.32,0,0,0,10.31,10.31h35.34a10.32,10.32,0,0,0,10.3-10.31V456.13a10.31,10.31,0,0,0-10.3-10.3Z" transform="translate(212.8 180.61)"/><path class="cls-115" d="M263.81,481.55a.91.91,0,0,1-.75-1.42l5.46-8.2a.93.93,0,0,1,1.17-.31l4.65,2.33,5.06-10.12a.92.92,0,0,1,.59-.48.93.93,0,0,1,.74.13l7.3,4.87,4.42-10a.91.91,0,0,1,1.2-.47.93.93,0,0,1,.47,1.21l-4.86,10.93a.94.94,0,0,1-.58.51.92.92,0,0,1-.76-.12l-7.35-4.89-5,10a.93.93,0,0,1-1.23.41l-4.74-2.38-5,7.54A.9.9,0,0,1,263.81,481.55Z" transform="translate(212.8 180.61)"/><circle class="cls-115" cx="506.23" cy="638.77" r="2.73"/><path class="cls-115" d="M272.47,459.37h-8.2a.91.91,0,0,1,0-1.82h8.2a.91.91,0,0,1,0,1.82Z" transform="translate(212.8 180.61)"/><path class="cls-115" d="M294.35,484H267a.91.91,0,0,1,0-1.82h27.35a.91.91,0,0,1,0,1.82Z" transform="translate(212.8 180.61)"/><path class="cls-115" d="M268.83,463.63h-3.65a.92.92,0,0,1,0-1.83h3.65a.92.92,0,0,1,0,1.83Z" transform="translate(212.8 180.61)"/></g></g></g></svg>