<svg width="343" height="179" viewBox="0 0 343 179" fill="none" xmlns="http://www.w3.org/2000/svg">
<g clip-path="url(#clip0_1319_1311)">
<rect width="342.61" height="178.45" fill="white"/>
<path d="M342.61 -9H0V187.45H342.61V-9Z" fill="url(#paint0_linear_1319_1311)"/>
<mask id="mask0_1319_1311" style="mask-type:luminance" maskUnits="userSpaceOnUse" x="0" y="-9" width="343" height="197">
<path d="M35.68 -9H306.93C316.393 -9 325.468 -5.24087 332.16 1.45043C338.851 8.14173 342.61 17.2171 342.61 26.68V186.93C342.61 187.068 342.555 187.2 342.458 187.298C342.36 187.395 342.228 187.45 342.09 187.45H0.52C0.451713 187.45 0.384094 187.437 0.321005 187.41C0.257915 187.384 0.200591 187.346 0.152304 187.298C0.104018 187.249 0.0657151 187.192 0.0395826 187.129C0.0134502 187.066 0 186.998 0 186.93L0 26.68C0 17.2171 3.75913 8.14173 10.4504 1.45043C17.1417 -5.24087 26.2171 -9 35.68 -9Z" fill="white"/>
</mask>
<g mask="url(#mask0_1319_1311)">
<path d="M179.85 171.228C179.865 176.746 178.695 182.202 176.42 187.228H-0.390015V29.5683C4.853 28.0179 10.2925 27.2331 15.76 27.2383C47.85 27.2383 73.86 53.9283 73.86 86.8683C73.86 87.8683 73.86 88.7883 73.79 89.7483C76.7058 89.1811 79.6695 88.8964 82.64 88.8983C108.18 88.8983 129.04 109.408 130.46 135.248C134.393 133.836 138.541 133.115 142.72 133.118C163.23 133.118 179.85 150.178 179.85 171.228Z" fill="url(#paint1_linear_1319_1311)"/>
<path d="M342.69 49.0003V186.83H175.22C168.264 179.548 164.406 169.851 164.46 159.78C164.46 138.78 180.74 121.67 200.82 121.67C205.718 121.657 210.564 122.68 215.04 124.67C216.29 98.6703 236.79 78.0103 261.9 78.0103C269.036 78.024 276.066 79.7344 282.41 83.0003C291.41 62.5703 311.18 48.4003 334.08 48.4003C336.961 48.3768 339.84 48.5774 342.69 49.0003Z" fill="url(#paint2_linear_1319_1311)"/>
<path d="M133.47 176.001C133.477 179.998 132.606 183.948 130.92 187.571H-0.390015V73.5214C6.03932 71.6681 12.8114 71.3343 19.3918 72.5464C25.9722 73.7584 32.181 76.4832 37.528 80.5056C42.8751 84.528 47.2142 89.7381 50.203 95.7246C53.1917 101.711 54.7483 108.31 54.75 115.001C54.75 115.701 54.75 116.391 54.75 117.081C59.7155 116.158 64.8207 116.301 69.7264 117.503C74.6321 118.704 79.226 120.936 83.2025 124.05C87.1791 127.164 90.4473 131.088 92.7901 135.563C95.1328 140.037 96.4963 144.959 96.79 150.001C100.944 148.552 105.385 148.117 109.742 148.733C114.099 149.349 118.245 150.998 121.835 153.542C125.425 156.087 128.354 159.453 130.378 163.36C132.402 167.267 133.462 171.601 133.47 176.001Z" fill="url(#paint3_linear_1319_1311)"/>
<path d="M342.69 87.8921V187.592H215.69C211.12 183.082 208.267 177.119 207.623 170.73C206.979 164.342 208.583 157.929 212.16 152.597C215.738 147.265 221.063 143.348 227.218 141.522C233.374 139.696 239.974 140.074 245.88 142.592C246.185 136.722 247.94 131.019 250.987 125.992C254.034 120.966 258.279 116.772 263.342 113.786C268.405 110.8 274.128 109.115 280.002 108.88C285.875 108.645 291.715 109.869 297 112.442C300.463 104.972 305.992 98.6489 312.932 94.2191C319.873 89.7893 327.936 87.4377 336.17 87.4421C338.351 87.43 340.531 87.5804 342.69 87.8921Z" fill="url(#paint4_linear_1319_1311)"/>
<path d="M226.79 55.3891C211.926 40.5282 191.768 32.1797 170.75 32.1797C149.731 32.1797 129.574 40.5282 114.71 55.3891C111.258 58.8434 108.128 62.6057 105.36 66.6291C104.58 66.2104 103.671 66.1036 102.815 66.3302C101.96 66.5568 101.222 67.0999 100.752 67.8496C100.282 68.5994 100.114 69.4997 100.283 70.3685C100.451 71.2373 100.944 72.0096 101.66 72.5291C93.1965 87.5984 89.8872 105.02 92.2357 122.143C94.5841 139.266 102.462 155.153 114.67 167.387C126.878 179.621 142.748 187.533 159.866 189.918C176.984 192.303 194.413 189.03 209.5 180.599C210.039 181.364 210.85 181.893 211.767 182.079C212.684 182.264 213.637 182.092 214.43 181.596C215.224 181.101 215.798 180.321 216.034 179.415C216.27 178.51 216.15 177.549 215.7 176.729C219.667 173.982 223.379 170.883 226.79 167.469C234.152 160.111 239.992 151.375 243.976 141.76C247.961 132.144 250.012 121.838 250.012 111.429C250.012 101.021 247.961 90.7143 243.976 81.0987C239.992 71.4831 234.152 62.7469 226.79 55.3891ZM215.28 176.109C214.797 175.531 214.148 175.116 213.421 174.92C212.693 174.724 211.923 174.758 211.216 175.016C210.508 175.274 209.897 175.744 209.467 176.362C209.036 176.98 208.807 177.716 208.81 178.469C208.807 178.98 208.916 179.485 209.13 179.949C194.192 188.317 176.927 191.573 159.967 189.22C143.007 186.868 127.281 179.036 115.184 166.918C103.088 154.8 95.2838 139.059 92.9614 122.095C90.6389 105.131 93.9253 87.8726 102.32 72.9491C102.762 73.1392 103.239 73.2378 103.72 73.2391C104.448 73.2598 105.165 73.0512 105.768 72.6429C106.372 72.2346 106.832 71.6471 107.084 70.9633C107.336 70.2795 107.367 69.5339 107.172 68.8317C106.978 68.1294 106.568 67.5059 106 67.0491C112.51 57.5277 121.038 49.5572 130.977 43.7044C140.916 37.8515 152.022 34.2599 163.506 33.1848C174.99 32.1098 186.57 33.5778 197.423 37.4843C208.276 41.3909 218.134 47.6402 226.299 55.788C234.463 63.9358 240.732 73.782 244.66 84.6267C248.589 95.4714 250.08 107.048 249.028 118.535C247.976 130.021 244.407 141.134 238.574 151.085C232.741 161.036 224.788 169.58 215.28 176.109Z" fill="url(#paint5_radial_1319_1311)"/>
<path d="M87.84 40.5519C89.1875 40.5519 90.28 39.4595 90.28 38.1119C90.28 36.7643 89.1875 35.6719 87.84 35.6719C86.4924 35.6719 85.4 36.7643 85.4 38.1119C85.4 39.4595 86.4924 40.5519 87.84 40.5519Z" fill="url(#paint6_radial_1319_1311)"/>
<path d="M62 88.7384C63.0603 88.7384 63.92 87.8788 63.92 86.8184C63.92 85.758 63.0603 84.8984 62 84.8984C60.9396 84.8984 60.08 85.758 60.08 86.8184C60.08 87.8788 60.9396 88.7384 62 88.7384Z" fill="url(#paint7_radial_1319_1311)"/>
<path d="M98.31 163.281C99.3704 163.281 100.23 162.422 100.23 161.361C100.23 160.301 99.3704 159.441 98.31 159.441C97.2496 159.441 96.39 160.301 96.39 161.361C96.39 162.422 97.2496 163.281 98.31 163.281Z" fill="url(#paint8_radial_1319_1311)"/>
<path d="M169.88 204.82C169.325 204.821 168.79 205.025 168.376 205.394C167.961 205.762 167.696 206.269 167.63 206.82C142.401 206.136 118.411 195.738 100.661 177.797C82.9118 159.855 72.7733 135.755 72.36 110.52C72.9274 110.423 73.4423 110.128 73.8134 109.688C74.1846 109.248 74.3882 108.691 74.3882 108.115C74.3882 107.539 74.1846 106.982 73.8134 106.542C73.4423 106.102 72.9274 105.807 72.36 105.71C72.9746 87.4552 78.688 69.737 88.8532 54.5617C99.0184 39.3864 113.229 27.3603 129.877 19.8452C146.525 12.33 164.944 9.62598 183.049 12.0393C201.154 14.4526 218.222 21.8868 232.32 33.5001C232.123 33.8405 232.019 34.2269 232.02 34.6201C232.017 35.1438 232.195 35.6524 232.523 36.0605C232.852 36.4686 233.31 36.7512 233.822 36.8609C234.334 36.9706 234.869 36.9007 235.335 36.6629C235.802 36.4251 236.172 36.0339 236.384 35.5552C236.597 35.0764 236.637 34.5391 236.5 34.0338C236.363 33.5284 236.056 33.0857 235.631 32.7801C235.205 32.4744 234.688 32.3245 234.165 32.3555C233.642 32.3864 233.146 32.5964 232.76 32.9501C218.56 21.2666 201.374 13.7903 183.146 11.3671C164.918 8.94382 146.376 11.6704 129.617 19.2382C112.858 26.8061 98.5513 38.9131 88.3159 54.1897C78.0805 69.4662 72.3248 87.3023 71.7 105.68C71.0935 105.735 70.5296 106.015 70.119 106.465C69.7083 106.914 69.4807 107.501 69.4807 108.11C69.4807 108.719 69.7083 109.306 70.119 109.756C70.5296 110.205 71.0935 110.485 71.7 110.54C72.0817 135.975 82.2879 160.277 100.182 178.357C118.076 196.437 142.27 206.895 167.7 207.54C167.782 207.963 167.982 208.354 168.277 208.667C168.572 208.98 168.95 209.203 169.368 209.31C169.785 209.416 170.223 209.402 170.633 209.268C171.042 209.135 171.405 208.888 171.679 208.556C171.953 208.224 172.127 207.821 172.181 207.394C172.235 206.966 172.166 206.533 171.983 206.143C171.799 205.754 171.509 205.424 171.146 205.194C170.782 204.963 170.36 204.84 169.93 204.84L169.88 204.82Z" fill="url(#paint9_radial_1319_1311)"/>
<path d="M265.72 106.539C265.717 105.567 265.329 104.636 264.642 103.95C263.954 103.264 263.022 102.879 262.05 102.879H261.82C259.989 82.6976 251.288 63.756 237.17 49.2189C229.553 41.2705 220.443 34.9023 210.362 30.4786C200.281 26.055 189.427 23.6628 178.42 23.4389C178.385 23.1042 178.254 22.7868 178.043 22.5251C177.831 22.2634 177.548 22.0687 177.228 21.9645C176.908 21.8602 176.565 21.851 176.24 21.938C175.915 22.0249 175.622 22.2042 175.397 22.4542C175.171 22.7041 175.023 23.0141 174.971 23.3464C174.918 23.6788 174.963 24.0193 175.1 24.3267C175.237 24.6341 175.46 24.8952 175.742 25.0784C176.024 25.2616 176.353 25.359 176.69 25.3589C177.06 25.3598 177.42 25.2417 177.717 25.0219C178.014 24.8022 178.233 24.4925 178.34 24.1389C221.59 24.9989 257 59.3489 261.12 102.999C260.299 103.208 259.576 103.696 259.075 104.379C258.573 105.062 258.324 105.898 258.37 106.744C258.416 107.59 258.754 108.394 259.327 109.019C259.9 109.643 260.671 110.05 261.51 110.169C261.51 110.609 261.51 111.059 261.51 111.509C261.51 158.849 224.76 197.509 179.1 198.849C179.012 198.287 178.715 197.779 178.268 197.426C177.822 197.073 177.259 196.902 176.692 196.946C176.124 196.99 175.595 197.246 175.208 197.664C174.822 198.082 174.607 198.63 174.607 199.199C174.607 199.768 174.822 200.316 175.208 200.734C175.595 201.151 176.124 201.408 176.692 201.452C177.259 201.496 177.822 201.325 178.268 200.972C178.715 200.619 179.012 200.111 179.1 199.549C201.095 198.926 221.962 189.672 237.19 173.789C253.365 157.105 262.358 134.746 262.24 111.509C262.24 111.069 262.24 110.639 262.24 110.199C263.178 110.15 264.062 109.744 264.71 109.063C265.357 108.382 265.719 107.478 265.72 106.539Z" fill="url(#paint10_radial_1319_1311)"/>
<path d="M248.26 145.129C249.227 145.129 250.01 144.345 250.01 143.379C250.01 142.412 249.227 141.629 248.26 141.629C247.294 141.629 246.51 142.412 246.51 143.379C246.51 144.345 247.294 145.129 248.26 145.129Z" fill="url(#paint11_radial_1319_1311)"/>
<path d="M239.88 86.8203C240.847 86.8203 241.63 86.0368 241.63 85.0703C241.63 84.1038 240.847 83.3203 239.88 83.3203C238.914 83.3203 238.13 84.1038 238.13 85.0703C238.13 86.0368 238.914 86.8203 239.88 86.8203Z" fill="url(#paint12_radial_1319_1311)"/>
<path d="M259.08 58.1909C261.007 58.1909 262.57 56.6284 262.57 54.7009C262.57 52.7735 261.007 51.2109 259.08 51.2109C257.152 51.2109 255.59 52.7735 255.59 54.7009C255.59 56.6284 257.152 58.1909 259.08 58.1909Z" fill="url(#paint13_radial_1319_1311)"/>
</g>
</g>
<defs>
<linearGradient id="paint0_linear_1319_1311" x1="171.31" y1="189.66" x2="171.31" y2="-6.45001" gradientUnits="userSpaceOnUse">
<stop stop-color="white"/>
<stop offset="0.5" stop-color="#034D3C"/>
<stop offset="1" stop-color="#00212A"/>
</linearGradient>
<linearGradient id="paint1_linear_1319_1311" x1="89.73" y1="186.958" x2="89.73" y2="-26.8017" gradientUnits="userSpaceOnUse">
<stop stop-color="white"/>
<stop offset="0.5" stop-color="#034D3C"/>
<stop offset="1" stop-color="#00212A"/>
</linearGradient>
<linearGradient id="paint2_linear_1319_1311" x1="253.57" y1="186.83" x2="253.57" y2="-26.9297" gradientUnits="userSpaceOnUse">
<stop stop-color="white"/>
<stop offset="0.5" stop-color="#034D3C"/>
<stop offset="1" stop-color="#00212A"/>
</linearGradient>
<linearGradient id="paint3_linear_1319_1311" x1="66.54" y1="186.581" x2="66.54" y2="-78.8386" gradientUnits="userSpaceOnUse">
<stop stop-color="white"/>
<stop offset="0.5" stop-color="#034D3C"/>
<stop offset="1" stop-color="#00212A"/>
</linearGradient>
<linearGradient id="paint4_linear_1319_1311" x1="275.12" y1="186.582" x2="275.12" y2="-78.8379" gradientUnits="userSpaceOnUse">
<stop stop-color="white"/>
<stop offset="0.5" stop-color="#034D3C"/>
<stop offset="1" stop-color="#00212A"/>
</linearGradient>
<radialGradient id="paint5_radial_1319_1311" cx="0" cy="0" r="1" gradientUnits="userSpaceOnUse" gradientTransform="translate(137.28 74.2291) scale(232.29 232.29)">
<stop stop-color="white" stop-opacity="0"/>
<stop offset="1" stop-color="white" stop-opacity="0.5"/>
</radialGradient>
<radialGradient id="paint6_radial_1319_1311" cx="0" cy="0" r="1" gradientUnits="userSpaceOnUse" gradientTransform="translate(136.89 74.2319) scale(232.29 232.29)">
<stop stop-color="white" stop-opacity="0"/>
<stop offset="1" stop-color="white" stop-opacity="0.5"/>
</radialGradient>
<radialGradient id="paint7_radial_1319_1311" cx="0" cy="0" r="1" gradientUnits="userSpaceOnUse" gradientTransform="translate(136.89 74.2284) scale(232.29)">
<stop stop-color="white" stop-opacity="0"/>
<stop offset="1" stop-color="white" stop-opacity="0.5"/>
</radialGradient>
<radialGradient id="paint8_radial_1319_1311" cx="0" cy="0" r="1" gradientUnits="userSpaceOnUse" gradientTransform="translate(136.89 74.2315) scale(232.29 232.29)">
<stop stop-color="white" stop-opacity="0"/>
<stop offset="1" stop-color="white" stop-opacity="0.5"/>
</radialGradient>
<radialGradient id="paint9_radial_1319_1311" cx="0" cy="0" r="1" gradientUnits="userSpaceOnUse" gradientTransform="translate(137.28 74.2301) scale(232.29 232.29)">
<stop stop-color="white" stop-opacity="0"/>
<stop offset="1" stop-color="white" stop-opacity="0.5"/>
</radialGradient>
<radialGradient id="paint10_radial_1319_1311" cx="0" cy="0" r="1" gradientUnits="userSpaceOnUse" gradientTransform="translate(137.28 74.2289) scale(232.29 232.29)">
<stop stop-color="white" stop-opacity="0"/>
<stop offset="1" stop-color="white" stop-opacity="0.5"/>
</radialGradient>
<radialGradient id="paint11_radial_1319_1311" cx="0" cy="0" r="1" gradientUnits="userSpaceOnUse" gradientTransform="translate(136.89 74.2289) scale(232.29)">
<stop stop-color="white" stop-opacity="0"/>
<stop offset="1" stop-color="white" stop-opacity="0.5"/>
</radialGradient>
<radialGradient id="paint12_radial_1319_1311" cx="0" cy="0" r="1" gradientUnits="userSpaceOnUse" gradientTransform="translate(136.89 74.2303) scale(232.29)">
<stop stop-color="white" stop-opacity="0"/>
<stop offset="1" stop-color="white" stop-opacity="0.5"/>
</radialGradient>
<radialGradient id="paint13_radial_1319_1311" cx="0" cy="0" r="1" gradientUnits="userSpaceOnUse" gradientTransform="translate(136.89 74.231) scale(232.29 232.29)">
<stop stop-color="white" stop-opacity="0"/>
<stop offset="1" stop-color="white" stop-opacity="0.5"/>
</radialGradient>
<clipPath id="clip0_1319_1311">
<rect width="342.61" height="178.45" fill="white"/>
</clipPath>
</defs>
</svg>
