<svg xmlns="http://www.w3.org/2000/svg" xmlns:xlink="http://www.w3.org/1999/xlink" viewBox="0 0 420.04 777.2"><defs><style>.cls-1{fill:url(#linear-gradient);}.cls-2{fill:url(#linear-gradient-2);}.cls-3{fill:url(#linear-gradient-3);}.cls-4{fill:url(#linear-gradient-4);}.cls-5{fill:url(#linear-gradient-5);}.cls-6{fill:url(#linear-gradient-6);}.cls-7{fill:url(#linear-gradient-7);}.cls-8{fill:url(#linear-gradient-8);}.cls-9{fill:url(#linear-gradient-9);}.cls-10{fill:url(#linear-gradient-10);}.cls-11{fill:url(#linear-gradient-11);}.cls-12{fill:url(#linear-gradient-12);}.cls-13{fill:url(#linear-gradient-13);}.cls-14{fill:url(#linear-gradient-14);}.cls-15{fill:url(#linear-gradient-15);}.cls-16{fill:url(#linear-gradient-16);}.cls-17{fill:url(#linear-gradient-17);}.cls-18{fill:url(#linear-gradient-18);}.cls-19{fill:url(#linear-gradient-19);}.cls-20{fill:url(#linear-gradient-20);}.cls-21{fill:url(#linear-gradient-21);}.cls-22{fill:url(#linear-gradient-22);}.cls-23{fill:url(#linear-gradient-23);}.cls-24{fill:url(#linear-gradient-24);}.cls-25{fill:url(#linear-gradient-25);}.cls-26{fill:url(#linear-gradient-26);}.cls-27{fill:url(#linear-gradient-27);}.cls-28{fill:url(#linear-gradient-28);}.cls-29{fill:url(#linear-gradient-29);}.cls-30{fill:url(#linear-gradient-30);}.cls-31{fill:url(#linear-gradient-31);}.cls-32{fill:url(#linear-gradient-32);}.cls-33{fill:url(#linear-gradient-33);}.cls-34{fill:url(#linear-gradient-34);}.cls-35{fill:url(#linear-gradient-35);}.cls-36{fill:url(#linear-gradient-36);}.cls-37{fill:url(#linear-gradient-37);}.cls-38{fill:url(#linear-gradient-38);}.cls-39{fill:url(#linear-gradient-39);}.cls-40{fill:url(#linear-gradient-40);}.cls-41{fill:url(#linear-gradient-41);}.cls-42{fill:url(#linear-gradient-42);}.cls-43{fill:url(#linear-gradient-43);}.cls-44{fill:url(#linear-gradient-44);}.cls-45{fill:url(#linear-gradient-45);}.cls-46{fill:url(#linear-gradient-46);}.cls-47{fill:url(#linear-gradient-47);}.cls-48{fill:url(#linear-gradient-48);}.cls-49{fill:url(#linear-gradient-49);}.cls-50{fill:url(#linear-gradient-50);}.cls-51{fill:url(#linear-gradient-51);}.cls-52{fill:url(#linear-gradient-52);}.cls-53{fill:url(#linear-gradient-53);}.cls-54{fill:url(#linear-gradient-54);}.cls-55{fill:url(#linear-gradient-55);}.cls-56{fill:url(#linear-gradient-56);}.cls-57{fill:url(#linear-gradient-57);}.cls-58{fill:url(#linear-gradient-58);}.cls-59{fill:url(#linear-gradient-59);}.cls-60{fill:url(#linear-gradient-60);}.cls-61{opacity:0.35;}.cls-62{fill:#bce9fe;}.cls-63{fill:url(#linear-gradient-61);}.cls-64{fill:url(#linear-gradient-62);}.cls-65{fill:url(#linear-gradient-63);}.cls-66{fill:#1c81d1;}.cls-67{fill:#2181d5;}.cls-68{fill:#fff;}.cls-69{fill:url(#linear-gradient-64);}.cls-70{fill:url(#linear-gradient-65);}.cls-71{fill:url(#linear-gradient-66);}.cls-72{fill:url(#linear-gradient-67);}.cls-73{fill:#209dbb;}.cls-74{fill:url(#linear-gradient-68);}.cls-75{fill:url(#linear-gradient-69);}.cls-76{fill:url(#linear-gradient-70);}.cls-77{fill:url(#linear-gradient-71);}.cls-78{fill:url(#linear-gradient-72);}</style><linearGradient id="linear-gradient" x1="210" y1="419.32" x2="210" y2="672.31" gradientUnits="userSpaceOnUse"><stop offset="0" stop-color="#c4eafd"/><stop offset="1" stop-color="#fff"/></linearGradient><linearGradient id="linear-gradient-2" x1="316.66" y1="192.66" x2="380.86" y2="192.66" gradientUnits="userSpaceOnUse"><stop offset="0" stop-color="#fff" stop-opacity="0.05"/><stop offset="1" stop-color="#fff" stop-opacity="0.2"/></linearGradient><linearGradient id="linear-gradient-3" x1="-289.08" y1="273.46" x2="452.36" y2="273.46" gradientTransform="translate(499.09 124.29) rotate(90)" xlink:href="#linear-gradient-2"/><linearGradient id="linear-gradient-4" x1="-287.88" y1="232.99" x2="452.59" y2="232.99" gradientTransform="translate(499.09 124.29) rotate(90)" xlink:href="#linear-gradient-2"/><linearGradient id="linear-gradient-5" x1="-287.05" y1="139.06" x2="452.67" y2="139.06" gradientTransform="translate(499.09 124.29) rotate(90)" xlink:href="#linear-gradient-2"/><linearGradient id="linear-gradient-6" x1="-290.06" y1="183.37" x2="450.18" y2="183.37" gradientTransform="translate(499.09 124.29) rotate(90)" xlink:href="#linear-gradient-2"/><linearGradient id="linear-gradient-7" x1="-290.06" y1="319.72" x2="450.18" y2="319.72" gradientTransform="translate(499.09 124.29) rotate(90)" xlink:href="#linear-gradient-2"/><linearGradient id="linear-gradient-8" x1="-270.73" y1="253.25" x2="451.3" y2="253.25" gradientTransform="translate(499.09 124.29) rotate(90)" xlink:href="#linear-gradient-2"/><linearGradient id="linear-gradient-9" x1="-1.97" y1="240.07" x2="27.09" y2="240.07" xlink:href="#linear-gradient-2"/><linearGradient id="linear-gradient-10" x1="115.56" y1="209.2" x2="129.28" y2="209.2" xlink:href="#linear-gradient-2"/><linearGradient id="linear-gradient-11" x1="-289.08" y1="337.89" x2="452.36" y2="337.89" gradientTransform="translate(499.09 124.29) rotate(90)" xlink:href="#linear-gradient-2"/><linearGradient id="linear-gradient-12" x1="-287.88" y1="371.68" x2="452.59" y2="371.68" gradientTransform="translate(499.09 124.29) rotate(90)" xlink:href="#linear-gradient-2"/><linearGradient id="linear-gradient-13" x1="-282.46" y1="452.25" x2="457.26" y2="452.25" gradientTransform="translate(499.09 124.29) rotate(90)" xlink:href="#linear-gradient-2"/><linearGradient id="linear-gradient-14" x1="-270.73" y1="358.51" x2="451.3" y2="358.51" gradientTransform="translate(499.09 124.29) rotate(90)" xlink:href="#linear-gradient-2"/><linearGradient id="linear-gradient-15" x1="388.05" y1="243.99" x2="424.54" y2="243.99" xlink:href="#linear-gradient-2"/><linearGradient id="linear-gradient-16" x1="413.87" y1="397.01" x2="421.1" y2="397.01" xlink:href="#linear-gradient-2"/><linearGradient id="linear-gradient-17" x1="413.87" y1="13.69" x2="421.1" y2="13.69" xlink:href="#linear-gradient-2"/><linearGradient id="linear-gradient-18" x1="280.05" y1="209.25" x2="293.77" y2="209.25" xlink:href="#linear-gradient-2"/><linearGradient id="linear-gradient-19" x1="232.95" y1="14.34" x2="242.23" y2="14.34" xlink:href="#linear-gradient-2"/><linearGradient id="linear-gradient-20" x1="31.32" y1="194.91" x2="95.53" y2="194.91" xlink:href="#linear-gradient-2"/><linearGradient id="linear-gradient-21" x1="150.51" y1="14.38" x2="159.79" y2="14.38" xlink:href="#linear-gradient-2"/><linearGradient id="linear-gradient-22" x1="-282.46" y1="410.5" x2="457.26" y2="410.5" gradientTransform="translate(499.09 124.29) rotate(90)" xlink:href="#linear-gradient-2"/><linearGradient id="linear-gradient-23" x1="-282.46" y1="305.71" x2="457.26" y2="305.71" gradientTransform="translate(499.09 124.29) rotate(90)" xlink:href="#linear-gradient-2"/><linearGradient id="linear-gradient-24" x1="-282.46" y1="192.98" x2="457.26" y2="192.98" gradientTransform="translate(499.09 124.29) rotate(90)" xlink:href="#linear-gradient-2"/><linearGradient id="linear-gradient-25" x1="-290.06" y1="402.5" x2="450.17" y2="402.5" gradientTransform="translate(499.09 124.29) rotate(90)" xlink:href="#linear-gradient-2"/><linearGradient id="linear-gradient-26" x1="74.1" y1="140.71" x2="-4.55" y2="47.41" xlink:href="#linear-gradient"/><linearGradient id="linear-gradient-27" x1="67.92" y1="74.73" x2="-4.47" y2="119.16" xlink:href="#linear-gradient"/><linearGradient id="linear-gradient-28" x1="342.28" y1="29.82" x2="408.14" y2="143.28" xlink:href="#linear-gradient"/><linearGradient id="linear-gradient-29" x1="323.52" y1="130.06" x2="389.8" y2="189.71" xlink:href="#linear-gradient"/><linearGradient id="linear-gradient-30" x1="218.2" y1="669.38" x2="218.2" y2="755.72" xlink:href="#linear-gradient"/><linearGradient id="linear-gradient-31" x1="103" y1="641.48" x2="103" y2="736.82" gradientUnits="userSpaceOnUse"><stop offset="0" stop-color="#2696ff"/><stop offset="1" stop-color="#196eb0"/></linearGradient><linearGradient id="linear-gradient-32" x1="118.57" y1="641.48" x2="118.57" y2="736.82" xlink:href="#linear-gradient-31"/><linearGradient id="linear-gradient-33" x1="110.69" y1="641.48" x2="110.69" y2="736.82" xlink:href="#linear-gradient-31"/><linearGradient id="linear-gradient-34" x1="122.1" y1="641.48" x2="122.1" y2="736.82" xlink:href="#linear-gradient-31"/><linearGradient id="linear-gradient-35" x1="87.43" y1="641.48" x2="87.43" y2="736.82" xlink:href="#linear-gradient-31"/><linearGradient id="linear-gradient-36" x1="95.31" y1="641.48" x2="95.31" y2="736.82" xlink:href="#linear-gradient-31"/><linearGradient id="linear-gradient-37" x1="83.9" y1="641.48" x2="83.9" y2="736.82" xlink:href="#linear-gradient-31"/><linearGradient id="linear-gradient-38" x1="334.5" y1="672.58" x2="334.5" y2="735.68" xlink:href="#linear-gradient-31"/><linearGradient id="linear-gradient-39" x1="344.8" y1="672.58" x2="344.8" y2="735.68" xlink:href="#linear-gradient-31"/><linearGradient id="linear-gradient-40" x1="339.59" y1="672.58" x2="339.59" y2="735.68" xlink:href="#linear-gradient-31"/><linearGradient id="linear-gradient-41" x1="347.14" y1="672.58" x2="347.14" y2="735.68" xlink:href="#linear-gradient-31"/><linearGradient id="linear-gradient-42" x1="324.2" y1="672.58" x2="324.2" y2="735.68" xlink:href="#linear-gradient-31"/><linearGradient id="linear-gradient-43" x1="329.41" y1="672.58" x2="329.41" y2="735.68" xlink:href="#linear-gradient-31"/><linearGradient id="linear-gradient-44" x1="321.86" y1="672.58" x2="321.86" y2="735.68" xlink:href="#linear-gradient-31"/><linearGradient id="linear-gradient-45" x1="9.17" y1="720.92" x2="9.17" y2="766.67" xlink:href="#linear-gradient"/><linearGradient id="linear-gradient-46" x1="47.79" y1="611.33" x2="23.58" y2="645.69" xlink:href="#linear-gradient-31"/><linearGradient id="linear-gradient-47" x1="18.39" y1="606.82" x2="58.45" y2="645.63" xlink:href="#linear-gradient-31"/><linearGradient id="linear-gradient-48" x1="17.6" y1="648.07" x2="48.4" y2="689.73" xlink:href="#linear-gradient-31"/><linearGradient id="linear-gradient-49" x1="49.61" y1="644.82" x2="29.14" y2="689.15" xlink:href="#linear-gradient-31"/><linearGradient id="linear-gradient-50" x1="44.19" y1="576.3" x2="5.11" y2="615.37" xlink:href="#linear-gradient-31"/><linearGradient id="linear-gradient-51" x1="20.79" y1="564.44" x2="47.85" y2="589.84" xlink:href="#linear-gradient-31"/><linearGradient id="linear-gradient-52" x1="32.67" y1="646.37" x2="32.67" y2="785.02" xlink:href="#linear-gradient-31"/><linearGradient id="linear-gradient-53" x1="409.32" y1="640.63" x2="384.85" y2="675.35" xlink:href="#linear-gradient-31"/><linearGradient id="linear-gradient-54" x1="382.82" y1="625.21" x2="433.87" y2="674.68" xlink:href="#linear-gradient-31"/><linearGradient id="linear-gradient-55" x1="381.73" y1="668.69" x2="414.21" y2="712.63" xlink:href="#linear-gradient-31"/><linearGradient id="linear-gradient-56" x1="414.42" y1="665.91" x2="392.31" y2="713.79" xlink:href="#linear-gradient-31"/><linearGradient id="linear-gradient-57" x1="409.58" y1="584.38" x2="368.82" y2="625.14" xlink:href="#linear-gradient-31"/><linearGradient id="linear-gradient-58" x1="385" y1="578.59" x2="413.24" y2="605.08" xlink:href="#linear-gradient-31"/><linearGradient id="linear-gradient-59" x1="397.6" y1="663.13" x2="397.6" y2="807.77" xlink:href="#linear-gradient-31"/><linearGradient id="linear-gradient-60" x1="291.29" y1="710.51" x2="291.29" y2="799.51" gradientUnits="userSpaceOnUse"><stop offset="0" stop-color="#36adf7"/><stop offset="1" stop-color="#0d76a5"/></linearGradient><linearGradient id="linear-gradient-61" x1="64.34" y1="712.94" x2="64.34" y2="793.99" xlink:href="#linear-gradient-60"/><linearGradient id="linear-gradient-62" x1="8.29" y1="679.16" x2="8.29" y2="747.17" gradientUnits="userSpaceOnUse"><stop offset="0" stop-color="#399fe1"/><stop offset="1" stop-color="#1e7dcf"/></linearGradient><linearGradient id="linear-gradient-63" x1="29.97" y1="693.52" x2="29.97" y2="757.44" xlink:href="#linear-gradient-62"/><linearGradient id="linear-gradient-64" x1="53.1" y1="770.84" x2="53.1" y2="738.97" xlink:href="#linear-gradient-31"/><linearGradient id="linear-gradient-65" x1="119.85" y1="705.42" x2="199.35" y2="789.6" xlink:href="#linear-gradient-31"/><linearGradient id="linear-gradient-66" x1="217.02" y1="755.03" x2="268.3" y2="768.45" xlink:href="#linear-gradient-31"/><linearGradient id="linear-gradient-67" x1="18.26" y1="745.03" x2="18.26" y2="774.93" xlink:href="#linear-gradient-31"/><linearGradient id="linear-gradient-68" x1="346.02" y1="731.99" x2="346.02" y2="751.91" xlink:href="#linear-gradient-31"/><linearGradient id="linear-gradient-69" x1="389.23" y1="713.27" x2="389.23" y2="742.97" xlink:href="#linear-gradient-31"/><linearGradient id="linear-gradient-70" x1="272.39" y1="769.36" x2="346.36" y2="769.36" xlink:href="#linear-gradient-31"/><linearGradient id="linear-gradient-71" x1="320.02" y1="465" x2="371.98" y2="465" xlink:href="#linear-gradient-62"/><linearGradient id="linear-gradient-72" x1="310.56" y1="456.7" x2="364.51" y2="456.7" xlink:href="#linear-gradient-62"/></defs><g id="Layer_2" data-name="Layer 2"><g id="Layer_2-2" data-name="Layer 2"><ellipse class="cls-1" cx="210" cy="529.39" rx="189.56" ry="194.26"/><path class="cls-2" d="M363.91,188.07v.09c0,11.44,0,22.73,0,33.35V269c0,10.93,0,23.88,0,37a4.73,4.73,0,0,1-1.51,3.71c-4.73,4.68-9.51,9.46-14.13,14.08-3.92,3.92-8,8-12,11.95a5.06,5.06,0,0,0-1.66,3.87v0c0,5,.05,10.17.05,15.9,0,5.17,0,10.34,0,15.51v.05a3.21,3.21,0,0,0,1.72,3.3,3.75,3.75,0,0,1,1.91,3.33,4.35,4.35,0,0,1-4.23,4.3,3.71,3.71,0,0,1-.67,0,4.18,4.18,0,0,1-3.38-2.89v0a4.32,4.32,0,0,1-.21-1.34,3.66,3.66,0,0,1,1.83-3.29c1.63-.89,1.76-2.1,1.76-3.47v-.1q0-6.72,0-13.44c0-6,0-12.27,0-18.4V339a4.66,4.66,0,0,1,1.5-3.67c4.4-4.36,8.85-8.81,13.16-13.12s8.62-8.62,12.95-12.91a5.24,5.24,0,0,0,1.67-4.1c0-19.39,0-39.49,0-59.76q0-12.6,0-25.19,0-16,0-32.08V188l-.05-.09a1.49,1.49,0,0,1-.09-.59,7.08,7.08,0,0,1,.07-.89c0-.24.06-.48.07-.7v-4.63c0-.24,0-.48-.07-.73a6.93,6.93,0,0,1-.07-.88,1.58,1.58,0,0,1,.09-.6l.05-.08v-.1q0-11.83,0-23.68,0-16.78,0-33.59c0-20.26,0-40.36,0-59.75A5.32,5.32,0,0,0,361,57.62c-4.34-4.28-8.72-8.67-13-12.91S339.28,36,334.88,31.6a4.68,4.68,0,0,1-1.5-3.67v-.05c0-6.13,0-12.37,0-18.4,0-2.06,0-4.11,0-6.17h1.31c0,2.69,0,5.38,0,8.07,0,5.73,0,10.93-.05,15.9v0a5.06,5.06,0,0,0,1.66,3.87c4,4,8,8,12,11.93,4.62,4.63,9.41,9.42,14.14,14.1A4.71,4.71,0,0,1,364,60.91c0,13.15,0,26.1,0,37v44.13c0,3.73,0,7.55,0,11.43,0,8.18,0,16.66,0,25.22v.1l0,.09a1.39,1.39,0,0,1,.09.56c0,.28,0,.58-.07.88s-.06.42-.07.61v4.94c0,.22,0,.42.07.64s.07.6.07.88a1.39,1.39,0,0,1-.09.56Z"/><path class="cls-3" d="M215.91,453.07a3.6,3.6,0,0,1,1.64-3.1,4.1,4.1,0,0,0,1.95-4.05v-.06q0-10.2,0-20.38c0-7.55,0-15.36,0-23a4.68,4.68,0,0,1,1.52-3.72c2-1.93,4-3.93,5.92-5.86s3.68-3.69,5.55-5.5a5,5,0,0,0,1.6-3.9c0-6.24,0-12.6,0-19.48,0-6.27,0-12.9,0-20.26h0a5.91,5.91,0,0,0-.05-.7c0-.24-.05-.48-.05-.71,0-.6.17-.79.72-.79a.8.8,0,0,1,.55.15,1.07,1.07,0,0,1,.18.73c0,.2,0,.43,0,.65s0,.45,0,.64c0,3,0,6.24,0,10.43v10.1c0,1.77,0,3.54,0,5.31s0,3.69,0,5.53c0,3.53,0,6.4.06,9v.11a4.77,4.77,0,0,1-1.64,3.77c-2,1.9-3.93,3.87-5.83,5.78-1.73,1.74-3.52,3.54-5.32,5.28a5.25,5.25,0,0,0-1.75,4.07c0,6.79.05,13.95.05,21.91q0,10.65,0,21.31h0a3.45,3.45,0,0,0,1.79,3.53,3.65,3.65,0,0,1,1.81,3.23,4.4,4.4,0,0,1-1,2.81,4.27,4.27,0,0,1-3,1.51,4.14,4.14,0,0,1-3.13-1.19,4.42,4.42,0,0,1-1.31-3.12Z"/><path class="cls-4" d="M256.41,433.67v-.29c0-1.5.07-3.13.07-5.13,0-1.15,0-2.31,0-3.46s0-2.31,0-3.47v-6.87c0-2.42,0-4.83,0-7.25h0c0-.13,0-.24,0-.36s0-.22,0-.33a1.14,1.14,0,0,1,.17-.74.7.7,0,0,1,.49-.14c.52,0,.7.17.7,1.11v5c0,3.19,0,6.38,0,9.57,0,4.63,0,8.45,0,12v.05a4.72,4.72,0,0,0,1.56,3.68c1.8,1.75,3.59,3.55,5.33,5.3,2,2,4.06,4.08,6.13,6.07a4.62,4.62,0,0,1,1.49,3.67c0,7.7,0,15.48,0,23q0,8.69,0,17.38a3.34,3.34,0,0,0,1.73,3.36,3.68,3.68,0,0,1,1.84,3.28,4.32,4.32,0,0,1-.22,1.37,4.23,4.23,0,0,1-8.06,0,5,5,0,0,1-.18-1.31,3.76,3.76,0,0,1,2-3.45,2.84,2.84,0,0,0,1.58-3q0-9.94,0-19.85c0-7.4,0-14,0-20.3a4.5,4.5,0,0,0-1.48-3.54c-1.61-1.58-3.22-3.2-4.78-4.78-2.12-2.13-4.31-4.33-6.52-6.44A5.28,5.28,0,0,1,256.41,433.67Z"/><path class="cls-5" d="M355.79,515.2a3.7,3.7,0,0,1,1.93-3.32c1.57-.86,1.7-2,1.7-3.34q0-16.28,0-32.53c0-14.93,0-28.48,0-41.43,0-.26,0-.54-.07-.84a6.7,6.7,0,0,1-.08-.87.94.94,0,0,1,.18-.67.84.84,0,0,1,.62-.15c.49,0,.75.16.75.92a6.79,6.79,0,0,1-.07.88c0,.3-.06.58-.06.84,0,7.52,0,15,0,20.71v32.33c0,6.14,0,13.39,0,20.69v.06c0,1.37.14,2.58,1.78,3.5a3.61,3.61,0,0,1,1.8,3.23,4.42,4.42,0,0,1-.24,1.43,4.15,4.15,0,0,1-4.08,2.88,4,4,0,0,1-3.91-2.84,4.17,4.17,0,0,1-.27-1.48Z"/><path class="cls-6" d="M311.48,226.37a3.77,3.77,0,0,1,1.88-3.29,3.24,3.24,0,0,0,1.71-3.29c0-6.1,0-12.55,0-20.95V168c0-8.4,0-14.84,0-20.9h0a3.26,3.26,0,0,0-1.71-3.33,3.74,3.74,0,0,1-1.88-3.3,4.32,4.32,0,0,1,.29-1.53,4,4,0,0,1,4-2.78,4.23,4.23,0,0,1,4,2.93,4.73,4.73,0,0,1,.2,1.34,3.85,3.85,0,0,1-2,3.45,2.93,2.93,0,0,0-1.61,3.07v.1c0,3.13,0,6.27,0,9.41v53.89c0,3.14,0,6.28,0,9.41v.1A2.93,2.93,0,0,0,318,223a3.84,3.84,0,0,1,2,3.45,4.73,4.73,0,0,1-.2,1.34,4.24,4.24,0,0,1-4,2.93,4,4,0,0,1-4-2.79,4.23,4.23,0,0,1-.29-1.52Z"/><path class="cls-7" d="M175.14,226.37a3.77,3.77,0,0,1,1.88-3.29,3.24,3.24,0,0,0,1.71-3.29c0-6.1,0-12.55,0-20.95V168c0-8.4,0-14.84,0-20.9h0a3.26,3.26,0,0,0-1.71-3.33,3.72,3.72,0,0,1-1.88-3.3,4.11,4.11,0,0,1,.29-1.53,4,4,0,0,1,3.95-2.78,4.21,4.21,0,0,1,4,2.93,4.4,4.4,0,0,1,.2,1.34,3.84,3.84,0,0,1-2,3.45A2.92,2.92,0,0,0,180,147v.1c0,3.13,0,6.27,0,9.41v53.89c0,3.14,0,6.28,0,9.41v.1a2.92,2.92,0,0,0,1.62,3.07,3.83,3.83,0,0,1,2,3.45,4.4,4.4,0,0,1-.2,1.34,4.22,4.22,0,0,1-4,2.93,4.35,4.35,0,0,1-4.24-4.31Z"/><path class="cls-8" d="M241.57,515.22a3.52,3.52,0,0,1,1.68-3.12,3.82,3.82,0,0,0,1.95-3.82V508c0-1.26,0-2.53,0-3.79,0-1.64,0-3.29,0-4.94,0-.85,0-2.57,0-2.57v-.3c0-.09,0-.18,0-.28h0c0-.74.16-.87.54-.89a.68.68,0,0,1,.54.12c.24.22.24.81.24,1.29V503s0,2.23,0,2.69,0,1.1,0,1.65v.59c0,1.65.16,3.24,2.19,4.52a3.11,3.11,0,0,1,1.42,2.74,4.58,4.58,0,0,1-1.43,3.27,4.21,4.21,0,0,1-6-.28A4.42,4.42,0,0,1,241.57,515.22Z"/><path class="cls-9" d="M23.47,454.66A4.48,4.48,0,0,1,22,458.17c-1.51,1.5-3,3-4.54,4.52-4.08,4.06-8.16,8.14-12.13,12.12L0,480.13v-1.87c6.54-6.57,12.19-12.22,17.4-17.41l3.44-3.42a4.11,4.11,0,0,0,1.31-3.17V447q0-22.92,0-45.82,0-26.15,0-52.29a4.31,4.31,0,0,0-1.44-3.33c-1.59-1.55-3.17-3.15-4.71-4.69-2.14-2.16-4.36-4.39-6.6-6.53A5.57,5.57,0,0,1,7.53,330c0-15.08,0-30.18,0-43v-202c0-11.85,0-25.34,0-38.79A5.56,5.56,0,0,1,9.4,41.71l.4-.39c2.1-2,4.19-4.12,6.21-6.15,1.53-1.54,3.12-3.14,4.7-4.69a4.29,4.29,0,0,0,1.44-3.32q0-11.92,0-23.85V0h1.31c0,1.1,0,2.21,0,3.31q0,12.15,0,24.32A4.2,4.2,0,0,1,22.12,31c-1.94,1.89-3.88,3.83-5.76,5.72s-3.83,3.84-5.78,5.73l-.07.07A5,5,0,0,0,8.9,46.41q0,18.3,0,36.71h0c0,3.21,0,6.42,0,9.63V226.57c0,33.78,0,68.72,0,103.08a5,5,0,0,0,1.61,3.93c2,1.91,4,3.89,5.85,5.81s3.82,3.83,5.76,5.71a4.21,4.21,0,0,1,1.34,3.34q0,26.1,0,52.19c0,15.19,0,30.22,0,44.8,0,0,0,0,0,0Q23.46,450.09,23.47,454.66Z"/><path class="cls-10" d="M126.3,410.83a4.27,4.27,0,0,1-1.17,2.93,4.21,4.21,0,0,1-6.18,0,4.38,4.38,0,0,1-1.18-2.95,3.6,3.6,0,0,1,1.68-3.1c1.77-1.13,1.91-2.48,1.91-4.12q0-23,0-45.92,0-14.41,0-28.82V282q0-46.93,0-93.88V188l0-.06a2,2,0,0,1-.06-.54c0-.24,0-.49,0-.73s0-.4,0-.58v-5.32c0-.19,0-.39,0-.59s0-.5,0-.73a2,2,0,0,1,.06-.54l0-.06v-.07q0-46.94,0-93.87V38.05q0-17.37,0-34.74h1.35c0,40.83,0,81.8,0,121.73v29.4q0,12.15,0,24.3v.08l0,.07a1.48,1.48,0,0,1,.07.52,7.27,7.27,0,0,1-.05.78c0,.15,0,.3,0,.44v5.6c0,.17,0,.32,0,.47a7,7,0,0,1,.05.78,1.48,1.48,0,0,1-.07.52l0,.07v.07q0,12.17,0,24.31v29.39c0,37.77,0,76.46,0,115.08q0,23.59,0,47.1a3.61,3.61,0,0,0,1.82,3.53A3.79,3.79,0,0,1,126.3,410.83Z"/><path class="cls-11" d="M151.48,342.3a1.06,1.06,0,0,1,.18-.72.8.8,0,0,1,.55-.15c.55,0,.72.19.72.79,0,.23,0,.47-.05.71a6,6,0,0,0-.06.69c0,7.33,0,13.95,0,20.23,0,6.89,0,13.26,0,19.48a5,5,0,0,0,1.6,3.93c1.87,1.82,3.74,3.69,5.55,5.51s3.92,3.93,5.91,5.86a4.67,4.67,0,0,1,1.53,3.69c0,7.71,0,15.52,0,23.07q0,10.19,0,20.37v.06c0,1.54.14,2.9,2,4.06a3.6,3.6,0,0,1,1.64,3.1,4.44,4.44,0,0,1-1.31,3.12,4.14,4.14,0,0,1-3.13,1.19,4.25,4.25,0,0,1-3-1.51,4.4,4.4,0,0,1-1-2.81h0a3.64,3.64,0,0,1,1.81-3.23,3.44,3.44,0,0,0,1.79-3.5q0-10.73,0-21.39c0-8,0-15.09,0-21.83h0a5.24,5.24,0,0,0-1.75-4.1c-1.79-1.74-3.59-3.54-5.32-5.29-1.9-1.91-3.85-3.88-5.82-5.77a4.77,4.77,0,0,1-1.64-3.77V384c0-2.61.05-5.46.05-9,0-1.84,0-3.67,0-5.51s0-3.57,0-5.36V354c0-4.17,0-7.37,0-10.36h0q0-.31,0-.66C151.5,342.74,151.48,342.51,151.48,342.3Z"/><path class="cls-12" d="M117.72,499.06a3.7,3.7,0,0,1,1.84-3.28,3.29,3.29,0,0,0,1.72-3.31q0-8.76,0-17.45c0-7.52,0-15.29,0-22.94a4.64,4.64,0,0,1,1.49-3.71c2.07-2,4.13-4.06,6.12-6.06,1.74-1.75,3.54-3.56,5.34-5.31a4.74,4.74,0,0,0,1.56-3.68v-.05c0-3.59,0-7.43,0-12.07,0-3.23,0-6.46,0-9.69v-4.86c0-.94.18-1.11.7-1.11a.72.72,0,0,1,.49.14,1.14,1.14,0,0,1,.16.74v.33c0,.12,0,.23,0,.33,0,2.42,0,4.81,0,7.2v7c0,1.15,0,2.31,0,3.46s0,2.31,0,3.46c0,2,0,3.64.07,5.14v.29a5.31,5.31,0,0,1-1.8,4.18c-2.21,2.11-4.4,4.31-6.52,6.44-1.56,1.58-3.17,3.2-4.79,4.77a4.54,4.54,0,0,0-1.47,3.52c0,6.28,0,12.9,0,20.27q0,9.94,0,19.89a2.83,2.83,0,0,0,1.59,3,3.77,3.77,0,0,1,2,3.46,4.61,4.61,0,0,1-.19,1.31,4.22,4.22,0,0,1-8,.05A4.33,4.33,0,0,1,117.72,499.06Z"/><path class="cls-13" d="M42.6,519.71a3.61,3.61,0,0,1,1.8-3.23c1.64-.92,1.77-2.13,1.77-3.5v-.06c0-7.32,0-14.56,0-20.67V460c0-5.7,0-13.22,0-20.77h0a6.48,6.48,0,0,0-.07-.85c0-.3-.06-.6-.06-.88,0-.76.26-.91.75-.92a.87.87,0,0,1,.62.15.94.94,0,0,1,.18.67,7,7,0,0,1-.08.88,6.2,6.2,0,0,0-.07.83c0,13,0,26.62,0,41.58q0,16.18,0,32.37c0,1.33.13,2.5,1.7,3.35a3.71,3.71,0,0,1,1.93,3.32,4.22,4.22,0,0,1-.27,1.49A4,4,0,0,1,46.92,524a4.16,4.16,0,0,1-4.08-2.89A4.42,4.42,0,0,1,42.6,519.71Z"/><path class="cls-14" d="M136.3,515.05a3.11,3.11,0,0,1,1.42-2.74c2-1.28,2.19-2.87,2.19-4.52v-.57c0-.57,0-1.12,0-1.67v-9c0-.5,0-1.1.24-1.32a.77.77,0,0,1,.54-.12c.38,0,.54.16.54.9,0,.09,0,.19,0,.28v.27c0,.89,0,1.74,0,2.59,0,1.65,0,3.29,0,4.93,0,1.4,0,2.65,0,3.81v.29a3.81,3.81,0,0,0,2,3.82,3.55,3.55,0,0,1,1.68,3.13,4.42,4.42,0,0,1-1.11,2.91,4.21,4.21,0,0,1-6,.28,4.58,4.58,0,0,1-1.43-3.27Z"/><path class="cls-15" d="M420,476.27v8.4a3.79,3.79,0,0,1-1.43-.34,4,4,0,0,1-2.48-3.72,4.77,4.77,0,0,1,.11-1,3.2,3.2,0,0,0,.08-.66,3.07,3.07,0,0,0-1.2-2.24l-.08-.08-6.37-6.37c-5.44-5.45-11.06-11.09-16.63-16.6a4.51,4.51,0,0,1-1.48-3.5h0c0-17.45,0-35.68,0-54.16q0-26,0-52.05a4.21,4.21,0,0,1,1.34-3.35c1.94-1.88,3.88-3.83,5.76-5.72s3.88-3.89,5.85-5.8a5,5,0,0,0,1.61-3.92c0-18.72,0-37.6,0-56.38V187.12c0-.11,0-.2,0-.29s0-.45,0-.45v-6.32a2.62,2.62,0,0,1,0-.28V140.64c0-24.08,0-48.69,0-73.21q0-12.87,0-25.69a5,5,0,0,0-1.61-3.93c-2-1.91-3.94-3.89-5.85-5.81s-3.82-3.83-5.76-5.71A4.21,4.21,0,0,1,390.52,23q0-9.83,0-19.64h1.31q0,9.58,0,19.16a4.32,4.32,0,0,0,1.45,3.33c1.58,1.55,3.16,3.14,4.7,4.69,2.14,2.16,4.36,4.39,6.6,6.53a5.54,5.54,0,0,1,1.87,4.42c0,8.39,0,16.8,0,24.83,0,6.37,0,12.49,0,18.16v29s0,12.78,0,27.72v90.6c0,13.48,0,24.27,0,24.27v26.42c0,12.82,0,27.95.05,43a5.56,5.56,0,0,1-1.87,4.45c-2.24,2.14-4.46,4.37-6.6,6.53-1.54,1.54-3.12,3.14-4.7,4.69a4.3,4.3,0,0,0-1.45,3.32q0,26.25,0,52.47,0,26.43,0,52.88a4.09,4.09,0,0,0,1.31,3.16c6.6,6.56,13.8,13.76,22.67,22.67a2.67,2.67,0,0,0,3.25.89A3.9,3.9,0,0,1,420,476.27Z"/><path class="cls-16" d="M415.73,347.08c1.43-1.42,2.84-2.84,4.27-4.27v1.83l-2.75,2.72a4.3,4.3,0,0,0-1.41,3.34c0,17.39,0,34.43,0,50.64q0,20.82,0,41.62a4.93,4.93,0,0,0,1.62,3.92c.85.81,1.7,1.63,2.53,2.46v1.88c-1.4-1.4-2.82-2.81-4.25-4.2a3.52,3.52,0,0,1-1.19-2.74q0-21.78,0-43.54c0-17.07,0-34.27,0-51.12A3.3,3.3,0,0,1,415.73,347.08Z"/><path class="cls-17" d="M420,22.25v1.83c-1.43-1.43-2.84-2.85-4.27-4.27a3.3,3.3,0,0,1-1.17-2.54q0-6.94,0-14h1.28c0,4.26,0,8.56,0,12.87a4.31,4.31,0,0,0,1.41,3.35Z"/><path class="cls-18" d="M290.79,410.88a4.35,4.35,0,0,1-1.19,3,4.22,4.22,0,0,1-6.18,0,4.3,4.3,0,0,1-1.16-2.93,3.79,3.79,0,0,1,1.79-3.28,3.62,3.62,0,0,0,1.82-3.52q0-26.46,0-52.81c0-32.59,0-65.22,0-98.28V212.15q0-12,0-24.1V188l0-.07a1.76,1.76,0,0,1-.07-.52,7,7,0,0,1,.06-.78c0-.15,0-.3,0-.45v-5.41c0-.17,0-.32,0-.47a7,7,0,0,1-.06-.78,1.76,1.76,0,0,1,.07-.52l0-.07v-.08q0-12,0-24.09V113.86c0-37.22,0-73.87,0-110.55h1.36q0,17.31,0,34.62V83.19q0,47.85,0,95.7V179l0,.06a2,2,0,0,1,.06.54c0,.23,0,.49,0,.73s0,.4,0,.58V186c0,.19,0,.38,0,.59s0,.49,0,.73a2,2,0,0,1-.06.54l0,.06V188q0,47.87,0,95.71V329q0,11.49,0,23,0,25.86,0,51.71c0,1.66.14,3,1.91,4.14A3.6,3.6,0,0,1,290.79,410.88Z"/><path class="cls-19" d="M235.37,24.49a1,1,0,0,1-.18.72.75.75,0,0,1-.55.16c-.55,0-.72-.19-.72-.8,0-.22,0-.47.05-.7a5.91,5.91,0,0,0,.05-.7c0-7.21,0-13.71,0-19.86h1.32v9.45c0,4.2,0,7.41,0,10.42,0,.21,0,.43,0,.65S235.37,24.28,235.37,24.49Z"/><path class="cls-20" d="M78.71,382.22a4.43,4.43,0,0,1-.21,1.35,4.17,4.17,0,0,1-4,2.93,4.05,4.05,0,0,1-4-2.81,4.22,4.22,0,0,1-.27-1.49,3.74,3.74,0,0,1,1.91-3.33,3.21,3.21,0,0,0,1.72-3.3v-.05q0-7.8,0-15.58c0-5.71,0-10.88,0-15.83v0a5,5,0,0,0-1.66-3.87c-4-4-8.06-8-12-12-4.62-4.62-9.4-9.39-14.12-14.07a4.71,4.71,0,0,1-1.51-3.69c0-13.15,0-26.1,0-37V229.23c0-11.48,0-23.83,0-36.38v-.1l0-.09a1.39,1.39,0,0,1-.09-.56,6.93,6.93,0,0,1,.07-.88c0-.21.05-.42.07-.6v-5.14c0-.21,0-.42-.07-.63a6.79,6.79,0,0,1-.07-.88,1.39,1.39,0,0,1,.09-.56l0-.09v-.09c0-12.56,0-24.91,0-36.38V102.62c0-10.93,0-23.88,0-37A4.73,4.73,0,0,1,46.1,61.9l3.78-3.74L60.23,47.82c3.92-3.92,8-8,12-12A5,5,0,0,0,73.86,32v0c0-4.94,0-10.12,0-15.83q0-6.4,0-12.82h1.29c0,3.62,0,7.23,0,10.85,0,6,0,12.27,0,18.41v0a4.7,4.7,0,0,1-1.5,3.67c-4.41,4.36-8.86,8.82-13.17,13.13-3.17,3.18-6.43,6.43-9.69,9.67l-3.25,3.23a5.22,5.22,0,0,0-1.67,4.1c0,14.82,0,30,0,45.41v14.64q0,28.39,0,56.8v.09l0,.09a1.31,1.31,0,0,1,.1.59c0,.27,0,.58-.07.88s-.06.49-.07.71v4.82c0,.23,0,.47.07.72s.07.61.07.89a1.33,1.33,0,0,1-.1.59l0,.08v.1q0,28.4,0,56.79c0,20.33,0,40.53,0,60.05a5.24,5.24,0,0,0,1.67,4.11c4.33,4.28,8.71,8.66,13,12.9s8.76,8.76,13.16,13.12a4.7,4.7,0,0,1,1.5,3.67v.05c0,6.13,0,12.37,0,18.4q0,6.72,0,13.44v.1c0,1.37.13,2.58,1.75,3.47A3.64,3.64,0,0,1,78.71,382.22Z"/><path class="cls-21" d="M152.93,24.66c0,.61-.17.8-.72.8a.75.75,0,0,1-.55-.16,1,1,0,0,1-.18-.72c0-.21,0-.43,0-.65s0-.45,0-.64c0-3,0-6.21,0-10.38V3.31h1.32c0,6.2,0,12.72,0,20a6,6,0,0,0,.06.7C152.9,24.2,152.93,24.44,152.93,24.66Z"/><path class="cls-22" d="M84.35,519.71a3.61,3.61,0,0,1,1.8-3.23c1.64-.92,1.77-2.13,1.77-3.5v-.06c0-7.32,0-14.56,0-20.67V460c0-5.7,0-13.22,0-20.77h0a6.48,6.48,0,0,0-.07-.85c0-.3-.06-.6-.06-.88,0-.76.26-.91.75-.92a.87.87,0,0,1,.62.15.94.94,0,0,1,.18.67,7,7,0,0,1-.08.88,6.2,6.2,0,0,0-.07.83c0,13,0,26.62,0,41.58q0,16.18,0,32.37c0,1.33.12,2.5,1.7,3.35a3.71,3.71,0,0,1,1.93,3.32,4.22,4.22,0,0,1-.27,1.49A4,4,0,0,1,88.67,524a4.16,4.16,0,0,1-4.08-2.89A4.42,4.42,0,0,1,84.35,519.71Z"/><path class="cls-23" d="M189.14,519.71a3.61,3.61,0,0,1,1.8-3.23c1.64-.92,1.77-2.13,1.77-3.5v-.06c0-7.32,0-14.56,0-20.67V460c0-5.7,0-13.22,0-20.77h0a6.48,6.48,0,0,0-.07-.85c0-.3-.06-.6-.06-.88,0-.76.26-.91.75-.92a.87.87,0,0,1,.62.15.94.94,0,0,1,.18.67,7,7,0,0,1-.08.88,6.2,6.2,0,0,0-.07.83c0,13,0,26.62,0,41.58q0,16.18,0,32.37c0,1.33.13,2.5,1.7,3.35a3.71,3.71,0,0,1,1.93,3.32,4.22,4.22,0,0,1-.27,1.49,4,4,0,0,1-3.91,2.84,4.16,4.16,0,0,1-4.08-2.89A4.42,4.42,0,0,1,189.14,519.71Z"/><path class="cls-24" d="M301.86,519.71a3.63,3.63,0,0,1,1.8-3.23c1.64-.92,1.78-2.13,1.78-3.5v-.06c0-7.32,0-14.56,0-20.67V460c0-5.7,0-13.22,0-20.77h0c0-.27,0-.55-.06-.85a6.79,6.79,0,0,1-.07-.88c0-.76.26-.91.75-.92a.84.84,0,0,1,.62.15.94.94,0,0,1,.18.67,7,7,0,0,1-.08.88c0,.29-.07.57-.07.83,0,13,0,26.62,0,41.58q0,16.18,0,32.37c0,1.33.13,2.5,1.7,3.35a3.71,3.71,0,0,1,1.93,3.32,4.22,4.22,0,0,1-.27,1.49,4,4,0,0,1-3.91,2.84,4.16,4.16,0,0,1-4.08-2.89A4.42,4.42,0,0,1,301.86,519.71Z"/><path class="cls-25" d="M92.35,226.33a3.83,3.83,0,0,1,2-3.45A2.93,2.93,0,0,0,96,219.81v-.1c0-3.15,0-6.31,0-9.46V156.64c0-3.15,0-6.31,0-9.46v-.1A2.93,2.93,0,0,0,94.35,144a3.84,3.84,0,0,1-2-3.45h0a4.73,4.73,0,0,1,.2-1.34,4.24,4.24,0,0,1,4-2.93,4,4,0,0,1,4,2.78,4.11,4.11,0,0,1,.29,1.53A3.72,3.72,0,0,1,99,143.9a3.24,3.24,0,0,0-1.71,3.29c0,6.12,0,12.6,0,21,0,3.73,0,15.23,0,15.23s0,11.5,0,15.24c0,8.42,0,14.89,0,21A3.26,3.26,0,0,0,99,223a3.72,3.72,0,0,1,1.88,3.29,4.35,4.35,0,0,1-4.24,4.32,4.24,4.24,0,0,1-4-2.93A4.73,4.73,0,0,1,92.35,226.33Z"/><path class="cls-26" d="M58.37,71.11c4.58,13.41-.65,28.47-12.45,40.71-.42.44-.85.88-1.29,1.3q-2.22,2.19-4.71,4.23a27.19,27.19,0,0,1,2,4.53c5.08,14.87-3.57,31.63-19.65,39.93A44.32,44.32,0,0,1,16,164.49a45.51,45.51,0,0,1-7.11,1.81l-1.35.21A43.2,43.2,0,0,1,0,166.9V0H51.34a34.55,34.55,0,0,1,3.11,3.31A30.89,30.89,0,0,1,59.89,13c4.74,13.91-1.06,29.58-13.78,42.06a36.7,36.7,0,0,1,3.77,3.09c.32.29.63.6.94.92A31.17,31.17,0,0,1,58.37,71.11Z"/><path class="cls-27" d="M22.48,162.29c4,11.8-1.86,25-13.55,32.69-.44.3-.89.58-1.35.86A39.56,39.56,0,0,1,0,199.37v-167a35.93,35.93,0,0,1,9.8,9c.27.36.53.72.78,1.1a32.58,32.58,0,0,1,4,7.91c3.77,11,1.31,22.91-5.63,32.79h0c-.43.62-.88,1.22-1.34,1.81a47.14,47.14,0,0,1-3.7,4.22C5.16,90,6.4,90.8,7.58,91.7c.46.34.91.7,1.35,1.06a43.37,43.37,0,0,1,13.94,19.75c4.65,13.62,2,28.24-6.09,40.66a23.48,23.48,0,0,1,5.52,8.64A4.68,4.68,0,0,1,22.48,162.29Z"/><path class="cls-28" d="M420,58.51V235.58a50,50,0,0,1-13.6-3.82q-.69-.3-1.35-.63a33.34,33.34,0,0,1-15.93-15.64c-6.24-13.31-2.19-29.53,9.09-43.32a32.73,32.73,0,0,1-13.95-14.6A32,32,0,0,1,381.47,141c1-10.71,6.71-21.85,16.07-31.39A27.73,27.73,0,0,1,395,105.3c-5.86-12.49-1.36-27.59,10-37.87.44-.4.89-.78,1.35-1.16a45.33,45.33,0,0,1,9.7-6.15C417.4,59.51,418.69,59,420,58.51Z"/><path class="cls-29" d="M420,151.43v129.3a44.59,44.59,0,0,1-13.6-10.36q-.69-.78-1.35-1.59c-8.23-10-12.88-23.68-12.76-38.46a33,33,0,0,1-28.35-8.81c-.45-.42-.88-.85-1.3-1.3-10.15-10.67-14.43-28-9.79-45.46a53.91,53.91,0,0,1,9.79-19.68c.42-.54.85-1.06,1.29-1.57A43.81,43.81,0,0,1,381.47,141a33.9,33.9,0,0,1,20.84-1.21c.93.25,1.85.54,2.74.87.46.15.91.33,1.35.52A34.41,34.41,0,0,1,420,151.43Z"/><path class="cls-30" d="M33.16,762S-9.38,696.67,53.1,668.48,134.85,707,179.48,704.65s42.69-48,91.14-24.9c59.19,28.19,75.63-75.16,117.91-51.2,44.9,25.44,40.41,127.78-34.76,125.9S33.16,762,33.16,762Z"/><path class="cls-31" d="M103,735.31a1.54,1.54,0,0,1-1.53-1.53v-81a1.53,1.53,0,0,1,3.06,0v81A1.54,1.54,0,0,1,103,735.31Z"/><path class="cls-32" d="M113.7,735.31a1.53,1.53,0,0,1-1.53-1.53V703l10.19-10.19a1.53,1.53,0,0,1,2.16,2.16l-9.3,9.29v29.55A1.53,1.53,0,0,1,113.7,735.31Z"/><path class="cls-33" d="M103.38,691.57A1.53,1.53,0,0,1,102.3,689l14.61-14.62a1.53,1.53,0,1,1,2.16,2.17l-14.61,14.61A1.52,1.52,0,0,1,103.38,691.57Z"/><path class="cls-34" d="M126.3,676.86h-9.93V666.4a1.53,1.53,0,0,1,3.06,0v7.4h6.87a1.53,1.53,0,0,1,0,3.06Z"/><path class="cls-35" d="M92.3,735.31a1.53,1.53,0,0,1-1.52-1.53V704.23l-9.3-9.29a1.53,1.53,0,0,1,2.16-2.16L93.83,703v30.81A1.53,1.53,0,0,1,92.3,735.31Z"/><path class="cls-36" d="M102.62,691.57a1.52,1.52,0,0,1-1.08-.45L86.93,676.51a1.53,1.53,0,1,1,2.16-2.17L103.7,689a1.53,1.53,0,0,1-1.08,2.61Z"/><path class="cls-37" d="M89.63,676.86H79.7a1.53,1.53,0,1,1,0-3.06h6.87v-7.4a1.53,1.53,0,0,1,3.06,0Z"/><path class="cls-38" d="M334.5,734.67a1,1,0,0,1-1-1V680.07a1,1,0,1,1,2,0v53.59A1,1,0,0,1,334.5,734.67Z"/><path class="cls-39" d="M341.58,734.67a1,1,0,0,1-1-1V713.27l6.74-6.74a1,1,0,0,1,1.43,1.43l-6.15,6.15v19.55A1,1,0,0,1,341.58,734.67Z"/><path class="cls-40" d="M334.75,705.73A1,1,0,0,1,334,704l9.67-9.67a1,1,0,0,1,1.43,0,1,1,0,0,1,0,1.43l-9.67,9.67A1,1,0,0,1,334.75,705.73Z"/><path class="cls-41" d="M349.92,696h-6.57v-6.92a1,1,0,1,1,2,0V694h4.55a1,1,0,1,1,0,2Z"/><path class="cls-42" d="M327.42,734.67a1,1,0,0,1-1-1V714.11L320.26,708a1,1,0,0,1,1.43-1.43l6.74,6.74v20.39A1,1,0,0,1,327.42,734.67Z"/><path class="cls-43" d="M334.25,705.73a1,1,0,0,1-.72-.3l-9.67-9.67a1,1,0,0,1,0-1.43,1,1,0,0,1,1.43,0L335,704a1,1,0,0,1-.71,1.73Z"/><path class="cls-44" d="M325.65,696h-6.57a1,1,0,1,1,0-2h4.55v-4.9a1,1,0,1,1,2,0Z"/><path class="cls-45" d="M18.34,740.83A49.22,49.22,0,0,1,18,746.7c0,.34-.09.69-.15,1A44.72,44.72,0,0,1,16.2,755c-.36,1.15-.76,2.26-1.21,3.35q-.24.61-.51,1.2c-.19.45-.4.88-.61,1.31a37.49,37.49,0,0,1-2.14,3.84h0c-.38.62-.79,1.22-1.21,1.81-.53.75-1.09,1.46-1.66,2.14a30.41,30.41,0,0,1-8.13,6.89L0,776V705.7a28.59,28.59,0,0,1,5.49,3.84h0l.94.88a36,36,0,0,1,7.31,10.13,41.48,41.48,0,0,1,2.83,7.38A46.78,46.78,0,0,1,18,735,49.22,49.22,0,0,1,18.34,740.83Z"/><path class="cls-46" d="M35.72,619.85a29.78,29.78,0,0,1,8-13.15c6.1-5.64,10.8-23,18.32-18.79s.47,18.32-9.4,23S35.72,631.6,35.72,631.6Z"/><path class="cls-47" d="M30.08,616.57s-1.41-6.11-5.63-9.87A57.23,57.23,0,0,1,14.58,595c-2.82-4.23-7.52-2.82-8.46.94s-.47,8,5.64,12.68,16.91,11.74,18.32,16Z"/><path class="cls-48" d="M31,673.41v-8s-.94,0-3.76-6.1-2.34-4.7-6.57-11.28-3.29-16.91-10.34-17.38-6.57,6.58-4.7,11.27,6.11,9.4,15,15.51C27.84,662.33,31,673.41,31,673.41Z"/><path class="cls-49" d="M35.25,673.88v-8s1.41-.37,4.23-7,2.35-4.23,4.23-12.69c1.81-8.14,1.41-16.91,10.8-18.79,6.93-1.38,7.52,7.08,5.64,12.22s-5.64,8.82-14.56,15.5C38.44,660.43,35.25,673.88,35.25,673.88Z"/><path class="cls-50" d="M35.72,581.33a69.29,69.29,0,0,1,5.64-8c2.82-3.29,6.11-12.69,10.33-11.75s2.82,8.46-1.88,13.62S35.72,594,35.72,594Z"/><path class="cls-51" d="M28.67,564.89s-9.86-14.09-16-10.34S15,567.91,19.28,571a87.82,87.82,0,0,1,9.39,8Z"/><path class="cls-52" d="M37.84,546.8l-2.4,151.51a2.77,2.77,0,0,1-5.54,0L27.5,546.8a5.17,5.17,0,1,1,10.34-.16Z"/><path class="cls-53" d="M420,614.31v22.45c-.54.31-1.08.6-1.64.87-4.26,2-8.08,5.84-11.2,9.86a74.3,74.3,0,0,0-5.7,8.6c-2,3.44-3.06,5.93-3.06,5.93V648.16a34.18,34.18,0,0,1,3.31-7.75,4.23,4.23,0,0,1,.24-.4,32,32,0,0,1,5.87-7.37C412.12,628.68,415.82,619.79,420,614.31Z"/><path class="cls-54" d="M397.72,637.63s-1.79-7.79-7.18-12.58a72.53,72.53,0,0,1-12.58-15c-3.59-5.39-9.58-3.59-10.78,1.2s-.6,10.18,7.19,16.17,21.56,15,23.35,20.36Z"/><path class="cls-55" d="M395.89,695.42V687s-1,0-4-6.44-2.48-4.95-6.94-11.89-3.46-17.84-10.9-18.34-6.94,6.94-4.95,11.9,6.44,9.91,15.85,16.35C392.53,683.73,395.89,695.42,395.89,695.42Z"/><path class="cls-56" d="M420,645.74v24.52c-1.12,1-2.37,2-3.76,3.1s-2.69,2.1-4.23,3.25c-6.32,4.72-9.9,15-11.18,19.33-.37,1.24-.55,2-.55,2v-9.06a1.88,1.88,0,0,0,.67-.53c.75-.78,2.13-2.72,4.13-7.47,3.2-7.57,2.66-4.79,4.79-14.39.72-3.25,1.14-6.59,1.84-9.64C412.84,651.83,414.74,647.59,420,645.74Z"/><path class="cls-57" d="M400.75,589.63a72.91,72.91,0,0,1,5.88-8.33c2.94-3.43,6.37-13.23,10.78-12.25s2.94,8.82-2,14.21-14.7,19.6-14.7,19.6Z"/><path class="cls-58" d="M393.23,579.05s-10.29-14.7-16.66-10.78,2.43,13.93,6.86,17.16a93.1,93.1,0,0,1,9.8,8.33Z"/><path class="cls-59" d="M403,559.24l-2.5,158.07a2.89,2.89,0,0,1-5.78,0l-2.5-158.07a5.39,5.39,0,0,1,10.78-.17Z"/><path class="cls-60" d="M364.58,767.84a56.36,56.36,0,0,1-.41,6.81c-.1.79-.21,1.57-.33,2.35H218.74a57.19,57.19,0,0,1-.74-9.16,53.93,53.93,0,0,1,.37-6.4,50.61,50.61,0,0,1,.89-5.42,47.67,47.67,0,0,1,11.54-22.6,33.34,33.34,0,0,1,20.4-10.71,44.94,44.94,0,0,1,3-4.39c7.67-9.8,19.11-16,31.89-16a38.69,38.69,0,0,1,8.52,1,42,42,0,0,1,26.72,20,30.24,30.24,0,0,1,5.05-.69c.5,0,1,0,1.52,0h.5a29.22,29.22,0,0,1,5.06.51c.68.13,1.35.28,2,.45a31.75,31.75,0,0,1,5.06,1.8c.68.31,1.36.65,2,1,7.18,3.88,13.16,10.52,17.05,18.83a49.79,49.79,0,0,1,2.47,6.31c.27.9.53,1.8.76,2.73A55,55,0,0,1,364.58,767.84Z"/><g class="cls-61"><path class="cls-62" d="M286.35,774.89a.94.94,0,0,1-.93-.94v-49.8a.94.94,0,1,1,1.87,0V774A.94.94,0,0,1,286.35,774.89Z"/><path class="cls-62" d="M292.93,774.89A.94.94,0,0,1,292,774V755l6.27-6.26a.94.94,0,0,1,1.33,1.32l-5.72,5.72V774A.94.94,0,0,1,292.93,774.89Z"/><path class="cls-62" d="M286.59,748a.94.94,0,0,1-.66-1.6l9-9a.94.94,0,0,1,1.33,1.33l-9,9A.93.93,0,0,1,286.59,748Z"/><path class="cls-62" d="M300.68,739h-6.1v-6.43a.94.94,0,0,1,1.88,0v4.55h4.22a.94.94,0,1,1,0,1.88Z"/><path class="cls-62" d="M279.78,774.89a.94.94,0,0,1-.94-.94V755.78l-5.72-5.72a.94.94,0,1,1,1.33-1.32l6.27,6.26v19A.94.94,0,0,1,279.78,774.89Z"/><path class="cls-62" d="M286.12,748a.93.93,0,0,1-.66-.27l-9-9a.94.94,0,0,1,1.33-1.33l9,9a.94.94,0,0,1-.66,1.6Z"/><path class="cls-62" d="M278.13,739H272a.94.94,0,0,1,0-1.88h4.22v-4.55a.94.94,0,1,1,1.88,0Z"/></g><path class="cls-63" d="M128.69,777H0V721.14a61.26,61.26,0,0,1,13.75-.59c.94.06,1.88.15,2.83.25L18,721l1.21.17a80.11,80.11,0,0,1,14.6,3.54q1-1.35,2-2.61A54.9,54.9,0,0,1,42,715.72a43.12,43.12,0,0,1,24.19-11,42.79,42.79,0,0,1,24.64,5.08c1,.55,2,1.13,3,1.76a56.47,56.47,0,0,1,7.64,5.69c1,.91,2.06,1.86,3.06,2.86a72,72,0,0,1,7.64,9.1q1.59,2.22,3,4.6c.72,1.17,1.42,2.36,2.08,3.59a93.49,93.49,0,0,1,8.38,21.32,103.26,103.26,0,0,1,2.77,15.38C128.54,775.1,128.62,776.06,128.69,777Z"/><g class="cls-61"><path class="cls-62" d="M72.13,729.32V777H70.25V729.32a.94.94,0,1,1,1.88,0Z"/><path class="cls-62" d="M84.42,755.23l-.34.34-4.76,4.77-.61.61v16H76.83V760.17l.06-.06,5.68-5.69.52-.52a1,1,0,0,1,1.33,0A.94.94,0,0,1,84.42,755.23Z"/><path class="cls-62" d="M71.42,753.16a.9.9,0,0,1-.66-.28.94.94,0,0,1,0-1.33l9-9a.92.92,0,0,1,1.32,0,.94.94,0,0,1,0,1.33l-9,9A.91.91,0,0,1,71.42,753.16Z"/><path class="cls-62" d="M85.52,744.11H79.41v-6.43a.94.94,0,0,1,1.88,0v4.56h4.23a.94.94,0,1,1,0,1.87Z"/><path class="cls-62" d="M65.55,760.17V777H63.67V761l-.06-.06-5.31-5.32-.34-.34a.94.94,0,0,1,0-1.33,1,1,0,0,1,1.33,0l.52.52Z"/><path class="cls-62" d="M71,753.16a.92.92,0,0,1-.67-.28l-9-9a.94.94,0,0,1,0-1.33.92.92,0,0,1,1.32,0l9,9a.94.94,0,0,1,0,1.33A.9.9,0,0,1,71,753.16Z"/><path class="cls-62" d="M63,744.11H56.86a.94.94,0,1,1,0-1.87h4.23v-4.56a.94.94,0,0,1,1.88,0Z"/></g><g class="cls-61"><path class="cls-62" d="M.72,744.82V777H0V743.91A.93.93,0,0,1,.72,744.82Z"/><path class="cls-62" d="M13.16,770.53a.7.7,0,0,1-.15.2l-.34.34L7.3,776.45V777H5.42v-1.33l6.26-6.26a.94.94,0,0,1,1.33,0A.91.91,0,0,1,13.16,770.53Z"/><path class="cls-62" d="M9.67,759.4l-.22.22L2.8,766.27.72,768.35l0,0a.93.93,0,0,1-.66.27H0v-2.25l8-8,.34-.34a.94.94,0,0,1,1.33,1.33Z"/><path class="cls-62" d="M14.11,759.62H8v-6.43a.94.94,0,1,1,1.88,0v4.55h4.23a.94.94,0,0,1,0,1.88Z"/><path class="cls-62" d="M.21,768.39a.62.62,0,0,1-.21.15v-1.69l.21.21A.94.94,0,0,1,.21,768.39Z"/></g><rect class="cls-64" y="678.8" width="16.58" height="68.6"/><rect class="cls-65" x="17.99" y="693.37" width="23.96" height="64.37"/><rect class="cls-66" x="44.77" y="717.33" width="12.68" height="27.73"/><rect class="cls-67" x="35.84" y="693.37" width="6.11" height="64.37"/><circle class="cls-68" cx="5.78" cy="683.5" r="0.47"/><circle class="cls-68" cx="5.78" cy="690.17" r="0.7"/><circle class="cls-68" cx="5.78" cy="696.84" r="0.94"/><circle class="cls-68" cx="5.78" cy="716.86" r="0.47"/><circle class="cls-68" cx="5.78" cy="710.19" r="0.7"/><circle class="cls-68" cx="5.78" cy="703.51" r="0.94"/><circle class="cls-68" cx="25.51" cy="700.41" r="0.47"/><circle class="cls-68" cx="25.51" cy="707.09" r="0.7"/><circle class="cls-68" cx="25.51" cy="713.76" r="0.94"/><circle class="cls-68" cx="25.51" cy="733.77" r="0.47"/><circle class="cls-68" cx="25.51" cy="727.1" r="0.7"/><circle class="cls-68" cx="25.51" cy="720.43" r="0.94"/><path class="cls-69" d="M77.06,762.91A24.09,24.09,0,0,1,72.48,777H33.72a23.7,23.7,0,0,1-4.44-11.51,24.48,24.48,0,0,1-.14-2.58,23.58,23.58,0,0,1,.44-4.56,4.13,4.13,0,0,1,.13-.61c.08-.42.18-.83.3-1.24a24,24,0,0,1,14.76-16.06,24,24,0,0,1,12.68-1.09,22.16,22.16,0,0,1,3.64,1c.64.22,1.27.47,1.88.75a23.77,23.77,0,0,1,7.28,5.11,22.84,22.84,0,0,1,1.88,2.17l.3.4c.16.21.32.43.47.66.36.53.71,1.08,1,1.64a23.57,23.57,0,0,1,3,9.06c0,.1,0,.2,0,.31Q77.06,761.65,77.06,762.91Z"/><path class="cls-70" d="M368.54,777H6.36c.31-.18.62-.34.94-.51,2.89-1.58,5.82-3.11,8.76-4.6q6.54-3.33,13.22-6.4c1.2-.56,2.4-1.1,3.6-1.63,1.51-.69,3-1.35,4.54-2q8.4-3.65,17-6.88l3-1.11a.59.59,0,0,1,.14-.06l2.94-1q3.55-1.28,7.14-2.47l2-.66.55-.18,1.88-.6.3-.1,1.65-.52h0c1.27-.4,2.54-.8,3.82-1.17,2.37-.72,4.74-1.42,7.13-2.08l1.92-.54,3.21-.86,1.92-.51q12.43-3.23,25.2-5.62a382.75,382.75,0,0,1,113.51-4l2.21.25q16.52,2,32.59,5.37c.88.18,1.75.36,2.62.56q.6.12,1.2.27l2.54.56.1,0c2.7.62,5.39,1.26,8.07,1.94,1.2.29,2.38.59,3.56.91h0l1.72.46c.63.16,1.25.32,1.87.5l.6.16h0c.69.19,1.37.38,2.06.59,1.08.28,2.15.59,3.22.9,1.25.36,2.5.73,3.75,1.12.67.19,1.34.4,2,.61l2.77.86,2,.64q7.44,2.4,14.74,5.09l2.44.91q11,4.15,21.71,9,2.29,1,4.58,2.1,3.17,1.47,6.3,3,2.56,1.24,5.1,2.54c1.87.94,3.73,1.91,5.58,2.89Q366.36,775.81,368.54,777Z"/><path class="cls-71" d="M368.54,777H189.45q14.07-8.38,28.92-15.56,6.12-3,12.37-5.71a373.25,373.25,0,0,1,37.42-14.11c1.27-.41,2.53-.8,3.8-1.19l.1,0c2.7.62,5.39,1.26,8.07,1.94,1.2.29,2.38.59,3.56.91h0l1.72.46c.63.16,1.25.32,1.87.5l.6.16h0c.69.19,1.37.38,2.06.59,1.08.28,2.15.59,3.22.9,1.25.36,2.5.73,3.75,1.12.67.19,1.34.4,2,.61l2.77.86,2,.64q7.44,2.4,14.74,5.09l2.44.91q11,4.15,21.71,9,2.29,1,4.58,2.1,3.17,1.47,6.3,3,2.56,1.24,5.1,2.54c1.87.94,3.73,1.91,5.58,2.89Q366.36,775.81,368.54,777Z"/><path class="cls-72" d="M36.52,777H0V742.72c.53,0,1.07,0,1.59.08s1.33.1,2,.18a37.1,37.1,0,0,1,13,4c.43.22.85.46,1.26.7l.15.08a37.6,37.6,0,0,1,11.15,9.93c.15.2.3.4.44.61a36,36,0,0,1,3.3,5.51A37.26,37.26,0,0,1,36.52,777Z"/><path class="cls-73" d="M25.86,777H0V765.27l.72.25.13,0,1.95.71c2,.76,4.06,1.55,6.05,2.39l2,.86.48.21,1.8.8,1.64.76,1.26.6Q21.06,774.28,25.86,777Z"/><path class="cls-74" d="M381.39,777H310.65a61.66,61.66,0,0,1,5.64-14.83,49.3,49.3,0,0,1,4.61-7c.23-.31.48-.62.73-.92,6.54-7.91,15.06-12.7,24.39-12.7a28.08,28.08,0,0,1,13.62,3.59,32.38,32.38,0,0,1,3.76,2.42,38.59,38.59,0,0,1,6.12,5.65A56,56,0,0,1,381.39,777Z"/><path class="cls-75" d="M420,717.43V777H358.47v-.7c0-1.53,0-3,.12-4.54.14-2.89.43-5.71.84-8.48a80.54,80.54,0,0,1,1.86-9c.25-1,.52-1.92.82-2.86.39-1.32.83-2.62,1.29-3.89,6.17-16.87,17.6-29.35,31.26-33.19a32.52,32.52,0,0,1,5.89-1.09c1-.09,2-.14,3-.14a32.66,32.66,0,0,1,9.31,1.35A36.12,36.12,0,0,1,420,717.43Z"/><path class="cls-62" d="M404.51,725.79c.41,4.27.63,8.54.78,12.8s.2,8.54.22,12.81-.06,8.53-.22,12.8-.36,8.53-.78,12.8c-.42-4.27-.63-8.53-.78-12.8s-.2-8.54-.22-12.8.06-8.54.22-12.81S404.1,730.06,404.51,725.79Z"/><path class="cls-62" d="M420,736.91c-2.3,2.86-4.73,5.59-7.21,8.28-1.23,1.35-2.49,2.67-3.75,4s-2.55,2.61-3.83,3.92l-.7.73-.72-.74c-2.75-2.87-5.45-5.77-8.08-8.74-1.32-1.48-2.62-3-3.9-4.51s-2.55-3.06-3.75-4.65c1.54,1.27,3,2.62,4.48,3.95s2.9,2.72,4.32,4.1c2.85,2.77,5.63,5.6,8.37,8.47h-1.42c1.31-1.28,2.59-2.58,3.92-3.83s2.64-2.52,4-3.75C414.41,741.64,417.14,739.21,420,736.91Z"/><path class="cls-62" d="M420,753.36c-2.3,2.86-4.73,5.59-7.21,8.28-1.23,1.35-2.49,2.67-3.75,4s-2.55,2.61-3.83,3.92l-.71.73-.71-.75c-2.75-2.86-5.45-5.76-8.08-8.74-1.32-1.48-2.62-3-3.9-4.51s-2.55-3-3.75-4.65c1.54,1.27,3,2.62,4.48,4s2.9,2.71,4.32,4.1c2.85,2.76,5.63,5.6,8.37,8.47h-1.42c1.31-1.28,2.59-2.58,3.92-3.83s2.64-2.52,4-3.75C414.41,758.09,417.14,755.66,420,753.36Z"/><path class="cls-62" d="M396.59,777a14.16,14.16,0,0,1-2.7-1.69,21.59,21.59,0,0,1-2.29-2.08,23.79,23.79,0,0,1-2-2.38,14.15,14.15,0,0,1-1.56-2.78,13,13,0,0,1,2.7,1.69,21.51,21.51,0,0,1,4.26,4.47A13.35,13.35,0,0,1,396.59,777Z"/><path class="cls-62" d="M420,769.8a9.74,9.74,0,0,1-1.25,2.35,14.08,14.08,0,0,1-1.64,2,15.46,15.46,0,0,1-1.95,1.65A9.79,9.79,0,0,1,412.8,777a9.79,9.79,0,0,1,1.24-2.36,15.46,15.46,0,0,1,1.65-1.95,14.08,14.08,0,0,1,2-1.64A9.74,9.74,0,0,1,420,769.8Z"/><path class="cls-62" d="M347.19,777a45.4,45.4,0,0,1-.78-5.87c-.14-2-.22-3.92-.22-5.87s.07-3.92.22-5.88a43.72,43.72,0,0,1,.78-5.87,43.72,43.72,0,0,1,.78,5.87c.15,2,.23,3.92.22,5.88s-.08,3.91-.22,5.87A45.4,45.4,0,0,1,347.19,777Z"/><path class="cls-62" d="M333.59,761.28c1.3,1,2.53,2.13,3.76,3.22s2.43,2.22,3.61,3.36c2.38,2.26,4.68,4.61,7,7h-1.42c2.27-2.25,4.55-4.47,6.92-6.61s4.77-4.26,7.31-6.22c-2,2.55-4.06,5-6.21,7.31s-4.37,4.66-6.61,6.93l-.72.73-.71-.75c-2.26-2.38-4.49-4.78-6.64-7.27-1.09-1.23-2.15-2.49-3.19-3.76S334.56,762.62,333.59,761.28Z"/><path class="cls-62" d="M335.61,777a2.14,2.14,0,0,1-1.07,0,1.31,1.31,0,0,1-.66-.38,1.38,1.38,0,0,1-.35-.68.78.78,0,0,1,1.13-1.08,1.27,1.27,0,0,1,.66.38,1.38,1.38,0,0,1,.35.68A2.13,2.13,0,0,1,335.61,777Z"/><path class="cls-62" d="M360.72,775.59a1.94,1.94,0,0,1,.2.91.72.72,0,0,1-.2.5.7.7,0,0,1-.5.2.86.86,0,0,1-1.11-1.11.7.7,0,0,1,.2-.5.72.72,0,0,1,.5-.2A1.94,1.94,0,0,1,360.72,775.59Z"/><path class="cls-76" d="M346.36,777h-74a51.73,51.73,0,0,1,6.45-5.46c.61-.45,1.24-.88,1.88-1.29a48.81,48.81,0,0,1,4.7-2.74c.62-.32,1.24-.63,1.87-.92q2.29-1.07,4.7-1.91c.62-.23,1.25-.43,1.88-.63a52.42,52.42,0,0,1,52.49,13Z"/><rect class="cls-77" x="320.02" y="443.13" width="51.95" height="43.75" rx="8.3"/><rect class="cls-78" x="310.56" y="433.83" width="53.95" height="45.75" rx="9.3"/><path class="cls-68" d="M355.21,434.83a8.31,8.31,0,0,1,8.3,8.3v27.14a8.31,8.31,0,0,1-8.3,8.31H319.87a8.31,8.31,0,0,1-8.31-8.31V443.13a8.31,8.31,0,0,1,8.31-8.3h35.34m0-2H319.87a10.31,10.31,0,0,0-10.31,10.3v27.14a10.32,10.32,0,0,0,10.31,10.31h35.34a10.32,10.32,0,0,0,10.3-10.31V443.13a10.31,10.31,0,0,0-10.3-10.3Z"/><path class="cls-68" d="M321.81,468.55a.91.91,0,0,1-.75-1.42l5.46-8.2a.93.93,0,0,1,1.17-.31l4.65,2.33,5.06-10.12a.92.92,0,0,1,.59-.48.93.93,0,0,1,.74.13l7.3,4.87,4.42-10a.91.91,0,0,1,1.2-.47.93.93,0,0,1,.47,1.21l-4.86,10.93a.94.94,0,0,1-.58.51.92.92,0,0,1-.76-.12l-7.35-4.89-5,10a.93.93,0,0,1-1.23.41l-4.74-2.38-5,7.54A.9.9,0,0,1,321.81,468.55Z"/><circle class="cls-68" cx="351.44" cy="445.16" r="2.73"/><path class="cls-68" d="M330.47,446.37h-8.2a.91.91,0,0,1,0-1.82h8.2a.91.91,0,0,1,0,1.82Z"/><path class="cls-68" d="M352.35,471H325a.91.91,0,0,1,0-1.82h27.35a.91.91,0,0,1,0,1.82Z"/><path class="cls-68" d="M326.83,450.63h-3.65a.92.92,0,0,1,0-1.83h3.65a.92.92,0,0,1,0,1.83Z"/></g></g></svg>