<svg xmlns="http://www.w3.org/2000/svg" xmlns:xlink="http://www.w3.org/1999/xlink" viewBox="0 0 1866 1081"><defs><style>.cls-1{fill:url(#linear-gradient);}.cls-2{fill:url(#linear-gradient-2);}.cls-3{fill:url(#linear-gradient-3);}.cls-4{fill:url(#linear-gradient-4);}.cls-5{fill:url(#linear-gradient-5);}.cls-6{fill:url(#linear-gradient-6);}.cls-7{fill:url(#linear-gradient-7);}.cls-8{fill:url(#linear-gradient-8);}.cls-9{fill:url(#linear-gradient-9);}.cls-10{fill:url(#linear-gradient-10);}.cls-11{fill:url(#linear-gradient-11);}.cls-12{fill:url(#linear-gradient-12);}.cls-13{fill:url(#linear-gradient-13);}.cls-14{fill:url(#linear-gradient-14);}.cls-15{fill:url(#linear-gradient-15);}.cls-16{fill:url(#linear-gradient-16);}.cls-17{fill:url(#linear-gradient-17);}.cls-18{fill:url(#linear-gradient-18);}.cls-19{fill:url(#linear-gradient-19);}.cls-20{fill:url(#linear-gradient-20);}.cls-21{fill:url(#linear-gradient-21);}.cls-22{fill:url(#linear-gradient-22);}.cls-23{fill:url(#linear-gradient-23);}.cls-24{fill:url(#linear-gradient-24);}.cls-25{fill:url(#linear-gradient-25);}.cls-26{fill:url(#linear-gradient-26);}.cls-27{fill:url(#linear-gradient-27);}.cls-28{fill:url(#linear-gradient-28);}.cls-29{fill:url(#linear-gradient-29);}.cls-30{fill:url(#linear-gradient-30);}.cls-31{fill:url(#linear-gradient-31);}.cls-32{fill:url(#linear-gradient-32);}.cls-33{fill:url(#linear-gradient-33);}.cls-34{fill:url(#linear-gradient-34);}.cls-35{fill:url(#linear-gradient-35);}.cls-36{fill:url(#linear-gradient-36);}.cls-37{fill:url(#linear-gradient-37);}.cls-38{fill:url(#linear-gradient-38);}.cls-39{fill:url(#linear-gradient-39);}.cls-40{fill:url(#linear-gradient-40);}.cls-41{fill:url(#linear-gradient-41);}.cls-42{fill:url(#linear-gradient-42);}.cls-43{fill:url(#linear-gradient-43);}.cls-44{fill:url(#linear-gradient-44);}.cls-45{fill:url(#linear-gradient-45);}.cls-46{fill:url(#linear-gradient-46);}.cls-47{fill:url(#linear-gradient-47);}.cls-48{fill:url(#linear-gradient-48);}.cls-49{fill:url(#linear-gradient-49);}.cls-50{fill:url(#linear-gradient-50);}.cls-51{fill:url(#linear-gradient-51);}.cls-52{fill:url(#linear-gradient-52);}.cls-53{fill:url(#linear-gradient-53);}.cls-54{fill:url(#linear-gradient-54);}.cls-55{fill:url(#linear-gradient-55);}.cls-56{fill:url(#linear-gradient-56);}.cls-57{fill:url(#linear-gradient-57);}.cls-58{fill:url(#linear-gradient-58);}.cls-59{fill:url(#linear-gradient-59);}.cls-60{fill:url(#linear-gradient-60);}.cls-61{fill:url(#linear-gradient-61);}.cls-62{fill:url(#linear-gradient-62);}.cls-63{fill:url(#linear-gradient-63);}.cls-64{fill:url(#linear-gradient-64);}.cls-65{fill:url(#linear-gradient-65);}.cls-66{fill:url(#linear-gradient-66);}.cls-67{fill:url(#linear-gradient-67);}.cls-68{opacity:0.35;}.cls-69{fill:#bce9fe;}.cls-70{fill:url(#linear-gradient-68);}.cls-71{fill:url(#linear-gradient-69);}.cls-72{fill:url(#linear-gradient-70);}.cls-73{fill:url(#linear-gradient-71);}.cls-74{fill:url(#linear-gradient-72);}.cls-75{fill:#1c81d1;}.cls-76{fill:#2181d5;}.cls-77{fill:#fff;}.cls-78{fill:url(#linear-gradient-73);}.cls-79{fill:url(#linear-gradient-74);}.cls-80{fill:url(#linear-gradient-75);}.cls-81{fill:url(#linear-gradient-76);}.cls-82{fill:url(#linear-gradient-77);}.cls-83{fill:url(#linear-gradient-78);}.cls-84{fill:url(#linear-gradient-79);}.cls-85{fill:url(#linear-gradient-80);}.cls-86{fill:url(#linear-gradient-81);}.cls-87{fill:url(#linear-gradient-82);}</style><linearGradient id="linear-gradient" x1="1218.27" y1="259.3" x2="1620.71" y2="1016.43" gradientUnits="userSpaceOnUse"><stop offset="0" stop-color="#c4eafd"/><stop offset="1" stop-color="#fff"/></linearGradient><linearGradient id="linear-gradient-2" x1="71.36" y1="189.51" x2="1854.61" y2="189.51" gradientUnits="userSpaceOnUse"><stop offset="0" stop-color="#fff" stop-opacity="0.05"/><stop offset="1" stop-color="#fff" stop-opacity="0.2"/></linearGradient><linearGradient id="linear-gradient-3" x1="79.32" y1="479.8" x2="1853.54" y2="479.8" xlink:href="#linear-gradient-2"/><linearGradient id="linear-gradient-4" x1="82.21" y1="382.95" x2="1854.1" y2="382.95" xlink:href="#linear-gradient-2"/><linearGradient id="linear-gradient-5" x1="84.18" y1="158.19" x2="1854.28" y2="158.19" xlink:href="#linear-gradient-2"/><linearGradient id="linear-gradient-6" x1="76.98" y1="264.24" x2="1848.32" y2="264.24" xlink:href="#linear-gradient-2"/><linearGradient id="linear-gradient-7" x1="76.98" y1="590.5" x2="1848.32" y2="590.5" xlink:href="#linear-gradient-2"/><linearGradient id="linear-gradient-8" x1="123.24" y1="431.43" x2="1851" y2="431.43" xlink:href="#linear-gradient-2"/><linearGradient id="linear-gradient-9" x1="81.74" y1="1004.25" x2="1866.29" y2="1004.25" xlink:href="#linear-gradient-2"/><linearGradient id="linear-gradient-10" x1="81.84" y1="1057.04" x2="1866.18" y2="1057.04" xlink:href="#linear-gradient-2"/><linearGradient id="linear-gradient-11" x1="71.11" y1="727.71" x2="1854.9" y2="727.71" xlink:href="#linear-gradient-2"/><linearGradient id="linear-gradient-12" x1="79.32" y1="633.97" x2="1853.54" y2="633.97" xlink:href="#linear-gradient-2"/><linearGradient id="linear-gradient-13" x1="82.21" y1="714.83" x2="1854.09" y2="714.83" xlink:href="#linear-gradient-2"/><linearGradient id="linear-gradient-14" x1="95.17" y1="907.63" x2="1865.27" y2="907.63" xlink:href="#linear-gradient-2"/><linearGradient id="linear-gradient-15" x1="123.23" y1="683.33" x2="1850.99" y2="683.33" xlink:href="#linear-gradient-2"/><linearGradient id="linear-gradient-16" x1="70.75" y1="44.58" x2="1855.3" y2="44.58" xlink:href="#linear-gradient-2"/><linearGradient id="linear-gradient-17" x1="209.18" y1="13.86" x2="606.21" y2="13.86" xlink:href="#linear-gradient-2"/><linearGradient id="linear-gradient-18" x1="1241.45" y1="13.86" x2="1638.48" y2="13.86" xlink:href="#linear-gradient-2"/><linearGradient id="linear-gradient-19" x1="71.11" y1="334.11" x2="1854.9" y2="334.11" xlink:href="#linear-gradient-2"/><linearGradient id="linear-gradient-20" x1="71.93" y1="479.8" x2="1846.14" y2="479.8" xlink:href="#linear-gradient-2"/><linearGradient id="linear-gradient-21" x1="71.24" y1="382.95" x2="1843.11" y2="382.95" xlink:href="#linear-gradient-2"/><linearGradient id="linear-gradient-22" x1="70.95" y1="158.19" x2="1841.06" y2="158.19" xlink:href="#linear-gradient-2"/><linearGradient id="linear-gradient-23" x1="71.84" y1="431.43" x2="1799.57" y2="431.43" xlink:href="#linear-gradient-2"/><linearGradient id="linear-gradient-24" x1="82.35" y1="872.31" x2="1865.6" y2="872.31" xlink:href="#linear-gradient-2"/><linearGradient id="linear-gradient-25" x1="71.93" y1="633.97" x2="1846.14" y2="633.97" xlink:href="#linear-gradient-2"/><linearGradient id="linear-gradient-26" x1="71.24" y1="714.83" x2="1843.11" y2="714.83" xlink:href="#linear-gradient-2"/><linearGradient id="linear-gradient-27" x1="81.94" y1="907.63" x2="1852.05" y2="907.63" xlink:href="#linear-gradient-2"/><linearGradient id="linear-gradient-28" x1="95.17" y1="807.73" x2="1865.27" y2="807.73" xlink:href="#linear-gradient-2"/><linearGradient id="linear-gradient-29" x1="81.94" y1="807.73" x2="1852.05" y2="807.73" xlink:href="#linear-gradient-2"/><linearGradient id="linear-gradient-30" x1="95.17" y1="556.97" x2="1865.27" y2="556.97" xlink:href="#linear-gradient-2"/><linearGradient id="linear-gradient-31" x1="81.94" y1="556.97" x2="1852.05" y2="556.97" xlink:href="#linear-gradient-2"/><linearGradient id="linear-gradient-32" x1="95.17" y1="287.23" x2="1865.27" y2="287.23" xlink:href="#linear-gradient-2"/><linearGradient id="linear-gradient-33" x1="81.94" y1="287.23" x2="1852.05" y2="287.23" xlink:href="#linear-gradient-2"/><linearGradient id="linear-gradient-34" x1="76.99" y1="788.59" x2="1848.31" y2="788.59" xlink:href="#linear-gradient-2"/><linearGradient id="linear-gradient-35" x1="71.85" y1="683.33" x2="1799.58" y2="683.33" xlink:href="#linear-gradient-2"/><linearGradient id="linear-gradient-36" x1="1170.38" y1="447.86" x2="1170.38" y2="321.94" xlink:href="#linear-gradient"/><linearGradient id="linear-gradient-37" x1="1375.43" y1="850.92" x2="1375.43" y2="1034.7" gradientUnits="userSpaceOnUse"><stop offset="0" stop-color="#fff"/><stop offset="1" stop-color="#c4eafd"/></linearGradient><linearGradient id="linear-gradient-38" x1="1155.5" y1="818.53" x2="1155.5" y2="1011.57" gradientUnits="userSpaceOnUse"><stop offset="0" stop-color="#2696ff"/><stop offset="1" stop-color="#196eb0"/></linearGradient><linearGradient id="linear-gradient-39" x1="1187.02" y1="818.53" x2="1187.02" y2="1011.57" xlink:href="#linear-gradient-38"/><linearGradient id="linear-gradient-40" x1="1171.07" y1="818.53" x2="1171.07" y2="1011.57" xlink:href="#linear-gradient-38"/><linearGradient id="linear-gradient-41" x1="1194.17" y1="818.53" x2="1194.17" y2="1011.57" xlink:href="#linear-gradient-38"/><linearGradient id="linear-gradient-42" x1="1123.98" y1="818.53" x2="1123.98" y2="1011.57" xlink:href="#linear-gradient-38"/><linearGradient id="linear-gradient-43" x1="1139.93" y1="818.53" x2="1139.93" y2="1011.57" xlink:href="#linear-gradient-38"/><linearGradient id="linear-gradient-44" x1="1116.83" y1="818.53" x2="1116.83" y2="1011.57" xlink:href="#linear-gradient-38"/><linearGradient id="linear-gradient-45" x1="1651.67" y1="887.27" x2="1651.67" y2="1001.32" xlink:href="#linear-gradient-38"/><linearGradient id="linear-gradient-46" x1="1670.29" y1="887.27" x2="1670.29" y2="1001.32" xlink:href="#linear-gradient-38"/><linearGradient id="linear-gradient-47" x1="1660.87" y1="887.27" x2="1660.87" y2="1001.32" xlink:href="#linear-gradient-38"/><linearGradient id="linear-gradient-48" x1="1674.52" y1="887.27" x2="1674.52" y2="1001.32" xlink:href="#linear-gradient-38"/><linearGradient id="linear-gradient-49" x1="1633.05" y1="887.27" x2="1633.05" y2="1001.32" xlink:href="#linear-gradient-38"/><linearGradient id="linear-gradient-50" x1="1642.47" y1="887.27" x2="1642.47" y2="1001.32" xlink:href="#linear-gradient-38"/><linearGradient id="linear-gradient-51" x1="1628.82" y1="887.27" x2="1628.82" y2="1001.32" xlink:href="#linear-gradient-38"/><linearGradient id="linear-gradient-52" x1="844.93" y1="956.24" x2="844.93" y2="1059.13" xlink:href="#linear-gradient"/><linearGradient id="linear-gradient-53" x1="1012.7" y1="727.36" x2="961.16" y2="800.49" xlink:href="#linear-gradient-38"/><linearGradient id="linear-gradient-54" x1="950.11" y1="717.76" x2="1035.37" y2="800.37" xlink:href="#linear-gradient-38"/><linearGradient id="linear-gradient-55" x1="948.42" y1="805.56" x2="1013.98" y2="894.24" xlink:href="#linear-gradient-38"/><linearGradient id="linear-gradient-56" x1="1016.56" y1="798.65" x2="972.98" y2="893" xlink:href="#linear-gradient-38"/><linearGradient id="linear-gradient-57" x1="1005.02" y1="652.79" x2="921.85" y2="735.96" xlink:href="#linear-gradient-38"/><linearGradient id="linear-gradient-58" x1="955.21" y1="627.55" x2="1012.81" y2="681.61" xlink:href="#linear-gradient-38"/><linearGradient id="linear-gradient-59" x1="980.5" y1="801.95" x2="980.5" y2="1097.06" xlink:href="#linear-gradient-38"/><linearGradient id="linear-gradient-60" x1="1789.33" y1="784.34" x2="1728.51" y2="870.65" xlink:href="#linear-gradient-38"/><linearGradient id="linear-gradient-61" x1="1725.83" y1="756.89" x2="1834.51" y2="862.19" xlink:href="#linear-gradient-38"/><linearGradient id="linear-gradient-62" x1="1723.51" y1="849.45" x2="1792.66" y2="942.99" xlink:href="#linear-gradient-38"/><linearGradient id="linear-gradient-63" x1="1797.68" y1="841.51" x2="1748.23" y2="948.58" xlink:href="#linear-gradient-38"/><linearGradient id="linear-gradient-64" x1="1782.8" y1="669.99" x2="1696.03" y2="756.76" xlink:href="#linear-gradient-38"/><linearGradient id="linear-gradient-65" x1="1730.49" y1="657.65" x2="1790.58" y2="714.06" xlink:href="#linear-gradient-38"/><linearGradient id="linear-gradient-66" x1="1757.3" y1="837.61" x2="1757.3" y2="1145.5" xlink:href="#linear-gradient-38"/><linearGradient id="linear-gradient-67" x1="1531" y1="938.47" x2="1531" y2="1127.92" gradientUnits="userSpaceOnUse"><stop offset="0" stop-color="#36adf7"/><stop offset="1" stop-color="#0d76a5"/></linearGradient><linearGradient id="linear-gradient-68" x1="1008.09" y1="943.76" x2="1008.09" y2="1117.41" xlink:href="#linear-gradient-67"/><linearGradient id="linear-gradient-69" x1="104.57" y1="831.39" x2="109.26" y2="974.73" xlink:href="#linear-gradient"/><linearGradient id="linear-gradient-70" x1="137.46" y1="991.52" x2="135.1" y2="1036.36" xlink:href="#linear-gradient"/><linearGradient id="linear-gradient-71" x1="927.26" y1="871.75" x2="927.26" y2="1016.52" gradientUnits="userSpaceOnUse"><stop offset="0" stop-color="#399fe1"/><stop offset="1" stop-color="#1e7dcf"/></linearGradient><linearGradient id="linear-gradient-72" x1="974.76" y1="902.3" x2="974.76" y2="1038.36" xlink:href="#linear-gradient-71"/><linearGradient id="linear-gradient-73" x1="1024" y1="1067.73" x2="1024" y2="999.04" xlink:href="#linear-gradient-38"/><linearGradient id="linear-gradient-74" x1="1166.08" y1="927.63" x2="1335.32" y2="1106.82" xlink:href="#linear-gradient-38"/><linearGradient id="linear-gradient-75" x1="1372.89" y1="1033.24" x2="1482.06" y2="1061.8" xlink:href="#linear-gradient-38"/><linearGradient id="linear-gradient-76" x1="909" y1="1011.93" x2="909" y2="1075.59" xlink:href="#linear-gradient-38"/><linearGradient id="linear-gradient-77" x1="630.97" y1="1058" x2="966.03" y2="1058" xlink:href="#linear-gradient-38"/><linearGradient id="linear-gradient-78" x1="1647.5" y1="984.2" x2="1647.5" y2="1026.6" xlink:href="#linear-gradient-38"/><linearGradient id="linear-gradient-79" x1="1770" y1="944.34" x2="1770" y2="1007.57" xlink:href="#linear-gradient-38"/><linearGradient id="linear-gradient-80" x1="1568.08" y1="1070.03" x2="1565.81" y2="1054.15" xlink:href="#linear-gradient-38"/><linearGradient id="linear-gradient-81" x1="1649.4" y1="499.06" x2="1764.11" y2="499.06" xlink:href="#linear-gradient-71"/><linearGradient id="linear-gradient-82" x1="1629.32" y1="479.98" x2="1748.04" y2="479.98" xlink:href="#linear-gradient-71"/></defs><g id="Layer_2" data-name="Layer 2"><g id="Layer_2-2" data-name="Layer 2"><ellipse class="cls-1" cx="1396.97" cy="595.5" rx="403.5" ry="413.5"/><path class="cls-2" d="M1377.49,230.44a8.72,8.72,0,0,1-7.89-4.38c-2.12-3.88-5-4.19-8.31-4.19h-.22q-16.08,0-32.17,0c-14.43,0-29.36,0-44,.09h-.11a11.16,11.16,0,0,1-8.78-3.6c-10.43-10.53-21.09-21.18-31.39-31.48-10.14-10.14-20.63-20.63-30.89-31a12.53,12.53,0,0,0-9.81-4c-46.41,0-94.52.06-143,.06q-68.52,0-137,0h-.23l-.2.09a3.33,3.33,0,0,1-1.42.24,17.67,17.67,0,0,1-2.12-.18c-.6-.07-1.17-.13-1.69-.16H907.09c-.56,0-1.13.09-1.73.16a17.84,17.84,0,0,1-2.12.18,3.33,3.33,0,0,1-1.42-.24l-.2-.09h-.23q-68.52,0-137,0c-48.49,0-96.59,0-143-.06a12.66,12.66,0,0,0-9.83,4c-10.27,10.37-20.75,20.85-30.9,31-10.3,10.3-20.95,21-31.38,31.48a11.17,11.17,0,0,1-8.78,3.6h-.11c-14.68-.09-29.61-.09-44-.09q-16.08,0-32.17,0h-.22c-3.29,0-6.19.31-8.31,4.19a8.73,8.73,0,0,1-7.89,4.38,10.91,10.91,0,0,1-3.25-.5,10,10,0,0,1-7-9.7,9.7,9.7,0,0,1,6.73-9.47,10,10,0,0,1,3.55-.65,9,9,0,0,1,8,4.57c2.11,3.8,4.94,4.12,7.9,4.12h.12q18.56-.08,37.11-.07c13.71,0,26.15,0,38,.1H539a12.07,12.07,0,0,0,9.25-4c9.49-9.56,19.19-19.25,28.56-28.62,11.07-11.07,22.52-22.52,33.72-33.83a11.28,11.28,0,0,1,8.84-3.62c31.47.07,62.45.08,88.61.08H813.6c27.69,0,57.48,0,87.72.06h.23l.21-.11a3.21,3.21,0,0,1,1.35-.22,17.86,17.86,0,0,1,2.11.18c.51.06,1,.12,1.45.15h11.82c.52,0,1-.1,1.52-.16a17.68,17.68,0,0,1,2.11-.18,3.21,3.21,0,0,1,1.35.22l.21.11h.23c30.24,0,60-.06,87.72-.06h105.59c26.16,0,57.14,0,88.57-.08a11.27,11.27,0,0,1,8.87,3.62c11.2,11.31,22.64,22.74,33.7,33.8,9.38,9.38,19.09,19.08,28.59,28.65a12.05,12.05,0,0,0,9.25,4h.11c11.89-.07,24.33-.1,38-.1q18.56,0,37.11.07h.12c3,0,5.79-.32,7.9-4.12a9,9,0,0,1,8-4.57,10,10,0,0,1,3.55.65,9.7,9.7,0,0,1,6.73,9.47,10,10,0,0,1-7,9.7A10.8,10.8,0,0,1,1377.49,230.44Z"/><path class="cls-3" d="M1557.81,503.08a8.63,8.63,0,0,1-7.42-3.92c-2.78-4.33-6-4.68-9.7-4.68h-.15q-24.37.07-48.76.06c-18.07,0-36.74,0-55.12.09a11.16,11.16,0,0,1-8.9-3.65c-4.62-4.78-9.4-9.54-14-14.15-4.34-4.33-8.83-8.8-13.17-13.27a11.91,11.91,0,0,0-9.33-3.84c-14.92.06-30.14.09-46.6.09-15,0-30.87,0-48.49-.08h0c-.53,0-1.08.06-1.67.12a14.36,14.36,0,0,1-1.69.13c-1.45,0-1.9-.4-1.9-1.71a1.8,1.8,0,0,1,.37-1.32,2.46,2.46,0,0,1,1.72-.43c.5,0,1,0,1.58.09s1.06.08,1.53.08c7.23,0,14.91-.05,25-.05h24.15l12.71,0,13.23,0c8.46,0,15.32,0,21.57-.13h.27a11.41,11.41,0,0,1,9,3.93c4.55,4.72,9.27,9.41,13.84,13.95,4.17,4.15,8.48,8.43,12.64,12.72a12.49,12.49,0,0,0,9.73,4.19c16.25-.07,33.38-.1,52.43-.1q25.5,0,51,.06h0c3.27,0,6.1-.32,8.44-4.28a8.74,8.74,0,0,1,7.72-4.33,10.52,10.52,0,0,1,6.73,2.48,10.14,10.14,0,0,1,3.62,7.28,9.84,9.84,0,0,1-2.85,7.49,10.54,10.54,0,0,1-7.46,3.14Z"/><path class="cls-4" d="M1511.38,406.17h-.69c-3.59-.11-7.49-.17-12.26-.17-2.77,0-5.54,0-8.3,0l-8.29,0h-16.45c-5.78,0-11.56,0-17.34,0h-.86l-.79,0a2.8,2.8,0,0,1-1.78-.4,1.66,1.66,0,0,1-.33-1.18c0-1.23.4-1.67,2.65-1.67h1l11,0,22.89,0c11.08,0,20.23,0,28.79.08h.12a11.33,11.33,0,0,0,8.82-3.74c4.17-4.29,8.49-8.59,12.67-12.75,4.8-4.77,9.76-9.7,14.53-14.66a11,11,0,0,1,8.79-3.57c18.41.08,37,.09,55,.09q20.79,0,41.6,0c3.49,0,6-.7,8-4.14a8.82,8.82,0,0,1,7.85-4.4,10.39,10.39,0,0,1,3.29.53,10.12,10.12,0,0,1-.12,19.28,11.78,11.78,0,0,1-3.14.44,9,9,0,0,1-8.27-4.88c-1.84-3.51-4.39-3.8-7.06-3.8-15.88,0-31.69.05-47.51.05-17.71,0-33.6,0-48.57-.08a10.89,10.89,0,0,0-8.49,3.53c-3.76,3.85-7.65,7.72-11.41,11.45-5.1,5.07-10.38,10.3-15.42,15.6A12.7,12.7,0,0,1,1511.38,406.17Z"/><path class="cls-5" d="M1706.48,168.35a8.85,8.85,0,0,1-7.94-4.6c-2-3.78-4.83-4.08-8-4.08l-77.85,0c-35.72,0-68.15,0-99.13-.08a16.45,16.45,0,0,0-2,.18,17.36,17.36,0,0,1-2.09.18,2.22,2.22,0,0,1-1.6-.43,2,2,0,0,1-.37-1.48c0-1.17.39-1.8,2.21-1.8a19.47,19.47,0,0,1,2.1.16,18.66,18.66,0,0,0,2,.16c18-.07,35.94-.08,49.55-.08h77.39c14.67,0,32,0,49.5,0h.13c3.29,0,6.19-.32,8.38-4.24a8.65,8.65,0,0,1,7.73-4.31,10.58,10.58,0,0,1,3.42.57,9.94,9.94,0,0,1,6.91,9.76c-.11,4.58-2.39,7.73-6.8,9.36a10.07,10.07,0,0,1-3.54.64Z"/><path class="cls-6" d="M1015.34,274.38a9,9,0,0,1-7.88-4.5c-2-3.42-4.4-4.09-7.88-4.09-14.59,0-30,.06-50.11.06H875.76c-20.1,0-35.52,0-50-.06h0c-3.57,0-6,.67-8,4.09a8.91,8.91,0,0,1-7.88,4.5,10.16,10.16,0,0,1-3.67-.69,9.66,9.66,0,0,1-6.66-9.47,10.13,10.13,0,0,1,7-9.65,11,11,0,0,1,3.21-.48,9.18,9.18,0,0,1,8.25,4.78c1.92,3.58,4.46,3.87,7.34,3.87h.24q11.26,0,22.52,0h129q11.25,0,22.52,0h.24c2.88,0,5.42-.29,7.34-3.87a9.17,9.17,0,0,1,8.25-4.78,11,11,0,0,1,3.21.48,10.13,10.13,0,0,1,7,9.65,9.66,9.66,0,0,1-6.66,9.47,10.16,10.16,0,0,1-3.67.69Z"/><path class="cls-7" d="M1015.34,600.64a9,9,0,0,1-7.88-4.49c-2-3.43-4.4-4.1-7.88-4.1-14.59,0-30,.06-50.11.06H875.76c-20.1,0-35.52,0-50-.06h0c-3.57,0-6,.67-8,4.1a8.92,8.92,0,0,1-7.88,4.49,10.16,10.16,0,0,1-3.67-.69,9.65,9.65,0,0,1-6.66-9.46,10.12,10.12,0,0,1,7-9.65,11,11,0,0,1,3.21-.48,9.17,9.17,0,0,1,8.25,4.77c1.92,3.58,4.46,3.87,7.34,3.87h.24q11.26-.06,22.52,0h129q11.25,0,22.52,0h.24c2.88,0,5.42-.29,7.34-3.87a9.16,9.16,0,0,1,8.25-4.77,11,11,0,0,1,3.21.48,10.12,10.12,0,0,1,7,9.65A9.65,9.65,0,0,1,1019,600a10.16,10.16,0,0,1-3.67.69Z"/><path class="cls-8" d="M1706.52,441.69a8.48,8.48,0,0,1-7.47-4c-2.59-4.31-5.8-4.66-9.14-4.66h-.71c-3,.05-6,.06-9.06.06q-5.91,0-11.82-.05l-6.16,0h-1.38c-1.77,0-2.08-.38-2.15-1.29a1.72,1.72,0,0,1,.29-1.29c.53-.57,1.95-.57,3.1-.57h21.59c1.31,0,2.62,0,3.94,0H1689c3.94,0,7.74-.4,10.81-5.24a7.45,7.45,0,0,1,6.56-3.42,11,11,0,0,1,7.82,3.44,10.06,10.06,0,0,1-.66,14.4A10.63,10.63,0,0,1,1706.52,441.69Z"/><path class="cls-9" d="M1634.18,1044.92a10.15,10.15,0,0,1-5.33-1.56,9.5,9.5,0,0,1-4.25-11.47c1.4-3.84-.13-5.79-2.13-7.77-21.23-21.13-38.47-38.37-54.24-54.25a9.82,9.82,0,0,0-7.57-3.14q-63.5,0-127,0-62.57,0-125.13,0a10.27,10.27,0,0,0-8,3.46c-3.71,3.78-7.54,7.57-11.23,11.25-5.17,5.13-10.51,10.43-15.63,15.79a13.23,13.23,0,0,1-10.57,4.47c-36.09-.1-72.22-.11-102.81-.11H686.83c-30.59,0-66.73,0-102.75.11a13.3,13.3,0,0,1-10.64-4.47c-5.12-5.36-10.46-10.67-15.63-15.8-3.69-3.67-7.51-7.47-11.22-11.24a10.26,10.26,0,0,0-7.94-3.46q-62.59,0-125.15,0-63.48,0-126.95,0a9.82,9.82,0,0,0-7.57,3.14c-15.73,15.84-33,33.07-54.25,54.25-2,2-3.52,3.93-2.13,7.77a9.49,9.49,0,0,1-4.24,11.47,10.15,10.15,0,0,1-5.33,1.56,10,10,0,0,1-6.57-2.53,10.17,10.17,0,0,1-2.64-11.69,9.56,9.56,0,0,1,8.91-5.92,11.48,11.48,0,0,1,2.38.26,7.44,7.44,0,0,0,1.58.18c2.48,0,3.93-1.46,5.34-2.87l.2-.2,15-15c13.12-13.1,26.69-26.64,40-40a10.75,10.75,0,0,1,8.37-3.56c41.74,0,85.24.08,129.33.08q62.43,0,124.86-.07a10.07,10.07,0,0,1,8,3.21c4.51,4.64,9.17,9.28,13.68,13.77s9.32,9.29,13.89,14a12,12,0,0,0,9.38,3.86c82.25-.08,165.85-.08,246.7-.08H1015.8c80.85,0,164.45,0,246.68.08a11.94,11.94,0,0,0,9.39-3.86c4.58-4.71,9.32-9.43,13.9-14s9.17-9.13,13.68-13.77a10,10,0,0,1,8-3.21q62.44.07,124.87.07c44.1,0,87.61,0,129.31-.08a10.73,10.73,0,0,1,8.39,3.56c13.22,13.34,26.74,26.83,39.82,39.88l15.15,15.13.2.2c1.4,1.41,2.86,2.87,5.34,2.87a7.44,7.44,0,0,0,1.58-.18,11.48,11.48,0,0,1,2.38-.26,9.58,9.58,0,0,1,8.91,5.92,10.17,10.17,0,0,1-2.64,11.69,10,10,0,0,1-6.57,2.53Z"/><path class="cls-10" d="M1591.79,1078.72a9.77,9.77,0,0,1-1.86,1.28h-9.71l-.35-.2c-4-2.45-5.58-6.68-4.3-11.4a.13.13,0,0,1,0-.06,5.44,5.44,0,0,1,.15-.54c1-3,.06-4.7-1.71-6.44-4.5-4.4-9.11-8.91-13.66-13.51-2.21-2.24-4.42-4.5-6.59-6.78a11.79,11.79,0,0,0-9.35-3.89H1504.5q-29.67,0-59.33,0l-48.66,0h-19.22l-53.64,0a10.33,10.33,0,0,0-8,3.36c-4,4.13-8.18,8.27-12.2,12.28-5.06,5.06-10.3,10.29-15.35,15.53a11.72,11.72,0,0,1-9.29,3.89c-33-.07-65.69-.09-94.64-.09H645.69c-24.36,0-50.7,0-77.24.08a11.71,11.71,0,0,1-9.32-3.89c-5.06-5.24-10.3-10.47-15.36-15.53-4-4-8.16-8.15-12.19-12.28a10.32,10.32,0,0,0-8-3.36c-41.7,0-82.58.08-121.54.08q-49.62,0-99.23-.06a11.82,11.82,0,0,0-9.38,3.89c-6.64,7-13.55,13.75-20.24,20.29-1.77,1.74-2.67,3.42-1.72,6.44,1.33,4.21.42,8.09-2.43,10.72a10.5,10.5,0,0,1-1.7,1.28l-.35.2h-9.71a9.46,9.46,0,0,1-1.86-1.28,10.14,10.14,0,0,1-2.53-11.7,10.27,10.27,0,0,1,1.63-2.59,9.29,9.29,0,0,1,7.24-3.25,12.19,12.19,0,0,1,2.51.27,8.37,8.37,0,0,0,1.72.19c2.12,0,3.49-1,5-2.5q4.68-4.73,9.4-9.41c4.18-4.17,8.51-8.48,12.7-12.78a8.35,8.35,0,0,1,6.55-2.84q52,0,103.9.05c40.82,0,82.07,0,122.61-.07a7.92,7.92,0,0,1,6.08,2.79c3.69,3.72,7.41,7.42,11.12,11.12,5.68,5.66,11.55,11.51,17.25,17.33a10.94,10.94,0,0,0,8.45,3.59q41.52,0,83.33-.06c29.42,0,58.84,0,88.11,0H890.16l18.34,0h170l105.26,0,94.36.07a10.91,10.91,0,0,0,8.46-3.59c5.71-5.83,11.59-11.68,17.27-17.34,3.66-3.65,7.31-7.28,11-11l.16-.16a7.91,7.91,0,0,1,6.06-2.79l56.94.05h65.69l60.16,0h43.72a8.38,8.38,0,0,1,6.57,2.84c3.48,3.57,7.05,7.14,10.55,10.64l2.15,2.14q4.71,4.69,9.4,9.41a9.63,9.63,0,0,0,2.14,1.75,5.55,5.55,0,0,0,2.87.75,8.39,8.39,0,0,0,1.73-.19,12.19,12.19,0,0,1,2.51-.27,9.43,9.43,0,0,1,8.87,5.84A10.14,10.14,0,0,1,1591.79,1078.72Z"/><path class="cls-11" d="M1456.63,737.92a8.62,8.62,0,0,1-7.41-4c-2.72-4.24-5.94-4.58-9.86-4.58q-89.47.06-178.84,0H1148.36q-112.32,0-224.64,0h-.16l-.14,0a4.59,4.59,0,0,1-1.3.15c-.56,0-1.16,0-1.75-.1s-.94-.09-1.37-.1H906.26c-.46,0-.92,0-1.4.1s-1.19.1-1.75.1a4.54,4.54,0,0,1-1.3-.15l-.15,0h-.15q-112.32.06-224.64,0H564.71q-89.39,0-178.79,0c-4,0-7.19.34-9.91,4.58a8.62,8.62,0,0,1-7.41,4,10.51,10.51,0,0,1-7.08-2.83,10.12,10.12,0,0,1,0-14.8,10.34,10.34,0,0,1,7-2.78,9.08,9.08,0,0,1,7.84,4.29c2.29,3.62,4.92,4.34,8.42,4.34,129.38-.06,260.9-.06,388.1-.06h70.34q29.07,0,58.16,0h.17l.17-.06a3.8,3.8,0,0,1,1.25-.17,17.56,17.56,0,0,1,1.86.14l1.06.1h13.4l1.13-.1a17.37,17.37,0,0,1,1.86-.14,3.8,3.8,0,0,1,1.25.17l.17.06h.17q29.08-.06,58.16,0h70.34c127.2,0,258.72,0,388.08.06,3.52,0,6.15-.72,8.44-4.34a9.08,9.08,0,0,1,7.84-4.29,10.34,10.34,0,0,1,7,2.78,10.12,10.12,0,0,1,0,14.8A10.51,10.51,0,0,1,1456.63,737.92Z"/><path class="cls-12" d="M1292.75,657.25a2.46,2.46,0,0,1-1.72-.43,1.86,1.86,0,0,1-.37-1.32c0-1.31.45-1.71,1.9-1.71a16.79,16.79,0,0,1,1.69.12,14.25,14.25,0,0,0,1.66.12c17.54,0,33.36-.07,48.39-.07,16.49,0,31.74,0,46.62.09a12,12,0,0,0,9.42-3.84c4.34-4.47,8.83-8.94,13.17-13.27,4.63-4.61,9.42-9.37,14-14.15a11.11,11.11,0,0,1,8.83-3.65c18.45.07,37.13.08,55.19.09q24.38,0,48.77.06h.14c3.66,0,6.92-.36,9.71-4.68a8.61,8.61,0,0,1,7.42-3.92,10.52,10.52,0,0,1,7.45,3.14,9.88,9.88,0,0,1,2.86,7.49,10.15,10.15,0,0,1-3.63,7.27,10.46,10.46,0,0,1-6.72,2.49h0a8.74,8.74,0,0,1-7.73-4.33c-2.34-4-5.17-4.29-8.36-4.29q-25.68.06-51.19.07c-19,0-36.11,0-52.24-.11h0a12.53,12.53,0,0,0-9.8,4.2c-4.17,4.29-8.49,8.58-12.67,12.74-4.56,4.53-9.28,9.22-13.82,13.93a11.37,11.37,0,0,1-9,3.92h-.27c-6.24-.09-13.08-.13-21.52-.13l-13.17,0-12.82,0h-24.28c-10,0-17.63,0-24.78-.06h0c-.51,0-1,0-1.57.09S1293.26,657.25,1292.75,657.25Z"/><path class="cls-13" d="M1667.87,738.05a8.84,8.84,0,0,1-7.85-4.4c-2-3.45-4.53-4.14-7.94-4.14-14,0-27.86,0-41.76,0-18,0-36.58,0-54.87.09-3.89,0-6.44-1-8.88-3.57-4.78-5-9.73-9.88-14.52-14.64-4.18-4.17-8.51-8.47-12.69-12.77a11.32,11.32,0,0,0-8.82-3.73h-.12c-8.59.05-17.77.08-28.88.08q-11.6,0-23.18,0h-11.64c-2.24,0-2.64-.44-2.65-1.68a1.64,1.64,0,0,1,.33-1.17,2.75,2.75,0,0,1,1.78-.41l.79,0,.8,0c5.78,0,11.5,0,17.23,0h16.62c2.76,0,5.52,0,8.27,0s5.52,0,8.29,0c4.79,0,8.7,0,12.3-.17h.68a12.69,12.69,0,0,1,10,4.31c5,5.3,10.32,10.54,15.42,15.6,3.76,3.74,7.65,7.6,11.42,11.45a10.78,10.78,0,0,0,8.42,3.53c15,0,30.85-.08,48.49-.08q23.8,0,47.59.05c2.74,0,5.29-.29,7.13-3.8a9,9,0,0,1,8.26-4.88,11.35,11.35,0,0,1,3.14.45,10.11,10.11,0,0,1,.12,19.28A10.68,10.68,0,0,1,1667.87,738.05Z"/><path class="cls-14" d="M1717.27,917.79a8.62,8.62,0,0,1-7.72-4.3c-2.2-3.93-5.1-4.25-8.37-4.25H1701c-17.54,0-34.86.06-49.49.06h-77.24c-13.64,0-31.62,0-49.69-.08h0a18.6,18.6,0,0,0-2,.16,19.55,19.55,0,0,1-2.1.17c-1.82,0-2.18-.63-2.21-1.8a2.06,2.06,0,0,1,.37-1.49,2.22,2.22,0,0,1,1.6-.43,17.26,17.26,0,0,1,2.09.19,16.36,16.36,0,0,0,2,.17c31.16-.05,63.7-.08,99.49-.08q38.73,0,77.46,0c3.2,0,6-.31,8-4.08a8.84,8.84,0,0,1,8-4.61,10.3,10.3,0,0,1,3.54.64c4.41,1.64,6.7,4.79,6.8,9.37a9.94,9.94,0,0,1-6.91,9.75A10.58,10.58,0,0,1,1717.27,917.79Z"/><path class="cls-15" d="M1706.12,693.58a7.44,7.44,0,0,1-6.56-3.41c-3.07-4.84-6.87-5.24-10.82-5.24h-1.36c-1.37,0-2.68,0-4,0h-21.53c-1.19,0-2.62,0-3.15-.57a1.7,1.7,0,0,1-.28-1.29c.06-.91.38-1.29,2.15-1.29h1.32l6.19,0c3.93,0,7.87,0,11.8,0,3.35,0,6.32,0,9.1.06h.7c3.35,0,6.56-.36,9.15-4.66a8.46,8.46,0,0,1,7.47-4,10.63,10.63,0,0,1,7,2.67,10.06,10.06,0,0,1,.66,14.4,11,11,0,0,1-7.82,3.43Z"/><path class="cls-16" d="M1550.85,85.25c-41.77,0-85.38-.08-129.6-.08q-62.28,0-124.57.07a10.07,10.07,0,0,1-8-3.2c-4.51-4.65-9.18-9.29-13.68-13.78s-9.32-9.29-13.9-14a12,12,0,0,0-9.38-3.86c-83.44.08-168.26.08-250.29.08H823.8c-82,0-166.85,0-250.28-.08a12,12,0,0,0-9.39,3.86c-4.58,4.71-9.32,9.44-13.9,14S541.06,77.39,536.55,82a10.06,10.06,0,0,1-8,3.2q-62.33-.06-124.59-.07c-44.23,0-87.83,0-129.6.08A10.79,10.79,0,0,1,266,81.7c-13.18-13.31-26.66-26.77-39.7-39.78L211,26.68l-.2-.2c-1.4-1.41-2.86-2.87-5.34-2.87a7.44,7.44,0,0,0-1.58.18,10.84,10.84,0,0,1-2.38.26,9.58,9.58,0,0,1-8.91-5.92,10.17,10.17,0,0,1,2.64-11.69,10,10,0,0,1,6.57-2.53,10.15,10.15,0,0,1,5.33,1.56,9.51,9.51,0,0,1,4.25,11.47c-1.4,3.84.13,5.79,2.13,7.77C234.9,46,252.14,63.22,267.77,79a9.81,9.81,0,0,0,7.56,3.14q63.29,0,126.55,0,62.78,0,125.55.06a10.34,10.34,0,0,0,8-3.46c3.7-3.78,7.52-7.58,11.21-11.24,5.17-5.14,10.52-10.45,15.64-15.8a13.24,13.24,0,0,1,10.57-4.48c36,.1,72.21.11,102.88.11h473.85c30.67,0,66.87,0,102.82-.11A13.31,13.31,0,0,1,1263,51.6c5.12,5.36,10.46,10.67,15.63,15.8,3.7,3.67,7.52,7.47,11.22,11.25a10.33,10.33,0,0,0,8,3.46q62.81-.06,125.56-.06,63.26,0,126.53,0a9.83,9.83,0,0,0,7.58-3.14c15.68-15.79,32.92-33,54.24-54.25,2-2,3.53-3.93,2.13-7.77a9.5,9.5,0,0,1,4.25-11.47,10.12,10.12,0,0,1,5.33-1.56A9.92,9.92,0,0,1,1630,6.44a10.15,10.15,0,0,1,2.65,11.69,9.58,9.58,0,0,1-8.91,5.92,10.84,10.84,0,0,1-2.38-.26,7.44,7.44,0,0,0-1.58-.18c-2.48,0-3.94,1.46-5.34,2.87l-.2.2L1599,41.91c-13,13-26.53,26.47-39.72,39.79a10.74,10.74,0,0,1-8.37,3.55Z"/><path class="cls-17" d="M541.55,0H546c-4.6,4.65-9.26,9.3-13.8,13.82Q526.6,19.37,521,24.94A7.91,7.91,0,0,1,515,27.73c-40.33,0-81.48-.07-122.34-.07q-52.08,0-104.17.05a8.38,8.38,0,0,1-6.57-2.84c-4.2-4.31-8.53-8.63-12.73-12.81q-4.69-4.68-9.37-9.38c-1.52-1.55-2.9-2.5-5-2.5a8.39,8.39,0,0,0-1.73.19,12.19,12.19,0,0,1-2.51.27A9.82,9.82,0,0,1,247,0h14.53c.14.15.29.31.45.46,6.7,6.56,13.63,13.34,20.25,20.29a11.79,11.79,0,0,0,9.35,3.89q49.83-.06,99.62-.06c38.8,0,79.57,0,121.16.08a10.33,10.33,0,0,0,8-3.36c4-4.13,8.19-8.28,12.21-12.29C535.54,6.05,538.55,3,541.55,0Z"/><path class="cls-18" d="M1578.23,0a9.86,9.86,0,0,1-3.55.64,12.12,12.12,0,0,1-2.51-.27,8.46,8.46,0,0,0-1.73-.19c-2.12,0-3.49,1-5,2.5-3.1,3.13-6.23,6.24-9.35,9.36-4.2,4.18-8.54,8.51-12.75,12.83a8.39,8.39,0,0,1-6.56,2.84q-52.11,0-104.18-.05c-40.86,0-82,0-122.33.07h0a7.91,7.91,0,0,1-6.06-2.79c-3.69-3.72-7.4-7.41-11.11-11.11-4.54-4.52-9.21-9.17-13.81-13.83h4.41c3,3,6,6.05,9,9,4,4,8.17,8.16,12.21,12.29a10.31,10.31,0,0,0,8,3.36c41.61-.05,82.38-.08,121.18-.08q49.79,0,99.59.06a11.81,11.81,0,0,0,9.38-3.89c6.6-6.93,13.54-13.72,20.25-20.29.16-.15.31-.31.45-.46Z"/><path class="cls-19" d="M1456.94,344.31a9.09,9.09,0,0,1-7.85-4.29c-2.28-3.62-4.91-4.34-8.41-4.34-120.4.05-239.72.06-361.55.06H981.3q-28.83,0-57.65,0h-.18l-.16.06a3.94,3.94,0,0,1-1.26.16,17.47,17.47,0,0,1-1.86-.13c-.37,0-.73-.08-1.07-.1l-6.5,0-6.44,0c-.41,0-.78.06-1.14.1a17.47,17.47,0,0,1-1.86.13,3.94,3.94,0,0,1-1.26-.16l-.16-.06h-.18q-28.82,0-57.65,0H746.1c-121.83,0-241.16,0-361.53-.06-3.52,0-6.15.72-8.43,4.34a9.11,9.11,0,0,1-7.85,4.29,10.34,10.34,0,0,1-7-2.78,10.11,10.11,0,0,1,0-14.8,10.48,10.48,0,0,1,7.07-2.83,8.62,8.62,0,0,1,7.41,4c2.72,4.24,5.94,4.58,9.88,4.58q89.41-.06,178.74-.05h108.3q114.51,0,229,.05h.15l.15-.05a4.51,4.51,0,0,1,1.29-.15c.56,0,1.17,0,1.75.1s.95.09,1.38.1h12.3c.45,0,.92-.05,1.41-.1s1.19-.1,1.74-.1a4.54,4.54,0,0,1,1.3.15l.15.05h.15q114.51-.08,229-.05h108.3q89.36,0,178.7.05c4,0,7.2-.34,9.92-4.58a8.61,8.61,0,0,1,7.4-4,10.49,10.49,0,0,1,7.08,2.83,10.1,10.1,0,0,1,0,14.8A10.31,10.31,0,0,1,1456.94,344.31Z"/><path class="cls-20" d="M267.42,503.08a10.54,10.54,0,0,1-7.46-3.14,9.9,9.9,0,0,1-2.86-7.49,10.19,10.19,0,0,1,3.63-7.28,10.51,10.51,0,0,1,6.72-2.48,8.74,8.74,0,0,1,7.73,4.33c2.34,4,5.17,4.28,8.36,4.28q25.62,0,51.08-.06c19.05,0,36.18,0,52.35.1a12.52,12.52,0,0,0,9.8-4.19c4.17-4.29,8.48-8.58,12.66-12.73,4.56-4.53,9.28-9.22,13.83-13.94a11.38,11.38,0,0,1,9-3.93h.27c6.25.09,13.11.13,21.56.13l13.23,0,12.72,0h24.15c10,0,17.73,0,24.91.05h0c.51,0,1,0,1.57-.08s1.08-.09,1.58-.09A2.46,2.46,0,0,1,534,457a1.8,1.8,0,0,1,.37,1.32c0,1.31-.45,1.71-1.9,1.71a14.36,14.36,0,0,1-1.69-.13c-.59-.06-1.14-.12-1.66-.12-17.63,0-33.49.08-48.5.08-16.47,0-31.68,0-46.51-.09h0a12,12,0,0,0-9.42,3.84c-4.34,4.47-8.83,8.95-13.18,13.28-4.63,4.6-9.41,9.37-14,14.14a11.11,11.11,0,0,1-8.83,3.65c-18.45-.07-37.13-.08-55.19-.09q-24.37,0-48.77-.06h-.14c-3.66,0-6.92.35-9.7,4.68a8.63,8.63,0,0,1-7.42,3.92Z"/><path class="cls-21" d="M313.85,406.17a12.7,12.7,0,0,1-10-4.31c-5-5.3-10.32-10.54-15.42-15.6-3.76-3.74-7.65-7.6-11.42-11.45a10.81,10.81,0,0,0-8.41-3.53c-15,.05-30.93.08-48.64.08q-23.73,0-47.45-.05h0c-2.74,0-5.29.29-7.13,3.8a9,9,0,0,1-8.26,4.88,11.78,11.78,0,0,1-3.14-.44,10.11,10.11,0,0,1-.12-19.28,10.39,10.39,0,0,1,3.29-.53,8.82,8.82,0,0,1,7.85,4.4c2,3.44,4.53,4.14,7.94,4.14,13.95,0,27.82,0,41.68,0,18,0,36.64,0,54.95-.09,3.9,0,6.44,1,8.88,3.57,4.78,5,9.73,9.88,14.52,14.64,4.18,4.17,8.51,8.48,12.69,12.77a11.33,11.33,0,0,0,8.82,3.74h.12c8.56-.06,17.7-.08,28.79-.08l22.89,0,10.94,0h1.08c2.24,0,2.65.44,2.65,1.67a1.66,1.66,0,0,1-.33,1.18,2.8,2.8,0,0,1-1.78.4l-.79,0h-.8c-5.84,0-11.62,0-17.4,0H343.39l-8.29,0c-2.76,0-5.53,0-8.3,0-4.78,0-8.67.06-12.27.17Z"/><path class="cls-22" d="M118.74,168.35a10.07,10.07,0,0,1-3.54-.64c-4.41-1.63-6.7-4.78-6.8-9.36a9.94,9.94,0,0,1,6.91-9.76,10.58,10.58,0,0,1,3.42-.57,8.62,8.62,0,0,1,7.72,4.31c2.2,3.92,5.1,4.24,8.39,4.24H135c17.48,0,34.83,0,49.5,0h77.39c13.61,0,31.54,0,49.52.08a18.6,18.6,0,0,0,2-.16,19.47,19.47,0,0,1,2.1-.16c1.82,0,2.18.63,2.21,1.8a2,2,0,0,1-.37,1.48,2.22,2.22,0,0,1-1.6.43h0a17.19,17.19,0,0,1-2.09-.18,16.47,16.47,0,0,0-2-.18c-31,.06-63.42.08-99.15.08l-77.8,0c-3.2,0-6,.3-8,4.08A8.85,8.85,0,0,1,118.74,168.35Z"/><path class="cls-23" d="M118.71,441.69a10.68,10.68,0,0,1-7-2.67,10.06,10.06,0,0,1-.66-14.4,11,11,0,0,1,7.82-3.44,7.45,7.45,0,0,1,6.56,3.42c3.07,4.84,6.87,5.24,10.81,5.24h1.38c1.36,0,2.67,0,4,0h21.54c1.19,0,2.62,0,3.15.57a1.72,1.72,0,0,1,.29,1.29c-.07.91-.39,1.29-2.15,1.29h-1.33l-6.21,0q-5.91,0-11.82.05c-3,0-6,0-9.06-.06h-.71c-3.34,0-6.55.35-9.14,4.66a8.48,8.48,0,0,1-7.47,4Z"/><path class="cls-24" d="M933.33,913.23a17.51,17.51,0,0,1-2.11-.18c-.5-.06-1-.12-1.44-.15H917.5c-.52,0-1,.1-1.52.16a17.52,17.52,0,0,1-2.1.18,3.21,3.21,0,0,1-1.35-.22l-.21-.11h-.23C882,913,852.5,913,825,913H719.22c-26.17,0-57.15,0-88.57.08a11.3,11.3,0,0,1-8.88-3.62c-11.19-11.31-22.63-22.74-33.69-33.8-9.39-9.38-19.09-19.08-28.6-28.66a12.06,12.06,0,0,0-9.25-4h-.1c-11.83.07-24.23.1-37.88.1q-18.63,0-37.27-.07h-.12c-3,0-5.79.32-7.9,4.12a9,9,0,0,1-8,4.57,10.1,10.1,0,0,1-3.56-.65,9.71,9.71,0,0,1-6.73-9.47,10,10,0,0,1,7-9.7,10.86,10.86,0,0,1,3.25-.5,8.75,8.75,0,0,1,7.89,4.38c2.12,3.88,5,4.19,8.3,4.19h.23q16.08,0,32.17,0c14.43,0,29.35,0,44-.09h.12a11.2,11.2,0,0,1,8.78,3.59c10.44,10.55,21.1,21.21,31.42,31.52,10.13,10.13,20.6,20.6,30.85,31a12.55,12.55,0,0,0,9.82,4c46.72,0,95.06-.06,143.7-.06q67.95,0,135.9,0h.23l.2-.1a3.52,3.52,0,0,1,1.42-.23,17.67,17.67,0,0,1,2.12.18c.6.07,1.17.13,1.68.16h11.54c.56,0,1.13-.09,1.72-.16a17.83,17.83,0,0,1,2.13-.18,3.47,3.47,0,0,1,1.41.23l.21.1H935q68,0,135.91,0c48.64,0,97,0,143.68.06a12.53,12.53,0,0,0,9.83-4c10.26-10.36,20.75-20.85,30.89-31,10.3-10.31,21-21,31.39-31.5a11.2,11.2,0,0,1,8.78-3.59h.11c14.68.09,29.61.09,44,.09q16.08,0,32.17,0h.22c3.29,0,6.19-.31,8.31-4.19a8.75,8.75,0,0,1,7.89-4.38,10.91,10.91,0,0,1,3.25.5,10,10,0,0,1,7,9.7,9.69,9.69,0,0,1-6.72,9.47,10.1,10.1,0,0,1-3.56.65,9,9,0,0,1-8-4.57c-2.11-3.8-4.94-4.12-7.9-4.12h-.12q-18.64.07-37.27.07c-13.66,0-26,0-37.88-.1h-.1a12.1,12.1,0,0,0-9.26,4c-9.51,9.59-19.22,19.3-28.62,28.69-11,11.05-22.48,22.47-33.66,33.77a11.27,11.27,0,0,1-8.84,3.62c-31.47-.07-62.45-.08-88.61-.08H1022.17c-27.46,0-57,0-87-.06h-.24l-.21.11A3.15,3.15,0,0,1,933.33,913.23Z"/><path class="cls-25" d="M532.48,657.25c-.51,0-1.05,0-1.58-.09s-1.06-.09-1.53-.09c-7.2,0-14.85.06-24.83.06H480.26l-12.83,0-13.16,0c-8.45,0-15.28,0-21.52.13h-.27a11.41,11.41,0,0,1-9-3.92c-4.54-4.71-9.25-9.4-13.81-13.93-4.18-4.15-8.5-8.45-12.67-12.74a12.49,12.49,0,0,0-9.72-4.2c-16.21.07-33.29.11-52.32.11q-25.54,0-51.11-.07h0c-3.27,0-6.1.33-8.44,4.29a8.74,8.74,0,0,1-7.73,4.33h0a10.51,10.51,0,0,1-6.73-2.49,10.18,10.18,0,0,1-3.62-7.27,9.89,9.89,0,0,1,2.86-7.49,10.52,10.52,0,0,1,7.45-3.14,8.61,8.61,0,0,1,7.42,3.92c2.78,4.33,6,4.68,9.71,4.68h.14q24.39-.07,48.77-.06c18.06,0,36.74,0,55.11-.09a11.17,11.17,0,0,1,8.91,3.65c4.61,4.77,9.39,9.54,14,14.14,4.34,4.33,8.84,8.81,13.18,13.28a11.91,11.91,0,0,0,9.33,3.84c15-.06,30.22-.09,46.71-.09,15,0,30.85,0,48.37.07h0a14,14,0,0,0,1.67-.12,17,17,0,0,1,1.7-.12c1.45,0,1.89.4,1.9,1.71a1.86,1.86,0,0,1-.37,1.32A2.48,2.48,0,0,1,532.48,657.25Z"/><path class="cls-26" d="M157.36,738.05a10.68,10.68,0,0,1-3.29-.53,10.11,10.11,0,0,1,.12-19.28,11.35,11.35,0,0,1,3.14-.45,9,9,0,0,1,8.26,4.88c1.84,3.51,4.39,3.8,7.07,3.8q23.88,0,47.65-.05c17.64,0,33.48,0,48.43.08a10.82,10.82,0,0,0,8.48-3.53c3.77-3.85,7.66-7.71,11.42-11.45,5.1-5.06,10.38-10.3,15.42-15.6a12.69,12.69,0,0,1,10-4.31h.68c3.6.12,7.51.17,12.3.17l8.29,0c2.75,0,5.51,0,8.27,0h16.62q8.58,0,17.17,0h0l.84,0,.8,0a2.75,2.75,0,0,1,1.78.41,1.64,1.64,0,0,1,.33,1.17c0,1.24-.41,1.68-2.65,1.68H366.86q-11.58,0-23.17,0c-11.11,0-20.29,0-28.88-.08h-.12a11.32,11.32,0,0,0-8.82,3.73c-4.19,4.3-8.52,8.61-12.7,12.78-4.79,4.76-9.74,9.69-14.51,14.63a11,11,0,0,1-8.78,3.57c-18.39-.08-37-.08-55-.09q-20.84,0-41.67,0h0c-3.49,0-6,.69-8,4.14A8.84,8.84,0,0,1,157.36,738.05Z"/><path class="cls-27" d="M129.94,917.79a10.53,10.53,0,0,1-3.42-.57,9.94,9.94,0,0,1-6.91-9.75c.1-4.58,2.39-7.73,6.79-9.37a10.35,10.35,0,0,1,3.55-.64,8.86,8.86,0,0,1,8,4.61c2,3.77,4.83,4.08,8,4.08q38.81,0,77.51,0c35.79,0,68.33,0,99.48.08a16.36,16.36,0,0,0,2-.17,17.44,17.44,0,0,1,2.09-.19,2.25,2.25,0,0,1,1.61.43,2.11,2.11,0,0,1,.37,1.49c0,1.17-.4,1.8-2.22,1.8a19.58,19.58,0,0,1-2.09-.17,18.83,18.83,0,0,0-2-.16c-18.09.07-36.07.08-49.71.08H195.66c-14.63,0-31.95,0-49.49-.06H146c-3.28,0-6.17.32-8.37,4.25a8.63,8.63,0,0,1-7.72,4.3Z"/><path class="cls-28" d="M1717.27,817.89a8.64,8.64,0,0,1-7.72-4.3c-2.2-3.93-5.1-4.25-8.37-4.25H1701c-17.54,0-34.86,0-49.49,0h-77.24c-13.64,0-31.62,0-49.69-.08h0a18.6,18.6,0,0,0-2,.16,19.55,19.55,0,0,1-2.1.17c-1.82,0-2.18-.64-2.21-1.8a2.06,2.06,0,0,1,.37-1.49,2.22,2.22,0,0,1,1.6-.43,17.19,17.19,0,0,1,2.09.18,14.68,14.68,0,0,0,2,.18c31.16,0,63.7-.08,99.49-.08q38.73,0,77.46,0c3.2,0,6-.31,8-4.08a8.84,8.84,0,0,1,8-4.61,10.3,10.3,0,0,1,3.54.64c4.41,1.63,6.7,4.78,6.8,9.36a9.94,9.94,0,0,1-6.91,9.76A10.58,10.58,0,0,1,1717.27,817.89Z"/><path class="cls-29" d="M129.94,817.89a10.53,10.53,0,0,1-3.42-.57,9.94,9.94,0,0,1-6.91-9.76c.1-4.58,2.39-7.73,6.79-9.36a10.35,10.35,0,0,1,3.55-.64,8.86,8.86,0,0,1,8,4.61c2,3.77,4.83,4.08,8,4.08q38.81,0,77.51,0c35.79,0,68.33,0,99.48.08a14.68,14.68,0,0,0,2-.18,17.36,17.36,0,0,1,2.09-.18,2.25,2.25,0,0,1,1.61.43,2.11,2.11,0,0,1,.37,1.49c0,1.16-.4,1.8-2.22,1.8a19.58,19.58,0,0,1-2.09-.17,18.83,18.83,0,0,0-2-.16c-18.09.07-36.07.08-49.71.08H195.66c-14.63,0-31.95,0-49.49,0H146c-3.28,0-6.17.32-8.37,4.25a8.65,8.65,0,0,1-7.72,4.3Z"/><path class="cls-30" d="M1717.27,567.14a8.62,8.62,0,0,1-7.72-4.31c-2.2-3.93-5.1-4.25-8.37-4.25H1701c-17.54,0-34.86.06-49.49.06h-77.24c-13.64,0-31.62,0-49.69-.07h0a18.5,18.5,0,0,0-2,.15,17.28,17.28,0,0,1-2.1.17c-1.82,0-2.18-.63-2.21-1.8a2.06,2.06,0,0,1,.37-1.49,2.22,2.22,0,0,1,1.6-.43,17.26,17.26,0,0,1,2.09.19,16.47,16.47,0,0,0,2,.18c31.16-.06,63.7-.09,99.49-.09q38.73,0,77.46,0c3.2,0,6-.31,8-4.08a8.86,8.86,0,0,1,8-4.61,10.08,10.08,0,0,1,3.54.65c4.41,1.63,6.7,4.78,6.8,9.36a10,10,0,0,1-6.91,9.76A10.85,10.85,0,0,1,1717.27,567.14Z"/><path class="cls-31" d="M129.94,567.14a10.81,10.81,0,0,1-3.42-.57,10,10,0,0,1-6.91-9.76c.1-4.58,2.39-7.73,6.79-9.36a10.13,10.13,0,0,1,3.55-.65,8.88,8.88,0,0,1,8,4.61c2,3.77,4.83,4.08,8,4.08q38.81,0,77.51,0c35.79,0,68.33,0,99.48.09a16.47,16.47,0,0,0,2-.18,17.44,17.44,0,0,1,2.09-.19,2.25,2.25,0,0,1,1.61.43,2.11,2.11,0,0,1,.37,1.49c0,1.17-.4,1.8-2.22,1.8a17.28,17.28,0,0,1-2.09-.17,18.7,18.7,0,0,0-2-.15c-18.09.06-36.07.07-49.71.07H195.66c-14.63,0-31.95,0-49.49-.06H146c-3.28,0-6.17.32-8.37,4.25a8.64,8.64,0,0,1-7.72,4.31Z"/><path class="cls-32" d="M1717.27,297.4a8.62,8.62,0,0,1-7.72-4.31c-2.2-3.93-5.1-4.24-8.37-4.24H1701c-17.54,0-34.86,0-49.49,0h-77.24c-13.64,0-31.62,0-49.69-.08h0a16.42,16.42,0,0,0-2,.16,19.47,19.47,0,0,1-2.1.16c-1.82,0-2.18-.63-2.21-1.8a2,2,0,0,1,.37-1.48,2.22,2.22,0,0,1,1.6-.43,17.19,17.19,0,0,1,2.09.18,16.47,16.47,0,0,0,2,.18c31.16-.06,63.7-.09,99.49-.09q38.73,0,77.46,0c3.2,0,6-.31,8-4.08a8.85,8.85,0,0,1,8-4.6,10.07,10.07,0,0,1,3.54.64c4.41,1.63,6.7,4.78,6.8,9.36a10,10,0,0,1-6.91,9.76A10.58,10.58,0,0,1,1717.27,297.4Z"/><path class="cls-33" d="M129.94,297.4a10.53,10.53,0,0,1-3.42-.57,10,10,0,0,1-6.91-9.76c.1-4.58,2.39-7.73,6.79-9.36a10.12,10.12,0,0,1,3.55-.64,8.88,8.88,0,0,1,8,4.6c2,3.77,4.83,4.08,8,4.08q38.81,0,77.51,0c35.79,0,68.33,0,99.48.09a16.47,16.47,0,0,0,2-.18,17.36,17.36,0,0,1,2.09-.18,2.25,2.25,0,0,1,1.61.43,2.06,2.06,0,0,1,.37,1.48c0,1.17-.4,1.8-2.22,1.8a19.48,19.48,0,0,1-2.09-.16,16.56,16.56,0,0,0-2-.16c-18.09.07-36.07.08-49.71.08H195.66c-14.63,0-31.95,0-49.49,0H146c-3.28,0-6.17.31-8.37,4.24a8.64,8.64,0,0,1-7.72,4.31Z"/><path class="cls-34" d="M1015.23,798.74A9.18,9.18,0,0,1,1007,794c-1.92-3.58-4.46-3.87-7.34-3.87h-.24q-11.32.06-22.64,0H848.47q-11.31,0-22.64,0h-.24c-2.88,0-5.42.29-7.35,3.87a9.16,9.16,0,0,1-8.24,4.78h0a11.47,11.47,0,0,1-3.22-.48,10.13,10.13,0,0,1-7-9.66,9.66,9.66,0,0,1,6.66-9.46,10.11,10.11,0,0,1,3.66-.69A8.89,8.89,0,0,1,818,783c2,3.42,4.4,4.09,7.89,4.09,14.65,0,30.13-.06,50.3-.06h72.89c20.17,0,35.65,0,50.21.06,3.57,0,6-.67,8-4.09a8.89,8.89,0,0,1,7.88-4.5,10.11,10.11,0,0,1,3.66.69,9.66,9.66,0,0,1,6.66,9.46,10.14,10.14,0,0,1-7,9.66A11.47,11.47,0,0,1,1015.23,798.74Z"/><path class="cls-35" d="M119.11,693.58a10.94,10.94,0,0,1-7.82-3.43,10.06,10.06,0,0,1,.66-14.4,10.63,10.63,0,0,1,7-2.67,8.46,8.46,0,0,1,7.47,4c2.59,4.3,5.8,4.66,9.14,4.66h.71c2.78,0,5.75-.06,9.1-.06q5.9,0,11.8,0l6.14,0h1.37c1.77,0,2.09.38,2.15,1.29a1.65,1.65,0,0,1-.29,1.29c-.52.57-2,.57-3.09.57H141.85c-1.32,0-2.63,0-3.95,0h-1.41c-4,0-7.75.4-10.82,5.24a7.45,7.45,0,0,1-6.56,3.41Z"/><path class="cls-36" d="M1352.25,361v.06a6,6,0,0,1-6,5.94H997a6,6,0,0,1-5.71-4,50.76,50.76,0,0,1,79.84-56.18c-.1-1.58-.15-3.17-.15-4.78a78,78,0,0,1,154.7-14.26A40,40,0,0,1,1294,316c0,.39,0,.77,0,1.15A45.67,45.67,0,0,1,1352.25,361Z"/><path class="cls-37" d="M981.55,1048.12S891,909,1024,849s174,82,269,77,90.88-102.1,194-53c126,60,161-160,251-109,95.56,54.15,86,272-74,268S981.55,1048.12,981.55,1048.12Z"/><path class="cls-38" d="M1155.5,1008.5a3.09,3.09,0,0,1-3.09-3.09v-164a3.09,3.09,0,0,1,6.18,0v164A3.09,3.09,0,0,1,1155.5,1008.5Z"/><path class="cls-39" d="M1177.16,1008.5a3.1,3.1,0,0,1-3.1-3.09V943l20.63-20.63a3.1,3.1,0,1,1,4.38,4.38l-18.82,18.81v59.83A3.09,3.09,0,0,1,1177.16,1008.5Z"/><path class="cls-40" d="M1156.27,919.94a3.1,3.1,0,0,1-2.19-5.28l29.59-29.59a3.1,3.1,0,1,1,4.38,4.38L1158.46,919A3.07,3.07,0,0,1,1156.27,919.94Z"/><path class="cls-41" d="M1202.68,890.16h-20.11V869a3.1,3.1,0,1,1,6.19,0v15h13.92a3.1,3.1,0,1,1,0,6.19Z"/><path class="cls-42" d="M1133.84,1008.5a3.09,3.09,0,0,1-3.09-3.09V945.58l-18.82-18.81a3.1,3.1,0,1,1,4.38-4.38L1136.94,943v62.39A3.1,3.1,0,0,1,1133.84,1008.5Z"/><path class="cls-43" d="M1154.73,919.94a3.07,3.07,0,0,1-2.19-.91L1123,889.45a3.1,3.1,0,1,1,4.38-4.38l29.58,29.59a3.08,3.08,0,0,1,0,4.37A3,3,0,0,1,1154.73,919.94Z"/><path class="cls-44" d="M1128.43,890.16h-20.11a3.1,3.1,0,1,1,0-6.19h13.92V869a3.1,3.1,0,1,1,6.19,0Z"/><path class="cls-45" d="M1651.67,999.5a1.83,1.83,0,0,1-1.83-1.83V900.8a1.83,1.83,0,1,1,3.66,0v96.87A1.83,1.83,0,0,1,1651.67,999.5Z"/><path class="cls-46" d="M1664.46,999.5a1.83,1.83,0,0,1-1.82-1.83V960.82l12.18-12.19a1.83,1.83,0,0,1,2.59,2.58l-11.12,11.12v35.34A1.83,1.83,0,0,1,1664.46,999.5Z"/><path class="cls-47" d="M1652.13,947.18a1.83,1.83,0,0,1-1.3-3.12l17.48-17.48a1.83,1.83,0,0,1,2.59,2.58l-17.48,17.48A1.83,1.83,0,0,1,1652.13,947.18Z"/><path class="cls-48" d="M1679.54,929.59h-11.88V917.08a1.83,1.83,0,1,1,3.66,0v8.85h8.22a1.83,1.83,0,0,1,0,3.66Z"/><path class="cls-49" d="M1638.87,999.5a1.82,1.82,0,0,1-1.82-1.83V962.33l-11.12-11.12a1.82,1.82,0,0,1,2.58-2.58l12.19,12.19v36.85A1.83,1.83,0,0,1,1638.87,999.5Z"/><path class="cls-50" d="M1651.21,947.18a1.83,1.83,0,0,1-1.29-.54l-17.48-17.48a1.83,1.83,0,0,1,2.59-2.58l17.48,17.48a1.83,1.83,0,0,1-1.3,3.12Z"/><path class="cls-51" d="M1635.68,929.59h-11.89a1.83,1.83,0,0,1,0-3.66H1632v-8.85a1.83,1.83,0,0,1,3.66,0Z"/><path class="cls-52" d="M950,1003a103.45,103.45,0,0,1-.74,12.42c-.09.75-.19,1.51-.3,2.26a97.06,97.06,0,0,1-3.51,15.47q-1.16,3.67-2.58,7.16c-.34.85-.7,1.69-1.07,2.52s-.85,1.89-1.31,2.81a81.3,81.3,0,0,1-4.53,8.16h0q-1.25,2-2.6,3.86h0q-1.7,2.37-3.55,4.56a68.59,68.59,0,0,1-6.33,6.62q-1.87,1.73-3.85,3.27a60.32,60.32,0,0,1-7.12,4.79c-1.31.75-2.65,1.45-4,2.09-.74.35-1.49.68-2.24,1H742.33c-.57-2.57-1-5.2-1.42-7.86-.15-1.1-.29-2.19-.4-3.3a108.44,108.44,0,0,1,.56-28A95.76,95.76,0,0,1,756,1001.6c.75-1.11,1.52-2.19,2.3-3.24C770.4,982.12,787.52,972,806.5,972a53.51,53.51,0,0,1,20.14,4c8.73-31.44,32.23-54,59.86-54a51.46,51.46,0,0,1,21.76,4.87,60,60,0,0,1,14.4,9.54q1,.9,2,1.86a76.93,76.93,0,0,1,15.57,21.58,90.67,90.67,0,0,1,6,15.7,99.22,99.22,0,0,1,3,15q.47,3.84.63,7.78c.05,1.07.09,2.15.1,3.23C950,1002.06,950,1002.53,950,1003Z"/><path class="cls-53" d="M987,745.5s4-16,17-28,23-49,39-40,1,39-20,49-36,44-36,44Z"/><path class="cls-54" d="M975,738.5s-3-13-12-21-15-16-21-25-16-6-18,2-1,17,12,27,36,25,39,34Z"/><path class="cls-55" d="M977,859.5v-17s-2,0-8-13-5-10-14-24-7-36-22-37-14,14-10,24,13,20,32,33C970.22,835.91,977,859.5,977,859.5Z"/><path class="cls-56" d="M986,860.5v-17s3-.79,9-15,5-9,9-27c3.85-17.33,3-36,23-40,14.75-3,16,15.07,12,26s-12,18.79-31,33C992.78,831.88,986,860.5,986,860.5Z"/><path class="cls-57" d="M987,663.5a148.79,148.79,0,0,1,12-17c6-7,13-27,22-25s6,18-4,29-30,40-30,40Z"/><path class="cls-58" d="M972,628.5s-21-30-34-22,5,28.42,14,35a190,190,0,0,1,20,17Z"/><path class="cls-59" d="M991.5,590l-5.11,322.5a5.89,5.89,0,0,1-11.78,0L969.5,590a11,11,0,0,1,22-.35Z"/><path class="cls-60" d="M1759,805.75s4.72-18.88,20.06-33,27.14-57.82,46-47.2,1.18,46-23.6,57.82S1759,835.25,1759,835.25Z"/><path class="cls-61" d="M1757.56,783.33s-3.83-16.57-15.3-26.77-19.12-20.39-26.77-31.86-20.39-7.65-22.94,2.55-1.28,21.67,15.29,34.41,45.89,31.87,49.72,43.34Z"/><path class="cls-62" d="M1753.65,906.35V888.41s-2.11,0-8.44-13.71-5.27-10.55-14.77-25.31-7.38-38-23.2-39-14.77,14.76-10.55,25.31,13.71,21.1,33.75,34.81C1746.5,881.47,1753.65,906.35,1753.65,906.35Z"/><path class="cls-63" d="M1763,911.7V892.41s3.4-.9,10.21-17,5.68-10.22,10.21-30.64c4.37-19.66,3.41-40.85,26.1-45.39,16.73-3.34,18.16,17.11,13.62,29.51s-13.62,21.32-35.18,37.44C1770.7,879.22,1763,911.7,1763,911.7Z"/><path class="cls-64" d="M1764,681.17a154.82,154.82,0,0,1,12.52-17.74c6.26-7.3,13.56-28.17,23-26.08s6.26,18.78-4.17,30.25-31.3,41.74-31.3,41.74Z"/><path class="cls-65" d="M1748,658.65s-21.91-31.3-35.47-22.95,5.17,29.65,14.6,36.51A198.33,198.33,0,0,1,1748,690Z"/><path class="cls-66" d="M1768.78,616.48,1763.45,953a6.15,6.15,0,0,1-12.3,0l-5.32-336.47a11.48,11.48,0,0,1,23-.36Z"/><path class="cls-67" d="M1687,1060.5a120.67,120.67,0,0,1-.87,14.47c-.21,1.69-.45,3.37-.72,5H1376.59a120.56,120.56,0,0,1-.82-33.12c.38-3.28.88-6.5,1.52-9.67.12-.62.25-1.25.39-1.87.09-.4.18-.8.28-1.2a107.65,107.65,0,0,1,9.14-25.27,94,94,0,0,1,15.15-21.64,73.8,73.8,0,0,1,32.12-20.45,65,65,0,0,1,11.29-2.35c.16-.26.32-.52.49-.77,16-25.73,43.09-42.66,73.85-42.66,28.64,0,54.13,14.67,70.4,37.47q2.44,3.42,4.61,7.08a63.75,63.75,0,0,1,14-1.55q1.92,0,3.81.12a63.09,63.09,0,0,1,15.15,2.76h0a64.71,64.71,0,0,1,9.08,3.55c1.24.59,2.45,1.21,3.65,1.87a72.73,72.73,0,0,1,9.14,6q1.88,1.41,3.66,3a83.53,83.53,0,0,1,9.14,9.19q1.88,2.22,3.65,4.58a98.11,98.11,0,0,1,10.23,17.13,107.14,107.14,0,0,1,5.21,13.41c.6,1.9,1.15,3.84,1.64,5.8A117.33,117.33,0,0,1,1687,1060.5Z"/><g class="cls-68"><path class="cls-69" d="M1520.5,1075.5a2,2,0,0,1-2-2v-106a2,2,0,0,1,4,0v106A2,2,0,0,1,1520.5,1075.5Z"/><path class="cls-69" d="M1534.5,1075.5a2,2,0,0,1-2-2v-40.33l13.34-13.33a2,2,0,0,1,2.82,2.82l-12.16,12.17v38.67A2,2,0,0,1,1534.5,1075.5Z"/><path class="cls-69" d="M1521,1018.25a2,2,0,0,1-1.42-3.41l19.13-19.13a2,2,0,0,1,2.83,2.83l-19.13,19.13A2,2,0,0,1,1521,1018.25Z"/><path class="cls-69" d="M1551,999h-13V985.31a2,2,0,0,1,4,0V995h9a2,2,0,0,1,0,4Z"/><path class="cls-69" d="M1506.5,1075.5a2,2,0,0,1-2-2v-38.67l-12.17-12.17a2,2,0,1,1,2.83-2.82l13.34,13.33v40.33A2,2,0,0,1,1506.5,1075.5Z"/><path class="cls-69" d="M1520,1018.25a2,2,0,0,1-1.41-.58l-19.13-19.13a2,2,0,0,1,2.83-2.83l19.12,19.13a2,2,0,0,1-1.41,3.41Z"/><path class="cls-69" d="M1503,999h-13a2,2,0,0,1,0-4h9v-9.69a2,2,0,0,1,4,0Z"/></g><path class="cls-70" d="M1184.89,1080H1065.24c-.24.34-.49.67-.74,1v-1H833.84c-.52-2.63-1-5.25-1.32-7.86-.16-1.1-.3-2.21-.42-3.31s-.21-1.92-.29-2.88a115.46,115.46,0,0,1,.76-28.26,92.43,92.43,0,0,1,13.4-36.1q1-1.65,2.19-3.24,2.33-3.3,5-6.41c14-16.3,33.24-26.37,55.1-30.39a129.78,129.78,0,0,1,32-1.7c2,.12,4,.3,6,.52,1,.1,2,.21,3,.35s1.7.21,2.56.34a169.79,169.79,0,0,1,31.09,7.54q2.12-2.86,4.35-5.56a117.1,117.1,0,0,1,13-13.48c14.79-13,32.26-21.32,51.49-23.3,28.63-3,56.32,8.58,79,30.11q3.16,3,6.19,6.26a156.79,156.79,0,0,1,15.47,19.62q3.24,4.8,6.18,9.93c.7,1.2,1.38,2.41,2.05,3.64.47.84.92,1.69,1.37,2.55.56,1.06,1.11,2.13,1.65,3.22a199.82,199.82,0,0,1,14.8,39.62,215.46,215.46,0,0,1,5.3,27.64c.15,1.09.28,2.18.39,3.28.07.6.14,1.2.2,1.8C1184.56,1076,1184.74,1078,1184.89,1080Z"/><g class="cls-68"><path class="cls-69" d="M1064.5,978.5V1080h-4V978.5a2,2,0,0,1,4,0Z"/><path class="cls-69" d="M1090.66,1033.66l-.73.73-10.14,10.15-1.29,1.29V1080h-4v-35.83l.15-.15,12.08-12.07,1.11-1.11a2,2,0,0,1,2.82,2.82Z"/><path class="cls-69" d="M1063,1029.25a2,2,0,0,1-1.42-3.41l19.13-19.13a2,2,0,0,1,2.83,2.83l-19.13,19.13A2,2,0,0,1,1063,1029.25Z"/><path class="cls-69" d="M1093,1010h-13V996.31a2,2,0,0,1,4,0V1006h9a2,2,0,0,1,0,4Z"/><path class="cls-69" d="M1050.5,1044.17V1080h-4v-34.17l-.1-.1-11.34-11.34-.73-.73a2,2,0,1,1,2.83-2.82l1.11,1.11Z"/><path class="cls-69" d="M1062,1029.25a2,2,0,0,1-1.41-.58l-19.13-19.13a2,2,0,0,1,2.83-2.83l19.12,19.13a2,2,0,0,1-1.41,3.41Z"/><path class="cls-69" d="M1045,1010h-13a2,2,0,0,1,0-4h9v-9.69a2,2,0,0,1,4,0Z"/></g><g class="cls-68"><path class="cls-69" d="M912.5,1011.5V1080h-4v-68.5a2,2,0,0,1,4,0Z"/><path class="cls-69" d="M939,1066.24a1.8,1.8,0,0,1-.32.42l-.73.73-1.46,1.46-3.28,3.28-6.69,6.7V1080h-4v-2.83l5-5,3.29-3.28,3.9-3.9.41-.42.7-.69a2,2,0,0,1,3.14,2.4Z"/><path class="cls-69" d="M911,1062.25a2,2,0,0,1-1.42-3.41l19.13-19.13a2,2,0,0,1,2.83,2.83l-19.13,19.13A2,2,0,0,1,911,1062.25Z"/><path class="cls-69" d="M941,1043H928v-13.69a2,2,0,0,1,4,0V1039h9a2,2,0,0,1,0,4Z"/><path class="cls-69" d="M898.5,1077.17V1080h-4v-1.17l-6.7-6.7-3.3-3.3-1.44-1.44-.73-.73a2,2,0,0,1,2.83-2.82l1.11,1.11,3.88,3.88h0Z"/><path class="cls-69" d="M910,1062.25a2,2,0,0,1-1.41-.58l-19.13-19.13a2,2,0,0,1,2.83-2.83l19.12,19.13a2,2,0,0,1-1.41,3.41Z"/><path class="cls-69" d="M893,1043H880a2,2,0,0,1,0-4h9v-9.69a2,2,0,0,1,4,0Z"/></g><path class="cls-71" d="M225,1069.5a98.12,98.12,0,0,1-.56,10.5H0V898.29c10,9.33,18.55,21.38,25.26,35.39C37.52,924.93,51.35,920,66,920c33.44,0,62.67,25.68,78.47,63.94.45,1.07.89,2.15,1.31,3.25.23.59.46,1.19.68,1.79A57.56,57.56,0,0,1,157,988c23.8,0,44.75,14.66,56.89,36.85a87.28,87.28,0,0,1,6.92,16.45,93.33,93.33,0,0,1,3.12,13.71A98.33,98.33,0,0,1,225,1069.5Z"/><path class="cls-72" d="M270.12,1080H0V994.26c27.6,2.37,51.44,21,64.9,47.92C82,1028.19,102.71,1020,125,1020c30.63,0,58.24,15.46,77.72,40.21a50.71,50.71,0,0,1,21.21-5.2H225a51.66,51.66,0,0,1,29.52,9.43A62.9,62.9,0,0,1,269,1078.52C269.41,1079,269.77,1079.5,270.12,1080Z"/><rect class="cls-73" x="908.26" y="870.98" width="38" height="146.02"/><rect class="cls-74" x="949.26" y="901.98" width="51" height="137.02"/><rect class="cls-75" x="1006.26" y="952.98" width="27" height="59.02"/><rect class="cls-76" x="987.26" y="901.98" width="13" height="137.02"/><circle class="cls-77" cx="923.26" cy="880.98" r="1"/><circle class="cls-77" cx="923.26" cy="895.18" r="1.5"/><circle class="cls-77" cx="923.26" cy="909.38" r="2"/><circle class="cls-77" cx="923.26" cy="951.98" r="1"/><circle class="cls-77" cx="923.26" cy="937.78" r="1.5"/><circle class="cls-77" cx="923.26" cy="923.58" r="2"/><circle class="cls-77" cx="965.26" cy="916.98" r="1"/><circle class="cls-77" cx="965.26" cy="931.18" r="1.5"/><circle class="cls-77" cx="965.26" cy="945.38" r="2"/><circle class="cls-77" cx="965.26" cy="987.98" r="1"/><circle class="cls-77" cx="965.26" cy="973.78" r="1.5"/><circle class="cls-77" cx="965.26" cy="959.58" r="2"/><path class="cls-78" d="M1075,1050a51.23,51.23,0,0,1-3.59,18.83c-.45,1.13-.93,2.23-1.45,3.31a50.68,50.68,0,0,1-4.72,7.86c-.24.34-.49.67-.74,1v-1H982.76a50.78,50.78,0,0,1-4.72-7.87c-.52-1.08-1-2.18-1.45-3.3a50.64,50.64,0,0,1-3.3-13.34A52.26,52.26,0,0,1,973,1050a51.12,51.12,0,0,1,.93-9.73c.08-.42.17-.85.27-1.27.18-.88.4-1.76.65-2.62a51.12,51.12,0,0,1,25.41-31.52,47.46,47.46,0,0,1,6-2.68c.54-.21,1.09-.4,1.64-.58h0A50.64,50.64,0,0,1,1024,999a51.36,51.36,0,0,1,9.26.84,50.43,50.43,0,0,1,6.84,1.76h0l.89.31c1.36.47,2.69,1,4,1.6a50.91,50.91,0,0,1,15.5,10.88,48.76,48.76,0,0,1,4,4.61l.65.87c.34.46.67.93,1,1.4.77,1.13,1.5,2.3,2.17,3.49a50.5,50.5,0,0,1,6.33,19.26c0,.23.06.46.08.7A51.14,51.14,0,0,1,1075,1050Z"/><path class="cls-79" d="M1695.47,1080H1065.24c-.24.34-.49.67-.74,1v-1h-140l2-1.09q6.36-3.45,12.79-6.78,2.93-1.53,5.86-3l.55-.28h0q13.63-6.93,27.58-13.35c2.55-1.17,5.11-2.34,7.67-3.48,3.2-1.44,6.38-2.85,9.61-4.23h0q17.91-7.76,36.28-14.64,3-1.14,6.07-2.25h0c.25-.1.49-.19.74-.27h0q3.08-1.12,6.16-2.22,7.56-2.69,15.19-5.23l4.25-1.4,1.18-.39,4-1.29.65-.2,3.52-1.12c2.71-.85,5.43-1.69,8.16-2.5q7.55-2.29,15.15-4.42l4.08-1.12q3.42-.94,6.85-1.85l4.08-1.08q11.8-3.06,23.76-5.77l1.71-.42h.12c1.45-.33,2.9-.65,4.36-1,3.55-.78,7-1.54,10.61-2.27h.06l4.8-1c2.06-.41,4.11-.81,6.18-1.2l2.05-.38q6.69-1.26,13.42-2.4,3.09-.54,6.19-1,38.13-6.18,77.39-8.72,13.08-.85,26.28-1.27l4.62-.13q10.7-.28,21.46-.28a812.07,812.07,0,0,1,92.25,5.23c1.57.17,3.13.35,4.69.54q35.18,4.22,69.37,11.41l4.31.92,1.22.26h0l2.72.59h0l5.28,1.19.21.05q8.61,2,17.16,4.11,3.81,1,7.61,2l3.66,1c1.33.35,2.67.71,4,1.08l1.27.34,4.42,1.24q3.42.95,6.83,1.94,4,1.15,8,2.37c1.44.42,2.87.86,4.3,1.3,2,.6,3.92,1.22,5.88,1.84h0c1.43.45,2.85.9,4.27,1.37q13.85,4.45,27.48,9.4l1.93.71,1.9.72h.06q2.6.95,5.17,1.92,23.49,8.85,46.25,19.1,4.89,2.2,9.75,4.47,6.75,3.13,13.42,6.4,5.44,2.65,10.83,5.4,6,3,11.88,6.14Q1690.82,1077.46,1695.47,1080Z"/><path class="cls-80" d="M1695.47,1080H1314.21q30-17.85,61.56-33.12,10.29-5,20.73-9.66h0q2.79-1.28,5.61-2.49c.44-.2.88-.4,1.32-.58h0a795.42,795.42,0,0,1,78.29-29.47h0q4.05-1.29,8.11-2.53l.21.05q8.61,2,17.16,4.11,3.81,1,7.61,2l3.66,1c1.33.35,2.67.71,4,1.08l1.27.34,4.42,1.24q3.42.95,6.83,1.94,4,1.15,8,2.37c1.44.42,2.87.86,4.3,1.3,2,.6,3.92,1.22,5.88,1.84h0c1.43.45,2.85.9,4.27,1.37q13.85,4.45,27.48,9.4l1.93.71,1.91.72h0q2.6.95,5.17,1.92,23.49,8.85,46.25,19.1,4.89,2.2,9.75,4.47,6.75,3.13,13.42,6.4,5.44,2.65,10.83,5.4,6,3,11.88,6.14Q1690.82,1077.46,1695.47,1080Z"/><path class="cls-81" d="M988.69,1080H829.31a72.84,72.84,0,0,1,1.08-7.86c.2-1.11.43-2.21.68-3.31s.47-1.93.74-2.88a80,80,0,0,1,71.5-58.75c1.4-.1,2.81-.16,4.24-.18H909c1.8,0,3.58.06,5.35.18,1.42.09,2.83.22,4.22.39a79.36,79.36,0,0,1,27.69,8.63c.91.47,1.81,1,2.7,1.48l.3.18A80.41,80.41,0,0,1,973,1039c.31.42.62.84.92,1.27a79.4,79.4,0,0,1,13,28.55c.26,1.1.49,2.2.69,3.32A72.84,72.84,0,0,1,988.69,1080Z"/><path class="cls-82" d="M966,1080H631q7.24-4.11,14.72-7.86c2.22-1.12,4.46-2.22,6.71-3.28a337.15,337.15,0,0,1,88.67-28A341.86,341.86,0,0,1,798.5,1036q17.25,0,34.07,1.69,6.2.6,12.31,1.45,10.77,1.45,21.31,3.59h0c1.64.32,3.28.66,4.91,1h0c1.44.31,2.89.64,4.32,1,1.64.38,3.27.76,4.89,1.17q8.71,2.14,17.25,4.75,4.17,1.24,8.28,2.63c.88.28,1.77.58,2.65.88,1.34.46,2.67.92,4,1.4l.27.09c1.39.49,2.77,1,4.15,1.51q6.51,2.41,12.88,5.08,2.18.9,4.33,1.85h0c.34.13.68.28,1,.43l3.84,1.71c1.17.53,2.35,1.07,3.51,1.62.7.32,1.39.64,2.07,1l.59.28q3.09,1.47,6.14,3h0Q958.77,1075.88,966,1080Z"/><path class="cls-83" d="M1722.79,1080H1572.21q1.44-6,3.36-11.6a.13.13,0,0,1,0-.06c.85-2.54,1.78-5,2.76-7.45a121.58,121.58,0,0,1,5.87-12.44,109,109,0,0,1,9.79-15c.52-.66,1-1.31,1.58-2a82.69,82.69,0,0,1,17.9-16.34c.91-.61,1.83-1.19,2.76-1.75a60.4,60.4,0,0,1,31.26-8.94,59.78,59.78,0,0,1,29,7.66,69.52,69.52,0,0,1,8,5.12,81.79,81.79,0,0,1,13,12C1709.06,1042.4,1717.92,1059.91,1722.79,1080Z"/><path class="cls-84" d="M1866,1078.5c0,.5,0,1,0,1.5H1674c0-.5,0-1,0-1.5,0-3.25.08-6.48.25-9.67.3-6.13.91-12.15,1.79-18a176.41,176.41,0,0,1,4-19.18q.81-3.08,1.74-6.08c.86-2.81,1.78-5.58,2.77-8.29A144.12,144.12,0,0,1,1700.29,986c.61-.91,1.23-1.81,1.86-2.68,13.11-18.36,30-31.44,48.9-36.74a70.71,70.71,0,0,1,12.54-2.33q3.18-.28,6.41-.29a70.12,70.12,0,0,1,19.82,2.87C1833.33,959.66,1866,1013.74,1866,1078.5Z"/><path class="cls-69" d="M1772,971q.59,13.62.78,27.25c.16,9.08.2,18.17.22,27.25s-.06,18.17-.22,27.25-.39,18.17-.78,27.25q-.59-13.62-.78-27.25c-.16-9.08-.2-18.17-.22-27.25s.06-18.17.22-27.25S1771.61,980.08,1772,971Z"/><path class="cls-69" d="M1737,991c3.08,2.9,6.07,5.88,9.11,8.82s6,5.95,9,9q8.91,9,17.65,18.17h-1.43q8.73-8.69,17.57-17.26c3-2.85,5.93-5.68,8.91-8.5s6-5.62,9-8.36c-2.74,3.06-5.58,6-8.36,9s-5.65,6-8.5,8.91c-5.69,5.91-11.47,11.75-17.25,17.57l-.73.72-.7-.74q-8.74-9.16-17.35-18.47-4.29-4.65-8.54-9.36C1742.6,997.33,1739.75,994.21,1737,991Z"/><path class="cls-69" d="M1737,1026c3.08,2.9,6.07,5.88,9.11,8.82s6,6,9,9q8.91,9,17.65,18.17h-1.43q8.73-8.68,17.57-17.26c3-2.85,5.93-5.68,8.91-8.5s6-5.62,9-8.36c-2.74,3.06-5.58,6-8.36,9s-5.65,6-8.5,8.91c-5.69,5.91-11.47,11.75-17.25,17.57l-.73.72-.7-.74q-8.74-9.16-17.35-18.47-4.29-4.65-8.54-9.36C1742.6,1032.33,1739.75,1029.21,1737,1026Z"/><path class="cls-69" d="M1755.15,1080a56.17,56.17,0,0,1-5.1-4.21c-1.63-1.48-3.17-3-4.7-4.6s-3-3.21-4.38-4.9a56.13,56.13,0,0,1-4-5.29,56.17,56.17,0,0,1,5.1,4.21c1.63,1.47,3.17,3,4.7,4.6s3,3.21,4.37,4.9A54.55,54.55,0,0,1,1755.15,1080Z"/><path class="cls-69" d="M1806.82,1062.82a46.93,46.93,0,0,1-3.75,4.84q-2,2.31-4.13,4.46c-1.43,1.43-2.92,2.81-4.45,4.14a48.4,48.4,0,0,1-4.85,3.74,48.4,48.4,0,0,1,3.74-4.85c1.33-1.53,2.71-3,4.14-4.45s2.92-2.81,4.46-4.13A46.93,46.93,0,0,1,1806.82,1062.82Z"/><path class="cls-69" d="M1650,1080c-.41-4.17-.63-8.33-.78-12.5s-.2-8.33-.22-12.5.06-8.33.22-12.5.36-8.33.78-12.5c.42,4.17.63,8.33.78,12.5s.2,8.33.22,12.5-.06,8.33-.22,12.5S1650.41,1075.83,1650,1080Z"/><path class="cls-69" d="M1621.05,1046.54c2.58,2.37,5.06,4.83,7.59,7.24s5,4.9,7.45,7.38c4.94,4.94,9.8,10,14.63,15h-1.43c4.82-4.79,9.65-9.56,14.56-14.25,2.45-2.35,4.93-4.67,7.41-7s5-4.62,7.54-6.86c-2.24,2.56-4.57,5-6.86,7.54s-4.64,5-7,7.41c-4.69,4.91-9.46,9.74-14.24,14.56l-.73.72-.7-.74c-4.82-5.06-9.61-10.14-14.32-15.3-2.37-2.57-4.7-5.17-7-7.78S1623.3,1049.23,1621.05,1046.54Z"/><path class="cls-69" d="M1625.36,1080a4.37,4.37,0,0,1-1.64-.59,5.57,5.57,0,0,1-2.16-2.25,4.32,4.32,0,0,1-.51-1.67,4.66,4.66,0,0,1,1.65.58,6.24,6.24,0,0,1,1.23,1,5.64,5.64,0,0,1,.92,1.28A4.61,4.61,0,0,1,1625.36,1080Z"/><path class="cls-69" d="M1678.8,1077a2.83,2.83,0,0,1-.2,1.3,2.6,2.6,0,0,1-.59.91,2.84,2.84,0,0,1-.9.6.83.83,0,1,1-1.12-1.12,2.84,2.84,0,0,1,.6-.9,2.6,2.6,0,0,1,.91-.59A2.83,2.83,0,0,1,1678.8,1077Z"/><path class="cls-85" d="M1648.24,1080H1490.76a111.54,111.54,0,0,1,13.74-11.64c1.31-.95,2.65-1.86,4-2.74a108.08,108.08,0,0,1,10-5.82c1.32-.69,2.65-1.34,4-2a106.24,106.24,0,0,1,10-4.07c1.32-.47,2.66-.91,4-1.33a111.32,111.32,0,0,1,23.86-4.59c1.42-.12,2.85-.21,4.29-.26,1.61-.08,3.23-.11,4.85-.11a111.5,111.5,0,0,1,78.74,32.52Z"/><rect class="cls-86" x="1649.4" y="450.76" width="114.72" height="96.61" rx="13.36"/><rect class="cls-87" x="1629.32" y="429.68" width="118.72" height="100.61" rx="15.36"/><path class="cls-77" d="M1732.68,431.68A13.36,13.36,0,0,1,1746,445v69.89a13.36,13.36,0,0,1-13.36,13.36h-88a13.36,13.36,0,0,1-13.36-13.36V445a13.36,13.36,0,0,1,13.36-13.36h88m0-4h-88A17.38,17.38,0,0,0,1627.32,445v69.89a17.38,17.38,0,0,0,17.36,17.36h88A17.38,17.38,0,0,0,1750,514.93V445a17.38,17.38,0,0,0-17.36-17.36Z"/><path class="cls-77" d="M1654,506.15a2,2,0,0,1-1.11-.34,2,2,0,0,1-.56-2.79l12.07-18.12a2,2,0,0,1,2.58-.68l10.27,5.14L1688.39,467a2,2,0,0,1,2.92-.78L1707.43,477l9.77-22a2,2,0,0,1,3.68,1.64l-10.74,24.15a2,2,0,0,1-1.28,1.12,2,2,0,0,1-1.67-.26L1691,470.85,1679.91,493a2,2,0,0,1-2.7.9l-10.48-5.24-11.09,16.63A2,2,0,0,1,1654,506.15Z"/><circle class="cls-77" cx="1719.37" cy="454.49" r="6.04"/><path class="cls-77" d="M1673.08,457.17H1655a2,2,0,1,1,0-4h18.11a2,2,0,0,1,0,4Z"/><path class="cls-77" d="M1721.38,511.51H1661a2,2,0,1,1,0-4h60.37a2,2,0,1,1,0,4Z"/><path class="cls-77" d="M1665,466.57h-8a2,2,0,0,1,0-4h8a2,2,0,0,1,0,4Z"/></g></g></svg>