<svg width="160" height="160" viewBox="0 0 160 160" fill="none" xmlns="http://www.w3.org/2000/svg">
<g clip-path="url(#clip0_1230_231)">
<rect width="160" height="160" rx="80" fill="white"/>
<path d="M80 160C124.183 160 160 124.183 160 80C160 35.8172 124.183 0 80 0C35.8172 0 0 35.8172 0 80C0 124.183 35.8172 160 80 160Z" fill="white" stroke="url(#paint0_linear_1230_231)" stroke-width="2" stroke-miterlimit="10"/>
<path d="M38.9275 107.901C38.4956 107.899 38.0745 107.766 37.72 107.52C37.4781 107.361 37.27 107.156 37.1078 106.916C36.9456 106.676 36.8324 106.407 36.7748 106.123C36.7172 105.84 36.7163 105.548 36.7722 105.264C36.8281 104.98 36.9396 104.71 37.1003 104.469L50.3357 84.624C50.6344 84.1799 51.0842 83.8594 51.6014 83.722C52.1187 83.5847 52.6683 83.6398 53.148 83.8773L64.4131 89.5019L76.6475 65.0173C76.7886 64.7411 76.9862 64.4977 77.2276 64.303C77.469 64.1083 77.7487 63.9667 78.0485 63.8872C78.3482 63.8078 78.6614 63.7924 78.9675 63.842C79.2736 63.8916 79.5659 64.0051 79.8252 64.1752L97.5094 75.9487L108.203 51.8772C108.441 51.3421 108.882 50.9234 109.428 50.7133C109.975 50.5033 110.583 50.519 111.118 50.7571C111.653 50.9952 112.072 51.4361 112.282 51.9829C112.492 52.5297 112.476 53.1375 112.238 53.6727L100.481 80.1275C100.348 80.4116 100.157 80.6643 99.9197 80.8688C99.6822 81.0733 99.404 81.2249 99.1034 81.3136C98.8028 81.4022 98.4868 81.4259 98.1764 81.3831C97.8659 81.3402 97.5682 81.2317 97.3029 81.0649L79.4439 69.2278L67.3684 93.4423C67.2401 93.702 67.0616 93.9336 66.8432 94.1239C66.6248 94.3142 66.3709 94.4593 66.0961 94.5509C65.8213 94.6425 65.5311 94.6788 65.2423 94.6576C64.9534 94.6364 64.6716 94.5581 64.4131 94.4274L52.9255 88.6915L40.7706 106.916C40.5676 107.219 40.2933 107.467 39.9719 107.638C39.6506 107.81 39.2919 107.9 38.9275 107.901Z" fill="url(#paint1_linear_1230_231)"/>
<path d="M117.354 56.1032L114.399 47.7933C114.304 47.5189 114.156 47.266 113.964 47.0493C113.771 46.8325 113.537 46.6562 113.275 46.5306C113.013 46.4049 112.729 46.3325 112.44 46.3174C112.15 46.3023 111.86 46.345 111.587 46.4428L103.277 49.3663C102.99 49.4518 102.724 49.5945 102.495 49.7858C102.265 49.9771 102.077 50.2131 101.941 50.4793C101.805 50.7456 101.725 51.0367 101.705 51.3349C101.685 51.6332 101.725 51.9324 101.824 52.2144C101.923 52.4964 102.079 52.7554 102.281 52.9756C102.483 53.1959 102.728 53.3729 103 53.4958C103.272 53.6187 103.567 53.6851 103.866 53.6908C104.165 53.6965 104.462 53.6415 104.739 53.5292L110.983 51.3365L113.176 57.5649C113.389 58.0908 113.796 58.5143 114.314 58.7477C114.831 58.9811 115.418 59.0064 115.954 58.8184C116.489 58.6304 116.932 58.2435 117.19 57.7379C117.447 57.2324 117.501 56.647 117.338 56.1032H117.354Z" fill="url(#paint2_linear_1230_231)"/>
<path d="M110.379 103.262H52.0196C50.8964 103.262 49.9858 104.172 49.9858 105.295V105.566C49.9858 106.689 50.8964 107.599 52.0196 107.599H110.379C111.502 107.599 112.413 106.689 112.413 105.566V105.295C112.413 104.172 111.502 103.262 110.379 103.262Z" fill="url(#paint3_linear_1230_231)"/>
</g>
<defs>
<linearGradient id="paint0_linear_1230_231" x1="80" y1="-1.58888" x2="80" y2="161.589" gradientUnits="userSpaceOnUse">
<stop stop-color="#2696FF"/>
<stop offset="1" stop-color="#196EB0"/>
</linearGradient>
<linearGradient id="paint1_linear_1230_231" x1="63.6028" y1="68.052" x2="123.869" y2="129.462" gradientUnits="userSpaceOnUse">
<stop stop-color="#2696FF"/>
<stop offset="1" stop-color="#196EB0"/>
</linearGradient>
<linearGradient id="paint2_linear_1230_231" x1="95.3483" y1="36.9095" x2="155.614" y2="98.3196" gradientUnits="userSpaceOnUse">
<stop stop-color="#2696FF"/>
<stop offset="1" stop-color="#196EB0"/>
</linearGradient>
<linearGradient id="paint3_linear_1230_231" x1="27.8051" y1="51.0193" x2="223.762" y2="250.71" gradientUnits="userSpaceOnUse">
<stop stop-color="#2696FF"/>
<stop offset="1" stop-color="#196EB0"/>
</linearGradient>
<clipPath id="clip0_1230_231">
<rect width="160" height="160" rx="80" fill="white"/>
</clipPath>
</defs>
</svg>
