<svg xmlns="http://www.w3.org/2000/svg" xmlns:xlink="http://www.w3.org/1999/xlink" viewBox="0 0 102.7 102.7"><defs><style>.cls-1{fill:#fff;stroke-miterlimit:10;stroke-width:2px;stroke:url(#linear-gradient);}.cls-2{fill:url(#linear-gradient-2);}.cls-3{fill:url(#linear-gradient-3);}.cls-4{fill:url(#linear-gradient-4);}</style><linearGradient id="linear-gradient" x1="51.35" x2="51.35" y2="102.7" gradientUnits="userSpaceOnUse"><stop offset="0" stop-color="#2696ff"/><stop offset="1" stop-color="#196eb0"/></linearGradient><linearGradient id="linear-gradient-2" x1="41.03" y1="43.83" x2="78.96" y2="82.48" xlink:href="#linear-gradient"/><linearGradient id="linear-gradient-3" x1="61.01" y1="24.23" x2="98.94" y2="62.88" xlink:href="#linear-gradient"/><linearGradient id="linear-gradient-4" x1="18.5" y1="33.11" x2="141.83" y2="158.79" xlink:href="#linear-gradient"/></defs><g id="Layer_2" data-name="Layer 2"><g id="Layer_3" data-name="Layer 3"><circle class="cls-1" cx="51.35" cy="51.35" r="50.35"/><path class="cls-2" d="M25.5,68.91a1.34,1.34,0,0,1-.76-.24,1.38,1.38,0,0,1-.39-1.92l8.33-12.49a1.39,1.39,0,0,1,1.77-.47l7.09,3.54,7.7-15.41a1.39,1.39,0,0,1,2-.53L62.37,48.8,69.1,33.65a1.39,1.39,0,0,1,2.54,1.13l-7.4,16.65a1.39,1.39,0,0,1-2,.59L51,44.57,43.4,59.81a1.38,1.38,0,0,1-1.86.62l-7.23-3.61L26.66,68.29A1.4,1.4,0,0,1,25.5,68.91Z"/><path class="cls-3" d="M74.86,36.31,73,31.08a1.38,1.38,0,0,0-1.77-.85L66,32.07a1.39,1.39,0,1,0,.92,2.62l3.93-1.38,1.38,3.92a1.39,1.39,0,0,0,2.62-.92Z"/><rect class="cls-4" x="32.46" y="65.99" width="39.29" height="2.73" rx="1.28"/></g></g></svg>