<svg xmlns="http://www.w3.org/2000/svg" xmlns:xlink="http://www.w3.org/1999/xlink" viewBox="0 0 3105.03 3896.93"><defs><style>.cls-1{fill:none;}.cls-2{fill:#e8f9ff;}.cls-3{clip-path:url(#clip-path);}.cls-4{fill:url(#linear-gradient);}.cls-5{fill:#bce9fe;}.cls-6{fill:#d8f4ff;}.cls-7{fill:url(#linear-gradient-2);}.cls-8{fill:url(#linear-gradient-3);}.cls-9{fill:url(#linear-gradient-4);}.cls-10{fill:url(#linear-gradient-5);}.cls-11{fill:url(#linear-gradient-6);}.cls-12{fill:url(#linear-gradient-7);}.cls-13{fill:url(#linear-gradient-8);}.cls-14{fill:url(#linear-gradient-9);}.cls-15{fill:url(#linear-gradient-10);}.cls-16{fill:url(#linear-gradient-11);}.cls-17{fill:url(#linear-gradient-12);}.cls-18{fill:url(#linear-gradient-13);}.cls-19{fill:url(#linear-gradient-14);}.cls-20{fill:url(#linear-gradient-15);}.cls-21{fill:url(#linear-gradient-16);}.cls-22{fill:url(#linear-gradient-17);}.cls-23{fill:url(#linear-gradient-18);}.cls-24{fill:url(#linear-gradient-19);}.cls-25{fill:url(#linear-gradient-20);}.cls-26{fill:url(#linear-gradient-21);}.cls-27{fill:url(#linear-gradient-22);}.cls-28{fill:url(#linear-gradient-23);}.cls-29{fill:url(#linear-gradient-24);}.cls-30{fill:url(#linear-gradient-25);}.cls-31{fill:url(#linear-gradient-26);}.cls-32{fill:url(#linear-gradient-27);}.cls-33{fill:url(#linear-gradient-28);}.cls-34{fill:url(#linear-gradient-29);}.cls-35{fill:url(#linear-gradient-30);}.cls-36{fill:url(#linear-gradient-31);}.cls-37{fill:url(#linear-gradient-32);}.cls-38{fill:url(#linear-gradient-33);}.cls-39{fill:url(#linear-gradient-34);}.cls-40{fill:url(#linear-gradient-35);}.cls-41{fill:url(#linear-gradient-36);}.cls-42{fill:url(#linear-gradient-37);}.cls-43{fill:url(#linear-gradient-38);}.cls-44{fill:url(#linear-gradient-39);}.cls-45{fill:url(#linear-gradient-40);}.cls-46{fill:url(#linear-gradient-41);}.cls-47{fill:url(#linear-gradient-42);}.cls-48{fill:url(#linear-gradient-43);}.cls-49{fill:url(#linear-gradient-44);}.cls-50{fill:url(#linear-gradient-45);}.cls-51{fill:url(#linear-gradient-46);}.cls-52{fill:url(#linear-gradient-47);}.cls-53{fill:url(#linear-gradient-48);}.cls-54{fill:url(#linear-gradient-49);}.cls-55{fill:url(#linear-gradient-50);}.cls-56{fill:url(#linear-gradient-51);}.cls-57{fill:url(#linear-gradient-52);}.cls-58{fill:url(#linear-gradient-53);}.cls-59{fill:url(#linear-gradient-54);}.cls-60{fill:url(#linear-gradient-55);}.cls-61{fill:url(#linear-gradient-56);}.cls-62{fill:url(#linear-gradient-57);}.cls-63{fill:url(#linear-gradient-58);}.cls-64{fill:url(#linear-gradient-59);}.cls-65{fill:url(#linear-gradient-60);}.cls-66{fill:url(#linear-gradient-61);}.cls-67{fill:url(#linear-gradient-62);}.cls-68{fill:url(#linear-gradient-63);}.cls-69{fill:url(#linear-gradient-64);}.cls-70{fill:url(#linear-gradient-65);}.cls-71{fill:url(#linear-gradient-66);}.cls-72{fill:url(#linear-gradient-67);}.cls-73{fill:url(#linear-gradient-68);}.cls-74{fill:url(#linear-gradient-69);}.cls-75{fill:url(#linear-gradient-70);}.cls-76{fill:url(#linear-gradient-71);}.cls-77{fill:url(#linear-gradient-72);}.cls-78{fill:url(#linear-gradient-73);}.cls-79{fill:url(#linear-gradient-74);}.cls-80{fill:url(#linear-gradient-75);}.cls-81{fill:url(#linear-gradient-76);}.cls-82{fill:url(#linear-gradient-77);}.cls-83{fill:url(#linear-gradient-78);}.cls-84{fill:url(#linear-gradient-79);}.cls-85{fill:url(#linear-gradient-80);}.cls-86{fill:url(#linear-gradient-81);}.cls-87{fill:url(#linear-gradient-82);}.cls-88{fill:url(#linear-gradient-83);}.cls-89{fill:url(#linear-gradient-84);}.cls-90{fill:url(#linear-gradient-85);}.cls-91{fill:url(#linear-gradient-86);}.cls-92{fill:url(#linear-gradient-87);}.cls-93{fill:url(#linear-gradient-88);}.cls-94{fill:url(#linear-gradient-89);}.cls-95{fill:url(#linear-gradient-90);}.cls-96{fill:url(#linear-gradient-91);}.cls-97{fill:url(#linear-gradient-92);}.cls-98{fill:url(#linear-gradient-93);}.cls-99{fill:url(#linear-gradient-94);}.cls-100{fill:url(#linear-gradient-95);}.cls-101{fill:url(#linear-gradient-96);}.cls-102{fill:url(#linear-gradient-97);}.cls-103{fill:url(#linear-gradient-98);}.cls-104{fill:url(#linear-gradient-99);}.cls-105{fill:url(#linear-gradient-100);}.cls-106{fill:url(#linear-gradient-101);}.cls-107{fill:url(#linear-gradient-102);}.cls-108{fill:url(#linear-gradient-103);}.cls-109{fill:url(#linear-gradient-104);}.cls-110{fill:url(#linear-gradient-105);}.cls-111{fill:url(#linear-gradient-106);}.cls-112{fill:url(#linear-gradient-107);}.cls-113{fill:url(#linear-gradient-108);}.cls-114{fill:url(#linear-gradient-109);}.cls-115{fill:url(#linear-gradient-110);}.cls-116{fill:url(#linear-gradient-111);}.cls-117{fill:url(#linear-gradient-112);}.cls-118{fill:url(#linear-gradient-113);}.cls-119{fill:url(#linear-gradient-114);}</style><clipPath id="clip-path" transform="translate(567.03 1728)"><path class="cls-1" d="M1920,0V1070.65C1744.11,1182.91,1380.29,1260,960,1260S175.89,1182.91,0,1070.65V0Z"/></clipPath><linearGradient id="linear-gradient" x1="252.61" y1="51.45" x2="252.61" y2="176.52" gradientTransform="translate(205.09 665.21) rotate(90)" gradientUnits="userSpaceOnUse"><stop offset="0" stop-color="#cfedff"/><stop offset="1" stop-color="#6ac2f7"/></linearGradient><linearGradient id="linear-gradient-2" x1="824.29" y1="2241.03" x2="2140.76" y2="1174.67" gradientUnits="userSpaceOnUse"><stop offset="0" stop-color="#c9f0ff"/><stop offset="1" stop-color="#88d8fd"/></linearGradient><linearGradient id="linear-gradient-3" x1="1764.03" y1="2805.86" x2="1764.03" y2="2473.86" xlink:href="#linear-gradient-2"/><linearGradient id="linear-gradient-4" x1="1624.53" y1="2775.17" x2="1624.53" y2="2550.72" xlink:href="#linear-gradient-2"/><linearGradient id="linear-gradient-5" x1="1903.53" y1="2776.31" x2="1903.53" y2="2568.01" xlink:href="#linear-gradient-2"/><linearGradient id="linear-gradient-6" x1="590.3" y1="1172.79" x2="1638" y2="1172.79" xlink:href="#linear-gradient-2"/><linearGradient id="linear-gradient-7" x1="598.39" y1="1243.72" x2="651.74" y2="886.17" gradientTransform="matrix(1, 0, 0, 1, 0, 0)" xlink:href="#linear-gradient"/><linearGradient id="linear-gradient-8" x1="410.17" y1="1007.77" x2="410.17" y2="1103.46" gradientUnits="userSpaceOnUse"><stop offset="0" stop-color="#2696ff"/><stop offset="1" stop-color="#196eb0"/></linearGradient><linearGradient id="linear-gradient-9" x1="425.79" y1="1007.77" x2="425.79" y2="1103.46" xlink:href="#linear-gradient-8"/><linearGradient id="linear-gradient-10" x1="417.89" y1="1007.77" x2="417.89" y2="1103.46" xlink:href="#linear-gradient-8"/><linearGradient id="linear-gradient-11" x1="410.55" y1="1007.77" x2="410.55" y2="1103.46" xlink:href="#linear-gradient-8"/><linearGradient id="linear-gradient-12" x1="433.56" y1="1007.77" x2="433.56" y2="1103.46" xlink:href="#linear-gradient-8"/><linearGradient id="linear-gradient-13" x1="438.16" y1="1007.77" x2="438.16" y2="1103.46" xlink:href="#linear-gradient-8"/><linearGradient id="linear-gradient-14" x1="425.12" y1="1007.77" x2="425.12" y2="1103.46" xlink:href="#linear-gradient-8"/><linearGradient id="linear-gradient-15" x1="429.34" y1="1007.77" x2="429.34" y2="1103.46" xlink:href="#linear-gradient-8"/><linearGradient id="linear-gradient-16" x1="394.54" y1="1007.77" x2="394.54" y2="1103.46" xlink:href="#linear-gradient-8"/><linearGradient id="linear-gradient-17" x1="402.45" y1="1007.77" x2="402.45" y2="1103.46" xlink:href="#linear-gradient-8"/><linearGradient id="linear-gradient-18" x1="386.78" y1="1007.77" x2="386.78" y2="1103.46" xlink:href="#linear-gradient-8"/><linearGradient id="linear-gradient-19" x1="382.18" y1="1007.77" x2="382.18" y2="1103.46" xlink:href="#linear-gradient-8"/><linearGradient id="linear-gradient-20" x1="395.21" y1="1007.77" x2="395.21" y2="1103.46" xlink:href="#linear-gradient-8"/><linearGradient id="linear-gradient-21" x1="391" y1="1007.77" x2="391" y2="1103.46" xlink:href="#linear-gradient-8"/><linearGradient id="linear-gradient-22" x1="1262.35" y1="1344.05" x2="1157.76" y2="989.36" gradientTransform="matrix(1, 0, 0, 1, 0, 0)" xlink:href="#linear-gradient"/><linearGradient id="linear-gradient-23" x1="938.09" y1="1039.59" x2="938.09" y2="2338.41" gradientUnits="userSpaceOnUse"><stop offset="0" stop-color="#36adf7"/><stop offset="1" stop-color="#0d76a5"/></linearGradient><linearGradient id="linear-gradient-24" x1="904.77" y1="1891.42" x2="-445.8" y2="1213.86" gradientTransform="matrix(1.06, 0.09, -0.1, 1, 88.19, -18.34)" xlink:href="#linear-gradient-8"/><linearGradient id="linear-gradient-25" x1="113.36" y1="284.11" x2="1896.61" y2="284.11" gradientUnits="userSpaceOnUse"><stop offset="0" stop-color="#fff" stop-opacity="0.05"/><stop offset="1" stop-color="#fff" stop-opacity="0.2"/></linearGradient><linearGradient id="linear-gradient-26" x1="113.53" y1="574.56" x2="1896.43" y2="574.56" xlink:href="#linear-gradient-25"/><linearGradient id="linear-gradient-27" x1="119.72" y1="287.14" x2="1896.29" y2="287.14" xlink:href="#linear-gradient-25"/><linearGradient id="linear-gradient-28" x1="114.24" y1="329.06" x2="1895.63" y2="329.06" xlink:href="#linear-gradient-25"/><linearGradient id="linear-gradient-29" x1="121.32" y1="574.39" x2="1895.54" y2="574.39" xlink:href="#linear-gradient-25"/><linearGradient id="linear-gradient-30" x1="124.21" y1="477.55" x2="1896.1" y2="477.55" xlink:href="#linear-gradient-25"/><linearGradient id="linear-gradient-31" x1="126.18" y1="252.78" x2="1896.28" y2="252.78" xlink:href="#linear-gradient-25"/><linearGradient id="linear-gradient-32" x1="126.94" y1="574.66" x2="1896.77" y2="574.66" xlink:href="#linear-gradient-25"/><linearGradient id="linear-gradient-33" x1="129.21" y1="169.1" x2="1896.82" y2="169.1" xlink:href="#linear-gradient-25"/><linearGradient id="linear-gradient-34" x1="118.98" y1="358.83" x2="1890.32" y2="358.83" xlink:href="#linear-gradient-25"/><linearGradient id="linear-gradient-35" x1="118.98" y1="685.1" x2="1890.32" y2="685.1" xlink:href="#linear-gradient-25"/><linearGradient id="linear-gradient-36" x1="165.24" y1="526.03" x2="1893" y2="526.03" xlink:href="#linear-gradient-25"/><linearGradient id="linear-gradient-37" x1="123.74" y1="1098.84" x2="1908.29" y2="1098.84" xlink:href="#linear-gradient-25"/><linearGradient id="linear-gradient-38" x1="123.84" y1="1152.25" x2="1908.18" y2="1152.25" xlink:href="#linear-gradient-25"/><linearGradient id="linear-gradient-39" x1="124.2" y1="1214.38" x2="1907.77" y2="1214.38" xlink:href="#linear-gradient-25"/><linearGradient id="linear-gradient-40" x1="113.11" y1="822.31" x2="1896.9" y2="822.31" xlink:href="#linear-gradient-25"/><linearGradient id="linear-gradient-41" x1="130.71" y1="980.85" x2="1907.28" y2="980.85" xlink:href="#linear-gradient-25"/><linearGradient id="linear-gradient-42" x1="121.32" y1="728.57" x2="1895.54" y2="728.57" xlink:href="#linear-gradient-25"/><linearGradient id="linear-gradient-43" x1="124.21" y1="809.43" x2="1896.09" y2="809.43" xlink:href="#linear-gradient-25"/><linearGradient id="linear-gradient-44" x1="137.17" y1="1002.22" x2="1907.27" y2="1002.22" xlink:href="#linear-gradient-25"/><linearGradient id="linear-gradient-45" x1="126.94" y1="728.29" x2="1896.76" y2="728.29" xlink:href="#linear-gradient-25"/><linearGradient id="linear-gradient-46" x1="140.2" y1="1081.91" x2="1907.8" y2="1081.91" xlink:href="#linear-gradient-25"/><linearGradient id="linear-gradient-47" x1="165.23" y1="777.93" x2="1892.99" y2="777.93" xlink:href="#linear-gradient-25"/><linearGradient id="linear-gradient-48" x1="112.75" y1="139.18" x2="1897.3" y2="139.18" xlink:href="#linear-gradient-25"/><linearGradient id="linear-gradient-49" x1="112.85" y1="98.76" x2="1897.19" y2="98.76" xlink:href="#linear-gradient-25"/><linearGradient id="linear-gradient-50" x1="113.21" y1="45.62" x2="1896.79" y2="45.62" xlink:href="#linear-gradient-25"/><linearGradient id="linear-gradient-51" x1="113.11" y1="428.7" x2="1896.9" y2="428.7" xlink:href="#linear-gradient-25"/><linearGradient id="linear-gradient-52" x1="113.31" y1="287.14" x2="1889.88" y2="287.14" xlink:href="#linear-gradient-25"/><linearGradient id="linear-gradient-53" x1="113.93" y1="574.39" x2="1888.14" y2="574.39" xlink:href="#linear-gradient-25"/><linearGradient id="linear-gradient-54" x1="113.24" y1="477.55" x2="1885.11" y2="477.55" xlink:href="#linear-gradient-25"/><linearGradient id="linear-gradient-55" x1="112.95" y1="252.78" x2="1883.06" y2="252.78" xlink:href="#linear-gradient-25"/><linearGradient id="linear-gradient-56" x1="112.45" y1="574.66" x2="1882.27" y2="574.66" xlink:href="#linear-gradient-25"/><linearGradient id="linear-gradient-57" x1="114.62" y1="633.65" x2="1895.2" y2="633.65" xlink:href="#linear-gradient-25"/><linearGradient id="linear-gradient-58" x1="112.27" y1="169.1" x2="1879.89" y2="169.1" xlink:href="#linear-gradient-25"/><linearGradient id="linear-gradient-59" x1="113.84" y1="526.03" x2="1841.57" y2="526.03" xlink:href="#linear-gradient-25"/><linearGradient id="linear-gradient-60" x1="124.35" y1="966.9" x2="1907.6" y2="966.9" xlink:href="#linear-gradient-25"/><linearGradient id="linear-gradient-61" x1="113.53" y1="728.4" x2="1896.43" y2="728.4" xlink:href="#linear-gradient-25"/><linearGradient id="linear-gradient-62" x1="124.3" y1="980.85" x2="1900.87" y2="980.85" xlink:href="#linear-gradient-25"/><linearGradient id="linear-gradient-63" x1="125.23" y1="922.95" x2="1906.62" y2="922.95" xlink:href="#linear-gradient-25"/><linearGradient id="linear-gradient-64" x1="113.93" y1="728.57" x2="1888.14" y2="728.57" xlink:href="#linear-gradient-25"/><linearGradient id="linear-gradient-65" x1="113.24" y1="809.43" x2="1885.11" y2="809.43" xlink:href="#linear-gradient-25"/><linearGradient id="linear-gradient-66" x1="123.94" y1="1002.22" x2="1894.05" y2="1002.22" xlink:href="#linear-gradient-25"/><linearGradient id="linear-gradient-67" x1="137.17" y1="902.32" x2="1907.27" y2="902.32" xlink:href="#linear-gradient-25"/><linearGradient id="linear-gradient-68" x1="123.94" y1="902.32" x2="1894.05" y2="902.32" xlink:href="#linear-gradient-25"/><linearGradient id="linear-gradient-69" x1="137.17" y1="651.56" x2="1907.27" y2="651.56" xlink:href="#linear-gradient-25"/><linearGradient id="linear-gradient-70" x1="123.94" y1="651.56" x2="1894.05" y2="651.56" xlink:href="#linear-gradient-25"/><linearGradient id="linear-gradient-71" x1="137.17" y1="381.83" x2="1907.27" y2="381.83" xlink:href="#linear-gradient-25"/><linearGradient id="linear-gradient-72" x1="123.94" y1="381.83" x2="1894.05" y2="381.83" xlink:href="#linear-gradient-25"/><linearGradient id="linear-gradient-73" x1="112.45" y1="728.29" x2="1882.28" y2="728.29" xlink:href="#linear-gradient-25"/><linearGradient id="linear-gradient-74" x1="123.27" y1="1081.91" x2="1890.88" y2="1081.91" xlink:href="#linear-gradient-25"/><linearGradient id="linear-gradient-75" x1="118.99" y1="883.19" x2="1890.31" y2="883.19" xlink:href="#linear-gradient-25"/><linearGradient id="linear-gradient-76" x1="113.85" y1="777.93" x2="1841.58" y2="777.93" xlink:href="#linear-gradient-25"/><linearGradient id="linear-gradient-77" x1="1197" y1="1071.57" x2="1197" y2="747.11" xlink:href="#linear-gradient-2"/><linearGradient id="linear-gradient-78" x1="1057.5" y1="1031.2" x2="1057.5" y2="834.5" xlink:href="#linear-gradient-2"/><linearGradient id="linear-gradient-79" x1="1336.5" y1="1042.83" x2="1336.5" y2="844.69" xlink:href="#linear-gradient-2"/><linearGradient id="linear-gradient-80" x1="1539.17" y1="962.29" x2="1539.17" y2="1104.2" xlink:href="#linear-gradient-8"/><linearGradient id="linear-gradient-81" x1="1562.34" y1="962.29" x2="1562.34" y2="1104.2" xlink:href="#linear-gradient-8"/><linearGradient id="linear-gradient-82" x1="1550.61" y1="962.29" x2="1550.61" y2="1104.2" xlink:href="#linear-gradient-8"/><linearGradient id="linear-gradient-83" x1="1539.74" y1="962.29" x2="1539.74" y2="1104.2" xlink:href="#linear-gradient-8"/><linearGradient id="linear-gradient-84" x1="1573.85" y1="962.29" x2="1573.85" y2="1104.2" xlink:href="#linear-gradient-8"/><linearGradient id="linear-gradient-85" x1="1580.68" y1="962.29" x2="1580.68" y2="1104.2" xlink:href="#linear-gradient-8"/><linearGradient id="linear-gradient-86" x1="1561.34" y1="962.29" x2="1561.34" y2="1104.2" xlink:href="#linear-gradient-8"/><linearGradient id="linear-gradient-87" x1="1567.6" y1="962.29" x2="1567.6" y2="1104.2" xlink:href="#linear-gradient-8"/><linearGradient id="linear-gradient-88" x1="1516" y1="962.29" x2="1516" y2="1104.2" xlink:href="#linear-gradient-8"/><linearGradient id="linear-gradient-89" x1="1527.73" y1="962.29" x2="1527.73" y2="1104.2" xlink:href="#linear-gradient-8"/><linearGradient id="linear-gradient-90" x1="1504.49" y1="962.29" x2="1504.49" y2="1104.2" xlink:href="#linear-gradient-8"/><linearGradient id="linear-gradient-91" x1="1497.66" y1="962.29" x2="1497.66" y2="1104.2" xlink:href="#linear-gradient-8"/><linearGradient id="linear-gradient-92" x1="1516.99" y1="962.29" x2="1516.99" y2="1104.2" xlink:href="#linear-gradient-8"/><linearGradient id="linear-gradient-93" x1="1510.74" y1="962.29" x2="1510.74" y2="1104.2" xlink:href="#linear-gradient-8"/><linearGradient id="linear-gradient-94" x1="1684.47" y1="878.14" x2="1623.65" y2="964.45" xlink:href="#linear-gradient-8"/><linearGradient id="linear-gradient-95" x1="1620.97" y1="850.69" x2="1729.65" y2="955.99" xlink:href="#linear-gradient-8"/><linearGradient id="linear-gradient-96" x1="1618.65" y1="943.25" x2="1687.8" y2="1036.79" xlink:href="#linear-gradient-8"/><linearGradient id="linear-gradient-97" x1="1692.82" y1="935.31" x2="1643.37" y2="1042.38" xlink:href="#linear-gradient-8"/><linearGradient id="linear-gradient-98" x1="1677.94" y1="763.79" x2="1591.17" y2="850.56" xlink:href="#linear-gradient-8"/><linearGradient id="linear-gradient-99" x1="1625.63" y1="751.46" x2="1685.72" y2="807.86" xlink:href="#linear-gradient-8"/><linearGradient id="linear-gradient-100" x1="1652.44" y1="931.41" x2="1652.44" y2="1239.3" xlink:href="#linear-gradient-8"/><linearGradient id="linear-gradient-101" x1="326.65" y1="1018.63" x2="283.41" y2="1079.99" xlink:href="#linear-gradient-8"/><linearGradient id="linear-gradient-102" x1="281.5" y1="999.11" x2="358.77" y2="1073.98" xlink:href="#linear-gradient-8"/><linearGradient id="linear-gradient-103" x1="279.85" y1="1064.92" x2="329.02" y2="1131.42" xlink:href="#linear-gradient-8"/><linearGradient id="linear-gradient-104" x1="332.58" y1="1059.27" x2="297.43" y2="1135.39" xlink:href="#linear-gradient-8"/><linearGradient id="linear-gradient-105" x1="322" y1="937.33" x2="260.32" y2="999.02" xlink:href="#linear-gradient-8"/><linearGradient id="linear-gradient-106" x1="284.81" y1="928.56" x2="327.54" y2="968.66" xlink:href="#linear-gradient-8"/><linearGradient id="linear-gradient-107" x1="303.88" y1="1056.5" x2="303.88" y2="1275.39" xlink:href="#linear-gradient-8"/><linearGradient id="linear-gradient-108" x1="2460.17" y1="2502.46" x2="2460.17" y2="2627.54" xlink:href="#linear-gradient-8"/><linearGradient id="linear-gradient-109" x1="1834.34" y1="848.47" x2="1834.34" y2="973.55" gradientTransform="translate(-2.2 -4.01)" xlink:href="#linear-gradient-8"/><linearGradient id="linear-gradient-110" x1="1794.75" y1="765.7" x2="1226.33" y2="1797.95" xlink:href="#linear-gradient-8"/><linearGradient id="linear-gradient-111" x1="790.14" y1="3001.36" x2="1144.07" y2="3278.75" xlink:href="#linear-gradient-8"/><linearGradient id="linear-gradient-112" x1="54.48" y1="1362.58" x2="480.41" y2="1259.51" gradientTransform="translate(-127.29 16.18) rotate(-5.47)" xlink:href="#linear-gradient-8"/><linearGradient id="linear-gradient-113" x1="1202.75" y1="428.58" x2="1202.75" y2="274.7" gradientUnits="userSpaceOnUse"><stop offset="0" stop-color="#c4eafd"/><stop offset="1" stop-color="#fff"/></linearGradient><linearGradient id="linear-gradient-114" x1="659.75" y1="594.21" x2="659.75" y2="487.66" gradientTransform="matrix(-1, 0, 0, 1, 1319.5, 0)" xlink:href="#linear-gradient-113"/></defs><g id="Layer_2" data-name="Layer 2"><g id="Layer_2-2" data-name="Layer 2"><path class="cls-2" d="M1920,0V1070.65C1744.11,1182.91,1380.29,1260,960,1260S175.89,1182.91,0,1070.65V0Z" transform="translate(567.03 1728)"/><g class="cls-3"><ellipse class="cls-4" cx="19.8" cy="917.82" rx="134.5" ry="96" transform="translate(-291.31 2378.16) rotate(-71.81)"/><path class="cls-5" d="M55.26,816.31c-1.9,6.48-3.91,12.93-5.86,19.39L43.34,855c-4.06,12.87-8.28,25.69-12.42,38.55-4.29,12.8-8.49,25.63-12.86,38.4l-6.58,19.15C9.21,957.49,7,963.88,4.69,970.22c1.89-6.49,3.91-12.93,5.86-19.39L16.6,931.5C20.66,918.63,24.89,905.8,29,893c4.3-12.8,8.5-25.63,12.87-38.4l6.58-19.15C50.74,829,52.93,822.65,55.26,816.31Z" transform="translate(567.03 1728)"/><path class="cls-5" d="M15.76,824.39c2,3.71,3.93,7.48,5.9,11.22s3.84,7.53,5.72,11.31c3.77,7.55,7.45,15.16,11.1,22.77l-1.35-.46c7.33-3.68,14.68-7.34,22.07-10.9,3.69-1.8,7.41-3.55,11.12-5.3s7.44-3.47,11.21-5.12c-3.57,2.05-7.18,4-10.77,6s-7.23,3.9-10.86,5.81C52.65,863.55,45.34,867.29,38,871l-.92.47-.43-.93c-3.63-7.62-7.23-15.27-10.72-23-1.76-3.84-3.48-7.69-5.19-11.56S17.37,828.3,15.76,824.39Z" transform="translate(567.03 1728)"/><path class="cls-5" d="M4.84,857.64c2,3.71,3.93,7.48,5.9,11.22s3.83,7.53,5.71,11.31c3.78,7.55,7.46,15.16,11.1,22.78l-1.35-.47c7.34-3.68,14.68-7.34,22.08-10.9q5.53-2.69,11.12-5.3c3.73-1.7,7.44-3.47,11.2-5.12-3.56,2.05-7.18,4-10.77,6S52.61,891.05,49,893c-7.26,3.84-14.56,7.59-21.88,11.31l-.91.46-.44-.93c-3.62-7.62-7.22-15.27-10.71-23-1.76-3.84-3.48-7.69-5.19-11.55S6.45,861.55,4.84,857.64Z" transform="translate(567.03 1728)"/><path class="cls-5" d="M-6.09,890.89c2,3.71,3.93,7.48,5.9,11.22s3.84,7.53,5.72,11.31C9.31,921,13,928.58,16.63,936.2l-1.35-.46c7.33-3.69,14.68-7.35,22.07-10.91q5.55-2.69,11.12-5.3c3.74-1.7,7.44-3.47,11.21-5.12-3.56,2.05-7.18,4-10.77,6s-7.23,3.9-10.86,5.81c-7.25,3.84-14.56,7.59-21.87,11.31l-.91.46-.44-.92q-5.45-11.44-10.72-23-2.63-5.76-5.19-11.56C-2.75,898.65-4.48,894.8-6.09,890.89Z" transform="translate(567.03 1728)"/><circle class="cls-6" cx="1660.53" cy="1444.5" r="1444.5"/><circle class="cls-7" cx="1696.53" cy="1534.5" r="1318.5"/><rect class="cls-8" x="1705.53" y="2529" width="117" height="315"/><rect class="cls-9" x="1584.03" y="2646" width="81" height="162"/><rect class="cls-10" x="1854.03" y="2664" width="99" height="180"/><path class="cls-11" d="M621,1116s81-18,198-54,225-27,369,27,450,63,450,63-558,216-810,135S558,1143,621,1116Z" transform="translate(567.03 1728)"/><path class="cls-12" d="M193.7,954s83-41.11,258.58,57.32,187.93,26.94,549.26,197.26S-36.13,1240.44,193.7,954Z" transform="translate(567.03 1728)"/><path class="cls-13" d="M410.17,1101.94a1.53,1.53,0,0,1-1.53-1.53v-81.29a1.53,1.53,0,1,1,3.06,0v81.29A1.53,1.53,0,0,1,410.17,1101.94Z" transform="translate(567.03 1728)"/><path class="cls-14" d="M420.91,1101.94a1.54,1.54,0,0,1-1.54-1.53v-30.93l10.23-10.23a1.53,1.53,0,0,1,2.17,2.17l-9.33,9.33v29.66A1.54,1.54,0,0,1,420.91,1101.94Z" transform="translate(567.03 1728)"/><path class="cls-15" d="M410.55,1058a1.54,1.54,0,0,1-1.08-2.62l14.66-14.67a1.53,1.53,0,1,1,2.17,2.17l-14.66,14.67A1.55,1.55,0,0,1,410.55,1058Z" transform="translate(567.03 1728)"/><path class="cls-16" d="M410.55,1020.27a6.14,6.14,0,1,1,6.14-6.14A6.14,6.14,0,0,1,410.55,1020.27Zm0-9.2a3.07,3.07,0,1,0,3.07,3.06A3.06,3.06,0,0,0,410.55,1011.07Z" transform="translate(567.03 1728)"/><path class="cls-17" d="M433.56,1062.45a6.14,6.14,0,1,1,6.13-6.14A6.15,6.15,0,0,1,433.56,1062.45Zm0-9.21a3.07,3.07,0,1,0,3.07,3.07A3.08,3.08,0,0,0,433.56,1053.24Z" transform="translate(567.03 1728)"/><path class="cls-18" d="M438.16,1047.88a6.14,6.14,0,1,1,6.13-6.14A6.15,6.15,0,0,1,438.16,1047.88Zm0-9.21a3.07,3.07,0,1,0,3.07,3.07A3.08,3.08,0,0,0,438.16,1038.67Z" transform="translate(567.03 1728)"/><path class="cls-19" d="M425.12,1034.07a6.14,6.14,0,1,1,6.14-6.13A6.14,6.14,0,0,1,425.12,1034.07Zm0-9.2a3.07,3.07,0,1,0,3.07,3.07A3.07,3.07,0,0,0,425.12,1024.87Z" transform="translate(567.03 1728)"/><path class="cls-20" d="M433.56,1043.28h-10v-10.5a1.54,1.54,0,0,1,3.07,0v7.43h6.9a1.54,1.54,0,0,1,0,3.07Z" transform="translate(567.03 1728)"/><path class="cls-21" d="M399.43,1101.94a1.54,1.54,0,0,1-1.53-1.53v-29.66l-9.33-9.33a1.53,1.53,0,1,1,2.17-2.17L401,1069.48v30.93A1.54,1.54,0,0,1,399.43,1101.94Z" transform="translate(567.03 1728)"/><path class="cls-22" d="M409.79,1058a1.53,1.53,0,0,1-1.09-.45L394,1042.92a1.55,1.55,0,0,1,0-2.17,1.53,1.53,0,0,1,2.17,0l14.67,14.67a1.54,1.54,0,0,1-1.08,2.62Z" transform="translate(567.03 1728)"/><path class="cls-23" d="M386.78,1062.45a6.14,6.14,0,1,1,6.13-6.14A6.15,6.15,0,0,1,386.78,1062.45Zm0-9.21a3.07,3.07,0,1,0,3.07,3.07A3.08,3.08,0,0,0,386.78,1053.24Z" transform="translate(567.03 1728)"/><path class="cls-24" d="M382.18,1047.88a6.14,6.14,0,1,1,6.13-6.14A6.15,6.15,0,0,1,382.18,1047.88Zm0-9.21a3.07,3.07,0,1,0,3.07,3.07A3.08,3.08,0,0,0,382.18,1038.67Z" transform="translate(567.03 1728)"/><path class="cls-25" d="M395.21,1034.07a6.14,6.14,0,1,1,6.14-6.13A6.14,6.14,0,0,1,395.21,1034.07Zm0-9.2a3.07,3.07,0,1,0,3.07,3.07A3.07,3.07,0,0,0,395.21,1024.87Z" transform="translate(567.03 1728)"/><path class="cls-26" d="M396.75,1043.28h-10a1.54,1.54,0,0,1,0-3.07h6.9v-7.43a1.54,1.54,0,0,1,3.07,0Z" transform="translate(567.03 1728)"/><path class="cls-27" d="M795.51,1247.85s188.32-31.4,429.37-118,285.4-114.7,394.21-81.23,12.57,152.75-103.56,191.47S609.93,1396.23,795.51,1247.85Z" transform="translate(567.03 1728)"/><path class="cls-28" d="M-108.88,904S38,847.9,196.35,927.5,288.84,1067,573.11,1152.61s354.47,124.94,610.46,47,468.32,4.2,682.37,50.4,111.75,113.42,111.75,113.42L-125.94,1263.6Z" transform="translate(567.03 1728)"/><path class="cls-29" d="M507,1170q-6-.07-12.05,0a551.25,551.25,0,0,0-199-69.75C206.92,1033.75,94.6,993.44-27.89,991.8c-294.06-3.93-535.41,216.5-539.1,492.34-3.36,251.69,192.3,462.53,450,500.52a570.6,570.6,0,0,0,75.8,6,567.41,567.41,0,0,0,124.09-11.94,526.31,526.31,0,0,0,136.06,114.3c79.81,46.85,173.84,74.46,274.79,75.8,294.05,3.93,535.41-216.49,539.09-492.34S801.09,1173.89,507,1170Z" transform="translate(567.03 1728)"/><path class="cls-30" d="M1419.49,325a8.74,8.74,0,0,1-7.89-4.38c-2.12-3.88-5-4.2-8.31-4.2h-.22q-16.08,0-32.17,0c-14.43,0-29.36,0-44,.09h-.11A11.18,11.18,0,0,1,1318,313c-10.43-10.54-21.09-21.19-31.39-31.49-10.14-10.14-20.63-20.62-30.89-31a12.51,12.51,0,0,0-9.81-4c-46.41,0-94.52.07-143,.07q-68.52,0-137-.06h-.23l-.2.1a3.35,3.35,0,0,1-1.42.23,19.91,19.91,0,0,1-2.12-.17c-.6-.07-1.17-.14-1.69-.16H949.09c-.56,0-1.13.09-1.73.16a20.12,20.12,0,0,1-2.12.17,3.35,3.35,0,0,1-1.42-.23l-.2-.1h-.23q-68.52.06-137,.06c-48.49,0-96.59,0-143-.07a12.67,12.67,0,0,0-9.83,4c-10.27,10.36-20.75,20.85-30.9,31-10.3,10.3-20.95,20.95-31.38,31.48a11.2,11.2,0,0,1-8.78,3.59h-.11c-14.68-.08-29.61-.09-44-.09q-16.08,0-32.17,0h-.22c-3.29,0-6.19.32-8.31,4.2a8.75,8.75,0,0,1-7.89,4.38,10.61,10.61,0,0,1-3.25-.51,10,10,0,0,1-7-9.69,9.69,9.69,0,0,1,6.73-9.47,9.84,9.84,0,0,1,3.55-.66,9,9,0,0,1,8,4.58c2.11,3.8,4.94,4.11,7.9,4.11h.12q18.56-.06,37.11-.07c13.71,0,26.15,0,38,.1H581a12.06,12.06,0,0,0,9.25-4c9.49-9.57,19.19-19.26,28.56-28.63,11.07-11.07,22.52-22.51,33.72-33.83a11.27,11.27,0,0,1,8.84-3.61c31.47.07,62.45.08,88.61.08H855.6c27.69,0,57.48,0,87.72,0h.23l.21-.1a3.18,3.18,0,0,1,1.35-.23,17.86,17.86,0,0,1,2.11.18c.51.07,1,.13,1.45.16h11.82c.52,0,1-.09,1.52-.16a17.68,17.68,0,0,1,2.11-.18,3.18,3.18,0,0,1,1.35.23l.21.1h.23c30.24,0,60,0,87.72,0h105.59c26.16,0,57.14,0,88.57-.08a11.27,11.27,0,0,1,8.87,3.61c11.2,11.31,22.64,22.75,33.7,33.8,9.38,9.38,19.09,19.08,28.59,28.66a12,12,0,0,0,9.25,4h.11c11.89-.07,24.33-.1,38-.1q18.56,0,37.11.07h.12c3,0,5.79-.31,7.9-4.11a9,9,0,0,1,8-4.58,9.84,9.84,0,0,1,3.55.66,9.69,9.69,0,0,1,6.73,9.47,10,10,0,0,1-7,9.69A10.5,10.5,0,0,1,1419.49,325Z" transform="translate(567.03 1728)"/><path class="cls-31" d="M1379,597.77a9.45,9.45,0,0,1-8.19-4.93c-1.75-2.89-3.85-3.47-6.68-3.47h-5l-9.44,0-9.44,0c-4.51,0-8.23,0-11.72.08h-.27a10.57,10.57,0,0,1-8.19-3.52c-3.79-3.89-7.71-7.78-11.5-11.54-4.82-4.8-9.81-9.76-14.59-14.74a14.72,14.72,0,0,0-11.58-5c-57.88.09-115.08.11-183.18.11H965.22l-.12,0a4.21,4.21,0,0,1-1.09.11c-.5,0-1,0-1.57-.09l-.64,0-7.18,0-7.13,0-.7,0c-.53,0-1.07.09-1.58.09a4.12,4.12,0,0,1-1.08-.11l-.12,0H810.07c-68.1,0-125.31,0-183.15-.11a14.74,14.74,0,0,0-11.61,5c-4.78,5-9.77,9.94-14.59,14.74-3.79,3.76-7.71,7.65-11.5,11.54a10.57,10.57,0,0,1-8.19,3.52h-.27c-3.49-.06-7.21-.08-11.72-.08l-9.45,0c-3.14,0-6.29,0-9.43,0h-5c-2.83,0-4.93.58-6.68,3.47a9.45,9.45,0,0,1-8.2,4.93,10.69,10.69,0,0,1-3.21-.51,10,10,0,0,1,.32-19.36,10.42,10.42,0,0,1,2.89-.42c3.38,0,6.35,1.85,8.38,5.23a6.3,6.3,0,0,0,6.16,3.41H545c7.22-.06,13.64-.09,19.63-.09,5.4,0,10.41,0,15.31.08h.16a10.3,10.3,0,0,0,7.9-3.37c3.9-4,7.92-8,11.81-11.89,5-4.94,10.07-10.05,15-15.18a12.74,12.74,0,0,1,10.15-4.3c34.88.09,69.41.11,98.58.11h83.72q68.4,0,136.8,0h.11l.1,0a5.28,5.28,0,0,1,1.15-.1c.48,0,1,0,1.45.06l1,.06h13.5l1.06-.06c.48,0,1-.06,1.45-.06a5.34,5.34,0,0,1,1.15.1l.1,0h.11q68.4,0,136.8,0h83.72c29.18,0,63.7,0,98.52-.11a12.78,12.78,0,0,1,10.21,4.3c4.93,5.14,10.06,10.25,15,15.19,3.89,3.88,7.9,7.89,11.8,11.88a10.29,10.29,0,0,0,7.9,3.37h.16c4.9-.05,9.91-.08,15.3-.08,6,0,12.42,0,19.64.09h.13a6.31,6.31,0,0,0,6.17-3.41c2-3.38,5-5.23,8.38-5.23a10.42,10.42,0,0,1,2.89.42,10,10,0,0,1,.32,19.36,10.76,10.76,0,0,1-3.22.51Zm.33-18.17a8.06,8.06,0,0,0-7.93,7.75,8,8,0,0,0,7.65,8.25h.29a8,8,0,0,0,7.93-7.71,8.12,8.12,0,0,0-7.66-8.29Zm-849.61,0A8.11,8.11,0,0,0,522,587.9a8,8,0,0,0,7.93,7.71h.29a8,8,0,0,0,7.65-8.25A8.07,8.07,0,0,0,530,579.6Z" transform="translate(567.03 1728)"/><path class="cls-32" d="M1663.26,310.33a8.84,8.84,0,0,1-7.9-4.53c-2.09-3.78-4.85-4.08-8-4.08h-49.72c-16.89,0-35.09,0-53.67.17h-.21a15.2,15.2,0,0,1-12.19-5.25c-4.75-5-9.75-10-14.58-14.79-3.68-3.64-7.47-7.4-11.13-11.17A11.36,11.36,0,0,0,1497,267c-34.24.06-68.19.07-96.88.07h-60.21c-1.56,0-3.13,0-4.69,0-1.85,0-1.91-1.06-1.92-1.39a1.47,1.47,0,0,1,.3-1.13,2.52,2.52,0,0,1,1.77-.52l5.21,0h78.79l38.44,0c16.55,0,29.16,0,40.88-.1h.11a10.49,10.49,0,0,1,8.33,3.41c5.13,5.3,10.44,10.59,15.57,15.71,4.08,4.05,8.29,8.25,12.38,12.42a9.7,9.7,0,0,0,7.54,3.14q27.54-.06,55-.06,25.22,0,50.42,0c3.2,0,5.37-.62,7.13-3.78a9.16,9.16,0,0,1,8.21-4.82,10.58,10.58,0,0,1,3.23.51,10.08,10.08,0,0,1,7,9.69,9.67,9.67,0,0,1-6.72,9.46A10.06,10.06,0,0,1,1663.26,310.33Zm.28-18.17a8.13,8.13,0,0,0-7.91,7.15,7.67,7.67,0,0,0,1.69,5.79,7.77,7.77,0,0,0,5.38,2.89,7.63,7.63,0,0,0,.82,0,7.74,7.74,0,0,0,7.88-7,8,8,0,0,0-7-8.78A7.87,7.87,0,0,0,1663.54,292.16Z" transform="translate(567.03 1728)"/><path class="cls-33" d="M1262.08,352.3a9.17,9.17,0,0,1-8-4.72c-1.94-3.31-4.32-4-7.51-4-15,0-29.82.05-44.7.06-19.93,0-40.55,0-60.82.13a11.69,11.69,0,0,1-9.28-3.92c-4.56-4.74-9.29-9.45-13.87-14-4.27-4.25-8.69-8.65-13-13.06a11.93,11.93,0,0,0-9.35-3.82c-23.07.05-46.93.08-73,.08h-.13q-28.35,0-56.7,0h-.17l-.16.06a3.65,3.65,0,0,1-1.17.15c-.53,0-1.12-.06-1.68-.11-.39,0-.77-.08-1.13-.1H947.83c-.41,0-.79.06-1.18.1-.57.05-1.15.11-1.68.11a3.65,3.65,0,0,1-1.17-.15l-.16-.06h-.17q-28.35,0-56.7,0c-26.09,0-50,0-73-.08a12,12,0,0,0-9.41,3.82c-4.26,4.41-8.69,8.82-13,13.07-4.58,4.56-9.31,9.27-13.86,14a11.62,11.62,0,0,1-9.18,3.92c-20.38-.1-41-.12-60.92-.13q-22.32,0-44.63-.06h0c-3.27,0-5.64.66-7.58,4a9.18,9.18,0,0,1-8,4.71,10.19,10.19,0,0,1-3.46-.62,9.73,9.73,0,0,1-6.87-9.38,10.36,10.36,0,0,1,6.92-9.8,9.86,9.86,0,0,1,3.15-.52,9.55,9.55,0,0,1,8.34,4.76c1.88,3.21,4.19,3.87,7.07,3.87q30.19-.08,60.29-.08,22.59,0,45.2.06a10.33,10.33,0,0,0,8-3.47c4.3-4.4,8.74-8.82,13-13.09,4.92-4.91,10-10,14.94-15a9.38,9.38,0,0,1,7.43-3.07c14.35.07,28.35.08,39,.08l67.22,0,26.22,0h.15l.14-.05a4.08,4.08,0,0,1,1.1-.12c.52,0,1.09.05,1.65.1l.79.08,7.25,0,7.19,0c.33,0,.59-.05.86-.08.56-.05,1.13-.1,1.65-.1a4.08,4.08,0,0,1,1.1.12l.14.05h.15l26.22,0,67.22,0c10.6,0,24.6,0,38.87-.08a9.41,9.41,0,0,1,7.5,3.07c4.94,5.06,10,10.14,14.94,15,4.29,4.27,8.72,8.69,13,13.09a10.27,10.27,0,0,0,7.92,3.47q22.66-.06,45.24-.06,30.12,0,60.25.08c2.92,0,5.23-.66,7.11-3.87a9.53,9.53,0,0,1,8.34-4.76,9.86,9.86,0,0,1,3.15.52,10.37,10.37,0,0,1,6.92,9.8,9.73,9.73,0,0,1-6.87,9.38A10.19,10.19,0,0,1,1262.08,352.3Zm.17-18.22a7.89,7.89,0,0,0-7.81,8.06,7.67,7.67,0,0,0,7.9,7.86,8,8,0,0,0,5.7-2.38,7.74,7.74,0,0,0,2.24-5.59,8.13,8.13,0,0,0-7.93-7.95h-.1Zm-615.38,0A8.12,8.12,0,0,0,639,342a7.74,7.74,0,0,0,2.24,5.59,7.93,7.93,0,0,0,5.67,2.38,7.66,7.66,0,0,0,7.92-7.86,7.87,7.87,0,0,0-7.8-8.06Z" transform="translate(567.03 1728)"/><path class="cls-34" d="M1599.81,597.68a8.62,8.62,0,0,1-7.42-3.93c-2.78-4.32-6-4.67-9.7-4.67h-.15q-24.37.07-48.76.06c-18.07,0-36.74,0-55.12.08a11.18,11.18,0,0,1-8.9-3.64c-4.62-4.78-9.4-9.55-14-14.16-4.34-4.32-8.83-8.8-13.17-13.27a11.91,11.91,0,0,0-9.33-3.84c-14.92.06-30.14.09-46.6.09-15,0-30.87,0-48.49-.07h0c-.53,0-1.08.06-1.67.12a16.79,16.79,0,0,1-1.69.12c-1.45,0-1.9-.4-1.9-1.71a1.79,1.79,0,0,1,.37-1.31,2.4,2.4,0,0,1,1.72-.44c.5,0,1,0,1.58.09s1.06.09,1.53.09c7.23,0,14.91-.06,25-.06h24.15l12.71,0,13.23,0c8.46,0,15.32,0,21.57-.14h.27a11.41,11.41,0,0,1,9,3.93c4.55,4.71,9.27,9.41,13.84,13.95,4.17,4.14,8.48,8.43,12.64,12.72a12.49,12.49,0,0,0,9.73,4.19c16.25-.07,33.38-.11,52.43-.11q25.5,0,51,.07h0c3.27,0,6.1-.32,8.44-4.29a8.74,8.74,0,0,1,7.72-4.33,10.53,10.53,0,0,1,6.73,2.49,10.11,10.11,0,0,1,3.62,7.28,9.82,9.82,0,0,1-2.85,7.48,10.55,10.55,0,0,1-7.46,3.15Z" transform="translate(567.03 1728)"/><path class="cls-35" d="M1553.38,500.77h-.69c-3.59-.12-7.49-.17-12.26-.17-2.77,0-5.54,0-8.3,0s-5.53,0-8.29,0h-16.45q-8.67,0-17.34,0h0l-.85,0-.79,0a2.73,2.73,0,0,1-1.78-.41,1.64,1.64,0,0,1-.33-1.17c0-1.24.4-1.68,2.65-1.68h12l22.89,0c11.08,0,20.23,0,28.79.08h.12a11.32,11.32,0,0,0,8.82-3.73c4.17-4.29,8.49-8.59,12.67-12.75,4.8-4.77,9.76-9.71,14.53-14.66a11,11,0,0,1,8.79-3.57c18.41.08,37,.08,55,.09q20.79,0,41.6,0c3.49,0,6-.69,8-4.14a8.82,8.82,0,0,1,7.85-4.4,10.68,10.68,0,0,1,3.29.53,10.12,10.12,0,0,1-.12,19.28,11.4,11.4,0,0,1-3.14.45,9,9,0,0,1-8.27-4.89c-1.84-3.5-4.39-3.79-7.06-3.79-15.88,0-31.69,0-47.51,0-17.71,0-33.6,0-48.57-.07a10.88,10.88,0,0,0-8.49,3.52c-3.76,3.86-7.65,7.72-11.41,11.46-5.1,5.06-10.38,10.3-15.42,15.6A12.7,12.7,0,0,1,1553.38,500.77Z" transform="translate(567.03 1728)"/><path class="cls-36" d="M1748.48,263a8.84,8.84,0,0,1-7.94-4.61c-2-3.77-4.83-4.08-8-4.08q-39,0-77.85,0c-35.72,0-68.15,0-99.13-.08a16.35,16.35,0,0,0-2,.17,17.44,17.44,0,0,1-2.09.19,2.22,2.22,0,0,1-1.6-.43,2.06,2.06,0,0,1-.37-1.49c0-1.17.39-1.8,2.21-1.8a19.55,19.55,0,0,1,2.1.17,18.66,18.66,0,0,0,2,.16c18-.07,35.94-.08,49.55-.08h77.39c14.67,0,32,0,49.5.06h.13c3.29,0,6.19-.32,8.38-4.25a8.64,8.64,0,0,1,7.73-4.3,10.58,10.58,0,0,1,3.42.57,9.94,9.94,0,0,1,6.91,9.75c-.11,4.58-2.39,7.73-6.8,9.37a10.3,10.3,0,0,1-3.54.64Z" transform="translate(567.03 1728)"/><path class="cls-37" d="M1801,597.93a8.71,8.71,0,0,1-7.79-4.49c-2-3.62-4.74-3.92-7.54-3.92l-37.26,0c-17.38,0-35.36,0-53,.08a11.74,11.74,0,0,1-9.37-3.81c-5.1-5.28-10.39-10.54-15.51-15.63-4-4-8.09-8-12.08-12.1a10.34,10.34,0,0,0-7.9-3.36h-.15c-4.89,0-10.18.08-16.63.08l-11.9,0-10,0h-1.62c-.66,0-1.32,0-2,0-2.1-.11-2.5-.54-2.56-1.4a1.52,1.52,0,0,1,.31-1.21,3.06,3.06,0,0,1,2.19-.62l10.92,0h13.54v0h5l6,0c3.44,0,6.26,0,8.85-.09h.27a8.29,8.29,0,0,1,6.34,2.8c5,5.06,10.1,10.17,15,15.1,4.61,4.61,9.38,9.37,14,14.08a9.16,9.16,0,0,0,7,3c15,0,30.63-.07,46.43-.07q21.91,0,43.83.05h0c2.88,0,5.56-.3,7.56-4a8.82,8.82,0,0,1,8-4.71,11.08,11.08,0,0,1,3.43.55,10,10,0,0,1-.21,19.21,10.77,10.77,0,0,1-3.25.52Zm.38-18.11a7.93,7.93,0,0,0-5.59,13.6,7.95,7.95,0,0,0,11.15-11.32,7.75,7.75,0,0,0-5.55-2.28Z" transform="translate(567.03 1728)"/><path class="cls-38" d="M1709.62,192.72c-4-.07-8.31-.1-13.65-.1l-8.58,0-8.58,0h-16.15c-4.88,0-9.75,0-14.63,0h0c-.42,0-.8,0-1.19,0s-.76.05-1.14.05c-1.53,0-2-.36-2-1.59a1.73,1.73,0,0,1,.31-1.25,2.4,2.4,0,0,1,1.67-.4c.36,0,.73,0,1.09,0s.74,0,1.09,0h2.49q14.13,0,28.26,0c10.76,0,20.16,0,28.74.08h.12a10.73,10.73,0,0,0,8.39-3.46c4.77-4.9,9.69-9.81,14.45-14.55,4.44-4.44,9-9,13.5-13.58a8.82,8.82,0,0,1,6.92-2.95h.13c7.74.07,15.6.08,22.26.08h13q6.9,0,13.78,0h.23c2.75,0,5.15-.3,6.71-3.95a9.08,9.08,0,0,1,8.5-5.74,10.83,10.83,0,0,1,2.85.4c4.53,1.24,7.06,4.19,7.52,8.75a9.74,9.74,0,0,1-6.07,10.26,10.63,10.63,0,0,1-4.16.89,9.6,9.6,0,0,1-8-4.47c-1.79-2.58-3.84-3.11-6.37-3.11-8.26,0-16.45.05-24.64.05-8.75,0-16.58,0-24-.08h-.11a9.61,9.61,0,0,0-7.43,3.2c-4.39,4.47-8.91,9-13.29,13.32-5,4.94-10.09,10-15.07,15.14a8.67,8.67,0,0,1-6.82,2.9Zm106.09-45a7.91,7.91,0,1,0,.07,0Z" transform="translate(567.03 1728)"/><path class="cls-39" d="M1057.34,369a9.06,9.06,0,0,1-7.88-4.5c-2-3.43-4.4-4.09-7.88-4.09-14.59,0-30,.05-50.11.05H917.76c-20.1,0-35.52,0-50-.05h0c-3.57,0-6,.66-8,4.09a8.91,8.91,0,0,1-7.88,4.5,10.17,10.17,0,0,1-3.67-.7,9.65,9.65,0,0,1-6.66-9.46,10.12,10.12,0,0,1,7-9.65,11,11,0,0,1,3.21-.48,9.16,9.16,0,0,1,8.25,4.78c1.92,3.57,4.46,3.86,7.34,3.86h.24q11.26-.06,22.52-.05h129q11.25,0,22.52.05h.24c2.88,0,5.42-.29,7.34-3.86a9.15,9.15,0,0,1,8.25-4.78,11,11,0,0,1,3.21.48,10.12,10.12,0,0,1,7,9.65,9.65,9.65,0,0,1-6.66,9.46,10.17,10.17,0,0,1-3.67.7Z" transform="translate(567.03 1728)"/><path class="cls-40" d="M1057.34,695.24a9,9,0,0,1-7.88-4.5c-2-3.42-4.4-4.09-7.88-4.09-14.59,0-30,.06-50.11.06H917.76c-20.1,0-35.52,0-50-.06h0c-3.57,0-6,.67-8,4.09a8.91,8.91,0,0,1-7.88,4.5,10.16,10.16,0,0,1-3.67-.69,9.66,9.66,0,0,1-6.66-9.47,10.12,10.12,0,0,1,7-9.65,11,11,0,0,1,3.21-.48,9.18,9.18,0,0,1,8.25,4.78c1.92,3.57,4.46,3.86,7.34,3.86h.24q11.26-.06,22.52-.05l32.36,0h72.22l24.39,0q11.25,0,22.52.05h.24c2.88,0,5.42-.29,7.34-3.86a9.17,9.17,0,0,1,8.25-4.78,11,11,0,0,1,3.21.48,10.12,10.12,0,0,1,7,9.65,9.66,9.66,0,0,1-6.66,9.47,10.16,10.16,0,0,1-3.67.69Z" transform="translate(567.03 1728)"/><path class="cls-41" d="M1748.52,536.28a8.46,8.46,0,0,1-7.47-4c-2.59-4.3-5.8-4.66-9.14-4.66h-.71q-4.53.06-9.06.06c-3.94,0-7.88,0-11.82-.06l-6.16,0h-1.38c-1.77,0-2.08-.39-2.15-1.3a1.75,1.75,0,0,1,.29-1.29c.53-.57,1.95-.57,3.1-.57h15.14l6.45,0,3.94,0H1731c3.94,0,7.74-.4,10.81-5.24a7.44,7.44,0,0,1,6.56-3.41,10.94,10.94,0,0,1,7.82,3.44,9.93,9.93,0,0,1,2.71,7.31,10,10,0,0,1-3.37,7.09A10.67,10.67,0,0,1,1748.52,536.28Z" transform="translate(567.03 1728)"/><path class="cls-42" d="M1676.18,1139.51a10.15,10.15,0,0,1-5.33-1.56,9.5,9.5,0,0,1-4.25-11.47c1.4-3.83-.13-5.78-2.13-7.77-21.23-21.13-38.47-38.36-54.24-54.24a9.83,9.83,0,0,0-7.57-3.15q-63.5.06-127,0-62.57,0-125.13,0a10.31,10.31,0,0,0-8,3.46c-3.71,3.78-7.54,7.58-11.23,11.25-5.17,5.13-10.51,10.44-15.63,15.79a13.24,13.24,0,0,1-10.57,4.48c-36.09-.1-72.22-.12-102.81-.12H728.83c-30.59,0-66.73,0-102.75.12a13.3,13.3,0,0,1-10.64-4.48c-5.12-5.36-10.46-10.67-15.63-15.8-3.69-3.67-7.51-7.46-11.22-11.24a10.3,10.3,0,0,0-7.94-3.46q-62.6.06-125.15,0-63.48,0-126.95,0a9.83,9.83,0,0,0-7.57,3.15c-15.73,15.83-33,33.07-54.25,54.24-2,2-3.52,3.94-2.13,7.77a9.49,9.49,0,0,1-4.24,11.47,10.15,10.15,0,0,1-5.33,1.56,10,10,0,0,1-6.57-2.52,10.17,10.17,0,0,1-2.64-11.69,9.57,9.57,0,0,1,8.91-5.93,10.86,10.86,0,0,1,2.38.27,8.11,8.11,0,0,0,1.58.17c2.48,0,3.93-1.45,5.34-2.86l.2-.2,15-15c13.12-13.09,26.69-26.63,40-40a10.75,10.75,0,0,1,8.37-3.56c41.74.06,85.24.08,129.33.08q62.43,0,124.86-.06a10.09,10.09,0,0,1,8,3.2c4.51,4.64,9.17,9.29,13.68,13.78s9.32,9.28,13.89,14a12,12,0,0,0,9.38,3.86c82.25-.08,165.85-.08,246.7-.08H1057.8c80.85,0,164.45,0,246.68.08a12,12,0,0,0,9.39-3.86c4.58-4.72,9.32-9.44,13.9-14s9.17-9.14,13.68-13.78a10.06,10.06,0,0,1,8-3.2q62.44.06,124.87.06c44.1,0,87.61,0,129.31-.08a10.73,10.73,0,0,1,8.39,3.56c13.22,13.35,26.74,26.84,39.82,39.89l15.15,15.13.2.2c1.4,1.41,2.86,2.86,5.34,2.86a8.11,8.11,0,0,0,1.58-.17,10.86,10.86,0,0,1,2.38-.27,9.59,9.59,0,0,1,8.91,5.93,10.17,10.17,0,0,1-2.64,11.69,10,10,0,0,1-6.57,2.52Z" transform="translate(567.03 1728)"/><path class="cls-43" d="M1627,1175.83a9.89,9.89,0,0,1-5.16-1.43c-4.16-2.56-5.71-7-4.14-12,1-3,.06-4.7-1.71-6.43-6.7-6.56-13.62-13.33-20.25-20.3a11.82,11.82,0,0,0-9.35-3.89q-49.65.06-99.25.06c-39,0-79.85,0-121.52-.07a10.3,10.3,0,0,0-8,3.36c-4,4.12-8.18,8.27-12.2,12.28-5.06,5-10.3,10.28-15.35,15.52a11.69,11.69,0,0,1-9.29,3.89c-38.57-.08-76.71-.09-109-.09H719.36c-32.23,0-70.37,0-108.91.09a11.68,11.68,0,0,1-9.32-3.89c-5.06-5.24-10.3-10.47-15.36-15.53-4-4-8.16-8.15-12.19-12.27a10.29,10.29,0,0,0-8-3.36c-41.7,0-82.58.07-121.54.07q-49.62,0-99.23-.06a11.86,11.86,0,0,0-9.38,3.89c-6.64,7-13.55,13.75-20.24,20.3-1.77,1.73-2.67,3.41-1.72,6.43,1.57,5,0,9.45-4.13,12a9.89,9.89,0,0,1-5.16,1.43,10.27,10.27,0,0,1-6.76-2.51,10.14,10.14,0,0,1-2.53-11.7,9.43,9.43,0,0,1,8.87-5.84,12.19,12.19,0,0,1,2.51.27,8.37,8.37,0,0,0,1.72.19c2.12,0,3.49-1,5-2.5q4.68-4.74,9.4-9.42c4.18-4.16,8.51-8.47,12.7-12.77a8.36,8.36,0,0,1,6.55-2.85q52,0,103.9,0c40.82,0,82.07,0,122.61-.07a7.93,7.93,0,0,1,6.08,2.8c3.69,3.72,7.41,7.42,11.12,11.12,5.68,5.65,11.55,11.5,17.25,17.32a10.9,10.9,0,0,0,8.45,3.59c86.84-.08,175.11-.09,260.48-.09h22q31.47,0,62.95,0h18.1l63,0h22c85.37,0,173.65,0,260.47.09a10.88,10.88,0,0,0,8.46-3.59c5.71-5.82,11.59-11.68,17.27-17.34q5.57-5.53,11.11-11.1a7.92,7.92,0,0,1,6.06-2.8c40.56,0,81.81.07,122.63.07q51.94,0,103.88,0a8.39,8.39,0,0,1,6.57,2.85c4.19,4.3,8.52,8.61,12.7,12.77q4.71,4.7,9.4,9.42c1.52,1.54,2.89,2.5,5,2.5a8.39,8.39,0,0,0,1.73-.19,12.19,12.19,0,0,1,2.51-.27,9.43,9.43,0,0,1,8.87,5.84,10.14,10.14,0,0,1-2.53,11.7A10.29,10.29,0,0,1,1627,1175.83Z" transform="translate(567.03 1728)"/><path class="cls-44" d="M1334.39,1237.41c-39.34-.09-77.88-.1-110.39-.1H707.21c-32.52,0-71.06,0-110.4.1-4.71,0-7.8-1.26-10.72-4.33-5-5.29-10.3-10.52-15.39-15.58-3.77-3.74-7.67-7.62-11.44-11.48a11.37,11.37,0,0,0-8.82-3.77c-12.55.07-25.28.1-39,.1-12.48,0-25.53,0-39.9-.08h-.11c-3.56,0-6,.71-7.72,4.37a9.06,9.06,0,0,1-8.35,5,10.16,10.16,0,0,1-10.16-9.5,9.87,9.87,0,0,1,6.39-10,13.16,13.16,0,0,1,4.13-.72,8.36,8.36,0,0,1,7.29,3.94c2.22,3.3,4.72,4,8,4,11,0,21.81,0,32.68,0,15.32,0,31.17,0,46.75-.13h.2c4.55,0,7.59,1.25,10.49,4.31,4.91,5.17,10.05,10.27,15,15.2,3.77,3.75,7.67,7.62,11.44,11.5a12,12,0,0,0,9.36,4c66.6-.08,132.65-.08,194.6-.08h348c62,0,128,0,194.59.08a12,12,0,0,0,9.38-4c3.76-3.88,7.67-7.75,11.44-11.5,5-4.93,10.11-10,15-15.2,2.89-3.06,5.93-4.31,10.48-4.31h.21c15.58.12,31.43.12,46.75.13q16.29,0,32.58,0h0c3.41,0,5.9-.66,8.12-4a8.38,8.38,0,0,1,7.29-3.94,13.12,13.12,0,0,1,4.13.72,9.88,9.88,0,0,1,6.4,10,10.16,10.16,0,0,1-10.16,9.5,9.09,9.09,0,0,1-8.36-5c-1.75-3.66-4.15-4.37-7.71-4.37h-.12c-14.36,0-27.41.08-39.89.08-13.73,0-26.45,0-38.91-.1h0A11.42,11.42,0,0,0,1372,1206c-3.77,3.87-7.67,7.74-11.44,11.49-5.09,5-10.36,10.28-15.39,15.57-2.93,3.07-6,4.33-10.66,4.33Zm141.56-43.8a8,8,0,0,0-5.63,2.31,7.82,7.82,0,0,0-2.26,5.62,8,8,0,0,0,7.9,8,8.22,8.22,0,0,0,8-8,7.83,7.83,0,0,0-8-7.85h0Zm-1020.74,0a7.85,7.85,0,0,0-8,7.85,8.22,8.22,0,0,0,7.94,8,8,8,0,0,0,8-8,7.82,7.82,0,0,0-2.26-5.62,8,8,0,0,0-5.63-2.31Z" transform="translate(567.03 1728)"/><path class="cls-45" d="M1498.63,832.51a8.62,8.62,0,0,1-7.41-4c-2.72-4.24-5.94-4.58-9.86-4.58q-89.47.08-178.84.05H1190.36q-112.32,0-224.64,0h-.16l-.14,0a4.59,4.59,0,0,1-1.3.15c-.56,0-1.16,0-1.75-.1s-.94-.08-1.37-.1H948.26c-.46,0-.92.06-1.4.1s-1.19.1-1.75.1a4.54,4.54,0,0,1-1.3-.15l-.15,0h-.15q-112.32.06-224.64,0H606.71q-89.38,0-178.79-.05c-4,0-7.19.34-9.91,4.58a8.62,8.62,0,0,1-7.41,4,10.46,10.46,0,0,1-7.08-2.83,10.11,10.11,0,0,1,0-14.79,10.3,10.3,0,0,1,7-2.79,9.1,9.1,0,0,1,7.84,4.29c2.29,3.62,4.92,4.35,8.42,4.35,129.38-.07,260.9-.07,388.1-.07h70.34q29.07,0,58.16,0h.17l.17-.05a3.55,3.55,0,0,1,1.25-.17c.58,0,1.23.07,1.86.13.36,0,.72.08,1.06.1l6.73,0,6.67,0c.41,0,.77-.06,1.13-.1.63-.06,1.27-.13,1.86-.13a3.55,3.55,0,0,1,1.25.17l.17.05h.17q29.08,0,58.16,0h70.34c127.2,0,258.72,0,388.08.07,3.52,0,6.15-.73,8.44-4.35a9.1,9.1,0,0,1,7.84-4.29,10.3,10.3,0,0,1,7,2.79,10.11,10.11,0,0,1,0,14.79A10.46,10.46,0,0,1,1498.63,832.51Z" transform="translate(567.03 1728)"/><path class="cls-46" d="M1509.42,1004.05c-11.66-.06-24.18-.09-40.6-.09h-117.5c-1.74,0-3.48,0-5.21,0a2.49,2.49,0,0,1-1.77-.52,1.41,1.41,0,0,1-.31-1.12c0-.34.07-1.37,1.93-1.4l4.68,0h60.07c28.83,0,62.89,0,97,.07a11.39,11.39,0,0,0,9-3.64c3.66-3.77,7.46-7.53,11.13-11.17,4.83-4.79,9.83-9.74,14.58-14.78a15.2,15.2,0,0,1,12.19-5.25h.21c18.59.14,36.79.16,53.68.16h30.72l18.92,0h0c3.2,0,6-.31,8.05-4.09a8.84,8.84,0,0,1,7.9-4.53,10.28,10.28,0,0,1,3.63.67,9.67,9.67,0,0,1,6.72,9.46,10.06,10.06,0,0,1-7,9.69,10.53,10.53,0,0,1-3.23.51,9.16,9.16,0,0,1-8.21-4.82c-1.75-3.16-3.92-3.78-7.08-3.78q-25.27,0-50.47.05-27.48,0-55-.07a9.73,9.73,0,0,0-7.58,3.14c-4.09,4.17-8.31,8.37-12.39,12.44-5.13,5.11-10.43,10.4-15.56,15.7a10.49,10.49,0,0,1-8.32,3.4ZM1674.29,960a7.63,7.63,0,0,0-.82,0,7.8,7.8,0,0,0-5.38,2.89,7.7,7.7,0,0,0-1.69,5.8,8.13,8.13,0,0,0,7.91,7.15,8,8,0,0,0,7.86-8.83A7.74,7.74,0,0,0,1674.29,960Z" transform="translate(567.03 1728)"/><path class="cls-47" d="M1334.75,751.85a2.4,2.4,0,0,1-1.72-.44,1.83,1.83,0,0,1-.37-1.31c0-1.32.45-1.71,1.9-1.71a16.79,16.79,0,0,1,1.69.12c.59.06,1.14.12,1.66.12,17.54,0,33.36-.07,48.39-.07,16.49,0,31.74,0,46.62.08a12,12,0,0,0,9.42-3.83c4.34-4.47,8.83-8.95,13.17-13.27,4.63-4.61,9.42-9.38,14-14.16a11.1,11.1,0,0,1,8.83-3.64c18.45.07,37.13.07,55.19.08q24.38,0,48.77.06h.14c3.66,0,6.92-.35,9.71-4.67a8.59,8.59,0,0,1,7.42-3.93,10.56,10.56,0,0,1,7.45,3.14,9.9,9.9,0,0,1,2.86,7.49,10.15,10.15,0,0,1-3.63,7.28,10.51,10.51,0,0,1-6.72,2.48h0a8.73,8.73,0,0,1-7.73-4.32c-2.34-4-5.17-4.29-8.36-4.29q-25.68.06-51.19.06c-19,0-36.11,0-52.24-.1h0a12.52,12.52,0,0,0-9.8,4.19c-4.17,4.3-8.49,8.59-12.67,12.74-4.56,4.53-9.28,9.22-13.82,13.93a11.38,11.38,0,0,1-9,3.93h-.27c-6.24-.09-13.08-.14-21.52-.14q-6.59,0-13.17,0l-12.82,0h-24.28c-10,0-17.63,0-24.78-.06h0c-.51,0-1,0-1.57.09S1335.26,751.85,1334.75,751.85Z" transform="translate(567.03 1728)"/><path class="cls-48" d="M1709.87,832.64a8.82,8.82,0,0,1-7.85-4.4c-2-3.45-4.53-4.14-7.94-4.14-14,0-27.86,0-41.76,0-18,0-36.58,0-54.87.08-3.89,0-6.44-1-8.88-3.56-4.78-4.95-9.73-9.88-14.52-14.65-4.18-4.16-8.51-8.47-12.69-12.76a11.33,11.33,0,0,0-8.82-3.74h-.12c-8.59.06-17.77.08-28.88.08l-23.18,0-10.56,0h-1.08c-2.24,0-2.64-.44-2.65-1.67a1.66,1.66,0,0,1,.33-1.18,2.75,2.75,0,0,1,1.78-.4l.79,0h.8c5.78,0,11.5,0,17.23,0h16.62c2.76,0,5.52,0,8.27,0s5.52,0,8.29,0c4.79,0,8.7-.06,12.3-.17h.68a12.71,12.71,0,0,1,10,4.3c5,5.31,10.32,10.54,15.42,15.61,3.76,3.73,7.65,7.59,11.42,11.45a10.81,10.81,0,0,0,8.42,3.53c15-.06,30.85-.08,48.49-.08q23.8,0,47.59.05c2.74,0,5.29-.29,7.13-3.8a9,9,0,0,1,8.26-4.88,11.72,11.72,0,0,1,3.14.44,10.11,10.11,0,0,1,.12,19.28A10.39,10.39,0,0,1,1709.87,832.64Z" transform="translate(567.03 1728)"/><path class="cls-49" d="M1759.27,1012.39a8.62,8.62,0,0,1-7.72-4.31c-2.2-3.92-5.1-4.24-8.37-4.24H1743c-17.54,0-34.86,0-49.49,0h-77.24c-13.64,0-31.62,0-49.69-.08h0a18.6,18.6,0,0,0-2,.16,19.47,19.47,0,0,1-2.1.16c-1.82,0-2.18-.63-2.21-1.8a2,2,0,0,1,.37-1.48,2.22,2.22,0,0,1,1.6-.43,17.19,17.19,0,0,1,2.09.18,16.47,16.47,0,0,0,2,.18c31.16-.06,63.7-.08,99.49-.08l77.46,0c3.2,0,6-.3,8-4.08a8.85,8.85,0,0,1,8-4.6,10.07,10.07,0,0,1,3.54.64c4.41,1.63,6.7,4.78,6.8,9.36a9.94,9.94,0,0,1-6.91,9.76A10.58,10.58,0,0,1,1759.27,1012.39Z" transform="translate(567.03 1728)"/><path class="cls-50" d="M1652.24,751.55c-2.59-.06-5.4-.09-8.84-.09l-6,0-5,0-1,0h-12.61c-3.62,0-7.23,0-10.85,0a3.08,3.08,0,0,1-2.19-.62,1.61,1.61,0,0,1-.31-1.21c.07-.86.46-1.29,2.56-1.4.66,0,1.31,0,2,0h1.56l10.12,0,11.9,0c6.45,0,11.74,0,16.63.07h.15a10.33,10.33,0,0,0,7.9-3.36c4-4.07,8.13-8.17,12.11-12.13,5.11-5.08,10.39-10.33,15.49-15.6a11.65,11.65,0,0,1,9.27-3.81c17.77.08,35.75.08,53.13.08q18.6,0,37.19,0h0c2.88,0,5.56-.3,7.61-3.93a8.7,8.7,0,0,1,7.79-4.48,10.88,10.88,0,0,1,3.26.52,10,10,0,0,1,.2,19.21,11.37,11.37,0,0,1-3.42.55,8.82,8.82,0,0,1-8-4.72c-2-3.68-4.68-4-7.48-4-14.74,0-29.4.06-44.06.06-15.78,0-31.34,0-46.24-.07a9.16,9.16,0,0,0-7.1,3c-4.65,4.71-9.41,9.46-14,14-5,5-10.07,10.06-15.07,15.13a8.27,8.27,0,0,1-6.34,2.8Zm148.88-44.4a7.9,7.9,0,0,0-5.55,2.39,7.93,7.93,0,0,0,5.59,13.6,7.79,7.79,0,0,0,5.56-2.28,8.08,8.08,0,0,0-5.58-13.71h0Z" transform="translate(567.03 1728)"/><path class="cls-51" d="M1826.11,1105.54a9.08,9.08,0,0,1-8.5-5.74c-1.56-3.65-4-4-6.72-4h-.22l-14,0h-12.87c-6.66,0-14.51,0-22.23.08h-.13a8.82,8.82,0,0,1-6.92-3c-4.45-4.56-9-9.13-13.48-13.56-4.77-4.75-9.69-9.67-14.47-14.57a10.71,10.71,0,0,0-8.39-3.46h-.12c-8.58.06-18,.08-28.74.08q-14.13,0-28.26,0h-2.48c-.36,0-.72,0-1.1,0s-.73,0-1.09,0a2.35,2.35,0,0,1-1.66-.4,1.69,1.69,0,0,1-.32-1.26c0-1.22.48-1.58,2-1.58.38,0,.76,0,1.14,0s.78,0,1.14,0c4.94,0,9.82,0,14.71,0h16.27l8.49,0,8.49,0c5.36,0,9.71,0,13.68-.1h.23a8.67,8.67,0,0,1,6.82,2.9c5,5.1,10.13,10.21,15.09,15.16,4.37,4.34,8.88,8.84,13.28,13.3a9.58,9.58,0,0,0,7.42,3.2h.11c7.39,0,15.24-.08,24-.08q12.26,0,24.51,0h0c2.6,0,4.65-.53,6.44-3.11a9.61,9.61,0,0,1,8-4.47,10.72,10.72,0,0,1,4.17.89,9.74,9.74,0,0,1,6.06,10.26c-.45,4.56-3,7.51-7.52,8.75a10.83,10.83,0,0,1-2.85.4Zm.34-18.08a7.93,7.93,0,1,0,8,7.88,7.85,7.85,0,0,0-8-7.88h0Z" transform="translate(567.03 1728)"/><path class="cls-52" d="M1748.12,788.18a7.43,7.43,0,0,1-6.56-3.42c-3.07-4.84-6.87-5.24-10.82-5.24h-1.36c-1.37,0-2.68,0-4,0h-21.53c-1.19,0-2.62,0-3.15-.58a1.67,1.67,0,0,1-.28-1.28c.06-.92.38-1.3,2.15-1.3h1.32l6.19,0c3.93,0,7.87-.05,11.8-.05,3.35,0,6.32,0,9.1.06h.7c3.35,0,6.56-.36,9.15-4.66a8.46,8.46,0,0,1,7.47-4,10.67,10.67,0,0,1,7,2.66,10.06,10.06,0,0,1,.66,14.4,11,11,0,0,1-7.82,3.44Z" transform="translate(567.03 1728)"/><path class="cls-53" d="M1592.85,179.85c-41.77,0-85.38-.08-129.6-.08q-62.28,0-124.57.06a10,10,0,0,1-8-3.2c-4.51-4.64-9.18-9.29-13.68-13.78s-9.32-9.28-13.9-14a12,12,0,0,0-9.38-3.85c-83.44.07-168.26.07-250.29.08H1007.3l-38.74,0H940.67l-38.74,0H865.8c-82,0-166.85,0-250.28-.08a12,12,0,0,0-9.39,3.85c-4.58,4.72-9.32,9.44-13.9,14s-9.17,9.13-13.68,13.77a10,10,0,0,1-8,3.2q-62.33-.06-124.59-.06c-44.23,0-87.83,0-129.6.08a10.77,10.77,0,0,1-8.4-3.56c-13.18-13.31-26.66-26.77-39.7-39.78q-7.63-7.62-15.26-15.24l-.2-.2c-1.4-1.41-2.86-2.86-5.34-2.86a7.44,7.44,0,0,0-1.58.18,11.48,11.48,0,0,1-2.38.26,9.59,9.59,0,0,1-8.91-5.93A10.15,10.15,0,0,1,237.25,101a9.92,9.92,0,0,1,6.57-2.53,10.15,10.15,0,0,1,5.33,1.56,9.5,9.5,0,0,1,4.25,11.47c-1.4,3.83.13,5.79,2.13,7.77,21.37,21.27,38.61,38.51,54.24,54.24a9.79,9.79,0,0,0,7.56,3.15q63.29-.06,126.55,0,62.78,0,125.55,0a10.3,10.3,0,0,0,8-3.46c3.7-3.78,7.52-7.57,11.21-11.24,5.17-5.13,10.52-10.44,15.64-15.8a13.24,13.24,0,0,1,10.57-4.48c36,.1,72.21.12,102.88.12h473.85c30.67,0,66.87,0,102.82-.12A13.28,13.28,0,0,1,1305,146.2c5.12,5.36,10.46,10.66,15.63,15.8,3.7,3.67,7.52,7.46,11.22,11.24a10.3,10.3,0,0,0,8,3.46q62.81-.06,125.56,0,63.26,0,126.53,0a9.8,9.8,0,0,0,7.58-3.15c15.68-15.78,32.92-33,54.24-54.24,2-2,3.53-3.94,2.13-7.77a9.49,9.49,0,0,1,4.25-11.47,10.12,10.12,0,0,1,5.33-1.56A9.87,9.87,0,0,1,1672,101a10.14,10.14,0,0,1,2.65,11.68,9.59,9.59,0,0,1-8.91,5.93,11.48,11.48,0,0,1-2.38-.26,7.44,7.44,0,0,0-1.58-.18c-2.48,0-3.94,1.45-5.34,2.86l-.2.2L1641,136.5c-13,13-26.53,26.48-39.72,39.79a10.72,10.72,0,0,1-8.37,3.56Z" transform="translate(567.03 1728)"/><path class="cls-54" d="M1352.25,122.33a7.92,7.92,0,0,1-6.06-2.8q-5.54-5.57-11.11-11.11c-5.68-5.66-11.56-11.51-17.27-17.33a10.89,10.89,0,0,0-8.45-3.59c-86.83.08-175.11.08-260.48.09h-22.05q-31.68,0-63.36,0H945.79l-63.4,0h-22c-85.37,0-173.65,0-260.47-.09a10.88,10.88,0,0,0-8.46,3.59c-5.71,5.82-11.58,11.67-17.26,17.33-3.71,3.7-7.42,7.39-11.12,11.11a7.92,7.92,0,0,1-6.06,2.8c-40.33,0-81.48-.07-122.34-.07q-52.08,0-104.17,0a8.39,8.39,0,0,1-6.57-2.85c-4.2-4.31-8.53-8.63-12.73-12.8q-4.69-4.68-9.37-9.39c-1.52-1.54-2.9-2.5-5-2.5a8.39,8.39,0,0,0-1.73.19,12.19,12.19,0,0,1-2.51.27,9.43,9.43,0,0,1-8.87-5.84,10.14,10.14,0,0,1,2.53-11.7A10.24,10.24,0,0,1,293,75.18a9.89,9.89,0,0,1,5.16,1.43c4.16,2.56,5.71,7,4.14,12-1,3-.06,4.71,1.71,6.44,6.7,6.56,13.63,13.35,20.25,20.29a11.8,11.8,0,0,0,9.35,3.9q49.83-.06,99.62-.06c38.8,0,79.57,0,121.16.07a10.29,10.29,0,0,0,8-3.36c4-4.13,8.19-8.27,12.21-12.29,5.06-5,10.29-10.28,15.34-15.52a11.71,11.71,0,0,1,9.29-3.88c38.67.07,77.19.08,109.77.08h491.27c32.58,0,71.1,0,109.73-.08a11.74,11.74,0,0,1,9.33,3.88c5,5.24,10.28,10.47,15.34,15.52,4,4,8.17,8.16,12.21,12.29a10.28,10.28,0,0,0,8,3.36c41.61,0,82.38-.07,121.18-.07q49.79,0,99.59.06a11.82,11.82,0,0,0,9.38-3.9c6.6-6.92,13.54-13.72,20.25-20.29,1.77-1.73,2.67-3.41,1.71-6.44-1.57-5,0-9.44,4.13-12a10,10,0,0,1,5.17-1.43,10.07,10.07,0,0,1,9.29,14.21,9.43,9.43,0,0,1-8.87,5.84,12.12,12.12,0,0,1-2.51-.27,8.46,8.46,0,0,0-1.73-.19c-2.12,0-3.49,1-5,2.5-3.1,3.14-6.23,6.25-9.35,9.36-4.2,4.19-8.54,8.51-12.75,12.83a8.4,8.4,0,0,1-6.56,2.85q-52.11,0-104.18,0c-40.86,0-82,0-122.33.07Z" transform="translate(567.03 1728)"/><path class="cls-55" d="M1464.71,68.64a8.38,8.38,0,0,1-7.29-3.94c-2.22-3.3-4.72-4-8-4-11,0-21.81,0-32.67,0-15.32,0-31.17,0-46.76.13h-.2c-4.55,0-7.59-1.25-10.49-4.31-4.9-5.17-10-10.26-15-15.19-3.78-3.75-7.68-7.63-11.45-11.5a12,12,0,0,0-9.36-4c-66.92.08-132.91.08-200.25.08H786c-67.33,0-133.32,0-200.22-.08a12,12,0,0,0-9.38,4c-3.76,3.87-7.67,7.74-11.44,11.48-5,4.94-10.11,10-15,15.21-2.9,3.06-5.94,4.31-10.49,4.31h-.21c-15.58-.12-31.43-.12-46.75-.13q-16.29,0-32.58,0h0c-3.41,0-5.9.66-8.12,4a8.38,8.38,0,0,1-7.29,3.94h0a13.12,13.12,0,0,1-4.13-.72,9.89,9.89,0,0,1-6.4-10,10.15,10.15,0,0,1,7.69-9.2,10.27,10.27,0,0,1,2.48-.3,9.08,9.08,0,0,1,8.35,5c1.75,3.66,4.15,4.37,7.71,4.37h.12c14.41,0,27.46-.08,39.88-.08,13.75,0,26.48,0,38.92.1A11.42,11.42,0,0,0,548.05,54c3.77-3.87,7.67-7.74,11.44-11.48,5.09-5.06,10.36-10.29,15.39-15.58,2.93-3.07,6-4.33,10.67-4.33,39.21.09,77.51.1,109.8.1h518.52c32.3,0,70.6,0,109.75-.1,4.71,0,7.8,1.26,10.72,4.33,5,5.29,10.3,10.51,15.39,15.57,3.77,3.75,7.67,7.62,11.45,11.49a11.34,11.34,0,0,0,8.82,3.77c12.53-.07,25.25-.1,39-.1,12.42,0,25.47,0,39.88.08h.12c3.56,0,6-.71,7.71-4.37a9.08,9.08,0,0,1,8.35-5,10.33,10.33,0,0,1,2.48.3,10.15,10.15,0,0,1,7.69,9.2,9.88,9.88,0,0,1-6.4,10A13.12,13.12,0,0,1,1464.71,68.64ZM444,50.51a8.21,8.21,0,0,0-7.93,8A7.83,7.83,0,0,0,444,66.39a8,8,0,0,0,5.68-2.31,7.82,7.82,0,0,0,2.26-5.62,8,8,0,0,0-7.9-8H444Zm1021.21,0a8,8,0,0,0-7.9,8,7.95,7.95,0,0,0,15.89.08,8.21,8.21,0,0,0-7.93-8Z" transform="translate(567.03 1728)"/><path class="cls-56" d="M1498.94,438.91a9.11,9.11,0,0,1-7.85-4.29c-2.28-3.62-4.91-4.35-8.41-4.35-120.4.06-239.72.06-361.55.06H1023.3q-28.83,0-57.65,0h-.18l-.16.06a3.91,3.91,0,0,1-1.26.17c-.58,0-1.23-.07-1.86-.13-.37,0-.73-.08-1.07-.1l-6.5,0h-6.44l-1.14.11c-.63.06-1.28.13-1.86.13a3.91,3.91,0,0,1-1.26-.17l-.16-.06h-.18q-28.82.06-57.65,0H788.1c-121.83,0-241.16,0-361.53-.06-3.52,0-6.15.73-8.43,4.35a9.13,9.13,0,0,1-7.85,4.29,10.3,10.3,0,0,1-7-2.79,10.1,10.1,0,0,1,0-14.79,10.45,10.45,0,0,1,7.07-2.84,8.63,8.63,0,0,1,7.41,4c2.72,4.24,5.94,4.58,9.88,4.58q89.41-.07,178.74-.06h108.3q114.51,0,229,0h.15l.15,0a4.18,4.18,0,0,1,1.29-.15c.56,0,1.17.05,1.75.1s.95.08,1.38.09h12.3c.45,0,.92-.05,1.41-.09s1.19-.1,1.74-.1a4.21,4.21,0,0,1,1.3.15l.15,0h.15q114.51-.06,229,0h108.3q89.36,0,178.7.06c4,0,7.2-.34,9.92-4.58a8.62,8.62,0,0,1,7.4-4,10.45,10.45,0,0,1,7.08,2.84,10.09,10.09,0,0,1,0,14.79A10.28,10.28,0,0,1,1498.94,438.91Z" transform="translate(567.03 1728)"/><path class="cls-57" d="M246,310.33a10.06,10.06,0,0,1-3.63-.67,9.67,9.67,0,0,1-6.72-9.46,10.07,10.07,0,0,1,7-9.69,10.53,10.53,0,0,1,3.23-.51,9.16,9.16,0,0,1,8.21,4.82c1.75,3.16,3.92,3.78,7.08,3.78q25.29,0,50.47,0,27.48,0,55,.06a9.73,9.73,0,0,0,7.58-3.14c4.09-4.17,8.31-8.37,12.38-12.43,5.14-5.12,10.44-10.4,15.57-15.7a10.46,10.46,0,0,1,8.32-3.41h.12c15,.08,29.74.1,40.87.1l38.44,0h78.8l5.2,0a2.49,2.49,0,0,1,1.77.52,1.44,1.44,0,0,1,.31,1.13c0,.33-.07,1.37-1.93,1.39q-2.34,0-4.68,0H509.15c-28.7,0-62.64,0-96.85-.07a11.39,11.39,0,0,0-8.95,3.64c-3.66,3.77-7.45,7.53-11.12,11.17-4.84,4.79-9.84,9.74-14.59,14.79a15.2,15.2,0,0,1-12.19,5.25h-.21c-18.59-.15-36.78-.17-53.67-.17H261.92c-3.2,0-6,.3-8.05,4.08A8.84,8.84,0,0,1,246,310.33Zm-.28-18.17a7.87,7.87,0,0,0-.84,0,8,8,0,0,0-7,8.78,7.74,7.74,0,0,0,7.88,7,7.63,7.63,0,0,0,.82,0,7.77,7.77,0,0,0,5.38-2.89,7.67,7.67,0,0,0,1.69-5.79A8.13,8.13,0,0,0,245.69,292.16Z" transform="translate(567.03 1728)"/><path class="cls-58" d="M309.42,597.68a10.55,10.55,0,0,1-7.46-3.15,9.87,9.87,0,0,1-2.86-7.48,10.15,10.15,0,0,1,3.63-7.28,10.52,10.52,0,0,1,6.72-2.49,8.74,8.74,0,0,1,7.73,4.33c2.34,4,5.17,4.29,8.36,4.29q25.62-.06,51.08-.07c19.05,0,36.18,0,52.35.11a12.52,12.52,0,0,0,9.8-4.19c4.17-4.29,8.48-8.58,12.66-12.73,4.56-4.54,9.28-9.23,13.83-13.94a11.38,11.38,0,0,1,9-3.93h.27c6.25.09,13.11.14,21.56.14l13.23,0,12.72,0h24.15c10,0,17.73,0,24.91.06h0c.51,0,1,0,1.57-.09s1.08-.09,1.58-.09a2.4,2.4,0,0,1,1.72.44,1.79,1.79,0,0,1,.37,1.31c0,1.31-.45,1.71-1.9,1.71a16.79,16.79,0,0,1-1.69-.12c-.59-.06-1.14-.12-1.66-.12-17.63,0-33.49.07-48.5.07-16.47,0-31.68,0-46.51-.09h0a12,12,0,0,0-9.42,3.84c-4.34,4.48-8.83,9-13.18,13.28-4.63,4.61-9.41,9.37-14,14.15a11.13,11.13,0,0,1-8.83,3.64c-18.45-.07-37.13-.08-55.19-.08q-24.37,0-48.77-.06h-.14c-3.66,0-6.92.35-9.7,4.67a8.62,8.62,0,0,1-7.42,3.93Z" transform="translate(567.03 1728)"/><path class="cls-59" d="M355.85,500.77a12.7,12.7,0,0,1-10-4.31c-5-5.3-10.32-10.54-15.42-15.61-3.76-3.73-7.65-7.59-11.42-11.45a10.8,10.8,0,0,0-8.41-3.52c-15,.05-30.93.07-48.64.07q-23.73,0-47.45,0h0c-2.74,0-5.29.29-7.13,3.79a9,9,0,0,1-8.26,4.89,11.4,11.4,0,0,1-3.14-.45,10.11,10.11,0,0,1-.12-19.28,10.68,10.68,0,0,1,3.29-.53,8.82,8.82,0,0,1,7.85,4.4c2,3.45,4.53,4.14,7.94,4.14,13.95,0,27.82,0,41.68,0,18,0,36.64,0,54.95-.09,3.9,0,6.44,1,8.88,3.57,4.78,4.95,9.73,9.87,14.52,14.64,4.18,4.16,8.51,8.47,12.69,12.77a11.32,11.32,0,0,0,8.82,3.73h.12c8.56-.05,17.7-.08,28.79-.08l22.89,0h12c2.24,0,2.65.44,2.65,1.68a1.64,1.64,0,0,1-.33,1.17,2.73,2.73,0,0,1-1.78.41l-.79,0-.8,0c-5.84,0-11.62,0-17.4,0H385.39c-2.76,0-5.52,0-8.29,0s-5.53,0-8.3,0c-4.78,0-8.67.05-12.27.17Z" transform="translate(567.03 1728)"/><path class="cls-60" d="M160.74,263a10.3,10.3,0,0,1-3.54-.64c-4.41-1.64-6.7-4.79-6.8-9.37a9.94,9.94,0,0,1,6.91-9.75,10.58,10.58,0,0,1,3.42-.57,8.62,8.62,0,0,1,7.72,4.3c2.2,3.93,5.1,4.25,8.39,4.25H177c17.48,0,34.83-.06,49.5-.06h77.39c13.61,0,31.54,0,49.52.08a18.6,18.6,0,0,0,2-.16,19.55,19.55,0,0,1,2.1-.17c1.82,0,2.18.63,2.21,1.8a2.06,2.06,0,0,1-.37,1.49,2.22,2.22,0,0,1-1.6.43h0a17.26,17.26,0,0,1-2.09-.19,16.36,16.36,0,0,0-2-.17c-31,.05-63.42.08-99.15.08q-38.9,0-77.8,0c-3.2,0-6,.31-8,4.08A8.84,8.84,0,0,1,160.74,263Z" transform="translate(567.03 1728)"/><path class="cls-61" d="M108.24,597.93a10.77,10.77,0,0,1-3.25-.52,10,10,0,0,1-.21-19.21,11.08,11.08,0,0,1,3.43-.55,8.82,8.82,0,0,1,8,4.71c2,3.69,4.68,4,7.48,4,14.7,0,29.31-.05,43.92-.05,15.8,0,31.41,0,46.38.07a9.19,9.19,0,0,0,7.1-3c4.66-4.72,9.43-9.48,14-14.08,4.95-4.94,10.06-10,15-15.1a8.29,8.29,0,0,1,6.34-2.8h.27c2.59.07,5.4.09,8.85.09l6,0h5l1,0H290.2l10.92,0a3.08,3.08,0,0,1,2.19.62,1.56,1.56,0,0,1,.31,1.21c-.06.86-.46,1.29-2.56,1.4-.66,0-1.32,0-2,0h-1.62l-10,0-11.9,0c-6.45,0-11.74,0-16.63-.08h-.15a10.34,10.34,0,0,0-7.9,3.36c-4,4.07-8.12,8.16-12.1,12.12-5.11,5.08-10.4,10.34-15.5,15.61a11.65,11.65,0,0,1-9.27,3.81c-17.77-.08-35.75-.08-53.13-.08q-18.6,0-37.19,0h0c-2.87,0-5.56.3-7.61,3.92A8.71,8.71,0,0,1,108.24,597.93Zm-.39-18.11a7.79,7.79,0,0,0-5.56,2.28,7.95,7.95,0,1,0,11.16,11.32,7.93,7.93,0,0,0-5.59-13.6Z" transform="translate(567.03 1728)"/><path class="cls-62" d="M1221.09,656.92a8.71,8.71,0,0,1-7.79-4.49c-2-3.62-4.74-3.92-7.54-3.92l-37.26,0c-17.38,0-35.35,0-53,.08a11.72,11.72,0,0,1-9.36-3.81c-5.1-5.27-10.39-10.53-15.5-15.61-4-4-8.1-8.05-12.1-12.12a10.33,10.33,0,0,0-7.9-3.36h-.15c-4.89,0-10.18.08-16.63.08l-11.9,0-10.05,0H995.92l-41.3,0-41.31,0H877.36l-10.05,0-11.9,0c-6.45,0-11.74,0-16.63-.08h-.16a10.32,10.32,0,0,0-7.89,3.36c-4,4.07-8.12,8.16-12.1,12.12-5.11,5.08-10.4,10.34-15.5,15.61a11.65,11.65,0,0,1-9.27,3.81c-17.78-.08-35.75-.08-53.13-.08q-18.6,0-37.19,0h0c-2.88,0-5.56.3-7.61,3.92a8.71,8.71,0,0,1-7.79,4.49,10.83,10.83,0,0,1-3.26-.52,10,10,0,0,1-.2-19.21,11.06,11.06,0,0,1,3.42-.55,8.83,8.83,0,0,1,8,4.71c2,3.69,4.67,4,7.48,4,14.66,0,29.23-.05,43.8-.05,15.86,0,31.5,0,46.5.07a9.19,9.19,0,0,0,7.1-3c4.67-4.72,9.44-9.49,14.06-14.1,4.94-4.93,10.05-10,15-15.08a8.27,8.27,0,0,1,6.34-2.8h.27c2.59.06,5.4.09,8.84.09l6,0h5l1,0h195.12v0h5l6,0c3.44,0,6.25,0,8.84-.09h.27a8.27,8.27,0,0,1,6.34,2.8c5,5,10.09,10.15,15,15.08,4.62,4.61,9.39,9.38,14.06,14.1a9.16,9.16,0,0,0,7,3c15-.05,30.69-.07,46.54-.07q21.87,0,43.73.05h0c2.89,0,5.57-.3,7.56-4a8.82,8.82,0,0,1,8-4.71,11.08,11.08,0,0,1,3.43.55,10,10,0,0,1-.2,19.21A10.83,10.83,0,0,1,1221.09,656.92Zm.38-18.11a7.93,7.93,0,0,0-5.58,13.6A7.95,7.95,0,0,0,1227,641.09a7.79,7.79,0,0,0-5.56-2.28Zm-533.72,0a7.78,7.78,0,0,0-5.56,2.28,7.94,7.94,0,1,0,13.54,5.67,8.09,8.09,0,0,0-8-8Z" transform="translate(567.03 1728)"/><path class="cls-63" d="M199.38,192.72a8.67,8.67,0,0,1-6.82-2.9c-5-5.09-10.11-10.19-15.06-15.13-4.38-4.36-8.9-8.86-13.3-13.33a9.61,9.61,0,0,0-7.43-3.2h-.11c-7.37.05-15.21.08-23.95.08q-12.29,0-24.57-.05h0c-2.6,0-4.65.53-6.44,3.11a9.61,9.61,0,0,1-8,4.47h0a10.63,10.63,0,0,1-4.16-.89,9.74,9.74,0,0,1-6.07-10.26c.45-4.56,3-7.51,7.52-8.75a10.83,10.83,0,0,1,2.85-.4,9.08,9.08,0,0,1,8.5,5.74c1.56,3.65,4,3.95,6.71,3.95h.23q6.89,0,13.78,0h13c6.66,0,14.52,0,22.26-.08h.13a8.82,8.82,0,0,1,6.92,2.95c4.46,4.56,9,9.14,13.48,13.56,4.77,4.76,9.69,9.67,14.47,14.57a10.71,10.71,0,0,0,8.39,3.46h.12c8.58-.06,18-.08,28.74-.08q14.13,0,28.26,0h2.48c.36,0,.72,0,1.1,0s.73,0,1.09,0a2.4,2.4,0,0,1,1.67.4,1.73,1.73,0,0,1,.31,1.25c0,1.23-.48,1.59-2,1.59-.38,0-.76,0-1.14-.05s-.78,0-1.14,0c-4.93,0-9.8,0-14.68,0H230.42l-8.58,0-8.58,0c-5.34,0-9.68,0-13.65.1Zm-105.93-45a7.93,7.93,0,1,0,5.71,13.52,7.93,7.93,0,0,0,2.27-5.64,7.84,7.84,0,0,0-7.91-7.88h-.07Z" transform="translate(567.03 1728)"/><path class="cls-64" d="M160.71,536.28a10.67,10.67,0,0,1-7-2.66,10,10,0,0,1-3.37-7.09,9.93,9.93,0,0,1,2.71-7.31,10.92,10.92,0,0,1,7.82-3.44,7.44,7.44,0,0,1,6.56,3.41c3.07,4.84,6.87,5.24,10.81,5.24h1.38l4,0,6.45,0h15.09c1.19,0,2.62,0,3.15.57a1.75,1.75,0,0,1,.29,1.29c-.07.91-.39,1.3-2.15,1.3h-1.33l-6.21,0c-3.94,0-7.88.06-11.82.06q-4.53,0-9.06-.06h-.71c-3.34,0-6.55.36-9.14,4.66a8.46,8.46,0,0,1-7.47,4Z" transform="translate(567.03 1728)"/><path class="cls-65" d="M975.33,1007.83a17.51,17.51,0,0,1-2.11-.18c-.5-.07-1-.13-1.44-.16H959.5c-.52,0-1,.09-1.52.16a17.52,17.52,0,0,1-2.1.18,3.18,3.18,0,0,1-1.35-.23l-.21-.1h-.23c-30.05,0-59.59,0-87.05,0H761.22c-26.17,0-57.15,0-88.57.08a11.29,11.29,0,0,1-8.88-3.61c-11.19-11.31-22.63-22.75-33.69-33.81-9.39-9.38-19.09-19.07-28.6-28.65a12,12,0,0,0-9.25-4h-.1c-11.83.08-24.23.11-37.88.11q-18.63,0-37.27-.07h-.12c-3,0-5.79.31-7.9,4.11a9,9,0,0,1-8,4.58,9.89,9.89,0,0,1-3.56-.66,9.7,9.7,0,0,1-6.73-9.47,10,10,0,0,1,7-9.69A10.56,10.56,0,0,1,501,926a8.75,8.75,0,0,1,7.89,4.38c2.12,3.88,5,4.2,8.3,4.2h.23q16.08,0,32.17,0c14.43,0,29.35,0,44-.08h.12a11.2,11.2,0,0,1,8.78,3.59c10.44,10.54,21.1,21.21,31.42,31.52,10.13,10.12,20.6,20.6,30.85,31a12.53,12.53,0,0,0,9.82,4c46.72,0,95.06-.07,143.7-.07q67.95,0,135.9.06h.23l.2-.1a3.35,3.35,0,0,1,1.42-.23,17.6,17.6,0,0,1,2.12.17c.6.07,1.17.14,1.68.16h11.54c.56,0,1.13-.09,1.72-.16a17.76,17.76,0,0,1,2.13-.17,3.3,3.3,0,0,1,1.41.23l.21.1H977q68-.06,135.91-.06c48.64,0,97,0,143.68.07a12.51,12.51,0,0,0,9.83-4c10.26-10.36,20.75-20.84,30.89-31,10.3-10.3,21-21,31.39-31.49a11.2,11.2,0,0,1,8.78-3.59h.11c14.68.08,29.61.08,44,.08q16.08,0,32.17,0h.22c3.29,0,6.19-.32,8.31-4.2a8.75,8.75,0,0,1,7.89-4.38,10.61,10.61,0,0,1,3.25.51,10,10,0,0,1,7,9.69,9.68,9.68,0,0,1-6.72,9.47,9.89,9.89,0,0,1-3.56.66,9,9,0,0,1-8-4.58c-2.11-3.8-4.94-4.11-7.9-4.11h-.12q-18.64.06-37.27.07c-13.66,0-26,0-37.88-.11h-.1a12.07,12.07,0,0,0-9.26,4c-9.51,9.58-19.22,19.29-28.62,28.68-11,11-22.48,22.48-33.66,33.78a11.26,11.26,0,0,1-8.84,3.61c-31.47-.07-62.45-.08-88.61-.08H1064.17c-27.46,0-57,0-87.05,0h-.24l-.21.1A3.13,3.13,0,0,1,975.33,1007.83Z" transform="translate(567.03 1728)"/><path class="cls-66" d="M1284.05,751.6c-35-.09-69.85-.11-99.29-.11h-83.29q-68,0-136,0h-.1l-.1,0a5.34,5.34,0,0,1-1.15.1c-.48,0-1,0-1.45-.06l-1-.06H947.66c-.36,0-.7,0-1.06.06s-1,.06-1.45.06a5.34,5.34,0,0,1-1.15-.1l-.1,0h-.1q-68,0-136,0H724.47c-29.44,0-64.26,0-99.29.11a12.77,12.77,0,0,1-10.2-4.3c-4.93-5.13-10.05-10.24-15-15.17-3.9-3.88-7.92-7.9-11.82-11.9a10.32,10.32,0,0,0-7.91-3.37h-.15c-4.92,0-10,.08-15.35.08-6,0-12.42,0-19.59-.1H545a6.31,6.31,0,0,0-6.17,3.41c-2,3.37-5,5.23-8.38,5.23a10.52,10.52,0,0,1-2.89-.42,10,10,0,0,1-.31-19.36,10.69,10.69,0,0,1,3.21-.51,9.43,9.43,0,0,1,8.19,4.93c1.75,2.89,3.86,3.47,6.69,3.47h5l9.43,0,9.45,0c4.51,0,8.23,0,11.72-.08h.26a10.53,10.53,0,0,1,8.19,3.52c3.8,3.88,7.71,7.77,11.49,11.53,4.83,4.8,9.82,9.76,14.61,14.75a14.71,14.71,0,0,0,11.57,4.94c61.1-.09,123.11-.1,181-.1h112.4l23.16,0h.12l.11,0a4.76,4.76,0,0,1,1.09-.1c.5,0,1,0,1.58.09l.61.05,7.42,0,7.36,0,.68-.05c.53,0,1.08-.09,1.58-.09a4.82,4.82,0,0,1,1.09.1l.11,0h.12l23.16,0h112.4c57.91,0,119.91,0,181,.1a14.73,14.73,0,0,0,11.61-4.94c4.78-5,9.77-9.94,14.59-14.74,3.79-3.76,7.71-7.66,11.5-11.54a10.55,10.55,0,0,1,8.19-3.52h.27c3.49.05,7.21.08,11.72.08l9.45,0,9.43,0h5c2.83,0,4.94-.58,6.68-3.47a9.45,9.45,0,0,1,8.2-4.93,10.69,10.69,0,0,1,3.21.51,10,10,0,0,1-.31,19.36,10.54,10.54,0,0,1-2.9.42c-3.38,0-6.35-1.86-8.37-5.23a6.32,6.32,0,0,0-6.17-3.41h-.14c-7.17.07-13.58.1-19.59.1-5.41,0-10.43,0-15.35-.08H1329a10.31,10.31,0,0,0-7.91,3.37c-3.9,4-7.92,8-11.8,11.88-5,4.95-10.08,10-15,15.19a12.73,12.73,0,0,1-10.14,4.3Zm94.73-44.24a8,8,0,0,0-7.65,8.25,8.07,8.07,0,0,0,7.93,7.75h.28a8.11,8.11,0,0,0,7.66-8.29,8,8,0,0,0-7.93-7.71Zm-848.63,0a8,8,0,0,0-7.92,7.71,8.11,8.11,0,0,0,7.66,8.29h.28a8.07,8.07,0,0,0,7.93-7.75,8,8,0,0,0-7.65-8.25Z" transform="translate(567.03 1728)"/><path class="cls-67" d="M421.67,1004.05a10.49,10.49,0,0,1-8.32-3.4c-5.13-5.3-10.44-10.59-15.57-15.7-4.07-4.07-8.29-8.27-12.38-12.44a9.7,9.7,0,0,0-7.54-3.14q-27.56.07-55,.07-25.22,0-50.43-.05c-3.2,0-5.37.62-7.13,3.78a9.13,9.13,0,0,1-8.21,4.82,10.58,10.58,0,0,1-3.23-.51,10.06,10.06,0,0,1-7-9.69,9.67,9.67,0,0,1,6.72-9.46,10.27,10.27,0,0,1,3.62-.67,8.85,8.85,0,0,1,7.91,4.53c2.09,3.78,4.85,4.09,8,4.09l19,0h30.71c16.9,0,35.1,0,53.69-.16h.21a15.2,15.2,0,0,1,12.19,5.25c4.75,5,9.75,10,14.59,14.79,3.67,3.64,7.46,7.4,11.12,11.16a11.35,11.35,0,0,0,8.92,3.64c34.12-.06,68.19-.07,97-.07h60.07l4.68,0c1.86,0,1.91,1.06,1.93,1.4a1.49,1.49,0,0,1-.31,1.12,2.5,2.5,0,0,1-1.77.52c-1.73,0-3.47,0-5.21,0H462.39c-16.42,0-28.94,0-40.6.09ZM256.92,960a7.74,7.74,0,0,0-7.88,7,8,8,0,0,0,7.86,8.83,8.14,8.14,0,0,0,7.91-7.15,7.85,7.85,0,0,0-7.08-8.69A7.32,7.32,0,0,0,256.92,960Z" transform="translate(567.03 1728)"/><path class="cls-68" d="M975.52,946.19a15.94,15.94,0,0,1-1.65-.11l-.78-.07-7.48,0-7.42,0-.86.07a15.57,15.57,0,0,1-1.64.11,3.65,3.65,0,0,1-1.09-.13l-.15,0h-.15l-25.53,0-67.62,0c-10.57,0-24.53,0-38.72.08a9.44,9.44,0,0,1-7.51-3.07C810,938,804.91,932.9,800,928c-4.3-4.28-8.73-8.71-13-13.11a10.27,10.27,0,0,0-7.92-3.47q-22.65.06-45.23.05-30.12,0-60.25-.07c-2.93,0-5.24.66-7.11,3.87A9.67,9.67,0,0,1,655,919.5a10.33,10.33,0,0,1-6.92-9.79,9.73,9.73,0,0,1,6.86-9.38,10.25,10.25,0,0,1,3.47-.62,9.17,9.17,0,0,1,8,4.71c2,3.32,4.32,4,7.52,4,14.89,0,29.7,0,44.52-.06,20,0,40.66,0,61-.13a11.66,11.66,0,0,1,9.28,3.92c4.56,4.73,9.28,9.43,13.85,14,4.28,4.27,8.71,8.67,13,13.08a11.93,11.93,0,0,0,9.36,3.83c23.1,0,47-.08,73.17-.08q28.1,0,56.19,0h.17l.16-.05a3.74,3.74,0,0,1,1.17-.15c.53,0,1.12.06,1.68.11.39,0,.77.08,1.12.1h14.07c.41,0,.79-.06,1.17-.1.57,0,1.16-.11,1.69-.11a3.63,3.63,0,0,1,1.16.15l.17.05H977l56.19,0c26.16,0,50.08,0,73.13.08a12,12,0,0,0,9.41-3.82c4.26-4.41,8.69-8.82,13-13.08,4.57-4.55,9.3-9.26,13.85-14a11.62,11.62,0,0,1,9.19-3.92c20.42.1,41.09.11,61.08.13q22.23,0,44.46.06c3.27,0,5.64-.66,7.58-4a9.18,9.18,0,0,1,8-4.71,10.19,10.19,0,0,1,3.46.62,9.73,9.73,0,0,1,6.87,9.38,10.33,10.33,0,0,1-6.92,9.79,9.67,9.67,0,0,1-11.49-4.23c-1.88-3.21-4.19-3.87-7.07-3.87q-30.2.08-60.29.07-22.59,0-45.2-.05a10.33,10.33,0,0,0-8,3.47c-4.3,4.39-8.74,8.82-13,13.09-4.92,4.91-10,10-14.94,15a9.38,9.38,0,0,1-7.42,3.07c-14.28-.07-28.24-.08-38.81-.08l-67.62,0-25.53,0h-.16l-.14,0A3.65,3.65,0,0,1,975.52,946.19ZM1273.12,902a7.66,7.66,0,0,0-7.9,7.86,7.87,7.87,0,0,0,7.8,8h.11a8.12,8.12,0,0,0,7.92-7.95,7.74,7.74,0,0,0-2.24-5.59,7.93,7.93,0,0,0-5.67-2.38Zm-615,0a7.92,7.92,0,0,0-5.67,2.38,7.75,7.75,0,0,0-2.25,5.59,8.14,8.14,0,0,0,7.93,7.95h.1a7.88,7.88,0,0,0,7.81-8,7.66,7.66,0,0,0-7.9-7.86Z" transform="translate(567.03 1728)"/><path class="cls-69" d="M574.48,751.85c-.51,0-1.05-.05-1.58-.09s-1.06-.09-1.53-.09c-7.2,0-14.85.06-24.83.06H522.26l-12.83,0-13.16,0c-8.45,0-15.28.05-21.52.14h-.27a11.42,11.42,0,0,1-9-3.93c-4.54-4.71-9.25-9.4-13.81-13.93-4.18-4.15-8.5-8.44-12.67-12.74a12.48,12.48,0,0,0-9.72-4.19c-16.21.07-33.29.1-52.32.1q-25.54,0-51.11-.06h0c-3.27,0-6.1.32-8.44,4.29a8.73,8.73,0,0,1-7.73,4.32h0a10.56,10.56,0,0,1-6.73-2.48,10.18,10.18,0,0,1-3.62-7.28,9.9,9.9,0,0,1,2.86-7.49,10.56,10.56,0,0,1,7.45-3.14,8.59,8.59,0,0,1,7.42,3.93c2.78,4.32,6,4.67,9.71,4.67h.14q24.39-.07,48.77-.06c18.06,0,36.74,0,55.11-.08a11.16,11.16,0,0,1,8.91,3.64c4.61,4.78,9.39,9.54,14,14.15,4.34,4.33,8.84,8.8,13.18,13.28a11.9,11.9,0,0,0,9.33,3.83c15,0,30.22-.08,46.71-.08,15,0,30.85,0,48.37.07h0a16.4,16.4,0,0,0,1.67-.12,17,17,0,0,1,1.7-.12c1.45,0,1.89.39,1.9,1.71a1.83,1.83,0,0,1-.37,1.31A2.42,2.42,0,0,1,574.48,751.85Z" transform="translate(567.03 1728)"/><path class="cls-70" d="M199.36,832.64a10.39,10.39,0,0,1-3.29-.53,10.11,10.11,0,0,1,.12-19.28,11.72,11.72,0,0,1,3.14-.44,9,9,0,0,1,8.26,4.88c1.84,3.51,4.39,3.8,7.07,3.8q23.88,0,47.65-.05c17.64,0,33.48,0,48.43.08a10.85,10.85,0,0,0,8.48-3.53c3.77-3.86,7.66-7.72,11.42-11.46,5.1-5.06,10.38-10.3,15.42-15.6a12.71,12.71,0,0,1,10-4.3h.68c3.6.11,7.51.17,12.3.17,2.76,0,5.52,0,8.29,0s5.51,0,8.27,0h16.62c5.72,0,11.45,0,17.17,0h.85l.8,0a2.75,2.75,0,0,1,1.78.4,1.66,1.66,0,0,1,.33,1.18c0,1.23-.41,1.67-2.65,1.67h-1.07l-10.58,0-23.17,0c-11.11,0-20.29,0-28.88-.08h-.12a11.33,11.33,0,0,0-8.82,3.74c-4.19,4.3-8.52,8.61-12.7,12.77-4.79,4.77-9.74,9.69-14.51,14.64a11,11,0,0,1-8.78,3.56c-18.39-.07-37-.08-55-.08q-20.83,0-41.67,0h0c-3.49,0-6,.7-8,4.14A8.82,8.82,0,0,1,199.36,832.64Z" transform="translate(567.03 1728)"/><path class="cls-71" d="M171.94,1012.39a10.53,10.53,0,0,1-3.42-.57,9.94,9.94,0,0,1-6.91-9.76c.1-4.58,2.39-7.73,6.79-9.36a10.12,10.12,0,0,1,3.55-.64,8.88,8.88,0,0,1,8,4.6c2,3.78,4.83,4.08,8,4.08l77.51,0c35.79,0,68.33,0,99.48.08a16.47,16.47,0,0,0,2-.18,17.36,17.36,0,0,1,2.09-.18,2.25,2.25,0,0,1,1.61.43,2.06,2.06,0,0,1,.37,1.48c0,1.17-.4,1.8-2.22,1.8a19.48,19.48,0,0,1-2.09-.16,18.83,18.83,0,0,0-2-.16c-18.09.07-36.07.08-49.71.08H237.66c-14.63,0-31.95,0-49.49,0H188c-3.28,0-6.17.32-8.37,4.24a8.64,8.64,0,0,1-7.72,4.31Z" transform="translate(567.03 1728)"/><path class="cls-72" d="M1759.27,912.49a8.62,8.62,0,0,1-7.72-4.31c-2.2-3.93-5.1-4.25-8.37-4.25H1743c-17.54.05-34.86.06-49.49.06h-77.24c-13.64,0-31.62,0-49.69-.07h0a16.42,16.42,0,0,0-2,.16,19.47,19.47,0,0,1-2.1.16c-1.82,0-2.18-.63-2.21-1.8a2.06,2.06,0,0,1,.37-1.49,2.27,2.27,0,0,1,1.6-.43,17.26,17.26,0,0,1,2.09.19,16.47,16.47,0,0,0,2,.18c31.16-.06,63.7-.09,99.49-.09q38.73,0,77.46,0c3.2,0,6-.31,8-4.08a8.86,8.86,0,0,1,8-4.61,10.08,10.08,0,0,1,3.54.65c4.41,1.63,6.7,4.78,6.8,9.36a10,10,0,0,1-6.91,9.76A10.85,10.85,0,0,1,1759.27,912.49Z" transform="translate(567.03 1728)"/><path class="cls-73" d="M171.94,912.49a10.81,10.81,0,0,1-3.42-.57,10,10,0,0,1-6.91-9.76c.1-4.58,2.39-7.73,6.79-9.36a10.13,10.13,0,0,1,3.55-.65,8.88,8.88,0,0,1,8,4.61c2,3.77,4.83,4.08,8,4.08q38.81,0,77.51,0c35.79,0,68.33,0,99.48.09a16.47,16.47,0,0,0,2-.18,17.44,17.44,0,0,1,2.09-.19,2.3,2.3,0,0,1,1.61.43,2.11,2.11,0,0,1,.37,1.49c0,1.17-.4,1.8-2.22,1.8a19.48,19.48,0,0,1-2.09-.16,16.56,16.56,0,0,0-2-.16c-18.09.07-36.07.07-49.71.07H237.66c-14.63,0-31.95,0-49.49-.06H188c-3.28,0-6.17.32-8.37,4.25a8.64,8.64,0,0,1-7.72,4.31Z" transform="translate(567.03 1728)"/><path class="cls-74" d="M1759.27,661.73a8.64,8.64,0,0,1-7.72-4.3c-2.2-3.93-5.1-4.25-8.37-4.25H1743c-17.54.05-34.86.05-49.49.05h-77.24c-13.64,0-31.62,0-49.69-.08h0a18.6,18.6,0,0,0-2,.16,19.47,19.47,0,0,1-2.1.16c-1.82,0-2.18-.63-2.21-1.8a2,2,0,0,1,.37-1.48,2.22,2.22,0,0,1,1.6-.43,17.19,17.19,0,0,1,2.09.18,16.47,16.47,0,0,0,2,.18c31.16-.06,63.7-.08,99.49-.08q38.73,0,77.46,0c3.2,0,6-.3,8-4.08a8.85,8.85,0,0,1,8-4.6,10.07,10.07,0,0,1,3.54.64c4.41,1.63,6.7,4.78,6.8,9.36a9.94,9.94,0,0,1-6.91,9.76A10.58,10.58,0,0,1,1759.27,661.73Z" transform="translate(567.03 1728)"/><path class="cls-75" d="M171.94,661.73a10.53,10.53,0,0,1-3.42-.57,9.94,9.94,0,0,1-6.91-9.76c.1-4.58,2.39-7.73,6.79-9.36a10.12,10.12,0,0,1,3.55-.64,8.88,8.88,0,0,1,8,4.6c2,3.78,4.83,4.08,8,4.08l77.51,0c35.79,0,68.33,0,99.48.08a16.47,16.47,0,0,0,2-.18,17.36,17.36,0,0,1,2.09-.18,2.25,2.25,0,0,1,1.61.43,2.09,2.09,0,0,1,.37,1.48c0,1.17-.4,1.8-2.22,1.8a19.48,19.48,0,0,1-2.09-.16,18.83,18.83,0,0,0-2-.16c-18.09.07-36.07.08-49.71.08H237.66c-14.63,0-31.95,0-49.49-.05H188c-3.28,0-6.17.32-8.37,4.25a8.65,8.65,0,0,1-7.72,4.3Z" transform="translate(567.03 1728)"/><path class="cls-76" d="M1759.27,392a8.64,8.64,0,0,1-7.72-4.3c-2.2-3.93-5.1-4.25-8.37-4.25H1743c-17.54.05-34.86.05-49.49.05h-77.24c-13.64,0-31.62,0-49.69-.08h0a18.6,18.6,0,0,0-2,.16,19.55,19.55,0,0,1-2.1.17c-1.82,0-2.18-.64-2.21-1.8a2.06,2.06,0,0,1,.37-1.49,2.22,2.22,0,0,1,1.6-.43,15.45,15.45,0,0,1,2.09.19,16.36,16.36,0,0,0,2,.17c31.16-.05,63.7-.08,99.49-.08q38.73,0,77.46,0c3.2,0,6-.31,8-4.08a8.84,8.84,0,0,1,8-4.61,10.3,10.3,0,0,1,3.54.64c4.41,1.64,6.7,4.78,6.8,9.36a9.94,9.94,0,0,1-6.91,9.76A10.58,10.58,0,0,1,1759.27,392Z" transform="translate(567.03 1728)"/><path class="cls-77" d="M171.94,392a10.53,10.53,0,0,1-3.42-.57,9.94,9.94,0,0,1-6.91-9.76c.1-4.58,2.39-7.72,6.79-9.36a10.35,10.35,0,0,1,3.55-.64,8.86,8.86,0,0,1,8,4.61c2,3.77,4.83,4.08,8,4.08q38.81,0,77.51,0c35.79,0,68.33,0,99.48.08a16.36,16.36,0,0,0,2-.17A15.6,15.6,0,0,1,369,380a2.25,2.25,0,0,1,1.61.43,2.11,2.11,0,0,1,.37,1.49c0,1.16-.4,1.8-2.22,1.8a19.58,19.58,0,0,1-2.09-.17,18.83,18.83,0,0,0-2-.16c-18.09.07-36.07.08-49.71.08H237.66c-14.63,0-31.95,0-49.49-.05H188c-3.28,0-6.17.32-8.37,4.25a8.65,8.65,0,0,1-7.72,4.3Z" transform="translate(567.03 1728)"/><path class="cls-78" d="M256.71,751.56a8.27,8.27,0,0,1-6.33-2.8c-5-5.06-10.1-10.17-15-15.1-4.61-4.61-9.38-9.37-14-14.08a9.13,9.13,0,0,0-7-3c-15,0-30.51.07-46.3.07q-22,0-44-.06h0c-2.89,0-5.57.31-7.56,4a8.82,8.82,0,0,1-8,4.72h0a11.37,11.37,0,0,1-3.42-.55,10,10,0,0,1,.2-19.21,10.83,10.83,0,0,1,3.26-.52,8.7,8.7,0,0,1,7.79,4.48c2,3.63,4.73,3.93,7.53,3.93,12.47,0,24.87,0,37.27,0,17.38,0,35.35,0,53-.08a11.73,11.73,0,0,1,9.37,3.81c5.1,5.27,10.38,10.52,15.49,15.6,4,4,8.1,8.06,12.11,12.13a10.32,10.32,0,0,0,7.89,3.36h.16c4.89,0,10.18-.07,16.63-.07l11.9,0,10.05,0h1.63c.66,0,1.31,0,2,0,2.1.11,2.49.54,2.55,1.4a1.57,1.57,0,0,1-.3,1.21,3.08,3.08,0,0,1-2.19.62c-3.62,0-7.23,0-10.85,0H276.87v0l-5,0-6,0c-3.44,0-6.25,0-8.84.09ZM108.09,707.15a8.07,8.07,0,0,0-5.58,13.7,7.76,7.76,0,0,0,5.56,2.29,7.93,7.93,0,0,0,5.59-13.6,7.9,7.9,0,0,0-5.55-2.39Z" transform="translate(567.03 1728)"/><path class="cls-79" d="M105.09,1105.54a10.75,10.75,0,0,1-2.84-.4c-4.54-1.24-7.07-4.19-7.53-8.75a9.75,9.75,0,0,1,6.07-10.26,10.68,10.68,0,0,1,4.17-.89,9.61,9.61,0,0,1,8,4.47c1.79,2.58,3.84,3.11,6.36,3.11,8.25,0,16.42,0,24.59,0,8.76,0,16.62,0,24,.08H168a9.6,9.6,0,0,0,7.43-3.2c4.4-4.47,8.93-9,13.3-13.33,5-4.94,10.09-10,15.06-15.13a8.71,8.71,0,0,1,6.83-2.9h.23c4,.07,8.32.1,13.67.1l8.5,0,8.49,0h16.27c4.89,0,9.77,0,14.65,0h0c.41,0,.79,0,1.19,0s.76,0,1.13,0c1.53,0,2,.36,2,1.58a1.74,1.74,0,0,1-.32,1.26,2.35,2.35,0,0,1-1.66.4c-.36,0-.73,0-1.09,0s-.75,0-1.09,0h-2.5q-14.13,0-28.26,0c-10.75,0-20.15,0-28.74-.08H213a10.71,10.71,0,0,0-8.39,3.46c-4.78,4.9-9.72,9.82-14.48,14.58-4.44,4.42-9,9-13.48,13.55a8.79,8.79,0,0,1-6.91,3h-.13c-7.73-.07-15.57-.08-22.23-.08H134.49q-7,0-14,0h-.21c-2.75,0-5.16.3-6.72,4A9.09,9.09,0,0,1,105.09,1105.54Zm-.39-18.08a7.93,7.93,0,1,0,7.93,8,7.85,7.85,0,0,0-7.93-8Z" transform="translate(567.03 1728)"/><path class="cls-80" d="M1057.23,893.33a9.18,9.18,0,0,1-8.25-4.78c-1.92-3.57-4.46-3.86-7.34-3.86h-.24q-11.33.06-22.64,0l-24.27,0H914.74l-24.27,0q-11.31,0-22.64,0h-.24c-2.88,0-5.42.29-7.35,3.86a9.16,9.16,0,0,1-8.24,4.78h0a11.12,11.12,0,0,1-3.22-.48,10.11,10.11,0,0,1-7-9.65,9.67,9.67,0,0,1,6.66-9.47,10.33,10.33,0,0,1,3.66-.69,8.89,8.89,0,0,1,7.88,4.5c2,3.42,4.4,4.09,7.89,4.09,14.65,0,30.13-.06,50.3-.06h72.89c20.17,0,35.65,0,50.21.06,3.57,0,6-.67,8-4.09a8.89,8.89,0,0,1,7.88-4.5,10.33,10.33,0,0,1,3.66.69,9.67,9.67,0,0,1,6.66,9.47,10.12,10.12,0,0,1-7,9.65A11.12,11.12,0,0,1,1057.23,893.33Z" transform="translate(567.03 1728)"/><path class="cls-81" d="M161.11,788.18a11,11,0,0,1-7.82-3.44,10.06,10.06,0,0,1,.66-14.4,10.67,10.67,0,0,1,7-2.66,8.46,8.46,0,0,1,7.47,4c2.59,4.3,5.8,4.66,9.14,4.66h.71c2.78,0,5.75-.06,9.1-.06,3.93,0,7.86,0,11.8.05l6.14,0h1.37c1.77,0,2.09.38,2.15,1.3a1.62,1.62,0,0,1-.29,1.28c-.52.57-2,.58-3.09.58H183.85c-1.32,0-2.63,0-3.95,0h-1.41c-4,0-7.75.4-10.82,5.24a7.44,7.44,0,0,1-6.56,3.42Z" transform="translate(567.03 1728)"/><path class="cls-82" d="M1255.5,801v307.84c-24.76-5.82-47.67-12.4-67.5-19.84q-25.47-9.55-49.5-17.22V801Z" transform="translate(567.03 1728)"/><path class="cls-83" d="M1098,918v142a611.87,611.87,0,0,0-81-15.87V918Z" transform="translate(567.03 1728)"/><path class="cls-84" d="M1386,936v135.15c-28.17,10-60.61,22-99,36.08V936Z" transform="translate(567.03 1728)"/><path class="cls-85" d="M1539.17,1101.94a2.27,2.27,0,0,1-2.27-2.27V979.13a2.27,2.27,0,1,1,4.54,0v120.54A2.27,2.27,0,0,1,1539.17,1101.94Z" transform="translate(567.03 1728)"/><path class="cls-86" d="M1555.09,1101.94a2.27,2.27,0,0,1-2.27-2.27v-45.86l15.16-15.17a2.28,2.28,0,1,1,3.22,3.22l-13.84,13.83v44A2.27,2.27,0,0,1,1555.09,1101.94Z" transform="translate(567.03 1728)"/><path class="cls-87" d="M1539.74,1036.84a2.23,2.23,0,0,1-1.61-.67,2.26,2.26,0,0,1,0-3.21l21.75-21.75a2.27,2.27,0,1,1,3.21,3.21l-21.75,21.75A2.23,2.23,0,0,1,1539.74,1036.84Z" transform="translate(567.03 1728)"/><path class="cls-88" d="M1539.74,980.83a9.1,9.1,0,1,1,9.1-9.09A9.11,9.11,0,0,1,1539.74,980.83Zm0-13.64a4.55,4.55,0,1,0,4.55,4.55A4.55,4.55,0,0,0,1539.74,967.19Z" transform="translate(567.03 1728)"/><path class="cls-89" d="M1573.85,1043.38a9.1,9.1,0,1,1,9.1-9.1A9.11,9.11,0,0,1,1573.85,1043.38Zm0-13.65a4.55,4.55,0,1,0,4.55,4.55A4.55,4.55,0,0,0,1573.85,1029.73Z" transform="translate(567.03 1728)"/><path class="cls-90" d="M1580.68,1021.77a9.1,9.1,0,1,1,9.09-9.1A9.11,9.11,0,0,1,1580.68,1021.77Zm0-13.64a4.55,4.55,0,1,0,4.54,4.54A4.55,4.55,0,0,0,1580.68,1008.13Z" transform="translate(567.03 1728)"/><path class="cls-91" d="M1561.34,1001.3a9.1,9.1,0,1,1,9.1-9.09A9.1,9.1,0,0,1,1561.34,1001.3Zm0-13.64a4.55,4.55,0,1,0,4.55,4.55A4.55,4.55,0,0,0,1561.34,987.66Z" transform="translate(567.03 1728)"/><path class="cls-92" d="M1573.85,1015h-14.78V999.38a2.28,2.28,0,0,1,4.55,0v11h10.23a2.28,2.28,0,1,1,0,4.55Z" transform="translate(567.03 1728)"/><path class="cls-93" d="M1523.25,1101.94a2.28,2.28,0,0,1-2.28-2.27v-44l-13.83-13.83a2.28,2.28,0,0,1,3.22-3.22l15.16,15.17v45.86A2.27,2.27,0,0,1,1523.25,1101.94Z" transform="translate(567.03 1728)"/><path class="cls-94" d="M1538.6,1036.84a2.26,2.26,0,0,1-1.61-.67l-21.75-21.75a2.27,2.27,0,1,1,3.22-3.21l21.75,21.75a2.28,2.28,0,0,1-1.61,3.88Z" transform="translate(567.03 1728)"/><path class="cls-95" d="M1504.49,1043.38a9.1,9.1,0,1,1,9.09-9.1A9.11,9.11,0,0,1,1504.49,1043.38Zm0-13.65a4.55,4.55,0,1,0,4.54,4.55A4.55,4.55,0,0,0,1504.49,1029.73Z" transform="translate(567.03 1728)"/><path class="cls-96" d="M1497.66,1021.77a9.1,9.1,0,1,1,9.1-9.1A9.11,9.11,0,0,1,1497.66,1021.77Zm0-13.64a4.55,4.55,0,1,0,4.55,4.54A4.55,4.55,0,0,0,1497.66,1008.13Z" transform="translate(567.03 1728)"/><path class="cls-97" d="M1517,1001.3a9.1,9.1,0,1,1,9.1-9.09A9.1,9.1,0,0,1,1517,1001.3Zm0-13.64a4.55,4.55,0,1,0,4.55,4.55A4.55,4.55,0,0,0,1517,987.66Z" transform="translate(567.03 1728)"/><path class="cls-98" d="M1519.27,1015h-14.78a2.28,2.28,0,1,1,0-4.55h10.23v-11a2.28,2.28,0,0,1,4.55,0Z" transform="translate(567.03 1728)"/><path class="cls-99" d="M1654.14,899.55s4.72-18.88,20.06-33,27.14-57.82,46-47.2,1.18,46-23.61,57.82-42.48,51.93-42.48,51.93Z" transform="translate(567.03 1728)"/><path class="cls-100" d="M1652.7,877.13s-3.83-16.57-15.3-26.77-19.12-20.39-26.77-31.86-20.39-7.65-22.94,2.55-1.27,21.67,15.3,34.41,45.88,31.87,49.71,43.34Z" transform="translate(567.03 1728)"/><path class="cls-101" d="M1648.79,1000.15V982.21s-2.11,0-8.44-13.71-5.27-10.55-14.76-25.31-7.39-38-23.21-39-14.77,14.76-10.55,25.31,13.71,21.1,33.76,34.81C1641.64,975.27,1648.79,1000.15,1648.79,1000.15Z" transform="translate(567.03 1728)"/><path class="cls-102" d="M1658.14,1005.5V986.21s3.41-.9,10.21-17,5.68-10.21,10.22-30.64c4.37-19.66,3.4-40.85,26.09-45.38,16.74-3.35,18.16,17.1,13.62,29.5s-13.62,21.32-35.18,37.44C1665.84,973,1658.14,1005.5,1658.14,1005.5Z" transform="translate(567.03 1728)"/><path class="cls-103" d="M1659.14,775a154.82,154.82,0,0,1,12.52-17.74c6.26-7.3,13.56-28.17,22.95-26.08s6.26,18.78-4.17,30.25-31.3,41.74-31.3,41.74Z" transform="translate(567.03 1728)"/><path class="cls-104" d="M1643.14,752.45s-21.91-31.3-35.47-23,5.17,29.65,14.61,36.51a198.82,198.82,0,0,1,20.86,17.74Z" transform="translate(567.03 1728)"/><path class="cls-105" d="M1663.92,710.28l-5.33,336.47a6.15,6.15,0,0,1-12.3,0L1641,710.28a11.48,11.48,0,0,1,23-.36Z" transform="translate(567.03 1728)"/><path class="cls-106" d="M305.09,1033.85a53.11,53.11,0,0,1,14.26-23.49c10.9-10.07,19.29-41.11,32.72-33.56s.84,32.72-16.78,41.11-30.2,36.91-30.2,36.91Z" transform="translate(567.03 1728)"/><path class="cls-107" d="M304.06,1017.91s-2.72-11.78-10.88-19-13.59-14.5-19-22.66-14.5-5.43-16.31,1.82-.9,15.4,10.88,24.46,32.62,22.66,35.34,30.81Z" transform="translate(567.03 1728)"/><path class="cls-108" d="M301.28,1105.37v-12.75s-1.5,0-6-9.75-3.75-7.5-10.5-18-5.25-27-16.49-27.75-10.5,10.5-7.5,18,9.75,15,24,24.75C296.2,1087.68,301.28,1105.37,301.28,1105.37Z" transform="translate(567.03 1728)"/><path class="cls-109" d="M307.93,1109.17v-13.71s2.42-.64,7.26-12.1,4-7.26,7.26-21.78c3.11-14,2.42-29,18.55-32.27,11.9-2.38,12.91,12.16,9.68,21s-9.68,15.16-25,26.62C313.4,1086.08,307.93,1109.17,307.93,1109.17Z" transform="translate(567.03 1728)"/><path class="cls-110" d="M308.64,945.28a110.15,110.15,0,0,1,8.9-12.61c4.45-5.2,9.64-20,16.32-18.55s4.45,13.35-3,21.51-22.25,29.67-22.25,29.67Z" transform="translate(567.03 1728)"/><path class="cls-111" d="M297.27,929.27S281.69,907,272.05,913s3.67,21.08,10.38,26a140.66,140.66,0,0,1,14.84,12.61Z" transform="translate(567.03 1728)"/><path class="cls-112" d="M312,899.29l-3.79,239.21a4.37,4.37,0,0,1-8.74,0l-3.79-239.21A8.16,8.16,0,1,1,312,899Z" transform="translate(567.03 1728)"/><ellipse class="cls-113" cx="2460.17" cy="2636.3" rx="96" ry="134.5"/><path class="cls-5" d="M1895.14,800.8c.23,6.75.32,13.5.49,20.25l.28,20.25c.16,13.5.15,27,.23,40.5-.08,13.5-.07,27-.23,40.5l-.28,20.25c-.16,6.75-.26,13.5-.49,20.25-.22-6.75-.32-13.5-.49-20.25l-.28-20.25c-.16-13.5-.15-27-.23-40.5.09-13.5.07-27,.24-40.5l.27-20.25C1894.82,814.3,1894.92,807.55,1895.14,800.8Z" transform="translate(567.03 1728)"/><path class="cls-5" d="M1860.14,820.8c3.08,2.9,6.07,5.88,9.11,8.82s6,6,9,9c6,6,11.81,12.07,17.65,18.17h-1.42q8.71-8.68,17.57-17.26c2.94-2.85,5.92-5.68,8.91-8.5s6-5.61,9-8.36c-2.74,3.06-5.57,6-8.36,9s-5.65,6-8.5,8.91c-5.69,5.92-11.46,11.75-17.25,17.57l-.72.72-.71-.74c-5.82-6.11-11.63-12.25-17.34-18.47q-4.3-4.65-8.54-9.36C1865.74,827.13,1862.89,824,1860.14,820.8Z" transform="translate(567.03 1728)"/><path class="cls-5" d="M1860.14,855.8c3.08,2.9,6.07,5.88,9.11,8.82s6,6,9,9c6,6,11.81,12.07,17.65,18.17h-1.42q8.71-8.68,17.57-17.26c2.94-2.85,5.92-5.68,8.91-8.5s6-5.61,9-8.36c-2.74,3.06-5.57,6-8.36,9s-5.65,6-8.5,8.91c-5.69,5.92-11.46,11.75-17.25,17.57l-.72.72-.71-.74c-5.82-6.11-11.63-12.25-17.34-18.47q-4.3-4.65-8.54-9.36C1865.74,862.13,1862.89,859,1860.14,855.8Z" transform="translate(567.03 1728)"/><path class="cls-5" d="M1860.14,890.8c3.08,2.9,6.07,5.88,9.11,8.82s6,6,9,9c6,6,11.81,12.07,17.65,18.17h-1.42q8.71-8.68,17.57-17.26c2.94-2.85,5.92-5.68,8.91-8.5s6-5.61,9-8.36c-2.74,3.06-5.57,6-8.36,9s-5.65,6-8.5,8.91c-5.69,5.92-11.46,11.75-17.25,17.57l-.72.72-.71-.74c-5.82-6.11-11.63-12.25-17.34-18.47q-4.3-4.65-8.54-9.36C1865.74,897.13,1862.89,894,1860.14,890.8Z" transform="translate(567.03 1728)"/><ellipse class="cls-114" cx="1832.14" cy="978.3" rx="96" ry="134.5" transform="translate(325.55 2588.32) rotate(-24.84)"/><path class="cls-5" d="M1788.79,879.91c3,6,6,12.11,9,18.17l8.76,18.26c5.82,12.18,11.48,24.44,17.23,36.65,5.6,12.29,11.28,24.53,16.81,36.85l8.25,18.49c2.69,6.2,5.44,12.37,8.07,18.59-3-6-6-12.12-9-18.17l-8.76-18.26c-5.82-12.19-11.48-24.44-17.22-36.66s-11.29-24.53-16.81-36.85l-8.25-18.49C1794.17,892.3,1791.42,886.13,1788.79,879.91Z" transform="translate(567.03 1728)"/><path class="cls-5" d="M1765.43,912.76c4,1.34,8,2.79,12,4.18s7.94,2.88,11.9,4.37c7.91,2.94,15.79,6,23.65,9.07l-1.3.59c2.85-7.7,5.72-15.39,8.7-23,1.47-3.83,3-7.65,4.51-11.46s3.07-7.61,4.7-11.39c-1.21,3.93-2.53,7.82-3.79,11.72s-2.62,7.79-4,11.66c-2.68,7.76-5.47,15.48-8.27,23.19l-.35,1-1-.37q-11.78-4.65-23.5-9.47c-3.9-1.61-7.79-3.26-11.68-4.91S1769.28,914.52,1765.43,912.76Z" transform="translate(567.03 1728)"/><path class="cls-5" d="M1780.14,944.52c4,1.34,8,2.79,12,4.18s7.94,2.88,11.89,4.37c7.92,2.94,15.8,6,23.66,9.07l-1.3.59c2.84-7.7,5.71-15.39,8.69-23q2.22-5.75,4.52-11.46c1.56-3.79,3.07-7.61,4.69-11.39-1.2,3.93-2.52,7.82-3.79,11.72s-2.61,7.79-4,11.66c-2.67,7.76-5.46,15.48-8.27,23.19l-.35,1-1-.37q-11.79-4.65-23.5-9.47c-3.91-1.61-7.8-3.26-11.68-4.91S1784,946.28,1780.14,944.52Z" transform="translate(567.03 1728)"/><path class="cls-5" d="M1794.84,976.29c4,1.33,8,2.78,12,4.17s7.94,2.89,11.9,4.37c7.92,2.94,15.79,6,23.65,9.07l-1.3.59c2.85-7.7,5.72-15.39,8.7-23,1.47-3.83,3-7.65,4.51-11.46s3.07-7.61,4.7-11.39c-1.21,3.93-2.53,7.82-3.79,11.73s-2.62,7.78-4,11.65c-2.68,7.76-5.46,15.48-8.27,23.19l-.35,1-1-.38c-7.85-3.1-15.69-6.23-23.5-9.47q-5.85-2.41-11.68-4.91C1802.58,979.68,1798.69,978,1794.84,976.29Z" transform="translate(567.03 1728)"/><path class="cls-115" d="M1010.35,1260S1188,1296,1539,1089s360-216,477-198,45,414,45,414S607.69,1386,1010.35,1260Z" transform="translate(567.03 1728)"/><circle class="cls-116" cx="985.53" cy="3154.5" r="283.5"/><path class="cls-117" d="M589.15,1467.85c-29.1,153.84-177.41,255-331.26,225.86a282.17,282.17,0,0,1-156.31-87,327.1,327.1,0,0,1-218.44,34.43c-178.27-33.72-295.44-205.56-261.72-383.83S-173,961.87,5.25,995.59a327.62,327.62,0,0,1,218.18,149.74,282.23,282.23,0,0,1,139.85-8.74C517.12,1165.69,618.25,1314,589.15,1467.85Z" transform="translate(567.03 1728)"/><path class="cls-118" d="M1425,428.54v.07a7.34,7.34,0,0,1-7.38,7.26H990.91a7.37,7.37,0,0,1-7-4.93,62,62,0,0,1,97.56-68.66c-.12-1.93-.19-3.87-.19-5.84a95.33,95.33,0,0,1,189-17.42,48.87,48.87,0,0,1,83.46,34.53c0,.48,0,.94,0,1.41A55.78,55.78,0,0,1,1425,428.54Z" transform="translate(567.03 1728)"/><path class="cls-119" d="M505.86,588.92V589a5.08,5.08,0,0,0,5.1,5H806.44a5.1,5.1,0,0,0,4.82-3.42A42.95,42.95,0,0,0,743.71,543c.08-1.33.13-2.68.13-4a66,66,0,0,0-130.9-12.07,33.85,33.85,0,0,0-57.8,23.92c0,.33,0,.65,0,1a38.63,38.63,0,0,0-49.29,37.1Z" transform="translate(567.03 1728)"/></g></g></g></svg>