<svg xmlns="http://www.w3.org/2000/svg" xmlns:xlink="http://www.w3.org/1999/xlink" viewBox="0 0 668.66 1016.06"><defs><style>.cls-1{fill:none;}.cls-2{fill:#e8f9ff;}.cls-3{clip-path:url(#clip-path);}.cls-4{fill:url(#linear-gradient);}.cls-5{fill:#bce9fe;}.cls-6{fill:#d8f4ff;}.cls-7{fill:url(#linear-gradient-2);}.cls-8{fill:url(#linear-gradient-3);}.cls-9{fill:url(#linear-gradient-4);}.cls-10{fill:url(#linear-gradient-5);}.cls-11{fill:url(#linear-gradient-6);}.cls-12{fill:url(#linear-gradient-7);}.cls-13{fill:url(#linear-gradient-8);}.cls-14{fill:url(#linear-gradient-9);}.cls-15{fill:url(#linear-gradient-10);}.cls-16{fill:url(#linear-gradient-11);}.cls-17{fill:url(#linear-gradient-12);}.cls-18{fill:url(#linear-gradient-13);}.cls-19{fill:url(#linear-gradient-14);}.cls-20{fill:url(#linear-gradient-15);}.cls-21{fill:url(#linear-gradient-16);}.cls-22{fill:url(#linear-gradient-17);}.cls-23{fill:url(#linear-gradient-18);}.cls-24{fill:url(#linear-gradient-19);}.cls-25{fill:url(#linear-gradient-20);}.cls-26{fill:url(#linear-gradient-21);}.cls-27{fill:url(#linear-gradient-22);}.cls-28{fill:url(#linear-gradient-23);}.cls-29{fill:url(#linear-gradient-24);}.cls-30{fill:url(#linear-gradient-25);}.cls-31{fill:url(#linear-gradient-26);}.cls-32{fill:url(#linear-gradient-27);}.cls-33{fill:url(#linear-gradient-28);}.cls-34{fill:url(#linear-gradient-29);}.cls-35{fill:url(#linear-gradient-30);}.cls-36{fill:url(#linear-gradient-31);}.cls-37{fill:url(#linear-gradient-32);}.cls-38{fill:url(#linear-gradient-33);}.cls-39{fill:url(#linear-gradient-34);}.cls-40{fill:url(#linear-gradient-35);}.cls-41{fill:url(#linear-gradient-36);}.cls-42{fill:url(#linear-gradient-37);}.cls-43{fill:url(#linear-gradient-38);}.cls-44{fill:url(#linear-gradient-39);}.cls-45{fill:url(#linear-gradient-40);}.cls-46{fill:url(#linear-gradient-41);}.cls-47{fill:url(#linear-gradient-42);}.cls-48{fill:url(#linear-gradient-43);}.cls-49{fill:url(#linear-gradient-44);}.cls-50{fill:url(#linear-gradient-45);}.cls-51{fill:url(#linear-gradient-46);}.cls-52{fill:url(#linear-gradient-47);}.cls-53{fill:url(#linear-gradient-48);}.cls-54{fill:url(#linear-gradient-49);}.cls-55{fill:url(#linear-gradient-50);}.cls-56{fill:url(#linear-gradient-51);}.cls-57{fill:url(#linear-gradient-52);}.cls-58{fill:url(#linear-gradient-53);}.cls-59{fill:url(#linear-gradient-54);}.cls-60{fill:url(#linear-gradient-55);}.cls-61{fill:url(#linear-gradient-56);}.cls-62{fill:url(#linear-gradient-57);}.cls-63{fill:url(#linear-gradient-58);}.cls-64{fill:url(#linear-gradient-59);}.cls-65{fill:url(#linear-gradient-60);}.cls-66{fill:url(#linear-gradient-61);}.cls-67{fill:url(#linear-gradient-62);}.cls-68{fill:url(#linear-gradient-63);}.cls-69{fill:url(#linear-gradient-64);}.cls-70{fill:url(#linear-gradient-65);}.cls-71{fill:url(#linear-gradient-66);}.cls-72{fill:url(#linear-gradient-67);}.cls-73{fill:url(#linear-gradient-68);}.cls-74{fill:url(#linear-gradient-69);}.cls-75{fill:url(#linear-gradient-70);}.cls-76{fill:url(#linear-gradient-71);}.cls-77{fill:url(#linear-gradient-72);}.cls-78{fill:url(#linear-gradient-73);}.cls-79{fill:url(#linear-gradient-74);}.cls-80{fill:url(#linear-gradient-75);}.cls-81{fill:url(#linear-gradient-76);}.cls-82{fill:url(#linear-gradient-77);}.cls-83{fill:url(#linear-gradient-78);}.cls-84{fill:url(#linear-gradient-79);}.cls-85{fill:url(#linear-gradient-80);}.cls-86{fill:url(#linear-gradient-81);}.cls-87{fill:url(#linear-gradient-82);}.cls-88{fill:url(#linear-gradient-83);}.cls-89{fill:url(#linear-gradient-84);}.cls-90{fill:url(#linear-gradient-85);}.cls-91{fill:url(#linear-gradient-86);}.cls-92{fill:url(#linear-gradient-87);}.cls-93{fill:url(#linear-gradient-88);}.cls-94{fill:url(#linear-gradient-89);}.cls-95{fill:url(#linear-gradient-90);}.cls-96{fill:url(#linear-gradient-91);}.cls-97{fill:url(#linear-gradient-92);}.cls-98{fill:url(#linear-gradient-93);}.cls-99{fill:url(#linear-gradient-94);}.cls-100{fill:url(#linear-gradient-95);}.cls-101{fill:url(#linear-gradient-96);}.cls-102{fill:url(#linear-gradient-97);}.cls-103{fill:url(#linear-gradient-98);}.cls-104{fill:url(#linear-gradient-99);}.cls-105{fill:url(#linear-gradient-100);}.cls-106{fill:url(#linear-gradient-101);}.cls-107{fill:url(#linear-gradient-102);}.cls-108{fill:url(#linear-gradient-103);}.cls-109{fill:url(#linear-gradient-104);}.cls-110{fill:url(#linear-gradient-105);}.cls-111{fill:url(#linear-gradient-106);}.cls-112{fill:url(#linear-gradient-107);}.cls-113{fill:url(#linear-gradient-108);}.cls-114{fill:url(#linear-gradient-109);}.cls-115{fill:url(#linear-gradient-110);}.cls-116{fill:url(#linear-gradient-111);}.cls-117{fill:url(#linear-gradient-112);}.cls-118{fill:url(#linear-gradient-113);}.cls-119{fill:url(#linear-gradient-114);}</style><clipPath id="clip-path" transform="translate(147.67 150.99)"><path class="cls-1" d="M420,0V591.52c-38.48,36.23-118.06,61.11-210,61.11S38.48,627.75,0,591.52V0Z"/></clipPath><linearGradient id="linear-gradient" x1="18.27" y1="-933.35" x2="18.27" y2="-905.99" gradientTransform="translate(-899.74 465.5) rotate(90)" gradientUnits="userSpaceOnUse"><stop offset="0" stop-color="#cfedff"/><stop offset="1" stop-color="#6ac2f7"/></linearGradient><linearGradient id="linear-gradient-2" x1="151.94" y1="477.64" x2="462.45" y2="226.12" gradientUnits="userSpaceOnUse"><stop offset="0" stop-color="#c9f0ff"/><stop offset="1" stop-color="#88d8fd"/></linearGradient><linearGradient id="linear-gradient-3" x1="409.52" y1="658.77" x2="409.52" y2="586.14" xlink:href="#linear-gradient-2"/><linearGradient id="linear-gradient-4" x1="379" y1="652.05" x2="379" y2="602.96" xlink:href="#linear-gradient-2"/><linearGradient id="linear-gradient-5" x1="440.03" y1="652.3" x2="440.03" y2="606.74" xlink:href="#linear-gradient-2"/><linearGradient id="linear-gradient-6" x1="129.13" y1="528.55" x2="358.31" y2="528.55" xlink:href="#linear-gradient-2"/><linearGradient id="linear-gradient-7" x1="103.06" y1="558.74" x2="115.46" y2="475.6" gradientTransform="matrix(1, 0, 0, 1, 0, 0)" xlink:href="#linear-gradient"/><linearGradient id="linear-gradient-8" x1="49.75" y1="479.93" x2="49.75" y2="510.48" gradientUnits="userSpaceOnUse"><stop offset="0" stop-color="#2696ff"/><stop offset="1" stop-color="#196eb0"/></linearGradient><linearGradient id="linear-gradient-9" x1="54.74" y1="479.93" x2="54.74" y2="510.48" xlink:href="#linear-gradient-8"/><linearGradient id="linear-gradient-10" x1="52.21" y1="479.93" x2="52.21" y2="510.48" xlink:href="#linear-gradient-8"/><linearGradient id="linear-gradient-11" x1="49.87" y1="479.93" x2="49.87" y2="510.48" xlink:href="#linear-gradient-8"/><linearGradient id="linear-gradient-12" x1="57.21" y1="479.93" x2="57.21" y2="510.48" xlink:href="#linear-gradient-8"/><linearGradient id="linear-gradient-13" x1="58.68" y1="479.93" x2="58.68" y2="510.48" xlink:href="#linear-gradient-8"/><linearGradient id="linear-gradient-14" x1="54.52" y1="479.93" x2="54.52" y2="510.48" xlink:href="#linear-gradient-8"/><linearGradient id="linear-gradient-15" x1="55.87" y1="479.93" x2="55.87" y2="510.48" xlink:href="#linear-gradient-8"/><linearGradient id="linear-gradient-16" x1="44.76" y1="479.93" x2="44.76" y2="510.48" xlink:href="#linear-gradient-8"/><linearGradient id="linear-gradient-17" x1="47.28" y1="479.93" x2="47.28" y2="510.48" xlink:href="#linear-gradient-8"/><linearGradient id="linear-gradient-18" x1="42.28" y1="479.93" x2="42.28" y2="510.48" xlink:href="#linear-gradient-8"/><linearGradient id="linear-gradient-19" x1="40.81" y1="479.93" x2="40.81" y2="510.48" xlink:href="#linear-gradient-8"/><linearGradient id="linear-gradient-20" x1="44.97" y1="479.93" x2="44.97" y2="510.48" xlink:href="#linear-gradient-8"/><linearGradient id="linear-gradient-21" x1="43.63" y1="479.93" x2="43.63" y2="510.48" xlink:href="#linear-gradient-8"/><linearGradient id="linear-gradient-22" x1="320.77" y1="629.67" x2="264.05" y2="437.33" gradientTransform="matrix(1, 0, 0, 1, 0, 0)" xlink:href="#linear-gradient"/><linearGradient id="linear-gradient-23" x1="322.69" y1="516.69" x2="322.69" y2="547.73" xlink:href="#linear-gradient-8"/><linearGradient id="linear-gradient-24" x1="327.76" y1="516.69" x2="327.76" y2="547.73" xlink:href="#linear-gradient-8"/><linearGradient id="linear-gradient-25" x1="325.2" y1="516.69" x2="325.2" y2="547.73" xlink:href="#linear-gradient-8"/><linearGradient id="linear-gradient-26" x1="322.82" y1="516.69" x2="322.82" y2="547.73" xlink:href="#linear-gradient-8"/><linearGradient id="linear-gradient-27" x1="330.28" y1="516.69" x2="330.28" y2="547.73" xlink:href="#linear-gradient-8"/><linearGradient id="linear-gradient-28" x1="331.77" y1="516.69" x2="331.77" y2="547.73" xlink:href="#linear-gradient-8"/><linearGradient id="linear-gradient-29" x1="327.54" y1="516.69" x2="327.54" y2="547.73" xlink:href="#linear-gradient-8"/><linearGradient id="linear-gradient-30" x1="328.91" y1="516.69" x2="328.91" y2="547.73" xlink:href="#linear-gradient-8"/><linearGradient id="linear-gradient-31" x1="317.62" y1="516.69" x2="317.62" y2="547.73" xlink:href="#linear-gradient-8"/><linearGradient id="linear-gradient-32" x1="320.19" y1="516.69" x2="320.19" y2="547.73" xlink:href="#linear-gradient-8"/><linearGradient id="linear-gradient-33" x1="315.11" y1="516.69" x2="315.11" y2="547.73" xlink:href="#linear-gradient-8"/><linearGradient id="linear-gradient-34" x1="313.61" y1="516.69" x2="313.61" y2="547.73" xlink:href="#linear-gradient-8"/><linearGradient id="linear-gradient-35" x1="317.84" y1="516.69" x2="317.84" y2="547.73" xlink:href="#linear-gradient-8"/><linearGradient id="linear-gradient-36" x1="316.47" y1="516.69" x2="316.47" y2="547.73" xlink:href="#linear-gradient-8"/><linearGradient id="linear-gradient-37" x1="214.42" y1="552.53" x2="214.42" y2="1055.78" gradientUnits="userSpaceOnUse"><stop offset="0" stop-color="#36adf7"/><stop offset="1" stop-color="#0d76a5"/></linearGradient><linearGradient id="linear-gradient-38" x1="71.98" y1="610.92" x2="-290.94" y2="428.85" gradientTransform="matrix(1.04, 0.22, -0.22, 0.98, 278.59, 204.96)" xlink:href="#linear-gradient-8"/><linearGradient id="linear-gradient-39" x1="-319.19" y1="350.69" x2="310.4" y2="350.69" gradientTransform="translate(682.81 262.81) rotate(90)" gradientUnits="userSpaceOnUse"><stop offset="0" stop-color="#fff" stop-opacity="0.05"/><stop offset="1" stop-color="#fff" stop-opacity="0.2"/></linearGradient><linearGradient id="linear-gradient-40" x1="-319.13" y1="453.24" x2="310.33" y2="453.24" xlink:href="#linear-gradient-39"/><linearGradient id="linear-gradient-41" x1="-316.94" y1="351.76" x2="310.28" y2="351.76" xlink:href="#linear-gradient-39"/><linearGradient id="linear-gradient-42" x1="-318.88" y1="366.56" x2="310.05" y2="366.56" xlink:href="#linear-gradient-39"/><linearGradient id="linear-gradient-43" x1="-316.38" y1="453.18" x2="310.02" y2="453.18" xlink:href="#linear-gradient-39"/><linearGradient id="linear-gradient-44" x1="-315.36" y1="418.99" x2="310.21" y2="418.99" xlink:href="#linear-gradient-39"/><linearGradient id="linear-gradient-45" x1="-314.66" y1="339.63" x2="310.28" y2="339.63" xlink:href="#linear-gradient-39"/><linearGradient id="linear-gradient-46" x1="-314.39" y1="453.28" x2="310.45" y2="453.28" xlink:href="#linear-gradient-39"/><linearGradient id="linear-gradient-47" x1="-313.59" y1="310.09" x2="310.47" y2="310.09" xlink:href="#linear-gradient-39"/><linearGradient id="linear-gradient-48" x1="-317.2" y1="377.08" x2="308.18" y2="377.08" xlink:href="#linear-gradient-39"/><linearGradient id="linear-gradient-49" x1="-317.2" y1="492.26" x2="308.18" y2="492.26" xlink:href="#linear-gradient-39"/><linearGradient id="linear-gradient-50" x1="-300.87" y1="436.11" x2="309.12" y2="436.11" xlink:href="#linear-gradient-39"/><linearGradient id="linear-gradient-51" x1="-315.52" y1="638.34" x2="314.52" y2="638.34" xlink:href="#linear-gradient-39"/><linearGradient id="linear-gradient-52" x1="-315.49" y1="657.2" x2="314.48" y2="657.2" xlink:href="#linear-gradient-39"/><linearGradient id="linear-gradient-53" x1="-315.36" y1="679.13" x2="314.34" y2="679.13" xlink:href="#linear-gradient-39"/><linearGradient id="linear-gradient-54" x1="-319.28" y1="540.71" x2="310.5" y2="540.71" xlink:href="#linear-gradient-39"/><linearGradient id="linear-gradient-55" x1="-313.06" y1="596.68" x2="314.16" y2="596.68" xlink:href="#linear-gradient-39"/><linearGradient id="linear-gradient-56" x1="-316.38" y1="507.61" x2="310.02" y2="507.61" xlink:href="#linear-gradient-39"/><linearGradient id="linear-gradient-57" x1="-315.36" y1="536.16" x2="310.21" y2="536.16" xlink:href="#linear-gradient-39"/><linearGradient id="linear-gradient-58" x1="-310.78" y1="604.23" x2="314.16" y2="604.23" xlink:href="#linear-gradient-39"/><linearGradient id="linear-gradient-59" x1="-314.39" y1="507.52" x2="310.45" y2="507.52" xlink:href="#linear-gradient-39"/><linearGradient id="linear-gradient-60" x1="-309.71" y1="632.36" x2="314.35" y2="632.36" xlink:href="#linear-gradient-39"/><linearGradient id="linear-gradient-61" x1="-300.87" y1="525.04" x2="309.12" y2="525.04" xlink:href="#linear-gradient-39"/><linearGradient id="linear-gradient-62" x1="-319.4" y1="299.53" x2="310.64" y2="299.53" xlink:href="#linear-gradient-39"/><linearGradient id="linear-gradient-63" x1="-319.37" y1="285.25" x2="310.6" y2="285.25" xlink:href="#linear-gradient-39"/><linearGradient id="linear-gradient-64" x1="-319.24" y1="266.49" x2="310.46" y2="266.49" xlink:href="#linear-gradient-39"/><linearGradient id="linear-gradient-65" x1="-319.28" y1="401.74" x2="310.5" y2="401.74" xlink:href="#linear-gradient-39"/><linearGradient id="linear-gradient-66" x1="-319.2" y1="351.76" x2="308.02" y2="351.76" xlink:href="#linear-gradient-39"/><linearGradient id="linear-gradient-67" x1="-318.99" y1="453.18" x2="307.41" y2="453.18" xlink:href="#linear-gradient-39"/><linearGradient id="linear-gradient-68" x1="-319.23" y1="418.99" x2="306.34" y2="418.99" xlink:href="#linear-gradient-39"/><linearGradient id="linear-gradient-69" x1="-319.33" y1="339.63" x2="305.61" y2="339.63" xlink:href="#linear-gradient-39"/><linearGradient id="linear-gradient-70" x1="-319.51" y1="453.28" x2="305.33" y2="453.28" xlink:href="#linear-gradient-39"/><linearGradient id="linear-gradient-71" x1="-318.74" y1="474.1" x2="309.9" y2="474.1" xlink:href="#linear-gradient-39"/><linearGradient id="linear-gradient-72" x1="-319.57" y1="310.09" x2="304.49" y2="310.09" xlink:href="#linear-gradient-39"/><linearGradient id="linear-gradient-73" x1="-319.02" y1="436.11" x2="290.96" y2="436.11" xlink:href="#linear-gradient-39"/><linearGradient id="linear-gradient-74" x1="-315.31" y1="591.76" x2="314.28" y2="591.76" xlink:href="#linear-gradient-39"/><linearGradient id="linear-gradient-75" x1="-319.13" y1="507.55" x2="310.33" y2="507.55" xlink:href="#linear-gradient-39"/><linearGradient id="linear-gradient-76" x1="-315.32" y1="596.68" x2="311.9" y2="596.68" xlink:href="#linear-gradient-39"/><linearGradient id="linear-gradient-77" x1="-315" y1="576.24" x2="313.93" y2="576.24" xlink:href="#linear-gradient-39"/><linearGradient id="linear-gradient-78" x1="-318.99" y1="507.61" x2="307.41" y2="507.61" xlink:href="#linear-gradient-39"/><linearGradient id="linear-gradient-79" x1="-319.23" y1="536.16" x2="306.34" y2="536.16" xlink:href="#linear-gradient-39"/><linearGradient id="linear-gradient-80" x1="-315.45" y1="604.23" x2="309.49" y2="604.23" xlink:href="#linear-gradient-39"/><linearGradient id="linear-gradient-81" x1="-310.78" y1="568.96" x2="314.16" y2="568.96" xlink:href="#linear-gradient-39"/><linearGradient id="linear-gradient-82" x1="-315.45" y1="568.96" x2="309.49" y2="568.96" xlink:href="#linear-gradient-39"/><linearGradient id="linear-gradient-83" x1="-310.78" y1="480.43" x2="314.16" y2="480.43" xlink:href="#linear-gradient-39"/><linearGradient id="linear-gradient-84" x1="-315.45" y1="480.43" x2="309.49" y2="480.43" xlink:href="#linear-gradient-39"/><linearGradient id="linear-gradient-85" x1="-310.78" y1="385.19" x2="314.16" y2="385.19" xlink:href="#linear-gradient-39"/><linearGradient id="linear-gradient-86" x1="-315.45" y1="385.19" x2="309.49" y2="385.19" xlink:href="#linear-gradient-39"/><linearGradient id="linear-gradient-87" x1="-319.51" y1="507.52" x2="305.34" y2="507.52" xlink:href="#linear-gradient-39"/><linearGradient id="linear-gradient-88" x1="-315.69" y1="632.36" x2="308.37" y2="632.36" xlink:href="#linear-gradient-39"/><linearGradient id="linear-gradient-89" x1="-317.2" y1="562.2" x2="308.17" y2="562.2" xlink:href="#linear-gradient-39"/><linearGradient id="linear-gradient-90" x1="-319.01" y1="525.04" x2="290.97" y2="525.04" xlink:href="#linear-gradient-39"/><linearGradient id="linear-gradient-91" x1="261.84" y1="506.41" x2="261.84" y2="435.43" xlink:href="#linear-gradient-2"/><linearGradient id="linear-gradient-92" x1="231.33" y1="497.57" x2="231.33" y2="454.55" xlink:href="#linear-gradient-2"/><linearGradient id="linear-gradient-93" x1="292.36" y1="500.12" x2="292.36" y2="456.78" xlink:href="#linear-gradient-2"/><linearGradient id="linear-gradient-94" x1="366.92" y1="510.81" x2="350.38" y2="534.28" xlink:href="#linear-gradient-8"/><linearGradient id="linear-gradient-95" x1="349.65" y1="503.35" x2="379.2" y2="531.98" xlink:href="#linear-gradient-8"/><linearGradient id="linear-gradient-96" x1="349.02" y1="528.51" x2="367.82" y2="553.95" xlink:href="#linear-gradient-8"/><linearGradient id="linear-gradient-97" x1="369.19" y1="526.36" x2="355.74" y2="555.47" xlink:href="#linear-gradient-8"/><linearGradient id="linear-gradient-98" x1="365.14" y1="479.72" x2="341.55" y2="503.31" xlink:href="#linear-gradient-8"/><linearGradient id="linear-gradient-99" x1="350.92" y1="476.36" x2="367.26" y2="491.7" xlink:href="#linear-gradient-8"/><linearGradient id="linear-gradient-100" x1="358.21" y1="525.29" x2="358.21" y2="609.01" xlink:href="#linear-gradient-8"/><linearGradient id="linear-gradient-101" x1="91.89" y1="542.09" x2="76.95" y2="563.29" xlink:href="#linear-gradient-8"/><linearGradient id="linear-gradient-102" x1="76.3" y1="535.35" x2="102.99" y2="561.21" xlink:href="#linear-gradient-8"/><linearGradient id="linear-gradient-103" x1="75.73" y1="558.08" x2="92.71" y2="581.06" xlink:href="#linear-gradient-8"/><linearGradient id="linear-gradient-104" x1="93.94" y1="556.13" x2="81.8" y2="582.43" xlink:href="#linear-gradient-8"/><linearGradient id="linear-gradient-105" x1="90.29" y1="514" x2="68.98" y2="535.32" xlink:href="#linear-gradient-8"/><linearGradient id="linear-gradient-106" x1="77.44" y1="510.98" x2="92.2" y2="524.83" xlink:href="#linear-gradient-8"/><linearGradient id="linear-gradient-107" x1="84.03" y1="555.17" x2="84.03" y2="630.79" xlink:href="#linear-gradient-8"/><linearGradient id="linear-gradient-108" x1="564.8" y1="640.4" x2="564.8" y2="667.76" xlink:href="#linear-gradient-8"/><linearGradient id="linear-gradient-109" x1="491.06" y1="855.08" x2="491.06" y2="882.44" gradientTransform="translate(-87.28 -350.35)" xlink:href="#linear-gradient-8"/><linearGradient id="linear-gradient-110" x1="185.54" y1="627.68" x2="290.63" y2="720.64" xlink:href="#linear-gradient-8"/><linearGradient id="linear-gradient-111" x1="371.78" y1="493.89" x2="206.37" y2="794.28" xlink:href="#linear-gradient-8"/><linearGradient id="linear-gradient-112" x1="72.07" y1="838.26" x2="174.49" y2="813.47" gradientTransform="translate(-129.74 -191.08) rotate(-5.47)" xlink:href="#linear-gradient-8"/><linearGradient id="linear-gradient-113" x1="276.98" y1="156.84" x2="276.98" y2="114.83" gradientUnits="userSpaceOnUse"><stop offset="0" stop-color="#c4eafd"/><stop offset="1" stop-color="#fff"/></linearGradient><linearGradient id="linear-gradient-114" x1="-3153.23" y1="202.06" x2="-3153.23" y2="172.97" gradientTransform="matrix(-1, 0, 0, 1, -3024.5, 0)" xlink:href="#linear-gradient-113"/></defs><g id="Layer_2" data-name="Layer 2"><g id="Layer_2-2" data-name="Layer 2"><path class="cls-2" d="M420,0V591.52c-38.48,36.23-118.06,61.11-210,61.11S38.48,627.75,0,591.52V0Z" transform="translate(147.67 150.99)"/><g class="cls-3"><ellipse class="cls-4" cx="4.33" cy="483.77" rx="29.42" ry="21" transform="translate(-308.95 487.88) rotate(-71.81)"/><path class="cls-5" d="M12.09,461.57c-.42,1.42-.86,2.83-1.28,4.24L9.48,470c-.89,2.81-1.81,5.62-2.72,8.43s-1.85,5.61-2.81,8.4l-1.44,4.19c-.49,1.39-1,2.79-1.48,4.18.41-1.42.85-2.83,1.28-4.25l1.32-4.22c.89-2.82,1.81-5.63,2.72-8.44s1.86-5.6,2.81-8.4l1.44-4.19C11.1,464.35,11.58,463,12.09,461.57Z" transform="translate(147.67 150.99)"/><path class="cls-5" d="M3.45,463.33c.44.82.86,1.64,1.29,2.46L6,468.26c.83,1.66,1.63,3.32,2.43,5l-.3-.11c1.61-.8,3.21-1.6,4.83-2.38l2.43-1.16c.82-.37,1.63-.76,2.45-1.12-.78.45-1.57.87-2.35,1.31l-2.38,1.27c-1.58.84-3.18,1.66-4.78,2.47l-.2.11-.1-.21c-.79-1.67-1.58-3.34-2.34-5-.39-.84-.76-1.68-1.14-2.53S3.8,464.19,3.45,463.33Z" transform="translate(147.67 150.99)"/><path class="cls-5" d="M1.06,470.61c.44.81.86,1.64,1.29,2.45s.84,1.65,1.25,2.48c.83,1.65,1.63,3.31,2.43,5l-.3-.1c1.61-.81,3.21-1.61,4.83-2.39L13,476.87l2.45-1.12c-.77.45-1.57.88-2.35,1.31s-1.58.86-2.38,1.27c-1.58.85-3.18,1.66-4.78,2.48l-.2.1-.1-.2c-.79-1.67-1.58-3.34-2.34-5l-1.14-2.52C1.79,472.31,1.41,471.46,1.06,470.61Z" transform="translate(147.67 150.99)"/><path class="cls-5" d="M-1.33,477.88c.44.81.86,1.64,1.29,2.46S.8,482,1.21,482.81c.83,1.65,1.63,3.32,2.43,5l-.3-.1c1.61-.8,3.21-1.6,4.83-2.38.81-.4,1.62-.78,2.43-1.16s1.63-.76,2.45-1.12c-.77.45-1.57.87-2.35,1.31l-2.38,1.27c-1.58.84-3.18,1.66-4.78,2.47l-.2.1-.1-.2c-.79-1.67-1.58-3.34-2.34-5l-1.14-2.53C-.6,479.58-1,478.74-1.33,477.88Z" transform="translate(147.67 150.99)"/><circle class="cls-6" cx="357.67" cy="360.99" r="306"/><circle class="cls-7" cx="357.67" cy="310.99" r="310.99"/><rect class="cls-8" x="396.72" y="598.2" width="25.59" height="68.91"/><rect class="cls-9" x="370.14" y="623.8" width="17.72" height="35.44"/><rect class="cls-10" x="429.2" y="627.74" width="21.66" height="39.38"/><path class="cls-11" d="M135.84,516.13s17.72-3.94,43.32-11.82,49.22-5.9,80.72,5.91S358.31,524,358.31,524s-122.06,47.25-177.18,29.53S122.06,522,135.84,516.13Z" transform="translate(147.67 150.99)"/><path class="cls-12" d="M-12,498s72.54-13.89,110.94,7.65,41.11,5.89,120.15,43.14S-62.28,560.66-12,498Z" transform="translate(147.67 150.99)"/><path class="cls-13" d="M49.75,510a.49.49,0,0,1-.49-.49V483.55a.49.49,0,0,1,1,0V509.5A.49.49,0,0,1,49.75,510Z" transform="translate(147.67 150.99)"/><path class="cls-14" d="M53.17,510a.48.48,0,0,1-.48-.49v-9.87L56,496.36a.49.49,0,0,1,.69,0,.5.5,0,0,1,0,.7l-3,3v9.47A.48.48,0,0,1,53.17,510Z" transform="translate(147.67 150.99)"/><path class="cls-15" d="M49.87,496a.47.47,0,0,1-.35-.14.49.49,0,0,1,0-.69l4.69-4.68a.49.49,0,1,1,.69.69l-4.68,4.68A.49.49,0,0,1,49.87,496Z" transform="translate(147.67 150.99)"/><path class="cls-16" d="M49.87,483.92a2,2,0,1,1,2-2A2,2,0,0,1,49.87,483.92Zm0-2.94a1,1,0,1,0,1,1A1,1,0,0,0,49.87,481Z" transform="translate(147.67 150.99)"/><path class="cls-17" d="M57.21,497.38a2,2,0,1,1,2-2A2,2,0,0,1,57.21,497.38Zm0-2.94a1,1,0,1,0,1,1A1,1,0,0,0,57.21,494.44Z" transform="translate(147.67 150.99)"/><path class="cls-18" d="M58.68,492.73a2,2,0,1,1,2-2A2,2,0,0,1,58.68,492.73Zm0-2.94a1,1,0,1,0,1,1A1,1,0,0,0,58.68,489.79Z" transform="translate(147.67 150.99)"/><path class="cls-19" d="M54.52,488.32a2,2,0,1,1,2-1.95A2,2,0,0,1,54.52,488.32Zm0-2.93a1,1,0,1,0,1,1A1,1,0,0,0,54.52,485.39Z" transform="translate(147.67 150.99)"/><path class="cls-20" d="M57.21,491.26H54v-3.35a.49.49,0,1,1,1,0v2.37h2.2a.49.49,0,0,1,0,1Z" transform="translate(147.67 150.99)"/><path class="cls-21" d="M46.32,510a.49.49,0,0,1-.49-.49V500l-3-3a.5.5,0,0,1,0-.7.49.49,0,0,1,.69,0l3.27,3.27v9.87A.49.49,0,0,1,46.32,510Z" transform="translate(147.67 150.99)"/><path class="cls-22" d="M49.63,496a.46.46,0,0,1-.35-.14l-4.68-4.68a.49.49,0,1,1,.69-.69L50,495.14a.49.49,0,0,1,0,.69A.45.45,0,0,1,49.63,496Z" transform="translate(147.67 150.99)"/><path class="cls-23" d="M42.28,497.38a2,2,0,1,1,2-2A2,2,0,0,1,42.28,497.38Zm0-2.94a1,1,0,1,0,1,1A1,1,0,0,0,42.28,494.44Z" transform="translate(147.67 150.99)"/><path class="cls-24" d="M40.81,492.73a2,2,0,1,1,2-2A2,2,0,0,1,40.81,492.73Zm0-2.94a1,1,0,1,0,1,1A1,1,0,0,0,40.81,489.79Z" transform="translate(147.67 150.99)"/><path class="cls-25" d="M45,488.32a2,2,0,1,1,2-1.95A2,2,0,0,1,45,488.32Zm0-2.93a1,1,0,1,0,1,1A1,1,0,0,0,45,485.39Z" transform="translate(147.67 150.99)"/><path class="cls-26" d="M45.46,491.26H42.28a.49.49,0,1,1,0-1h2.2v-2.37a.49.49,0,1,1,1,0Z" transform="translate(147.67 150.99)"/><path class="cls-27" d="M174,545s41.19-6.87,93.92-25.83S396.2,473.68,420,481s44.69,95.84,18,98C105,606,123,561,174,545Z" transform="translate(147.67 150.99)"/><path class="cls-28" d="M322.69,547.24a.5.5,0,0,1-.49-.5V520.37a.5.5,0,1,1,1,0v26.37A.5.5,0,0,1,322.69,547.24Z" transform="translate(147.67 150.99)"/><path class="cls-29" d="M326.18,547.24a.5.5,0,0,1-.5-.5v-10l3.32-3.32a.49.49,0,1,1,.7.7l-3,3v9.62A.5.5,0,0,1,326.18,547.24Z" transform="translate(147.67 150.99)"/><path class="cls-30" d="M322.82,533a.47.47,0,0,1-.35-.15.48.48,0,0,1,0-.7l4.75-4.76a.5.5,0,0,1,.71,0,.5.5,0,0,1,0,.7l-4.76,4.76A.5.5,0,0,1,322.82,533Z" transform="translate(147.67 150.99)"/><path class="cls-31" d="M322.82,520.74a2,2,0,1,1,2-2A2,2,0,0,1,322.82,520.74Zm0-3a1,1,0,1,0,1,1A1,1,0,0,0,322.82,517.76Z" transform="translate(147.67 150.99)"/><path class="cls-32" d="M330.28,534.43a2,2,0,1,1,2-2A2,2,0,0,1,330.28,534.43Zm0-3a1,1,0,1,0,1,1A1,1,0,0,0,330.28,531.44Z" transform="translate(147.67 150.99)"/><path class="cls-33" d="M331.77,529.7a2,2,0,1,1,2-2A2,2,0,0,1,331.77,529.7Zm0-3a1,1,0,1,0,1,1A1,1,0,0,0,331.77,526.71Z" transform="translate(147.67 150.99)"/><path class="cls-34" d="M327.54,525.22a2,2,0,1,1,2-2A2,2,0,0,1,327.54,525.22Zm0-3a1,1,0,0,0,0,2,1,1,0,1,0,0-2Z" transform="translate(147.67 150.99)"/><path class="cls-35" d="M330.28,528.21h-3.23V524.8a.5.5,0,1,1,1,0v2.41h2.24a.5.5,0,0,1,.5.5A.51.51,0,0,1,330.28,528.21Z" transform="translate(147.67 150.99)"/><path class="cls-36" d="M319.21,547.24a.51.51,0,0,1-.5-.5v-9.62l-3-3a.48.48,0,0,1,0-.7.5.5,0,0,1,.7,0l3.32,3.32v10A.5.5,0,0,1,319.21,547.24Z" transform="translate(147.67 150.99)"/><path class="cls-37" d="M322.57,533a.47.47,0,0,1-.35-.15l-4.76-4.76a.5.5,0,0,1,0-.7.48.48,0,0,1,.7,0l4.76,4.76a.5.5,0,0,1-.35.85Z" transform="translate(147.67 150.99)"/><path class="cls-38" d="M315.11,534.43a2,2,0,1,1,2-2A2,2,0,0,1,315.11,534.43Zm0-3a1,1,0,1,0,1,1A1,1,0,0,0,315.11,531.44Z" transform="translate(147.67 150.99)"/><path class="cls-39" d="M313.61,529.7a2,2,0,1,1,2-2A2,2,0,0,1,313.61,529.7Zm0-3a1,1,0,1,0,1,1A1,1,0,0,0,313.61,526.71Z" transform="translate(147.67 150.99)"/><path class="cls-40" d="M317.84,525.22a2,2,0,1,1,2-2A2,2,0,0,1,317.84,525.22Zm0-3a1,1,0,0,0,0,2,1,1,0,1,0,0-2Z" transform="translate(147.67 150.99)"/><path class="cls-41" d="M318.34,528.21h-3.23a.5.5,0,0,1-.5-.5.5.5,0,0,1,.5-.5h2.23V524.8a.51.51,0,0,1,.5-.5.5.5,0,0,1,.5.5Z" transform="translate(147.67 150.99)"/><path class="cls-42" d="M-25.82,496.75S6.3,484.48,41,501.89s20.23,30.53,82.42,49.24,77.54,27.33,133.53,10.28S380.18,532.89,427,543s20,81,20,81L-12,678Z" transform="translate(147.67 150.99)"/><path class="cls-43" d="M150.29,597.68c-1.07-.14-2.14-.28-3.21-.4a148.23,148.23,0,0,0-50.77-25.16A148.59,148.59,0,0,0,13.5,532.55c-78.29-10.73-149.92,40.1-160,113.54-9.19,67,36.05,129.69,103.51,148.3a153.34,153.34,0,0,0,20,4.12,153.22,153.22,0,0,0,33.48.9,141.56,141.56,0,0,0,32.52,35,149.49,149.49,0,0,0,70.79,29.27c78.29,10.73,149.92-40.1,160-113.54S228.58,608.42,150.29,597.68Z" transform="translate(147.67 150.99)"/><path class="cls-44" d="M317.67,404.76a3.1,3.1,0,0,1,1.54-2.79A2.8,2.8,0,0,0,320.7,399V399c0-3.78,0-7.57,0-11.36,0-5.09,0-10.36,0-15.54v0a4,4,0,0,1,1.27-3.1c3.72-3.68,7.48-7.45,11.12-11.09s7.28-7.28,10.94-10.9a4.42,4.42,0,0,0,1.41-3.46c0-16.39,0-33.37,0-50.49q0-24.19,0-48.38v-.08l0-.08a1.26,1.26,0,0,1-.08-.5,6.86,6.86,0,0,1,.06-.75c0-.21.05-.41.06-.59v-3.92c0-.19,0-.4-.06-.61a6.49,6.49,0,0,1-.06-.75,1.3,1.3,0,0,1,.08-.5l0-.07v-.08q0-24.19,0-48.38c0-17.12,0-34.1,0-50.48a4.46,4.46,0,0,0-1.41-3.47c-3.66-3.63-7.36-7.33-10.94-10.91s-7.4-7.4-11.12-11.08a4,4,0,0,1-1.27-3.1v0c0-5.18,0-10.45,0-15.55,0-3.78,0-7.57,0-11.35v-.08a2.81,2.81,0,0,0-1.49-2.94,3.08,3.08,0,0,1-1.54-2.78,3.74,3.74,0,0,1,.18-1.15,3.52,3.52,0,0,1,3.42-2.47,3.65,3.65,0,0,1,3.57,3.63,3.18,3.18,0,0,1-1.61,2.82,2.71,2.71,0,0,0-1.45,2.79v0q0,6.56,0,13.1c0,4.84,0,9.23,0,13.43v0a4.22,4.22,0,0,0,1.41,3.26c3.38,3.36,6.8,6.78,10.1,10.09,3.91,3.91,8,7.95,12,11.9a4,4,0,0,1,1.28,3.12c0,11.11,0,22,0,31.29v37.28c0,9.77,0,20.29,0,31v.08l0,.07a1.19,1.19,0,0,1,.08.48,4.86,4.86,0,0,1-.07.74c0,.18,0,.36-.05.52v4.17c0,.18,0,.36.05.54a4.86,4.86,0,0,1,.07.74,1.1,1.1,0,0,1-.08.47l0,.08v.08c0,10.68,0,21.2,0,31v37.28c0,9.24,0,20.17,0,31.27a4,4,0,0,1-1.28,3.13c-4,4-8,8-11.94,11.9-3.31,3.31-6.73,6.74-10.11,10.09a4.26,4.26,0,0,0-1.41,3.27v0c0,4.2,0,8.59,0,13.43q0,6.54,0,13.1v0a2.71,2.71,0,0,0,1.45,2.79,3.17,3.17,0,0,1,1.61,2.82,3.34,3.34,0,0,1-.23,1.25,3.43,3.43,0,0,1-3.34,2.38,3.53,3.53,0,0,1-3.42-2.48A3.67,3.67,0,0,1,317.67,404.76Z" transform="translate(147.67 150.99)"/><path class="cls-45" d="M221.38,390.45a3.33,3.33,0,0,1,1.74-2.89,2.39,2.39,0,0,0,1.23-2.36v-.05c0-.57,0-1.15,0-1.72,0-1.11,0-2.22,0-3.33s0-2.23,0-3.34c0-1.59,0-2.9,0-4.14v-.09a3.72,3.72,0,0,1,1.24-2.89c1.37-1.34,2.75-2.72,4.08-4.06,1.69-1.7,3.44-3.47,5.2-5.15a5.23,5.23,0,0,0,1.74-4.09c0-20.44,0-40.63,0-64.68V244.34a2,2,0,0,1,0-.39,5.46,5.46,0,0,1,0-.56v-5.52a5.27,5.27,0,0,1,0-.56,1.92,1.92,0,0,1,0-.38V189.6c0-24,0-44.24,0-64.66a5.21,5.21,0,0,0-1.74-4.1c-1.76-1.69-3.51-3.45-5.2-5.15-1.33-1.34-2.71-2.72-4.08-4.06a3.72,3.72,0,0,1-1.24-2.89v-.1c0-1.23,0-2.54,0-4.14,0-1.11,0-2.22,0-3.33s0-2.22,0-3.33c0-.58,0-1.15,0-1.73v0a2.39,2.39,0,0,0-1.23-2.36,3.34,3.34,0,0,1-1.74-2.89,3.87,3.87,0,0,1,.18-1.14,3.58,3.58,0,0,1,7,1.14,3.42,3.42,0,0,1-1.84,3A2.24,2.24,0,0,0,225.49,96v0c0,2.55,0,4.81,0,6.93,0,1.91,0,3.68,0,5.41v0a3.64,3.64,0,0,0,1.19,2.79c1.41,1.38,2.83,2.8,4.2,4.17,1.74,1.75,3.54,3.56,5.36,5.3a4.49,4.49,0,0,1,1.52,3.58c0,12.32,0,24.5,0,34.8v29.56q0,24.15,0,48.3V237a2.37,2.37,0,0,1,0,.41c0,.17,0,.34,0,.51s0,.25,0,.37V243c0,.13,0,.25,0,.38s0,.34,0,.51a2.25,2.25,0,0,1,0,.4v.08q0,24.15,0,48.3v29.55c0,10.3,0,22.49,0,34.79a4.5,4.5,0,0,1-1.52,3.6c-1.82,1.74-3.62,3.55-5.37,5.3-1.37,1.37-2.78,2.79-4.19,4.17a3.63,3.63,0,0,0-1.19,2.78v.06c0,1.73,0,3.5,0,5.4,0,2.12,0,4.39,0,6.94v0a2.23,2.23,0,0,0,1.21,2.18,3.45,3.45,0,0,1,1.84,3,3.65,3.65,0,0,1-.15,1,3.54,3.54,0,0,1-6.83.11,3.75,3.75,0,0,1-.18-1.13Zm6.41.11a2.85,2.85,0,0,0-2.73-2.8,2.82,2.82,0,0,0-2.92,2.7v.11a2.83,2.83,0,0,0,2.72,2.8,2.87,2.87,0,0,0,2.93-2.71Zm0-299.95a2.87,2.87,0,0,0-2.93-2.71,2.83,2.83,0,0,0-2.72,2.8v.1a2.83,2.83,0,0,0,.9,2,2.79,2.79,0,0,0,2,.74,2.83,2.83,0,0,0,2.73-2.79Z" transform="translate(147.67 150.99)"/><path class="cls-46" d="M322.86,490.82a3.14,3.14,0,0,1,1.6-2.79,2.7,2.7,0,0,0,1.44-2.81V467.66c0-6,0-12.38-.06-19v-.07a5.34,5.34,0,0,1,1.86-4.3c1.77-1.68,3.52-3.45,5.21-5.15,1.29-1.3,2.62-2.64,3.95-3.93a4,4,0,0,0,1.28-3.15c0-12.09,0-24.07,0-34.2V376.65c0-.55,0-1.1,0-1.65s.37-.68.49-.69a.58.58,0,0,1,.4.11.86.86,0,0,1,.18.63c0,.61,0,1.22,0,1.84v41.39c0,5.84,0,10.29,0,14.43v0a3.72,3.72,0,0,1-1.2,2.94c-1.88,1.81-3.74,3.68-5.55,5.49-1.43,1.44-2.91,2.93-4.39,4.37a3.46,3.46,0,0,0-1.1,2.67q0,9.72,0,19.42,0,8.89,0,17.8a2.44,2.44,0,0,0,1.34,2.52,3.24,3.24,0,0,1,1.7,2.9,3.77,3.77,0,0,1-.18,1.14,3.58,3.58,0,0,1-3.42,2.48,3.41,3.41,0,0,1-3.34-2.38A3.5,3.5,0,0,1,322.86,490.82Zm6.42.1a2.87,2.87,0,0,0-2.53-2.79,2.67,2.67,0,0,0-2,.6,2.74,2.74,0,0,0-1,1.9,2.64,2.64,0,0,0,0,.28,2.74,2.74,0,0,0,2.49,2.79,2.82,2.82,0,0,0,3.1-2.48C329.27,491.12,329.28,491,329.28,490.92Z" transform="translate(147.67 150.99)"/><path class="cls-47" d="M308,349.18a3.23,3.23,0,0,1,1.67-2.83,2.64,2.64,0,0,0,1.4-2.65c0-5.28,0-10.53,0-15.78,0-7,0-14.32,0-21.48a4.13,4.13,0,0,1,1.39-3.27c1.67-1.61,3.33-3.28,4.94-4.9s3.06-3.07,4.61-4.57a4.21,4.21,0,0,0,1.35-3.31c0-8.14,0-16.56,0-25.76v0q0-10,0-20v-.06l0-.06a1.17,1.17,0,0,1-.05-.41c0-.19,0-.4,0-.6s0-.27,0-.39v-4.81l0-.42c0-.2,0-.4,0-.59a1.14,1.14,0,0,1,.05-.41l0-.06v-.06q0-10,0-20c0-9.21,0-17.65,0-25.79a4.21,4.21,0,0,0-1.35-3.32c-1.55-1.51-3.11-3.07-4.61-4.58s-3.27-3.28-4.94-4.89a4.11,4.11,0,0,1-1.39-3.24c0-7.2,0-14.47,0-21.51q0-7.87,0-15.76h0a2.65,2.65,0,0,0-1.4-2.67,3.26,3.26,0,0,1-1.67-2.84,3.7,3.7,0,0,1,.22-1.22,3.42,3.42,0,0,1,3.31-2.42,3.64,3.64,0,0,1,3.46,2.44,3.5,3.5,0,0,1,.19,1.11,3.39,3.39,0,0,1-1.68,2.95,2.51,2.51,0,0,0-1.37,2.49q0,10.66,0,21.29,0,8,0,15.95a3.61,3.61,0,0,0,1.22,2.81c1.55,1.52,3.12,3.09,4.62,4.6,1.74,1.74,3.53,3.54,5.32,5.28a3.3,3.3,0,0,1,1.08,2.62c0,5.06,0,10,0,13.75,0,2.15,0,23.73,0,23.73,0,3.09,0,6.17,0,9.26v.05l0,0a1.41,1.41,0,0,1,0,.39c0,.18,0,.39,0,.58l0,.28v5.1c0,.12,0,.21,0,.3s0,.4,0,.59a1.34,1.34,0,0,1,0,.38l0,.05v.06c0,3.08,0,6.17,0,9.25,0,0,0,21.59,0,23.74,0,3.74,0,8.68,0,13.72a3.33,3.33,0,0,1-1.08,2.65c-1.79,1.74-3.58,3.54-5.31,5.27-1.51,1.52-3.08,3.08-4.63,4.6a3.62,3.62,0,0,0-1.22,2.8q0,8,0,16,0,10.63,0,21.27a2.53,2.53,0,0,0,1.37,2.51,3.39,3.39,0,0,1,1.68,2.95,3.5,3.5,0,0,1-.19,1.11,3.64,3.64,0,0,1-3.46,2.44,3.44,3.44,0,0,1-3.31-2.42A3.75,3.75,0,0,1,308,349.18Zm6.43.07a2.78,2.78,0,0,0-2.84-2.76,2.7,2.7,0,0,0-2.77,2.79,2.79,2.79,0,0,0,.84,2,2.74,2.74,0,0,0,2,.79,2.87,2.87,0,0,0,2.81-2.8h0Zm0-217.27a2.87,2.87,0,0,0-2.81-2.79,2.78,2.78,0,0,0-2,.79,2.81,2.81,0,0,0-.83,2,2.7,2.7,0,0,0,2.77,2.8,2.78,2.78,0,0,0,2.84-2.76Z" transform="translate(147.67 150.99)"/><path class="cls-48" d="M221.41,468.42a3.05,3.05,0,0,1,1.39-2.62,3.46,3.46,0,0,0,1.65-3.42v-.05q0-8.61,0-17.22c0-6.38,0-13,0-19.46a3.93,3.93,0,0,1,1.28-3.14c1.69-1.63,3.37-3.32,5-5s3.11-3.11,4.69-4.65a4.18,4.18,0,0,0,1.35-3.29c0-5.27,0-10.64,0-16.45,0-5.3,0-10.9,0-17.12h0a4.15,4.15,0,0,0-.05-.59c0-.2,0-.41,0-.6,0-.51.14-.67.6-.67a.66.66,0,0,1,.47.13.88.88,0,0,1,.15.61,5.4,5.4,0,0,1,0,.56,5.17,5.17,0,0,0,0,.54c0,2.55,0,5.26,0,8.81v8.52c0,1.5,0,3,0,4.49s0,3.12,0,4.68c0,3,0,5.4.05,7.61v.09a4,4,0,0,1-1.39,3.18c-1.66,1.61-3.32,3.28-4.92,4.89s-3,3-4.49,4.46a4.41,4.41,0,0,0-1.48,3.43c0,5.74,0,11.79,0,18.52q0,9,0,18h0a2.9,2.9,0,0,0,1.51,3,3.09,3.09,0,0,1,1.53,2.73,3.68,3.68,0,0,1-.88,2.37,3.55,3.55,0,0,1-5.21.28,3.77,3.77,0,0,1-1.11-2.64Z" transform="translate(147.67 150.99)"/><path class="cls-49" d="M255.63,452v-.24c0-1.27.06-2.65.06-4.33,0-1,0-2,0-2.93s0-2,0-2.93v-5.81q0-3.06,0-6.12h0c0-.11,0-.21,0-.3v-.28a.94.94,0,0,1,.14-.63.56.56,0,0,1,.41-.12c.44,0,.59.15.59.94v4.24c0,2.7,0,5.39,0,8.08,0,3.92,0,7.15,0,10.17v0a4,4,0,0,0,1.32,3.11c1.51,1.48,3,3,4.5,4.48,1.68,1.69,3.42,3.44,5.17,5.13a3.87,3.87,0,0,1,1.26,3.1c0,6.5,0,13.08,0,19.44q0,7.33,0,14.68a2.8,2.8,0,0,0,1.46,2.83,3.14,3.14,0,0,1,1.55,2.78,3.57,3.57,0,0,1-.19,1.16,3.56,3.56,0,0,1-6.8,0,3.8,3.8,0,0,1-.16-1.1,3.19,3.19,0,0,1,1.72-2.92,2.38,2.38,0,0,0,1.34-2.49c0-5.61,0-11.19,0-16.78,0-6.25,0-11.86,0-17.15a3.83,3.83,0,0,0-1.24-3c-1.36-1.33-2.73-2.7-4-4-1.79-1.8-3.64-3.67-5.51-5.45A4.46,4.46,0,0,1,255.63,452Z" transform="translate(147.67 150.99)"/><path class="cls-50" d="M339.59,520.91a3.12,3.12,0,0,1,1.63-2.8,2.71,2.71,0,0,0,1.44-2.82q0-13.77,0-27.49c0-12.61,0-24.06,0-35a6.37,6.37,0,0,0-.06-.71,6.41,6.41,0,0,1-.07-.73.75.75,0,0,1,.16-.57.71.71,0,0,1,.52-.13c.41,0,.64.14.64.78a6.5,6.5,0,0,1-.06.74,6.18,6.18,0,0,0-.06.71c0,6.36,0,12.69,0,17.5v27.32c0,5.18,0,11.3,0,17.48v0a2.86,2.86,0,0,0,1.5,3,3.05,3.05,0,0,1,1.52,2.73,3.82,3.82,0,0,1-.2,1.2,3.51,3.51,0,0,1-3.45,2.44,3.34,3.34,0,0,1-3.3-2.4,3.55,3.55,0,0,1-.23-1.25Z" transform="translate(147.67 150.99)"/><path class="cls-51" d="M221.32,539.45a3.07,3.07,0,0,1,1.59-2.75,2.6,2.6,0,0,0,1.38-2.66q0-6.6,0-13.16c0-6.14,0-12.48,0-18.72a4.13,4.13,0,0,1,1.35-3.31c1.86-1.8,3.72-3.67,5.51-5.48,1.4-1.4,2.84-2.85,4.28-4.26a3.66,3.66,0,0,0,1.18-2.79v-.05c0-1.73,0-3.6,0-5.88v-4.2c0-1.18,0-2.36,0-3.55v-.57c0-.23,0-.46,0-.7,0-.74.19-.88.5-.9a.53.53,0,0,1,.42.11,1.07,1.07,0,0,1,.22.77c0,1.29,0,2.57,0,3.86V480h0c0,.59,0,1.18,0,1.77v2.13c0,1.21,0,2.2,0,3.12v.1a2.92,2.92,0,0,1-1,2.23c-1.79,1.77-3.59,3.57-5.33,5.32s-3.31,3.31-5,4.95a3.24,3.24,0,0,0-1.06,2.49c0,5.31,0,10.82,0,16.39q0,7.74,0,15.48h0a2.57,2.57,0,0,0,1.41,2.67,3.1,3.1,0,0,1,1.66,2.82,3.92,3.92,0,0,1-.19,1.21,3.55,3.55,0,0,1-6.78-.07,3.55,3.55,0,0,1-.19-1.15Zm6.4.13a2.8,2.8,0,0,0-4.8-2,2.79,2.79,0,0,0-.85,2,2.85,2.85,0,0,0,4.84,2,2.76,2.76,0,0,0,.81-2Z" transform="translate(147.67 150.99)"/><path class="cls-52" d="M364.38,507.19c0-1.4,0-2.93,0-4.82,0-1,0-2,0-3v-8.73c0-1.72,0-3.44,0-5.16h0c0-.14,0-.28,0-.42s0-.26,0-.4c0-.54.13-.69.56-.71a.72.72,0,0,1,.45.11.88.88,0,0,1,.14.59c0,.13,0,.26,0,.39s0,.26,0,.38v.88c0,3.33,0,6.65,0,10,0,3.8,0,7.12,0,10.15v0a3.78,3.78,0,0,0,1.23,3c1.72,1.68,3.46,3.42,5.13,5.1s3.19,3.19,4.8,4.77a3.1,3.1,0,0,1,1,2.44v0c0,2.73,0,5.5,0,7.86v4.59c0,1.62,0,3.24,0,4.87v.08a2.13,2.13,0,0,0,1.4,2.36,3.21,3.21,0,0,1,2,3,3.81,3.81,0,0,1-.13,1,3.35,3.35,0,0,1-3.1,2.66,3.45,3.45,0,0,1-3.62-2.14,3.78,3.78,0,0,1-.31-1.48,3.38,3.38,0,0,1,1.58-2.8,2.41,2.41,0,0,0,1.1-2.25c0-2.92,0-5.81,0-8.7,0-3.09,0-5.85,0-8.45v0a3.42,3.42,0,0,0-1.13-2.63c-1.58-1.55-3.17-3.14-4.71-4.69-1.74-1.75-3.54-3.56-5.34-5.32a3.06,3.06,0,0,1-1-2.41Zm15.9,37.46a2.8,2.8,0,1,0-2.81,2.8,2.77,2.77,0,0,0,2.81-2.8Z" transform="translate(147.67 150.99)"/><path class="cls-53" d="M302.16,276.9a3.19,3.19,0,0,1,1.58-2.78,2.73,2.73,0,0,0,1.45-2.78c0-5.15,0-10.6,0-17.7v-26c0-7.09,0-12.54,0-17.66h0a2.75,2.75,0,0,0-1.45-2.81,3.14,3.14,0,0,1-1.58-2.79,3.64,3.64,0,0,1,.24-1.29,3.41,3.41,0,0,1,3.34-2.35,3.58,3.58,0,0,1,3.41,2.47,4.09,4.09,0,0,1,.17,1.14,3.24,3.24,0,0,1-1.69,2.91,2.48,2.48,0,0,0-1.36,2.59v.09q0,4,0,8V263.4q0,4,0,8v.08a2.48,2.48,0,0,0,1.36,2.6,3.22,3.22,0,0,1,1.69,2.91,4,4,0,0,1-.17,1.13,3.59,3.59,0,0,1-3.41,2.48,3.41,3.41,0,0,1-3.34-2.35,3.65,3.65,0,0,1-.24-1.3Z" transform="translate(147.67 150.99)"/><path class="cls-54" d="M187,276.9a3.17,3.17,0,0,1,1.59-2.78,2.74,2.74,0,0,0,1.44-2.78c0-5.15,0-10.6,0-17.7v-26c0-7.09,0-12.54,0-17.66h0a2.76,2.76,0,0,0-1.44-2.81,3.15,3.15,0,0,1-1.59-2.79,3.64,3.64,0,0,1,.24-1.29,3.41,3.41,0,0,1,3.34-2.35,3.57,3.57,0,0,1,3.41,2.47,4.09,4.09,0,0,1,.17,1.14,3.24,3.24,0,0,1-1.69,2.91,2.48,2.48,0,0,0-1.36,2.59v.09q0,4,0,8V263.4q0,4,0,8v.08a2.48,2.48,0,0,0,1.36,2.6,3.22,3.22,0,0,1,1.69,2.91,4,4,0,0,1-.17,1.13,3.58,3.58,0,0,1-3.41,2.48,3.41,3.41,0,0,1-3.34-2.35,3.65,3.65,0,0,1-.24-1.3Z" transform="translate(147.67 150.99)"/><path class="cls-55" d="M243.09,520.92a3,3,0,0,1,1.42-2.63,3.23,3.23,0,0,0,1.65-3.23v-.25c0-1.07,0-2.13,0-3.2,0-1.39,0-2.78,0-4.17,0-.73,0-2.18,0-2.18a2,2,0,0,0,0-.25v-.23h0c0-.63.14-.74.46-.76a.58.58,0,0,1,.45.1c.2.19.2.69.21,1.09v7.63c0,.46,0,.92,0,1.39v.5a3.87,3.87,0,0,0,1.85,3.81,2.64,2.64,0,0,1,1.21,2.32,3.85,3.85,0,0,1-1.22,2.76,3.54,3.54,0,0,1-5.08-.23A3.74,3.74,0,0,1,243.09,520.92Z" transform="translate(147.67 150.99)"/><path class="cls-56" d="M30.11,495.38a3.69,3.69,0,0,1,.55-1.88,3.36,3.36,0,0,1,4.05-1.5,2.26,2.26,0,0,0,2.75-.75c7.46-7.5,13.54-13.58,19.15-19.15a3.45,3.45,0,0,0,1.11-2.67q0-22.43,0-44.82,0-22.1,0-44.18a3.63,3.63,0,0,0-1.22-2.81c-1.34-1.31-2.68-2.66-4-4-1.81-1.82-3.69-3.71-5.58-5.51a4.69,4.69,0,0,1-1.58-3.73c0-12.75,0-25.5,0-36.3V160.92c0-10.8,0-23.56,0-36.28A4.69,4.69,0,0,1,47,120.89c1.89-1.81,3.77-3.7,5.58-5.52,1.3-1.31,2.63-2.65,4-4a3.63,3.63,0,0,0,1.22-2.81q0-22.09,0-44.18,0-22.41,0-44.82a3.45,3.45,0,0,0-1.11-2.67C51,11.37,44.93,5.29,37.46-2.23A2.29,2.29,0,0,0,34.71-3a3.34,3.34,0,0,1-4.05-1.5,3.66,3.66,0,0,1-.55-1.88A3.51,3.51,0,0,1,31-8.68a3.59,3.59,0,0,1,4.12-.93,3.38,3.38,0,0,1,2.09,3.15,4.14,4.14,0,0,1-.09.84,2.72,2.72,0,0,0-.06.55,2.58,2.58,0,0,0,1,1.89l.07.07q2.66,2.64,5.29,5.3c4.63,4.63,9.41,9.42,14.14,14.11a3.79,3.79,0,0,1,1.25,2.95c0,14.73,0,30.09,0,45.66q0,22,0,44.08a3.57,3.57,0,0,1-1.13,2.83c-1.64,1.59-3.28,3.24-4.87,4.83s-3.28,3.29-4.94,4.91a4.19,4.19,0,0,0-1.36,3.31c0,29,0,58.55,0,87.09v14q0,6.78,0,13.55v10q0,6.78,0,13.55v14c0,28.55,0,58.06,0,87.09a4.19,4.19,0,0,0,1.36,3.32c1.66,1.62,3.33,3.29,4.94,4.91s3.23,3.23,4.87,4.83A3.55,3.55,0,0,1,58.83,380q0,22.05,0,44.09c0,15.56,0,30.92,0,45.65a3.79,3.79,0,0,1-1.25,3c-4.72,4.67-9.48,9.44-14.09,14.06l-5.34,5.35-.07.07a2.56,2.56,0,0,0-1,1.88,2.74,2.74,0,0,0,.06.56,4.07,4.07,0,0,1,.09.84,3.38,3.38,0,0,1-2.09,3.15A3.58,3.58,0,0,1,31,497.7a3.47,3.47,0,0,1-.9-2.32Z" transform="translate(147.67 150.99)"/><path class="cls-57" d="M17.29,478A3.51,3.51,0,0,1,22,474.75a2,2,0,0,0,2.27-.6c2.31-2.37,4.71-4.81,7.16-7.15a4.16,4.16,0,0,0,1.38-3.3q0-17.54,0-35.05c0-13.75,0-28.19,0-42.9a3.63,3.63,0,0,0-1.18-2.83c-1.46-1.42-2.92-2.89-4.34-4.31-1.78-1.78-3.63-3.63-5.48-5.42a4.11,4.11,0,0,1-1.37-3.28c0-13.61,0-27.08,0-38.46V285.53q0-20.5,0-41c0-13.67,0-61.82,0-61.82V157.58c0-11.38,0-24.85,0-38.45a4.14,4.14,0,0,1,1.37-3.3c1.85-1.78,3.7-3.63,5.48-5.42,1.42-1.42,2.88-2.88,4.34-4.3a3.65,3.65,0,0,0,1.18-2.83c0-14.72,0-29.15,0-42.91q0-17.5,0-35A4.16,4.16,0,0,0,31.47,22c-2.46-2.35-4.85-4.79-7.16-7.15a2,2,0,0,0-2.27-.6A3.51,3.51,0,0,1,17.29,11a3.62,3.62,0,0,1,.89-2.38,3.57,3.57,0,0,1,4.13-.89,3.31,3.31,0,0,1,2.06,3.13,4.53,4.53,0,0,1-.09.88,2.72,2.72,0,0,0-.07.61,2.36,2.36,0,0,0,.88,1.77c1.12,1.1,2.22,2.21,3.33,3.32,1.47,1.48,3,3,4.51,4.49a2.94,2.94,0,0,1,1,2.31q0,18.35,0,36.68c0,14.41,0,29,0,43.29a2.81,2.81,0,0,1-1,2.14L29,110.27c-2,2-4.07,4.08-6.12,6.09a3.84,3.84,0,0,0-1.27,3c0,30.66,0,61.83,0,92v7.78q0,11.11,0,22.22a1,1,0,0,1,0,.17v6.07a.76.76,0,0,1,0,.15q0,11.13,0,22.24v7.78c0,30.14,0,61.3,0,92a3.84,3.84,0,0,0,1.27,3c2.05,2,4.12,4.09,6.12,6.1L33,382.68a2.81,2.81,0,0,1,1,2.14c0,14.32,0,28.89,0,43.3q0,18.33,0,36.67a3,3,0,0,1-1,2.32c-1.52,1.48-3,3-4.51,4.48-1.11,1.11-2.21,2.22-3.33,3.32a2.38,2.38,0,0,0-.88,1.77,2.72,2.72,0,0,0,.07.61,4.56,4.56,0,0,1,.09.89,3.33,3.33,0,0,1-2.06,3.13,3.57,3.57,0,0,1-4.13-.89A3.62,3.62,0,0,1,17.29,478Z" transform="translate(147.67 150.99)"/><path class="cls-58" d="M-4.45,374.72c0-13.89,0-27.5,0-39V153.29c0-11.48,0-25.09,0-39a4.74,4.74,0,0,1,1.53-3.79c1.87-1.77,3.71-3.63,5.5-5.43,1.32-1.33,2.69-2.71,4.05-4A4,4,0,0,0,8,97.94c0-4.43,0-8.93,0-13.77,0-4.41,0-9,0-14.09v0a2.54,2.54,0,0,0-1.54-2.72,3.19,3.19,0,0,1-1.76-2.95,3.63,3.63,0,0,1,.1-.87A3.59,3.59,0,0,1,8,60.78,3.5,3.5,0,0,1,11.56,63a4.92,4.92,0,0,1,.25,1.46,3,3,0,0,1-1.39,2.57A3,3,0,0,0,9,69.9c0,3.87,0,7.71,0,11.54,0,5.41,0,11,0,16.51V98a4.59,4.59,0,0,1-1.52,3.7c-1.83,1.73-3.63,3.55-5.37,5.3-1.32,1.34-2.69,2.71-4.06,4a4.28,4.28,0,0,0-1.39,3.31c0,23.51,0,46.83,0,68.7v21.84q0,16.44,0,32.87v13.47q0,16.44,0,32.87V306c0,21.87,0,45.19,0,68.7A4.26,4.26,0,0,0-1.87,378c1.37,1.33,2.74,2.71,4.06,4,1.74,1.76,3.54,3.57,5.37,5.3A4.62,4.62,0,0,1,9.08,391v.07c0,5.5,0,11.09,0,16.5,0,3.84,0,7.67,0,11.51H9a3,3,0,0,0,1.4,2.86,3,3,0,0,1,1.39,2.58,4.92,4.92,0,0,1-.25,1.46A3.52,3.52,0,0,1,8,428.25a3.59,3.59,0,0,1-3.25-2.72,3.63,3.63,0,0,1-.1-.87,3.19,3.19,0,0,1,1.76-3A2.55,2.55,0,0,0,8,419v0c0-5.07,0-9.68,0-14.08,0-4.85,0-9.34,0-13.74H8A4,4,0,0,0,6.63,388c-1.36-1.33-2.73-2.7-4-4-1.79-1.79-3.63-3.65-5.5-5.43a4.69,4.69,0,0,1-1.53-3.76Zm15.46,50a2.75,2.75,0,0,0-2.79-2.78,2.81,2.81,0,0,0-2.81,2.79,2.91,2.91,0,0,0,2.84,2.82A2.76,2.76,0,0,0,11,424.71h0ZM11,64.32a2.76,2.76,0,0,0-2.76-2.81,2.9,2.9,0,0,0-2.84,2.8,2.82,2.82,0,0,0,2.81,2.81A2.75,2.75,0,0,0,11,64.34Z" transform="translate(147.67 150.99)"/><path class="cls-59" d="M138.5,432.7a3.06,3.06,0,0,1,1.42-2.62c1.5-1,1.61-2.09,1.61-3.48q0-31.59,0-63.14v-39.6q0-39.64,0-79.31v-.1a1.47,1.47,0,0,1-.06-.46c0-.2,0-.41,0-.62a4.12,4.12,0,0,0,0-.48v-4.5a4.32,4.32,0,0,0,0-.5c0-.2,0-.42,0-.61a1.47,1.47,0,0,1,.06-.46v-.11q0-39.65,0-79.31V117.8q0-31.56,0-63.12c0-1.4-.11-2.54-1.61-3.5a3,3,0,0,1-1.42-2.61,3.72,3.72,0,0,1,1-2.5,3.57,3.57,0,0,1,5.22,0,3.6,3.6,0,0,1,1,2.47,3.18,3.18,0,0,1-1.52,2.77,3.06,3.06,0,0,0-1.53,3c0,45.67,0,92.11,0,137v24.83q0,10.26,0,20.53v.06l0,.06a1.33,1.33,0,0,1,.06.44c0,.21,0,.44-.05.66s0,.25,0,.37V243c0,.14,0,.27,0,.4s.05.45.05.65a1.29,1.29,0,0,1-.06.44l0,.06v.06q0,10.28,0,20.54V290c0,44.91,0,91.34,0,137a3,3,0,0,0,1.53,3,3.21,3.21,0,0,1,1.52,2.77,3.62,3.62,0,0,1-1,2.48,3.57,3.57,0,0,1-5.22,0A3.72,3.72,0,0,1,138.5,432.7Z" transform="translate(147.67 150.99)"/><path class="cls-60" d="M77.94,436.51c0-4.12,0-8.54,0-14.34V380.69c0-.61,0-1.23,0-1.84a.83.83,0,0,1,.18-.62.49.49,0,0,1,.4-.11c.12,0,.48,0,.49.68s0,1.1,0,1.65v21.21c0,10.18,0,22.2,0,34.24a4,4,0,0,0,1.28,3.16c1.33,1.29,2.66,2.64,3.94,3.93,1.7,1.71,3.44,3.47,5.22,5.15a5.36,5.36,0,0,1,1.86,4.3v.08c0,6.56-.06,13-.06,19V489h0a2.72,2.72,0,0,0,1.44,2.85,3.12,3.12,0,0,1,1.6,2.79,3.58,3.58,0,0,1-.24,1.28,3.42,3.42,0,0,1-3.34,2.37,3.55,3.55,0,0,1-3.42-2.48,3.72,3.72,0,0,1-.18-1.14,3.24,3.24,0,0,1,1.7-2.9,2.43,2.43,0,0,0,1.34-2.5c0-5.95,0-11.88,0-17.82q0-9.7,0-19.41a3.43,3.43,0,0,0-1.1-2.67c-1.48-1.45-3-2.94-4.4-4.38-1.8-1.81-3.67-3.68-5.54-5.49a3.72,3.72,0,0,1-1.2-2.94Zm15.57,58.21a2.83,2.83,0,0,0,0-.29,2.78,2.78,0,0,0-3.06-2.5,2.88,2.88,0,0,0-2.53,2.79c0,.1,0,.2,0,.3A2.82,2.82,0,0,0,91,497.5,2.74,2.74,0,0,0,93.51,494.72Z" transform="translate(147.67 150.99)"/><path class="cls-61" d="M167,374.84a.92.92,0,0,1,.15-.61.71.71,0,0,1,.47-.13c.46,0,.6.16.6.68,0,.18,0,.39,0,.59s0,.4,0,.59c0,6.19,0,11.78,0,17.08,0,5.82,0,11.21,0,16.46a4.23,4.23,0,0,0,1.36,3.33c1.58,1.53,3.16,3.11,4.68,4.65s3.31,3.32,5,4.95a3.94,3.94,0,0,1,1.29,3.12c0,6.51,0,13.1,0,19.48q0,8.61,0,17.22v.05a3.47,3.47,0,0,0,1.65,3.43,3,3,0,0,1,1.38,2.62,3.72,3.72,0,0,1-1.11,2.63,3.5,3.5,0,0,1-2.64,1,3.62,3.62,0,0,1-2.57-1.28,3.71,3.71,0,0,1-.88-2.38h0a3.1,3.1,0,0,1,1.53-2.73,2.88,2.88,0,0,0,1.51-3q0-9.06,0-18.07c0-6.72,0-12.75,0-18.44h0a4.41,4.41,0,0,0-1.48-3.46c-1.52-1.48-3-3-4.5-4.48s-3.26-3.27-4.92-4.87a4,4,0,0,1-1.39-3.18v-.1c0-2.2,0-4.61,0-7.6v-4.64c0-1.51,0-3,0-4.53v-8.57c0-3.53,0-6.23,0-8.75h0a5.25,5.25,0,0,0,0-.56C167,375.21,167,375,167,374.84Z" transform="translate(147.67 150.99)"/><path class="cls-62" d="M138.46,507.28a3.1,3.1,0,0,1,1.55-2.77,2.79,2.79,0,0,0,1.46-2.81c0-4.93,0-9.83,0-14.74,0-6.35,0-12.91,0-19.37a3.94,3.94,0,0,1,1.26-3.14c1.75-1.68,3.49-3.43,5.18-5.12,1.47-1.48,3-3,4.5-4.48a4,4,0,0,0,1.32-3.12v0c0-3,0-6.27,0-10.2,0-2.72,0-5.45,0-8.18V429.2c0-.79.16-.93.59-.93a.59.59,0,0,1,.42.11,1,1,0,0,1,.14.63,2.62,2.62,0,0,1,0,.28v.28c0,2,0,4.06,0,6.08v5.87c0,1,0,2,0,2.92s0,1.95,0,2.93c0,1.69,0,3.07.06,4.34V452a4.48,4.48,0,0,1-1.52,3.54c-1.87,1.78-3.72,3.64-5.51,5.44-1.32,1.33-2.68,2.7-4,4a3.82,3.82,0,0,0-1.25,3c0,5.3,0,10.9,0,17.13q0,8.4,0,16.8a2.41,2.41,0,0,0,1.34,2.51,3.19,3.19,0,0,1,1.73,2.92,4.25,4.25,0,0,1-.16,1.11,3.57,3.57,0,0,1-6.81,0A3.85,3.85,0,0,1,138.46,507.28Z" transform="translate(147.67 150.99)"/><path class="cls-63" d="M75,524.72A3,3,0,0,1,76.52,522a2.85,2.85,0,0,0,1.5-3v0c0-6.19,0-12.31,0-17.47V474.25c0-4.82,0-11.17,0-17.55h0c0-.23,0-.46,0-.72a6.32,6.32,0,0,1-.06-.74c0-.64.22-.77.63-.78a.75.75,0,0,1,.53.13.81.81,0,0,1,.15.57,4.86,4.86,0,0,1-.07.74,6,6,0,0,0-.06.7c0,11,0,22.49,0,35.13q0,13.66,0,27.34a2.72,2.72,0,0,0,1.44,2.84,3.12,3.12,0,0,1,1.62,2.81A3.62,3.62,0,0,1,82,526a3.38,3.38,0,0,1-3.31,2.4,3.51,3.51,0,0,1-3.44-2.44A3.61,3.61,0,0,1,75,524.72Z" transform="translate(147.67 150.99)"/><path class="cls-64" d="M167.08,486.93c0-.91,0-1.9,0-3.12,0-.71,0-1.42,0-2.13s0-1.18,0-1.78l0-.34V475.1c0-1.27,0-2.55,0-3.82a1.13,1.13,0,0,1,.22-.78.58.58,0,0,1,.43-.11c.3,0,.45.17.49.91,0,.23,0,.46,0,.69v.55c0,1.21,0,2.39,0,3.57,0,1.4,0,2.81,0,4.21,0,2.27,0,4.14,0,5.87v.05a3.66,3.66,0,0,0,1.18,2.79c1.44,1.41,2.89,2.87,4.29,4.28,1.79,1.8,3.64,3.66,5.5,5.46a4.13,4.13,0,0,1,1.35,3.28c0,6.27,0,12.62,0,18.75q0,6.57,0,13.14h0a2.62,2.62,0,0,0,1.39,2.68,3.08,3.08,0,0,1,1.58,2.75,3.83,3.83,0,0,1-.18,1.15,3.55,3.55,0,0,1-6.78.07,3.93,3.93,0,0,1-.2-1.21,3.12,3.12,0,0,1,1.67-2.82,2.54,2.54,0,0,0,1.4-2.64c0-5.2,0-10.37,0-15.55,0-5.57,0-11.07,0-16.33a3.23,3.23,0,0,0-1.06-2.5l-5-5c-1.74-1.75-3.55-3.56-5.34-5.32a3,3,0,0,1-1-2.24Zm15.68,52.57a2.84,2.84,0,0,0-.84-2,2.9,2.9,0,0,0-2-.84,2.86,2.86,0,0,0-2.8,2.82,2.73,2.73,0,0,0,.8,2,2.85,2.85,0,0,0,4.84-2Z" transform="translate(147.67 150.99)"/><path class="cls-65" d="M42.11,548.32a3.2,3.2,0,0,1,2-3,2.15,2.15,0,0,0,1.39-2.38v-.07c0-1.64,0-3.29,0-4.93V533.4c0-2.35,0-5.12,0-7.85v0a3.12,3.12,0,0,1,1-2.44c1.61-1.57,3.22-3.19,4.78-4.76s3.42-3.42,5.15-5.11a3.8,3.8,0,0,0,1.22-3v0c0-3,0-6.35,0-10.15,0-3.32,0-6.65,0-10v-.87c0-.13,0-.26,0-.39s0-.26,0-.39c0-.3,0-.49.14-.58a.58.58,0,0,1,.44-.11c.44,0,.56.17.56.71,0,.13,0,.27,0,.4s0,.27,0,.4c0,1.74,0,3.47,0,5.19v5.75c0,1,0,2,0,3v3c0,1.9,0,3.43,0,4.83v.08a3.09,3.09,0,0,1-1,2.41c-1.8,1.76-3.61,3.58-5.35,5.33-1.54,1.54-3.13,3.14-4.7,4.69a3.4,3.4,0,0,0-1.13,2.62v0c0,2.61,0,5.38,0,8.47,0,2.89,0,5.77,0,8.66h0a2.42,2.42,0,0,0,1.1,2.27,3.38,3.38,0,0,1,1.57,2.81,3.73,3.73,0,0,1-.31,1.47A3.44,3.44,0,0,1,45.34,552a3.32,3.32,0,0,1-3.09-2.66,3.83,3.83,0,0,1-.14-1Zm6.38.12a2.8,2.8,0,1,0-2.78,2.81,2.76,2.76,0,0,0,2.78-2.81h0Z" transform="translate(147.67 150.99)"/><path class="cls-66" d="M154.15,520.78a2.62,2.62,0,0,1,1.21-2.31,3.89,3.89,0,0,0,1.85-3.82v-.48c0-.49,0-.95,0-1.41v-2.65s0-4.19,0-4.95c0-.43,0-.93.2-1.12a.63.63,0,0,1,.45-.1c.32,0,.46.14.46.76v.23a1.93,1.93,0,0,0,0,.24c0,.74,0,1.46,0,2.18,0,1.39,0,2.78,0,4.17,0,1.18,0,2.23,0,3.21V515a3.23,3.23,0,0,0,1.65,3.23,3,3,0,0,1,1.42,2.64,3.74,3.74,0,0,1-.94,2.46,3.48,3.48,0,0,1-2.5,1.19,3.52,3.52,0,0,1-2.58-1,3.85,3.85,0,0,1-1.22-2.76Z" transform="translate(147.67 150.99)"/><path class="cls-67" d="M368.93,466c0-14.75,0-30.15,0-45.76q0-22,0-44a3.57,3.57,0,0,1,1.13-2.83c1.64-1.59,3.28-3.23,4.87-4.83s3.28-3.29,4.94-4.9a4.22,4.22,0,0,0,1.36-3.31c0-29.46,0-59.41,0-88.37V259.23q0-6.84,0-13.67v-9.85q0-6.84,0-13.68V209.28c0-29,0-58.91,0-88.36a4.21,4.21,0,0,0-1.36-3.32c-1.66-1.62-3.33-3.29-4.94-4.91s-3.23-3.23-4.87-4.83a3.55,3.55,0,0,1-1.13-2.82q0-22,0-44c0-15.62,0-31,0-45.76a3.79,3.79,0,0,1,1.25-3c4.7-4.66,9.45-9.42,14.05-14l5.38-5.39.07-.07a2.56,2.56,0,0,0,1-1.88,2.74,2.74,0,0,0-.06-.56,4.09,4.09,0,0,1-.1-.84,3.39,3.39,0,0,1,2.1-3.15,3.58,3.58,0,0,1,4.12.94,3.46,3.46,0,0,1,.89,2.32,3.6,3.6,0,0,1-.55,1.88,3.35,3.35,0,0,1-4,1.5,2.26,2.26,0,0,0-2.75.75C382.79,1.37,376.71,7.45,371.15,13A3.45,3.45,0,0,0,370,15.64q0,22.34,0,44.68,0,22.16,0,44.32a3.63,3.63,0,0,0,1.22,2.81c1.33,1.31,2.67,2.66,4,4,1.81,1.83,3.69,3.71,5.58,5.52a4.69,4.69,0,0,1,1.58,3.73c0,12.72,0,25.5,0,36.33V324.28c0,10.83,0,23.61,0,36.3a4.72,4.72,0,0,1-1.58,3.76c-1.89,1.8-3.77,3.69-5.58,5.51-1.3,1.31-2.64,2.66-4,4a3.59,3.59,0,0,0-1.22,2.8q0,22.17,0,44.33,0,22.33,0,44.67a3.46,3.46,0,0,0,1.11,2.68c5.57,5.53,11.66,11.62,19.15,19.15a2.29,2.29,0,0,0,2.75.75,3.34,3.34,0,0,1,4,1.5,3.57,3.57,0,0,1,.55,1.88,3.46,3.46,0,0,1-.89,2.32,3.57,3.57,0,0,1-4.12.93,3.38,3.38,0,0,1-2.1-3.14,4,4,0,0,1,.1-.84,2.81,2.81,0,0,0,.06-.56,2.58,2.58,0,0,0-1-1.89l-.07-.07c-1.8-1.79-3.59-3.59-5.38-5.38-4.59-4.61-9.35-9.37-14.05-14a3.81,3.81,0,0,1-1.25-3Z" transform="translate(147.67 150.99)"/><path class="cls-68" d="M389.24,381a2.8,2.8,0,0,1,1-2.14l3.92-3.92c2-2,4.07-4.08,6.13-6.1a3.86,3.86,0,0,0,1.26-3c0-30.66,0-61.83,0-92v-7.79q0-11.19,0-22.37v-6.24q0-11.21,0-22.38v-7.79c0-30.14,0-61.3,0-92a3.86,3.86,0,0,0-1.26-3c-2.06-2-4.13-4.09-6.12-6.1-1.31-1.31-2.61-2.62-3.93-3.92a2.8,2.8,0,0,1-1-2.14c0-14.24,0-28.77,0-43.19q0-18.39,0-36.78a2.94,2.94,0,0,1,1-2.32c1.52-1.49,3-3,4.52-4.5,1.1-1.1,2.2-2.21,3.31-3.3A2.35,2.35,0,0,0,399,8.38a3.29,3.29,0,0,0-.06-.6,4,4,0,0,1-.1-.89,3.33,3.33,0,0,1,2.06-3.13,3.56,3.56,0,0,1,5,3.28,3.49,3.49,0,0,1-4.74,3.28,1.94,1.94,0,0,0-2.27.61c-2.32,2.36-4.72,4.81-7.17,7.14a4.2,4.2,0,0,0-1.37,3.31q0,17.58,0,35.17c0,13.7,0,28.09,0,42.77a3.64,3.64,0,0,0,1.19,2.83c1.45,1.42,2.92,2.89,4.34,4.31,1.78,1.79,3.63,3.63,5.48,5.42a4.14,4.14,0,0,1,1.37,3.28c0,13.65,0,27.25,0,38.75V327.35c0,11.51,0,25.11,0,38.75a4.15,4.15,0,0,1-1.37,3.29c-1.85,1.78-3.7,3.63-5.48,5.42l-4.34,4.31a3.62,3.62,0,0,0-1.19,2.82c0,14.69,0,29.08,0,42.78q0,17.58,0,35.16a4.17,4.17,0,0,0,1.37,3.31c2.45,2.33,4.85,4.78,7.17,7.15a1.94,1.94,0,0,0,2.27.61,3.45,3.45,0,0,1,4.23,1.46,3.38,3.38,0,0,1,.51,1.82,3.56,3.56,0,0,1-5,3.28,3.33,3.33,0,0,1-2.06-3.13,3.92,3.92,0,0,1,.1-.89,3.4,3.4,0,0,0,.06-.61,2.33,2.33,0,0,0-.88-1.77c-1.11-1.09-2.2-2.2-3.3-3.3-1.48-1.48-3-3-4.53-4.5a2.94,2.94,0,0,1-1-2.31q0-18.4,0-36.79c0-14.42,0-28.95,0-43.18Z" transform="translate(147.67 150.99)"/><path class="cls-69" d="M408.19,420.73a3,3,0,0,1,1.39-2.58,3,3,0,0,0,1.4-2.83c0-3.87,0-7.7,0-11.54,0-5.41,0-11,0-16.51v-.07a4.6,4.6,0,0,1,1.52-3.7c1.82-1.73,3.62-3.54,5.37-5.3,1.32-1.33,2.69-2.71,4.06-4a4.26,4.26,0,0,0,1.39-3.31c0-23.62,0-46.92,0-70.69v-18q0-17.26,0-34.53V233.59q0-17.26,0-34.54V181.11c0-23.78,0-47.07,0-70.69a4.26,4.26,0,0,0-1.39-3.31c-1.37-1.33-2.74-2.71-4.06-4-1.74-1.76-3.54-3.57-5.37-5.3a4.62,4.62,0,0,1-1.52-3.71V94c0-5.5,0-11.09,0-16.5,0-3.84,0-7.67,0-11.51h0a3,3,0,0,0-1.4-2.86,3,3,0,0,1-1.39-2.58h0a4.92,4.92,0,0,1,.25-1.46A3.5,3.5,0,0,1,412,56.82a3.59,3.59,0,0,1,3.25,2.72,3.63,3.63,0,0,1,.1.87,3.19,3.19,0,0,1-1.76,3A2.55,2.55,0,0,0,412,66.09v0c0,5.09,0,9.69,0,14.08,0,4.85,0,9.35,0,13.74a4,4,0,0,0,1.33,3.14c1.36,1.34,2.73,2.71,4.05,4,1.79,1.8,3.63,3.66,5.5,5.44a4.69,4.69,0,0,1,1.53,3.76c0,13.85,0,27.37,0,38.77V332.17c0,11.4,0,24.92,0,38.74a4.71,4.71,0,0,1-1.53,3.79c-1.87,1.78-3.71,3.63-5.5,5.43-1.32,1.33-2.69,2.71-4.05,4a4,4,0,0,0-1.33,3.12c0,4.42,0,8.91,0,13.77,0,4.38,0,9,0,14.08v0a2.53,2.53,0,0,0,1.54,2.72,3.22,3.22,0,0,1,1.76,3,3.71,3.71,0,0,1-.1.88,3.59,3.59,0,0,1-3.25,2.71,3.5,3.5,0,0,1-3.55-2.26A4.91,4.91,0,0,1,408.19,420.73Zm6.4-360.38a2.9,2.9,0,0,0-2.84-2.8,2.81,2.81,0,1,0,0,5.61,2.81,2.81,0,0,0,2.81-2.79h0Zm0,360.54a2.81,2.81,0,0,0-2.81-2.79,2.81,2.81,0,0,0,0,5.62,2.91,2.91,0,0,0,2.84-2.81Z" transform="translate(147.67 150.99)"/><path class="cls-70" d="M277.47,432.81A3.22,3.22,0,0,1,279,430a3,3,0,0,0,1.54-3c0-42.51,0-84.63,0-127.65V264.88q0-10.17,0-20.35v-.06l0-.06a1.33,1.33,0,0,1-.06-.44c0-.21,0-.44,0-.66s0-.26,0-.38v-4.57c0-.14,0-.27,0-.4s0-.45,0-.66a1.29,1.29,0,0,1,.06-.44l0-.06v-.06q0-10.19,0-20.36V181.84c0-43,0-85.14,0-127.64a3,3,0,0,0-1.54-3,3.22,3.22,0,0,1-1.51-2.77,3.66,3.66,0,0,1,1-2.48,3.57,3.57,0,0,1,5.22,0,3.67,3.67,0,0,1,1,2.5,3,3,0,0,1-1.41,2.62c-1.5,1-1.62,2.09-1.62,3.48q0,31.57,0,63.11v38.23q0,40.44,0,80.86v.05l0,0a1.89,1.89,0,0,1,0,.46c0,.2,0,.41,0,.62s0,.34,0,.49v4.34l0,.5c0,.2,0,.42,0,.61a1.78,1.78,0,0,1,0,.46l0,0v.06q0,40.43,0,80.85v38.24q0,31.55,0,63.09c0,1.4.12,2.54,1.62,3.5a3,3,0,0,1,1.41,2.62,3.65,3.65,0,0,1-1,2.49,3.52,3.52,0,0,1-2.61,1.15,3.57,3.57,0,0,1-2.61-1.13A3.68,3.68,0,0,1,277.47,432.81Z" transform="translate(147.67 150.99)"/><path class="cls-71" d="M322.86-9.56a3.58,3.58,0,0,1,.24-1.28,3.42,3.42,0,0,1,3.34-2.37,3.55,3.55,0,0,1,3.42,2.48A3.77,3.77,0,0,1,330-9.59a3.24,3.24,0,0,1-1.7,2.9A2.43,2.43,0,0,0,327-4.19c0,6,0,11.88,0,17.82q0,9.71,0,19.41a3.43,3.43,0,0,0,1.1,2.67c1.48,1.45,3,2.94,4.39,4.37,1.81,1.82,3.68,3.69,5.55,5.5a3.72,3.72,0,0,1,1.2,2.94v0c0,5.3,0,10.5,0,14.43v41.39c0,.61,0,1.23,0,1.84a.83.83,0,0,1-.18.62.49.49,0,0,1-.4.11c-.12,0-.48,0-.49-.68s0-1.1,0-1.65V83.36c0-10.13,0-22.12,0-34.19A4,4,0,0,0,336.86,46c-1.33-1.29-2.66-2.63-3.94-3.93-1.7-1.71-3.44-3.47-5.22-5.15a5.36,5.36,0,0,1-1.86-4.3v-.08c.05-6.56.06-13,.06-18.95V-3.92h0a2.74,2.74,0,0,0-1.44-2.85A3.12,3.12,0,0,1,322.86-9.56Zm6.42-.09c0-.1,0-.2,0-.3a2.82,2.82,0,0,0-3.1-2.48,2.74,2.74,0,0,0-2.49,2.78,2.83,2.83,0,0,0,0,.29,2.76,2.76,0,0,0,1,1.9,2.71,2.71,0,0,0,2,.6A2.88,2.88,0,0,0,329.28-9.65Z" transform="translate(147.67 150.99)"/><path class="cls-72" d="M221.41,12.84a3.76,3.76,0,0,1,1.11-2.63,3.52,3.52,0,0,1,2.65-1,3.6,3.6,0,0,1,2.56,1.28,3.71,3.71,0,0,1,.88,2.38,3.1,3.1,0,0,1-1.53,2.73,2.88,2.88,0,0,0-1.51,2.95q0,9,0,18c0,6.73,0,12.77,0,18.48A4.41,4.41,0,0,0,227,58.51c1.51,1.47,3,3,4.49,4.47s3.26,3.28,4.92,4.88A4,4,0,0,1,237.84,71v.1c0,2.21-.05,4.63-.05,7.61,0,1.56,0,3.11,0,4.67s0,3,0,4.49v8.53c0,3.54,0,6.26,0,8.79h0a5.25,5.25,0,0,0,0,.56,5.4,5.4,0,0,1,0,.56.92.92,0,0,1-.15.61.71.71,0,0,1-.47.13c-.46,0-.6-.16-.6-.67,0-.19,0-.4,0-.6a4.15,4.15,0,0,0,.05-.59c0-6.22,0-11.82,0-17.12,0-5.81,0-11.19,0-16.42h0a4.23,4.23,0,0,0-1.35-3.33c-1.58-1.53-3.16-3.12-4.69-4.65s-3.31-3.32-5-5a3.93,3.93,0,0,1-1.28-3.12c0-6.51,0-13.1,0-19.48q0-8.61,0-17.22v-.05a3.48,3.48,0,0,0-1.65-3.43,3,3,0,0,1-1.39-2.62Z" transform="translate(147.67 150.99)"/><path class="cls-73" d="M255.63,29.24a4.48,4.48,0,0,1,1.52-3.54c1.87-1.78,3.72-3.64,5.51-5.44,1.32-1.33,2.68-2.7,4-4a3.82,3.82,0,0,0,1.24-3c0-5.31,0-10.92,0-17.17q0-8.38,0-16.76h0a2.4,2.4,0,0,0-1.34-2.51,3.2,3.2,0,0,1-1.72-2.92,3.87,3.87,0,0,1,.16-1.11,3.51,3.51,0,0,1,3.38-2.51,3.51,3.51,0,0,1,3.42,2.47,3.57,3.57,0,0,1,.19,1.16,3.12,3.12,0,0,1-1.55,2.77A2.79,2.79,0,0,0,269-20.51q0,7.38,0,14.71c0,6.36,0,12.94,0,19.4a3.91,3.91,0,0,1-1.26,3.14c-1.74,1.68-3.48,3.43-5.17,5.12-1.47,1.48-3,3-4.5,4.48a4,4,0,0,0-1.32,3.12v0c0,3,0,6.25,0,10.16,0,2.7,0,5.39,0,8.08V52c0,.79-.15.93-.59.93a.56.56,0,0,1-.41-.11,1,1,0,0,1-.14-.63V51.9c0-.1,0-.19,0-.28q0-3.09,0-6.15v-5.8c0-1,0-2,0-2.93s0-2,0-2.93c0-1.69,0-3.06-.06-4.33Z" transform="translate(147.67 150.99)"/><path class="cls-74" d="M339.59-39.65a3.63,3.63,0,0,1,.23-1.25,3.36,3.36,0,0,1,3.3-2.4,3.52,3.52,0,0,1,3.45,2.44,3.88,3.88,0,0,1,.2,1.21,3.06,3.06,0,0,1-1.52,2.73,2.85,2.85,0,0,0-1.5,3v0c0,6.17,0,12.3,0,17.48V10.88c0,4.81,0,11.14,0,17.49a6.54,6.54,0,0,0,.06.72,6.32,6.32,0,0,1,.06.74c0,.64-.23.77-.64.78a.71.71,0,0,1-.52-.13.76.76,0,0,1-.16-.57h0a6.58,6.58,0,0,1,.07-.74,6,6,0,0,0,.06-.7c0-10.94,0-22.39,0-35q0-13.72,0-27.46a2.72,2.72,0,0,0-1.44-2.84A3.13,3.13,0,0,1,339.59-39.65Z" transform="translate(147.67 150.99)"/><path class="cls-75" d="M221.32-58.18a3.55,3.55,0,0,1,.19-1.15,3.45,3.45,0,0,1,3.36-2.54,3.49,3.49,0,0,1,3.42,2.47,3.92,3.92,0,0,1,.19,1.21,3.11,3.11,0,0,1-1.66,2.82,2.55,2.55,0,0,0-1.41,2.64q0,7.77,0,15.5c0,5.58,0,11.09,0,16.38a3.23,3.23,0,0,0,1.06,2.5c1.66,1.65,3.35,3.33,5,5s3.54,3.55,5.33,5.31a3,3,0,0,1,1,2.24v.1c0,.91,0,1.91,0,3.12V-.49c0,.59,0,1.18,0,1.78V6.06c0,1.28,0,2.57,0,3.85a1.08,1.08,0,0,1-.22.78.57.57,0,0,1-.42.11c-.31,0-.46-.17-.5-.91,0-.23,0-.46,0-.7V8.62c0-1.18,0-2.36,0-3.54V.87c0-2.27,0-4.14,0-5.87v0a3.63,3.63,0,0,0-1.18-2.79c-1.44-1.41-2.88-2.87-4.28-4.27-1.79-1.81-3.65-3.67-5.51-5.47a4.13,4.13,0,0,1-1.35-3.28c0-6.27,0-12.62,0-18.75q0-6.57,0-13.14h0a2.61,2.61,0,0,0-1.38-2.68A3.07,3.07,0,0,1,221.32-58.18Zm6.4-.14a2.74,2.74,0,0,0-.81-2,2.76,2.76,0,0,0-2-.81,2.81,2.81,0,0,0-2.83,2.78,2.81,2.81,0,0,0,.85,2,2.87,2.87,0,0,0,2,.84,2.87,2.87,0,0,0,2.81-2.82Z" transform="translate(147.67 150.99)"/><path class="cls-76" d="M200.5,334.71a3.07,3.07,0,0,1,1.58-2.75,2.6,2.6,0,0,0,1.39-2.66q0-6.6,0-13.15c0-6.14,0-12.49,0-18.73a4.18,4.18,0,0,1,1.34-3.31c1.86-1.8,3.72-3.66,5.51-5.47,1.4-1.4,2.85-2.86,4.28-4.27a3.64,3.64,0,0,0,1.19-2.79v-.05c0-1.73,0-3.59,0-5.87,0-1.4,0-2.8,0-4.2V255.22c0-5.36,0-11.13,0-14.59s0-9.23,0-14.58V209.81c0-1.4,0-2.8,0-4.2,0-2.28,0-4.15,0-5.87v-.06a3.67,3.67,0,0,0-1.19-2.79c-1.43-1.41-2.88-2.86-4.28-4.27-1.79-1.8-3.65-3.67-5.51-5.47a4.12,4.12,0,0,1-1.34-3.27c0-6.28,0-12.62,0-18.76q0-6.57,0-13.13h0a2.63,2.63,0,0,0-1.39-2.69,3.06,3.06,0,0,1-1.58-2.75,3.83,3.83,0,0,1,.18-1.15,3.55,3.55,0,0,1,6.78-.07,3.93,3.93,0,0,1,.2,1.21,3.11,3.11,0,0,1-1.67,2.82,2.55,2.55,0,0,0-1.41,2.64c0,5.18,0,10.32,0,15.47,0,5.59,0,11.12,0,16.41a3.24,3.24,0,0,0,1,2.51c1.67,1.65,3.35,3.33,5,5s3.54,3.55,5.32,5.31a2.89,2.89,0,0,1,1,2.24V199c0,.92,0,1.91,0,3.12,0,.71,0,1.42,0,2.13v2.13s0,13.81,0,20.37c0,5.41,0,10.65,0,13.89s0,8.48,0,13.9c0,6.56,0,20.72,0,20.72h0V277c0,.7,0,1.41,0,2.12,0,1.22,0,2.21,0,3.12v.1a2.89,2.89,0,0,1-1,2.24c-1.78,1.76-3.58,3.56-5.32,5.3s-3.31,3.32-5,5a3.21,3.21,0,0,0-1,2.49c0,5.31,0,10.83,0,16.43q0,7.72,0,15.44h0a2.58,2.58,0,0,0,1.41,2.67,3.11,3.11,0,0,1,1.67,2.82,4,4,0,0,1-.2,1.21,3.54,3.54,0,0,1-6.78-.08A3.78,3.78,0,0,1,200.5,334.71Zm6.39.14a2.79,2.79,0,0,0-4.8-2,2.75,2.75,0,0,0,2,4.74,2.77,2.77,0,0,0,2.82-2.77Zm0-188.43a2.77,2.77,0,0,0-.81-2,2.8,2.8,0,1,0-4,3.94,2.8,2.8,0,0,0,2,.84,2.85,2.85,0,0,0,2.81-2.81Z" transform="translate(147.67 150.99)"/><path class="cls-77" d="M364.38-26a3.06,3.06,0,0,1,1-2.41c1.79-1.76,3.6-3.57,5.34-5.32,1.54-1.55,3.13-3.14,4.71-4.7A3.4,3.4,0,0,0,376.59-41v0c0-2.6,0-5.37,0-8.45,0-2.89,0-5.79,0-8.68h0a2.42,2.42,0,0,0-1.1-2.27,3.39,3.39,0,0,1-1.58-2.81h0a3.73,3.73,0,0,1,.31-1.47,3.45,3.45,0,0,1,3.62-2.14,3.34,3.34,0,0,1,3.1,2.66,3.81,3.81,0,0,1,.13,1,3.19,3.19,0,0,1-2,3,2.15,2.15,0,0,0-1.4,2.37v.08c0,1.62,0,3.24,0,4.87v4.59c0,2.35,0,5.13,0,7.86v0a3.11,3.11,0,0,1-1,2.44c-1.61,1.57-3.23,3.19-4.79,4.76s-3.41,3.42-5.14,5.11a3.78,3.78,0,0,0-1.23,3v0c0,3,0,6.35,0,10.15q0,5,0,10v.87c0,.13,0,.26,0,.39s0,.26,0,.38a.86.86,0,0,1-.14.59.61.61,0,0,1-.45.11c-.43,0-.56-.17-.56-.71,0-.13,0-.27,0-.4s0-.27,0-.4c0-1.74,0-3.46,0-5.18v-8.74c0-1,0-2,0-3,0-1.88,0-3.41,0-4.81Zm15.9-37.4a2.76,2.76,0,0,0-2.81-2.78,2.77,2.77,0,0,0-2.79,2.79,2.8,2.8,0,0,0,.83,2,2.76,2.76,0,0,0,2,.8,2.76,2.76,0,0,0,2.78-2.79h0Z" transform="translate(147.67 150.99)"/><path class="cls-78" d="M243.09-39.66a3.74,3.74,0,0,1,.94-2.46,3.48,3.48,0,0,1,2.5-1.19,3.54,3.54,0,0,1,2.58,1,3.89,3.89,0,0,1,1.22,2.77,2.62,2.62,0,0,1-1.21,2.31,3.89,3.89,0,0,0-1.85,3.82V-33c0,.47,0,.94,0,1.4V-24c0,.43,0,.93-.21,1.12a.63.63,0,0,1-.45.1c-.32,0-.46-.14-.46-.76v-.23a1.93,1.93,0,0,0,0-.24c0-.74,0-1.47,0-2.19,0-1.39,0-2.78,0-4.17,0-1.07,0-2.14,0-3.2v-.25A3.23,3.23,0,0,0,244.51-37a3,3,0,0,1-1.42-2.64Z" transform="translate(147.67 150.99)"/><path class="cls-79" d="M76.61,248a6.49,6.49,0,0,1,.06-.75q0-.27.06-.51v-4.33l-.06-.54a6.5,6.5,0,0,1-.06-.74,1,1,0,0,1,.08-.48l0-.07v-.08c0-10.61,0-21,0-30.73V172.35c0-9.23,0-20.17,0-31.27A4,4,0,0,1,78,138c4-3.95,8-8,11.93-11.9L100,116a4.27,4.27,0,0,0,1.4-3.27v0c0-4.18,0-8.56,0-13.38q0-6.57,0-13.16v0A2.72,2.72,0,0,0,100,83.29a3.14,3.14,0,0,1-1.62-2.81,3.6,3.6,0,0,1,.23-1.26,3.44,3.44,0,0,1,3.35-2.38,3.54,3.54,0,0,1,3.42,2.48,3.72,3.72,0,0,1,.18,1.14A3.09,3.09,0,0,1,104,83.25a2.81,2.81,0,0,0-1.48,2.93v.08c0,3.79,0,7.57,0,11.36,0,5.09,0,10.36,0,15.55v0a4,4,0,0,1-1.27,3.1c-3.72,3.68-7.48,7.45-11.12,11.09s-7.28,7.27-10.93,10.89a4.42,4.42,0,0,0-1.42,3.47c0,16.49,0,33.56,0,50.73q0,24,0,48v.08l0,.08a1.11,1.11,0,0,1,.08.5,6.86,6.86,0,0,1-.06.75c0,.2,0,.41-.06.59v4.07c0,.2,0,.4.06.61a6.67,6.67,0,0,1,.06.75,1.13,1.13,0,0,1-.08.5l0,.07v.08q0,24,0,48c0,17.17,0,34.23,0,50.72a4.41,4.41,0,0,0,1.42,3.47c3.65,3.62,7.36,7.33,10.93,10.91s7.4,7.4,11.12,11.08a4,4,0,0,1,1.27,3.1v0c0,5.18,0,10.45,0,15.55,0,3.78,0,7.57,0,11.35v.08a2.82,2.82,0,0,0,1.48,2.94,3.07,3.07,0,0,1,1.55,2.78,3.74,3.74,0,0,1-.18,1.15,3.53,3.53,0,0,1-3.42,2.47,3.42,3.42,0,0,1-3.35-2.37,3.65,3.65,0,0,1-.23-1.26,3.17,3.17,0,0,1,1.62-2.82,2.71,2.71,0,0,0,1.45-2.79v0q0-6.57,0-13.16c0-4.82,0-9.19,0-13.37v0a4.25,4.25,0,0,0-1.4-3.26c-3.39-3.36-6.82-6.79-10.13-10.11C86,359.06,81.94,355,78,351.08A4,4,0,0,1,76.68,348c0-11.11,0-22,0-31.29V279.31c0-9.69,0-20.12,0-30.73v-.08l0-.08A1,1,0,0,1,76.61,248Z" transform="translate(147.67 150.99)"/><path class="cls-80" d="M167.07,356.94c0-12.37,0-24.66,0-35.05V292.48q0-24,0-48v-.07a1.54,1.54,0,0,1,0-.4c0-.17,0-.35,0-.52s0-.24,0-.36v-4.92c0-.13,0-.25,0-.38s0-.34,0-.51a1.54,1.54,0,0,1,0-.4v-.08q0-24,0-48V159.38c0-10.39,0-22.69,0-35a4.54,4.54,0,0,1,1.52-3.61c1.81-1.74,3.61-3.54,5.35-5.29,1.37-1.37,2.79-2.79,4.2-4.17a3.63,3.63,0,0,0,1.19-2.79v-.06c0-1.73,0-3.51,0-5.42,0-2.12,0-4.38,0-6.91v0a2.22,2.22,0,0,0-1.2-2.18,3.43,3.43,0,0,1-1.85-3,3.71,3.71,0,0,1,.15-1,3.54,3.54,0,0,1,6.83-.11,3.77,3.77,0,0,1,.18,1.14,3.32,3.32,0,0,1-1.74,2.89,2.38,2.38,0,0,0-1.22,2.36v1.77c0,1.11,0,2.22,0,3.33s0,2.22,0,3.33c0,1.59,0,2.91,0,4.14v.09a3.74,3.74,0,0,1-1.24,2.9c-1.37,1.33-2.74,2.72-4.07,4.05-1.69,1.71-3.44,3.47-5.21,5.16a5.19,5.19,0,0,0-1.74,4.08c0,21.58,0,43.47,0,63.91V228.6c0,2.72,0,5.45,0,8.17v.09a1.34,1.34,0,0,1,0,.38c0,.18,0,.37,0,.56l0,.21v5.22l0,.24c0,.19,0,.38,0,.56a1.38,1.38,0,0,1,0,.38v.08c0,2.73,0,5.45,0,8.18v39.69c0,20.44,0,42.33,0,63.89a5.22,5.22,0,0,0,1.74,4.1c1.77,1.69,3.52,3.45,5.21,5.15,1.33,1.34,2.7,2.72,4.07,4.06a3.72,3.72,0,0,1,1.24,2.89v.1c0,1.23,0,2.54,0,4.14,0,1.11,0,2.22,0,3.33s0,2.22,0,3.33v1.77a2.38,2.38,0,0,0,1.22,2.36,3.32,3.32,0,0,1,1.74,2.89,3.87,3.87,0,0,1-.18,1.14,3.54,3.54,0,0,1-6.83-.12,3.6,3.6,0,0,1-.15-1,3.43,3.43,0,0,1,1.85-2.95,2.23,2.23,0,0,0,1.2-2.18v-.05c0-2.53,0-4.79,0-6.92,0-1.91,0-3.68,0-5.42v-.05a3.6,3.6,0,0,0-1.19-2.79c-1.41-1.38-2.82-2.8-4.19-4.17-1.75-1.75-3.55-3.56-5.36-5.3a4.49,4.49,0,0,1-1.52-3.58Zm15.62,33.45a2.83,2.83,0,0,0-.9-2,2.78,2.78,0,0,0-2-.74,2.84,2.84,0,0,0-2.74,2.79v.1a2.87,2.87,0,0,0,2.93,2.71,2.83,2.83,0,0,0,2.72-2.8Zm0-299.61A2.83,2.83,0,0,0,180,88a2.87,2.87,0,0,0-2.93,2.7v.1a2.85,2.85,0,0,0,2.74,2.8,2.82,2.82,0,0,0,2.91-2.7Z" transform="translate(147.67 150.99)"/><path class="cls-81" d="M77.94,52.48a3.7,3.7,0,0,1,1.2-2.94c1.87-1.81,3.74-3.69,5.54-5.5,1.44-1.44,2.92-2.93,4.4-4.37A3.44,3.44,0,0,0,90.18,37q0-9.73,0-19.42,0-8.91,0-17.81a2.43,2.43,0,0,0-1.34-2.51,3.25,3.25,0,0,1-1.7-2.9,3.72,3.72,0,0,1,.18-1.14,3.55,3.55,0,0,1,3.42-2.48,3.41,3.41,0,0,1,3.34,2.37,3.5,3.5,0,0,1,.24,1.28,3.13,3.13,0,0,1-1.6,2.79A2.7,2.7,0,0,0,91.28,0V17.56c0,6,0,12.39.06,19v.07a5.36,5.36,0,0,1-1.86,4.31C87.7,42.57,86,44.33,84.26,46,83,47.33,81.65,48.67,80.32,50A4,4,0,0,0,79,53.11c0,12,0,24.08,0,34.26v21.2c0,.56,0,1.11,0,1.66s-.37.67-.49.68a.53.53,0,0,1-.4-.11.85.85,0,0,1-.18-.62c0-.62,0-1.23,0-1.84V66.85c0-5.8,0-10.22,0-14.33ZM93.51-5.69A2.73,2.73,0,0,0,91-8.47,2.82,2.82,0,0,0,87.92-6a2.83,2.83,0,0,0,0,.29,2.88,2.88,0,0,0,2.53,2.8,2.75,2.75,0,0,0,2-.6,2.76,2.76,0,0,0,1-1.9C93.5-5.5,93.51-5.6,93.51-5.69Z" transform="translate(147.67 150.99)"/><path class="cls-82" d="M98.37,248c0-.18,0-.38,0-.58a2.45,2.45,0,0,1,0-.27V241.9c0-.12,0-.21,0-.31a5.65,5.65,0,0,1,0-.58,1.34,1.34,0,0,1,0-.38l0,0v-.06c0-3,0-6,0-9V207.63c0-3.73,0-8.65,0-13.67a3.33,3.33,0,0,1,1.08-2.65c1.79-1.74,3.58-3.53,5.31-5.27,1.51-1.51,3.08-3.08,4.63-4.6a3.62,3.62,0,0,0,1.22-2.8q0-8,0-16,0-10.63,0-21.27a2.53,2.53,0,0,0-1.37-2.51A3.36,3.36,0,0,1,107.6,136a3.45,3.45,0,0,1,.19-1.11,3.66,3.66,0,0,1,3.46-2.45,3.44,3.44,0,0,1,3.31,2.43,3.7,3.7,0,0,1,.22,1.22,3.23,3.23,0,0,1-1.67,2.83,2.66,2.66,0,0,0-1.4,2.66c0,5.25,0,10.48,0,15.72,0,7.05,0,14.35,0,21.53a4.07,4.07,0,0,1-1.39,3.27c-1.67,1.61-3.33,3.28-4.93,4.89s-3.07,3.08-4.62,4.59a4.18,4.18,0,0,0-1.35,3.3c0,8.15,0,16.6,0,25.83q0,9.93,0,19.84v.06l0,.06a1.15,1.15,0,0,1,.06.41,5.85,5.85,0,0,1,0,.59c0,.14,0,.27,0,.4v5c0,.14,0,.28,0,.41s0,.41,0,.6a1.18,1.18,0,0,1-.06.41l0,.05v.06q0,9.93,0,19.84c0,9.24,0,17.68,0,25.82a4.21,4.21,0,0,0,1.35,3.32c1.55,1.51,3.11,3.07,4.61,4.58s3.27,3.28,4.94,4.89a4.08,4.08,0,0,1,1.39,3.24c0,7.22,0,14.51,0,21.57q0,7.85,0,15.7a2.65,2.65,0,0,0,1.4,2.67,3.26,3.26,0,0,1,1.67,2.84,3.7,3.7,0,0,1-.22,1.22,3.43,3.43,0,0,1-3.31,2.42,3.64,3.64,0,0,1-3.46-2.44,3.5,3.5,0,0,1-.19-1.11,3.39,3.39,0,0,1,1.68-2.95,2.51,2.51,0,0,0,1.37-2.49q0-10.67,0-21.29,0-8,0-16a3.61,3.61,0,0,0-1.22-2.81c-1.55-1.52-3.11-3.09-4.62-4.6-1.74-1.74-3.53-3.54-5.32-5.28a3.3,3.3,0,0,1-1.08-2.62c0-5,0-10,0-13.7V257.52c0-3,0-6,0-9v-.05l0,0A1.41,1.41,0,0,1,98.37,248ZM114,353.08a2.7,2.7,0,0,0-2.77-2.79,2.78,2.78,0,0,0-2.84,2.76v0a2.86,2.86,0,0,0,2.8,2.79,2.77,2.77,0,0,0,2.81-2.79Zm0-217.14a2.77,2.77,0,0,0-.83-2,2.73,2.73,0,0,0-2-.8,2.88,2.88,0,0,0-2.8,2.8v0a2.77,2.77,0,0,0,2.84,2.75,2.7,2.7,0,0,0,2.77-2.79Z" transform="translate(147.67 150.99)"/><path class="cls-83" d="M167,106.42c0-.17,0-.37,0-.55a5.32,5.32,0,0,0,0-.54c0-2.55,0-5.24,0-8.77V88c0-1.51,0-3,0-4.53V78.81c0-3,0-5.39,0-7.6v-.09a4,4,0,0,1,1.39-3.18c1.66-1.6,3.32-3.27,4.92-4.88s3-3,4.5-4.47a4.4,4.4,0,0,0,1.48-3.43c0-5.72,0-11.76,0-18.47q0-9,0-18h0a2.92,2.92,0,0,0-1.51-3,3.08,3.08,0,0,1-1.53-2.73h0a3.7,3.7,0,0,1,.88-2.37,3.56,3.56,0,0,1,2.57-1.28,3.48,3.48,0,0,1,2.64,1,3.69,3.69,0,0,1,1.11,2.63A3,3,0,0,1,182,15.54,3.45,3.45,0,0,0,180.39,19V19q0,8.61,0,17.21c0,6.38,0,13,0,19.46a4,4,0,0,1-1.29,3.15c-1.69,1.63-3.37,3.31-5,4.95s-3.11,3.12-4.69,4.65a4.21,4.21,0,0,0-1.36,3.29c0,5.29,0,10.67,0,16.5,0,5.3,0,10.89,0,17.07h0c0,.19,0,.39,0,.59s0,.41,0,.6c0,.51-.14.67-.6.67a.66.66,0,0,1-.47-.13A.88.88,0,0,1,167,106.42Z" transform="translate(147.67 150.99)"/><path class="cls-84" d="M138.46-26a3.85,3.85,0,0,1,.18-1.16,3.53,3.53,0,0,1,3.43-2.47,3.52,3.52,0,0,1,3.38,2.51,4.25,4.25,0,0,1,.16,1.11,3.16,3.16,0,0,1-1.73,2.91,2.41,2.41,0,0,0-1.34,2.5q0,8.43,0,16.82c0,6.23,0,11.82,0,17.1a3.87,3.87,0,0,0,1.25,3c1.36,1.32,2.72,2.7,4,4,1.79,1.8,3.64,3.66,5.51,5.44a4.46,4.46,0,0,1,1.52,3.53v.25c0,1.27-.06,2.65-.06,4.34,0,1,0,2,0,2.92s0,2,0,2.92v5.87q0,3,0,6.06h0V52a2.53,2.53,0,0,1,0,.28,1,1,0,0,1-.14.62.59.59,0,0,1-.42.12c-.43,0-.59-.14-.59-.93V48c0-2.72,0-5.45,0-8.18,0-3.92,0-7.16,0-10.19v0a4,4,0,0,0-1.32-3.11c-1.52-1.48-3-3-4.51-4.48-1.68-1.69-3.42-3.44-5.17-5.13a3.9,3.9,0,0,1-1.26-3.1c0-6.49,0-13.06,0-19.41q0-7.35,0-14.71h0A2.8,2.8,0,0,0,140-23.24,3.12,3.12,0,0,1,138.46-26Z" transform="translate(147.67 150.99)"/><path class="cls-85" d="M75-35.69a3.57,3.57,0,0,1,.2-1.21,3.5,3.5,0,0,1,3.44-2.44A3.37,3.37,0,0,1,82-36.94a3.58,3.58,0,0,1,.22,1.25,3.12,3.12,0,0,1-1.62,2.81,2.7,2.7,0,0,0-1.44,2.82q0,13.69,0,27.36c0,12.63,0,24.12,0,35.12a6.18,6.18,0,0,0,.06.71,4.86,4.86,0,0,1,.07.74.78.78,0,0,1-.15.56.71.71,0,0,1-.53.13c-.41,0-.63-.14-.63-.78A6.5,6.5,0,0,1,78,33c0-.25,0-.49,0-.71,0-6.39,0-12.73,0-17.55V-12.49c0-5.17,0-11.28,0-17.47V-30a2.87,2.87,0,0,0-1.5-3A3,3,0,0,1,75-35.69Z" transform="translate(147.67 150.99)"/><path class="cls-86" d="M110.27,524.72a3,3,0,0,1,1.52-2.73,2.85,2.85,0,0,0,1.5-3v0c0-6.19,0-12.31,0-17.47V474.25c0-4.82,0-11.17,0-17.55h0a6.23,6.23,0,0,0-.05-.72,6.32,6.32,0,0,1-.06-.74c0-.64.22-.77.63-.78a.75.75,0,0,1,.53.13.81.81,0,0,1,.15.57,6.5,6.5,0,0,1-.06.74,4.48,4.48,0,0,0-.07.7c0,11,0,22.49,0,35.13q0,13.66,0,27.34a2.72,2.72,0,0,0,1.44,2.84,3.13,3.13,0,0,1,1.63,2.81,3.63,3.63,0,0,1-.23,1.25,3.38,3.38,0,0,1-3.31,2.4,3.52,3.52,0,0,1-3.44-2.44A3.61,3.61,0,0,1,110.27,524.72Z" transform="translate(147.67 150.99)"/><path class="cls-87" d="M110.27-35.69a3.57,3.57,0,0,1,.2-1.21,3.51,3.51,0,0,1,3.44-2.44,3.37,3.37,0,0,1,3.31,2.4,3.59,3.59,0,0,1,.23,1.25,3.13,3.13,0,0,1-1.63,2.81,2.7,2.7,0,0,0-1.44,2.82q0,13.69,0,27.36c0,12.63,0,24.12,0,35.12a4.6,4.6,0,0,0,.07.71,6.5,6.5,0,0,1,.06.74.78.78,0,0,1-.15.56.71.71,0,0,1-.53.13c-.41,0-.63-.14-.63-.78a6.5,6.5,0,0,1,.06-.74,6.07,6.07,0,0,0,.05-.71c0-6.39,0-12.73,0-17.55V-12.49c0-5.17,0-11.28,0-17.47V-30a2.87,2.87,0,0,0-1.5-3,3,3,0,0,1-1.52-2.72Z" transform="translate(147.67 150.99)"/><path class="cls-88" d="M198.8,524.72a3.06,3.06,0,0,1,1.52-2.73,2.85,2.85,0,0,0,1.5-3v0c0-6.19,0-12.31,0-17.47V474.25c0-4.82,0-11.17,0-17.55h0a6.23,6.23,0,0,0,0-.72,6.32,6.32,0,0,1-.06-.74c0-.64.22-.77.63-.78a.75.75,0,0,1,.53.13.81.81,0,0,1,.15.57,6.5,6.5,0,0,1-.06.74,4.48,4.48,0,0,0-.07.7c0,11,0,22.49,0,35.13q0,13.66,0,27.34a2.72,2.72,0,0,0,1.44,2.84,3.13,3.13,0,0,1,1.63,2.81,3.63,3.63,0,0,1-.23,1.25,3.38,3.38,0,0,1-3.31,2.4,3.52,3.52,0,0,1-3.44-2.44A3.88,3.88,0,0,1,198.8,524.72Z" transform="translate(147.67 150.99)"/><path class="cls-89" d="M198.8-35.69a3.84,3.84,0,0,1,.2-1.21,3.51,3.51,0,0,1,3.44-2.44,3.37,3.37,0,0,1,3.31,2.4,3.59,3.59,0,0,1,.23,1.25,3.13,3.13,0,0,1-1.63,2.81,2.7,2.7,0,0,0-1.44,2.82q0,13.69,0,27.36c0,12.63,0,24.12,0,35.12a4.6,4.6,0,0,0,.07.71,6.5,6.5,0,0,1,.06.74.78.78,0,0,1-.15.56.71.71,0,0,1-.53.13c-.41,0-.63-.14-.63-.78a6.5,6.5,0,0,1,.06-.74,6.07,6.07,0,0,0,0-.71c0-6.39,0-12.73,0-17.55V-12.49c0-5.17,0-11.28,0-17.47V-30a2.87,2.87,0,0,0-1.5-3,3,3,0,0,1-1.52-2.72Z" transform="translate(147.67 150.99)"/><path class="cls-90" d="M294,524.72a3.06,3.06,0,0,1,1.52-2.73,2.84,2.84,0,0,0,1.5-3v0c0-6.19,0-12.31,0-17.47V474.25c0-4.82,0-11.17,0-17.55h0A6.35,6.35,0,0,0,297,456a6.32,6.32,0,0,1-.06-.74c0-.64.22-.77.64-.78a.72.72,0,0,1,.52.13.81.81,0,0,1,.15.57,6.5,6.5,0,0,1-.06.74,6.14,6.14,0,0,0-.07.7c0,11,0,22.49,0,35.13q0,13.66,0,27.34a2.72,2.72,0,0,0,1.44,2.84,3.13,3.13,0,0,1,1.63,2.81A3.63,3.63,0,0,1,301,526a3.38,3.38,0,0,1-3.3,2.4,3.52,3.52,0,0,1-3.45-2.44A3.88,3.88,0,0,1,294,524.72Z" transform="translate(147.67 150.99)"/><path class="cls-91" d="M294-35.69a3.84,3.84,0,0,1,.2-1.21,3.51,3.51,0,0,1,3.45-2.44,3.37,3.37,0,0,1,3.3,2.4,3.59,3.59,0,0,1,.23,1.25,3.13,3.13,0,0,1-1.63,2.81,2.7,2.7,0,0,0-1.44,2.82q0,13.69,0,27.36c0,12.63,0,24.12,0,35.12a6.3,6.3,0,0,0,.07.71,6.5,6.5,0,0,1,.06.74.78.78,0,0,1-.15.56.68.68,0,0,1-.52.13c-.42,0-.64-.14-.64-.78A6.5,6.5,0,0,1,297,33a6.18,6.18,0,0,0,.06-.71c0-6.39,0-12.73,0-17.55V-12.49c0-5.17,0-11.28,0-17.47V-30a2.86,2.86,0,0,0-1.5-3A3,3,0,0,1,294-35.69Z" transform="translate(147.67 150.99)"/><path class="cls-92" d="M167.08-5.76a2.92,2.92,0,0,1,1-2.24c1.79-1.76,3.59-3.57,5.33-5.31s3.31-3.32,5-5a3.24,3.24,0,0,0,1.06-2.49c0-5.28,0-10.77,0-16.34q0-7.77,0-15.53h0A2.57,2.57,0,0,0,178-55.3a3.11,3.11,0,0,1-1.67-2.82h0a4,4,0,0,1,.2-1.21A3.49,3.49,0,0,1,180-61.8a3.49,3.49,0,0,1,3.37,2.55,3.78,3.78,0,0,1,.18,1.15,3.09,3.09,0,0,1-1.58,2.75,2.6,2.6,0,0,0-1.39,2.66q0,6.6,0,13.15c0,6.14,0,12.48,0,18.73a4.12,4.12,0,0,1-1.35,3.3c-1.86,1.8-3.71,3.67-5.5,5.47-1.4,1.41-2.85,2.86-4.29,4.28A3.66,3.66,0,0,0,168.26-5v.06c0,1.73,0,3.59,0,5.87,0,1.4,0,2.8,0,4.2,0,1.19,0,2.37,0,3.55v.58c0,.23,0,.46,0,.69,0,.74-.19.88-.49.9a.51.51,0,0,1-.43-.11,1.1,1.1,0,0,1-.22-.77c0-1.28,0-2.55,0-3.83V1.35h0c0-.59,0-1.18,0-1.77s0-1.41,0-2.12c0-1.22,0-2.21,0-3.13Zm15.68-52.47A2.82,2.82,0,0,0,179.94-61a2.83,2.83,0,0,0-2,.82,2.72,2.72,0,0,0-.8,2,2.86,2.86,0,0,0,2.8,2.82,2.86,2.86,0,0,0,2-.85,2.8,2.8,0,0,0,.84-2Z" transform="translate(147.67 150.99)"/><path class="cls-93" d="M42.11-59.29a4,4,0,0,1,.14-1,3.33,3.33,0,0,1,3.09-2.65A3.44,3.44,0,0,1,49-60.81a3.7,3.7,0,0,1,.31,1.47,3.39,3.39,0,0,1-1.57,2.81,2.4,2.4,0,0,0-1.1,2.24q0,4.36,0,8.68c0,3.1,0,5.87,0,8.48v0a3.4,3.4,0,0,0,1.13,2.62c1.58,1.55,3.17,3.15,4.71,4.7C54.17-28,56-26.21,57.77-24.46a3.09,3.09,0,0,1,1,2.41V-22c0,1.41,0,2.94,0,4.83v3c0,1,0,2,0,3V-5.4c0,1.73,0,3.45,0,5.18h0c0,.14,0,.28,0,.42s0,.27,0,.4c0,.54-.12.7-.56.71a.58.58,0,0,1-.44-.11c-.1-.09-.14-.28-.14-.59,0-.13,0-.26,0-.38s0-.27,0-.39V-1c0-3.32,0-6.65,0-10,0-3.79,0-7.11,0-10.14v0a3.82,3.82,0,0,0-1.22-3c-1.73-1.68-3.47-3.43-5.15-5.11S48.14-32.46,46.54-34a3.11,3.11,0,0,1-1-2.44v0c0-2.73,0-5.5,0-7.85v-4.55c0-1.64,0-3.28,0-4.92v-.08a2.15,2.15,0,0,0-1.39-2.37A3.21,3.21,0,0,1,42.11-59.29Zm6.38-.14a2.77,2.77,0,0,0-2.78-2.8,2.78,2.78,0,0,0-2.82,2.78,2.78,2.78,0,0,0,2.78,2.82,2.76,2.76,0,0,0,2.82-2.78Z" transform="translate(147.67 150.99)"/><path class="cls-94" d="M117,276.86a3.24,3.24,0,0,1,1.69-2.91,2.47,2.47,0,0,0,1.36-2.59v-.09c0-2.66,0-5.33,0-8V218c0-2.67,0-5.33,0-8v-.08a2.46,2.46,0,0,0-1.36-2.59A3.24,3.24,0,0,1,117,204.4h0a4,4,0,0,1,.17-1.13,3.56,3.56,0,0,1,3.41-2.47,3.4,3.4,0,0,1,3.34,2.35,3.6,3.6,0,0,1,.24,1.29,3.13,3.13,0,0,1-1.59,2.78,2.76,2.76,0,0,0-1.44,2.79c0,5.17,0,10.64,0,17.76V253.5c0,7.12,0,12.59,0,17.73A2.76,2.76,0,0,0,122.6,274a3.16,3.16,0,0,1,1.59,2.79,3.64,3.64,0,0,1-.24,1.29,3.41,3.41,0,0,1-3.34,2.35A3.57,3.57,0,0,1,117.2,278,4.09,4.09,0,0,1,117,276.86Z" transform="translate(147.67 150.99)"/><path class="cls-95" d="M154.15-39.52a3.89,3.89,0,0,1,1.22-2.76,3.47,3.47,0,0,1,2.58-.95,3.48,3.48,0,0,1,2.5,1.19,3.74,3.74,0,0,1,.94,2.46A3,3,0,0,1,160-36.94a3.23,3.23,0,0,0-1.65,3.23v.24c0,1,0,2,0,3.22,0,1.39,0,2.77,0,4.16,0,.72,0,2.17,0,2.17a1.85,1.85,0,0,0,0,.25v.24c0,.62-.14.73-.46.76a.58.58,0,0,1-.45-.11c-.2-.18-.2-.69-.2-1.09,0-.78,0-5,0-5v-2.65c0-.46,0-.93,0-1.39v-.5a3.87,3.87,0,0,0-1.85-3.82,2.63,2.63,0,0,1-1.21-2.32Z" transform="translate(147.67 150.99)"/><path class="cls-96" d="M274.64,447.22v67.34a120.72,120.72,0,0,1-14.76-4.34c-3.72-1.39-7.32-2.65-10.83-3.77V447.22Z" transform="translate(147.67 150.99)"/><path class="cls-97" d="M240.19,472.81v31.06a134.18,134.18,0,0,0-17.72-3.47V472.81Z" transform="translate(147.67 150.99)"/><path class="cls-98" d="M303.19,476.75v29.56c-6.16,2.19-13.26,4.82-21.66,7.9V476.75Z" transform="translate(147.67 150.99)"/><path class="cls-99" d="M358.67,516.63a20.3,20.3,0,0,1,5.45-9c4.18-3.85,7.38-15.72,12.52-12.84s.32,12.52-6.42,15.73-11.55,14.11-11.55,14.11Z" transform="translate(147.67 150.99)"/><path class="cls-100" d="M358.28,510.54a15.68,15.68,0,0,0-4.16-7.28,42.25,42.25,0,0,1-7.28-8.67c-2.08-3.12-5.55-2.08-6.24.7s-.34,5.89,4.16,9.35,12.48,8.67,13.52,11.79Z" transform="translate(147.67 150.99)"/><path class="cls-101" d="M357.22,544v-4.87s-.58,0-2.3-3.73-1.43-2.87-4-6.88-2-10.33-6.31-10.62-4,4-2.87,6.89,3.73,5.73,9.18,9.46C355.27,537.22,357.22,544,357.22,544Z" transform="translate(147.67 150.99)"/><path class="cls-102" d="M359.76,545.44v-5.25s.92-.24,2.77-4.62,1.55-2.78,2.78-8.33c1.19-5.35.93-11.11,7.1-12.34,4.55-.91,4.93,4.65,3.7,8s-3.7,5.79-9.57,10.18C361.85,536.61,359.76,545.44,359.76,545.44Z" transform="translate(147.67 150.99)"/><path class="cls-103" d="M360,482.76a42.39,42.39,0,0,1,3.4-4.83c1.71-2,3.69-7.65,6.24-7.09s1.71,5.11-1.13,8.23S360,490.42,360,490.42Z" transform="translate(147.67 150.99)"/><path class="cls-104" d="M355.68,476.64s-6-8.51-9.65-6.25,1.41,8.07,4,9.93a53.32,53.32,0,0,1,5.67,4.83Z" transform="translate(147.67 150.99)"/><path class="cls-105" d="M361.33,465.17l-1.45,91.48a1.67,1.67,0,0,1-3.34,0l-1.45-91.48a3.12,3.12,0,1,1,6.24-.1Z" transform="translate(147.67 150.99)"/><path class="cls-106" d="M84.44,547.35a18.38,18.38,0,0,1,4.93-8.12c3.77-3.47,6.67-14.2,11.3-11.59s.29,11.3-5.79,14.2S84.44,554.6,84.44,554.6Z" transform="translate(147.67 150.99)"/><path class="cls-107" d="M84.09,541.84a14.15,14.15,0,0,0-3.76-6.57,38,38,0,0,1-6.57-7.83c-1.88-2.82-5-1.88-5.64.63s-.31,5.32,3.76,8.45,11.27,7.83,12.21,10.64Z" transform="translate(147.67 150.99)"/><path class="cls-108" d="M83.13,572.06v-4.41s-.52,0-2.07-3.37-1.3-2.59-3.63-6.21-1.81-9.33-5.7-9.59-3.63,3.63-2.59,6.22,3.37,5.18,8.29,8.55C81.37,565.94,83.13,572.06,83.13,572.06Z" transform="translate(147.67 150.99)"/><path class="cls-109" d="M85.43,573.37v-4.74s.83-.22,2.5-4.18,1.4-2.51,2.51-7.52c1.08-4.83.84-10,6.41-11.15,4.11-.82,4.46,4.2,3.35,7.25s-3.35,5.23-8.64,9.19C87.32,565.39,85.43,573.37,85.43,573.37Z" transform="translate(147.67 150.99)"/><path class="cls-110" d="M85.67,516.75a38.62,38.62,0,0,1,3.08-4.36c1.53-1.79,3.33-6.91,5.63-6.4s1.54,4.61-1,7.43-7.69,10.25-7.69,10.25Z" transform="translate(147.67 150.99)"/><path class="cls-111" d="M81.74,511.22s-5.38-7.69-8.71-5.64,1.27,7.29,3.59,9a47.94,47.94,0,0,1,5.12,4.36Z" transform="translate(147.67 150.99)"/><path class="cls-112" d="M86.84,500.86l-1.3,82.64a1.51,1.51,0,0,1-3,0l-1.31-82.64a2.82,2.82,0,1,1,5.63-.09A.14.14,0,0,1,86.84,500.86Z" transform="translate(147.67 150.99)"/><ellipse class="cls-113" cx="564.8" cy="669.68" rx="21" ry="29.42"/><path class="cls-5" d="M417.56,495.18c.05,1.47.07,2.95.11,4.42l.06,4.43c0,3,0,5.91,0,8.86s0,5.91,0,8.86l-.06,4.43c0,1.48-.06,3-.11,4.43-.05-1.47-.07-3-.1-4.43l-.07-4.43c0-3,0-5.9-.05-8.86s0-5.9.05-8.86l.07-4.43C417.49,498.13,417.51,496.65,417.56,495.18Z" transform="translate(147.67 150.99)"/><path class="cls-5" d="M409.91,499.55c.67.63,1.32,1.29,2,1.93l2,2c1.3,1.31,2.58,2.64,3.86,4h-.31q1.9-1.91,3.84-3.77l1.95-1.86c.66-.61,1.31-1.23,2-1.83-.6.67-1.22,1.32-1.83,2l-1.86,1.95c-1.24,1.29-2.51,2.57-3.77,3.84l-.16.16-.16-.16c-1.27-1.34-2.54-2.68-3.79-4-.63-.68-1.25-1.37-1.87-2.05S410.51,500.25,409.91,499.55Z" transform="translate(147.67 150.99)"/><path class="cls-5" d="M409.91,507.21c.67.63,1.32,1.28,2,1.93l2,2c1.3,1.31,2.58,2.64,3.86,4h-.31q1.9-1.91,3.84-3.78l1.95-1.86c.66-.61,1.31-1.23,2-1.83-.6.67-1.22,1.32-1.83,2s-1.24,1.31-1.86,1.95c-1.24,1.3-2.51,2.57-3.77,3.85l-.16.15-.16-.16c-1.27-1.34-2.54-2.68-3.79-4-.63-.68-1.25-1.36-1.87-2.05S410.51,507.91,409.91,507.21Z" transform="translate(147.67 150.99)"/><path class="cls-5" d="M409.91,514.86l2,1.93,2,2c1.3,1.31,2.58,2.64,3.86,4h-.31c1.27-1.26,2.55-2.53,3.84-3.77l1.95-1.86c.66-.61,1.31-1.23,2-1.83-.6.67-1.22,1.32-1.83,2l-1.86,2c-1.24,1.29-2.51,2.57-3.77,3.84l-.16.16-.16-.16c-1.27-1.34-2.54-2.68-3.79-4-.63-.68-1.25-1.36-1.87-2S410.51,515.57,409.91,514.86Z" transform="translate(147.67 150.99)"/><ellipse class="cls-114" cx="403.78" cy="534" rx="21" ry="29.42" transform="translate(-39.32 370.06) rotate(-24.84)"/><path class="cls-5" d="M394.3,512.48c.66,1.32,1.3,2.65,2,4l1.91,4c1.28,2.66,2.51,5.35,3.77,8s2.47,5.36,3.68,8.06l1.8,4c.59,1.36,1.19,2.71,1.77,4.07-.67-1.32-1.31-2.65-2-4l-1.92-4c-1.27-2.67-2.51-5.35-3.77-8s-2.46-5.37-3.67-8.06l-1.81-4.05C395.47,515.19,394.87,513.84,394.3,512.48Z" transform="translate(147.67 150.99)"/><path class="cls-5" d="M389.19,519.67c.88.29,1.74.61,2.62.91s1.73.63,2.6,1c1.73.64,3.45,1.31,5.17,2l-.28.13q.93-2.53,1.9-5c.32-.84.65-1.67,1-2.51s.67-1.66,1-2.49c-.27.86-.56,1.71-.83,2.57l-.87,2.55c-.59,1.69-1.2,3.38-1.81,5.07l-.08.21-.21-.08c-1.71-.68-3.43-1.37-5.14-2.07l-2.55-1.08C390.88,520.41,390,520.05,389.19,519.67Z" transform="translate(147.67 150.99)"/><path class="cls-5" d="M392.41,526.61l2.61.92,2.61,1q2.6,1,5.17,2l-.28.13q.93-2.54,1.9-5c.32-.84.65-1.68,1-2.51s.67-1.67,1-2.49c-.26.86-.55,1.71-.83,2.56s-.57,1.71-.86,2.55c-.59,1.7-1.2,3.39-1.81,5.08l-.08.21-.21-.09q-2.58-1-5.14-2.07l-2.56-1.07C394.1,527.36,393.25,527,392.41,526.61Z" transform="translate(147.67 150.99)"/><path class="cls-5" d="M395.62,533.56c.88.29,1.75.61,2.62.92l2.6.95q2.6,1,5.18,2l-.29.12c.63-1.68,1.25-3.36,1.9-5l1-2.5c.34-.83.67-1.67,1-2.49-.26.86-.55,1.71-.83,2.56s-.57,1.7-.87,2.55c-.58,1.7-1.19,3.39-1.81,5.07l-.07.21-.21-.08c-1.72-.68-3.44-1.36-5.14-2.07l-2.56-1.07C397.32,534.3,396.46,534,395.62,533.56Z" transform="translate(147.67 150.99)"/><path class="cls-115" d="M312,650.16C312,620.8,290,597,262.78,597c-15.72,0-29.71,8-38.72,20.37-2.07-.13-4.16-.22-6.28-.22-42.09,0-76.21,27.76-76.21,62s34.12,62,76.21,62c36.31,0,66.67-20.67,74.33-48.32C304.18,683.17,312,667.65,312,650.16Z" transform="translate(147.67 150.99)"/><path class="cls-116" d="M143.52,637.73s51.7,10.48,153.84-49.76,104.76-62.85,138.81-57.62,13.09,120.48,13.09,120.48S26.35,674.4,143.52,637.73Z" transform="translate(147.67 150.99)"/><path class="cls-117" d="M149.88,660.66A68.17,68.17,0,0,1,32.64,694.05a78.64,78.64,0,0,1-52.52,8.28A79,79,0,0,1-82.81,610,79,79,0,0,1,9.48,547.11a78.76,78.76,0,0,1,52.46,36,68.19,68.19,0,0,1,87.94,77.55Z" transform="translate(147.67 150.99)"/><path class="cls-118" d="M337.66,156.83v0a2,2,0,0,1-2,2H219.14a2,2,0,0,1-1.9-1.35,16.94,16.94,0,0,1,26.64-18.74c0-.53,0-1.06,0-1.6a26,26,0,0,1,51.61-4.75,13.34,13.34,0,0,1,22.78,9.42v.39a15,15,0,0,1,4.21-.59A15.22,15.22,0,0,1,337.66,156.83Z" transform="translate(147.67 150.99)"/><path class="cls-119" d="M86.72,200.61v0A1.38,1.38,0,0,0,88.11,202h80.67a1.4,1.4,0,0,0,1.32-.93,11.72,11.72,0,0,0-18.44-13c0-.37,0-.73,0-1.11A18,18,0,0,0,116,183.69a9.24,9.24,0,0,0-15.78,6.53c0,.09,0,.18,0,.26a10.83,10.83,0,0,0-2.92-.4A10.53,10.53,0,0,0,86.72,200.61Z" transform="translate(147.67 150.99)"/></g></g></g></svg>