<svg xmlns="http://www.w3.org/2000/svg" xmlns:xlink="http://www.w3.org/1999/xlink" viewBox="0 0 102.7 102.7"><defs><style>.cls-1{fill:#fff;stroke-miterlimit:10;stroke-width:2px;stroke:url(#linear-gradient);}.cls-2{fill:url(#linear-gradient-2);}.cls-3{fill:url(#linear-gradient-3);}.cls-4{fill:url(#linear-gradient-4);}</style><linearGradient id="linear-gradient" x1="51.35" x2="51.35" y2="102.7" gradientUnits="userSpaceOnUse"><stop offset="0" stop-color="#2696ff"/><stop offset="1" stop-color="#196eb0"/></linearGradient><linearGradient id="linear-gradient-2" x1="31.9" y1="22.93" x2="71.12" y2="69.87" xlink:href="#linear-gradient"/><linearGradient id="linear-gradient-3" x1="23.65" y1="29.83" x2="62.86" y2="76.77" xlink:href="#linear-gradient"/><linearGradient id="linear-gradient-4" x1="24.25" y1="29.32" x2="63.47" y2="76.27" xlink:href="#linear-gradient"/></defs><g id="Layer_2" data-name="Layer 2"><g id="Layer_3" data-name="Layer 3"><circle class="cls-1" cx="51.35" cy="51.35" r="50.35"/><path class="cls-2" d="M82.27,46.34a1.26,1.26,0,0,0-1.18-.82H65.47L73.16,29.7a1.26,1.26,0,0,0-.07-1.22A1.25,1.25,0,0,0,72,27.89H55.66a1.25,1.25,0,0,0-1.12.69L40.94,55.27a1.26,1.26,0,0,0,1.12,1.83h12.7l-12,21.29a1.27,1.27,0,0,0,1.09,1.88,1.29,1.29,0,0,0,.83-.31L81.91,47.73A1.26,1.26,0,0,0,82.27,46.34Zm-33.78,27L58,56.46a1.26,1.26,0,0,0-1.09-1.88H44.11L56.43,30.41H70L62.33,46.23a1.24,1.24,0,0,0,.07,1.21,1.25,1.25,0,0,0,1.06.6H77.71Z"/><path class="cls-3" d="M43.07,73.47V70a1.26,1.26,0,0,0-1-1.23,16.73,16.73,0,0,1-5.43-2.3,1.24,1.24,0,0,0-1.58.17l-2.42,2.41-3.74-3.74,2.46-2.45a1.26,1.26,0,0,0,.17-1.56,16.81,16.81,0,0,1-2.22-5.47,1.25,1.25,0,0,0-1.23-1H24.69V49.55h3.47a1.26,1.26,0,0,0,1.22-1,17,17,0,0,1,2.3-5.43,1.26,1.26,0,0,0-.16-1.58L29.1,39.14l3.74-3.74,2.45,2.46a1.27,1.27,0,0,0,1.57.17,16.67,16.67,0,0,1,5.46-2.22,1.25,1.25,0,0,0,1-1.23V31.16h5.29v3.47a1.22,1.22,0,0,0,.53,1l2-3.89V29.91a1.25,1.25,0,0,0-1.25-1.26H42.06a1.26,1.26,0,0,0-1.26,1.26v3.68a19.24,19.24,0,0,0-4.42,1.79l-2.65-2.65a1.26,1.26,0,0,0-1.78,0l-5.52,5.52a1.26,1.26,0,0,0,0,1.78L29,42.64A18.87,18.87,0,0,0,27.18,47H23.43a1.25,1.25,0,0,0-1.26,1.26v7.8a1.25,1.25,0,0,0,1.26,1.26h3.68a18.83,18.83,0,0,0,1.8,4.42l-2.66,2.65a1.26,1.26,0,0,0,0,1.78l5.52,5.52a1.24,1.24,0,0,0,1.78,0l2.61-2.6A18.84,18.84,0,0,0,40.55,71v3.76A1.25,1.25,0,0,0,41.81,76h.5l1.42-2.51Z"/><path class="cls-4" d="M44.37,45l1.36-2.66a9.95,9.95,0,1,0,5.1,18.55l1-1.81h-3a7.41,7.41,0,0,1-6,0A7.43,7.43,0,0,1,44.37,45Z"/></g></g></svg>