<svg xmlns="http://www.w3.org/2000/svg" xmlns:xlink="http://www.w3.org/1999/xlink" viewBox="0 0 102.7 102.7"><defs><style>.cls-1{fill:#fff;stroke-miterlimit:10;stroke-width:2px;stroke:url(#linear-gradient);}.cls-2{fill:url(#linear-gradient-2);}.cls-3{fill:url(#linear-gradient-3);}</style><linearGradient id="linear-gradient" x1="51.35" x2="51.35" y2="102.7" gradientUnits="userSpaceOnUse"><stop offset="0" stop-color="#2696ff"/><stop offset="1" stop-color="#196eb0"/></linearGradient><linearGradient id="linear-gradient-2" x1="35.62" y1="31.22" x2="70.29" y2="78.54" xlink:href="#linear-gradient"/><linearGradient id="linear-gradient-3" x1="34.53" y1="40.48" x2="40.05" y2="48.01" xlink:href="#linear-gradient"/></defs><g id="Layer_2" data-name="Layer 2"><g id="Layer_3" data-name="Layer 3"><circle class="cls-1" cx="51.35" cy="51.35" r="50.35"/><path class="cls-2" d="M75.05,73,63.21,61.2a20.59,20.59,0,1,0-2,2L73.06,75a1.4,1.4,0,0,0,1,.41,1.36,1.36,0,0,0,1-.41A1.41,1.41,0,0,0,75.05,73ZM30,47.76A17.7,17.7,0,1,1,47.73,65.45,17.72,17.72,0,0,1,30,47.76Z"/><path class="cls-3" d="M39.56,37.91a1.41,1.41,0,0,0-2,.43A20.48,20.48,0,0,0,34.38,49.4a1.41,1.41,0,0,0,2.81,0A17.57,17.57,0,0,1,40,39.86,1.42,1.42,0,0,0,39.56,37.91Z"/></g></g></svg>