<svg xmlns="http://www.w3.org/2000/svg" xmlns:xlink="http://www.w3.org/1999/xlink" viewBox="0 0 2387 1645.29"><defs><style>.cls-1{fill:none;}.cls-2{fill:url(#linear-gradient);}.cls-3{clip-path:url(#clip-path);}.cls-4{fill:url(#linear-gradient-2);}.cls-5{fill:url(#linear-gradient-3);}.cls-6{fill:url(#linear-gradient-4);}.cls-7{stroke:#d4eefd;stroke-miterlimit:10;fill:url(#linear-gradient-5);}.cls-8{fill:#d4eefd;}.cls-9{fill:url(#linear-gradient-6);}.cls-10{fill:url(#linear-gradient-7);}.cls-11{fill:url(#linear-gradient-8);}.cls-12{fill:url(#linear-gradient-9);}.cls-13{fill:url(#linear-gradient-10);}.cls-14{fill:url(#linear-gradient-11);}.cls-15{fill:url(#linear-gradient-12);}.cls-16{fill:#fff;}.cls-17{fill:url(#linear-gradient-13);}.cls-18{fill:#bfe2ef;}.cls-19{fill:url(#linear-gradient-14);}.cls-20{fill:url(#linear-gradient-15);}.cls-21{fill:url(#linear-gradient-16);}.cls-22{fill:url(#linear-gradient-17);}.cls-23{fill:url(#linear-gradient-18);}.cls-24{fill:url(#linear-gradient-19);}.cls-25{fill:url(#linear-gradient-20);}.cls-26{fill:url(#linear-gradient-21);}.cls-27{fill:url(#linear-gradient-22);}.cls-28{fill:url(#linear-gradient-23);}.cls-29{fill:url(#linear-gradient-24);}.cls-30{fill:url(#linear-gradient-25);}.cls-31{fill:url(#linear-gradient-26);}.cls-32{fill:url(#linear-gradient-27);}.cls-33{fill:url(#linear-gradient-28);}</style><linearGradient id="linear-gradient" x1="1242" y1="2472.56" x2="1242" y2="756.3" gradientUnits="userSpaceOnUse"><stop offset="0" stop-color="#c4eafd"/><stop offset="1" stop-color="#fff"/></linearGradient><clipPath id="clip-path" transform="translate(281.5)"><rect class="cls-1" width="1920" height="1080"/></clipPath><linearGradient id="linear-gradient-2" x1="2112.5" y1="-29.42" x2="2112.5" y2="581.47" xlink:href="#linear-gradient"/><linearGradient id="linear-gradient-3" x1="2011" y1="-22.05" x2="2011" y2="430.41" xlink:href="#linear-gradient"/><linearGradient id="linear-gradient-4" x1="2027.84" y1="-369.27" x2="1288.89" y2="619.79" xlink:href="#linear-gradient"/><linearGradient id="linear-gradient-5" x1="1609.92" y1="207.62" x2="1604.23" y2="456.59" xlink:href="#linear-gradient"/><linearGradient id="linear-gradient-6" x1="775.54" y1="-262.23" x2="775.54" y2="534.72" xlink:href="#linear-gradient"/><linearGradient id="linear-gradient-7" x1="462.2" y1="-25.22" x2="462.2" y2="523.27" xlink:href="#linear-gradient"/><linearGradient id="linear-gradient-8" x1="480.46" y1="356.52" x2="480.46" y2="487.44" xlink:href="#linear-gradient"/><linearGradient id="linear-gradient-9" x1="1201.46" y1="317.86" x2="1201.46" y2="481.74" xlink:href="#linear-gradient"/><linearGradient id="linear-gradient-10" x1="1242.46" y1="317.86" x2="1242.46" y2="481.74" xlink:href="#linear-gradient"/><linearGradient id="linear-gradient-11" x1="1731.61" y1="356.35" x2="1731.61" y2="628.75" xlink:href="#linear-gradient"/><linearGradient id="linear-gradient-12" x1="2198.29" y1="452.47" x2="2208.9" y2="723.04" xlink:href="#linear-gradient"/><linearGradient id="linear-gradient-13" x1="446.79" y1="271.36" x2="430.85" y2="425.44" xlink:href="#linear-gradient"/><linearGradient id="linear-gradient-14" x1="425.5" y1="185.99" x2="425.5" y2="525.04" xlink:href="#linear-gradient"/><linearGradient id="linear-gradient-15" x1="903.37" y1="185.99" x2="903.37" y2="525.04" xlink:href="#linear-gradient"/><linearGradient id="linear-gradient-16" x1="1522.33" y1="116.26" x2="1522.33" y2="528.68" xlink:href="#linear-gradient"/><linearGradient id="linear-gradient-17" x1="366.51" y1="170.09" x2="332.4" y2="499.77" xlink:href="#linear-gradient"/><linearGradient id="linear-gradient-18" x1="-10.91" y1="421.69" x2="77.87" y2="658.56" xlink:href="#linear-gradient"/><linearGradient id="linear-gradient-19" x1="1572.72" y1="-39.43" x2="1636.43" y2="130.56" gradientTransform="translate(448.67 -42.71) rotate(22.32)" xlink:href="#linear-gradient"/><linearGradient id="linear-gradient-20" x1="644.26" y1="633.19" x2="383.54" y2="852.98" xlink:href="#linear-gradient"/><linearGradient id="linear-gradient-21" x1="373.14" y1="646.33" x2="341.31" y2="976.77" xlink:href="#linear-gradient"/><linearGradient id="linear-gradient-22" x1="1960.5" y1="507.5" x2="1934.57" y2="758.14" gradientTransform="translate(-44.09 4.32)" xlink:href="#linear-gradient"/><linearGradient id="linear-gradient-23" x1="402.5" y1="655.51" x2="402.5" y2="1078.96" xlink:href="#linear-gradient"/><linearGradient id="linear-gradient-24" x1="1094.98" y1="120.88" x2="1558.81" y2="1096.29" xlink:href="#linear-gradient"/><linearGradient id="linear-gradient-25" x1="316.5" y1="735.08" x2="316.5" y2="1017.61" xlink:href="#linear-gradient"/><linearGradient id="linear-gradient-26" x1="318.82" y1="-37.37" x2="117.22" y2="347.64" xlink:href="#linear-gradient"/><linearGradient id="linear-gradient-27" x1="1761.75" y1="22.22" x2="1655.79" y2="224.57" xlink:href="#linear-gradient"/><linearGradient id="linear-gradient-28" x1="1541.66" y1="521.93" x2="1538.63" y2="1075.19" xlink:href="#linear-gradient"/></defs><g id="Layer_2" data-name="Layer 2"><g id="Layer_1-2" data-name="Layer 1"><rect class="cls-2" x="282" width="1920" height="1080"/><g class="cls-3"><rect class="cls-4" x="2095" y="333" width="35" height="174"/><rect class="cls-5" x="1976" y="281" width="70" height="173"/><path class="cls-6" d="M881.5,421s171-136,301-104,24-161,343,7,380,216,380,216H791.5Z" transform="translate(281.5)"/><rect class="cls-7" x="1562" y="324" width="87" height="154"/><rect class="cls-8" x="1584" y="344.55" width="5" height="23.45"/><rect class="cls-8" x="1604" y="344.55" width="5" height="23.45"/><rect class="cls-8" x="1624" y="344.55" width="5" height="23.45"/><rect class="cls-8" x="1584" y="377.55" width="5" height="23.45"/><rect class="cls-8" x="1604" y="377.55" width="5" height="23.45"/><rect class="cls-8" x="1624" y="377.55" width="5" height="23.45"/><path class="cls-9" d="M87.5,440s75-42,200-67,180-134,282-75,118,97,215,130,154,31,238-29,108-66,183-29,178,116,245,98-90.52,91.49-203.26,68.24S663.5,503,614.5,507s-57,35-167,9S52.5,543,87.5,440Z" transform="translate(281.5)"/><path class="cls-10" d="M278.9,439.67S409.5,381,442.5,360s78-27,136,19,67,55,67,55L531.35,522.23Z" transform="translate(281.5)"/><path class="cls-11" d="M463.7,488.14S457.5,478,465.5,454s8-69,16-59,13,54,17,71-5.13,32.28-5.13,32.28Z" transform="translate(281.5)"/><path class="cls-12" d="M1184.7,489.57s-6.2-9.28,1.8-31.25,8-63.17,16-54,13,49.43,17,65-5.13,29.55-5.13,29.55Z" transform="translate(281.5)"/><path class="cls-13" d="M1228.15,492.57s-5.3-8,1.53-26.92,6.84-54.41,13.67-46.52,11.1,42.58,14.52,56-4.39,25.45-4.39,25.45Z" transform="translate(281.5)"/><path class="cls-14" d="M1822.5,580c-64-38-93-17-147,14s-92,39-92,39l296,15S1886.5,618,1822.5,580Z" transform="translate(281.5)"/><ellipse class="cls-15" cx="2204.5" cy="610.83" rx="120.5" ry="168.83"/><path class="cls-16" d="M1906.51,486.89c.23,8.47.32,16.95.49,25.42l.28,25.42c.16,16.94.15,33.89.23,50.83-.08,17-.07,33.89-.23,50.84l-.28,25.42c-.17,8.47-.26,16.94-.49,25.41-.23-8.47-.32-16.94-.49-25.41l-.28-25.42c-.16-16.95-.15-33.89-.23-50.84.09-16.94.07-33.89.23-50.83l.28-25.42C1906.19,503.84,1906.29,495.36,1906.51,486.89Z" transform="translate(281.5)"/><path class="cls-16" d="M1862.58,512c3.82,3.68,7.56,7.45,11.34,11.16s7.48,7.51,11.19,11.3q11.16,11.34,22.12,22.85l-1.43,0q11-10.9,22-21.69,5.54-5.4,11.13-10.72c3.76-3.53,7.47-7.11,11.27-10.59-3.49,3.8-7.06,7.51-10.59,11.27s-7.12,7.44-10.72,11.13q-10.76,11.1-21.69,22l-.73.73-.7-.74c-7.32-7.68-14.6-15.37-21.81-23.15q-5.42-5.82-10.78-11.7C1869.66,519.89,1866.07,516,1862.58,512Z" transform="translate(281.5)"/><path class="cls-16" d="M1862.58,555.93c3.82,3.67,7.56,7.44,11.34,11.15s7.48,7.52,11.19,11.3q11.16,11.34,22.12,22.85l-1.43,0q11-10.9,22-21.69c3.69-3.6,7.4-7.16,11.13-10.72s7.47-7.1,11.27-10.59c-3.49,3.8-7.06,7.51-10.59,11.27s-7.12,7.44-10.72,11.13q-10.76,11.1-21.69,22l-.73.72-.7-.74q-11-11.5-21.81-23.14-5.42-5.82-10.78-11.7C1869.66,563.82,1866.07,559.92,1862.58,555.93Z" transform="translate(281.5)"/><path class="cls-16" d="M1862.58,599.86c3.82,3.67,7.56,7.44,11.34,11.16s7.48,7.51,11.19,11.29q11.16,11.34,22.12,22.85h-1.43c7.3-7.27,14.62-14.53,22-21.7q5.54-5.38,11.13-10.72c3.76-3.53,7.47-7.1,11.27-10.58-3.49,3.8-7.06,7.51-10.59,11.26s-7.12,7.45-10.72,11.14q-10.76,11.09-21.69,22l-.73.72-.7-.74q-11-11.5-21.81-23.14-5.42-5.82-10.78-11.7C1869.66,607.75,1866.07,603.85,1862.58,599.86Z" transform="translate(281.5)"/><ellipse class="cls-17" cx="428.1" cy="452.11" rx="47.9" ry="67.12"/><path class="cls-18" d="M147.59,398.47c.12,4.27.17,8.54.25,12.81L148,424.1c.08,8.54.08,17.09.12,25.63s0,17.09-.12,25.64l-.14,12.81c-.08,4.28-.13,8.55-.25,12.82-.11-4.27-.16-8.54-.24-12.82l-.14-12.81c-.08-8.55-.08-17.09-.12-25.64s0-17.09.12-25.63l.14-12.82C147.43,407,147.48,402.74,147.59,398.47Z" transform="translate(281.5)"/><path class="cls-18" d="M130.13,417c1.52,1.46,3,3,4.51,4.44s3,3,4.45,4.49c2.95,3,5.88,6,8.79,9.08h-.57q4.35-4.33,8.75-8.62,2.2-2.14,4.43-4.26c1.49-1.41,3-2.83,4.48-4.21-1.39,1.51-2.81,3-4.21,4.48s-2.83,3-4.26,4.42c-2.85,2.94-5.74,5.85-8.63,8.75l-.28.29-.28-.29c-2.91-3.05-5.81-6.11-8.67-9.2q-2.16-2.33-4.29-4.65C133,420.13,131.52,418.58,130.13,417Z" transform="translate(281.5)"/><path class="cls-18" d="M130.13,443.38c1.52,1.46,3,2.95,4.51,4.43s3,3,4.45,4.49q4.42,4.51,8.79,9.09h-.57q4.35-4.33,8.75-8.62,2.2-2.14,4.43-4.27c1.49-1.4,3-2.82,4.48-4.2-1.39,1.51-2.81,3-4.21,4.48s-2.83,3-4.26,4.42c-2.85,2.94-5.74,5.85-8.63,8.75l-.28.29-.28-.29c-2.91-3.06-5.81-6.11-8.67-9.21q-2.16-2.31-4.29-4.65C133,446.51,131.52,445,130.13,443.38Z" transform="translate(281.5)"/><path class="cls-19" d="M103.5,500s84-82,213-56,254,102,431,105h-644Z" transform="translate(281.5)"/><path class="cls-20" d="M531.23,510.62S672.5,380,784.5,394s189,76,491,142c4,.88-744,0-744,0Z" transform="translate(281.5)"/><path class="cls-21" d="M1251.15,530.58S1318.5,511,1346.5,465s80-109,119-80,106,62,137,62,191,93,191,93h-542Z" transform="translate(281.5)"/><ellipse class="cls-22" cx="326.5" cy="556.83" rx="102.5" ry="143.61"/><path class="cls-18" d="M47.14,442.05c.19,7.2.27,14.41.41,21.62l.24,21.62c.14,14.41.12,28.83.2,43.24-.07,14.42-.06,28.83-.2,43.24l-.24,21.62c-.14,7.21-.22,14.42-.41,21.63-.2-7.21-.28-14.42-.42-21.63l-.24-21.62c-.13-14.41-.13-28.82-.19-43.24s.05-28.83.19-43.24l.24-21.62C46.86,456.46,46.94,449.25,47.14,442.05Z" transform="translate(281.5)"/><path class="cls-18" d="M9.77,463.4c3.25,3.13,6.42,6.33,9.64,9.49s6.37,6.39,9.52,9.61c6.33,6.43,12.58,12.92,18.82,19.44l-1.21,0q9.3-9.27,18.72-18.45,4.71-4.59,9.47-9.12c3.19-3,6.35-6,9.58-9-3,3.23-6,6.38-9,9.58s-6.06,6.33-9.12,9.47Q57,493.84,47.74,503.12l-.62.62-.6-.63C40.3,496.58,34.1,490,28,483.42q-4.61-4.95-9.17-9.95C15.79,470.11,12.74,466.8,9.77,463.4Z" transform="translate(281.5)"/><path class="cls-18" d="M9.77,500.77c3.25,3.13,6.42,6.33,9.64,9.49s6.37,6.39,9.52,9.61c6.33,6.43,12.58,12.92,18.82,19.44l-1.21,0q9.3-9.27,18.72-18.45,4.71-4.59,9.47-9.12c3.19-3,6.35-6,9.58-9-3,3.23-6,6.38-9,9.58s-6.06,6.33-9.12,9.47Q57,531.2,47.74,540.49l-.62.62-.6-.63C40.3,534,34.1,527.41,28,520.79q-4.61-4.95-9.17-9.95C15.79,507.48,12.74,504.17,9.77,500.77Z" transform="translate(281.5)"/><path class="cls-18" d="M9.77,538.14c3.25,3.13,6.42,6.33,9.64,9.49s6.37,6.39,9.52,9.61c6.33,6.43,12.58,12.92,18.82,19.44l-1.21,0q9.3-9.27,18.72-18.45,4.71-4.59,9.47-9.12c3.19-3,6.35-6,9.58-9-3,3.24-6,6.39-9,9.59s-6.06,6.33-9.12,9.47Q57,568.57,47.74,577.86l-.62.62-.6-.63C40.3,571.32,34.1,564.78,28,558.16q-4.61-4.95-9.17-9.95C15.79,544.85,12.74,541.54,9.77,538.14Z" transform="translate(281.5)"/><path class="cls-23" d="M307.5,625.5a99.5,99.5,0,0,0-198.71-7.68A121.87,121.87,0,0,0,64.17,632,122,122,0,0,0-15,603,122.51,122.51,0,0,0-137.5,725.5,122.51,122.51,0,0,0-15,848a121.93,121.93,0,0,0,58.83-15A122.49,122.49,0,0,0,245.5,739.5a123.38,123.38,0,0,0-1.82-21.1A99.51,99.51,0,0,0,307.5,625.5Z" transform="translate(281.5)"/><path class="cls-24" d="M2074.38,740.16a71.41,71.41,0,0,0-129.83-59.25,87.42,87.42,0,0,0-33.49-2.73A87.89,87.89,0,1,0,1842.79,806a87.93,87.93,0,0,0,163.9-21.59A71.42,71.42,0,0,0,2074.38,740.16Z" transform="translate(281.5)"/><circle class="cls-25" cx="256" cy="960.5" r="252"/><ellipse class="cls-26" cx="341.5" cy="974.83" rx="120.5" ry="168.83"/><path class="cls-18" d="M62.51,839.89c.23,8.47.32,17,.49,25.42l.28,25.42c.16,16.94.15,33.89.23,50.83-.08,17-.07,33.89-.23,50.84L63,1017.82c-.17,8.47-.26,16.94-.49,25.41-.23-8.47-.32-16.94-.49-25.41l-.28-25.42c-.16-16.95-.15-33.89-.23-50.84.09-16.94.07-33.89.23-50.83L62,865.31C62.19,856.84,62.29,848.36,62.51,839.89Z" transform="translate(281.5)"/><path class="cls-18" d="M18.58,865c3.82,3.68,7.56,7.45,11.34,11.16s7.48,7.51,11.19,11.3q11.16,11.34,22.12,22.85l-1.43,0q11-10.9,22-21.69,5.54-5.4,11.13-10.72c3.76-3.53,7.47-7.11,11.27-10.59-3.49,3.8-7.06,7.51-10.59,11.27S88.51,886,84.91,889.68q-10.75,11.1-21.69,22l-.73.73-.7-.74C54.47,904,47.19,896.31,40,888.53q-5.41-5.82-10.78-11.7C25.66,872.89,22.07,869,18.58,865Z" transform="translate(281.5)"/><path class="cls-18" d="M18.58,908.93c3.82,3.67,7.56,7.44,11.34,11.15s7.48,7.52,11.19,11.3q11.16,11.34,22.12,22.85l-1.43,0q11-10.9,22-21.69c3.69-3.6,7.4-7.16,11.13-10.72s7.47-7.1,11.27-10.59c-3.49,3.8-7.06,7.51-10.59,11.27s-7.12,7.44-10.72,11.13q-10.75,11.1-21.69,22l-.73.72-.7-.74q-11-11.5-21.81-23.14-5.41-5.82-10.78-11.7C25.66,916.82,22.07,912.92,18.58,908.93Z" transform="translate(281.5)"/><path class="cls-18" d="M18.58,952.86c3.82,3.67,7.56,7.44,11.34,11.16s7.48,7.51,11.19,11.29q11.16,11.34,22.12,22.85H61.8c7.3-7.27,14.62-14.53,22-21.7q5.54-5.38,11.13-10.72c3.76-3.53,7.47-7.1,11.27-10.58-3.49,3.8-7.06,7.51-10.59,11.26s-7.12,7.45-10.72,11.14q-10.75,11.09-21.69,22l-.73.72-.7-.74Q50.81,988,40,976.4q-5.41-5.82-10.78-11.7C25.66,960.75,22.07,956.85,18.58,952.86Z" transform="translate(281.5)"/><ellipse class="cls-27" cx="1886" cy="805.83" rx="77.92" ry="109.17" transform="translate(118.8 710) rotate(-20.46)"/><path class="cls-18" d="M1857,723.5c2,5.09,4,10.2,6,15.29l5.92,15.34c3.93,10.23,7.75,20.5,11.63,30.75s7.62,20.55,11.35,30.85l5.57,15.46c1.82,5.18,3.68,10.33,5.45,15.52-2-5.09-4-10.2-6-15.29L1891,816.08c-3.93-10.23-7.75-20.5-11.63-30.75s-7.62-20.55-11.35-30.85L1862.47,739C1860.66,733.84,1858.8,728.69,1857,723.5Z" transform="translate(281.5)"/><path class="cls-18" d="M1836.08,748.64c3.15,1.36,6.26,2.8,9.39,4.2s6.23,2.86,9.34,4.32c6.21,2.89,12.39,5.86,18.56,8.84l-.86.31q4.15-9.07,8.43-18.12c1.42-3,2.87-6,4.32-9s2.92-6,4.44-9c-1.26,3.09-2.58,6.15-3.87,9.22s-2.64,6.12-4,9.17c-2.67,6.1-5.41,12.17-8.17,18.24l-.27.6-.6-.29c-6.16-3-12.32-6-18.45-9.09q-4.59-2.31-9.17-4.66C1842.16,751.82,1839.1,750.27,1836.08,748.64Z" transform="translate(281.5)"/><path class="cls-18" d="M1846,775.26c3.15,1.36,6.26,2.8,9.39,4.2s6.23,2.86,9.34,4.31q9.32,4.35,18.56,8.85l-.86.31q4.15-9.07,8.43-18.12c1.42-3,2.87-6,4.32-9s2.92-6,4.44-9c-1.26,3.09-2.58,6.14-3.87,9.22s-2.64,6.12-4,9.17c-2.67,6.1-5.42,12.17-8.17,18.24l-.27.6-.6-.29c-6.16-3-12.32-6-18.45-9.09q-4.59-2.31-9.17-4.66C1852.09,778.44,1849,776.89,1846,775.26Z" transform="translate(281.5)"/><path class="cls-18" d="M1855.94,801.88c3.15,1.36,6.26,2.8,9.39,4.2s6.23,2.86,9.34,4.31q9.32,4.35,18.56,8.85l-.87.31q4.17-9.09,8.44-18.12c1.42-3,2.87-6,4.32-9s2.92-6,4.43-9c-1.25,3.09-2.57,6.14-3.86,9.22s-2.64,6.12-4,9.16c-2.67,6.11-5.42,12.18-8.17,18.24l-.27.61-.6-.29q-9.26-4.5-18.45-9.1c-3.06-1.53-6.12-3.09-9.17-4.65S1859,803.51,1855.94,801.88Z" transform="translate(281.5)"/><path class="cls-28" d="M756.5,1255.5c0,129.51-105,234.5-234.5,234.5a234,234,0,0,1-178.13-82,234.53,234.53,0,0,1-60.87,8c-129.51,0-234.5-105-234.5-234.5S153.49,947,283,947a234,234,0,0,1,178.13,82,234.53,234.53,0,0,1,60.87-8C651.51,1021,756.5,1126,756.5,1255.5Z" transform="translate(281.5)"/><path class="cls-29" d="M2105.5,1179.5c0,228-184.79,412.75-412.75,412.75S1280,1407.46,1280,1179.5a415.26,415.26,0,0,1,7.69-79.7c-1.53-.74-3-1.52-4.49-2.33a131.31,131.31,0,1,1-53.88-109.25,106.26,106.26,0,0,1,151.74-79.29c75.66-87.11,187.24-142.18,311.7-142.18C1920.71,766.75,2105.5,951.54,2105.5,1179.5Z" transform="translate(281.5)"/><circle class="cls-30" cx="316.5" cy="1255.5" r="316.5"/><path class="cls-31" d="M310.73,252.22a48.47,48.47,0,0,1-4.09,24.4,10.84,10.84,0,0,1-9.89,6.38H32.23a10.9,10.9,0,0,1-9.93-6.47,46.73,46.73,0,0,1,66.5-59.28,73.47,73.47,0,0,1,146.83-1,48.5,48.5,0,0,1,75.1,36Z" transform="translate(281.5)"/><path class="cls-32" d="M1737.38,212.82a25.54,25.54,0,0,1-2.14,12.83A5.72,5.72,0,0,1,1730,229H1591a5.74,5.74,0,0,1-5.22-3.4,24.57,24.57,0,0,1,22.41-34.6,24.28,24.28,0,0,1,12.54,3.45,38.61,38.61,0,0,1,77.17-.55,25.48,25.48,0,0,1,39.46,18.92Z" transform="translate(281.5)"/><path class="cls-33" d="M2005.41,1087.8c86.74,162.11,25.64,363.85-136.47,450.59a332.13,332.13,0,0,1-277.87,16.69,332.79,332.79,0,0,1-70.85,50.76c-162.11,86.75-363.85,25.65-450.59-136.46s-25.65-363.85,136.46-450.59a332.19,332.19,0,0,1,277.88-16.7,332.82,332.82,0,0,1,70.84-50.76C1716.92,864.59,1918.66,925.69,2005.41,1087.8Z" transform="translate(281.5)"/></g></g></g></svg>