<svg xmlns="http://www.w3.org/2000/svg" xmlns:xlink="http://www.w3.org/1999/xlink" viewBox="0 0 1006.22 1576.45"><defs><style>.cls-1{fill:none;}.cls-2{fill:url(#linear-gradient);}.cls-3{clip-path:url(#clip-path);}.cls-4{fill:url(#linear-gradient-2);}.cls-5{fill:url(#linear-gradient-3);}.cls-6{fill:url(#linear-gradient-4);}.cls-7{stroke:#d4eefd;stroke-miterlimit:10;fill:url(#linear-gradient-5);}.cls-8{fill:#d4eefd;}.cls-9{fill:url(#linear-gradient-6);}.cls-10{fill:url(#linear-gradient-7);}.cls-11{fill:url(#linear-gradient-8);}.cls-12{fill:url(#linear-gradient-9);}.cls-13{fill:url(#linear-gradient-10);}.cls-14{fill:url(#linear-gradient-11);}.cls-15{fill:url(#linear-gradient-12);}.cls-16{fill:url(#linear-gradient-13);}.cls-17{fill:url(#linear-gradient-14);}.cls-18{fill:#fff;}.cls-19{fill:url(#linear-gradient-15);}.cls-20{fill:#bfe2ef;}.cls-21{fill:url(#linear-gradient-16);}.cls-22{fill:url(#linear-gradient-17);}.cls-23{fill:url(#linear-gradient-18);}.cls-24{fill:url(#linear-gradient-19);}.cls-25{fill:url(#linear-gradient-20);}.cls-26{fill:url(#linear-gradient-21);}.cls-27{fill:url(#linear-gradient-22);}.cls-28{fill:url(#linear-gradient-23);}.cls-29{fill:url(#linear-gradient-24);}.cls-30{fill:url(#linear-gradient-25);}.cls-31{fill:url(#linear-gradient-26);}.cls-32{fill:url(#linear-gradient-27);}.cls-33{fill:url(#linear-gradient-28);}</style><linearGradient id="linear-gradient" x1="508.19" y1="2847.32" x2="508.19" y2="870.93" gradientUnits="userSpaceOnUse"><stop offset="0" stop-color="#c4eafd"/><stop offset="1" stop-color="#fff"/></linearGradient><clipPath id="clip-path" transform="translate(222.87)"><rect class="cls-1" y="372.95" width="570.5" height="870.74"/></clipPath><linearGradient id="linear-gradient-2" x1="719.95" y1="590.63" x2="719.95" y2="950.24" xlink:href="#linear-gradient"/><linearGradient id="linear-gradient-3" x1="664.52" y1="594.97" x2="664.52" y2="861.31" xlink:href="#linear-gradient"/><linearGradient id="linear-gradient-4" x1="705.7" y1="428.37" x2="302.08" y2="968.61" xlink:href="#linear-gradient"/><linearGradient id="linear-gradient-5" x1="598.75" y1="730.27" x2="595.4" y2="876.69" xlink:href="#linear-gradient"/><linearGradient id="linear-gradient-6" x1="154.48" y1="453.59" x2="154.48" y2="922.72" xlink:href="#linear-gradient"/><linearGradient id="linear-gradient-7" x1="201.38" y1="593.11" x2="201.38" y2="915.97" xlink:href="#linear-gradient"/><linearGradient id="linear-gradient-8" x1="211.35" y1="817.82" x2="211.35" y2="894.89" xlink:href="#linear-gradient"/><linearGradient id="linear-gradient-9" x1="503.04" y1="795.06" x2="503.04" y2="891.53" xlink:href="#linear-gradient"/><linearGradient id="linear-gradient-10" x1="525.43" y1="795.06" x2="525.43" y2="891.53" xlink:href="#linear-gradient"/><linearGradient id="linear-gradient-11" x1="442.3" y1="717.44" x2="442.3" y2="917.02" xlink:href="#linear-gradient"/><linearGradient id="linear-gradient-12" x1="513.59" y1="705.52" x2="513.59" y2="948.29" xlink:href="#linear-gradient"/><linearGradient id="linear-gradient-13" x1="442.81" y1="817.72" x2="442.81" y2="978.07" xlink:href="#linear-gradient"/><linearGradient id="linear-gradient-14" x1="766.53" y1="874.3" x2="772.78" y2="1033.57" xlink:href="#linear-gradient"/><linearGradient id="linear-gradient-15" x1="274.03" y1="767.73" x2="264.65" y2="858.4" xlink:href="#linear-gradient"/><linearGradient id="linear-gradient-16" x1="181.34" y1="717.44" x2="181.34" y2="917.02" xlink:href="#linear-gradient"/><linearGradient id="linear-gradient-17" x1="207.05" y1="659.64" x2="187.46" y2="848.98" gradientTransform="translate(884.26 843.49) rotate(95.27)" xlink:href="#linear-gradient"/><linearGradient id="linear-gradient-18" x1="-59.74" y1="859.79" x2="-8.44" y2="996.68" xlink:href="#linear-gradient"/><linearGradient id="linear-gradient-19" x1="285.68" y1="-2.57" x2="323.21" y2="97.58" gradientTransform="translate(279.9 806.65) rotate(22.32)" xlink:href="#linear-gradient"/><linearGradient id="linear-gradient-20" x1="376.96" y1="988.7" x2="229.87" y2="1112.69" xlink:href="#linear-gradient"/><linearGradient id="linear-gradient-21" x1="149.34" y1="968.64" x2="130.85" y2="1160.66" gradientTransform="matrix(-0.07, 1, -1, -0.07, 1164.09, 1129.64)" xlink:href="#linear-gradient"/><linearGradient id="linear-gradient-22" x1="435.91" y1="1195.17" x2="420.73" y2="1341.91" gradientTransform="translate(21.65 -255.18) rotate(-3.7)" xlink:href="#linear-gradient"/><linearGradient id="linear-gradient-23" x1="168.78" y1="993.82" x2="168.78" y2="1243.08" xlink:href="#linear-gradient"/><linearGradient id="linear-gradient-24" x1="221.2" y1="698.01" x2="486.62" y2="1256.16" xlink:href="#linear-gradient"/><linearGradient id="linear-gradient-25" x1="190.96" y1="1040.66" x2="190.96" y2="1206.97" xlink:href="#linear-gradient"/><linearGradient id="linear-gradient-26" x1="443.89" y1="299.34" x2="328.71" y2="519.3" xlink:href="#linear-gradient"/><linearGradient id="linear-gradient-27" x1="496.74" y1="485.01" x2="436.21" y2="600.61" xlink:href="#linear-gradient"/><linearGradient id="linear-gradient-28" x1="475.62" y1="915.27" x2="473.84" y2="1240.89" xlink:href="#linear-gradient"/></defs><g id="Layer_2" data-name="Layer 2"><g id="Layer_1-2" data-name="Layer 1"><rect class="cls-2" x="223.02" width="570.35" height="1243.69"/><g class="cls-3"><rect class="cls-4" x="710.39" y="803.97" width="19.11" height="102.42"/><rect class="cls-5" x="645.41" y="773.36" width="38.23" height="101.84"/><path class="cls-6" d="M80.61,855.78S174,775.72,245,794.56s13.1-94.78,187.31,4.12S639.81,925.82,639.81,925.82H31.46Z" transform="translate(222.87)"/><rect class="cls-7" x="572.39" y="798.68" width="47.51" height="90.65"/><rect class="cls-8" x="584.41" y="810.77" width="2.73" height="13.8"/><rect class="cls-8" x="595.33" y="810.77" width="2.73" height="13.8"/><rect class="cls-8" x="606.25" y="810.77" width="2.73" height="13.8"/><rect class="cls-8" x="584.41" y="830.2" width="2.73" height="13.8"/><rect class="cls-8" x="595.33" y="830.2" width="2.73" height="13.8"/><rect class="cls-8" x="606.25" y="830.2" width="2.73" height="13.8"/><path class="cls-9" d="M-221.25,867s41-24.72,109.22-39.44,98.29-78.88,154-44.15,64.43,57.1,117.41,76.53,84.09,18.24,130-17.08,59-38.85,99.93-17.07S486.49,894,523.07,883.44s-49.43,53.86-111,40.17S93.3,904,66.54,906.4s-31.13,20.6-91.2,5.3S-240.37,927.59-221.25,867Z" transform="translate(222.87)"/><path class="cls-10" d="M101.28,866.76s71.32-34.53,89.34-46.89,42.6-15.9,74.27,11.18,36.59,32.38,36.59,32.38l-62.33,51.94Z" transform="translate(222.87)"/><path class="cls-11" d="M202.2,895.3s-3.39-6,1-20.1,4.37-40.62,8.74-34.73,7.1,31.79,9.28,41.79-2.8,19-2.8,19Z" transform="translate(222.87)"/><path class="cls-12" d="M493.89,896.14s-3.39-5.46,1-18.4,4.37-37.18,8.74-31.79,7.1,29.1,9.28,38.26-2.8,17.39-2.8,17.39Z" transform="translate(222.87)"/><path class="cls-13" d="M517.61,897.91s-2.89-4.71.84-15.85,3.73-32,7.46-27.39,6.07,25.07,7.93,33-2.39,15-2.39,15Z" transform="translate(222.87)"/><path class="cls-14" d="M239.08,908.53s77.14-76.89,138.31-68.65,103.21,44.74,268.13,83.59c2.2.52-406.3,0-406.3,0Z" transform="translate(222.87)"/><path class="cls-15" d="M365.5,949.41s36.78-11.53,52.07-38.6,43.69-64.17,65-47.1,57.89,36.5,74.82,36.5S661.67,955,661.67,955h-296Z" transform="translate(222.87)"/><path class="cls-16" d="M492.44,949.37c-34.95-22.37-50.79-10-80.28,8.24s-50.24,23-50.24,23l161.65,8.83S527.39,971.74,492.44,949.37Z" transform="translate(222.87)"/><ellipse class="cls-17" cx="770.19" cy="967.52" rx="65.8" ry="99.38"/><path class="cls-18" d="M538.32,894.56c.12,5,.17,10,.26,15l.15,15c.09,10,.09,20,.13,29.92s0,20-.12,29.93l-.16,15c-.09,5-.14,10-.26,15-.13-5-.18-10-.27-15l-.15-15c-.09-10-.09-20-.13-29.93s0-19.95.13-29.92l.15-15C538.14,904.54,538.19,899.55,538.32,894.56Z" transform="translate(222.87)"/><path class="cls-18" d="M514.32,909.34c2.09,2.16,4.13,4.38,6.2,6.57s4.08,4.42,6.11,6.65q6.09,6.68,12.08,13.45h-.78c4-4.28,8-8.55,12-12.77q3-3.18,6.08-6.31c2.05-2.08,4.08-4.18,6.15-6.24-1.9,2.24-3.85,4.43-5.78,6.64s-3.89,4.38-5.85,6.55c-3.92,4.36-7.88,8.66-11.85,13l-.39.42-.39-.43q-6-6.78-11.91-13.63-3-3.42-5.88-6.88C518.19,914,516.23,911.69,514.32,909.34Z" transform="translate(222.87)"/><path class="cls-18" d="M514.32,935.2c2.09,2.16,4.13,4.38,6.2,6.57s4.08,4.42,6.11,6.65q6.09,6.68,12.08,13.45h-.78c4-4.28,8-8.55,12-12.77q3-3.18,6.08-6.31c2.05-2.08,4.08-4.18,6.15-6.23-1.9,2.23-3.85,4.42-5.78,6.63s-3.89,4.38-5.85,6.55c-3.92,4.36-7.88,8.66-11.85,13l-.39.43-.39-.44q-6-6.78-11.91-13.62-3-3.43-5.88-6.89C518.19,939.84,516.23,937.55,514.32,935.2Z" transform="translate(222.87)"/><path class="cls-18" d="M514.32,961.06c2.09,2.16,4.13,4.38,6.2,6.57s4.08,4.42,6.11,6.65q6.09,6.68,12.08,13.45h-.78c4-4.28,8-8.55,12-12.77q3-3.18,6.08-6.31c2.05-2.08,4.08-4.18,6.15-6.23-1.9,2.23-3.85,4.42-5.78,6.63s-3.89,4.38-5.85,6.55c-3.92,4.36-7.88,8.66-11.85,13l-.39.43-.39-.44q-6-6.78-11.91-13.62-3-3.43-5.88-6.89C518.19,965.71,516.23,963.41,514.32,961.06Z" transform="translate(222.87)"/><ellipse class="cls-19" cx="263.03" cy="874.09" rx="26.16" ry="39.51"/><path class="cls-20" d="M40.71,842.51c.06,2.52.09,5,.13,7.55l.08,7.54c0,5,0,10.06.06,15.09s0,10.06-.06,15.09l-.08,7.54c0,2.52-.07,5-.13,7.55-.06-2.52-.09-5-.14-7.55l-.07-7.54c0-5,0-10.06-.07-15.09s0-10.06.07-15.09l.07-7.54C40.62,847.54,40.65,845,40.71,842.51Z" transform="translate(222.87)"/><path class="cls-20" d="M31.17,853.41c.83.86,1.64,1.75,2.46,2.62s1.63,1.75,2.43,2.64c1.62,1.77,3.21,3.55,4.81,5.35h-.31c1.58-1.7,3.17-3.4,4.77-5.07.81-.85,1.61-1.68,2.42-2.51s1.62-1.67,2.45-2.48c-.76.89-1.53,1.76-2.3,2.64s-1.55,1.74-2.33,2.6c-1.56,1.73-3.13,3.44-4.71,5.15l-.15.17-.16-.17c-1.59-1.8-3.17-3.6-4.73-5.42q-1.18-1.36-2.34-2.73C32.71,855.26,31.93,854.35,31.17,853.41Z" transform="translate(222.87)"/><path class="cls-20" d="M31.17,869c.83.86,1.64,1.74,2.46,2.61s1.63,1.76,2.43,2.64c1.62,1.77,3.21,3.56,4.81,5.35h-.31q2.37-2.56,4.77-5.08c.81-.84,1.61-1.68,2.42-2.51s1.62-1.66,2.45-2.48c-.76.89-1.53,1.76-2.3,2.64s-1.55,1.74-2.33,2.6c-1.56,1.74-3.13,3.45-4.71,5.16l-.15.17-.16-.18c-1.59-1.79-3.17-3.6-4.73-5.41-.79-.91-1.57-1.83-2.34-2.74S31.93,869.88,31.17,869Z" transform="translate(222.87)"/><path class="cls-21" d="M5.5,902.28s45.87-48.27,116.31-33,138.71,60.05,235.37,61.81H5.5Z" transform="translate(222.87)"/><ellipse class="cls-22" cx="-10.68" cy="945.73" rx="83.1" ry="56.94" transform="translate(-633.25 521.75) rotate(-64.01)"/><path class="cls-20" d="M22.84,888.63c-1.95,3.68-3.95,7.33-5.93,11l-6,11c-4,7.3-8.11,14.55-12.16,21.82s-8.19,14.49-12.34,21.7l-6.24,10.81c-2.11,3.58-4.19,7.18-6.32,10.75,2-3.68,4-7.34,5.93-11l6-10.95c4-7.29,8.11-14.54,12.16-21.82s8.2-14.48,12.35-21.69l6.23-10.81C18.63,895.8,20.71,892.19,22.84,888.63Z" transform="translate(222.87)"/><path class="cls-20" d="M-.65,888c.63,2.56,1.21,5.14,1.81,7.72s1.16,5.16,1.72,7.74C4,908.59,5.09,913.77,6.16,919l-.56-.38c4.65-1.21,9.3-2.42,14-3.56q3.49-.87,7-1.7c2.34-.53,4.68-1.1,7-1.6-2.3.72-4.62,1.38-6.92,2.07s-4.63,1.33-6.94,2c-4.63,1.3-9.28,2.55-13.92,3.78l-.46.13-.11-.51c-1-5.18-2.09-10.37-3.08-15.57-.5-2.6-1-5.2-1.46-7.81S-.22,890.57-.65,888Z" transform="translate(222.87)"/><path class="cls-20" d="M-11.24,906.76c.63,2.57,1.21,5.15,1.81,7.72s1.16,5.16,1.72,7.75c1.13,5.16,2.21,10.34,3.28,15.52l-.56-.37c4.65-1.22,9.3-2.42,14-3.57,2.33-.58,4.66-1.14,7-1.7s4.68-1.1,7-1.6c-2.3.72-4.62,1.38-6.92,2.07s-4.63,1.34-6.94,2c-4.63,1.3-9.28,2.55-13.92,3.79l-.46.12-.11-.5c-1-5.19-2.09-10.37-3.08-15.58-.5-2.59-1-5.2-1.46-7.8S-10.82,909.38-11.24,906.76Z" transform="translate(222.87)"/><path class="cls-20" d="M-21.83,925.56c.63,2.57,1.21,5.15,1.81,7.73s1.16,5.16,1.72,7.74c1.13,5.17,2.21,10.35,3.28,15.53l-.56-.38c4.65-1.22,9.3-2.42,14-3.57q3.5-.87,7-1.69c2.34-.54,4.68-1.1,7-1.61-2.3.73-4.62,1.39-6.92,2.08s-4.63,1.33-6.94,2c-4.63,1.3-9.28,2.55-13.92,3.78l-.46.12-.11-.5C-17,951.59-18,946.4-19,941.2c-.5-2.6-1-5.2-1.46-7.81S-21.41,928.18-21.83,925.56Z" transform="translate(222.87)"/><path class="cls-23" d="M116.9,976.15c0-32.34-24.33-58.57-54.34-58.57-28.6,0-52,23.82-54.17,54.06A63.1,63.1,0,0,0-16,980a63.83,63.83,0,0,0-43.24-17.09c-36.94,0-66.89,32.28-66.89,72.11s30,72.11,66.89,72.11a62.81,62.81,0,0,0,32.13-8.85,63.83,63.83,0,0,0,43.24,17.09c36.94,0,66.89-32.29,66.89-72.11a78.07,78.07,0,0,0-1-12.42C102.43,1022.4,116.9,1001.1,116.9,976.15Z" transform="translate(222.87)"/><path class="cls-24" d="M630,1043.65c8.18-21.47-1.34-46-21.27-54.84-19-8.41-40.56.52-49.63,20a44.46,44.46,0,0,0-18.29-1.6,49.4,49.4,0,0,0-24.38-24c-24.53-10.85-52.57,1.78-62.64,28.22s1.65,56.67,26.18,67.52a44.65,44.65,0,0,0,23.56,3.57,49.38,49.38,0,0,0,24.38,24c24.53,10.86,52.58-1.78,62.64-28.22a54.11,54.11,0,0,0,2.49-8.53C608.69,1070.1,623.68,1060.21,630,1043.65Z" transform="translate(222.87)"/><ellipse class="cls-25" cx="157.92" cy="1173.35" rx="137.62" ry="148.34"/><ellipse class="cls-26" cx="-1.56" cy="1183.78" rx="98.59" ry="66.33" transform="matrix(0.3, -0.96, 0.96, 0.3, -909.12, 832.4)"/><path class="cls-20" d="M26.1,1110.15c-1.54,4.7-3.15,9.38-4.72,14.07l-4.83,14c-3.23,9.35-6.55,18.66-9.82,28s-6.66,18.61-10,27.89l-5.11,13.92c-1.74,4.62-3.45,9.25-5.22,13.86,1.54-4.7,3.14-9.38,4.72-14.07l4.82-14c3.23-9.35,6.55-18.66,9.82-28s6.66-18.61,10.06-27.89L20.88,1124C22.62,1119.39,24.33,1114.76,26.1,1110.15Z" transform="translate(222.87)"/><path class="cls-20" d="M-1.21,1114.69c1.23,2.82,2.4,5.68,3.6,8.52s2.35,5.71,3.5,8.57q3.46,8.58,6.81,17.22l-.72-.31q7.71-3.69,15.46-7.29c2.59-1.2,5.18-2.37,7.78-3.54s5.19-2.33,7.81-3.45c-2.52,1.36-5.07,2.64-7.6,4s-5.09,2.58-7.64,3.85c-5.11,2.56-10.23,5-15.37,7.53l-.51.25-.21-.56c-2.23-5.76-4.44-11.52-6.6-17.32q-1.62-4.34-3.21-8.7C.86,1120.52-.21,1117.62-1.21,1114.69Z" transform="translate(222.87)"/><path class="cls-20" d="M-9.8,1138.84c1.23,2.82,2.4,5.68,3.6,8.52s2.35,5.7,3.5,8.57c2.32,5.72,4.57,11.46,6.81,17.22l-.72-.31c5.14-2.46,10.29-4.91,15.47-7.29q3.87-1.8,7.77-3.55c2.6-1.14,5.19-2.33,7.81-3.44-2.52,1.35-5.06,2.64-7.6,4s-5.09,2.59-7.64,3.86c-5.1,2.56-10.23,5-15.37,7.53l-.51.24-.21-.55q-3.34-8.64-6.6-17.32-1.62-4.33-3.2-8.7C-7.73,1144.67-8.8,1141.77-9.8,1138.84Z" transform="translate(222.87)"/><path class="cls-20" d="M-18.39,1163c1.24,2.83,2.4,5.68,3.6,8.52s2.35,5.71,3.5,8.57q3.48,8.58,6.82,17.22l-.73-.31c5.14-2.46,10.29-4.9,15.47-7.28q3.87-1.8,7.77-3.55c2.6-1.15,5.2-2.33,7.81-3.44-2.52,1.35-5.06,2.64-7.6,4s-5.08,2.59-7.64,3.86q-7.65,3.83-15.36,7.53l-.51.24-.22-.55q-3.34-8.64-6.6-17.32c-1.08-2.89-2.14-5.8-3.2-8.7S-17.38,1165.91-18.39,1163Z" transform="translate(222.87)"/><ellipse class="cls-27" cx="527.12" cy="1082.3" rx="42.88" ry="63.78" transform="translate(-66.8 197.94) rotate(-16.76)"/><path class="cls-20" d="M511.29,1033.84c1.12,3,2.2,6,3.3,9l3.23,9c2.15,6,4.23,12.07,6.35,18.1s4.16,12.1,6.2,18.16l3,9.11c1,3,2,6.07,3,9.13-1.12-3-2.2-6-3.3-9l-3.23-9c-2.14-6-4.23-12.07-6.35-18.1s-4.16-12.1-6.2-18.16l-3-9.11C513.28,1039.93,512.26,1036.89,511.29,1033.84Z" transform="translate(222.87)"/><path class="cls-20" d="M499.85,1048.64c1.72.8,3.42,1.65,5.13,2.47s3.41,1.69,5.1,2.54q5.09,2.56,10.14,5.21l-.47.18q2.26-5.34,4.6-10.66c.78-1.78,1.57-3.54,2.36-5.31s1.6-3.52,2.42-5.27c-.68,1.82-1.4,3.61-2.11,5.42s-1.44,3.61-2.17,5.4c-1.46,3.59-3,7.17-4.46,10.74l-.15.35-.33-.17c-3.36-1.76-6.73-3.54-10.07-5.35-1.67-.9-3.34-1.82-5-2.74S501.5,1049.6,499.85,1048.64Z" transform="translate(222.87)"/><path class="cls-20" d="M505.28,1064.31c1.72.8,3.42,1.65,5.13,2.47s3.4,1.68,5.09,2.54c3.4,1.71,6.77,3.45,10.14,5.21l-.47.18c1.52-3.56,3-7.12,4.6-10.67q1.17-2.65,2.36-5.3c.81-1.76,1.6-3.53,2.43-5.27-.69,1.81-1.41,3.61-2.12,5.42s-1.43,3.61-2.17,5.4c-1.46,3.59-3,7.17-4.46,10.74l-.15.35-.32-.17q-5.05-2.64-10.08-5.35c-1.67-.9-3.34-1.82-5-2.74S506.93,1065.27,505.28,1064.31Z" transform="translate(222.87)"/><path class="cls-20" d="M510.7,1080c1.72.8,3.42,1.65,5.13,2.47s3.4,1.68,5.1,2.54c3.39,1.71,6.76,3.45,10.14,5.21l-.48.18c1.52-3.56,3-7.12,4.61-10.67q1.15-2.65,2.36-5.3c.8-1.76,1.59-3.53,2.42-5.28-.69,1.82-1.41,3.62-2.11,5.43s-1.44,3.6-2.18,5.4q-2.19,5.38-4.46,10.74l-.15.35-.32-.17q-5.06-2.64-10.08-5.35-2.5-1.37-5-2.74C514,1081.85,512.35,1080.94,510.7,1080Z" transform="translate(222.87)"/><path class="cls-28" d="M362.1,1347c0,76.24-57.34,138-128.06,138-38.92,0-73.79-18.72-97.28-48.26a119.25,119.25,0,0,1-33.24,4.7c-70.72,0-128.06-61.8-128.06-138s57.34-138,128.06-138c38.92,0,73.79,18.72,97.28,48.26A119.62,119.62,0,0,1,234,1209C304.76,1209,362.1,1270.77,362.1,1347Z" transform="translate(222.87)"/><path class="cls-29" d="M783.36,1302.27c0,134.19-100.92,243-225.41,243s-225.4-108.77-225.4-243a262.2,262.2,0,0,1,4.2-46.92c-.83-.44-1.65-.9-2.45-1.37-.9,41.86-32.66,75.49-71.72,75.49-39.62,0-71.74-34.61-71.74-77.33s32.12-77.33,71.74-77.33a68,68,0,0,1,42.29,14.86c4.25-30,28.31-53,57.35-53a54.31,54.31,0,0,1,25.52,6.37c41.31-51.28,102.25-83.7,170.21-83.7C682.44,1059.3,783.36,1168.07,783.36,1302.27Z" transform="translate(222.87)"/><ellipse class="cls-30" cx="190.96" cy="1347" rx="172.84" ry="186.31"/><path class="cls-31" d="M435,465.79a30.51,30.51,0,0,1-2.23,14.37,5.93,5.93,0,0,1-5.4,3.76H282.94a6,6,0,0,1-5.42-3.81,29.28,29.28,0,0,1-2.23-11.25c0-15.19,11.42-27.5,25.52-27.5a24,24,0,0,1,13,3.85c.63-23.28,18.35-41.94,40.1-41.94,21.56,0,39.15,18.33,40.08,41.33A24.94,24.94,0,0,1,411.29,440C423.83,441.3,433.91,452.26,435,465.79Z" transform="translate(222.87)"/><path class="cls-32" d="M480.6,594.43a16,16,0,0,1-1.18,7.55,3.1,3.1,0,0,1-2.84,2H400.67a3.1,3.1,0,0,1-2.85-2,15.34,15.34,0,0,1-1.17-5.91c0-8,6-14.45,13.41-14.45a12.55,12.55,0,0,1,6.84,2c.34-12.23,9.65-22,21.08-22s20.58,9.64,21.06,21.72a13.09,13.09,0,0,1,9.08-2.42C474.71,581.56,480,587.32,480.6,594.43Z" transform="translate(222.87)"/><path class="cls-33" d="M728.7,1248.28c47.37,95.43,14,214.18-74.53,265.25-48.71,28.1-104,29.84-151.74,9.82a183.07,183.07,0,0,1-38.69,29.88c-88.53,51.06-198.7,15.1-246.07-80.33s-14-214.18,74.52-265.24c48.72-28.1,104-29.84,151.75-9.82A182.49,182.49,0,0,1,482.63,1168C571.16,1116.89,681.32,1152.86,728.7,1248.28Z" transform="translate(222.87)"/></g></g></g></svg>