<svg xmlns="http://www.w3.org/2000/svg" xmlns:xlink="http://www.w3.org/1999/xlink" viewBox="0 0 420.13 777.21"><defs><style>.cls-1{fill:url(#linear-gradient);}.cls-2{fill:url(#linear-gradient-2);}.cls-3{fill:url(#linear-gradient-3);}.cls-4{fill:url(#linear-gradient-4);}.cls-5{fill:url(#linear-gradient-5);}.cls-6{fill:url(#linear-gradient-6);}.cls-7{fill:url(#linear-gradient-7);}.cls-8{fill:url(#linear-gradient-8);}.cls-9{fill:url(#linear-gradient-9);}.cls-10{fill:url(#linear-gradient-10);}.cls-11{fill:url(#linear-gradient-11);}.cls-12{fill:url(#linear-gradient-12);}.cls-13{fill:url(#linear-gradient-13);}.cls-14{fill:url(#linear-gradient-14);}.cls-15{fill:url(#linear-gradient-15);}.cls-16{fill:url(#linear-gradient-16);}.cls-17{fill:url(#linear-gradient-17);}.cls-18{fill:url(#linear-gradient-18);}.cls-19{fill:url(#linear-gradient-19);}.cls-20{fill:url(#linear-gradient-20);}.cls-21{fill:url(#linear-gradient-21);}.cls-22{fill:url(#linear-gradient-22);}.cls-23{fill:url(#linear-gradient-23);}.cls-24{fill:url(#linear-gradient-24);}.cls-25{fill:url(#linear-gradient-25);}.cls-26{fill:url(#linear-gradient-26);}.cls-27{fill:url(#linear-gradient-27);}.cls-28{fill:url(#linear-gradient-28);}.cls-29{fill:url(#linear-gradient-29);}.cls-30{fill:url(#linear-gradient-30);}.cls-31{fill:url(#linear-gradient-31);}.cls-32{fill:url(#linear-gradient-32);}.cls-33{fill:url(#linear-gradient-33);}.cls-34{fill:url(#linear-gradient-34);}.cls-35{fill:url(#linear-gradient-35);}.cls-36{fill:url(#linear-gradient-36);}.cls-37{fill:url(#linear-gradient-37);}.cls-38{fill:url(#linear-gradient-38);}.cls-39{fill:url(#linear-gradient-39);}.cls-40{fill:url(#linear-gradient-40);}.cls-41{fill:url(#linear-gradient-41);}.cls-42{fill:url(#linear-gradient-42);}.cls-43{fill:url(#linear-gradient-43);}.cls-44{fill:url(#linear-gradient-44);}.cls-45{fill:url(#linear-gradient-45);}.cls-46{fill:url(#linear-gradient-46);}.cls-47{fill:url(#linear-gradient-47);}.cls-48{fill:url(#linear-gradient-48);}.cls-49{fill:url(#linear-gradient-49);}.cls-50{fill:url(#linear-gradient-50);}.cls-51{fill:url(#linear-gradient-51);}.cls-52{fill:url(#linear-gradient-52);}</style><linearGradient id="linear-gradient" x1="210.13" y1="680.13" x2="210.13" y2="9.81" gradientUnits="userSpaceOnUse"><stop offset="0" stop-color="#b3e4fa"/><stop offset="1" stop-color="#fff"/></linearGradient><linearGradient id="linear-gradient-2" x1="210.13" y1="493.68" x2="210.13" y2="770.05" xlink:href="#linear-gradient"/><linearGradient id="linear-gradient-3" x1="210.13" y1="642.99" x2="210.13" y2="774.66" xlink:href="#linear-gradient"/><linearGradient id="linear-gradient-4" x1="1166.13" y1="-1134.18" x2="1795.71" y2="-1134.18" gradientTransform="translate(-802.06 -1222.32) rotate(90)" gradientUnits="userSpaceOnUse"><stop offset="0" stop-color="#fff" stop-opacity="0.05"/><stop offset="1" stop-color="#fff" stop-opacity="0.2"/></linearGradient><linearGradient id="linear-gradient-5" x1="1166.19" y1="-1031.63" x2="1795.65" y2="-1031.63" xlink:href="#linear-gradient-4"/><linearGradient id="linear-gradient-6" x1="1168.35" y1="-1133.11" x2="1795.61" y2="-1133.11" xlink:href="#linear-gradient-4"/><linearGradient id="linear-gradient-7" x1="1166.45" y1="-1118.3" x2="1795.36" y2="-1118.3" xlink:href="#linear-gradient-4"/><linearGradient id="linear-gradient-8" x1="1168.94" y1="-1031.69" x2="1795.34" y2="-1031.69" xlink:href="#linear-gradient-4"/><linearGradient id="linear-gradient-9" x1="1169.96" y1="-1065.88" x2="1795.53" y2="-1065.88" xlink:href="#linear-gradient-4"/><linearGradient id="linear-gradient-10" x1="1170.66" y1="-1145.24" x2="1795.6" y2="-1145.24" xlink:href="#linear-gradient-4"/><linearGradient id="linear-gradient-11" x1="1170.93" y1="-1031.59" x2="1795.77" y2="-1031.59" xlink:href="#linear-gradient-4"/><linearGradient id="linear-gradient-12" x1="1171.67" y1="-1174.78" x2="1795.79" y2="-1174.78" xlink:href="#linear-gradient-4"/><linearGradient id="linear-gradient-13" x1="1168.11" y1="-1107.79" x2="1793.49" y2="-1107.79" xlink:href="#linear-gradient-4"/><linearGradient id="linear-gradient-14" x1="1168.11" y1="-992.61" x2="1793.49" y2="-992.61" xlink:href="#linear-gradient-4"/><linearGradient id="linear-gradient-15" x1="1184.45" y1="-1048.76" x2="1794.44" y2="-1048.76" xlink:href="#linear-gradient-4"/><linearGradient id="linear-gradient-16" x1="27.69" y1="249.65" x2="63.26" y2="249.65" gradientTransform="matrix(1, 0, 0, 1, 0, 0)" xlink:href="#linear-gradient-4"/><linearGradient id="linear-gradient-17" x1="1169.83" y1="-827.67" x2="1799.8" y2="-827.67" xlink:href="#linear-gradient-4"/><linearGradient id="linear-gradient-18" x1="1169.95" y1="-807.96" x2="1799.66" y2="-807.96" xlink:href="#linear-gradient-4"/><linearGradient id="linear-gradient-19" x1="1166.04" y1="-944.16" x2="1795.81" y2="-944.16" xlink:href="#linear-gradient-4"/><linearGradient id="linear-gradient-20" x1="1172.26" y1="-888.19" x2="1799.48" y2="-888.19" xlink:href="#linear-gradient-4"/><linearGradient id="linear-gradient-21" x1="1168.94" y1="-977.26" x2="1795.33" y2="-977.26" xlink:href="#linear-gradient-4"/><linearGradient id="linear-gradient-22" x1="1169.96" y1="-948.71" x2="1795.53" y2="-948.71" xlink:href="#linear-gradient-4"/><linearGradient id="linear-gradient-23" x1="1174.54" y1="-880.64" x2="1799.48" y2="-880.64" xlink:href="#linear-gradient-4"/><linearGradient id="linear-gradient-24" x1="1170.93" y1="-977.35" x2="1795.76" y2="-977.35" xlink:href="#linear-gradient-4"/><linearGradient id="linear-gradient-25" x1="1175.63" y1="-852.51" x2="1799.66" y2="-852.51" xlink:href="#linear-gradient-4"/><linearGradient id="linear-gradient-26" x1="1184.44" y1="-959.83" x2="1794.44" y2="-959.83" xlink:href="#linear-gradient-4"/><linearGradient id="linear-gradient-27" x1="366.52" y1="247.75" x2="402.06" y2="247.75" gradientTransform="matrix(1, 0, 0, 1, 0, 0)" xlink:href="#linear-gradient-4"/><linearGradient id="linear-gradient-28" x1="1165.95" y1="-1199.62" x2="1795.92" y2="-1199.62" xlink:href="#linear-gradient-4"/><linearGradient id="linear-gradient-29" x1="1166.07" y1="-1216.15" x2="1795.77" y2="-1216.15" xlink:href="#linear-gradient-4"/><linearGradient id="linear-gradient-30" x1="1166.04" y1="-1083.13" x2="1795.81" y2="-1083.13" xlink:href="#linear-gradient-4"/><linearGradient id="linear-gradient-31" x1="1184.07" y1="-1134.6" x2="1742.33" y2="-1134.6" xlink:href="#linear-gradient-4"/><linearGradient id="linear-gradient-32" x1="1166.33" y1="-1031.69" x2="1792.72" y2="-1031.69" xlink:href="#linear-gradient-4"/><linearGradient id="linear-gradient-33" x1="251.29" y1="26.65" x2="352.88" y2="26.65" gradientTransform="matrix(1, 0, 0, 1, 0, 0)" xlink:href="#linear-gradient-4"/><linearGradient id="linear-gradient-34" x1="342.3" y1="15.49" x2="353.46" y2="15.49" gradientTransform="matrix(1, 0, 0, 1, 0, 0)" xlink:href="#linear-gradient-4"/><linearGradient id="linear-gradient-35" x1="1223.27" y1="-1039.2" x2="1316.15" y2="-1039.2" xlink:href="#linear-gradient-4"/><linearGradient id="linear-gradient-36" x1="1166.57" y1="-1010.77" x2="1795.23" y2="-1010.77" xlink:href="#linear-gradient-4"/><linearGradient id="linear-gradient-37" x1="1170.01" y1="-893.11" x2="1799.59" y2="-893.11" xlink:href="#linear-gradient-4"/><linearGradient id="linear-gradient-38" x1="1166.18" y1="-977.32" x2="1795.65" y2="-977.32" xlink:href="#linear-gradient-4"/><linearGradient id="linear-gradient-39" x1="1182.58" y1="-886.7" x2="1761.5" y2="-886.7" xlink:href="#linear-gradient-4"/><linearGradient id="linear-gradient-40" x1="1170.32" y1="-908.63" x2="1799.24" y2="-908.63" xlink:href="#linear-gradient-4"/><linearGradient id="linear-gradient-41" x1="1166.33" y1="-977.26" x2="1792.72" y2="-977.26" xlink:href="#linear-gradient-4"/><linearGradient id="linear-gradient-42" x1="137.07" y1="26.69" x2="238.73" y2="26.69" gradientTransform="matrix(1, 0, 0, 1, 0, 0)" xlink:href="#linear-gradient-4"/><linearGradient id="linear-gradient-43" x1="77.67" y1="17.47" x2="88.75" y2="17.47" gradientTransform="matrix(1, 0, 0, 1, 0, 0)" xlink:href="#linear-gradient-4"/><linearGradient id="linear-gradient-44" x1="1174.54" y1="-915.91" x2="1799.48" y2="-915.91" xlink:href="#linear-gradient-4"/><linearGradient id="linear-gradient-45" x1="112.94" y1="17.47" x2="124.02" y2="17.47" gradientTransform="matrix(1, 0, 0, 1, 0, 0)" xlink:href="#linear-gradient-4"/><linearGradient id="linear-gradient-46" x1="1174.54" y1="-1004.44" x2="1799.48" y2="-1004.44" xlink:href="#linear-gradient-4"/><linearGradient id="linear-gradient-47" x1="201.47" y1="17.47" x2="212.55" y2="17.47" gradientTransform="matrix(1, 0, 0, 1, 0, 0)" xlink:href="#linear-gradient-4"/><linearGradient id="linear-gradient-48" x1="1174.54" y1="-1099.68" x2="1799.48" y2="-1099.68" xlink:href="#linear-gradient-4"/><linearGradient id="linear-gradient-49" x1="296.7" y1="17.47" x2="307.78" y2="17.47" gradientTransform="matrix(1, 0, 0, 1, 0, 0)" xlink:href="#linear-gradient-4"/><linearGradient id="linear-gradient-50" x1="1223.27" y1="-969.75" x2="1316.77" y2="-969.75" xlink:href="#linear-gradient-4"/><linearGradient id="linear-gradient-51" x1="1222.71" y1="-860.28" x2="1235.44" y2="-860.28" xlink:href="#linear-gradient-4"/><linearGradient id="linear-gradient-52" x1="1168.12" y1="-922.67" x2="1793.49" y2="-922.67" xlink:href="#linear-gradient-4"/></defs><g id="Layer_2" data-name="Layer 2"><g id="Layer_2-2" data-name="Layer 2"><rect class="cls-1" x="0.13" width="420" height="777"/><path class="cls-2" d="M420.13,711v66.26H.13V711c46.94-69,123.51-114,210-114S373.19,641.94,420.13,711Z"/><path class="cls-3" d="M420.13,776.88v.33H.13v-.33c46.94-69,123.51-114,210-114S373.19,707.87,420.13,776.88Z"/><path class="cls-4" d="M317.67,405a3.1,3.1,0,0,1,1.54-2.79,2.8,2.8,0,0,0,1.49-2.93v-.08c0-3.79,0-7.57,0-11.36,0-5.09,0-10.36,0-15.55v0a4,4,0,0,1,1.27-3.1c3.72-3.68,7.48-7.44,11.12-11.08s7.28-7.28,10.94-10.9a4.44,4.44,0,0,0,1.41-3.47c0-16.38,0-33.37,0-50.48q0-24.19,0-48.39v-.08l0-.07a1.3,1.3,0,0,1-.08-.5,6.67,6.67,0,0,1,.06-.75c0-.21.05-.41.06-.59v-3.92c0-.2,0-.4-.06-.61a6.49,6.49,0,0,1-.06-.75,1.3,1.3,0,0,1,.08-.5l0-.07v-.08q0-24.2,0-48.38c0-17.12,0-34.11,0-50.48a4.5,4.5,0,0,0-1.41-3.48c-3.66-3.62-7.36-7.32-10.94-10.9s-7.4-7.4-11.12-11.08a4,4,0,0,1-1.27-3.1v0c0-5.19,0-10.45,0-15.55,0-3.79,0-7.57,0-11.36v-.08a2.8,2.8,0,0,0-1.49-2.93,3.1,3.1,0,0,1-1.54-2.78,3.74,3.74,0,0,1,.18-1.15,3.51,3.51,0,0,1,3.42-2.47,3.65,3.65,0,0,1,3.57,3.63,3.15,3.15,0,0,1-1.61,2.81,2.72,2.72,0,0,0-1.45,2.79v0q0,6.54,0,13.1c0,4.84,0,9.23,0,13.43v0a4.24,4.24,0,0,0,1.41,3.27c3.38,3.35,6.8,6.78,10.1,10.08,3.91,3.91,8,8,12,11.91a4,4,0,0,1,1.28,3.12c0,11.11,0,22,0,31.28v37.28c0,9.78,0,20.3,0,31v.09l0,.07a1.17,1.17,0,0,1,.08.47,4.87,4.87,0,0,1-.07.75c0,.18,0,.35-.05.51v4.18c0,.18,0,.35.05.53a5.11,5.11,0,0,1,.07.75,1.17,1.17,0,0,1-.08.47l0,.08v.08c0,10.68,0,21.19,0,31v37.28c0,9.23,0,20.17,0,31.27a4,4,0,0,1-1.28,3.13c-4,4-8,8-11.94,11.9-3.31,3.31-6.73,6.74-10.11,10.09a4.24,4.24,0,0,0-1.41,3.27v0c0,4.2,0,8.6,0,13.43q0,6.56,0,13.11v0a2.72,2.72,0,0,0,1.45,2.79,3.17,3.17,0,0,1,1.61,2.82,3.38,3.38,0,0,1-.23,1.25,3.43,3.43,0,0,1-3.34,2.38,3.53,3.53,0,0,1-3.42-2.48A3.67,3.67,0,0,1,317.67,405Z"/><path class="cls-5" d="M237.73,292.87q0-24.15,0-48.3v-.08a2.25,2.25,0,0,0,0-.4c0-.17,0-.35,0-.51s0-.25,0-.38v-4.76c0-.12,0-.24,0-.37s0-.34,0-.51a2.37,2.37,0,0,0,0-.41v-.07q0-24.15,0-48.3V159c0-7.06,0-15,0-23.24,0-3.74,0-7.54,0-11.36a4.49,4.49,0,0,0-1.52-3.58c-1.82-1.74-3.62-3.55-5.36-5.3-1.37-1.37-2.79-2.79-4.2-4.17a3.64,3.64,0,0,1-1.19-2.79v0c0-1.73,0-3.5,0-5.41,0-2.12,0-4.38,0-6.93v0A2.24,2.24,0,0,1,226.7,94,3.42,3.42,0,0,0,228.54,91a3.57,3.57,0,0,0-7-1.14,3.87,3.87,0,0,0-.18,1.14,3.34,3.34,0,0,0,1.74,2.89,2.39,2.39,0,0,1,1.23,2.36v0c0,.58,0,1.15,0,1.73,0,1.11,0,2.22,0,3.33s0,2.22,0,3.33c0,1.6,0,2.91,0,4.14v.1a3.72,3.72,0,0,0,1.24,2.89c1.37,1.34,2.75,2.72,4.08,4.06,1.69,1.7,3.44,3.46,5.2,5.15a5.21,5.21,0,0,1,1.74,4.1c0,3.46,0,6.91,0,10.38,0,7.7,0,15.46,0,23.51v78.1a1.92,1.92,0,0,0,0,.38,5.27,5.27,0,0,0,0,.56v5.52a5.46,5.46,0,0,0,0,.56,2,2,0,0,0,0,.39v47.32c0,24,0,44.24,0,64.68a5.23,5.23,0,0,1-1.74,4.09c-1.76,1.68-3.51,3.45-5.2,5.15-1.33,1.34-2.71,2.72-4.08,4.06a3.72,3.72,0,0,0-1.24,2.89v.09c0,1.24,0,2.55,0,4.14,0,1.11,0,2.23,0,3.34s0,2.22,0,3.33c0,.57,0,1.15,0,1.72v.05a2.39,2.39,0,0,1-1.23,2.36,3.33,3.33,0,0,0-1.74,2.89,3.75,3.75,0,0,0,.18,1.13,3.54,3.54,0,0,0,6.83-.11,3.65,3.65,0,0,0,.15-1,3.45,3.45,0,0,0-1.84-3,2.23,2.23,0,0,1-1.21-2.18v0c0-2.55,0-4.82,0-6.94,0-1.9,0-3.67,0-5.4v-.06a3.63,3.63,0,0,1,1.19-2.78c1.41-1.38,2.82-2.8,4.19-4.17,1.75-1.75,3.55-3.56,5.37-5.3a4.5,4.5,0,0,0,1.52-3.6c0-12.3,0-24.49,0-34.79ZM223,93a2.83,2.83,0,0,1-.9-2v-.1a2.83,2.83,0,0,1,2.72-2.8,2.87,2.87,0,0,1,2.93,2.71v.1a2.83,2.83,0,0,1-2.73,2.79A2.79,2.79,0,0,1,223,93Zm4.75,297.8v.1a2.87,2.87,0,0,1-2.93,2.71,2.83,2.83,0,0,1-2.72-2.8v-.11a2.82,2.82,0,0,1,2.92-2.7A2.85,2.85,0,0,1,227.79,390.75Z"/><path class="cls-6" d="M339.21,418.47V377.08c0-.62,0-1.23,0-1.84a.86.86,0,0,0-.18-.63.58.58,0,0,0-.4-.11c-.12,0-.48,0-.49.69s0,1.1,0,1.65V398.1c0,10.13,0,22.11,0,34.2a4,4,0,0,1-1.28,3.15c-1.33,1.29-2.66,2.63-3.95,3.93-1.69,1.7-3.44,3.47-5.21,5.15a5.34,5.34,0,0,0-1.86,4.3v.07c.05,6.57.06,13,.06,19v17.56a2.7,2.7,0,0,1-1.44,2.81,3.14,3.14,0,0,0-1.6,2.79,3.5,3.5,0,0,0,.24,1.28,3.6,3.6,0,0,0,1.34,1.78,3.61,3.61,0,0,0,5.42-1.88c0-.14.08-.28.11-.42a3.51,3.51,0,0,0,.07-.72,3.24,3.24,0,0,0-1.7-2.9,2.44,2.44,0,0,1-1.34-2.52q0-8.89,0-17.8,0-9.7,0-19.41h0a3.46,3.46,0,0,1,1.1-2.67c1.48-1.44,3-2.93,4.39-4.37,1.81-1.81,3.67-3.68,5.55-5.49a3.72,3.72,0,0,0,1.2-2.94v0C339.22,428.76,339.21,424.31,339.21,418.47Zm-9.93,72.64c0,.1,0,.2,0,.3a2.59,2.59,0,0,1-.2.75,2.82,2.82,0,0,1-2.9,1.73,2.86,2.86,0,0,1-.79-.19,2.76,2.76,0,0,1-1.7-2.6,2.64,2.64,0,0,1,0-.28,2.74,2.74,0,0,1,1-1.9,2.67,2.67,0,0,1,2-.6A2.87,2.87,0,0,1,329.28,491.11Z"/><path class="cls-7" d="M324.41,244.63a1.34,1.34,0,0,0,0-.38c0-.19,0-.39,0-.59s0-.18,0-.3v-5.1l0-.28c0-.19,0-.4,0-.58a1.41,1.41,0,0,0,0-.39l0,0v-.05c0-3.09,0-6.17,0-9.26,0,0,0-21.58,0-23.73,0-3.74,0-8.69,0-13.75a3.3,3.3,0,0,0-1.08-2.62c-1.79-1.74-3.58-3.54-5.32-5.28-1.5-1.51-3.07-3.08-4.62-4.6a3.61,3.61,0,0,1-1.22-2.81q0-7.92,0-15.84v-.11q0-10.64,0-21.29a2.51,2.51,0,0,1,1.37-2.49,3.42,3.42,0,0,0,1.68-2.95,3.5,3.5,0,0,0-.19-1.11,3.64,3.64,0,0,0-3.46-2.44,3.52,3.52,0,0,0-2.22.8,3.63,3.63,0,0,0-1.09,1.62,3.7,3.7,0,0,0-.22,1.22,3.26,3.26,0,0,0,1.67,2.84,2.63,2.63,0,0,1,1.14,1.16,3.6,3.6,0,0,1,.26,1.51q0,7.89,0,15.76c0,1.81,0,3.64,0,5.48,0,5.3,0,10.68,0,16a4.11,4.11,0,0,0,1.39,3.24c1.67,1.61,3.33,3.28,4.94,4.89s3.06,3.07,4.61,4.58a4.21,4.21,0,0,1,1.35,3.32c0,8.14,0,16.58,0,25.79q0,10,0,20V237l0,.06a1.14,1.14,0,0,0-.05.41c0,.19,0,.39,0,.59l0,.42v4.81l0,.39c0,.2,0,.41,0,.6a1.17,1.17,0,0,0,.05.41l0,.06v.06q0,10,0,20v0c0,9.2,0,17.62,0,25.76a4.21,4.21,0,0,1-1.35,3.31c-1.55,1.5-3.11,3.06-4.61,4.57s-3.27,3.29-4.94,4.9a4.13,4.13,0,0,0-1.39,3.27c0,7.16,0,14.44,0,21.48,0,5.25,0,10.5,0,15.78a2.64,2.64,0,0,1-1.4,2.65,3.23,3.23,0,0,0-1.67,2.83,3.75,3.75,0,0,0,.22,1.23,3.44,3.44,0,0,0,3.31,2.42,3.64,3.64,0,0,0,3.46-2.44,3.5,3.5,0,0,0,.19-1.11,3.39,3.39,0,0,0-1.68-3,2.53,2.53,0,0,1-1.37-2.51q0-10.63,0-21.27,0-8,0-16a3.62,3.62,0,0,1,1.22-2.8c1.55-1.52,3.12-3.08,4.63-4.6,1.73-1.73,3.52-3.53,5.31-5.27a3.33,3.33,0,0,0,1.08-2.65c0-5,0-10,0-13.72,0-2.15,0-23.74,0-23.74,0-3.08,0-6.17,0-9.25v-.06ZM308.86,132.17a2.81,2.81,0,0,1,.83-2,2.49,2.49,0,0,1,.52-.4h0a2.72,2.72,0,0,1,1.45-.39,2.87,2.87,0,0,1,2.81,2.79v0a2.44,2.44,0,0,1-.05.48,2.78,2.78,0,0,1-2.79,2.28A2.7,2.7,0,0,1,308.86,132.17Zm5.61,217.27v0a2.87,2.87,0,0,1-2.81,2.8,2.74,2.74,0,0,1-2-.79,2.79,2.79,0,0,1-.84-2,2.7,2.7,0,0,1,2.77-2.79A2.78,2.78,0,0,1,314.47,349.44Z"/><path class="cls-8" d="M221.41,468.61A3.05,3.05,0,0,1,222.8,466a3.47,3.47,0,0,0,1.65-3.43v-.05q0-8.61,0-17.21c0-6.38,0-13,0-19.46a4,4,0,0,1,1.28-3.15c1.69-1.62,3.37-3.31,5-4.95s3.11-3.12,4.69-4.65a4.2,4.2,0,0,0,1.35-3.29c0-5.27,0-10.64,0-16.46,0-5.29,0-10.89,0-17.11h0a4,4,0,0,0-.05-.59c0-.2,0-.41,0-.6,0-.51.14-.67.6-.67a.66.66,0,0,1,.47.13.88.88,0,0,1,.15.61,5.21,5.21,0,0,1,0,.55,5.32,5.32,0,0,0,0,.54c0,2.56,0,5.27,0,8.82v8.52c0,1.5,0,3,0,4.49s0,3.12,0,4.67c0,3,0,5.41.05,7.62v.09a4,4,0,0,1-1.39,3.18c-1.66,1.61-3.32,3.27-4.92,4.89-1.47,1.47-3,3-4.49,4.46a4.4,4.4,0,0,0-1.48,3.43c0,5.74,0,11.79,0,18.51q0,9,0,18h0a2.92,2.92,0,0,0,1.51,3,3.09,3.09,0,0,1,1.53,2.73,3.68,3.68,0,0,1-.88,2.37,3.56,3.56,0,0,1-2.57,1.28,3.48,3.48,0,0,1-2.64-1,3.73,3.73,0,0,1-1.11-2.63Z"/><path class="cls-9" d="M255.63,452.22V452c0-1.27.06-2.65.06-4.34,0-1,0-1.95,0-2.93s0-1.95,0-2.92V436q0-3.06,0-6.12h0c0-.11,0-.2,0-.29v-.29a.93.93,0,0,1,.14-.62.56.56,0,0,1,.41-.12c.44,0,.59.14.59.94v4.24c0,2.69,0,5.39,0,8.08,0,3.92,0,7.15,0,10.17v0a4,4,0,0,0,1.32,3.11c1.51,1.48,3,3,4.5,4.48,1.68,1.69,3.42,3.44,5.17,5.13a3.87,3.87,0,0,1,1.26,3.1c0,6.5,0,13.07,0,19.43q0,7.35,0,14.69a2.8,2.8,0,0,0,1.46,2.83,3.14,3.14,0,0,1,1.55,2.77,3.64,3.64,0,0,1-3.61,3.64,3.52,3.52,0,0,1-3.38-2.52,3.85,3.85,0,0,1-.16-1.1,3.19,3.19,0,0,1,1.72-2.92,2.39,2.39,0,0,0,1.34-2.5q0-8.4,0-16.77c0-6.25,0-11.86,0-17.15a3.83,3.83,0,0,0-1.24-3c-1.36-1.33-2.73-2.71-4-4-1.79-1.8-3.64-3.66-5.51-5.44A4.46,4.46,0,0,1,255.63,452.22Z"/><path class="cls-10" d="M339.59,521.1a3.15,3.15,0,0,1,1.63-2.81,2.7,2.7,0,0,0,1.44-2.82q0-13.75,0-27.48c0-12.61,0-24.06,0-35a6.18,6.18,0,0,0-.06-.71,6.58,6.58,0,0,1-.07-.74.73.73,0,0,1,.16-.56.67.67,0,0,1,.52-.13c.41,0,.64.14.64.78a6.5,6.5,0,0,1-.06.74,6.18,6.18,0,0,0-.06.71c0,6.36,0,12.69,0,17.49v27.32c0,5.18,0,11.31,0,17.48v0a2.86,2.86,0,0,0,1.5,3,3,3,0,0,1,1.52,2.72,3.84,3.84,0,0,1-.2,1.21,3.51,3.51,0,0,1-3.45,2.44,3.34,3.34,0,0,1-3.3-2.4,3.55,3.55,0,0,1-.23-1.25Z"/><path class="cls-11" d="M237.72,484.08V482c0-.59,0-1.18,0-1.77h0V475.4c0-.8,0-1.6,0-2.4,0-.49,0-1,0-1.46a1.07,1.07,0,0,0-.22-.77.53.53,0,0,0-.42-.11c-.31,0-.46.16-.5.9,0,.24,0,.47,0,.7V473c0,1.13,0,2.26,0,3.38v4.2c0,2.28,0,4.15,0,5.88v.05a3.66,3.66,0,0,1-1.18,2.79c-1.44,1.41-2.88,2.86-4.28,4.26-1.79,1.81-3.65,3.68-5.51,5.48a4.07,4.07,0,0,0-1.16,1.81,5.26,5.26,0,0,0-.19,1.5c0,2,0,4.06,0,6.09,0,2.48,0,5,0,7.42v5.21q0,6.1,0,12.23v.93a2.6,2.6,0,0,1-1.38,2.66,3.07,3.07,0,0,0-1.59,2.75,3.55,3.55,0,0,0,.19,1.15,3.55,3.55,0,0,0,6.78.07,3.92,3.92,0,0,0,.19-1.21,3.1,3.1,0,0,0-1.66-2.82,2.43,2.43,0,0,1-1.19-1.22,3.68,3.68,0,0,1-.22-1.45V533q0-7.15,0-14.31V515.8c0-2.47,0-4.93,0-7.36,0-2.07,0-4.13,0-6.15a3.42,3.42,0,0,1,.22-1.27,3.52,3.52,0,0,1,.84-1.22c1.66-1.64,3.34-3.32,5-4.95s3.54-3.55,5.33-5.32a2.92,2.92,0,0,0,1-2.23v-.1C237.73,486.28,237.72,485.29,237.72,484.08Zm-10,55.69h0a2.76,2.76,0,0,1-.81,2,2.85,2.85,0,0,1-4.84-2,2.79,2.79,0,0,1,.85-2,2.8,2.8,0,0,1,4.8,2Z"/><path class="cls-12" d="M379,541.7a2.83,2.83,0,0,1-.55-.3,2,2,0,0,1-.84-1.83,1.69,1.69,0,0,1,0-.23v-.08c0-1.63,0-3.25,0-4.87V529.8c0-2.36,0-5.13,0-7.86v-.05a3.08,3.08,0,0,0-1-2.37l-.07-.07c-1.46-1.43-2.93-2.9-4.36-4.33l-.44-.44-3.1-3.1-2-2a3.78,3.78,0,0,1-1.23-3v-.33c0-3,0-6.18,0-9.86q0-4.47,0-8.94v-1.92c0-.12,0-.25,0-.38s0-.26,0-.39a.88.88,0,0,0-.14-.59.72.72,0,0,0-.45-.11l-.27,0h0a.4.4,0,0,0-.25.34h0a1.45,1.45,0,0,0,0,.32c0,.14,0,.27,0,.4s0,.28,0,.42h0c0,.71,0,1.43,0,2.14,0,1,0,2,0,3v8.73c0,1,0,2,0,3,0,1.89,0,3.42,0,4.82v.21a3.06,3.06,0,0,0,1,2.28l2.4,2.37,2.94,3,.29.29c1.45,1.46,2.94,2.95,4.42,4.4a3.4,3.4,0,0,1,1,1.81h0a3.53,3.53,0,0,1,.09.81v0c0,2.6,0,5.36,0,8.45,0,2.86,0,5.72,0,8.61v.09a2.41,2.41,0,0,1-1.1,2.25,3.5,3.5,0,0,0-1.4,1.77,3,3,0,0,0-.18,1,3.78,3.78,0,0,0,.31,1.48,3.45,3.45,0,0,0,3.62,2.14,3.35,3.35,0,0,0,3.1-2.66,3.81,3.81,0,0,0,.13-1A3.21,3.21,0,0,0,379,541.7Zm1.24,3.16a2.8,2.8,0,0,1-5.6,0,2.82,2.82,0,0,1,.63-1.76h0l.2-.21a2.77,2.77,0,0,1,1.71-.8h.28a2.77,2.77,0,0,1,2.78,2.8Z"/><path class="cls-13" d="M302.16,277.09a3.19,3.19,0,0,1,1.58-2.78,2.75,2.75,0,0,0,1.45-2.79c0-5.15,0-10.59,0-17.69v-26c0-7.1,0-12.54,0-17.66h0a2.77,2.77,0,0,0-1.45-2.82,3.12,3.12,0,0,1-1.58-2.78,3.6,3.6,0,0,1,.24-1.29,3.4,3.4,0,0,1,3.34-2.35,3.57,3.57,0,0,1,3.41,2.47,4,4,0,0,1,.17,1.13,3.24,3.24,0,0,1-1.69,2.92,2.47,2.47,0,0,0-1.36,2.59v.08q0,4,0,8v45.53q0,4,0,8v.08a2.48,2.48,0,0,0,1.36,2.6,3.21,3.21,0,0,1,1.69,2.91,4,4,0,0,1-.17,1.13,3.59,3.59,0,0,1-3.41,2.48,3.41,3.41,0,0,1-3.34-2.36,3.6,3.6,0,0,1-.24-1.29Z"/><path class="cls-14" d="M187,277.09a3.17,3.17,0,0,1,1.59-2.78,2.76,2.76,0,0,0,1.44-2.79c0-5.15,0-10.59,0-17.69v-26c0-7.1,0-12.54,0-17.66h0a2.78,2.78,0,0,0-1.44-2.82,3.13,3.13,0,0,1-1.59-2.78,3.6,3.6,0,0,1,.24-1.29,3.4,3.4,0,0,1,3.34-2.35,3.56,3.56,0,0,1,3.41,2.47,4,4,0,0,1,.17,1.13,3.24,3.24,0,0,1-1.69,2.92,2.47,2.47,0,0,0-1.36,2.59v.08q0,4,0,8v45.53q0,4,0,8v.08a2.48,2.48,0,0,0,1.36,2.6,3.21,3.21,0,0,1,1.69,2.91,4,4,0,0,1-.17,1.13,3.58,3.58,0,0,1-3.41,2.48,3.41,3.41,0,0,1-3.34-2.36,3.6,3.6,0,0,1-.24-1.29Z"/><path class="cls-15" d="M243.09,521.11a3,3,0,0,1,1.42-2.63,3.23,3.23,0,0,0,1.65-3.23V515c0-1.07,0-2.14,0-3.2,0-1.39,0-2.78,0-4.17,0-.73,0-2.18,0-2.18a1.93,1.93,0,0,0,0-.25V505h0c0-.62.14-.73.46-.75a.54.54,0,0,1,.45.1c.2.18.2.69.21,1.09V513c0,.47,0,.93,0,1.39v.5a3.87,3.87,0,0,0,1.85,3.82,2.63,2.63,0,0,1,1.21,2.32,3.89,3.89,0,0,1-1.22,2.76,3.53,3.53,0,0,1-5.08-.24A3.74,3.74,0,0,1,243.09,521.11Z"/><path class="cls-16" d="M47.89,121.75a4.19,4.19,0,0,0-1.36,3.31c0,29,0,58.55,0,87.09v14q0,6.78,0,13.55v10q0,6.78,0,13.55v14c0,28.55,0,58.06,0,87.09a4.19,4.19,0,0,0,1.36,3.32c1.66,1.62,3.33,3.29,4.94,4.91s3.23,3.23,4.87,4.83a3.55,3.55,0,0,1,1.13,2.82q0,22,0,44.09V432c0,12.92,0,25.65,0,37.94a3.79,3.79,0,0,1-1.25,3l-1.69,1.68-5.66,5.63L48,482.51l-2.23,2.24-.84.84-.88.88-.51.51-.33.33h0l-1.77,1.77-1,1-.48.47-1,1-.79.79-.07.07a2.9,2.9,0,0,0-.94,1.38,1.59,1.59,0,0,0-.07.5,2.74,2.74,0,0,0,.06.56,4.07,4.07,0,0,1,.09.84,3.38,3.38,0,0,1-2.09,3.15,3.14,3.14,0,0,1-.83.24A3.57,3.57,0,0,1,31,497.89l-.07-.08h0a3.49,3.49,0,0,1-.82-2.23,3.52,3.52,0,0,1,.45-1.68.75.75,0,0,1,.1-.2,3.36,3.36,0,0,1,4.05-1.5,2.26,2.26,0,0,0,2.75-.75l5.79-5.81h0l.77-.77h0C48,480.9,51.51,477.36,54.87,474l1.74-1.72a3.45,3.45,0,0,0,1.11-2.67q0-19.12,0-38.21V424.8q0-22.1,0-44.18a3.63,3.63,0,0,0-1.22-2.81c-1.34-1.31-2.68-2.66-4-4-1.81-1.82-3.69-3.71-5.58-5.51a4.69,4.69,0,0,1-1.58-3.73c0-12.75,0-25.5,0-36.3V161.11c0-10.8,0-23.56,0-36.28A4.69,4.69,0,0,1,47,121.08c1.89-1.81,3.77-3.7,5.58-5.52,1.3-1.31,2.63-2.65,4-4a3.63,3.63,0,0,0,1.22-2.81q0-22.1,0-44.18,0-22.41,0-44.82a3.45,3.45,0,0,0-1.11-2.67c-5-5-10.46-10.42-16.93-16.93h1.57c.74.73,1.46,1.46,2.19,2.19C48.07,7,52.85,11.8,57.58,16.49a3.79,3.79,0,0,1,1.25,3c0,14.73,0,30.09,0,45.66q0,22,0,44.08A3.57,3.57,0,0,1,57.7,112c-1.64,1.59-3.28,3.24-4.87,4.83S49.55,120.13,47.89,121.75Z"/><path class="cls-17" d="M17.29,478.22A3.51,3.51,0,0,1,22,474.94a1.94,1.94,0,0,0,2.27-.61c2.31-2.36,4.71-4.81,7.16-7.15a4.14,4.14,0,0,0,1.38-3.3q0-17.52,0-35c0-13.75,0-28.19,0-42.9a3.63,3.63,0,0,0-1.18-2.83c-1.46-1.43-2.92-2.89-4.34-4.31-1.78-1.79-3.63-3.64-5.48-5.42a4.11,4.11,0,0,1-1.37-3.28c0-13.62,0-27.08,0-38.46V285.72q0-20.5,0-41c0-13.67,0-61.82,0-61.82V157.77c0-11.38,0-24.85,0-38.46A4.12,4.12,0,0,1,21.85,116c1.85-1.78,3.7-3.63,5.48-5.42,1.42-1.42,2.88-2.88,4.34-4.31a3.61,3.61,0,0,0,1.18-2.82c0-14.72,0-29.16,0-42.91q0-17.52,0-35a4.14,4.14,0,0,0-1.38-3.31c-2.46-2.35-4.85-4.79-7.16-7.15A2,2,0,0,0,22,14.46a3.51,3.51,0,0,1-4.75-3.28,3.66,3.66,0,0,1,.89-2.39,3.59,3.59,0,0,1,4.13-.89A3.33,3.33,0,0,1,24.37,11a4.56,4.56,0,0,1-.09.89,2.72,2.72,0,0,0-.07.61,2.36,2.36,0,0,0,.88,1.77c1.12,1.1,2.22,2.21,3.33,3.32,1.47,1.48,3,3,4.51,4.48a3,3,0,0,1,1,2.32q0,18.35,0,36.68c0,14.41,0,29,0,43.29a2.81,2.81,0,0,1-1,2.14L29,110.46c-2,2-4.07,4.08-6.12,6.09a3.84,3.84,0,0,0-1.27,3c0,30.66,0,61.83,0,92v7.78q0,11.1,0,22.22a.92.92,0,0,1,0,.16v6.08a.76.76,0,0,1,0,.15q0,11.13,0,22.24v7.78c0,30.14,0,61.3,0,91.95a3.84,3.84,0,0,0,1.27,3c2.05,2,4.12,4.09,6.12,6.1L33,382.87a2.81,2.81,0,0,1,1,2.14c0,14.32,0,28.88,0,43.29q0,18.34,0,36.68a3,3,0,0,1-1,2.32c-1.52,1.48-3,3-4.51,4.48-1.11,1.11-2.21,2.22-3.33,3.32a2.36,2.36,0,0,0-.88,1.77,2.72,2.72,0,0,0,.07.61,4.56,4.56,0,0,1,.09.89,3.33,3.33,0,0,1-2.06,3.13,3.59,3.59,0,0,1-4.13-.89A3.64,3.64,0,0,1,17.29,478.22Z"/><path class="cls-18" d="M11.56,63.23A3.5,3.5,0,0,0,8,61a3.59,3.59,0,0,0-3.25,2.72,3.63,3.63,0,0,0-.1.87,3.19,3.19,0,0,0,1.76,3A2.54,2.54,0,0,1,8,70.23v0c0,5.07,0,9.68,0,14.09,0,4.84,0,9.34,0,13.77a4,4,0,0,1-1.33,3.11c-1.36,1.33-2.73,2.71-4,4L0,107.87v1.54c.74-.73,1.47-1.47,2.19-2.2,1.74-1.75,3.54-3.57,5.37-5.3a4.59,4.59,0,0,0,1.52-3.7v-.07C9,92.64,9,87,9,81.63,9,77.8,9,74,9,70.09a3,3,0,0,1,1.4-2.83,3,3,0,0,0,1.39-2.57A4.92,4.92,0,0,0,11.56,63.23ZM11,64.53a2.75,2.75,0,0,1-2.79,2.78A2.82,2.82,0,0,1,5.41,64.5a2.9,2.9,0,0,1,2.84-2.8A2.76,2.76,0,0,1,11,64.51Zm-.59,357.61a3,3,0,0,1-1.14-1.27A4,4,0,0,1,9,419.28c0-3.84,0-7.67,0-11.51,0-3.36,0-6.79,0-10.22,0-2.1,0-4.19,0-6.28v-.07a4.62,4.62,0,0,0-1.52-3.71c-1.83-1.73-3.63-3.54-5.37-5.3L0,380v1.55l2.58,2.58c1.32,1.34,2.69,2.71,4.05,4A4,4,0,0,1,8,391.31c0,1.74,0,3.5,0,5.29,0,2.73,0,5.52,0,8.45,0,4.4,0,9,0,14.08v0a2.55,2.55,0,0,1-1.54,2.73,3.19,3.19,0,0,0-1.76,3,3.63,3.63,0,0,0,.1.87A3.59,3.59,0,0,0,8,428.44a3.52,3.52,0,0,0,3.55-2.26,4.92,4.92,0,0,0,.25-1.46A3,3,0,0,0,10.42,422.14ZM11,424.9a2.76,2.76,0,0,1-2.76,2.81,2.91,2.91,0,0,1-2.84-2.82,2.81,2.81,0,0,1,2.81-2.79A2.75,2.75,0,0,1,11,424.88Z"/><path class="cls-19" d="M138.5,432.89a3.06,3.06,0,0,1,1.42-2.62c1.5-1,1.61-2.09,1.61-3.48q0-31.59,0-63.14v-39.6q0-39.66,0-79.31v-.1a1.47,1.47,0,0,1-.06-.46c0-.2,0-.41,0-.62a4.15,4.15,0,0,0,0-.49v-4.49a4.32,4.32,0,0,0,0-.5c0-.2,0-.42,0-.62a1.36,1.36,0,0,1,.06-.45v-.11q0-39.66,0-79.31V118q0-31.56,0-63.12c0-1.4-.11-2.54-1.61-3.5a3.06,3.06,0,0,1-1.42-2.62,3.7,3.7,0,0,1,1-2.49,3.59,3.59,0,0,1,2.61-1.15,3.53,3.53,0,0,1,2.61,1.14,3.6,3.6,0,0,1,1,2.47,3.21,3.21,0,0,1-1.52,2.77,3.06,3.06,0,0,0-1.53,3c0,45.68,0,92.12,0,137v24.84q0,10.26,0,20.53v.06l0,.06a1.33,1.33,0,0,1,.06.44c0,.21,0,.44-.05.66s0,.25,0,.37v4.74c0,.14,0,.27,0,.39s.05.45.05.66a1.29,1.29,0,0,1-.06.44l0,.06v.06q0,10.28,0,20.54v24.83c0,44.91,0,91.34,0,137a3.06,3.06,0,0,0,1.53,3,3.21,3.21,0,0,1,1.52,2.77,3.64,3.64,0,0,1-1,2.48,3.57,3.57,0,0,1-5.22,0A3.74,3.74,0,0,1,138.5,432.89Z"/><path class="cls-20" d="M94,493.46A3,3,0,0,0,92.72,492a2.52,2.52,0,0,1-1.22-1.28,4,4,0,0,1-.22-1.57V471.66c0-6,0-12.39.06-19v-.08a5.36,5.36,0,0,0-1.86-4.3c-.85-.8-1.68-1.61-2.51-2.43l-2.71-2.72c-1.28-1.29-2.61-2.64-3.94-3.93A4,4,0,0,1,79,436.09c0-12,0-24.06,0-34.24V380.64c0-.55,0-1.1,0-1.65s-.37-.68-.49-.68a.49.49,0,0,0-.4.11A.83.83,0,0,0,78,379c0,.61,0,1.23,0,1.84v41.48c0,5.8,0,10.22,0,14.34v0a3.72,3.72,0,0,0,1.2,2.94c1.71,1.65,3.41,3.35,5.06,5l.48.48c1.44,1.44,2.92,2.93,4.4,4.38a3.43,3.43,0,0,1,1.1,2.67q0,9.7,0,19.41c0,5.94,0,11.87,0,17.82a2.5,2.5,0,0,1-.73,2.07,3.42,3.42,0,0,1-.61.43,3.24,3.24,0,0,0-1.7,2.9,3.72,3.72,0,0,0,.18,1.14,3.55,3.55,0,0,0,3.42,2.48,3.42,3.42,0,0,0,3.34-2.37,3.58,3.58,0,0,0,.24-1.28A3.22,3.22,0,0,0,94,493.46Zm-3,4.23a2.82,2.82,0,0,1-3.1-2.48c0-.1,0-.2,0-.3a2.88,2.88,0,0,1,2.53-2.79,2.3,2.3,0,0,1,.37,0,2.73,2.73,0,0,1,1.67.62l.17.15a2.73,2.73,0,0,1,.85,1.75,2.83,2.83,0,0,1,0,.29A2.74,2.74,0,0,1,91,497.69Z"/><path class="cls-21" d="M167,375a.88.88,0,0,1,.15-.61.66.66,0,0,1,.47-.13c.46,0,.6.16.6.67,0,.19,0,.4,0,.6s0,.4,0,.58c0,6.2,0,11.78,0,17.09,0,5.82,0,11.2,0,16.46a4.21,4.21,0,0,0,1.36,3.32c1.58,1.54,3.16,3.12,4.68,4.66s3.31,3.32,5,4.95a3.93,3.93,0,0,1,1.29,3.12c0,6.51,0,13.1,0,19.48q0,8.61,0,17.22v.05a3.45,3.45,0,0,0,1.65,3.42,3.05,3.05,0,0,1,1.38,2.62,3.73,3.73,0,0,1-1.11,2.64,3.49,3.49,0,0,1-2.64,1,3.57,3.57,0,0,1-2.57-1.27,3.71,3.71,0,0,1-.88-2.38h0a3.09,3.09,0,0,1,1.53-2.73,2.88,2.88,0,0,0,1.51-3q0-9.06,0-18.07c0-6.72,0-12.75,0-18.45h0a4.43,4.43,0,0,0-1.48-3.46c-1.52-1.47-3-3-4.5-4.47s-3.26-3.27-4.92-4.88a4,4,0,0,1-1.39-3.18v-.09c0-2.2,0-4.62,0-7.6V398c0-1.51,0-3,0-4.53v-8.57c0-3.52,0-6.22,0-8.75h0a5.21,5.21,0,0,0,0-.55C167,375.4,167,375.21,167,375Z"/><path class="cls-22" d="M138.46,507.47a3.12,3.12,0,0,1,1.55-2.78,2.78,2.78,0,0,0,1.46-2.8q0-7.39,0-14.74c0-6.35,0-12.92,0-19.37a3.93,3.93,0,0,1,1.26-3.14c1.75-1.69,3.49-3.43,5.18-5.13,1.47-1.47,3-3,4.5-4.48a4,4,0,0,0,1.32-3.11v0c0-3,0-6.28,0-10.2,0-2.73,0-5.45,0-8.18v-4.11c0-.79.16-.93.59-.94a.59.59,0,0,1,.42.12,1,1,0,0,1,.14.63,2.62,2.62,0,0,1,0,.28v.28c0,2,0,4.06,0,6.08v5.87c0,1,0,2,0,2.92s0,1.95,0,2.93c0,1.69,0,3.07.06,4.34v.24a4.46,4.46,0,0,1-1.52,3.53c-1.87,1.78-3.72,3.65-5.51,5.45-1.32,1.33-2.68,2.7-4,4a3.82,3.82,0,0,0-1.25,3c0,5.3,0,10.89,0,17.12q0,8.4,0,16.8a2.42,2.42,0,0,0,1.34,2.52,3.18,3.18,0,0,1,1.73,2.92,4.18,4.18,0,0,1-.16,1.1,3.57,3.57,0,0,1-6.81.05A3.85,3.85,0,0,1,138.46,507.47Z"/><path class="cls-23" d="M75,524.91a3,3,0,0,1,1.52-2.73,2.86,2.86,0,0,0,1.5-2.95v-.05c0-6.2,0-12.31,0-17.48V474.43c0-4.81,0-11.16,0-17.54h0c0-.23,0-.47,0-.72a6.5,6.5,0,0,1-.06-.74c0-.64.22-.77.63-.78a.75.75,0,0,1,.53.13.81.81,0,0,1,.15.57,4.73,4.73,0,0,1-.07.73,6.37,6.37,0,0,0-.06.71c0,11,0,22.49,0,35.13q0,13.66,0,27.34a2.72,2.72,0,0,0,1.44,2.84,3.11,3.11,0,0,1,1.62,2.8,3.54,3.54,0,0,1-.22,1.25,3.36,3.36,0,0,1-3.31,2.4A3.63,3.63,0,0,1,75,524.91Z"/><path class="cls-24" d="M181.93,536.81a2.48,2.48,0,0,1-1.17-1.23,3.71,3.71,0,0,1-.22-1.45v-1.65q0-5.75,0-11.49v-6.2c0-3.55,0-7.14,0-10.71,0-.61,0-1.23,0-1.84a4.13,4.13,0,0,0-1.35-3.28c-1.86-1.8-3.71-3.66-5.5-5.46-1.4-1.41-2.85-2.87-4.29-4.28a3.66,3.66,0,0,1-1.18-2.79v-.05c0-1.73,0-3.6,0-5.87,0-1.4,0-2.81,0-4.21,0-1.18,0-2.36,0-3.57v-.55c0-.23,0-.46,0-.69,0-.74-.19-.88-.49-.91a.58.58,0,0,0-.43.11,1.13,1.13,0,0,0-.22.78c0,1.27,0,2.55,0,3.82v4.46l0,.34c0,.6,0,1.19,0,1.78s0,1.42,0,2.13c0,1.22,0,2.21,0,3.12v.1a3,3,0,0,0,1,2.24c1.79,1.76,3.6,3.57,5.34,5.32l5,5a3.23,3.23,0,0,1,1.06,2.5c0,.73,0,1.46,0,2.19,0,3.35,0,6.78,0,10.26v3.88c0,4.5,0,9,0,13.51v2a2.54,2.54,0,0,1-1.4,2.64,3.12,3.12,0,0,0-1.67,2.82,3.93,3.93,0,0,0,.2,1.21,3.55,3.55,0,0,0,6.78-.07,3.83,3.83,0,0,0,.18-1.15A3.08,3.08,0,0,0,181.93,536.81Zm-2,5.66a2.78,2.78,0,0,1-2-.81,2.73,2.73,0,0,1-.8-2,2.86,2.86,0,0,1,2.8-2.82,2.9,2.9,0,0,1,2,.84,2.84,2.84,0,0,1,.84,2A2.8,2.8,0,0,1,179.94,542.47Z"/><path class="cls-25" d="M58.76,503.36c0-1,0-2,0-3v-7.44c0-.33,0-.66,0-1,0-.64,0-1.29,0-1.94v-.57c0-.13,0-.26,0-.4v0c0-.12,0-.26,0-.38,0-.54-.12-.7-.56-.71a.58.58,0,0,0-.44.11c-.1.09-.14.28-.14.58,0,.13,0,.26,0,.39a2.81,2.81,0,0,1,0,.29.34.34,0,0,1,0,.1v5.37c0,.58,0,1.15,0,1.72v3.76c0,3.8,0,7.12,0,10.15v0a4,4,0,0,1-.45,2,4.6,4.6,0,0,1-.77,1c-1.73,1.69-3.47,3.43-5.15,5.11s-3.17,3.19-4.78,4.76a3.12,3.12,0,0,0-1,2.44v0c0,2.73,0,5.5,0,7.85v4.54c0,.86,0,1.73,0,2.59s0,1.56,0,2.34v.07a2.15,2.15,0,0,1-1.39,2.38,3.16,3.16,0,0,0-1.78,1.77,3,3,0,0,0-.25,1.23,3.83,3.83,0,0,0,.14,1,3.32,3.32,0,0,0,3.09,2.66A3.44,3.44,0,0,0,49,550a3.63,3.63,0,0,0,.26-.95,2.29,2.29,0,0,0,.05-.52,3.38,3.38,0,0,0-1.57-2.81,2.42,2.42,0,0,1-1.1-2.27c0-.79,0-1.56,0-2.35h0c0-2.1,0-4.2,0-6.3,0-3.09,0-5.86,0-8.47v0a3.4,3.4,0,0,1,1.13-2.62c1.57-1.55,3.16-3.15,4.7-4.69,1.74-1.75,3.55-3.57,5.35-5.33a4.51,4.51,0,0,0,.42-.48,3,3,0,0,0,.6-1.93v-.08c0-1.4,0-2.93,0-4.83ZM48.49,548.63v0a1.93,1.93,0,0,1,0,.24,2.8,2.8,0,1,1,0-.26Z"/><path class="cls-26" d="M154.15,521a2.64,2.64,0,0,1,1.21-2.32,3.87,3.87,0,0,0,1.85-3.81v-.49c0-.48,0-.94,0-1.41V510.3s0-4.19,0-5c0-.42,0-.92.2-1.11a.58.58,0,0,1,.45-.1c.32,0,.46.13.46.76v.23a1.85,1.85,0,0,0,0,.23c0,.75,0,1.47,0,2.19,0,1.39,0,2.78,0,4.17,0,1.18,0,2.23,0,3.21v.25A3.23,3.23,0,0,0,160,518.4a3,3,0,0,1,1.42,2.64,3.74,3.74,0,0,1-.94,2.46,3.54,3.54,0,0,1-5.08.23,3.85,3.85,0,0,1-1.22-2.76Z"/><path class="cls-27" d="M397.64,491.77a3.46,3.46,0,0,1-.89,2.32,3.57,3.57,0,0,1-4.12.93,3.38,3.38,0,0,1-2.1-3.14,4,4,0,0,1,.1-.84,2.81,2.81,0,0,0,.06-.56,2.58,2.58,0,0,0-1-1.89l-.07-.07c-1.8-1.79-3.59-3.59-5.38-5.38l0,0c-4.2-4.22-8.55-8.57-12.86-12.84l-1.15-1.14a3.81,3.81,0,0,1-1.25-3c0-12.5,0-25.46,0-38.62V420.4q0-22,0-44a3.57,3.57,0,0,1,1.13-2.83c1.64-1.59,3.28-3.23,4.87-4.83s3.28-3.29,4.94-4.9a4.22,4.22,0,0,0,1.36-3.31c0-29.46,0-59.41,0-88.37V259.42q0-6.84,0-13.67V235.9q0-6.84,0-13.68V209.47c0-29,0-58.91,0-88.36a4.21,4.21,0,0,0-1.36-3.32c-1.66-1.62-3.33-3.29-4.94-4.91s-3.23-3.23-4.87-4.83a3.55,3.55,0,0,1-1.13-2.82q0-22,0-44c0-15.62,0-31,0-45.76a3.79,3.79,0,0,1,1.25-3c4.13-4.09,8.3-8.27,12.37-12.34h1.6c-4.82,4.83-9,9-13,13A3.45,3.45,0,0,0,370,15.83q0,22.34,0,44.68,0,22.16,0,44.32a3.63,3.63,0,0,0,1.22,2.81c1.33,1.31,2.67,2.66,4,4,1.81,1.83,3.69,3.71,5.58,5.52a4.69,4.69,0,0,1,1.58,3.73c0,12.72,0,25.5,0,36.33V324.47c0,10.83,0,23.61,0,36.3a4.72,4.72,0,0,1-1.58,3.76c-1.89,1.8-3.77,3.69-5.58,5.51-1.3,1.31-2.64,2.66-4,4a3.59,3.59,0,0,0-1.22,2.8q0,22.17,0,44.33v5.75q0,19.46,0,38.92a3.46,3.46,0,0,0,1.11,2.68l1.16,1.15h0c4,4,8.29,8.27,13.19,13.19l4.79,4.81a2.29,2.29,0,0,0,2.75.75,3.34,3.34,0,0,1,4,1.5A3.57,3.57,0,0,1,397.64,491.77Z"/><path class="cls-28" d="M389.24,381.21a2.8,2.8,0,0,1,1-2.14l3.92-3.93c2-2,4.07-4.08,6.13-6.09a3.86,3.86,0,0,0,1.26-3c0-30.66,0-61.83,0-92v-7.78q0-11.19,0-22.37V237.7q0-11.19,0-22.38v-7.78c0-30.14,0-61.31,0-92a3.88,3.88,0,0,0-1.26-3c-2.06-2-4.13-4.09-6.12-6.09-1.31-1.31-2.61-2.62-3.93-3.92a2.81,2.81,0,0,1-1-2.15c0-14.23,0-28.76,0-43.19q0-18.39,0-36.78a2.92,2.92,0,0,1,1-2.31c1.52-1.49,3-3,4.52-4.5l3.31-3.31A2.33,2.33,0,0,0,399,8.57,3.4,3.4,0,0,0,398.9,8a3.9,3.9,0,0,1-.1-.88A3.32,3.32,0,0,1,400.86,4a3.56,3.56,0,0,1,5,3.27,3.49,3.49,0,0,1-4.74,3.29,2,2,0,0,0-2.27.6c-2.32,2.37-4.72,4.81-7.17,7.15a4.17,4.17,0,0,0-1.37,3.3q0,17.6,0,35.17c0,13.7,0,28.09,0,42.78a3.66,3.66,0,0,0,1.19,2.83c1.45,1.42,2.92,2.89,4.34,4.31,1.78,1.78,3.63,3.63,5.48,5.42a4.13,4.13,0,0,1,1.37,3.27c0,13.66,0,27.26,0,38.76V327.54c0,11.51,0,25.11,0,38.75a4.15,4.15,0,0,1-1.37,3.29c-1.85,1.78-3.7,3.63-5.48,5.41-1.42,1.42-2.89,2.89-4.34,4.31a3.66,3.66,0,0,0-1.19,2.83c0,14.69,0,29.08,0,42.78q0,17.58,0,35.16a4.18,4.18,0,0,0,1.37,3.31c2.45,2.33,4.85,4.78,7.17,7.15a2,2,0,0,0,2.27.6,3.47,3.47,0,0,1,4.23,1.46,3.41,3.41,0,0,1,.51,1.83,3.57,3.57,0,0,1-5,3.28,3.33,3.33,0,0,1-2.06-3.13,3.92,3.92,0,0,1,.1-.89,3.4,3.4,0,0,0,.06-.61,2.33,2.33,0,0,0-.88-1.77l-3.3-3.3c-1.48-1.48-3-3-4.53-4.5a3,3,0,0,1-1-2.32q0-18.39,0-36.78c0-14.43,0-29,0-43.19Z"/><path class="cls-29" d="M412.44,383.69a4.6,4.6,0,0,0-1.52,3.7v.07c0,3.35,0,6.74,0,10.09q0,3.24,0,6.42c0,3.84,0,7.67,0,11.54a3,3,0,0,1-1.4,2.83,3,3,0,0,0-1.39,2.58,4.91,4.91,0,0,0,.25,1.45,3.5,3.5,0,0,0,3.55,2.26,3.59,3.59,0,0,0,3.25-2.71,3.71,3.71,0,0,0,.1-.88,3.22,3.22,0,0,0-1.76-3,2.53,2.53,0,0,1-1.54-2.72v0c0-5.09,0-9.7,0-14.08,0-1.59,0-3.13,0-4.65,0-3.13,0-6.14,0-9.12a4,4,0,0,1,1.33-3.12c1.36-1.33,2.73-2.71,4.05-4l2.58-2.58v-1.55l-2.19,2.2C416.06,380.15,414.26,382,412.44,383.69Zm2.15,37.39v0a2.91,2.91,0,0,1-2.84,2.81,2.81,2.81,0,0,1,0-5.62A2.81,2.81,0,0,1,414.59,421.08Zm2.83-319.76c-1.32-1.33-2.69-2.7-4.05-4A4,4,0,0,1,412,94.14c0-4.39,0-8.89,0-13.74,0-4.39,0-9,0-14.08v0a2.55,2.55,0,0,1,1.54-2.73,3.19,3.19,0,0,0,1.76-2.95,3.63,3.63,0,0,0-.1-.87A3.59,3.59,0,0,0,412,57a3.5,3.5,0,0,0-3.55,2.26,4.92,4.92,0,0,0-.25,1.46,3,3,0,0,0,1.39,2.58,2.93,2.93,0,0,1,1.14,1.27,4,4,0,0,1,.26,1.59c0,3.84,0,7.67,0,11.51,0,5.41,0,11,0,16.5v.07A4.62,4.62,0,0,0,412.44,98c1.83,1.73,3.63,3.54,5.37,5.3l2.19,2.2v-1.55ZM409.8,62.55a2.83,2.83,0,0,1,1.95-4.81,2.9,2.9,0,0,1,2.84,2.8v0a2.81,2.81,0,0,1-2.81,2.79A2.74,2.74,0,0,1,409.8,62.55Z"/><path class="cls-30" d="M277.47,433a3.19,3.19,0,0,1,1.51-2.77,3,3,0,0,0,1.54-3c0-42.51,0-84.64,0-127.65V265.07q0-10.17,0-20.35v-.07l0-.05a1.4,1.4,0,0,1-.06-.45c0-.2,0-.43,0-.65s0-.26,0-.38v-4.57c0-.15,0-.27,0-.4s0-.45,0-.66a1.29,1.29,0,0,1,.06-.44l0-.06v-.06q0-10.19,0-20.36V182c0-43,0-85.14,0-127.64a3,3,0,0,0-1.54-3,3.22,3.22,0,0,1-1.51-2.78,3.64,3.64,0,0,1,1-2.47,3.57,3.57,0,0,1,5.22,0,3.67,3.67,0,0,1,1,2.5,3,3,0,0,1-1.41,2.61c-1.5,1-1.62,2.1-1.62,3.49q0,31.57,0,63.11v38.23q0,40.42,0,80.86V237l0,.05a1.89,1.89,0,0,1,0,.46c0,.2,0,.41,0,.62l0,.49V243l0,.49c0,.21,0,.42,0,.62a1.89,1.89,0,0,1,0,.46l0,.05v0q0,40.44,0,80.86v38.24q0,31.55,0,63.09c0,1.4.12,2.54,1.62,3.5a3,3,0,0,1,1.41,2.61,3.67,3.67,0,0,1-1,2.5,3.55,3.55,0,0,1-5.22,0A3.64,3.64,0,0,1,277.47,433Z"/><path class="cls-31" d="M338,45.77c-1.87-1.81-3.74-3.68-5.55-5.5-1.43-1.43-2.91-2.92-4.39-4.37a3.43,3.43,0,0,1-1.1-2.67q0-9.7,0-19.41Q327,7,327,.19h-1.1v13.6c0,6,0,12.39-.06,19v.08a5.36,5.36,0,0,0,1.86,4.3c1.78,1.68,3.52,3.44,5.22,5.15,1.28,1.3,2.61,2.64,3.94,3.93a4,4,0,0,1,1.28,3.16c0,12.07,0,24.06,0,34.19v21.26c0,.55,0,1.1,0,1.65s.37.68.49.68a.49.49,0,0,0,.4-.11.83.83,0,0,0,.18-.62c0-.61,0-1.23,0-1.84V63.18c0-3.93,0-9.13,0-14.43v0A3.72,3.72,0,0,0,338,45.77Z"/><path class="cls-32" d="M221.41,13a3.73,3.73,0,0,1,1.11-2.63,3.48,3.48,0,0,1,2.65-1,3.56,3.56,0,0,1,2.56,1.28,3.7,3.7,0,0,1,.88,2.37,3.08,3.08,0,0,1-1.53,2.73,2.9,2.9,0,0,0-1.51,2.95q0,9,0,18c0,6.72,0,12.77,0,18.48A4.41,4.41,0,0,0,227,58.7c1.51,1.47,3,3,4.49,4.47s3.26,3.28,4.92,4.88a4,4,0,0,1,1.39,3.18v.09c0,2.21-.05,4.63-.05,7.62,0,1.56,0,3.11,0,4.67s0,3,0,4.49v8.53c0,3.54,0,6.25,0,8.79h0a5.4,5.4,0,0,0,0,.56,5.21,5.21,0,0,1,0,.55.88.88,0,0,1-.15.61.62.62,0,0,1-.47.13c-.46,0-.6-.15-.6-.67,0-.19,0-.39,0-.6a4,4,0,0,0,.05-.58c0-6.23,0-11.82,0-17.12,0-5.82,0-11.19,0-16.43h0a4.22,4.22,0,0,0-1.35-3.32c-1.58-1.53-3.16-3.12-4.69-4.65s-3.31-3.32-5-4.95a4,4,0,0,1-1.28-3.12c0-6.51,0-13.11,0-19.48q0-8.61,0-17.22v-.05a3.47,3.47,0,0,0-1.65-3.43A3.05,3.05,0,0,1,221.41,13Z"/><path class="cls-33" d="M269.05,13.79a3.91,3.91,0,0,1-1.26,3.14c-1.74,1.68-3.48,3.43-5.17,5.12-1.47,1.48-3,3-4.5,4.48a4,4,0,0,0-1.32,3.12v0c0,3,0,6.25,0,10.16,0,2.7,0,5.39,0,8.08v4.25c0,.79-.15.93-.59.93a.56.56,0,0,1-.41-.11,1,1,0,0,1-.14-.63v-.28c0-.1,0-.19,0-.28q0-3.09,0-6.15v-5.8c0-1,0-2,0-2.93s0-2,0-2.93c0-1.69,0-3.06-.06-4.33v-.24a4.48,4.48,0,0,1,1.52-3.54c1.87-1.78,3.72-3.64,5.51-5.44,1.32-1.33,2.68-2.7,4-4a3.82,3.82,0,0,0,1.24-3c0-4.18,0-8.54,0-13.26H269C269,4.7,269,9.28,269.05,13.79Z"/><path class="cls-34" d="M343.86,30c0,.64-.23.77-.64.78a.71.71,0,0,1-.52-.13.76.76,0,0,1-.16-.57,6.58,6.58,0,0,1,.07-.74,6,6,0,0,0,.06-.7c0-9,0-18.39,0-28.47h1.13V11.07c0,4.81,0,11.14,0,17.49a6.54,6.54,0,0,0,.06.72A6.32,6.32,0,0,1,343.86,30Z"/><path class="cls-35" d="M237.72.19h-1.17V5.27c0,1.18,0,2.36,0,3.54v.57c0,.24,0,.47,0,.7,0,.74.19.88.5.91a.57.57,0,0,0,.42-.11,1.08,1.08,0,0,0,.22-.78c0-1.28,0-2.57,0-3.85V1.48C237.73,1.05,237.73.62,237.72.19Z"/><path class="cls-36" d="M216.92,199.09a2.89,2.89,0,0,0-1-2.24c-1.78-1.76-3.58-3.56-5.32-5.31s-3.31-3.31-5-5a3.24,3.24,0,0,1-1-2.51c0-5.29,0-10.82,0-16.41,0-5.15,0-10.29,0-15.47a2.55,2.55,0,0,1,1.41-2.64,3.11,3.11,0,0,0,1.67-2.82,3.93,3.93,0,0,0-.2-1.21,3.55,3.55,0,0,0-6.78.07,3.83,3.83,0,0,0-.18,1.15,3.06,3.06,0,0,0,1.58,2.75,2.52,2.52,0,0,1,1.18,1.24,3.87,3.87,0,0,1,.21,1.45q0,6.57,0,13.13c0,6.14,0,12.48,0,18.76a4.12,4.12,0,0,0,1.34,3.27c1.86,1.8,3.72,3.67,5.51,5.47,1.4,1.41,2.85,2.86,4.28,4.27a3.67,3.67,0,0,1,1.19,2.79v.06c0,1.72,0,3.59,0,5.87,0,1.4,0,2.8,0,4.2v16.24c0,5.35,0,11.13,0,14.58s0,9.23,0,14.59v16.24c0,1.4,0,2.8,0,4.2,0,2.28,0,4.14,0,5.87v0a3.64,3.64,0,0,1-1.19,2.79c-1.43,1.41-2.88,2.87-4.28,4.27-1.79,1.81-3.65,3.67-5.51,5.47a4.18,4.18,0,0,0-1.34,3.31c0,6.24,0,12.59,0,18.73q0,6.56,0,13.15a2.6,2.6,0,0,1-1.39,2.66,3.07,3.07,0,0,0-1.58,2.75,3.78,3.78,0,0,0,.18,1.15,3.54,3.54,0,0,0,6.78.08,4,4,0,0,0,.2-1.21A3.11,3.11,0,0,0,206,332.1a2.47,2.47,0,0,1-1.19-1.22,3.68,3.68,0,0,1-.22-1.45q0-7.73,0-15.44c0-5.6,0-11.12,0-16.43a3.21,3.21,0,0,1,1-2.49c1.67-1.65,3.35-3.34,5-5s3.54-3.54,5.32-5.3a2.89,2.89,0,0,0,1-2.24v-.1c0-.91,0-1.9,0-3.12,0-.71,0-1.42,0-2.12v-1.78h0s0-14.16,0-20.72c0-5.42,0-10.65,0-13.9s0-8.48,0-13.89c0-6.56,0-20.37,0-20.37v-2.13c0-.71,0-1.42,0-2.13,0-1.21,0-2.2,0-3.12Zm-14.83-50.51a2.8,2.8,0,0,1,4-3.94,2.77,2.77,0,0,1,.81,2,2.85,2.85,0,0,1-2.81,2.81A2.8,2.8,0,0,1,202.09,148.58ZM206.89,335a2.77,2.77,0,0,1-2.82,2.77,2.75,2.75,0,0,1-2-4.74,2.79,2.79,0,0,1,4.8,2Z"/><path class="cls-37" d="M76.61,248.13a6.5,6.5,0,0,1,.06-.74q0-.27.06-.51v-4.34l-.06-.53a6.5,6.5,0,0,1-.06-.74,1,1,0,0,1,.08-.48l0-.07v-.08c0-10.61,0-21,0-30.74V172.54c0-9.24,0-20.17,0-31.27A4,4,0,0,1,78,138.14c4-3.95,8-8,11.93-11.9,3.31-3.31,6.74-6.74,10.12-10.09a4.28,4.28,0,0,0,1.4-3.27v0c0-4.17,0-8.55,0-13.37q0-6.59,0-13.16v0A2.72,2.72,0,0,0,100,83.48a3.16,3.16,0,0,1-1.62-2.82,3.55,3.55,0,0,1,.23-1.25A3.44,3.44,0,0,1,101.91,77a3.54,3.54,0,0,1,3.42,2.48,3.67,3.67,0,0,1,.18,1.14A3.09,3.09,0,0,1,104,83.44a2.81,2.81,0,0,0-1.48,2.93v.08q0,5.67,0,11.36c0,5.09,0,10.36,0,15.54v.05a4,4,0,0,1-1.27,3.1c-3.72,3.68-7.48,7.44-11.12,11.09s-7.28,7.27-10.93,10.89A4.42,4.42,0,0,0,77.78,142c0,16.49,0,33.56,0,50.73q0,24,0,48v.08l0,.07a1.13,1.13,0,0,1,.08.5,6.49,6.49,0,0,1-.06.75c0,.21,0,.41-.06.6v4.07c0,.2,0,.4.06.61a6.49,6.49,0,0,1,.06.75,1.13,1.13,0,0,1-.08.5l0,.07v.08q0,24,0,48c0,17.17,0,34.24,0,50.73a4.41,4.41,0,0,0,1.42,3.47c3.65,3.62,7.36,7.32,10.93,10.9s7.4,7.41,11.12,11.09a4,4,0,0,1,1.27,3.1v0c0,5.18,0,10.45,0,15.55,0,3.78,0,7.57,0,11.35V403A2.8,2.8,0,0,0,104,406a3.09,3.09,0,0,1,1.55,2.79,3.78,3.78,0,0,1-.18,1.15,3.55,3.55,0,0,1-3.42,2.47A3.44,3.44,0,0,1,98.56,410a3.55,3.55,0,0,1-.23-1.25,3.16,3.16,0,0,1,1.62-2.82,2.71,2.71,0,0,0,1.45-2.79v0q0-6.58,0-13.16c0-4.82,0-9.19,0-13.37v0a4.28,4.28,0,0,0-1.4-3.27c-3.39-3.35-6.82-6.78-10.13-10.1-3.9-3.9-7.94-7.94-11.92-11.89a4,4,0,0,1-1.28-3.11c0-11.12,0-22,0-31.29V279.5c0-9.69,0-20.13,0-30.74v-.08l0-.07A1,1,0,0,1,76.61,248.13Z"/><path class="cls-38" d="M181.71,387.67a2.38,2.38,0,0,1-1.22-2.36v-1.77c0-1.11,0-2.22,0-3.33s0-2.22,0-3.33c0-1.6,0-2.91,0-4.14v-.1a3.72,3.72,0,0,0-1.24-2.89c-1.37-1.34-2.74-2.72-4.07-4.06-1.69-1.7-3.44-3.46-5.21-5.15a5.22,5.22,0,0,1-1.74-4.1c0-21.56,0-43.45,0-63.89V252.86c0-2.73,0-5.45,0-8.18v-.08a1.38,1.38,0,0,0,0-.38c0-.18,0-.37,0-.56l0-.24V238.2l0-.21c0-.19,0-.38,0-.56a1.34,1.34,0,0,0,0-.38V237c0-2.72,0-5.45,0-8.17V189.1c0-20.44,0-42.33,0-63.91a5.19,5.19,0,0,1,1.74-4.08c1.77-1.69,3.52-3.45,5.21-5.16,1.33-1.33,2.7-2.72,4.07-4a3.74,3.74,0,0,0,1.24-2.9v-.09c0-1.23,0-2.55,0-4.14,0-1.11,0-2.22,0-3.33s0-2.22,0-3.33V96.34A2.38,2.38,0,0,1,181.71,94a3.32,3.32,0,0,0,1.74-2.89,3.77,3.77,0,0,0-.18-1.14,3.54,3.54,0,0,0-6.83.11,3.71,3.71,0,0,0-.15,1,3.43,3.43,0,0,0,1.85,3,2.22,2.22,0,0,1,1.2,2.18v0c0,2.53,0,4.79,0,6.91,0,1.91,0,3.69,0,5.42v.06a3.63,3.63,0,0,1-1.19,2.79c-1.41,1.38-2.83,2.8-4.2,4.17-1.74,1.75-3.54,3.55-5.35,5.29a4.54,4.54,0,0,0-1.52,3.61c0,12.36,0,24.66,0,35.05v42.62q0,17.4,0,34.81v.08a1.54,1.54,0,0,0,0,.4c0,.17,0,.35,0,.51s0,.25,0,.38v4.92c0,.12,0,.24,0,.36s0,.35,0,.52a1.54,1.54,0,0,0,0,.4v.07q0,24,0,48v29.41c0,10.39,0,22.68,0,35.05v0a4.49,4.49,0,0,0,1.52,3.58c1.81,1.74,3.61,3.55,5.36,5.3,1.37,1.37,2.78,2.79,4.19,4.17a3.6,3.6,0,0,1,1.19,2.79V373c0,1.74,0,3.51,0,5.42,0,2.13,0,4.39,0,6.92v.05a2.23,2.23,0,0,1-1.2,2.18,3.43,3.43,0,0,0-1.85,2.95,3.71,3.71,0,0,0,3.61,3.68,3.56,3.56,0,0,0,3.37-2.54,3.87,3.87,0,0,0,.18-1.14A3.32,3.32,0,0,0,181.71,387.67ZM177,91v-.1a2.87,2.87,0,0,1,2.93-2.7,2.83,2.83,0,0,1,2.72,2.8v.1a2.82,2.82,0,0,1-2.91,2.7A2.85,2.85,0,0,1,177,91Zm5.65,299.71a2.83,2.83,0,0,1-2.72,2.8,2.87,2.87,0,0,1-2.93-2.71v-.1a2.84,2.84,0,0,1,2.74-2.79,2.78,2.78,0,0,1,2,.74,2.83,2.83,0,0,1,.9,2Z"/><path class="cls-39" d="M91.28,17.75V.19h-1.1c0,5.87,0,11.72,0,17.59q0,9.69,0,19.42a3.44,3.44,0,0,1-1.1,2.66c-1.48,1.44-3,2.93-4.4,4.37-1.8,1.81-3.67,3.69-5.54,5.5a3.7,3.7,0,0,0-1.2,2.94v0c0,4.11,0,8.53,0,14.33v41.49c0,.61,0,1.22,0,1.84a.85.85,0,0,0,.18.62.53.53,0,0,0,.4.11c.12,0,.48,0,.49-.68s0-1.1,0-1.66V87.56c0-10.18,0-22.21,0-34.26a4,4,0,0,1,1.28-3.15c1.33-1.29,2.66-2.63,3.94-3.92,1.69-1.71,3.44-3.47,5.22-5.15a5.36,5.36,0,0,0,1.86-4.31V36.7C91.29,30.14,91.28,23.71,91.28,17.75Z"/><path class="cls-40" d="M113.11,350.34a2.65,2.65,0,0,1-1.4-2.67q0-7.86,0-15.7c0-7.06,0-14.35,0-21.57a4.08,4.08,0,0,0-1.39-3.24c-1.67-1.61-3.33-3.28-4.94-4.89s-3.06-3.07-4.61-4.58a4.21,4.21,0,0,1-1.35-3.32c0-8.14,0-16.58,0-25.82q0-9.92,0-19.84v-.06l0-.05a1.18,1.18,0,0,0,.06-.41c0-.19,0-.4,0-.6s0-.27,0-.41v-5c0-.13,0-.26,0-.4a5.85,5.85,0,0,0,0-.59,1.15,1.15,0,0,0-.06-.41l0-.06v-.06q0-9.91,0-19.84c0-6.56,0-12.72,0-18.66q0-3.63,0-7.17a4.18,4.18,0,0,1,1.35-3.3c1.55-1.51,3.11-3.07,4.62-4.59s3.26-3.28,4.93-4.89a5.12,5.12,0,0,0,.76-.9,4.14,4.14,0,0,0,.63-2.37c0-7.18,0-14.48,0-21.53,0-5.24,0-10.47,0-15.72a2.66,2.66,0,0,1,1.4-2.66,3.23,3.23,0,0,0,1.67-2.83,3.7,3.7,0,0,0-.22-1.22,3.44,3.44,0,0,0-3.31-2.43,3.66,3.66,0,0,0-3.46,2.45,3.45,3.45,0,0,0-.19,1.11,3.36,3.36,0,0,0,1.68,2.94,2.53,2.53,0,0,1,1.37,2.51q0,10.64,0,21.27,0,8,0,16a3.49,3.49,0,0,1-.81,2.35,5.57,5.57,0,0,1-.41.45c-1.55,1.52-3.12,3.09-4.63,4.6-1.73,1.74-3.52,3.53-5.31,5.27a3.33,3.33,0,0,0-1.08,2.65c0,2.77,0,5.51,0,8V231.7c0,3,0,6,0,9v.06l0,0a1.34,1.34,0,0,0,0,.38,5.65,5.65,0,0,0,0,.58c0,.1,0,.19,0,.31v5.26a2.45,2.45,0,0,0,0,.27c0,.2,0,.4,0,.58a1.41,1.41,0,0,0,0,.39l0,0v.05c0,3,0,6,0,9v23.87c0,3.73,0,8.66,0,13.7a3.3,3.3,0,0,0,1.08,2.62c1.79,1.74,3.58,3.54,5.32,5.28,1.51,1.51,3.07,3.08,4.62,4.6a3.61,3.61,0,0,1,1.22,2.81q0,8,0,16,0,10.63,0,21.29a2.51,2.51,0,0,1-1.37,2.49,3.39,3.39,0,0,0-1.68,2.95,3.5,3.5,0,0,0,.19,1.11,3.64,3.64,0,0,0,3.46,2.44,3.43,3.43,0,0,0,3.31-2.42,3.7,3.7,0,0,0,.22-1.22A3.26,3.26,0,0,0,113.11,350.34Zm-4.76-214.17v0a2.88,2.88,0,0,1,2.8-2.8,2.73,2.73,0,0,1,2,.8,2.77,2.77,0,0,1,.83,2,2.7,2.7,0,0,1-2.77,2.79A2.77,2.77,0,0,1,108.35,136.17ZM114,353.28a2.77,2.77,0,0,1-2.81,2.79,2.86,2.86,0,0,1-2.8-2.79v0a2.78,2.78,0,0,1,2.84-2.76,2.7,2.7,0,0,1,2.77,2.79Z"/><path class="cls-41" d="M167,106.61c0-.18,0-.37,0-.55s0-.38,0-.55c0-2.54,0-5.24,0-8.76V88.18c0-1.51,0-3,0-4.53V79c0-3,0-5.4,0-7.6v-.09a4,4,0,0,1,1.39-3.18c1.66-1.6,3.32-3.27,4.92-4.88s3-3,4.5-4.47a4.4,4.4,0,0,0,1.48-3.43c0-5.73,0-11.76,0-18.47q0-9,0-18.05h0a2.92,2.92,0,0,0-1.51-3,3.09,3.09,0,0,1-1.53-2.73h0a3.68,3.68,0,0,1,.88-2.37,3.56,3.56,0,0,1,2.57-1.28,3.48,3.48,0,0,1,2.64,1,3.69,3.69,0,0,1,1.11,2.63A3,3,0,0,1,182,15.73a3.45,3.45,0,0,0-1.65,3.42v.05q0,8.61,0,17.22c0,6.38,0,13,0,19.46A3.94,3.94,0,0,1,179.15,59c-1.69,1.63-3.37,3.32-5,4.95s-3.11,3.12-4.69,4.66a4.19,4.19,0,0,0-1.36,3.29c0,5.29,0,10.67,0,16.49,0,5.31,0,10.89,0,17.08h0c0,.19,0,.39,0,.59s0,.41,0,.6c0,.51-.14.67-.6.67a.66.66,0,0,1-.47-.13A.88.88,0,0,1,167,106.61Z"/><path class="cls-42" d="M154.85,29.75c0,1.27-.06,2.65-.06,4.34,0,1,0,1.95,0,2.92s0,2,0,2.92V45.8q0,3,0,6.06h0v.3a2.53,2.53,0,0,1,0,.28,1,1,0,0,1-.14.62.59.59,0,0,1-.42.12c-.43,0-.59-.14-.59-.93V48.14c0-2.72,0-5.45,0-8.18,0-3.92,0-7.16,0-10.19v-.05a4,4,0,0,0-1.32-3.11c-1.52-1.48-3-3-4.51-4.48-1.68-1.69-3.42-3.44-5.17-5.13a3.9,3.9,0,0,1-1.26-3.1c0-4.57,0-9.17,0-13.71h1.11c0,4.74,0,9.12,0,13.31a3.87,3.87,0,0,0,1.25,3c1.36,1.32,2.72,2.7,4,4,1.79,1.8,3.64,3.66,5.51,5.44a4.46,4.46,0,0,1,1.52,3.53Z"/><path class="cls-43" d="M79.22,34.06a.78.78,0,0,1-.15.56.71.71,0,0,1-.53.13c-.41,0-.63-.14-.63-.78a6.5,6.5,0,0,1,.06-.74c0-.25,0-.49,0-.71,0-6.39,0-12.73,0-17.55V.19h1.12c0,11.57,0,22.21,0,32.42a6.18,6.18,0,0,0,.06.71A4.86,4.86,0,0,1,79.22,34.06Z"/><path class="cls-44" d="M110.27,524.91a3,3,0,0,1,1.52-2.73,2.86,2.86,0,0,0,1.5-2.95v-.05c0-6.2,0-12.31,0-17.48V474.43c0-4.81,0-11.16,0-17.54h0a6.09,6.09,0,0,0-.05-.72,6.5,6.5,0,0,1-.06-.74c0-.64.22-.77.63-.78a.75.75,0,0,1,.53.13.81.81,0,0,1,.15.57,6.33,6.33,0,0,1-.06.73,4.73,4.73,0,0,0-.07.71c0,11,0,22.49,0,35.13q0,13.66,0,27.34a2.72,2.72,0,0,0,1.44,2.84,3.12,3.12,0,0,1,1.63,2.8,3.55,3.55,0,0,1-.23,1.25,3.36,3.36,0,0,1-3.31,2.4,3.63,3.63,0,0,1-3.64-3.64Z"/><path class="cls-45" d="M114.49,34.06a.78.78,0,0,1-.15.56.71.71,0,0,1-.53.13c-.41,0-.63-.14-.63-.78a6.5,6.5,0,0,1,.06-.74,6.07,6.07,0,0,0,.05-.71c0-6.39,0-12.73,0-17.55V.19h1.12c0,11.57,0,22.21,0,32.42a4.6,4.6,0,0,0,.07.71A6.5,6.5,0,0,1,114.49,34.06Z"/><path class="cls-46" d="M198.8,524.91a3.05,3.05,0,0,1,1.52-2.73,2.86,2.86,0,0,0,1.5-2.95v-.05c0-6.2,0-12.31,0-17.48V474.43c0-4.81,0-11.16,0-17.54h0a6.09,6.09,0,0,0,0-.72,6.5,6.5,0,0,1-.06-.74c0-.64.22-.77.63-.78a.75.75,0,0,1,.53.13.81.81,0,0,1,.15.57,6.33,6.33,0,0,1-.06.73,4.73,4.73,0,0,0-.07.71c0,11,0,22.49,0,35.13q0,13.66,0,27.34a2.72,2.72,0,0,0,1.44,2.84,3.12,3.12,0,0,1,1.63,2.8,3.55,3.55,0,0,1-.23,1.25,3.36,3.36,0,0,1-3.31,2.4,3.51,3.51,0,0,1-3.44-2.44A3.78,3.78,0,0,1,198.8,524.91Z"/><path class="cls-47" d="M203,34.06a.78.78,0,0,1-.15.56.71.71,0,0,1-.53.13c-.41,0-.63-.14-.63-.78a6.5,6.5,0,0,1,.06-.74,6.07,6.07,0,0,0,0-.71c0-6.39,0-12.73,0-17.55V.19h1.12c0,11.57,0,22.21,0,32.42a4.6,4.6,0,0,0,.07.71A6.5,6.5,0,0,1,203,34.06Z"/><path class="cls-48" d="M294,524.91a3.05,3.05,0,0,1,1.52-2.73,2.85,2.85,0,0,0,1.5-2.95v-.05c0-6.2,0-12.31,0-17.48V474.43c0-4.81,0-11.16,0-17.54h0a6.16,6.16,0,0,0-.06-.72,6.5,6.5,0,0,1-.06-.74c0-.64.22-.77.64-.78a.72.72,0,0,1,.52.13.81.81,0,0,1,.15.57,6.33,6.33,0,0,1-.06.73,6.53,6.53,0,0,0-.07.71c0,11,0,22.49,0,35.13q0,13.66,0,27.34a2.72,2.72,0,0,0,1.44,2.84,3.12,3.12,0,0,1,1.63,2.8,3.55,3.55,0,0,1-.23,1.25,3.36,3.36,0,0,1-3.3,2.4,3.51,3.51,0,0,1-3.45-2.44A3.78,3.78,0,0,1,294,524.91Z"/><path class="cls-49" d="M298.25,34.06a.78.78,0,0,1-.15.56.68.68,0,0,1-.52.13c-.42,0-.64-.14-.64-.78a6.5,6.5,0,0,1,.06-.74,6.18,6.18,0,0,0,.06-.71c0-6.39,0-12.73,0-17.55V.19h1.12c0,11.57,0,22.21,0,32.42a6.3,6.3,0,0,0,.07.71A6.5,6.5,0,0,1,298.25,34.06Z"/><path class="cls-50" d="M167.11.19c0,.45,0,.9,0,1.35h0V6.35c0,1.28,0,2.55,0,3.83a1.1,1.1,0,0,0,.22.77.51.51,0,0,0,.43.11c.3,0,.45-.16.49-.9,0-.23,0-.46,0-.69V8.89c0-1.18,0-2.36,0-3.55,0-1.4,0-2.8,0-4.2V.19Z"/><path class="cls-51" d="M58.77.39V.19h-1.1a1.85,1.85,0,0,1,0,.23c0,.12,0,.25,0,.38,0,.31,0,.5.14.59a.58.58,0,0,0,.44.11c.44,0,.56-.17.56-.71C58.79.66,58.78.52,58.77.39Z"/><path class="cls-52" d="M117,277.05a3.24,3.24,0,0,1,1.69-2.91,2.48,2.48,0,0,0,1.36-2.59v-.09c0-2.66,0-5.33,0-8V218.18c0-2.67,0-5.33,0-8v-.08a2.48,2.48,0,0,0-1.36-2.6,3.22,3.22,0,0,1-1.69-2.91h0a4,4,0,0,1,.17-1.13,3.58,3.58,0,0,1,3.41-2.48,3.41,3.41,0,0,1,3.34,2.36,3.6,3.6,0,0,1,.24,1.29,3.14,3.14,0,0,1-1.59,2.78,2.75,2.75,0,0,0-1.44,2.79c0,5.17,0,10.63,0,17.75v25.74c0,7.12,0,12.59,0,17.73a2.76,2.76,0,0,0,1.44,2.81,3.14,3.14,0,0,1,1.59,2.78,3.65,3.65,0,0,1-.24,1.3,3.41,3.41,0,0,1-3.34,2.35,3.58,3.58,0,0,1-3.41-2.47A4.09,4.09,0,0,1,117,277.05Z"/></g></g></svg>