<svg xmlns="http://www.w3.org/2000/svg" xmlns:xlink="http://www.w3.org/1999/xlink" viewBox="0 0 1920 1260"><defs><style>.cls-1{fill:url(#linear-gradient);}.cls-2{fill:url(#linear-gradient-2);}.cls-3{fill:url(#linear-gradient-3);}.cls-4{fill:url(#linear-gradient-4);}.cls-5{fill:url(#linear-gradient-5);}.cls-6{fill:url(#linear-gradient-6);}.cls-7{fill:url(#linear-gradient-7);}.cls-8{fill:url(#linear-gradient-8);}.cls-9{fill:url(#linear-gradient-9);}.cls-10{fill:url(#linear-gradient-10);}.cls-11{fill:url(#linear-gradient-11);}.cls-12{fill:url(#linear-gradient-12);}.cls-13{fill:url(#linear-gradient-13);}.cls-14{fill:url(#linear-gradient-14);}.cls-15{fill:url(#linear-gradient-15);}.cls-16{fill:url(#linear-gradient-16);}.cls-17{fill:url(#linear-gradient-17);}.cls-18{fill:url(#linear-gradient-18);}.cls-19{fill:url(#linear-gradient-19);}.cls-20{fill:url(#linear-gradient-20);}.cls-21{fill:url(#linear-gradient-21);}.cls-22{fill:url(#linear-gradient-22);}.cls-23{fill:url(#linear-gradient-23);}.cls-24{fill:url(#linear-gradient-24);}.cls-25{fill:url(#linear-gradient-25);}.cls-26{fill:url(#linear-gradient-26);}.cls-27{fill:url(#linear-gradient-27);}.cls-28{fill:url(#linear-gradient-28);}.cls-29{fill:url(#linear-gradient-29);}.cls-30{fill:url(#linear-gradient-30);}.cls-31{fill:url(#linear-gradient-31);}.cls-32{fill:url(#linear-gradient-32);}.cls-33{fill:url(#linear-gradient-33);}.cls-34{fill:url(#linear-gradient-34);}.cls-35{fill:url(#linear-gradient-35);}.cls-36{fill:url(#linear-gradient-36);}.cls-37{fill:url(#linear-gradient-37);}.cls-38{fill:url(#linear-gradient-38);}.cls-39{fill:url(#linear-gradient-39);}.cls-40{fill:url(#linear-gradient-40);}.cls-41{fill:url(#linear-gradient-41);}.cls-42{fill:url(#linear-gradient-42);}.cls-43{fill:url(#linear-gradient-43);}.cls-44{fill:url(#linear-gradient-44);}.cls-45{fill:url(#linear-gradient-45);}.cls-46{fill:url(#linear-gradient-46);}.cls-47{fill:url(#linear-gradient-47);}.cls-48{fill:url(#linear-gradient-48);}.cls-49{fill:url(#linear-gradient-49);}.cls-50{fill:url(#linear-gradient-50);}.cls-51{fill:url(#linear-gradient-51);}.cls-52{fill:url(#linear-gradient-52);}.cls-53{fill:url(#linear-gradient-53);}.cls-54{fill:url(#linear-gradient-54);}.cls-55{fill:url(#linear-gradient-55);}</style><linearGradient id="linear-gradient" x1="960" y1="1140.92" x2="960" y2="16.94" gradientUnits="userSpaceOnUse"><stop offset="0" stop-color="#b3e4fa"/><stop offset="1" stop-color="#fff"/></linearGradient><linearGradient id="linear-gradient-2" x1="960" y1="883.31" x2="960" y2="1208.16" xlink:href="#linear-gradient"/><linearGradient id="linear-gradient-3" x1="960" y1="994.72" x2="960" y2="1251.8" xlink:href="#linear-gradient"/><linearGradient id="linear-gradient-4" x1="113.36" y1="284.11" x2="1896.61" y2="284.11" gradientUnits="userSpaceOnUse"><stop offset="0" stop-color="#fff" stop-opacity="0.05"/><stop offset="1" stop-color="#fff" stop-opacity="0.2"/></linearGradient><linearGradient id="linear-gradient-5" x1="113.53" y1="574.57" x2="1896.43" y2="574.57" xlink:href="#linear-gradient-4"/><linearGradient id="linear-gradient-6" x1="119.72" y1="287.14" x2="1896.29" y2="287.14" xlink:href="#linear-gradient-4"/><linearGradient id="linear-gradient-7" x1="114.23" y1="329.06" x2="1895.64" y2="329.06" xlink:href="#linear-gradient-4"/><linearGradient id="linear-gradient-8" x1="121.32" y1="574.39" x2="1895.54" y2="574.39" xlink:href="#linear-gradient-4"/><linearGradient id="linear-gradient-9" x1="124.21" y1="477.55" x2="1896.1" y2="477.55" xlink:href="#linear-gradient-4"/><linearGradient id="linear-gradient-10" x1="126.18" y1="252.78" x2="1896.28" y2="252.78" xlink:href="#linear-gradient-4"/><linearGradient id="linear-gradient-11" x1="126.95" y1="574.67" x2="1896.76" y2="574.67" xlink:href="#linear-gradient-4"/><linearGradient id="linear-gradient-12" x1="129.21" y1="169.1" x2="1896.82" y2="169.1" xlink:href="#linear-gradient-4"/><linearGradient id="linear-gradient-13" x1="118.98" y1="358.83" x2="1890.32" y2="358.83" xlink:href="#linear-gradient-4"/><linearGradient id="linear-gradient-14" x1="118.98" y1="685.1" x2="1890.32" y2="685.1" xlink:href="#linear-gradient-4"/><linearGradient id="linear-gradient-15" x1="165.24" y1="526.03" x2="1893" y2="526.03" xlink:href="#linear-gradient-4"/><linearGradient id="linear-gradient-16" x1="123.74" y1="1098.84" x2="1908.29" y2="1098.84" xlink:href="#linear-gradient-4"/><linearGradient id="linear-gradient-17" x1="123.84" y1="1152.25" x2="1908.18" y2="1152.25" xlink:href="#linear-gradient-4"/><linearGradient id="linear-gradient-18" x1="124.2" y1="1214.38" x2="1907.77" y2="1214.38" xlink:href="#linear-gradient-4"/><linearGradient id="linear-gradient-19" x1="113.11" y1="822.31" x2="1896.9" y2="822.31" xlink:href="#linear-gradient-4"/><linearGradient id="linear-gradient-20" x1="130.7" y1="980.86" x2="1907.27" y2="980.86" xlink:href="#linear-gradient-4"/><linearGradient id="linear-gradient-21" x1="121.32" y1="728.57" x2="1895.54" y2="728.57" xlink:href="#linear-gradient-4"/><linearGradient id="linear-gradient-22" x1="124.21" y1="809.43" x2="1896.09" y2="809.43" xlink:href="#linear-gradient-4"/><linearGradient id="linear-gradient-23" x1="137.17" y1="1002.22" x2="1907.27" y2="1002.22" xlink:href="#linear-gradient-4"/><linearGradient id="linear-gradient-24" x1="126.9" y1="728.3" x2="1896.77" y2="728.3" xlink:href="#linear-gradient-4"/><linearGradient id="linear-gradient-25" x1="140.19" y1="1081.92" x2="1907.8" y2="1081.92" xlink:href="#linear-gradient-4"/><linearGradient id="linear-gradient-26" x1="165.23" y1="777.93" x2="1892.99" y2="777.93" xlink:href="#linear-gradient-4"/><linearGradient id="linear-gradient-27" x1="112.75" y1="139.18" x2="1897.3" y2="139.18" xlink:href="#linear-gradient-4"/><linearGradient id="linear-gradient-28" x1="112.85" y1="98.76" x2="1897.19" y2="98.76" xlink:href="#linear-gradient-4"/><linearGradient id="linear-gradient-29" x1="113.21" y1="45.62" x2="1896.78" y2="45.62" xlink:href="#linear-gradient-4"/><linearGradient id="linear-gradient-30" x1="113.11" y1="428.7" x2="1896.9" y2="428.7" xlink:href="#linear-gradient-4"/><linearGradient id="linear-gradient-31" x1="113.31" y1="287.14" x2="1889.88" y2="287.14" xlink:href="#linear-gradient-4"/><linearGradient id="linear-gradient-32" x1="113.93" y1="574.39" x2="1888.14" y2="574.39" xlink:href="#linear-gradient-4"/><linearGradient id="linear-gradient-33" x1="113.24" y1="477.55" x2="1885.11" y2="477.55" xlink:href="#linear-gradient-4"/><linearGradient id="linear-gradient-34" x1="112.95" y1="252.78" x2="1883.06" y2="252.78" xlink:href="#linear-gradient-4"/><linearGradient id="linear-gradient-35" x1="112.45" y1="574.67" x2="1882.27" y2="574.67" xlink:href="#linear-gradient-4"/><linearGradient id="linear-gradient-36" x1="114.62" y1="633.66" x2="1895.21" y2="633.66" xlink:href="#linear-gradient-4"/><linearGradient id="linear-gradient-37" x1="112.28" y1="169.1" x2="1879.88" y2="169.1" xlink:href="#linear-gradient-4"/><linearGradient id="linear-gradient-38" x1="113.84" y1="526.03" x2="1841.57" y2="526.03" xlink:href="#linear-gradient-4"/><linearGradient id="linear-gradient-39" x1="124.35" y1="966.9" x2="1907.6" y2="966.9" xlink:href="#linear-gradient-4"/><linearGradient id="linear-gradient-40" x1="113.52" y1="728.4" x2="1896.43" y2="728.4" xlink:href="#linear-gradient-4"/><linearGradient id="linear-gradient-41" x1="124.3" y1="980.86" x2="1900.86" y2="980.86" xlink:href="#linear-gradient-4"/><linearGradient id="linear-gradient-42" x1="125.23" y1="922.95" x2="1906.62" y2="922.95" xlink:href="#linear-gradient-4"/><linearGradient id="linear-gradient-43" x1="113.93" y1="728.57" x2="1888.14" y2="728.57" xlink:href="#linear-gradient-4"/><linearGradient id="linear-gradient-44" x1="113.24" y1="809.43" x2="1885.11" y2="809.43" xlink:href="#linear-gradient-4"/><linearGradient id="linear-gradient-45" x1="123.94" y1="1002.22" x2="1894.05" y2="1002.22" xlink:href="#linear-gradient-4"/><linearGradient id="linear-gradient-46" x1="137.17" y1="902.32" x2="1907.27" y2="902.32" xlink:href="#linear-gradient-4"/><linearGradient id="linear-gradient-47" x1="123.94" y1="902.32" x2="1894.05" y2="902.32" xlink:href="#linear-gradient-4"/><linearGradient id="linear-gradient-48" x1="137.17" y1="651.56" x2="1907.27" y2="651.56" xlink:href="#linear-gradient-4"/><linearGradient id="linear-gradient-49" x1="123.94" y1="651.56" x2="1894.05" y2="651.56" xlink:href="#linear-gradient-4"/><linearGradient id="linear-gradient-50" x1="137.17" y1="381.83" x2="1907.27" y2="381.83" xlink:href="#linear-gradient-4"/><linearGradient id="linear-gradient-51" x1="123.94" y1="381.83" x2="1894.05" y2="381.83" xlink:href="#linear-gradient-4"/><linearGradient id="linear-gradient-52" x1="112.45" y1="728.3" x2="1882.26" y2="728.3" xlink:href="#linear-gradient-4"/><linearGradient id="linear-gradient-53" x1="123.26" y1="1081.92" x2="1890.93" y2="1081.92" xlink:href="#linear-gradient-4"/><linearGradient id="linear-gradient-54" x1="118.99" y1="883.19" x2="1890.31" y2="883.19" xlink:href="#linear-gradient-4"/><linearGradient id="linear-gradient-55" x1="113.85" y1="777.93" x2="1841.58" y2="777.93" xlink:href="#linear-gradient-4"/></defs><g id="Layer_2" data-name="Layer 2"><g id="Layer_2-2" data-name="Layer 2"><rect class="cls-1" width="1920" height="1260"/><path class="cls-2" d="M1920,1169.55V1260H0v-90.45C214.58,1075.34,564.62,1014,960,1014S1705.42,1075.34,1920,1169.55Z"/><path class="cls-3" d="M1920,1259.55v.45H0v-.45C214.58,1165.34,564.62,1104,960,1104S1705.42,1165.34,1920,1259.55Z"/><path class="cls-4" d="M1419.49,325a8.74,8.74,0,0,1-7.89-4.38c-2.12-3.88-5-4.2-8.31-4.2h-.22q-16.08,0-32.17,0c-14.43,0-29.36,0-44,.09h-.11A11.18,11.18,0,0,1,1318,313c-10.43-10.54-21.09-21.19-31.39-31.49-10.14-10.14-20.63-20.62-30.89-31a12.51,12.51,0,0,0-9.81-4c-46.41,0-94.52.07-143,.07q-68.52,0-137-.06h-.23l-.2.1a3.35,3.35,0,0,1-1.42.23,19.91,19.91,0,0,1-2.12-.17c-.6-.07-1.17-.14-1.69-.16H949.09c-.56,0-1.13.09-1.73.16a20.12,20.12,0,0,1-2.12.17,3.35,3.35,0,0,1-1.42-.23l-.2-.1h-.23q-68.52.06-137,.06c-48.49,0-96.59,0-143-.07a12.67,12.67,0,0,0-9.83,4c-10.27,10.36-20.75,20.85-30.9,31-10.3,10.3-20.95,20.95-31.38,31.48a11.2,11.2,0,0,1-8.78,3.59h-.11c-14.68-.08-29.61-.09-44-.09q-16.08,0-32.17,0h-.22c-3.29,0-6.19.32-8.31,4.2a8.75,8.75,0,0,1-7.89,4.38,10.61,10.61,0,0,1-3.25-.51,10,10,0,0,1-7-9.69,9.69,9.69,0,0,1,6.73-9.47,9.84,9.84,0,0,1,3.55-.66,9,9,0,0,1,8,4.58c2.11,3.8,4.94,4.11,7.9,4.11h.12q18.56-.06,37.11-.07c13.71,0,26.15,0,38,.1H581a12.06,12.06,0,0,0,9.25-4c9.49-9.57,19.19-19.26,28.56-28.63,11.07-11.07,22.52-22.51,33.72-33.83a11.27,11.27,0,0,1,8.84-3.61c31.47.07,62.45.08,88.61.08H855.6c27.69,0,57.48,0,87.72,0h.23l.21-.1a3.18,3.18,0,0,1,1.35-.23,17.86,17.86,0,0,1,2.11.18c.51.07,1,.13,1.45.16h11.82c.52,0,1-.09,1.52-.16a17.68,17.68,0,0,1,2.11-.18,3.18,3.18,0,0,1,1.35.23l.21.1h.23c30.24,0,60,0,87.72,0h105.59c26.16,0,57.14,0,88.57-.08a11.27,11.27,0,0,1,8.87,3.61c11.2,11.31,22.64,22.75,33.7,33.8,9.38,9.38,19.09,19.08,28.59,28.66a12,12,0,0,0,9.25,4h.11c11.89-.07,24.33-.1,38-.1q18.56,0,37.11.07h.12c3,0,5.79-.31,7.9-4.11a9,9,0,0,1,8-4.58,9.84,9.84,0,0,1,3.55.66,9.69,9.69,0,0,1,6.73,9.47,10,10,0,0,1-7,9.69A10.5,10.5,0,0,1,1419.49,325Z"/><path class="cls-5" d="M1381.85,577.9a10.42,10.42,0,0,0-2.89-.42c-3.38,0-6.35,1.85-8.38,5.23a6.31,6.31,0,0,1-6.17,3.41h-.13c-7.22-.06-13.64-.09-19.64-.09-5.39,0-10.4,0-15.3.08h-.16a10.29,10.29,0,0,1-7.9-3.37c-3.9-4-7.91-8-11.8-11.88-5-4.94-10.08-10.05-15-15.19a12.78,12.78,0,0,0-10.21-4.3c-34.82.09-69.34.11-98.52.11H1102q-68.4,0-136.8,0h-.11l-.1,0a5.34,5.34,0,0,0-1.15-.1c-.48,0-1,0-1.45.06l-1.06.06h-13.5l-1-.06c-.48,0-1-.06-1.45-.06a5.28,5.28,0,0,0-1.15.1l-.1,0H944q-68.4,0-136.8,0H723.49c-29.17,0-63.7,0-98.58-.11a12.74,12.74,0,0,0-10.15,4.3c-4.93,5.13-10,10.24-15,15.18-3.89,3.88-7.91,7.89-11.81,11.89a10.3,10.3,0,0,1-7.9,3.37h-.16c-4.9-.05-9.91-.08-15.31-.08-6,0-12.41,0-19.63.09h-.14a6.3,6.3,0,0,1-6.16-3.41c-2-3.38-5-5.23-8.38-5.23a10.42,10.42,0,0,0-2.89.42,10.16,10.16,0,0,0-7.53,9.81,9.88,9.88,0,0,0,2.32,6.29,10.31,10.31,0,0,0,4.89,3.26,10.69,10.69,0,0,0,3.21.51,9.18,9.18,0,0,0,7.4-3.77,12.48,12.48,0,0,0,.8-1.16c1.75-2.89,3.85-3.47,6.68-3.47h5c3.14,0,6.29,0,9.43,0l9.45,0c4.51,0,8.23,0,11.72.08H581a10.57,10.57,0,0,0,8.19-3.52c3.79-3.89,7.71-7.78,11.5-11.54,4.82-4.8,9.81-9.76,14.59-14.74a14.74,14.74,0,0,1,11.61-5c57.18.09,113.75.11,180.83.11H944l.12,0a4.12,4.12,0,0,0,1.08.11c.51,0,1,0,1.58-.09l.7,0,7.13,0,7.18,0,.64,0c.52,0,1.07.09,1.57.09a4.21,4.21,0,0,0,1.09-.11l.12,0h133.94c68.1,0,125.3,0,183.18-.11a14.72,14.72,0,0,1,11.58,5c4.78,5,9.77,9.94,14.59,14.74,3.79,3.76,7.71,7.65,11.5,11.54a10.57,10.57,0,0,0,8.19,3.52h.27c3.49-.06,7.21-.08,11.72-.08l9.44,0,9.44,0h5c2.83,0,4.93.58,6.68,3.47a9.45,9.45,0,0,0,8.19,4.93,10.76,10.76,0,0,0,3.22-.51,10,10,0,0,0-.32-19.36ZM535.76,593.06a7.21,7.21,0,0,1-1.06.94,7.75,7.75,0,0,1-4.47,1.6h-.29A7.81,7.81,0,0,1,525.2,594a8,8,0,0,1-3.19-6.1,8.11,8.11,0,0,1,7.66-8.29H530a8.07,8.07,0,0,1,7.93,7.75A7.9,7.9,0,0,1,535.76,593.06Zm843.53,2.55H1379a8,8,0,0,1-7.65-8.25,8.06,8.06,0,0,1,7.93-7.75h.28a8.12,8.12,0,0,1,7.66,8.29A8,8,0,0,1,1379.29,595.61Z"/><path class="cls-6" d="M1666.58,290.51a10.58,10.58,0,0,0-3.23-.51,9.16,9.16,0,0,0-8.21,4.82c-1.76,3.16-3.93,3.78-7.13,3.78q-25.2,0-50.42,0-27.49,0-55,.06a9.7,9.7,0,0,1-7.54-3.14c-4.09-4.17-8.3-8.37-12.38-12.42-5.13-5.12-10.44-10.41-15.57-15.71a10.49,10.49,0,0,0-8.33-3.41h-.11c-11.72.07-24.33.1-40.88.1l-38.44,0h-78.79l-5.21,0a2.52,2.52,0,0,0-1.77.52,1.47,1.47,0,0,0-.3,1.13c0,.33.07,1.37,1.92,1.39,1.56,0,3.13,0,4.69,0h60.21c28.69,0,62.64,0,96.88-.07a11.36,11.36,0,0,1,8.92,3.64c3.66,3.77,7.45,7.53,11.13,11.17,4.83,4.79,9.83,9.75,14.58,14.79a15.2,15.2,0,0,0,12.19,5.25h.21c18.58-.15,36.78-.17,53.67-.17h49.72c3.13,0,5.89.3,8,4.08a8.84,8.84,0,0,0,7.9,4.53,10.06,10.06,0,0,0,3.63-.67,9.67,9.67,0,0,0,6.72-9.46A10.08,10.08,0,0,0,1666.58,290.51ZM1663.52,308a7.63,7.63,0,0,1-.82,0,7.77,7.77,0,0,1-5.38-2.89,7.67,7.67,0,0,1-1.69-5.79,8.13,8.13,0,0,1,7.91-7.15,7.87,7.87,0,0,1,.84,0,8,8,0,0,1,7,8.78A7.74,7.74,0,0,1,1663.52,308Z"/><path class="cls-7" d="M1271.48,337.94a10.55,10.55,0,0,0-1.92-2.78,10.29,10.29,0,0,0-4.07-2.66,9.86,9.86,0,0,0-3.15-.52,9.53,9.53,0,0,0-8.34,4.76c-1.88,3.21-4.19,3.87-7.11,3.87q-30.14-.08-60.25-.08-22.61,0-45.24.06a10.27,10.27,0,0,1-7.92-3.47c-4.31-4.4-8.74-8.82-13-13.09-4.92-4.91-10-10-14.94-15a9.41,9.41,0,0,0-7.5-3.07h-2.21c-13.5.06-26.61.07-36.66.07l-67.22,0-26.22,0h-.15l-.14-.05a4.08,4.08,0,0,0-1.1-.12c-.52,0-1.09.05-1.65.1-.27,0-.53.06-.86.08l-7.19,0-7.25,0-.79-.08c-.56-.05-1.13-.1-1.65-.1a4.08,4.08,0,0,0-1.1.12l-.14.05h-.15l-26.22,0-67.22,0c-10.6,0-24.6,0-39-.08a9.38,9.38,0,0,0-7.43,3.07c-4.93,5.06-10,10.14-14.94,15-4.28,4.27-8.72,8.69-13,13.09a10.33,10.33,0,0,1-8,3.47q-22.6-.06-45.2-.06-30.12,0-60.29.08c-2.88,0-5.19-.66-7.07-3.87a9.55,9.55,0,0,0-8.34-4.76,9.86,9.86,0,0,0-3.15.52,10.36,10.36,0,0,0-6.92,9.8,9.73,9.73,0,0,0,6.87,9.38,10.19,10.19,0,0,0,3.46.62,9.18,9.18,0,0,0,8-4.71,7.5,7.5,0,0,1,3.29-3.23,10,10,0,0,1,4.29-.75q22.32.06,44.63.06c19.93,0,40.54,0,60.92.13a11.62,11.62,0,0,0,9.18-3.92c4.55-4.73,9.28-9.44,13.86-14,4.27-4.25,8.7-8.66,13-13.07a12,12,0,0,1,9.41-3.82c23.06.05,47,.08,73,.08q28.35,0,56.7,0h.17l.16.06a3.65,3.65,0,0,0,1.17.15c.53,0,1.11-.06,1.68-.11.39,0,.77-.08,1.18-.1h13.62c.36,0,.74.06,1.13.1.56.05,1.15.11,1.68.11a3.65,3.65,0,0,0,1.17-.15l.16-.06h.17q28.35,0,56.7,0h.13c25.43,0,48.79,0,71.35-.08h1.62a11.93,11.93,0,0,1,9.35,3.82c4.27,4.41,8.69,8.81,13,13.06,4.58,4.56,9.31,9.27,13.87,14a11.69,11.69,0,0,0,9.28,3.92c20.27-.1,40.89-.12,60.82-.13,14.88,0,29.75,0,44.7-.06,3.19,0,5.57.66,7.51,4a9.17,9.17,0,0,0,8,4.72,10.19,10.19,0,0,0,3.46-.62,9.73,9.73,0,0,0,6.87-9.38A9.34,9.34,0,0,0,1271.48,337.94ZM646.86,350a7.93,7.93,0,0,1-5.67-2.38A7.74,7.74,0,0,1,639,342a8.12,8.12,0,0,1,7.92-7.95H647a7.87,7.87,0,0,1,7.8,8.06A7.66,7.66,0,0,1,646.86,350ZM1268,347.62a8,8,0,0,1-5.7,2.38,7.67,7.67,0,0,1-7.9-7.86,7.89,7.89,0,0,1,7.81-8.06h.1a8.13,8.13,0,0,1,7.93,7.95A7.74,7.74,0,0,1,1268,347.62Z"/><path class="cls-8" d="M1599.81,597.68a8.62,8.62,0,0,1-7.42-3.93c-2.78-4.32-6-4.67-9.7-4.67h-.15q-24.37.07-48.76.06c-18.07,0-36.74,0-55.12.08a11.18,11.18,0,0,1-8.9-3.64c-4.62-4.78-9.4-9.55-14-14.16-4.34-4.32-8.83-8.8-13.17-13.27a11.91,11.91,0,0,0-9.33-3.84c-14.92.06-30.14.09-46.6.09-15,0-30.87,0-48.49-.07h0c-.53,0-1.08.06-1.67.12a16.79,16.79,0,0,1-1.69.12c-1.45,0-1.9-.4-1.9-1.71a1.79,1.79,0,0,1,.37-1.31,2.4,2.4,0,0,1,1.72-.44c.5,0,1,0,1.58.09s1.06.09,1.53.09c7.23,0,14.91-.06,25-.06h24.15l12.71,0,13.23,0c8.46,0,15.32,0,21.57-.14h.27a11.41,11.41,0,0,1,9,3.93c4.55,4.71,9.27,9.41,13.84,13.95,4.17,4.14,8.48,8.43,12.64,12.72a12.49,12.49,0,0,0,9.73,4.19c16.25-.07,33.38-.11,52.43-.11q25.5,0,51,.07h0c3.27,0,6.1-.32,8.44-4.29a8.74,8.74,0,0,1,7.72-4.33,10.53,10.53,0,0,1,6.73,2.49,10.11,10.11,0,0,1,3.62,7.28,9.82,9.82,0,0,1-2.85,7.48,10.55,10.55,0,0,1-7.46,3.15Z"/><path class="cls-9" d="M1553.38,500.77h-.69c-3.59-.12-7.49-.17-12.26-.17-2.77,0-5.54,0-8.3,0s-5.53,0-8.29,0h-16.45q-8.67,0-17.34,0h0l-.85,0-.79,0a2.73,2.73,0,0,1-1.78-.41,1.64,1.64,0,0,1-.33-1.17c0-1.24.4-1.68,2.65-1.68h12l22.89,0c11.08,0,20.23,0,28.79.08h.12a11.32,11.32,0,0,0,8.82-3.73c4.17-4.29,8.49-8.59,12.67-12.75,4.8-4.77,9.76-9.71,14.53-14.66a11,11,0,0,1,8.79-3.57c18.41.08,37,.08,55,.09q20.79,0,41.6,0c3.49,0,6-.69,8-4.14a8.82,8.82,0,0,1,7.85-4.4,10.68,10.68,0,0,1,3.29.53,10.12,10.12,0,0,1-.12,19.28,11.4,11.4,0,0,1-3.14.45,9,9,0,0,1-8.27-4.89c-1.84-3.5-4.39-3.79-7.06-3.79-15.88,0-31.69,0-47.51,0-17.71,0-33.6,0-48.57-.07a10.88,10.88,0,0,0-8.49,3.52c-3.76,3.86-7.65,7.72-11.41,11.46-5.1,5.06-10.38,10.3-15.42,15.6A12.7,12.7,0,0,1,1553.38,500.77Z"/><path class="cls-10" d="M1748.48,263a8.84,8.84,0,0,1-7.94-4.61c-2-3.77-4.83-4.08-8-4.08q-39,0-77.85,0c-35.72,0-68.15,0-99.13-.08a16.35,16.35,0,0,0-2,.17,17.44,17.44,0,0,1-2.09.19,2.22,2.22,0,0,1-1.6-.43,2.06,2.06,0,0,1-.37-1.49c0-1.17.39-1.8,2.21-1.8a19.55,19.55,0,0,1,2.1.17,18.66,18.66,0,0,0,2,.16c18-.07,35.94-.08,49.55-.08h77.39c14.67,0,32,0,49.5.06h.13c3.29,0,6.19-.32,8.38-4.25a8.64,8.64,0,0,1,7.73-4.3,10.58,10.58,0,0,1,3.42.57,9.94,9.94,0,0,1,6.91,9.75c-.11,4.58-2.39,7.73-6.8,9.37a10.3,10.3,0,0,1-3.54.64Z"/><path class="cls-11" d="M1804.45,578.2a11.08,11.08,0,0,0-3.43-.55,8.82,8.82,0,0,0-8,4.71c-2,3.69-4.68,4-7.56,4h0q-21.92,0-43.83-.05c-15.8,0-31.41,0-46.43.07a9.16,9.16,0,0,1-7-3c-4.66-4.71-9.43-9.47-14-14.08-4.95-4.93-10.06-10-15-15.1a8.29,8.29,0,0,0-6.34-2.8h-.27c-2.59.07-5.41.09-8.85.09l-6,0h-5v0H1619l-10.92,0a3.06,3.06,0,0,0-2.19.62,1.52,1.52,0,0,0-.31,1.21c.06.86.46,1.29,2.56,1.4.66,0,1.32,0,2,0h1.62l10,0,11.9,0c6.45,0,11.74,0,16.63-.08h.15a10.34,10.34,0,0,1,7.9,3.36c4,4.06,8.11,8.15,12.08,12.1,5.12,5.09,10.41,10.35,15.51,15.63a11.74,11.74,0,0,0,9.37,3.81c17.68-.08,35.66-.08,53-.08l37.26,0c2.8,0,5.49.3,7.54,3.92a8.71,8.71,0,0,0,7.79,4.49,10.77,10.77,0,0,0,3.25-.52,10,10,0,0,0,.21-19.21Zm-3.11,17.61a8.15,8.15,0,0,1-7.94-8,8.08,8.08,0,0,1,8-7.95h0a7.75,7.75,0,0,1,5.55,2.28,8.07,8.07,0,0,1-5.59,13.71Z"/><path class="cls-12" d="M1825.71,154.62c-.46-4.56-3-7.51-7.52-8.75a10.83,10.83,0,0,0-2.85-.4,9.08,9.08,0,0,0-8.5,5.74c-1.56,3.65-4,3.95-6.71,3.95h-.23q-6.89,0-13.78,0h-13c-6.66,0-14.52,0-22.26-.08h-.13a8.82,8.82,0,0,0-6.92,2.95c-4.46,4.56-9.06,9.14-13.5,13.58-4.76,4.74-9.68,9.65-14.45,14.55a10.73,10.73,0,0,1-8.39,3.46h-.12c-8.58-.06-18-.08-28.74-.08q-14.13,0-28.26,0h-2.49c-.35,0-.72,0-1.09,0s-.73,0-1.09,0a2.4,2.4,0,0,0-1.67.4,1.73,1.73,0,0,0-.31,1.25c0,1.23.48,1.59,2,1.59.38,0,.76,0,1.14-.05s.77,0,1.19,0c4.88,0,9.75,0,14.63,0h16.15l8.58,0,8.58,0c5.34,0,9.68,0,13.65.1h.23a8.67,8.67,0,0,0,6.82-2.9c5-5.09,10.11-10.2,15.07-15.14,4.38-4.35,8.9-8.85,13.29-13.32a9.61,9.61,0,0,1,7.43-3.2h.11c7.37.05,15.2.08,24,.08,8.19,0,16.38,0,24.64-.05,2.53,0,4.58.53,6.37,3.11a9.6,9.6,0,0,0,8,4.47,10.63,10.63,0,0,0,4.16-.89A9.74,9.74,0,0,0,1825.71,154.62Zm-10,8.93a7.93,7.93,0,0,1,0-15.86h.07a7.93,7.93,0,0,1-.1,15.86Z"/><path class="cls-13" d="M1057.34,369a9.06,9.06,0,0,1-7.88-4.5c-2-3.43-4.4-4.09-7.88-4.09-14.59,0-30,.05-50.11.05H917.76c-20.1,0-35.52,0-50-.05h0c-3.57,0-6,.66-8,4.09a8.91,8.91,0,0,1-7.88,4.5,10.17,10.17,0,0,1-3.67-.7,9.65,9.65,0,0,1-6.66-9.46,10.12,10.12,0,0,1,7-9.65,11,11,0,0,1,3.21-.48,9.16,9.16,0,0,1,8.25,4.78c1.92,3.57,4.46,3.86,7.34,3.86h.24q11.26-.06,22.52-.05h129q11.25,0,22.52.05h.24c2.88,0,5.42-.29,7.34-3.86a9.15,9.15,0,0,1,8.25-4.78,11,11,0,0,1,3.21.48,10.12,10.12,0,0,1,7,9.65,9.65,9.65,0,0,1-6.66,9.46,10.17,10.17,0,0,1-3.67.7Z"/><path class="cls-14" d="M1057.34,695.24a9,9,0,0,1-7.88-4.5c-2-3.42-4.4-4.09-7.88-4.09-14.59,0-30,.06-50.11.06H917.76c-20.1,0-35.52,0-50-.06h0c-3.57,0-6,.67-8,4.09a8.91,8.91,0,0,1-7.88,4.5,10.16,10.16,0,0,1-3.67-.69,9.66,9.66,0,0,1-6.66-9.47,10.12,10.12,0,0,1,7-9.65,11,11,0,0,1,3.21-.48,9.18,9.18,0,0,1,8.25,4.78c1.92,3.57,4.46,3.86,7.34,3.86h.24q11.26-.06,22.52-.05l32.36,0h72.22l24.39,0q11.25,0,22.52.05h.24c2.88,0,5.42-.29,7.34-3.86a9.17,9.17,0,0,1,8.25-4.78,11,11,0,0,1,3.21.48,10.12,10.12,0,0,1,7,9.65,9.66,9.66,0,0,1-6.66,9.47,10.16,10.16,0,0,1-3.67.69Z"/><path class="cls-15" d="M1748.52,536.28a8.46,8.46,0,0,1-7.47-4c-2.59-4.3-5.8-4.66-9.14-4.66h-.71q-4.53.06-9.06.06c-3.94,0-7.88,0-11.82-.06l-6.16,0h-1.38c-1.77,0-2.08-.39-2.15-1.3a1.75,1.75,0,0,1,.29-1.29c.53-.57,1.95-.57,3.1-.57h15.14l6.45,0,3.94,0H1731c3.94,0,7.74-.4,10.81-5.24a7.44,7.44,0,0,1,6.56-3.41,10.94,10.94,0,0,1,7.82,3.44,9.93,9.93,0,0,1,2.71,7.31,10,10,0,0,1-3.37,7.09A10.67,10.67,0,0,1,1748.52,536.28Z"/><path class="cls-16" d="M1676.18,1139.51a10.15,10.15,0,0,1-5.33-1.56,9.5,9.5,0,0,1-4.25-11.47c1.4-3.83-.13-5.78-2.13-7.77-21.23-21.13-38.47-38.36-54.24-54.24a9.83,9.83,0,0,0-7.57-3.15q-63.5.06-127,0-62.57,0-125.13,0a10.31,10.31,0,0,0-8,3.46c-3.71,3.78-7.54,7.58-11.23,11.25-5.17,5.13-10.51,10.44-15.63,15.79a13.24,13.24,0,0,1-10.57,4.48c-36.09-.1-72.22-.12-102.81-.12H728.83c-30.59,0-66.73,0-102.75.12a13.3,13.3,0,0,1-10.64-4.48c-5.12-5.36-10.46-10.67-15.63-15.8-3.69-3.67-7.51-7.46-11.22-11.24a10.3,10.3,0,0,0-7.94-3.46q-62.6.06-125.15,0-63.48,0-126.95,0a9.83,9.83,0,0,0-7.57,3.15c-15.73,15.83-33,33.07-54.25,54.24-2,2-3.52,3.94-2.13,7.77a9.49,9.49,0,0,1-4.24,11.47,10.15,10.15,0,0,1-5.33,1.56,10,10,0,0,1-6.57-2.52,10.17,10.17,0,0,1-2.64-11.69,9.57,9.57,0,0,1,8.91-5.93,10.86,10.86,0,0,1,2.38.27,8.11,8.11,0,0,0,1.58.17c2.48,0,3.93-1.45,5.34-2.86l.2-.2,15-15c13.12-13.09,26.69-26.63,40-40a10.75,10.75,0,0,1,8.37-3.56c41.74.06,85.24.08,129.33.08q62.43,0,124.86-.06a10.09,10.09,0,0,1,8,3.2c4.51,4.64,9.17,9.29,13.68,13.78s9.32,9.28,13.89,14a12,12,0,0,0,9.38,3.86c82.25-.08,165.85-.08,246.7-.08H1057.8c80.85,0,164.45,0,246.68.08a12,12,0,0,0,9.39-3.86c4.58-4.72,9.32-9.44,13.9-14s9.17-9.14,13.68-13.78a10.06,10.06,0,0,1,8-3.2q62.44.06,124.87.06c44.1,0,87.61,0,129.31-.08a10.73,10.73,0,0,1,8.39,3.56c13.22,13.35,26.74,26.84,39.82,39.89l15.15,15.13.2.2c1.4,1.41,2.86,2.86,5.34,2.86a8.11,8.11,0,0,0,1.58-.17,10.86,10.86,0,0,1,2.38-.27,9.59,9.59,0,0,1,8.91,5.93,10.17,10.17,0,0,1-2.64,11.69,10,10,0,0,1-6.57,2.52Z"/><path class="cls-17" d="M1627,1175.83a9.89,9.89,0,0,1-5.16-1.43c-4.16-2.56-5.71-7-4.14-12,1-3,.06-4.7-1.71-6.43-6.7-6.56-13.62-13.33-20.25-20.3a11.82,11.82,0,0,0-9.35-3.89q-49.65.06-99.25.06c-39,0-79.85,0-121.52-.07a10.3,10.3,0,0,0-8,3.36c-4,4.12-8.18,8.27-12.2,12.28-5.06,5-10.3,10.28-15.35,15.52a11.69,11.69,0,0,1-9.29,3.89c-38.57-.08-76.71-.09-109-.09H719.36c-32.23,0-70.37,0-108.91.09a11.68,11.68,0,0,1-9.32-3.89c-5.06-5.24-10.3-10.47-15.36-15.53-4-4-8.16-8.15-12.19-12.27a10.29,10.29,0,0,0-8-3.36c-41.7,0-82.58.07-121.54.07q-49.62,0-99.23-.06a11.86,11.86,0,0,0-9.38,3.89c-6.64,7-13.55,13.75-20.24,20.3-1.77,1.73-2.67,3.41-1.72,6.43,1.57,5,0,9.45-4.13,12a9.89,9.89,0,0,1-5.16,1.43,10.27,10.27,0,0,1-6.76-2.51,10.14,10.14,0,0,1-2.53-11.7,9.43,9.43,0,0,1,8.87-5.84,12.19,12.19,0,0,1,2.51.27,8.37,8.37,0,0,0,1.72.19c2.12,0,3.49-1,5-2.5q4.68-4.74,9.4-9.42c4.18-4.16,8.51-8.47,12.7-12.77a8.36,8.36,0,0,1,6.55-2.85q52,0,103.9,0c40.82,0,82.07,0,122.61-.07a7.93,7.93,0,0,1,6.08,2.8c3.69,3.72,7.41,7.42,11.12,11.12,5.68,5.65,11.55,11.5,17.25,17.32a10.9,10.9,0,0,0,8.45,3.59c86.84-.08,175.11-.09,260.48-.09h22q31.47,0,62.95,0h18.1l63,0h22c85.37,0,173.65,0,260.47.09a10.88,10.88,0,0,0,8.46-3.59c5.71-5.82,11.59-11.68,17.27-17.34q5.57-5.53,11.11-11.1a7.92,7.92,0,0,1,6.06-2.8c40.56,0,81.81.07,122.63.07q51.94,0,103.88,0a8.39,8.39,0,0,1,6.57,2.85c4.19,4.3,8.52,8.61,12.7,12.77q4.71,4.7,9.4,9.42c1.52,1.54,2.89,2.5,5,2.5a8.39,8.39,0,0,0,1.73-.19,12.19,12.19,0,0,1,2.51-.27,9.43,9.43,0,0,1,8.87,5.84,10.14,10.14,0,0,1-2.53,11.7A10.29,10.29,0,0,1,1627,1175.83Z"/><path class="cls-18" d="M1479.61,1192.08a13.12,13.12,0,0,0-4.13-.72,8.38,8.38,0,0,0-7.29,3.94,8.43,8.43,0,0,1-3.61,3.22,11.08,11.08,0,0,1-4.51.74q-16.29-.06-32.58,0c-15.32,0-31.17,0-46.75-.13h-.21c-4.55,0-7.59,1.25-10.48,4.31-4.91,5.17-10,10.27-15,15.2-3.77,3.75-7.68,7.62-11.44,11.5a12,12,0,0,1-9.38,4c-39.24,0-78.28-.07-116.41-.07H689l-62.32,0h0l-29.65,0a12,12,0,0,1-9.36-4c-3.77-3.88-7.67-7.75-11.44-11.5-5-4.93-10.11-10-15-15.2-2.9-3.06-5.94-4.31-10.49-4.31h-.2c-15.58.12-31.43.12-46.75.13h-9.35c-7.75,0-15.51,0-23.33,0-3.31,0-5.81-.66-8-4a8.36,8.36,0,0,0-7.29-3.94,13.16,13.16,0,0,0-4.13.72,9.87,9.87,0,0,0-6.39,10,10.16,10.16,0,0,0,10.16,9.5,9.59,9.59,0,0,0,5.07-1.39,8.37,8.37,0,0,0,3.28-3.59c1.75-3.66,4.16-4.37,7.72-4.37h.11c9.29,0,18,.06,26.41.07h13.49c13.72,0,26.45,0,39-.1a11.37,11.37,0,0,1,8.82,3.77c3.77,3.86,7.67,7.74,11.44,11.48,5.09,5.06,10.36,10.29,15.39,15.58,2.92,3.07,6,4.33,10.72,4.33,11.05,0,22-.05,32.85-.05h0c23.38,0,45.93,0,66.46,0H1224c32.51,0,71,0,110.39.1h.07c4.64,0,7.73-1.26,10.66-4.33,5-5.29,10.3-10.52,15.39-15.57,3.77-3.75,7.67-7.62,11.44-11.49a12.55,12.55,0,0,1,4-2.88,12.31,12.31,0,0,1,4.88-.89c12.46.07,25.18.1,38.91.1,12.48,0,25.53,0,39.89-.08h.12c3.56,0,6,.71,7.71,4.37a8.42,8.42,0,0,0,2.21,2.83,9.54,9.54,0,0,0,6.15,2.15,10.17,10.17,0,0,0,9.72-7.12,10.1,10.1,0,0,0-6-12.42ZM457.05,1209.27a8.1,8.1,0,0,1-1.86.22,8.22,8.22,0,0,1-7.94-8,7.85,7.85,0,0,1,8-7.85h.05a8,8,0,0,1,5.63,2.31,7.82,7.82,0,0,1,2.26,5.62A8,8,0,0,1,457.05,1209.27Zm1018.91.22a7.84,7.84,0,0,1-3.57-.86,8,8,0,0,1-4.33-7.09,7.82,7.82,0,0,1,2.26-5.62,8,8,0,0,1,5.63-2.31h0a7.83,7.83,0,0,1,8,7.85,7.63,7.63,0,0,1-1.07,3.89A8.23,8.23,0,0,1,1476,1209.49Z"/><path class="cls-19" d="M1498.63,832.51a8.62,8.62,0,0,1-7.41-4c-2.72-4.24-5.94-4.58-9.86-4.58q-89.47.08-178.84.05H1190.36q-112.32,0-224.64,0h-.16l-.14,0a4.59,4.59,0,0,1-1.3.15c-.56,0-1.16,0-1.75-.1s-.94-.08-1.37-.1H948.26c-.46,0-.92.06-1.4.1s-1.19.1-1.75.1a4.54,4.54,0,0,1-1.3-.15l-.15,0h-.15q-112.32.06-224.64,0H606.71q-89.38,0-178.79-.05c-4,0-7.19.34-9.91,4.58a8.62,8.62,0,0,1-7.41,4,10.46,10.46,0,0,1-7.08-2.83,10.11,10.11,0,0,1,0-14.79,10.3,10.3,0,0,1,7-2.79,9.1,9.1,0,0,1,7.84,4.29c2.29,3.62,4.92,4.35,8.42,4.35,129.38-.07,260.9-.07,388.1-.07h70.34q29.07,0,58.16,0h.17l.17-.05a3.55,3.55,0,0,1,1.25-.17c.58,0,1.23.07,1.86.13.36,0,.72.08,1.06.1l6.73,0,6.67,0c.41,0,.77-.06,1.13-.1.63-.06,1.27-.13,1.86-.13a3.55,3.55,0,0,1,1.25.17l.17.05h.17q29.08,0,58.16,0h70.34c127.2,0,258.72,0,388.08.07,3.52,0,6.15-.73,8.44-4.35a9.1,9.1,0,0,1,7.84-4.29,10.3,10.3,0,0,1,7,2.79,10.11,10.11,0,0,1,0,14.79A10.46,10.46,0,0,1,1498.63,832.51Z"/><path class="cls-20" d="M1681.88,961.07a11,11,0,0,0-4.22-2.74,10.28,10.28,0,0,0-3.63-.67l-.6,0a8.79,8.79,0,0,0-7.3,4.51,7.24,7.24,0,0,1-3.61,3.46,9,9,0,0,1-2.65.58c-.58,0-1.18,0-1.79,0h-49.64c-16.89,0-35.09,0-53.68-.16h-.21a16.34,16.34,0,0,0-6.82,1.29,14.57,14.57,0,0,0-3.84,2.49,20.81,20.81,0,0,0-1.53,1.47c-1.44,1.53-2.91,3.06-4.39,4.57-1.1,1.12-2.2,2.24-3.3,3.34-2.3,2.32-4.62,4.61-6.89,6.87l-2.45,2.44c-1.26,1.24-2.53,2.51-3.8,3.78-1.45,1.45-2.9,2.91-4.32,4.38l-.37.38-.19.19a14.15,14.15,0,0,1-1.88,1.64,11.6,11.6,0,0,1-2.22,1.19,13.05,13.05,0,0,1-4.85.81c-34.1-.06-68.16-.07-97-.07h-60.07l-4.68,0c-1.86,0-1.91,1.06-1.93,1.4a1.41,1.41,0,0,0,.31,1.12,2.49,2.49,0,0,0,1.77.52c1.73,0,3.47,0,5.21,0h117.5c9.91,0,18.4,0,26.13,0h0l5.46,0,9,0h.12a11.41,11.41,0,0,0,5.18-1,10.29,10.29,0,0,0,2.47-1.7c.22-.2.45-.42.67-.65l1.4-1.44c2.26-2.32,4.54-4.64,6.83-6.93q3.69-3.71,7.33-7.33l3.48-3.47.87-.87,3-3.05c1.68-1.68,3.35-3.37,5-5a10.69,10.69,0,0,1,2.92-2.17,10.25,10.25,0,0,1,4.66-1q27.48.07,55,.07h36.71l13.76,0,1,0a6.53,6.53,0,0,1,6.09,3.76c.12.22.26.44.39.65a9.27,9.27,0,0,0,3.12,3h0a9.36,9.36,0,0,0,4.69,1.21,10.53,10.53,0,0,0,3.23-.51,10.06,10.06,0,0,0,7-9.69A9.84,9.84,0,0,0,1681.88,961.07Zm-6.73,14.72a7.89,7.89,0,0,1-.84.05,7.63,7.63,0,0,1-3.76-1,8.2,8.2,0,0,1-3.23-3.27,7.91,7.91,0,0,1-.92-2.88,7.83,7.83,0,0,1,5.9-8.48,6.52,6.52,0,0,1,1.17-.21,7.63,7.63,0,0,1,.82,0,7.9,7.9,0,0,1,5.93,2.57,7.65,7.65,0,0,1,2,4.48A8,8,0,0,1,1675.15,975.79Z"/><path class="cls-21" d="M1334.75,751.85a2.4,2.4,0,0,1-1.72-.44,1.83,1.83,0,0,1-.37-1.31c0-1.32.45-1.71,1.9-1.71a16.79,16.79,0,0,1,1.69.12c.59.06,1.14.12,1.66.12,17.54,0,33.36-.07,48.39-.07,16.49,0,31.74,0,46.62.08a12,12,0,0,0,9.42-3.83c4.34-4.47,8.83-8.95,13.17-13.27,4.63-4.61,9.42-9.38,14-14.16a11.1,11.1,0,0,1,8.83-3.64c18.45.07,37.13.07,55.19.08q24.38,0,48.77.06h.14c3.66,0,6.92-.35,9.71-4.67a8.59,8.59,0,0,1,7.42-3.93,10.56,10.56,0,0,1,7.45,3.14,9.9,9.9,0,0,1,2.86,7.49,10.15,10.15,0,0,1-3.63,7.28,10.51,10.51,0,0,1-6.72,2.48h0a8.73,8.73,0,0,1-7.73-4.32c-2.34-4-5.17-4.29-8.36-4.29q-25.68.06-51.19.06c-19,0-36.11,0-52.24-.1h0a12.52,12.52,0,0,0-9.8,4.19c-4.17,4.3-8.49,8.59-12.67,12.74-4.56,4.53-9.28,9.22-13.82,13.93a11.38,11.38,0,0,1-9,3.93h-.27c-6.24-.09-13.08-.14-21.52-.14q-6.59,0-13.17,0l-12.82,0h-24.28c-10,0-17.63,0-24.78-.06h0c-.51,0-1,0-1.57.09S1335.26,751.85,1334.75,751.85Z"/><path class="cls-22" d="M1709.87,832.64a8.82,8.82,0,0,1-7.85-4.4c-2-3.45-4.53-4.14-7.94-4.14-14,0-27.86,0-41.76,0-18,0-36.58,0-54.87.08-3.89,0-6.44-1-8.88-3.56-4.78-4.95-9.73-9.88-14.52-14.65-4.18-4.16-8.51-8.47-12.69-12.76a11.33,11.33,0,0,0-8.82-3.74h-.12c-8.59.06-17.77.08-28.88.08l-23.18,0-10.56,0h-1.08c-2.24,0-2.64-.44-2.65-1.67a1.66,1.66,0,0,1,.33-1.18,2.75,2.75,0,0,1,1.78-.4l.79,0h.8c5.78,0,11.5,0,17.23,0h16.62c2.76,0,5.52,0,8.27,0s5.52,0,8.29,0c4.79,0,8.7-.06,12.3-.17h.68a12.71,12.71,0,0,1,10,4.3c5,5.31,10.32,10.54,15.42,15.61,3.76,3.73,7.65,7.59,11.42,11.45a10.81,10.81,0,0,0,8.42,3.53c15-.06,30.85-.08,48.49-.08q23.8,0,47.59.05c2.74,0,5.29-.29,7.13-3.8a9,9,0,0,1,8.26-4.88,11.72,11.72,0,0,1,3.14.44,10.11,10.11,0,0,1,.12,19.28A10.39,10.39,0,0,1,1709.87,832.64Z"/><path class="cls-23" d="M1759.27,1012.39a8.62,8.62,0,0,1-7.72-4.31c-2.2-3.92-5.1-4.24-8.37-4.24H1743c-17.54,0-34.86,0-49.49,0h-77.24c-13.64,0-31.62,0-49.69-.08h0a18.6,18.6,0,0,0-2,.16,19.47,19.47,0,0,1-2.1.16c-1.82,0-2.18-.63-2.21-1.8a2,2,0,0,1,.37-1.48,2.22,2.22,0,0,1,1.6-.43,17.19,17.19,0,0,1,2.09.18,16.47,16.47,0,0,0,2,.18c31.16-.06,63.7-.08,99.49-.08l77.46,0c3.2,0,6-.3,8-4.08a8.85,8.85,0,0,1,8-4.6,10.07,10.07,0,0,1,3.54.64c4.41,1.63,6.7,4.78,6.8,9.36a9.94,9.94,0,0,1-6.91,9.76A10.58,10.58,0,0,1,1759.27,1012.39Z"/><path class="cls-24" d="M1804,705.55a10.88,10.88,0,0,0-3.26-.52,8.7,8.7,0,0,0-7.79,4.48,7.15,7.15,0,0,1-3.49,3.33,10.87,10.87,0,0,1-4.12.6q-18.6,0-37.19,0c-17.38,0-35.36,0-53.13-.08a11.65,11.65,0,0,0-9.27,3.81c-5.1,5.27-10.38,10.52-15.49,15.6l-6.83,6.81c-1.77,1.77-3.54,3.55-5.28,5.32a10.33,10.33,0,0,1-7.9,3.36h-.15l-8.56-.05h-8.07l-11.9,0-10.12,0h-1.56c-.66,0-1.31,0-2,0a7.1,7.1,0,0,0-1.53.21,1.17,1.17,0,0,0-1,1.19,1.61,1.61,0,0,0,.31,1.21,3.08,3.08,0,0,0,2.19.62h.45c3.47,0,6.93,0,10.4,0h12.61l1,0,5,0h6c3.44,0,6.25,0,8.84.09h.27a8.27,8.27,0,0,0,6.34-2.8l4.53-4.58c3.53-3.55,7.08-7.09,10.54-10.55,4.61-4.59,9.37-9.34,14-14a9.16,9.16,0,0,1,7.1-3c14.9,0,30.46.07,46.24.07,14.66,0,29.32,0,44.06-.06,2.8,0,5.49.31,7.48,4a8.82,8.82,0,0,0,8,4.72,11.37,11.37,0,0,0,3.42-.55,10,10,0,0,0-.2-19.21Zm2.69,15.31a7.79,7.79,0,0,1-5.56,2.28,7.93,7.93,0,0,1-5.59-13.6,7.9,7.9,0,0,1,5.55-2.39h0a8.08,8.08,0,0,1,5.58,13.71Z"/><path class="cls-25" d="M1830.42,1086.13a10.72,10.72,0,0,0-4.17-.89,9.61,9.61,0,0,0-8,4.47,6.79,6.79,0,0,1-2.92,2.52,8.69,8.69,0,0,1-3.52.59H1810q-11.31,0-22.61,0c-8.77,0-16.62,0-24,.08h-.11a9.58,9.58,0,0,1-7.42-3.2c-4.4-4.46-8.91-9-13.28-13.3-5-4.95-10.1-10.06-15.09-15.16a8.67,8.67,0,0,0-6.82-2.9h-.23c-4,.07-8.32.1-13.68.1l-8.49,0-8.49,0h-16.27c-4.89,0-9.77,0-14.71,0-.36,0-.74,0-1.14,0s-.76,0-1.14,0c-1.53,0-2,.36-2,1.58a1.69,1.69,0,0,0,.32,1.26,2.35,2.35,0,0,0,1.66.4c.36,0,.73,0,1.09,0s.74,0,1.1,0h2.48q14.13,0,28.26,0c10.76,0,20.16,0,28.74-.08h.12a10.71,10.71,0,0,1,8.39,3.46c4.78,4.9,9.7,9.82,14.47,14.57,4.44,4.43,9,9,13.48,13.56a8.82,8.82,0,0,0,6.92,3h.13c7.72-.07,15.57-.08,22.23-.08h12.87l14,0h.22c2.75,0,5.16.3,6.72,4a9.08,9.08,0,0,0,8.5,5.74,10.83,10.83,0,0,0,2.85-.4,11.09,11.09,0,0,0,4.29-2.14,9.44,9.44,0,0,0,3.23-6.61A9.74,9.74,0,0,0,1830.42,1086.13Zm.21,16a8.11,8.11,0,0,1-4.15,1.14,7.83,7.83,0,0,1-7.66-5.87,8.24,8.24,0,0,1-.25-2,7.85,7.85,0,0,1,7.88-8h0a7.94,7.94,0,0,1,4.13,14.71Z"/><path class="cls-26" d="M1748.12,788.18a7.43,7.43,0,0,1-6.56-3.42c-3.07-4.84-6.87-5.24-10.82-5.24h-1.36c-1.37,0-2.68,0-4,0h-21.53c-1.19,0-2.62,0-3.15-.58a1.67,1.67,0,0,1-.28-1.28c.06-.92.38-1.3,2.15-1.3h1.32l6.19,0c3.93,0,7.87-.05,11.8-.05,3.35,0,6.32,0,9.1.06h.7c3.35,0,6.56-.36,9.15-4.66a8.46,8.46,0,0,1,7.47-4,10.67,10.67,0,0,1,7,2.66,10.06,10.06,0,0,1,.66,14.4,11,11,0,0,1-7.82,3.44Z"/><path class="cls-27" d="M1592.85,179.85c-41.77,0-85.38-.08-129.6-.08q-62.28,0-124.57.06a10,10,0,0,1-8-3.2c-4.51-4.64-9.18-9.29-13.68-13.78s-9.32-9.28-13.9-14a12,12,0,0,0-9.38-3.85c-83.44.07-168.26.07-250.29.08H1007.3l-38.74,0H940.67l-38.74,0H865.8c-82,0-166.85,0-250.28-.08a12,12,0,0,0-9.39,3.85c-4.58,4.72-9.32,9.44-13.9,14s-9.17,9.13-13.68,13.77a10,10,0,0,1-8,3.2q-62.33-.06-124.59-.06c-44.23,0-87.83,0-129.6.08a10.77,10.77,0,0,1-8.4-3.56c-13.18-13.31-26.66-26.77-39.7-39.78q-7.63-7.62-15.26-15.24l-.2-.2c-1.4-1.41-2.86-2.86-5.34-2.86a7.44,7.44,0,0,0-1.58.18,11.48,11.48,0,0,1-2.38.26,9.59,9.59,0,0,1-8.91-5.93A10.15,10.15,0,0,1,237.25,101a9.92,9.92,0,0,1,6.57-2.53,10.15,10.15,0,0,1,5.33,1.56,9.5,9.5,0,0,1,4.25,11.47c-1.4,3.83.13,5.79,2.13,7.77,21.37,21.27,38.61,38.51,54.24,54.24a9.79,9.79,0,0,0,7.56,3.15q63.29-.06,126.55,0,62.78,0,125.55,0a10.3,10.3,0,0,0,8-3.46c3.7-3.78,7.52-7.57,11.21-11.24,5.17-5.13,10.52-10.44,15.64-15.8a13.23,13.23,0,0,1,10.57-4.47c36,.09,72.21.11,102.88.11h473.85c30.67,0,66.87,0,102.82-.11A13.28,13.28,0,0,1,1305,146.2c5.12,5.36,10.46,10.66,15.63,15.8,3.7,3.67,7.52,7.46,11.22,11.24a10.3,10.3,0,0,0,8,3.46q62.81-.06,125.56,0,63.26,0,126.53,0a9.8,9.8,0,0,0,7.58-3.15c15.68-15.78,32.92-33,54.24-54.24,2-2,3.53-3.94,2.13-7.77a9.49,9.49,0,0,1,4.25-11.47,10.12,10.12,0,0,1,5.33-1.56A9.87,9.87,0,0,1,1672,101a10.14,10.14,0,0,1,2.65,11.68,9.59,9.59,0,0,1-8.91,5.93,11.48,11.48,0,0,1-2.38-.26,7.44,7.44,0,0,0-1.58-.18c-2.48,0-3.94,1.45-5.34,2.86l-.2.2L1641,136.5c-13,13-26.53,26.48-39.72,39.79a10.72,10.72,0,0,1-8.37,3.56Z"/><path class="cls-28" d="M1352.25,122.33a7.92,7.92,0,0,1-6.06-2.8q-5.54-5.57-11.11-11.11c-5.68-5.66-11.56-11.51-17.27-17.33a10.89,10.89,0,0,0-8.45-3.59c-86.83.08-175.11.08-260.48.09h-22.05q-31.68,0-63.36,0H945.79l-63.4,0h-22c-85.37,0-173.65,0-260.47-.09a10.88,10.88,0,0,0-8.46,3.59c-5.71,5.82-11.58,11.67-17.26,17.33-3.71,3.7-7.42,7.39-11.12,11.11a7.92,7.92,0,0,1-6.06,2.8c-40.33,0-81.48-.07-122.34-.07q-52.08,0-104.17,0a8.39,8.39,0,0,1-6.57-2.85c-4.2-4.31-8.53-8.63-12.73-12.8q-4.69-4.68-9.37-9.39c-1.52-1.54-2.9-2.5-5-2.5a8.39,8.39,0,0,0-1.73.19,12.19,12.19,0,0,1-2.51.27,9.43,9.43,0,0,1-8.87-5.84,10.14,10.14,0,0,1,2.53-11.7A10.24,10.24,0,0,1,293,75.18a9.89,9.89,0,0,1,5.16,1.43c4.16,2.56,5.71,7,4.14,12-1,3-.06,4.71,1.71,6.44,6.7,6.56,13.63,13.35,20.25,20.29a11.8,11.8,0,0,0,9.35,3.9q49.83-.06,99.62-.06c38.8,0,79.57,0,121.16.07a10.29,10.29,0,0,0,8-3.36c4-4.13,8.19-8.27,12.21-12.29,5.06-5,10.29-10.28,15.34-15.52a11.71,11.71,0,0,1,9.29-3.88c38.67.07,77.19.08,109.77.08h491.27c32.58,0,71.1,0,109.73-.08a11.74,11.74,0,0,1,9.33,3.88c5,5.24,10.28,10.47,15.34,15.52,4,4,8.17,8.16,12.21,12.29a10.28,10.28,0,0,0,8,3.36c41.61,0,82.38-.07,121.18-.07q49.79,0,99.59.06a11.82,11.82,0,0,0,9.38-3.9c6.6-6.92,13.54-13.72,20.25-20.29,1.77-1.73,2.67-3.41,1.71-6.44-1.57-5,0-9.44,4.13-12a10,10,0,0,1,5.17-1.43,10.07,10.07,0,0,1,9.29,14.21,9.43,9.43,0,0,1-8.87,5.84,12.12,12.12,0,0,1-2.51-.27,8.46,8.46,0,0,0-1.73-.19c-2.12,0-3.49,1-5,2.5-3.1,3.14-6.23,6.25-9.35,9.36-4.2,4.19-8.54,8.51-12.75,12.83a8.4,8.4,0,0,1-6.56,2.85q-52.11,0-104.18,0c-40.86,0-82,0-122.33.07Z"/><path class="cls-29" d="M1475.24,57.88a10.15,10.15,0,0,0-7.69-9.2,10.33,10.33,0,0,0-2.48-.3,9.08,9.08,0,0,0-8.35,5c-1.75,3.66-4.15,4.37-7.71,4.37h-.12c-14.41,0-27.46-.08-39.88-.08-13.76,0-26.48,0-39,.1a11.34,11.34,0,0,1-8.82-3.77c-3.78-3.87-7.68-7.74-11.45-11.49-5.09-5.06-10.35-10.28-15.39-15.57-2.92-3.07-6-4.33-10.72-4.33-39.15.09-77.45.1-109.75.1H695.35c-32.29,0-70.59,0-109.8-.1-4.65,0-7.74,1.26-10.67,4.33-5,5.29-10.3,10.52-15.39,15.58-3.77,3.74-7.67,7.61-11.44,11.48a11.42,11.42,0,0,1-8.91,3.77c-12.44-.07-25.17-.1-38.92-.1-12.42,0-25.47,0-39.88.08h-.12c-3.56,0-6-.71-7.71-4.37a9.08,9.08,0,0,0-8.35-5,10.27,10.27,0,0,0-2.48.3,10.15,10.15,0,0,0-7.69,9.2,9.89,9.89,0,0,0,6.4,10,13.12,13.12,0,0,0,4.13.72,8.38,8.38,0,0,0,7.29-3.94,8.43,8.43,0,0,1,3.61-3.22,11.08,11.08,0,0,1,4.51-.74q16.29.06,32.58,0c15.32,0,31.17,0,46.75.13h.21c4.55,0,7.59-1.25,10.49-4.31,4.9-5.17,10-10.27,15-15.21,3.77-3.74,7.68-7.61,11.44-11.48a12,12,0,0,1,9.38-4C652.69,26,718.68,26,786,26h337.2c67.34,0,133.33,0,200.25-.08a12,12,0,0,1,9.36,4c3.77,3.87,7.67,7.75,11.45,11.5,5,4.93,10.1,10,15,15.19,2.9,3.06,5.94,4.31,10.49,4.31h.2c15.59-.12,31.44-.12,46.76-.13,10.86,0,21.72,0,32.67,0,3.31,0,5.81.66,8,4a8.38,8.38,0,0,0,7.29,3.94,13.12,13.12,0,0,0,4.13-.72A9.88,9.88,0,0,0,1475.24,57.88ZM449.68,64.08A8,8,0,0,1,444,66.39a7.83,7.83,0,0,1-7.95-7.85,8.21,8.21,0,0,1,7.93-8H444a8,8,0,0,1,7.9,8A7.82,7.82,0,0,1,449.68,64.08Zm1015.49,2.31a7.82,7.82,0,0,1-7.88-7.93,8,8,0,0,1,7.9-8h.06a8.21,8.21,0,0,1,7.93,8A7.85,7.85,0,0,1,1465.17,66.39Z"/><path class="cls-30" d="M1498.94,438.91a9.11,9.11,0,0,1-7.85-4.29c-2.28-3.62-4.91-4.35-8.41-4.35-120.4.06-239.72.06-361.55.06H1023.3q-28.83,0-57.65,0h-.18l-.16.06a3.91,3.91,0,0,1-1.26.17c-.58,0-1.23-.07-1.86-.13-.37,0-.73-.08-1.07-.1l-6.5,0h-6.44l-1.14.11c-.63.06-1.28.13-1.86.13a3.91,3.91,0,0,1-1.26-.17l-.16-.06h-.18q-28.82.06-57.65,0H788.1c-121.83,0-241.16,0-361.53-.06-3.52,0-6.15.73-8.43,4.35a9.13,9.13,0,0,1-7.85,4.29,10.3,10.3,0,0,1-7-2.79,10.1,10.1,0,0,1,0-14.79,10.45,10.45,0,0,1,7.07-2.84,8.63,8.63,0,0,1,7.41,4c2.72,4.24,5.94,4.58,9.88,4.58q89.41-.07,178.74-.06h108.3q114.51,0,229,0h.15l.15,0a4.18,4.18,0,0,1,1.29-.15c.56,0,1.17.05,1.75.1s.95.08,1.38.09h12.3c.45,0,.92-.05,1.41-.09s1.19-.1,1.74-.1a4.21,4.21,0,0,1,1.3.15l.15,0h.15q114.51-.06,229,0h108.3q89.36,0,178.7.06c4,0,7.2-.34,9.92-4.58a8.62,8.62,0,0,1,7.4-4,10.45,10.45,0,0,1,7.08,2.84,10.09,10.09,0,0,1,0,14.79A10.28,10.28,0,0,1,1498.94,438.91Z"/><path class="cls-31" d="M575.66,264.56a2.49,2.49,0,0,0-1.77-.52l-5.2,0h-78.8l-38.44,0c-11.13,0-25.85,0-40.87-.1h-.12a10.46,10.46,0,0,0-8.32,3.41c-5.13,5.3-10.43,10.58-15.57,15.7-4.07,4.06-8.29,8.26-12.38,12.43a9.73,9.73,0,0,1-7.58,3.14q-27.48-.06-55-.06-25.22,0-50.47,0c-3.16,0-5.33-.62-7.08-3.78a9.16,9.16,0,0,0-8.21-4.82,10.53,10.53,0,0,0-3.23.51,10.07,10.07,0,0,0-7,9.69,9.67,9.67,0,0,0,6.72,9.46,10.06,10.06,0,0,0,3.63.67,8.84,8.84,0,0,0,7.9-4.53,7.24,7.24,0,0,1,3.61-3.46,11.86,11.86,0,0,1,4.44-.62h49.65c16.89,0,35.08,0,53.67.17h.21a15.2,15.2,0,0,0,12.19-5.25c4.75-5.05,9.75-10,14.59-14.79,3.67-3.64,7.46-7.4,11.12-11.17A11.39,11.39,0,0,1,412.3,267c34.21.06,68.15.07,96.85.07h60.21q2.34,0,4.68,0c1.86,0,1.91-1.06,1.93-1.39A1.44,1.44,0,0,0,575.66,264.56ZM251.91,305.1a7.77,7.77,0,0,1-5.38,2.89,7.63,7.63,0,0,1-.82,0,7.74,7.74,0,0,1-7.88-7,8,8,0,0,1,7-8.78,7.87,7.87,0,0,1,.84,0,8.13,8.13,0,0,1,7.91,7.15A7.67,7.67,0,0,1,251.91,305.1Z"/><path class="cls-32" d="M309.42,597.68a10.55,10.55,0,0,1-7.46-3.15,9.87,9.87,0,0,1-2.86-7.48,10.15,10.15,0,0,1,3.63-7.28,10.52,10.52,0,0,1,6.72-2.49,8.74,8.74,0,0,1,7.73,4.33c2.34,4,5.17,4.29,8.36,4.29q25.62-.06,51.08-.07c19.05,0,36.18,0,52.35.11a12.52,12.52,0,0,0,9.8-4.19c4.17-4.29,8.48-8.58,12.66-12.73,4.56-4.54,9.28-9.23,13.83-13.94a11.38,11.38,0,0,1,9-3.93h.27c6.25.09,13.11.14,21.56.14l13.23,0,12.72,0h24.15c10,0,17.73,0,24.91.06h0c.51,0,1,0,1.57-.09s1.08-.09,1.58-.09a2.4,2.4,0,0,1,1.72.44,1.79,1.79,0,0,1,.37,1.31c0,1.31-.45,1.71-1.9,1.71a16.79,16.79,0,0,1-1.69-.12c-.59-.06-1.14-.12-1.66-.12-17.63,0-33.49.07-48.5.07-16.47,0-31.68,0-46.51-.09h0a12,12,0,0,0-9.42,3.84c-4.34,4.48-8.83,9-13.18,13.28-4.63,4.61-9.41,9.37-14,14.15a11.13,11.13,0,0,1-8.83,3.64c-18.45-.07-37.13-.08-55.19-.08q-24.37,0-48.77-.06h-.14c-3.66,0-6.92.35-9.7,4.67a8.62,8.62,0,0,1-7.42,3.93Z"/><path class="cls-33" d="M355.85,500.77a12.7,12.7,0,0,1-10-4.31c-5-5.3-10.32-10.54-15.42-15.61-3.76-3.73-7.65-7.59-11.42-11.45a10.8,10.8,0,0,0-8.41-3.52c-15,.05-30.93.07-48.64.07q-23.73,0-47.45,0h0c-2.74,0-5.29.29-7.13,3.79a9,9,0,0,1-8.26,4.89,11.4,11.4,0,0,1-3.14-.45,10.11,10.11,0,0,1-.12-19.28,10.68,10.68,0,0,1,3.29-.53,8.82,8.82,0,0,1,7.85,4.4c2,3.45,4.53,4.14,7.94,4.14,13.95,0,27.82,0,41.68,0,18,0,36.64,0,54.95-.09,3.9,0,6.44,1,8.88,3.57,4.78,4.95,9.73,9.87,14.52,14.64,4.18,4.16,8.51,8.47,12.69,12.77a11.32,11.32,0,0,0,8.82,3.73h.12c8.56-.05,17.7-.08,28.79-.08l22.89,0h12c2.24,0,2.65.44,2.65,1.68a1.64,1.64,0,0,1-.33,1.17,2.73,2.73,0,0,1-1.78.41l-.79,0-.8,0c-5.84,0-11.62,0-17.4,0H385.39c-2.76,0-5.52,0-8.29,0s-5.53,0-8.3,0c-4.78,0-8.67.05-12.27.17Z"/><path class="cls-34" d="M160.74,263a10.3,10.3,0,0,1-3.54-.64c-4.41-1.64-6.7-4.79-6.8-9.37a9.94,9.94,0,0,1,6.91-9.75,10.58,10.58,0,0,1,3.42-.57,8.62,8.62,0,0,1,7.72,4.3c2.2,3.93,5.1,4.25,8.39,4.25H177c17.48,0,34.83-.06,49.5-.06h77.39c13.61,0,31.54,0,49.52.08a18.6,18.6,0,0,0,2-.16,19.55,19.55,0,0,1,2.1-.17c1.82,0,2.18.63,2.21,1.8a2.06,2.06,0,0,1-.37,1.49,2.22,2.22,0,0,1-1.6.43h0a17.26,17.26,0,0,1-2.09-.19,16.36,16.36,0,0,0-2-.17c-31,.05-63.42.08-99.15.08q-38.9,0-77.8,0c-3.2,0-6,.31-8,4.08A8.84,8.84,0,0,1,160.74,263Z"/><path class="cls-35" d="M303.31,552.13a3.08,3.08,0,0,0-2.19-.62l-10.92,0H277.66l-1,0h-5l-6,0c-3.45,0-6.26,0-8.85-.09h-.27a8.29,8.29,0,0,0-6.34,2.8c-5,5.06-10.1,10.16-15,15.1-4.61,4.6-9.38,9.36-14,14.08a9.19,9.19,0,0,1-7.1,3c-15,0-30.58-.07-46.38-.07-14.61,0-29.22,0-43.92.05-2.8,0-5.48-.3-7.48-4a8.82,8.82,0,0,0-8-4.71,11.08,11.08,0,0,0-3.43.55,10,10,0,0,0,.21,19.21,10.77,10.77,0,0,0,3.25.52,8.71,8.71,0,0,0,7.79-4.49,7.14,7.14,0,0,1,3.5-3.32,10.82,10.82,0,0,1,4.11-.6q18.6,0,37.19,0c17.38,0,35.36,0,53.13.08a11.65,11.65,0,0,0,9.27-3.81c5.1-5.27,10.39-10.53,15.5-15.61,4-4,8.1-8.05,12.1-12.12a10.34,10.34,0,0,1,7.9-3.36h.15c4.89,0,10.18.08,16.63.08l11.9,0,10,0h1.62c.66,0,1.32,0,2,0,2.1-.11,2.5-.54,2.56-1.4A1.56,1.56,0,0,0,303.31,552.13ZM113.45,593.42a7.95,7.95,0,0,1-11.16-11.32,7.79,7.79,0,0,1,5.56-2.28h0a7.93,7.93,0,0,1,5.59,13.6Z"/><path class="cls-36" d="M1224.55,637.19a11.08,11.08,0,0,0-3.43-.55,8.82,8.82,0,0,0-8,4.71,7,7,0,0,1-3.44,3.38,10.66,10.66,0,0,1-4.12.61q-21.87,0-43.73-.05c-15.85,0-31.49,0-46.54.07a9.16,9.16,0,0,1-7-3c-4.67-4.72-9.44-9.49-14.06-14.1-4.94-4.93-10-10-15-15.08a8.27,8.27,0,0,0-6.34-2.8h-.27c-2.59.06-5.4.09-8.84.09l-6,0h-5v0H857.55l-1,0h-5l-6,0c-3.44,0-6.25,0-8.84-.09h-.27a8.27,8.27,0,0,0-6.34,2.8c-5,5-10.09,10.15-15,15.08-4.62,4.61-9.39,9.38-14.06,14.1a9.19,9.19,0,0,1-7.1,3c-15-.05-30.64-.07-46.5-.07-14.57,0-29.14,0-43.8.05-2.81,0-5.49-.3-7.48-4a8.83,8.83,0,0,0-8-4.71,11.06,11.06,0,0,0-3.42.55,10,10,0,0,0,.2,19.21,10.83,10.83,0,0,0,3.26.52,8.71,8.71,0,0,0,7.79-4.49,7.16,7.16,0,0,1,3.49-3.32,10.68,10.68,0,0,1,4.12-.6q18.59,0,37.19,0c17.38,0,35.35,0,53.13.08a11.65,11.65,0,0,0,9.27-3.81c5.1-5.27,10.39-10.53,15.5-15.61,4-4,8.1-8.05,12.1-12.12a10.32,10.32,0,0,1,7.89-3.36h.16c4.89,0,10.18.08,16.63.08l11.9,0,10.05,0h35.95l41.31,0,41.3,0h35.95l10.05,0,11.9,0c6.45,0,11.74,0,16.63-.08h.15a10.33,10.33,0,0,1,7.9,3.36c4,4.07,8.12,8.16,12.1,12.12,5.11,5.08,10.4,10.34,15.5,15.61a11.72,11.72,0,0,0,9.36,3.81c17.69-.08,35.66-.08,53-.08l37.26,0c2.8,0,5.49.3,7.54,3.92a8.71,8.71,0,0,0,7.79,4.49,10.83,10.83,0,0,0,3.26-.52,10,10,0,0,0,.2-19.21ZM693.34,652.41a7.95,7.95,0,0,1-11.15-11.32,7.78,7.78,0,0,1,5.56-2.28h0a7.93,7.93,0,0,1,5.58,13.6Zm528.1,2.39a7.94,7.94,0,0,1-5.55-2.39,7.93,7.93,0,0,1,5.58-13.6h0a7.79,7.79,0,0,1,5.56,2.28,8.08,8.08,0,0,1-5.6,13.71Z"/><path class="cls-37" d="M265.23,189.88a2.4,2.4,0,0,0-1.67-.4c-.36,0-.73,0-1.09,0s-.74,0-1.1,0h-2.48q-14.13,0-28.26,0c-10.76,0-20.16,0-28.74.08h-.12a10.71,10.71,0,0,1-8.39-3.46c-4.78-4.9-9.7-9.81-14.47-14.57-4.43-4.42-9-9-13.48-13.56a8.82,8.82,0,0,0-6.92-2.95h-.13c-7.74.07-15.6.08-22.26.08h-13q-6.9,0-13.78,0h-.23c-2.75,0-5.15-.3-6.71-3.95a9.08,9.08,0,0,0-8.5-5.74,10.83,10.83,0,0,0-2.85.4c-4.54,1.24-7.07,4.19-7.52,8.75a9.74,9.74,0,0,0,6.07,10.26,10.63,10.63,0,0,0,4.16.89,9.61,9.61,0,0,0,8-4.47,6.79,6.79,0,0,1,2.92-2.52,8.69,8.69,0,0,1,3.52-.59q12.28,0,24.57.05c8.74,0,16.58,0,23.95-.08h.11a9.61,9.61,0,0,1,7.43,3.2c4.4,4.47,8.92,9,13.3,13.33,4.95,4.94,10.08,10,15.06,15.13a8.67,8.67,0,0,0,6.82,2.9h.23c4-.07,8.31-.1,13.65-.1l8.58,0,8.58,0h16.15c4.88,0,9.75,0,14.68,0,.36,0,.75,0,1.14,0s.76.05,1.14.05c1.53,0,2-.36,2-1.59A1.73,1.73,0,0,0,265.23,189.88ZM99.16,161.21a7.94,7.94,0,1,1-5.71-13.52h.07a7.84,7.84,0,0,1,7.91,7.88A7.93,7.93,0,0,1,99.16,161.21Z"/><path class="cls-38" d="M160.71,536.28a10.67,10.67,0,0,1-7-2.66,10,10,0,0,1-3.37-7.09,9.93,9.93,0,0,1,2.71-7.31,10.92,10.92,0,0,1,7.82-3.44,7.44,7.44,0,0,1,6.56,3.41c3.07,4.84,6.87,5.24,10.81,5.24h1.38l4,0,6.45,0h15.09c1.19,0,2.62,0,3.15.57a1.75,1.75,0,0,1,.29,1.29c-.07.91-.39,1.3-2.15,1.3h-1.33l-6.21,0c-3.94,0-7.88.06-11.82.06q-4.53,0-9.06-.06h-.71c-3.34,0-6.55.36-9.14,4.66a8.46,8.46,0,0,1-7.47,4Z"/><path class="cls-39" d="M975.33,1007.83a17.51,17.51,0,0,1-2.11-.18c-.5-.07-1-.13-1.44-.16H959.5c-.52,0-1,.09-1.52.16a17.52,17.52,0,0,1-2.1.18,3.18,3.18,0,0,1-1.35-.23l-.21-.1h-.23c-30.05,0-59.59,0-87.05,0H761.22c-26.17,0-57.15,0-88.57.08a11.29,11.29,0,0,1-8.88-3.61c-11.19-11.31-22.63-22.75-33.69-33.81-9.39-9.38-19.09-19.07-28.6-28.65a12,12,0,0,0-9.25-4h-.1c-11.83.08-24.23.11-37.88.11q-18.63,0-37.27-.07h-.12c-3,0-5.79.31-7.9,4.11a9,9,0,0,1-8,4.58,9.89,9.89,0,0,1-3.56-.66,9.7,9.7,0,0,1-6.73-9.47,10,10,0,0,1,7-9.69A10.56,10.56,0,0,1,501,926a8.75,8.75,0,0,1,7.89,4.38c2.12,3.88,5,4.2,8.3,4.2h.23q16.08,0,32.17,0c14.43,0,29.35,0,44-.08h.12a11.2,11.2,0,0,1,8.78,3.59c10.44,10.54,21.1,21.21,31.42,31.52,10.13,10.12,20.6,20.6,30.85,31a12.53,12.53,0,0,0,9.82,4c46.72,0,95.06-.07,143.7-.07q67.95,0,135.9.06h.23l.2-.1a3.35,3.35,0,0,1,1.42-.23,17.6,17.6,0,0,1,2.12.17c.6.07,1.17.14,1.68.16h11.54c.56,0,1.13-.09,1.72-.16a17.76,17.76,0,0,1,2.13-.17,3.3,3.3,0,0,1,1.41.23l.21.1H977q68-.06,135.91-.06c48.64,0,97,0,143.68.07a12.51,12.51,0,0,0,9.83-4c10.26-10.36,20.75-20.84,30.89-31,10.3-10.3,21-21,31.39-31.49a11.2,11.2,0,0,1,8.78-3.59h.11c14.68.08,29.61.08,44,.08q16.08,0,32.17,0h.22c3.29,0,6.19-.32,8.31-4.2a8.75,8.75,0,0,1,7.89-4.38,10.61,10.61,0,0,1,3.25.51,10,10,0,0,1,7,9.69,9.68,9.68,0,0,1-6.72,9.47,9.89,9.89,0,0,1-3.56.66,9,9,0,0,1-8-4.58c-2.11-3.8-4.94-4.11-7.9-4.11h-.12q-18.64.06-37.27.07c-13.66,0-26,0-37.88-.11h-.1a12.07,12.07,0,0,0-9.26,4c-9.51,9.58-19.22,19.29-28.62,28.68-11,11-22.48,22.48-33.66,33.78a11.26,11.26,0,0,1-8.84,3.61c-31.47-.07-62.45-.08-88.61-.08H1064.17c-27.46,0-57,0-87.05,0h-.24l-.21.1A3.13,3.13,0,0,1,975.33,1007.83Z"/><path class="cls-40" d="M1382,705.7a10.69,10.69,0,0,0-3.21-.51,9.45,9.45,0,0,0-8.2,4.93c-1.74,2.89-3.85,3.47-6.68,3.47h-5l-9.43,0-9.45,0c-4.51,0-8.23,0-11.72-.08H1328a10.55,10.55,0,0,0-8.19,3.52c-3.79,3.88-7.71,7.78-11.5,11.54-4.82,4.8-9.81,9.75-14.59,14.74a14.73,14.73,0,0,1-11.61,4.94c-61.07-.09-123.07-.1-181-.1H988.71l-23.16,0h-.12l-.11,0a4.82,4.82,0,0,0-1.09-.1c-.5,0-1.05,0-1.58.09l-.68.05-7.36,0-7.42,0-.61-.05c-.53,0-1.08-.09-1.58-.09a4.76,4.76,0,0,0-1.09.1l-.11,0h-.12l-23.16,0H808.12c-57.91,0-119.92,0-181,.1a14.71,14.71,0,0,1-11.57-4.94c-4.79-5-9.78-10-14.61-14.75-3.78-3.76-7.69-7.65-11.49-11.53a10.53,10.53,0,0,0-8.19-3.52H581c-3.49.05-7.21.08-11.72.08l-9.45,0-9.43,0h-5c-2.83,0-4.94-.58-6.69-3.47a9.43,9.43,0,0,0-8.19-4.93,10.69,10.69,0,0,0-3.21.51,10,10,0,0,0,.31,19.36,10.52,10.52,0,0,0,2.89.42c3.38,0,6.36-1.86,8.38-5.23a6.31,6.31,0,0,1,6.17-3.41h.14c7.17.07,13.57.1,19.59.1,5.4,0,10.43,0,15.35-.08h.15a10.32,10.32,0,0,1,7.91,3.37c3.9,4,7.92,8,11.82,11.9,4.94,4.93,10.06,10,15,15.17a12.77,12.77,0,0,0,10.2,4.3c35-.09,69.85-.11,99.29-.11h83.29q68,0,136,0h.1l.1,0a5.34,5.34,0,0,0,1.15.1c.48,0,1,0,1.45-.06s.7,0,1.06-.06H961.6l1,.06c.48,0,1,.06,1.45.06a5.34,5.34,0,0,0,1.15-.1l.1,0h.1q68,0,136,0h83.29c29.44,0,64.26,0,99.29.11h.06a12.73,12.73,0,0,0,10.14-4.3c4.93-5.14,10-10.24,15-15.19,3.88-3.87,7.9-7.89,11.8-11.88a10.31,10.31,0,0,1,7.91-3.37h.15c4.92,0,9.94.08,15.35.08,6,0,12.42,0,19.59-.1h.14a6.32,6.32,0,0,1,6.17,3.41c2,3.37,5,5.23,8.37,5.23a10.54,10.54,0,0,0,2.9-.42,10,10,0,0,0,.31-19.36ZM530.17,723.36h-.28a8.11,8.11,0,0,1-7.66-8.29,8,8,0,0,1,7.92-7.71h.3a8,8,0,0,1,7.65,8.25A8.07,8.07,0,0,1,530.17,723.36Zm849.17,0h-.28a8.07,8.07,0,0,1-7.93-7.75,8,8,0,0,1,7.65-8.25h.29a8,8,0,0,1,7.93,7.71A8.11,8.11,0,0,1,1379.34,723.35Z"/><path class="cls-41" d="M585.25,1000.91l-4.68,0H520.5c-26.12,0-56.53,0-87.39,0h-9.63a11.35,11.35,0,0,1-8.92-3.64c-3.57-3.66-7.26-7.33-10.84-10.88l-.28-.28-.73-.73c-4.61-4.56-9.35-9.27-13.86-14.06a15.2,15.2,0,0,0-12.19-5.25h-.21l-7.93,0-14.35.06h0c-10.79,0-21.33,0-31.39,0H292.05l-19,0c-3.13,0-5.89-.31-8-4.09a8.85,8.85,0,0,0-7.91-4.53,10.27,10.27,0,0,0-3.62.67,12,12,0,0,0-2.6,1.35,9.51,9.51,0,0,0-4.12,8.11,10.06,10.06,0,0,0,7,9.69,10.58,10.58,0,0,0,3.23.51c.26,0,.53,0,.78,0a9.09,9.09,0,0,0,7.43-4.79,8.66,8.66,0,0,1,1.34-1.85l.05-.06c1.5-1.52,3.33-1.87,5.74-1.87l24.41,0h26q20.06,0,40.14,0l11.08,0h3.79a9.7,9.7,0,0,1,7.54,3.14c2.43,2.48,4.91,5,7.38,7.44l2.75,2.76,2.25,2.24c5.13,5.11,10.44,10.4,15.57,15.7a10.49,10.49,0,0,0,8.32,3.4h.12c5.12,0,10.39,0,16.1-.06h1c7,0,14.71,0,23.51,0h117.5c1.74,0,3.48,0,5.21,0a2.5,2.5,0,0,0,1.77-.52,1.49,1.49,0,0,0,.31-1.12C587.16,1002,587.11,1000.94,585.25,1000.91ZM258.83,975.58a7.31,7.31,0,0,1-1.93.26A8,8,0,0,1,249,967a7.61,7.61,0,0,1,3.82-6,8,8,0,0,1,4.06-1.07,7.32,7.32,0,0,1,.81,0,7.85,7.85,0,0,1,7.08,8.69,7.21,7.21,0,0,1-.2,1,7.93,7.93,0,0,1-.69,1.77A8.19,8.19,0,0,1,258.83,975.58Z"/><path class="cls-42" d="M1276.31,900.33a10.19,10.19,0,0,0-3.46-.62,9.18,9.18,0,0,0-8,4.71c-1.94,3.32-4.31,4-7.58,4h-1.74q-21.36-.06-42.72-.06c-20,0-40.66,0-61.08-.13a11.62,11.62,0,0,0-9.19,3.92c-1.32,1.38-2.67,2.75-4,4.12-3.28,3.34-6.6,6.64-9.84,9.87-4.28,4.26-8.71,8.67-13,13.08a12,12,0,0,1-9.41,3.82l-8.28,0c-20.5,0-41.81-.06-64.85-.06H1017l-40,0h-.16l-.17-.05a3.63,3.63,0,0,0-1.16-.15c-.53,0-1.12.06-1.69.11-.38,0-.76.08-1.17.1H958.54c-.35,0-.73-.06-1.12-.1-.56,0-1.15-.11-1.68-.11a3.74,3.74,0,0,0-1.17.15l-.16.05h-.17q-28.08,0-56.19,0c-26.15,0-50.07,0-73.17.08a11.93,11.93,0,0,1-9.36-3.83c-4.27-4.41-8.7-8.81-13-13.08-4.57-4.55-9.29-9.25-13.85-14a11.66,11.66,0,0,0-9.28-3.92c-20.33.1-41,.11-61,.13-14.82,0-29.63,0-44.52.06-3.2,0-5.57-.66-7.52-4a9.17,9.17,0,0,0-8-4.71,10.25,10.25,0,0,0-3.47.62,9.73,9.73,0,0,0-6.86,9.38A10.33,10.33,0,0,0,655,919.5a9.67,9.67,0,0,0,11.49-4.23c1.87-3.21,4.18-3.87,7.11-3.87q30.12.08,60.25.07,22.59,0,45.23-.05a10.27,10.27,0,0,1,7.92,3.47c4.32,4.4,8.75,8.83,13,13.11,4.91,4.9,10,10,14.92,15a9.44,9.44,0,0,0,7.51,3.07c14.19-.07,28.15-.08,38.72-.08l67.62,0,25.53,0h.15l.15,0a3.65,3.65,0,0,0,1.09.13,15.57,15.57,0,0,0,1.64-.11l.86-.07,7.42,0,7.48,0,.78.07a15.94,15.94,0,0,0,1.65.11,3.65,3.65,0,0,0,1.09-.13l.14,0h.16l25.53,0H1017l53.06,0,27.94,0,10.87.05a9.38,9.38,0,0,0,7.42-3.07c4.93-5.06,10-10.14,14.94-15l7.27-7.27q2.89-2.91,5.75-5.82a10.33,10.33,0,0,1,8-3.47q22.61.06,45.2.05,29,0,58.09-.07h2.2c2.88,0,5.19.66,7.07,3.87a9.67,9.67,0,0,0,11.49,4.23,10.33,10.33,0,0,0,6.92-9.79A9.73,9.73,0,0,0,1276.31,900.33ZM658.18,917.92h-.1a8.14,8.14,0,0,1-7.93-7.95,7.75,7.75,0,0,1,2.25-5.59,7.92,7.92,0,0,1,5.67-2.38h0a7.66,7.66,0,0,1,7.9,7.86A7.88,7.88,0,0,1,658.18,917.92Zm615,0H1273a7.87,7.87,0,0,1-7.8-8,7.66,7.66,0,0,1,7.9-7.86h0a7.93,7.93,0,0,1,5.67,2.38,7.74,7.74,0,0,1,2.24,5.59A8.12,8.12,0,0,1,1273.13,917.93Z"/><path class="cls-43" d="M574.48,751.85c-.51,0-1.05-.05-1.58-.09s-1.06-.09-1.53-.09c-7.2,0-14.85.06-24.83.06H522.26l-12.83,0-13.16,0c-8.45,0-15.28.05-21.52.14h-.27a11.42,11.42,0,0,1-9-3.93c-4.54-4.71-9.25-9.4-13.81-13.93-4.18-4.15-8.5-8.44-12.67-12.74a12.48,12.48,0,0,0-9.72-4.19c-16.21.07-33.29.1-52.32.1q-25.54,0-51.11-.06h0c-3.27,0-6.1.32-8.44,4.29a8.73,8.73,0,0,1-7.73,4.32h0a10.56,10.56,0,0,1-6.73-2.48,10.18,10.18,0,0,1-3.62-7.28,9.9,9.9,0,0,1,2.86-7.49,10.56,10.56,0,0,1,7.45-3.14,8.59,8.59,0,0,1,7.42,3.93c2.78,4.32,6,4.67,9.71,4.67h.14q24.39-.07,48.77-.06c18.06,0,36.74,0,55.11-.08a11.16,11.16,0,0,1,8.91,3.64c4.61,4.78,9.39,9.54,14,14.15,4.34,4.33,8.84,8.8,13.18,13.28a11.9,11.9,0,0,0,9.33,3.83c15,0,30.22-.08,46.71-.08,15,0,30.85,0,48.37.07h0a16.4,16.4,0,0,0,1.67-.12,17,17,0,0,1,1.7-.12c1.45,0,1.89.39,1.9,1.71a1.83,1.83,0,0,1-.37,1.31A2.42,2.42,0,0,1,574.48,751.85Z"/><path class="cls-44" d="M199.36,832.64a10.39,10.39,0,0,1-3.29-.53,10.11,10.11,0,0,1,.12-19.28,11.72,11.72,0,0,1,3.14-.44,9,9,0,0,1,8.26,4.88c1.84,3.51,4.39,3.8,7.07,3.8q23.88,0,47.65-.05c17.64,0,33.48,0,48.43.08a10.85,10.85,0,0,0,8.48-3.53c3.77-3.86,7.66-7.72,11.42-11.46,5.1-5.06,10.38-10.3,15.42-15.6a12.71,12.71,0,0,1,10-4.3h.68c3.6.11,7.51.17,12.3.17,2.76,0,5.52,0,8.29,0s5.51,0,8.27,0h16.62c5.72,0,11.45,0,17.17,0h.85l.8,0a2.75,2.75,0,0,1,1.78.4,1.66,1.66,0,0,1,.33,1.18c0,1.23-.41,1.67-2.65,1.67h-1.07l-10.58,0-23.17,0c-11.11,0-20.29,0-28.88-.08h-.12a11.33,11.33,0,0,0-8.82,3.74c-4.19,4.3-8.52,8.61-12.7,12.77-4.79,4.77-9.74,9.69-14.51,14.64a11,11,0,0,1-8.78,3.56c-18.39-.07-37-.08-55-.08q-20.83,0-41.67,0h0c-3.49,0-6,.7-8,4.14A8.82,8.82,0,0,1,199.36,832.64Z"/><path class="cls-45" d="M171.94,1012.39a10.53,10.53,0,0,1-3.42-.57,9.94,9.94,0,0,1-6.91-9.76c.1-4.58,2.39-7.73,6.79-9.36a10.12,10.12,0,0,1,3.55-.64,8.88,8.88,0,0,1,8,4.6c2,3.78,4.83,4.08,8,4.08l77.51,0c35.79,0,68.33,0,99.48.08a16.47,16.47,0,0,0,2-.18,17.36,17.36,0,0,1,2.09-.18,2.25,2.25,0,0,1,1.61.43,2.06,2.06,0,0,1,.37,1.48c0,1.17-.4,1.8-2.22,1.8a19.48,19.48,0,0,1-2.09-.16,18.83,18.83,0,0,0-2-.16c-18.09.07-36.07.08-49.71.08H237.66c-14.63,0-31.95,0-49.49,0H188c-3.28,0-6.17.32-8.37,4.24a8.64,8.64,0,0,1-7.72,4.31Z"/><path class="cls-46" d="M1759.27,912.49a8.62,8.62,0,0,1-7.72-4.31c-2.2-3.93-5.1-4.25-8.37-4.25H1743c-17.54.05-34.86.06-49.49.06h-77.24c-13.64,0-31.62,0-49.69-.07h0a16.42,16.42,0,0,0-2,.16,19.47,19.47,0,0,1-2.1.16c-1.82,0-2.18-.63-2.21-1.8a2.06,2.06,0,0,1,.37-1.49,2.27,2.27,0,0,1,1.6-.43,17.26,17.26,0,0,1,2.09.19,16.47,16.47,0,0,0,2,.18c31.16-.06,63.7-.09,99.49-.09q38.73,0,77.46,0c3.2,0,6-.31,8-4.08a8.86,8.86,0,0,1,8-4.61,10.08,10.08,0,0,1,3.54.65c4.41,1.63,6.7,4.78,6.8,9.36a10,10,0,0,1-6.91,9.76A10.85,10.85,0,0,1,1759.27,912.49Z"/><path class="cls-47" d="M171.94,912.49a10.81,10.81,0,0,1-3.42-.57,10,10,0,0,1-6.91-9.76c.1-4.58,2.39-7.73,6.79-9.36a10.13,10.13,0,0,1,3.55-.65,8.88,8.88,0,0,1,8,4.61c2,3.77,4.83,4.08,8,4.08q38.81,0,77.51,0c35.79,0,68.33,0,99.48.09a16.47,16.47,0,0,0,2-.18,17.44,17.44,0,0,1,2.09-.19,2.3,2.3,0,0,1,1.61.43,2.11,2.11,0,0,1,.37,1.49c0,1.17-.4,1.8-2.22,1.8a19.48,19.48,0,0,1-2.09-.16,16.56,16.56,0,0,0-2-.16c-18.09.07-36.07.07-49.71.07H237.66c-14.63,0-31.95,0-49.49-.06H188c-3.28,0-6.17.32-8.37,4.25a8.64,8.64,0,0,1-7.72,4.31Z"/><path class="cls-48" d="M1759.27,661.73a8.64,8.64,0,0,1-7.72-4.3c-2.2-3.93-5.1-4.25-8.37-4.25H1743c-17.54.05-34.86.05-49.49.05h-77.24c-13.64,0-31.62,0-49.69-.08h0a18.6,18.6,0,0,0-2,.16,19.47,19.47,0,0,1-2.1.16c-1.82,0-2.18-.63-2.21-1.8a2,2,0,0,1,.37-1.48,2.22,2.22,0,0,1,1.6-.43,17.19,17.19,0,0,1,2.09.18,16.47,16.47,0,0,0,2,.18c31.16-.06,63.7-.08,99.49-.08q38.73,0,77.46,0c3.2,0,6-.3,8-4.08a8.85,8.85,0,0,1,8-4.6,10.07,10.07,0,0,1,3.54.64c4.41,1.63,6.7,4.78,6.8,9.36a9.94,9.94,0,0,1-6.91,9.76A10.58,10.58,0,0,1,1759.27,661.73Z"/><path class="cls-49" d="M171.94,661.73a10.53,10.53,0,0,1-3.42-.57,9.94,9.94,0,0,1-6.91-9.76c.1-4.58,2.39-7.73,6.79-9.36a10.12,10.12,0,0,1,3.55-.64,8.88,8.88,0,0,1,8,4.6c2,3.78,4.83,4.08,8,4.08l77.51,0c35.79,0,68.33,0,99.48.08a16.47,16.47,0,0,0,2-.18,17.36,17.36,0,0,1,2.09-.18,2.25,2.25,0,0,1,1.61.43,2.09,2.09,0,0,1,.37,1.48c0,1.17-.4,1.8-2.22,1.8a19.48,19.48,0,0,1-2.09-.16,18.83,18.83,0,0,0-2-.16c-18.09.07-36.07.08-49.71.08H237.66c-14.63,0-31.95,0-49.49-.05H188c-3.28,0-6.17.32-8.37,4.25a8.65,8.65,0,0,1-7.72,4.3Z"/><path class="cls-50" d="M1759.27,392a8.64,8.64,0,0,1-7.72-4.3c-2.2-3.93-5.1-4.25-8.37-4.25H1743c-17.54.05-34.86.05-49.49.05h-77.24c-13.64,0-31.62,0-49.69-.08h0a18.6,18.6,0,0,0-2,.16,19.55,19.55,0,0,1-2.1.17c-1.82,0-2.18-.64-2.21-1.8a2.06,2.06,0,0,1,.37-1.49,2.22,2.22,0,0,1,1.6-.43,15.45,15.45,0,0,1,2.09.19,16.36,16.36,0,0,0,2,.17c31.16-.05,63.7-.08,99.49-.08q38.73,0,77.46,0c3.2,0,6-.31,8-4.08a8.84,8.84,0,0,1,8-4.61,10.3,10.3,0,0,1,3.54.64c4.41,1.64,6.7,4.78,6.8,9.36a9.94,9.94,0,0,1-6.91,9.76A10.58,10.58,0,0,1,1759.27,392Z"/><path class="cls-51" d="M171.94,392a10.53,10.53,0,0,1-3.42-.57,9.94,9.94,0,0,1-6.91-9.76c.1-4.58,2.39-7.72,6.79-9.36a10.35,10.35,0,0,1,3.55-.64,8.86,8.86,0,0,1,8,4.61c2,3.77,4.83,4.08,8,4.08q38.81,0,77.51,0c35.79,0,68.33,0,99.48.08a16.36,16.36,0,0,0,2-.17A15.6,15.6,0,0,1,369,380a2.25,2.25,0,0,1,1.61.43,2.11,2.11,0,0,1,.37,1.49c0,1.16-.4,1.8-2.22,1.8a19.58,19.58,0,0,1-2.09-.17,18.83,18.83,0,0,0-2-.16c-18.09.07-36.07.08-49.71.08H237.66c-14.63,0-31.95,0-49.49-.05H188c-3.28,0-6.17.32-8.37,4.25a8.65,8.65,0,0,1-7.72,4.3Z"/><path class="cls-52" d="M303.83,749.62c-.06-.86-.45-1.29-2.55-1.4-.66,0-1.31,0-2,0h-1.63l-10.05,0-11.9,0c-6.45,0-11.74,0-16.63.07h-.16a10.32,10.32,0,0,1-7.89-3.36c-4-4.07-8.13-8.17-12.11-12.13-5.11-5.08-10.39-10.33-15.49-15.6a11.73,11.73,0,0,0-9.37-3.81c-13.84.06-27.86.08-41.64.08H161.05c-12.4,0-24.8,0-37.27,0-2.8,0-5.48-.3-7.53-3.93a8.7,8.7,0,0,0-7.79-4.48,10.83,10.83,0,0,0-3.26.52,10,10,0,0,0-.2,19.21,11.37,11.37,0,0,0,3.42.55,8.82,8.82,0,0,0,8-4.72,6.92,6.92,0,0,1,3.44-3.37,10.45,10.45,0,0,1,4.12-.62q22,.06,44,.06h7.59c13.18,0,26.16,0,38.71-.07a9.13,9.13,0,0,1,7,3c4.66,4.71,9.43,9.47,14,14.08,4.95,4.93,10.06,10,15,15.1a8.27,8.27,0,0,0,6.33,2.8H257c2.59-.06,5.4-.09,8.84-.09l6,0,5,0v0h13.62c3.62,0,7.23,0,10.85,0a3.08,3.08,0,0,0,2.19-.62A1.57,1.57,0,0,0,303.83,749.62ZM108.07,723.14a7.76,7.76,0,0,1-5.56-2.29,8.07,8.07,0,0,1,5.58-13.7h0a7.9,7.9,0,0,1,5.55,2.39,7.93,7.93,0,0,1-5.59,13.6Z"/><path class="cls-53" d="M274.73,1058.29c-.37,0-.76,0-1.13,0s-.78,0-1.19,0h0c-3.36,0-6.71,0-10.07,0H241.48l-8.49,0h-8.5c-5.35,0-9.7,0-13.67-.1h-.23a8.71,8.71,0,0,0-6.83,2.9c-4.38,4.48-8.88,9-13.28,13.36l-1.78,1.77c-3.6,3.59-7.31,7.28-11,11l-2.33,2.36a9.6,9.6,0,0,1-7.43,3.2h-.11c-7.38,0-15.24-.08-24-.08-8.17,0-16.34,0-24.59,0-2.52,0-4.57-.53-6.36-3.11a9.61,9.61,0,0,0-8-4.47,10.68,10.68,0,0,0-4.17.89,9.75,9.75,0,0,0-6.07,10.26c.46,4.56,3,7.51,7.53,8.75a10.75,10.75,0,0,0,2.84.4,9.09,9.09,0,0,0,8.51-5.74c1.56-3.65,4-4,6.72-4h.21q7,0,14,0h12.87c6.66,0,14.5,0,22.23.08h.13a8.79,8.79,0,0,0,6.91-3l3.35-3.41c3.38-3.41,6.8-6.82,10.13-10.14l2.41-2.41c4-4,8.09-8.09,12.07-12.17a10.71,10.71,0,0,1,8.39-3.46h.11c7,0,14.63.07,23.07.07h5.67l22.44,0h8.32c.34,0,.71,0,1.09,0s.73,0,1.09,0a2.35,2.35,0,0,0,1.66-.4,1.74,1.74,0,0,0,.32-1.26C276.71,1058.65,276.26,1058.29,274.73,1058.29Zm-170.07,45a7.93,7.93,0,0,1,0-15.85h0a7.93,7.93,0,1,1-.09,15.85Z"/><path class="cls-54" d="M1057.23,893.33a9.18,9.18,0,0,1-8.25-4.78c-1.92-3.57-4.46-3.86-7.34-3.86h-.24q-11.33.06-22.64,0l-24.27,0H914.74l-24.27,0q-11.31,0-22.64,0h-.24c-2.88,0-5.42.29-7.35,3.86a9.16,9.16,0,0,1-8.24,4.78h0a11.12,11.12,0,0,1-3.22-.48,10.11,10.11,0,0,1-7-9.65,9.67,9.67,0,0,1,6.66-9.47,10.33,10.33,0,0,1,3.66-.69,8.89,8.89,0,0,1,7.88,4.5c2,3.42,4.4,4.09,7.89,4.09,14.65,0,30.13-.06,50.3-.06h72.89c20.17,0,35.65,0,50.21.06,3.57,0,6-.67,8-4.09a8.89,8.89,0,0,1,7.88-4.5,10.33,10.33,0,0,1,3.66.69,9.67,9.67,0,0,1,6.66,9.47,10.12,10.12,0,0,1-7,9.65A11.12,11.12,0,0,1,1057.23,893.33Z"/><path class="cls-55" d="M161.11,788.18a11,11,0,0,1-7.82-3.44,10.06,10.06,0,0,1,.66-14.4,10.67,10.67,0,0,1,7-2.66,8.46,8.46,0,0,1,7.47,4c2.59,4.3,5.8,4.66,9.14,4.66h.71c2.78,0,5.75-.06,9.1-.06,3.93,0,7.86,0,11.8.05l6.14,0h1.37c1.77,0,2.09.38,2.15,1.3a1.62,1.62,0,0,1-.29,1.28c-.52.57-2,.58-3.09.58H183.85c-1.32,0-2.63,0-3.95,0h-1.41c-4,0-7.75.4-10.82,5.24a7.44,7.44,0,0,1-6.56,3.42Z"/></g></g></svg>