<svg xmlns="http://www.w3.org/2000/svg" xmlns:xlink="http://www.w3.org/1999/xlink" viewBox="0 0 877.63 804.43"><defs><style>.cls-1{fill:#eefcff;}.cls-2{fill:#f9ffff;}.cls-3{fill:#009ee5;}.cls-19,.cls-4{fill:#4ac4f7;}.cls-5{fill:#004380;}.cls-17,.cls-6{fill:#01366a;}.cls-7{fill:#0290da;}.cls-8{fill:url(#linear-gradient);}.cls-9{fill:url(#linear-gradient-2);}.cls-10{fill:#ffb84c;}.cls-11{fill:#ff9f39;}.cls-12{fill:#12c2ae;}.cls-13{fill:#fff;}.cls-14{fill:#2db247;}.cls-15{fill:#d0f2fe;}.cls-16{font-size:36px;font-family:Poppins-Medium, Poppins;font-weight:500;}.cls-17{font-size:42px;font-family:Poppins-SemiBold, Poppins;font-weight:600;}.cls-18{opacity:0.5;}.cls-19{stroke:#bff2ff;stroke-miterlimit:10;stroke-width:0.5px;}</style><linearGradient id="linear-gradient" x1="479.89" y1="439.03" x2="479.89" y2="482.61" gradientUnits="userSpaceOnUse"><stop offset="0" stop-color="#0073c3"/><stop offset="1" stop-color="#018ddc"/></linearGradient><linearGradient id="linear-gradient-2" x1="479.89" y1="243.39" x2="479.89" y2="268.4" xlink:href="#linear-gradient"/></defs><g id="Layer_2" data-name="Layer 2"><g id="Layer_1-2" data-name="Layer 1"><path class="cls-1" d="M211.71,427.76c-82.85-57-173.32-46.82-201-7-34.58,49.77,19.75,159,89,182,13.05,4.33,17.57,2.6,31,5,81.92,14.64,93.52,111.2,158,161,108.94,84.14,329.54,4.53,450-85,4.6-3.41,13.29-17.43,31-25,39.63-16.93,71.73,13.82,90,4,33.41-18,21.93-172.32-50-253C708.64,296.4,470.32,308.5,211.71,427.76Z"/><path class="cls-2" d="M585.73,88.5c-87.5-22-180.3-10.82-259.11,33.09-137,76.34-202.78,218-172.91,323.17,38.61,136,240,221.43,349,174,73.24-31.85,83.61-114.39,195-155,66.18-24.12,102.27-9.48,114-30C827.45,406.23,853.16,155.59,585.73,88.5Z"/><path class="cls-3" d="M656.14,256.26v48c0,6.74-3.62,13.21-10.27,19.21l0,0c-24.4,22-89.49,37.77-166,37.77s-141.56-15.75-166-37.77l0,0c-6.65-6-10.27-12.47-10.27-19.21v-48c0,8.57,5.85,16.7,16.33,24,28,19.49,89.09,33,159.92,33s131.91-13.51,159.92-33C650.29,273,656.14,264.83,656.14,256.26Z"/><path class="cls-4" d="M656.14,256.26c0,8.57-5.85,16.7-16.33,24-28,19.49-89.09,33-159.92,33S348,299.75,320,280.26c-10.48-7.3-16.33-15.43-16.33-24,0-31.48,78.91-57,176.25-57S656.14,224.78,656.14,256.26Z"/><path class="cls-5" d="M630.64,254c0,9.47-12.74,18.17-34,25-28,9-70.8,14.75-118.75,14.75S387.15,288,359.14,279c-21.26-6.83-34-15.53-34-25,0-21.95,68.39-39.75,152.75-39.75S630.64,232.06,630.64,254Z"/><ellipse class="cls-6" cx="477.89" cy="279.01" rx="118.75" ry="14.75"/><path class="cls-7" d="M645.85,323.49l0,.07a.62.62,0,0,0-.08.12c-2,2.79-23.17,33.06-45.09,53.08a150.33,150.33,0,0,0-13.86,14.57,181.12,181.12,0,0,0-20.36,30.12c-1,.57-2.07,1.14-3.15,1.7-19.67,10.14-49.71,16.61-83.38,16.61s-63.71-6.47-83.38-16.61c-1.08-.56-2.13-1.13-3.15-1.7A181.12,181.12,0,0,0,373,391.33a150.33,150.33,0,0,0-13.86-14.57c-21.92-20-43.14-50.29-45.09-53.08l-.12-.19c17.69,16,56.77,28.63,106.07,34.39a517.52,517.52,0,0,0,59.89,3.38,517.52,517.52,0,0,0,59.89-3.38C589.08,352.12,628.16,339.45,645.85,323.49Z"/><path class="cls-8" d="M551.62,464.64c0,.21,0,.41,0,.62,0,12.82-32.12,23.2-71.75,23.2s-71.75-10.38-71.75-23.2c0-.21,0-.41,0-.62l.08.12c0-.12,0-.24-.05-.36-1.85-14-7.3-28.92-14.83-42.95,1,.57,2.07,1.14,3.15,1.7,19.67,10.14,49.71,16.61,83.38,16.61s63.71-6.47,83.38-16.61c1.08-.56,2.13-1.13,3.15-1.7-7.53,14-13,28.91-14.83,42.95,0,.12,0,.24-.05.36Z"/><path class="cls-3" d="M564.29,138.48V166c0,3.87-1.74,7.59-4.92,11h0c-11.68,12.64-42.85,21.68-79.47,21.68s-67.79-9-79.48-21.68h0c-3.18-3.44-4.91-7.16-4.91-11V138.48c0,4.92,2.8,9.59,7.82,13.78,13.41,11.18,42.66,18.94,76.58,18.94s63.17-7.76,76.58-18.94C561.49,148.07,564.29,143.4,564.29,138.48Z"/><path class="cls-4" d="M564.29,138.48c0,4.92-2.8,9.59-7.82,13.78-13.41,11.18-42.66,18.94-76.58,18.94s-63.17-7.76-76.58-18.94c-5-4.19-7.82-8.86-7.82-13.78,0-18.07,37.78-32.72,84.4-32.72S564.29,120.41,564.29,138.48Z"/><path class="cls-5" d="M552.08,137.19c0,5.43-6.1,10.43-16.28,14.35-13.42,5.17-33.91,8.47-56.87,8.47s-43.45-3.3-56.87-8.47c-10.18-3.92-16.28-8.92-16.28-14.35,0-12.6,32.75-22.82,73.15-22.82S552.08,124.59,552.08,137.19Z"/><ellipse class="cls-6" cx="478.93" cy="151.54" rx="56.87" ry="8.47"/><path class="cls-7" d="M559.36,177.07l0,0,0,.07c-.93,1.6-11.09,19-21.59,30.47a83,83,0,0,0-6.64,8.36,107.5,107.5,0,0,0-9.75,17.29c-.48.33-1,.65-1.5,1-9.42,5.82-23.81,9.53-39.93,9.53s-30.51-3.71-39.93-9.53c-.52-.33-1-.65-1.51-1A107.5,107.5,0,0,0,428.7,216a81.63,81.63,0,0,0-6.64-8.36c-10.49-11.49-20.66-28.87-21.59-30.47l-.06-.11c8.47,9.16,27.19,16.43,50.8,19.74a206.77,206.77,0,0,0,28.68,1.94,206.88,206.88,0,0,0,28.68-1.94C532.17,193.5,550.89,186.23,559.36,177.07Z"/><path class="cls-9" d="M514.24,258.09c0,.12,0,.24,0,.36,0,7.35-15.39,13.31-34.36,13.31s-34.36-6-34.36-13.31c0-.12,0-.24,0-.36l0,.07,0-.21a84,84,0,0,0-7.1-24.65c.49.33,1,.65,1.51,1,9.42,5.82,23.8,9.53,39.93,9.53s30.51-3.71,39.93-9.53c.51-.33,1-.65,1.5-1a84.59,84.59,0,0,0-7.1,24.65c0,.07,0,.14,0,.21Z"/><circle class="cls-10" cx="432.71" cy="596.26" r="17"/><circle class="cls-10" cx="511.71" cy="596.76" r="17"/><circle class="cls-11" cx="473.45" cy="566.76" r="19"/><path class="cls-10" d="M462.45,665.76s-22-68,11-70.91,11,70.91,11,70.91Z"/><path class="cls-11" d="M473.21,665.76s-15-44-39-43-36,31-30,36S444.21,672.76,473.21,665.76Z"/><path class="cls-11" d="M473.68,665.76s15-44,39-43,36,31,30,36S502.68,672.76,473.68,665.76Z"/><circle class="cls-12" cx="737.46" cy="536.26" r="57.25"/><path class="cls-13" d="M737.46,570.26a34,34,0,0,1-33-42.15,5,5,0,1,1,9.71,2.39,24,24,0,0,0,23.3,29.76,23.83,23.83,0,0,0,19.24-9.64,5,5,0,1,1,8,6A34.16,34.16,0,0,1,737.46,570.26Z"/><path class="cls-13" d="M764.56,530.92a5,5,0,0,1-4.67-3.22,24.15,24.15,0,0,0-22.43-15.44A23.84,23.84,0,0,0,724,516.37a5,5,0,1,1-5.61-8.28,34,34,0,0,1,50.81,16,5,5,0,0,1-2.88,6.46A5.1,5.1,0,0,1,764.56,530.92Z"/><path class="cls-13" d="M773.9,522.44,754,527.16a.93.93,0,0,0-.36,1.63l12,9.31a.92.92,0,0,0,1.37-.27l7.93-14A.93.93,0,0,0,773.9,522.44Z"/><path class="cls-14" d="M155.36,542.8c-1.36,0-2.2,0-2.46,0a3,3,0,1,1,.27-6c.57,0,58.38,2,102.16-40.92a3,3,0,0,1,4.2,4.29C218.52,540.35,167.24,542.8,155.36,542.8Z"/><path class="cls-14" d="M238.52,497.5l21,20a1.85,1.85,0,0,0,3.11-1.11l3.08-25.09a1.85,1.85,0,0,0-2.21-2l-24.1,5.06A1.85,1.85,0,0,0,238.52,497.5Z"/><rect class="cls-14" x="148.39" y="560.76" width="31" height="35" rx="3.73"/><rect class="cls-14" x="192.39" y="549.76" width="31" height="46" rx="3.73"/><rect class="cls-14" x="236.39" y="529.76" width="31" height="66" rx="3.73"/><circle class="cls-15" cx="134.21" cy="173.26" r="9.5"/><circle class="cls-15" cx="864.21" cy="328.26" r="9.5"/><circle class="cls-15" cx="729.21" cy="747.26" r="9.5"/><circle class="cls-15" cx="51.21" cy="627.76" r="18"/><text class="cls-16" transform="translate(129.71 653.72)">Increase<tspan x="-0.25" y="43.2">Revenue</tspan></text><text class="cls-16" transform="translate(360.84 722.72)">Attract More<tspan x="12.89" y="43.2">Customers</tspan></text><text class="cls-16" transform="translate(661.94 645.72)">Improve<tspan x="-11.05" y="43.2">Retention</tspan></text><text class="cls-17" transform="translate(187.44 35.72)">Data-Driven Growth Engine</text><path class="cls-11" d="M234.68,282.94a126.41,126.41,0,0,1,5.49-44.25,130.83,130.83,0,0,1,20.57-40.14,133.91,133.91,0,0,1,33.11-31.11,126.14,126.14,0,0,1,42-17.77,7,7,0,0,1,3.25,13.55h0a134.47,134.47,0,0,0-37.64,16,127.52,127.52,0,0,0-31,27,132.38,132.38,0,0,0-11.91,17,130.53,130.53,0,0,0-9.07,18.74,134.89,134.89,0,0,0-8.78,41h0a3,3,0,0,1-6,0Z"/><polygon class="cls-11" points="334.26 178.58 367.38 152.94 328.62 137.08 334.26 178.58"/><path class="cls-14" d="M595.52,150.1a126.47,126.47,0,0,1,44.26,5.49,130.62,130.62,0,0,1,40.13,20.57A133.91,133.91,0,0,1,711,209.27a126.08,126.08,0,0,1,17.78,42,7,7,0,0,1-13.56,3.25v0a134.2,134.2,0,0,0-16-37.64,127.26,127.26,0,0,0-27-31,132.09,132.09,0,0,0-17-11.91,130.53,130.53,0,0,0-18.74-9.07,135,135,0,0,0-41-8.78h0a3,3,0,0,1,0-6Z"/><polygon class="cls-14" points="699.88 249.68 725.52 282.79 741.39 244.03 699.88 249.68"/><path class="cls-14" d="M728.51,328.94A126.23,126.23,0,0,1,723,373.2a130.62,130.62,0,0,1-20.57,40.13,133.91,133.91,0,0,1-33.11,31.11,126.08,126.08,0,0,1-42,17.78,7,7,0,0,1-3.25-13.56h0a134.2,134.2,0,0,0,37.64-16,127.32,127.32,0,0,0,31-26.95,128.78,128.78,0,0,0,21-35.7,134.66,134.66,0,0,0,8.78-41h0a3,3,0,0,1,6,0Z"/><polygon class="cls-14" points="628.93 433.3 595.82 458.94 634.58 474.81 628.93 433.3"/><path class="cls-11" d="M367.67,461.78a128,128,0,0,1-65.17-14,128.18,128.18,0,0,1-19.22-12,133.73,133.73,0,0,1-31.11-33.11,126.28,126.28,0,0,1-17.78-42A7,7,0,0,1,248,357.4v0a134.05,134.05,0,0,0,16,37.64,127.15,127.15,0,0,0,27,31,128.4,128.4,0,0,0,35.7,21,134.6,134.6,0,0,0,41,8.78h0a3,3,0,0,1,0,6Z"/><polygon class="cls-11" points="263.31 362.21 237.67 329.09 221.81 367.85 263.31 362.21"/><g class="cls-18"><path class="cls-19" d="M499.21,389.26H463.85a10.65,10.65,0,0,1-10.64-10.63V355.26a4,4,0,0,1,8,0v23.37a2.64,2.64,0,0,0,2.64,2.63h35.36a4,4,0,1,1,0,8Z"/><path class="cls-19" d="M440.21,438.26a4,4,0,0,1-4-4V413.9a10.65,10.65,0,0,1,10.64-10.64h44.36a4,4,0,1,1,0,8H446.85a2.65,2.65,0,0,0-2.64,2.64v20.36A4,4,0,0,1,440.21,438.26Z"/><rect class="cls-19" x="424.21" y="331.26" width="67" height="24" rx="6.51"/><rect class="cls-19" x="499.21" y="368.26" width="32" height="28" rx="6.51"/></g></g></g></svg>