<svg width="50" height="50" viewBox="0 0 50 50" fill="none" xmlns="http://www.w3.org/2000/svg">
<circle cx="25" cy="25" r="25" fill="#0176D3"/>
<path d="M21.77 23.6958H24.231C25.188 23.6958 25.9798 23.5306 26.6064 23.2002C27.2445 22.8698 27.7173 22.4141 28.0249 21.833C28.3325 21.252 28.4863 20.5854 28.4863 19.8335C28.4863 19.0474 28.3439 18.3752 28.0591 17.8169C27.7856 17.2472 27.3641 16.8086 26.7944 16.501C26.2362 16.1934 25.5241 16.0396 24.6582 16.0396C23.929 16.0396 23.2682 16.1877 22.6758 16.4839C22.0947 16.7687 21.6333 17.1789 21.2915 17.7144C20.9497 18.2384 20.7788 18.8651 20.7788 19.5942H16.6431C16.6431 18.2726 16.9906 17.0991 17.6855 16.0737C18.3805 15.0483 19.3262 14.2451 20.5225 13.6641C21.7301 13.0716 23.0859 12.7754 24.5898 12.7754C26.1963 12.7754 27.5977 13.0431 28.7939 13.5786C30.0016 14.1027 30.9416 14.8888 31.6138 15.937C32.286 16.9852 32.6221 18.284 32.6221 19.8335C32.6221 20.5399 32.4569 21.2576 32.1265 21.9868C31.7961 22.716 31.3062 23.3825 30.6567 23.9863C30.0073 24.5788 29.1984 25.063 28.23 25.439C27.2616 25.8035 26.1393 25.9858 24.8633 25.9858H21.77V23.6958ZM21.77 26.9087V24.6528H24.8633C26.3216 24.6528 27.5635 24.8237 28.5889 25.1655C29.6257 25.5073 30.4688 25.9801 31.1182 26.584C31.7676 27.1764 32.2404 27.8543 32.5366 28.6177C32.8442 29.381 32.998 30.1899 32.998 31.0444C32.998 32.2065 32.7873 33.2433 32.3657 34.1548C31.9556 35.0549 31.3688 35.8182 30.6055 36.4448C29.8421 37.0715 28.9478 37.5443 27.9224 37.8633C26.9084 38.1823 25.8032 38.3418 24.6069 38.3418C23.536 38.3418 22.5106 38.1937 21.5308 37.8975C20.5509 37.6012 19.6737 37.1626 18.8989 36.5815C18.1242 35.9891 17.509 35.2542 17.0532 34.377C16.6089 33.4883 16.3867 32.4629 16.3867 31.3008H20.5054C20.5054 32.0413 20.6763 32.6965 21.0181 33.2661C21.3713 33.8244 21.8612 34.263 22.4878 34.582C23.1258 34.901 23.855 35.0605 24.6753 35.0605C25.5412 35.0605 26.2874 34.9067 26.9141 34.5991C27.5407 34.2915 28.0192 33.8358 28.3496 33.2319C28.6914 32.6281 28.8623 31.8989 28.8623 31.0444C28.8623 30.076 28.6743 29.2899 28.2983 28.686C27.9224 28.0822 27.3869 27.6379 26.6919 27.353C25.9969 27.0568 25.1766 26.9087 24.231 26.9087H21.77Z" fill="white"/>
</svg>
