<svg width="50" height="50" viewBox="0 0 50 50" fill="none" xmlns="http://www.w3.org/2000/svg">
<circle cx="25" cy="25" r="25" fill="#00E1E0"/>
<path d="M33.6133 34.7188V38H16.9336V35.1802L25.0342 26.3447C25.9229 25.3421 26.6235 24.4762 27.1362 23.7471C27.6489 23.0179 28.0078 22.3628 28.2129 21.7817C28.4294 21.1893 28.5376 20.6139 28.5376 20.0557C28.5376 19.2695 28.3895 18.5802 28.0933 17.9878C27.8084 17.384 27.3869 16.9111 26.8286 16.5693C26.2703 16.2161 25.5924 16.0396 24.7949 16.0396C23.8721 16.0396 23.0973 16.2389 22.4707 16.6377C21.8441 17.0365 21.3713 17.589 21.0522 18.2954C20.7332 18.9904 20.5737 19.7879 20.5737 20.688H16.4551C16.4551 19.241 16.7855 17.9194 17.4463 16.7231C18.1071 15.5155 19.0641 14.5584 20.3174 13.8521C21.5706 13.1343 23.0802 12.7754 24.8462 12.7754C26.5096 12.7754 27.9224 13.0545 29.0845 13.6128C30.2466 14.1711 31.1296 14.9629 31.7334 15.9883C32.3486 17.0137 32.6562 18.2271 32.6562 19.6284C32.6562 20.4032 32.5309 21.1722 32.2803 21.9355C32.0296 22.6989 31.6707 23.4622 31.2036 24.2256C30.7479 24.9775 30.2067 25.7352 29.5801 26.4985C28.9535 27.2505 28.2642 28.0138 27.5122 28.7886L22.1289 34.7188H33.6133Z" fill="white"/>
</svg>
