<svg width="50" height="50" viewBox="0 0 50 50" fill="none" xmlns="http://www.w3.org/2000/svg">
<circle cx="25" cy="25" r="25" fill="#3CD07B"/>
<path d="M21.2573 26.4302L17.9761 25.627L19.3262 13.1172H32.7417V16.6035H22.7441L22.0605 22.7046C22.4479 22.4767 22.9834 22.2546 23.667 22.0381C24.3506 21.8102 25.131 21.6963 26.0083 21.6963C27.1818 21.6963 28.23 21.89 29.1528 22.2773C30.0871 22.6533 30.8789 23.2059 31.5283 23.9351C32.1777 24.6528 32.6733 25.5301 33.0151 26.5669C33.3569 27.5923 33.5278 28.7487 33.5278 30.0361C33.5278 31.1868 33.3569 32.2635 33.0151 33.2661C32.6847 34.2687 32.1834 35.1517 31.5112 35.915C30.839 36.6784 29.9902 37.2765 28.9648 37.7095C27.9508 38.131 26.7489 38.3418 25.3589 38.3418C24.3221 38.3418 23.3252 38.1937 22.3682 37.8975C21.4225 37.5898 20.5737 37.1398 19.8218 36.5474C19.0698 35.9435 18.466 35.203 18.0103 34.3257C17.5545 33.437 17.2925 32.4173 17.2241 31.2666H21.2573C21.3599 32.0755 21.582 32.7648 21.9238 33.3345C22.277 33.8927 22.7441 34.32 23.3252 34.6162C23.9062 34.9124 24.5785 35.0605 25.3418 35.0605C26.0368 35.0605 26.6349 34.9409 27.1362 34.7017C27.6375 34.451 28.0534 34.0978 28.3838 33.6421C28.7256 33.175 28.9762 32.6281 29.1357 32.0015C29.3066 31.3748 29.3921 30.6799 29.3921 29.9165C29.3921 29.1873 29.2952 28.5208 29.1016 27.917C28.9193 27.3132 28.6401 26.7891 28.2642 26.3447C27.8996 25.9004 27.4382 25.5586 26.8799 25.3193C26.3216 25.0687 25.6779 24.9434 24.9487 24.9434C23.9689 24.9434 23.217 25.0858 22.6929 25.3706C22.1802 25.6554 21.7017 26.0086 21.2573 26.4302Z" fill="white"/>
</svg>
