<svg width="24" height="24" viewBox="0 0 24 24" fill="none" xmlns="http://www.w3.org/2000/svg">
<g clip-path="url(#clip0_8151_3069)">
<path fill-rule="evenodd" clip-rule="evenodd" d="M17.5419 10.9195C17.8352 11.2012 18 11.5832 18 11.9815C18 12.3799 17.8352 12.7619 17.5419 13.0436L8.69022 21.5414C8.54587 21.6849 8.37322 21.7993 8.18231 21.878C7.99141 21.9568 7.78609 21.9982 7.57832 21.9999C7.37056 22.0017 7.16452 21.9637 6.97222 21.8881C6.77992 21.8126 6.60521 21.7011 6.4583 21.56C6.31138 21.419 6.1952 21.2513 6.11652 21.0666C6.03784 20.882 5.99825 20.6842 6.00006 20.4848C6.00186 20.2853 6.04503 20.0882 6.12704 19.9049C6.20904 19.7217 6.32824 19.5559 6.47769 19.4173L14.2231 11.9815L6.47769 4.54576C6.19266 4.26244 6.03495 3.88299 6.03851 3.48912C6.04208 3.09526 6.20664 2.71849 6.49675 2.43998C6.78687 2.16146 7.17932 2.00348 7.58958 2.00006C7.99985 1.99663 8.3951 2.14805 8.69022 2.42168L17.5419 10.9195Z" fill="#333333"/>
</g>
<defs>
<clipPath id="clip0_8151_3069">
<rect width="24" height="24" fill="white"/>
</clipPath>
</defs>
</svg>
