<svg xmlns="http://www.w3.org/2000/svg" xmlns:xlink="http://www.w3.org/1999/xlink" viewBox="0 0 420.26 754.63"><defs><style>.cls-1{fill:url(#linear-gradient);}.cls-2{fill:url(#linear-gradient-2);}.cls-3{fill:url(#linear-gradient-3);}.cls-4{fill:url(#linear-gradient-4);}.cls-5{fill:url(#linear-gradient-5);}.cls-6{fill:url(#linear-gradient-6);}.cls-7{fill:url(#linear-gradient-7);}.cls-8{fill:url(#linear-gradient-8);}.cls-9{fill:url(#linear-gradient-9);}.cls-10{fill:url(#linear-gradient-10);}.cls-11{fill:url(#linear-gradient-11);}.cls-12{fill:url(#linear-gradient-12);}.cls-13{fill:url(#linear-gradient-13);}.cls-14{fill:url(#linear-gradient-14);}.cls-15{fill:url(#linear-gradient-15);}.cls-16{fill:url(#linear-gradient-16);}.cls-17{fill:url(#linear-gradient-17);}.cls-18{fill:url(#linear-gradient-18);}.cls-19{fill:url(#linear-gradient-19);}.cls-20{fill:url(#linear-gradient-20);}.cls-21{fill:url(#linear-gradient-21);}.cls-22{fill:url(#linear-gradient-22);}.cls-23{fill:url(#linear-gradient-23);}.cls-24{fill:url(#linear-gradient-24);}.cls-25{fill:url(#linear-gradient-25);}.cls-26{fill:url(#linear-gradient-26);}.cls-27{fill:url(#linear-gradient-27);}.cls-28{fill:url(#linear-gradient-28);}.cls-29{fill:url(#linear-gradient-29);}.cls-30{fill:url(#linear-gradient-30);}.cls-31{fill:url(#linear-gradient-31);}.cls-32{fill:url(#linear-gradient-32);}.cls-33{fill:url(#linear-gradient-33);}.cls-34{fill:url(#linear-gradient-34);}.cls-35{fill:url(#linear-gradient-35);}.cls-36{fill:url(#linear-gradient-36);}.cls-37{fill:url(#linear-gradient-37);}.cls-38{fill:url(#linear-gradient-38);}.cls-39{fill:url(#linear-gradient-39);}.cls-40{fill:url(#linear-gradient-40);}.cls-41{fill:url(#linear-gradient-41);}.cls-42{fill:url(#linear-gradient-42);}.cls-43{fill:url(#linear-gradient-43);}.cls-44{fill:url(#linear-gradient-44);}.cls-45{fill:url(#linear-gradient-45);}.cls-46{fill:url(#linear-gradient-46);}.cls-47{fill:url(#linear-gradient-47);}.cls-48{fill:url(#linear-gradient-48);}.cls-49{fill:url(#linear-gradient-49);}.cls-50{fill:url(#linear-gradient-50);}.cls-51{fill:url(#linear-gradient-51);}.cls-52{fill:url(#linear-gradient-52);}.cls-53{fill:url(#linear-gradient-53);}.cls-54{fill:url(#linear-gradient-54);}.cls-55{fill:url(#linear-gradient-55);}.cls-56{fill:url(#linear-gradient-56);}.cls-57{fill:url(#linear-gradient-57);}.cls-58{fill:url(#linear-gradient-58);}.cls-59{fill:url(#linear-gradient-59);}.cls-60{fill:url(#linear-gradient-60);}.cls-61{fill:url(#linear-gradient-61);}.cls-62{fill:url(#linear-gradient-62);}.cls-63{fill:url(#linear-gradient-63);}.cls-64{fill:url(#linear-gradient-64);}.cls-65{fill:url(#linear-gradient-65);}.cls-66{fill:none;}</style><linearGradient id="linear-gradient" x1="416.95" y1="613.71" x2="50.89" y2="231.73" gradientUnits="userSpaceOnUse"><stop offset="0" stop-color="#b3e4fa"/><stop offset="1" stop-color="#fff"/></linearGradient><linearGradient id="linear-gradient-2" x1="-40.85" y1="420.37" x2="390.01" y2="212.33" xlink:href="#linear-gradient"/><linearGradient id="linear-gradient-3" x1="210" y1="476.6" x2="210" y2="7.01" xlink:href="#linear-gradient"/><linearGradient id="linear-gradient-4" x1="261.84" y1="609.78" x2="261.84" y2="537.16" gradientUnits="userSpaceOnUse"><stop offset="0" stop-color="#c9f0ff"/><stop offset="1" stop-color="#88d8fd"/></linearGradient><linearGradient id="linear-gradient-5" x1="231.33" y1="603.07" x2="231.33" y2="553.97" xlink:href="#linear-gradient-4"/><linearGradient id="linear-gradient-6" x1="292.36" y1="603.32" x2="292.36" y2="557.75" xlink:href="#linear-gradient-4"/><linearGradient id="linear-gradient-7" x1="129.13" y1="630.55" x2="358.31" y2="630.55" xlink:href="#linear-gradient-4"/><linearGradient id="linear-gradient-8" x1="110.37" y1="661.83" x2="122.77" y2="578.69" gradientUnits="userSpaceOnUse"><stop offset="0" stop-color="#cfedff"/><stop offset="1" stop-color="#6ac2f7"/></linearGradient><linearGradient id="linear-gradient-9" x1="313.32" y1="729.14" x2="258.67" y2="543.82" xlink:href="#linear-gradient-8"/><linearGradient id="linear-gradient-10" x1="210" y1="646.31" x2="210" y2="1080.57" gradientUnits="userSpaceOnUse"><stop offset="0" stop-color="#36adf7"/><stop offset="1" stop-color="#0d76a5"/></linearGradient><linearGradient id="linear-gradient-11" x1="-217.19" y1="350.69" x2="412.4" y2="350.69" gradientTransform="translate(682.81 262.81) rotate(90)" gradientUnits="userSpaceOnUse"><stop offset="0" stop-color="#fff" stop-opacity="0.05"/><stop offset="1" stop-color="#fff" stop-opacity="0.2"/></linearGradient><linearGradient id="linear-gradient-12" x1="-217.12" y1="453.24" x2="412.33" y2="453.24" xlink:href="#linear-gradient-11"/><linearGradient id="linear-gradient-13" x1="-214.97" y1="351.76" x2="412.29" y2="351.76" xlink:href="#linear-gradient-11"/><linearGradient id="linear-gradient-14" x1="-216.87" y1="366.57" x2="412.05" y2="366.57" xlink:href="#linear-gradient-11"/><linearGradient id="linear-gradient-15" x1="-214.38" y1="453.18" x2="412.02" y2="453.18" xlink:href="#linear-gradient-11"/><linearGradient id="linear-gradient-16" x1="-213.36" y1="418.99" x2="412.21" y2="418.99" xlink:href="#linear-gradient-11"/><linearGradient id="linear-gradient-17" x1="-212.66" y1="339.63" x2="412.28" y2="339.63" xlink:href="#linear-gradient-11"/><linearGradient id="linear-gradient-18" x1="-212.39" y1="453.28" x2="412.45" y2="453.28" xlink:href="#linear-gradient-11"/><linearGradient id="linear-gradient-19" x1="-211.64" y1="310.09" x2="412.47" y2="310.09" xlink:href="#linear-gradient-11"/><linearGradient id="linear-gradient-20" x1="-215.2" y1="377.08" x2="410.18" y2="377.08" xlink:href="#linear-gradient-11"/><linearGradient id="linear-gradient-21" x1="-215.2" y1="492.26" x2="410.18" y2="492.26" xlink:href="#linear-gradient-11"/><linearGradient id="linear-gradient-22" x1="-198.87" y1="436.11" x2="411.12" y2="436.11" xlink:href="#linear-gradient-11"/><linearGradient id="linear-gradient-23" x1="27.69" y1="351.47" x2="63.26" y2="351.47" gradientTransform="matrix(1, 0, 0, 1, 0, 0)" xlink:href="#linear-gradient-11"/><linearGradient id="linear-gradient-24" x1="-213.49" y1="657.2" x2="416.48" y2="657.2" xlink:href="#linear-gradient-11"/><linearGradient id="linear-gradient-25" x1="-213.36" y1="676.91" x2="416.34" y2="676.91" xlink:href="#linear-gradient-11"/><linearGradient id="linear-gradient-26" x1="-217.28" y1="540.71" x2="412.5" y2="540.71" xlink:href="#linear-gradient-11"/><linearGradient id="linear-gradient-27" x1="-211.06" y1="596.68" x2="416.16" y2="596.68" xlink:href="#linear-gradient-11"/><linearGradient id="linear-gradient-28" x1="-214.38" y1="507.61" x2="412.02" y2="507.61" xlink:href="#linear-gradient-11"/><linearGradient id="linear-gradient-29" x1="-213.36" y1="536.16" x2="412.21" y2="536.16" xlink:href="#linear-gradient-11"/><linearGradient id="linear-gradient-30" x1="-208.78" y1="604.23" x2="416.16" y2="604.23" xlink:href="#linear-gradient-11"/><linearGradient id="linear-gradient-31" x1="-212.39" y1="507.52" x2="412.45" y2="507.52" xlink:href="#linear-gradient-11"/><linearGradient id="linear-gradient-32" x1="-207.69" y1="632.36" x2="416.35" y2="632.36" xlink:href="#linear-gradient-11"/><linearGradient id="linear-gradient-33" x1="-198.87" y1="525.04" x2="411.12" y2="525.04" xlink:href="#linear-gradient-11"/><linearGradient id="linear-gradient-34" x1="366.52" y1="349.56" x2="402.06" y2="349.56" gradientTransform="matrix(1, 0, 0, 1, 0, 0)" xlink:href="#linear-gradient-11"/><linearGradient id="linear-gradient-35" x1="-217.37" y1="285.25" x2="412.6" y2="285.25" xlink:href="#linear-gradient-11"/><linearGradient id="linear-gradient-36" x1="-217.25" y1="268.72" x2="412.46" y2="268.72" xlink:href="#linear-gradient-11"/><linearGradient id="linear-gradient-37" x1="-217.28" y1="401.74" x2="412.5" y2="401.74" xlink:href="#linear-gradient-11"/><linearGradient id="linear-gradient-38" x1="-199.25" y1="350.27" x2="359.01" y2="350.27" xlink:href="#linear-gradient-11"/><linearGradient id="linear-gradient-39" x1="-216.99" y1="453.18" x2="409.41" y2="453.18" xlink:href="#linear-gradient-11"/><linearGradient id="linear-gradient-40" x1="251.29" y1="128.46" x2="352.88" y2="128.46" gradientTransform="matrix(1, 0, 0, 1, 0, 0)" xlink:href="#linear-gradient-11"/><linearGradient id="linear-gradient-41" x1="342.3" y1="117.31" x2="353.46" y2="117.31" gradientTransform="matrix(1, 0, 0, 1, 0, 0)" xlink:href="#linear-gradient-11"/><linearGradient id="linear-gradient-42" x1="-160.04" y1="445.67" x2="-67.17" y2="445.67" xlink:href="#linear-gradient-11"/><linearGradient id="linear-gradient-43" x1="-216.75" y1="474.1" x2="411.91" y2="474.1" xlink:href="#linear-gradient-11"/><linearGradient id="linear-gradient-44" x1="-213.31" y1="591.76" x2="416.28" y2="591.76" xlink:href="#linear-gradient-11"/><linearGradient id="linear-gradient-45" x1="-217.13" y1="507.55" x2="412.33" y2="507.55" xlink:href="#linear-gradient-11"/><linearGradient id="linear-gradient-46" x1="-200.74" y1="598.17" x2="378.19" y2="598.17" xlink:href="#linear-gradient-11"/><linearGradient id="linear-gradient-47" x1="-213" y1="576.24" x2="415.92" y2="576.24" xlink:href="#linear-gradient-11"/><linearGradient id="linear-gradient-48" x1="-216.99" y1="507.61" x2="409.41" y2="507.61" xlink:href="#linear-gradient-11"/><linearGradient id="linear-gradient-49" x1="137.07" y1="128.5" x2="238.73" y2="128.5" gradientTransform="matrix(1, 0, 0, 1, 0, 0)" xlink:href="#linear-gradient-11"/><linearGradient id="linear-gradient-50" x1="77.67" y1="119.28" x2="88.75" y2="119.28" gradientTransform="matrix(1, 0, 0, 1, 0, 0)" xlink:href="#linear-gradient-11"/><linearGradient id="linear-gradient-51" x1="-208.78" y1="568.96" x2="416.16" y2="568.96" xlink:href="#linear-gradient-11"/><linearGradient id="linear-gradient-52" x1="112.94" y1="119.28" x2="124.02" y2="119.28" gradientTransform="matrix(1, 0, 0, 1, 0, 0)" xlink:href="#linear-gradient-11"/><linearGradient id="linear-gradient-53" x1="-208.78" y1="480.43" x2="416.16" y2="480.43" xlink:href="#linear-gradient-11"/><linearGradient id="linear-gradient-54" x1="201.47" y1="119.28" x2="212.55" y2="119.28" gradientTransform="matrix(1, 0, 0, 1, 0, 0)" xlink:href="#linear-gradient-11"/><linearGradient id="linear-gradient-55" x1="-208.78" y1="385.19" x2="416.16" y2="385.19" xlink:href="#linear-gradient-11"/><linearGradient id="linear-gradient-56" x1="296.7" y1="119.28" x2="307.78" y2="119.28" gradientTransform="matrix(1, 0, 0, 1, 0, 0)" xlink:href="#linear-gradient-11"/><linearGradient id="linear-gradient-57" x1="-160.05" y1="515.12" x2="-66.54" y2="515.12" xlink:href="#linear-gradient-11"/><linearGradient id="linear-gradient-58" x1="-160.61" y1="624.59" x2="-147.87" y2="624.59" xlink:href="#linear-gradient-11"/><linearGradient id="linear-gradient-59" x1="-215.2" y1="562.2" x2="410.17" y2="562.2" xlink:href="#linear-gradient-11"/><linearGradient id="linear-gradient-60" x1="261.84" y1="608.41" x2="261.84" y2="537.43" gradientUnits="userSpaceOnUse"><stop offset="0" stop-color="#88d8fd"/><stop offset="1" stop-color="#c9f0ff"/></linearGradient><linearGradient id="linear-gradient-61" x1="231.33" y1="599.57" x2="231.33" y2="556.55" xlink:href="#linear-gradient-60"/><linearGradient id="linear-gradient-62" x1="292.36" y1="602.12" x2="292.36" y2="558.78" xlink:href="#linear-gradient-60"/><linearGradient id="linear-gradient-63" x1="344.97" y1="589.25" x2="187.65" y2="874.94" gradientUnits="userSpaceOnUse"><stop offset="0" stop-color="#2696ff"/><stop offset="1" stop-color="#196eb0"/></linearGradient><linearGradient id="linear-gradient-64" x1="276.98" y1="285.44" x2="276.98" y2="243.43" gradientUnits="userSpaceOnUse"><stop offset="0" stop-color="#c4eafd"/><stop offset="1" stop-color="#fff"/></linearGradient><linearGradient id="linear-gradient-65" x1="-3153.23" y1="324.09" x2="-3153.23" y2="295" gradientTransform="matrix(-1, 0, 0, 1, -3024.5, 0)" xlink:href="#linear-gradient-64"/></defs><g id="Layer_2" data-name="Layer 2"><g id="Layer_2-2" data-name="Layer 2"><path class="cls-1" d="M420,102V693.52c-38.48,36.23-118.06,61.11-210,61.11S38.48,729.75,0,693.52V102Z"/><path class="cls-2" d="M420,75V507.57a306.11,306.11,0,0,1-29.67,24.68l-1.09.79q-8.25,6-16.92,11.41h0l-1,.62c-.47.29-.92.58-1.39.86h0c-1.13.7-2.24,1.38-3.38,2h0q-2.67,1.6-5.37,3.14c-1.82,1-3.64,2-5.48,3l-.37.19c-1.28.7-2.57,1.38-3.86,2.06q-3.81,2-7.68,3.87l-1.13.55q-6.25,3-12.67,5.74c-.3.14-.61.27-.91.39l-3.69,1.54-.93.37q-10.44,4.22-21.25,7.66-2.51.83-5,1.57c-.37.11-.74.23-1.12.33q-7.66,2.28-15.5,4.15c-2.29.55-4.58,1.07-6.89,1.57-1.21.26-2.41.51-3.63.75h0c-1.33.28-2.66.54-4,.78h0c-1.26.25-2.52.48-3.79.7h0q-7,1.23-14.14,2.14c-.59.08-1.18.15-1.78.21-.37.06-.75.1-1.12.14q-10.26,1.22-20.72,1.73l-1.15.06q-7.09.33-14.28.33-3.56,0-7.09-.09l-1.1,0q-10.73-.28-21.26-1.29l-1.15-.11q-10.64-1.07-21.06-2.84l-1.14-.19-1.69-.3q-5.2-.93-10.36-2c-2.23-.49-4.46-1-6.68-1.53q-12.24-2.93-24.08-6.83l-1.12-.37q-9.78-3.24-19.24-7.12l-1.39-.59-1.84-.77-1.35-.58q-5.22-2.22-10.33-4.66L78,561.14q-11.32-5.42-22.11-11.73l-1-.59q-10.75-6.33-20.94-13.52l-1.08-.76A305.8,305.8,0,0,1,0,507.57V75Z"/><path class="cls-3" d="M420,0V428.38q-3.9,3.58-7.94,7c-.36.32-.74.64-1.11.95q-9.94,8.44-20.61,16c-.36.27-.72.52-1.08.77q-9.35,6.61-19.2,12.54l-1.1.65a307.09,307.09,0,0,1-42,20.88c-.39.17-.77.32-1.16.47q-13.56,5.46-27.72,9.63c-.35.11-.71.22-1.07.31q-11,3.23-22.41,5.63c-2,.43-4,.84-6.08,1.23h0l-1.27.23q-9,1.69-18.23,2.84-10.44,1.31-21.1,1.92-2.83.17-5.7.27-6.09.24-12.25.24-3.56,0-7.09-.08l-1.11,0q-9.42-.24-18.71-1-3.39-.28-6.76-.66a305.85,305.85,0,0,1-31.69-5.08c-.44-.08-.88-.18-1.32-.28q-14.73-3.21-28.91-7.8l-1.21-.39q-13.4-4.38-26.23-9.93c-.93-.39-1.85-.8-2.77-1.21q-13-5.76-25.4-12.67l-1.1-.61q-12.26-6.9-23.79-14.84l-1.08-.75Q20.5,446.07,9.05,436.36c-.37-.31-.75-.63-1.11-.95q-4-3.44-7.94-7V0Z"/><rect class="cls-4" x="249.05" y="549.22" width="25.59" height="68.91"/><rect class="cls-5" x="222.47" y="574.81" width="17.72" height="35.44"/><rect class="cls-6" x="281.53" y="578.75" width="21.66" height="39.38"/><path class="cls-7" d="M135.84,618.13s17.72-3.94,43.32-11.82,49.22-5.9,80.72,5.91S358.31,626,358.31,626s-122.06,47.25-177.18,29.53S122.06,624,135.84,618.13Z"/><path class="cls-8" d="M172.94,667.85h0c-8.57-.31-17.75-.86-27.27-1.65-15.87-1.32-32.7-3.29-49.27-5.88-2-.31-4-.64-6-1-1.47-.24-2.93-.49-4.39-.75l-3.88-.68q-3-.54-6.07-1.13l-2.52-.48h0q-2.4-.46-4.77-1C62,654,55.49,652.48,49.22,650.89l-.74-.19c-1.8-.46-3.59-.93-5.34-1.4l-.78-.21c-16.48-4.51-30.84-9.77-41.28-15.73h0L0,632.74V598.16c5.1-.67,11.55-1.38,18.82-1.88h0c1.32-.1,2.66-.18,4-.26,2.49-.14,5.07-.25,7.69-.32,2.16-.06,4.36-.1,6.58-.11l4.38,0h.15l1.41,0h.1l4,.12,1.45.07a5.68,5.68,0,0,1,.59,0l1,0,.48,0L52,596c1.2.07,2.4.16,3.6.26l2,.18,1.1.11.21,0a140.28,140.28,0,0,1,19,3.16l1.12.28c1,.25,2,.51,2.93.79,1.61.45,3.19.95,4.74,1.48a72.9,72.9,0,0,1,12.15,5.35,142.74,142.74,0,0,0,14.33,7.11l1.11.46a112.39,112.39,0,0,0,17.28,5.41c11.92,2.82,24.7,4.72,47.76,13.25l1.12.41c5.51,2.06,11.61,4.5,18.41,7.41,6.11,2.62,12.8,5.63,20.14,9.09,6.36,3,9.87,5.59,11,7.79C234,666.24,208.67,669.15,172.94,667.85Z"/><path class="cls-9" d="M420.05,622.12l.21.33-.26.27v59.69c-47.59,3.63-87.56,5.71-120.94,6.56-120.67,3.1-155.38-9.71-153.41-22.78a10.75,10.75,0,0,1,2.77-5.39c3.38-3.89,9.51-7.61,17-10.72,2.71-1.12,5.6-2.17,8.6-3.11,0,0,9.39-1.57,24.93-5.27h0c7.22-1.71,15.77-3.89,25.33-6.59l1.12-.31c12.7-3.61,27.12-8.12,42.53-13.66l10.44-3.74,3.15-1.12c5.05-1.8,10.24-3.63,15.5-5.46l1.11-.39,5.05-1.75c12.51-4.3,25.35-8.56,37.8-12.37l1.65-.51,1.13-.34,1.4-.42q5.22-1.57,10.31-3c1.53-.43,3-.86,4.55-1.26l.93-.26.5-.13c1-.28,2-.54,3-.79l1.09-.29c6.55-1.72,12.82-3.2,18.69-4.39l1.32-.27c14.95-2.94,27.17-3.89,34.49-1.64v39A.41.41,0,0,0,420.05,622.12Z"/><path class="cls-10" d="M407.2,642.07q6.58.58,12.8,1.6v49.85c-20.84,19.63-53.74,35.92-94.14,46.73h0L311.1,742l-67.9,8-39.13,4.6h0a484.27,484.27,0,0,1-52.95-3.47l-.05.06a.06.06,0,0,0,0-.06q-13.09-1.59-25.54-3.87h0C70.81,737.31,26,718,0,693.52v-99H2a88.44,88.44,0,0,1,16.84,1.72h0c1.17.23,2.36.49,3.55.79a83.46,83.46,0,0,1,8.53,2.54h0q1.66.58,3.36,1.26,3.3,1.33,6.65,3c1.75.88,3.37,1.74,4.88,2.6l1,.57c.85.49,1.67,1,2.45,1.47l1,.62c.86.55,1.67,1.1,2.45,1.64l1,.69q1.92,1.38,3.58,2.73l.95.79c5.18,4.35,8.8,8.55,13.39,12.79q1.28,1.19,2.67,2.37a71.68,71.68,0,0,0,7.48,5.54c1.4.91,2.91,1.83,4.55,2.75,1.19.67,2.46,1.35,3.8,2q2.7,1.38,5.86,2.78a232.34,232.34,0,0,0,27.43,9.87c9.3,2.8,17.55,5.37,25,7.67,9.1,2.79,17.1,5.17,24.5,7h0c27.25,6.89,46.52,7,84-4.44a573.47,573.47,0,0,1,61.81-15.2l1-.19,2.49-.46,1-.17,2.49-.43,1-.17c9.86-1.67,19.68-3,29.32-4l.3,0,.93-.08,2.54-.24c.13,0,.25,0,.38,0,.46-.05.91-.09,1.36-.11,5.09-.44,10.13-.75,15.08-.92.36,0,.71,0,1.07,0,1.57-.06,3.12-.1,4.67-.12h0l.94,0c6.56-.1,13,0,19.15.46h0c1.52.09,3,.21,4.5.34Z"/><path class="cls-11" d="M317.67,506.76a3.1,3.1,0,0,1,1.54-2.79A2.8,2.8,0,0,0,320.7,501V501c0-3.78,0-7.57,0-11.36,0-5.09,0-10.36,0-15.54v0a4,4,0,0,1,1.27-3.1c3.72-3.68,7.48-7.45,11.12-11.09s7.28-7.28,10.94-10.9a4.42,4.42,0,0,0,1.41-3.46c0-16.39,0-33.37,0-50.49q0-24.19,0-48.38v-.08l0-.08a1.26,1.26,0,0,1-.08-.5,6.86,6.86,0,0,1,.06-.75c0-.21.05-.41.06-.59v-3.92c0-.19,0-.4-.06-.61a6.49,6.49,0,0,1-.06-.75,1.3,1.3,0,0,1,.08-.5l0-.07v-.08q0-24.19,0-48.38c0-17.12,0-34.1,0-50.48a4.46,4.46,0,0,0-1.41-3.47c-3.66-3.63-7.36-7.33-10.94-10.91s-7.4-7.4-11.12-11.08a4,4,0,0,1-1.27-3.1v0c0-5.18,0-10.45,0-15.55,0-3.78,0-7.57,0-11.35v-.08a2.81,2.81,0,0,0-1.49-2.94,3.08,3.08,0,0,1-1.54-2.78,3.74,3.74,0,0,1,.18-1.15,3.52,3.52,0,0,1,3.42-2.47,3.65,3.65,0,0,1,3.57,3.63,3.18,3.18,0,0,1-1.61,2.82,2.71,2.71,0,0,0-1.45,2.79v0q0,6.56,0,13.1c0,4.84,0,9.23,0,13.43v0a4.22,4.22,0,0,0,1.41,3.26c3.38,3.36,6.8,6.78,10.1,10.09,3.91,3.91,8,7.95,12,11.9a4,4,0,0,1,1.28,3.12c0,11.11,0,22.05,0,31.29v37.28c0,9.77,0,20.29,0,31v.08l0,.07a1.19,1.19,0,0,1,.08.48,4.86,4.86,0,0,1-.07.74c0,.18,0,.36-.05.52v4.17c0,.18,0,.36.05.54a4.86,4.86,0,0,1,.07.74,1.1,1.1,0,0,1-.08.47l0,.08v.08c0,10.68,0,21.2,0,31v37.28c0,9.24,0,20.17,0,31.27a4,4,0,0,1-1.28,3.13c-4,4-8,8-11.94,11.9-3.31,3.31-6.73,6.74-10.11,10.09a4.26,4.26,0,0,0-1.41,3.27v0c0,4.2,0,8.59,0,13.43q0,6.54,0,13.1v0a2.71,2.71,0,0,0,1.45,2.79,3.17,3.17,0,0,1,1.61,2.82,3.34,3.34,0,0,1-.23,1.25,3.43,3.43,0,0,1-3.34,2.38,3.53,3.53,0,0,1-3.42-2.48A3.67,3.67,0,0,1,317.67,506.76Z"/><path class="cls-12" d="M237.73,394.68q0-24.15,0-48.3v-.08a2.25,2.25,0,0,0,0-.4c0-.17,0-.35,0-.51s0-.25,0-.38v-4.76c0-.12,0-.24,0-.37s0-.34,0-.51a2.37,2.37,0,0,0,0-.41v-.07q0-24.15,0-48.3V260.83c0-7.06,0-15,0-23.24,0-3.74,0-7.54,0-11.36a4.49,4.49,0,0,0-1.52-3.58c-1.82-1.74-3.62-3.55-5.36-5.3-1.37-1.37-2.79-2.79-4.2-4.17a3.64,3.64,0,0,1-1.19-2.79v0c0-1.73,0-3.5,0-5.41,0-2.12,0-4.38,0-6.93V198a2.24,2.24,0,0,1,1.21-2.18,3.42,3.42,0,0,0,1.84-3,3.57,3.57,0,0,0-7-1.14,3.87,3.87,0,0,0-.18,1.14,3.34,3.34,0,0,0,1.74,2.89,2.39,2.39,0,0,1,1.23,2.36v0c0,.58,0,1.15,0,1.73,0,1.11,0,2.22,0,3.33s0,2.22,0,3.33c0,1.6,0,2.91,0,4.14v.1a3.72,3.72,0,0,0,1.24,2.89c1.37,1.34,2.75,2.72,4.08,4.06,1.69,1.7,3.44,3.46,5.2,5.15a5.21,5.21,0,0,1,1.74,4.1c0,3.46,0,6.91,0,10.38,0,7.7,0,15.46,0,23.51v78.1a1.92,1.92,0,0,0,0,.38,5.27,5.27,0,0,0,0,.56v5.52a5.46,5.46,0,0,0,0,.56,2,2,0,0,0,0,.39v47.32c0,24,0,44.24,0,64.68a5.23,5.23,0,0,1-1.74,4.09c-1.76,1.68-3.51,3.45-5.2,5.15-1.33,1.34-2.71,2.72-4.08,4.06a3.72,3.72,0,0,0-1.24,2.89v.09c0,1.24,0,2.55,0,4.14,0,1.11,0,2.23,0,3.34s0,2.22,0,3.33c0,.57,0,1.15,0,1.72v.05a2.39,2.39,0,0,1-1.23,2.36,3.33,3.33,0,0,0-1.74,2.89,3.75,3.75,0,0,0,.18,1.13,3.54,3.54,0,0,0,6.83-.11,3.65,3.65,0,0,0,.15-1,3.45,3.45,0,0,0-1.84-3,2.23,2.23,0,0,1-1.21-2.18v0c0-2.55,0-4.82,0-6.94,0-1.9,0-3.67,0-5.4v-.06a3.63,3.63,0,0,1,1.19-2.78c1.41-1.38,2.82-2.8,4.19-4.17,1.75-1.75,3.55-3.56,5.37-5.3a4.5,4.5,0,0,0,1.52-3.6c0-12.3,0-24.49,0-34.79ZM223,194.76a2.83,2.83,0,0,1-.9-2v-.1a2.83,2.83,0,0,1,2.72-2.8,2.87,2.87,0,0,1,2.93,2.71v.1a2.83,2.83,0,0,1-2.73,2.79A2.79,2.79,0,0,1,223,194.76Zm4.75,297.8v.1a2.87,2.87,0,0,1-2.93,2.71,2.83,2.83,0,0,1-2.72-2.8v-.11a2.82,2.82,0,0,1,2.92-2.7A2.85,2.85,0,0,1,227.79,492.56Z"/><path class="cls-13" d="M339.21,520.28V478.89c0-.62,0-1.23,0-1.84a.86.86,0,0,0-.18-.63.58.58,0,0,0-.4-.11c-.12,0-.48,0-.49.69s0,1.1,0,1.65v21.26c0,10.13,0,22.11,0,34.2a4,4,0,0,1-1.28,3.15c-1.33,1.29-2.66,2.63-3.95,3.93-1.69,1.7-3.44,3.47-5.21,5.15a5.34,5.34,0,0,0-1.86,4.3v.07c.05,6.57.06,13,.06,18.95v17.56a2.7,2.7,0,0,1-1.44,2.81,3.14,3.14,0,0,0-1.6,2.79,3.5,3.5,0,0,0,.24,1.28,3.6,3.6,0,0,0,1.34,1.78,3.61,3.61,0,0,0,5.42-1.88c0-.14.08-.28.11-.42a3.51,3.51,0,0,0,.07-.72,3.24,3.24,0,0,0-1.7-2.9,2.44,2.44,0,0,1-1.34-2.52q0-8.9,0-17.8,0-9.71,0-19.41h0a3.46,3.46,0,0,1,1.1-2.67c1.48-1.44,3-2.93,4.39-4.37,1.81-1.81,3.67-3.68,5.55-5.49a3.72,3.72,0,0,0,1.2-2.94v0C339.22,530.57,339.21,526.12,339.21,520.28Zm-9.93,72.64c0,.1,0,.2,0,.3a2.59,2.59,0,0,1-.2.75,2.82,2.82,0,0,1-2.9,1.73,2.86,2.86,0,0,1-.79-.19,2.76,2.76,0,0,1-1.7-2.6,2.64,2.64,0,0,1,0-.28,2.74,2.74,0,0,1,1-1.9,2.67,2.67,0,0,1,2-.6A2.87,2.87,0,0,1,329.28,592.92Z"/><path class="cls-14" d="M324.41,346.44a1.34,1.34,0,0,0,0-.38c0-.19,0-.39,0-.59s0-.18,0-.3v-5.1l0-.28c0-.19,0-.4,0-.58a1.41,1.41,0,0,0,0-.39l0-.05v0c0-3.09,0-6.17,0-9.26,0,0,0-21.58,0-23.73,0-3.74,0-8.69,0-13.75a3.3,3.3,0,0,0-1.08-2.62c-1.79-1.74-3.58-3.54-5.32-5.28-1.5-1.51-3.07-3.08-4.62-4.6a3.61,3.61,0,0,1-1.22-2.81q0-7.92,0-15.84v-.11q0-10.64,0-21.29a2.51,2.51,0,0,1,1.37-2.49,3.42,3.42,0,0,0,1.68-2.95,3.5,3.5,0,0,0-.19-1.11,3.64,3.64,0,0,0-3.46-2.44,3.52,3.52,0,0,0-2.22.8,3.63,3.63,0,0,0-1.09,1.62,3.7,3.7,0,0,0-.22,1.22,3.26,3.26,0,0,0,1.67,2.84,2.63,2.63,0,0,1,1.14,1.16,3.6,3.6,0,0,1,.26,1.51q0,7.89,0,15.76c0,1.81,0,3.64,0,5.48,0,5.3,0,10.68,0,16a4.11,4.11,0,0,0,1.39,3.24c1.67,1.61,3.33,3.28,4.94,4.89s3.06,3.07,4.61,4.58a4.21,4.21,0,0,1,1.35,3.32c0,8.14,0,16.58,0,25.79q0,10,0,20v.06l0,.06a1.14,1.14,0,0,0-.05.41c0,.19,0,.39,0,.59s0,.27,0,.42v4.81l0,.39c0,.2,0,.41,0,.6a1.17,1.17,0,0,0,.05.41l0,.06v.06q0,10,0,20v0c0,9.2,0,17.62,0,25.76A4.21,4.21,0,0,1,322,395.7c-1.55,1.5-3.11,3.06-4.61,4.57s-3.27,3.29-4.94,4.9a4.13,4.13,0,0,0-1.39,3.27c0,7.16,0,14.44,0,21.48,0,5.25,0,10.5,0,15.78a2.64,2.64,0,0,1-1.4,2.65,3.23,3.23,0,0,0-1.67,2.83,3.75,3.75,0,0,0,.22,1.23,3.44,3.44,0,0,0,3.31,2.42,3.64,3.64,0,0,0,3.46-2.44,3.5,3.5,0,0,0,.19-1.11,3.39,3.39,0,0,0-1.68-2.95,2.53,2.53,0,0,1-1.37-2.51q0-10.63,0-21.27,0-8,0-16a3.62,3.62,0,0,1,1.22-2.8c1.55-1.52,3.12-3.08,4.63-4.6,1.73-1.73,3.52-3.53,5.31-5.27a3.33,3.33,0,0,0,1.08-2.65c0-5,0-10,0-13.72,0-2.15,0-23.74,0-23.74,0-3.08,0-6.17,0-9.25v-.06ZM308.86,234a2.81,2.81,0,0,1,.83-2,2.49,2.49,0,0,1,.52-.4h0a2.72,2.72,0,0,1,1.45-.39,2.87,2.87,0,0,1,2.81,2.79v0a2.44,2.44,0,0,1-.05.48,2.78,2.78,0,0,1-2.79,2.28A2.7,2.7,0,0,1,308.86,234Zm5.61,217.27v0a2.87,2.87,0,0,1-2.81,2.8,2.74,2.74,0,0,1-2-.79,2.79,2.79,0,0,1-.84-2,2.7,2.7,0,0,1,2.77-2.79A2.78,2.78,0,0,1,314.47,451.25Z"/><path class="cls-15" d="M221.41,570.42a3.05,3.05,0,0,1,1.39-2.62,3.46,3.46,0,0,0,1.65-3.42v0q0-8.61,0-17.22c0-6.38,0-13,0-19.46a3.93,3.93,0,0,1,1.28-3.14c1.69-1.63,3.37-3.32,5-5s3.11-3.11,4.69-4.65a4.18,4.18,0,0,0,1.35-3.29c0-5.27,0-10.64,0-16.45,0-5.3,0-10.9,0-17.12h0a4.15,4.15,0,0,0-.05-.59c0-.2,0-.41,0-.6,0-.51.14-.67.6-.67a.66.66,0,0,1,.47.13.88.88,0,0,1,.15.61,5.4,5.4,0,0,1,0,.56,5.17,5.17,0,0,0,0,.54c0,2.55,0,5.26,0,8.81v8.52c0,1.5,0,3,0,4.49s0,3.12,0,4.68c0,3,0,5.4.05,7.61v.09a4,4,0,0,1-1.39,3.18c-1.66,1.61-3.32,3.28-4.92,4.89s-3,3-4.49,4.46a4.41,4.41,0,0,0-1.48,3.43c0,5.74,0,11.79,0,18.52q0,9,0,18h0a2.9,2.9,0,0,0,1.51,3,3.09,3.09,0,0,1,1.53,2.73,3.68,3.68,0,0,1-.88,2.37,3.55,3.55,0,0,1-5.21.28,3.77,3.77,0,0,1-1.11-2.64Z"/><path class="cls-16" d="M255.63,554v-.24c0-1.27.06-2.65.06-4.33,0-1,0-2,0-2.93s0-2,0-2.93v-5.81q0-3.06,0-6.12h0c0-.11,0-.21,0-.3v-.28a.94.94,0,0,1,.14-.63.56.56,0,0,1,.41-.12c.44,0,.59.15.59.94v4.24c0,2.7,0,5.39,0,8.08,0,3.92,0,7.15,0,10.17v0a4,4,0,0,0,1.32,3.11c1.51,1.48,3,3,4.5,4.48,1.68,1.69,3.42,3.44,5.17,5.13a3.87,3.87,0,0,1,1.26,3.1c0,6.5,0,13.08,0,19.44q0,7.33,0,14.68a2.8,2.8,0,0,0,1.46,2.83,3.14,3.14,0,0,1,1.55,2.78,3.57,3.57,0,0,1-.19,1.16,3.56,3.56,0,0,1-6.8,0,3.8,3.8,0,0,1-.16-1.1,3.19,3.19,0,0,1,1.72-2.92,2.38,2.38,0,0,0,1.34-2.49c0-5.61,0-11.19,0-16.78,0-6.25,0-11.86,0-17.15a3.83,3.83,0,0,0-1.24-3c-1.36-1.33-2.73-2.7-4-4-1.79-1.8-3.64-3.67-5.51-5.45A4.46,4.46,0,0,1,255.63,554Z"/><path class="cls-17" d="M339.59,622.91a3.12,3.12,0,0,1,1.63-2.8,2.71,2.71,0,0,0,1.44-2.82q0-13.77,0-27.49c0-12.61,0-24.06,0-35a6.37,6.37,0,0,0-.06-.71,6.41,6.41,0,0,1-.07-.73.75.75,0,0,1,.16-.57.71.71,0,0,1,.52-.13c.41,0,.64.14.64.78a6.5,6.5,0,0,1-.06.74,6.18,6.18,0,0,0-.06.71c0,6.36,0,12.69,0,17.5v27.32c0,5.18,0,11.3,0,17.48v0a2.86,2.86,0,0,0,1.5,3,3.05,3.05,0,0,1,1.52,2.73,3.82,3.82,0,0,1-.2,1.2,3.51,3.51,0,0,1-3.45,2.44,3.34,3.34,0,0,1-3.3-2.4,3.55,3.55,0,0,1-.23-1.25Z"/><path class="cls-18" d="M237.72,585.89v-2.13c0-.59,0-1.18,0-1.77h0v-4.78c0-.8,0-1.6,0-2.4,0-.49,0-1,0-1.46a1.07,1.07,0,0,0-.22-.77.53.53,0,0,0-.42-.11c-.31,0-.46.16-.5.9,0,.24,0,.47,0,.7v.74c0,1.13,0,2.26,0,3.38v4.2c0,2.28,0,4.15,0,5.88v.05a3.66,3.66,0,0,1-1.18,2.79c-1.44,1.41-2.88,2.86-4.28,4.26-1.79,1.81-3.65,3.68-5.51,5.48a4.07,4.07,0,0,0-1.16,1.81,5.26,5.26,0,0,0-.19,1.5c0,2,0,4.06,0,6.09,0,2.48,0,5,0,7.42v5.21q0,6.11,0,12.23V636a2.6,2.6,0,0,1-1.38,2.66,3.07,3.07,0,0,0-1.59,2.75,3.55,3.55,0,0,0,.19,1.15,3.55,3.55,0,0,0,6.78.07,3.92,3.92,0,0,0,.19-1.21,3.1,3.1,0,0,0-1.66-2.82,2.43,2.43,0,0,1-1.19-1.22,3.68,3.68,0,0,1-.22-1.45V634.8q0-7.15,0-14.31v-2.88c0-2.47,0-4.93,0-7.36,0-2.07,0-4.13,0-6.15a3.42,3.42,0,0,1,.22-1.27,3.52,3.52,0,0,1,.84-1.22c1.66-1.64,3.34-3.32,5-5s3.54-3.55,5.33-5.32a2.92,2.92,0,0,0,1-2.23V589C237.73,588.09,237.72,587.1,237.72,585.89Zm-10,55.69h0a2.76,2.76,0,0,1-.81,2,2.85,2.85,0,0,1-4.84-2,2.79,2.79,0,0,1,.85-2,2.8,2.8,0,0,1,4.8,2Z"/><path class="cls-19" d="M379,643.51a2.83,2.83,0,0,1-.55-.3,2,2,0,0,1-.84-1.83,1.69,1.69,0,0,1,0-.23v-.08c0-1.63,0-3.25,0-4.87v-4.59c0-2.36,0-5.13,0-7.86v0a3.08,3.08,0,0,0-1-2.37l-.07-.07c-1.46-1.43-2.93-2.9-4.36-4.33l-.44-.44c-1-1-2-2.06-3.1-3.1l-2-2a3.78,3.78,0,0,1-1.23-3v-.33c0-3,0-6.18,0-9.86q0-4.47,0-8.94v-1.92c0-.12,0-.25,0-.38s0-.26,0-.39a.88.88,0,0,0-.14-.59.72.72,0,0,0-.45-.11l-.27,0h0a.4.4,0,0,0-.25.34h0a1.45,1.45,0,0,0,0,.32c0,.14,0,.27,0,.4s0,.28,0,.42h0c0,.71,0,1.43,0,2.14,0,1,0,2,0,3v8.73c0,1,0,2,0,3,0,1.89,0,3.42,0,4.82v.21a3.06,3.06,0,0,0,1,2.28l2.4,2.37,2.94,3,.29.29c1.45,1.46,2.94,3,4.42,4.4a3.4,3.4,0,0,1,1,1.81h0a3.53,3.53,0,0,1,.09.81v0c0,2.6,0,5.36,0,8.45,0,2.86,0,5.72,0,8.61v.09a2.41,2.41,0,0,1-1.1,2.25,3.5,3.5,0,0,0-1.4,1.77,3,3,0,0,0-.18,1,3.78,3.78,0,0,0,.31,1.48,3.45,3.45,0,0,0,3.62,2.14,3.35,3.35,0,0,0,3.1-2.66,3.81,3.81,0,0,0,.13-1A3.21,3.21,0,0,0,379,643.51Zm1.24,3.16a2.8,2.8,0,0,1-5.6,0,2.82,2.82,0,0,1,.63-1.76h0l.2-.21a2.77,2.77,0,0,1,1.71-.8h.28a2.77,2.77,0,0,1,2.78,2.8Z"/><path class="cls-20" d="M302.16,378.9a3.19,3.19,0,0,1,1.58-2.78,2.73,2.73,0,0,0,1.45-2.78c0-5.15,0-10.6,0-17.7v-26c0-7.09,0-12.54,0-17.66h0a2.75,2.75,0,0,0-1.45-2.81,3.14,3.14,0,0,1-1.58-2.79,3.64,3.64,0,0,1,.24-1.29,3.41,3.41,0,0,1,3.34-2.35,3.58,3.58,0,0,1,3.41,2.47,4.09,4.09,0,0,1,.17,1.14,3.24,3.24,0,0,1-1.69,2.91,2.48,2.48,0,0,0-1.36,2.59v.09q0,4,0,7.95V365.4q0,4,0,8v.08a2.48,2.48,0,0,0,1.36,2.6,3.22,3.22,0,0,1,1.69,2.91,4,4,0,0,1-.17,1.13,3.59,3.59,0,0,1-3.41,2.48,3.41,3.41,0,0,1-3.34-2.35,3.65,3.65,0,0,1-.24-1.3Z"/><path class="cls-21" d="M187,378.9a3.17,3.17,0,0,1,1.59-2.78,2.74,2.74,0,0,0,1.44-2.78c0-5.15,0-10.6,0-17.7v-26c0-7.09,0-12.54,0-17.66h0a2.76,2.76,0,0,0-1.44-2.81,3.15,3.15,0,0,1-1.59-2.79,3.64,3.64,0,0,1,.24-1.29,3.41,3.41,0,0,1,3.34-2.35,3.57,3.57,0,0,1,3.41,2.47,4.09,4.09,0,0,1,.17,1.14,3.24,3.24,0,0,1-1.69,2.91,2.48,2.48,0,0,0-1.36,2.59v.09q0,4,0,7.95V365.4q0,4,0,8v.08a2.48,2.48,0,0,0,1.36,2.6,3.22,3.22,0,0,1,1.69,2.91,4,4,0,0,1-.17,1.13,3.58,3.58,0,0,1-3.41,2.48,3.41,3.41,0,0,1-3.34-2.35,3.65,3.65,0,0,1-.24-1.3Z"/><path class="cls-22" d="M243.09,622.92a3,3,0,0,1,1.42-2.63,3.23,3.23,0,0,0,1.65-3.23v-.25c0-1.07,0-2.13,0-3.2,0-1.39,0-2.78,0-4.17,0-.73,0-2.18,0-2.18a2,2,0,0,0,0-.25v-.23h0c0-.63.14-.74.46-.76a.58.58,0,0,1,.45.1c.2.19.2.69.21,1.09v7.63c0,.46,0,.92,0,1.39v.5a3.87,3.87,0,0,0,1.85,3.81,2.64,2.64,0,0,1,1.21,2.32,3.85,3.85,0,0,1-1.22,2.76,3.54,3.54,0,0,1-5.08-.23A3.74,3.74,0,0,1,243.09,622.92Z"/><path class="cls-23" d="M47.89,223.56a4.19,4.19,0,0,0-1.36,3.31c0,29,0,58.55,0,87.09v14q0,6.78,0,13.55v10q0,6.78,0,13.55v14c0,28.55,0,58.06,0,87.09a4.19,4.19,0,0,0,1.36,3.32c1.66,1.62,3.33,3.29,4.94,4.91s3.23,3.23,4.87,4.83A3.55,3.55,0,0,1,58.83,482q0,22.05,0,44.09v7.71c0,12.92,0,25.65,0,37.94a3.79,3.79,0,0,1-1.25,3l-1.69,1.68L50.23,582,48,584.32l-2.23,2.24-.84.84-.88.88-.51.51-.33.33h0l-1.77,1.77-1,1-.48.47-1,1-.79.79-.07.07a2.9,2.9,0,0,0-.94,1.38,1.59,1.59,0,0,0-.07.5,2.74,2.74,0,0,0,.06.56,4.07,4.07,0,0,1,.09.84,3.38,3.38,0,0,1-2.09,3.15,3.14,3.14,0,0,1-.83.24A3.57,3.57,0,0,1,31,599.7l-.07-.08h0a3.49,3.49,0,0,1-.82-2.23,3.52,3.52,0,0,1,.45-1.68.75.75,0,0,1,.1-.2,3.36,3.36,0,0,1,4.05-1.5,2.26,2.26,0,0,0,2.75-.75l5.79-5.81h0l.77-.77h0c3.92-3.94,7.47-7.48,10.83-10.83l1.74-1.72a3.45,3.45,0,0,0,1.11-2.67q0-19.12,0-38.21v-6.61q0-22.1,0-44.18a3.63,3.63,0,0,0-1.22-2.81c-1.34-1.31-2.68-2.66-4-4-1.81-1.82-3.69-3.71-5.58-5.51a4.69,4.69,0,0,1-1.58-3.73c0-12.75,0-25.5,0-36.3V262.92c0-10.8,0-23.56,0-36.28A4.69,4.69,0,0,1,47,222.89c1.89-1.81,3.77-3.7,5.58-5.52,1.3-1.31,2.63-2.65,4-4a3.63,3.63,0,0,0,1.22-2.81q0-22.09,0-44.18,0-22.41,0-44.82a3.45,3.45,0,0,0-1.11-2.67c-5-5-10.46-10.42-16.93-16.93h1.57c.74.73,1.46,1.46,2.19,2.19,4.63,4.63,9.41,9.42,14.14,14.11a3.79,3.79,0,0,1,1.25,3c0,14.73,0,30.09,0,45.66q0,22,0,44.08a3.57,3.57,0,0,1-1.13,2.83c-1.64,1.59-3.28,3.24-4.87,4.83S49.55,221.94,47.89,223.56Z"/><path class="cls-24" d="M17.29,580A3.51,3.51,0,0,1,22,576.75a2,2,0,0,0,2.27-.6c2.31-2.37,4.71-4.81,7.16-7.15a4.16,4.16,0,0,0,1.38-3.3q0-17.54,0-35.05c0-13.75,0-28.19,0-42.9a3.63,3.63,0,0,0-1.18-2.83c-1.46-1.42-2.92-2.89-4.34-4.31-1.78-1.78-3.63-3.63-5.48-5.42a4.11,4.11,0,0,1-1.37-3.28c0-13.61,0-27.08,0-38.46V387.53q0-20.5,0-41c0-13.67,0-61.82,0-61.82V259.58c0-11.38,0-24.85,0-38.45a4.14,4.14,0,0,1,1.37-3.3c1.85-1.78,3.7-3.63,5.48-5.42,1.42-1.42,2.88-2.88,4.34-4.3a3.65,3.65,0,0,0,1.18-2.83c0-14.72,0-29.15,0-42.91q0-17.51,0-35A4.16,4.16,0,0,0,31.47,124c-2.46-2.35-4.85-4.79-7.16-7.15a2,2,0,0,0-2.27-.6A3.51,3.51,0,0,1,17.29,113a3.62,3.62,0,0,1,.89-2.38,3.57,3.57,0,0,1,4.13-.89,3.31,3.31,0,0,1,2.06,3.13,4.53,4.53,0,0,1-.09.88,2.72,2.72,0,0,0-.07.61,2.36,2.36,0,0,0,.88,1.77c1.12,1.1,2.22,2.21,3.33,3.32,1.47,1.48,3,3,4.51,4.49a2.94,2.94,0,0,1,1,2.31q0,18.35,0,36.68c0,14.41,0,29,0,43.29a2.81,2.81,0,0,1-1,2.14L29,212.27c-2,2-4.07,4.08-6.12,6.09a3.84,3.84,0,0,0-1.27,3c0,30.66,0,61.83,0,92v7.78q0,11.12,0,22.22a1,1,0,0,1,0,.17v6.07a.76.76,0,0,1,0,.15q0,11.13,0,22.24v7.78c0,30.14,0,61.3,0,92a3.84,3.84,0,0,0,1.27,3c2.05,2,4.12,4.09,6.12,6.1L33,484.68a2.81,2.81,0,0,1,1,2.14c0,14.32,0,28.89,0,43.3q0,18.33,0,36.67a3,3,0,0,1-1,2.32c-1.52,1.48-3,3-4.51,4.48-1.11,1.11-2.21,2.22-3.33,3.32a2.38,2.38,0,0,0-.88,1.77,2.72,2.72,0,0,0,.07.61,4.56,4.56,0,0,1,.09.89,3.33,3.33,0,0,1-2.06,3.13,3.57,3.57,0,0,1-4.13-.89A3.62,3.62,0,0,1,17.29,580Z"/><path class="cls-25" d="M11.56,165A3.5,3.5,0,0,0,8,162.78a3.59,3.59,0,0,0-3.25,2.72,3.63,3.63,0,0,0-.1.87,3.19,3.19,0,0,0,1.76,2.95A2.54,2.54,0,0,1,8,172v0c0,5.07,0,9.68,0,14.09,0,4.84,0,9.34,0,13.77a4,4,0,0,1-1.33,3.11c-1.36,1.33-2.73,2.71-4,4L0,209.68v1.54c.74-.73,1.47-1.47,2.19-2.2,1.74-1.75,3.54-3.57,5.37-5.3A4.59,4.59,0,0,0,9.08,200V200c0-5.5,0-11.1,0-16.51,0-3.83,0-7.67,0-11.54a3,3,0,0,1,1.4-2.83,3,3,0,0,0,1.39-2.57A4.92,4.92,0,0,0,11.56,165Zm-.55,1.3a2.75,2.75,0,0,1-2.79,2.78,2.82,2.82,0,0,1-2.81-2.81,2.9,2.9,0,0,1,2.84-2.8A2.76,2.76,0,0,1,11,166.32ZM10.42,524a3,3,0,0,1-1.14-1.27A4,4,0,0,1,9,521.09c0-3.84,0-7.67,0-11.51,0-3.36,0-6.79,0-10.22,0-2.1,0-4.19,0-6.28V493a4.62,4.62,0,0,0-1.52-3.71c-1.83-1.73-3.63-3.54-5.37-5.3L0,481.8v1.55l2.58,2.58c1.32,1.34,2.69,2.71,4.05,4A4,4,0,0,1,8,493.12c0,1.74,0,3.5,0,5.29,0,2.73,0,5.52,0,8.45,0,4.4,0,9,0,14.08v0a2.55,2.55,0,0,1-1.54,2.73,3.19,3.19,0,0,0-1.76,2.95,3.63,3.63,0,0,0,.1.87A3.59,3.59,0,0,0,8,530.25,3.52,3.52,0,0,0,11.56,528a4.92,4.92,0,0,0,.25-1.46A3,3,0,0,0,10.42,524Zm.59,2.76a2.76,2.76,0,0,1-2.76,2.81,2.91,2.91,0,0,1-2.84-2.82,2.81,2.81,0,0,1,2.81-2.79A2.75,2.75,0,0,1,11,526.69Z"/><path class="cls-26" d="M138.5,534.7a3.06,3.06,0,0,1,1.42-2.62c1.5-1,1.61-2.09,1.61-3.48q0-31.59,0-63.14v-39.6q0-39.64,0-79.31v-.1a1.47,1.47,0,0,1-.06-.46c0-.2,0-.41,0-.62a4.12,4.12,0,0,0,0-.48v-4.5a4.32,4.32,0,0,0,0-.5c0-.2,0-.42,0-.61a1.47,1.47,0,0,1,.06-.46v-.11q0-39.65,0-79.31V219.8q0-31.56,0-63.12c0-1.4-.11-2.54-1.61-3.5a3,3,0,0,1-1.42-2.61,3.72,3.72,0,0,1,1-2.5,3.57,3.57,0,0,1,5.22,0,3.6,3.6,0,0,1,1,2.47,3.18,3.18,0,0,1-1.52,2.77,3.06,3.06,0,0,0-1.53,3c0,45.67,0,92.11,0,137v24.83q0,10.26,0,20.53v.06l0,.06a1.33,1.33,0,0,1,.06.44c0,.21,0,.44-.05.66s0,.25,0,.37V345c0,.14,0,.27,0,.4s.05.45.05.65a1.29,1.29,0,0,1-.06.44l0,.06v.06q0,10.27,0,20.54V392c0,44.91,0,91.34,0,137a3,3,0,0,0,1.53,3,3.21,3.21,0,0,1,1.52,2.77,3.62,3.62,0,0,1-1,2.48,3.57,3.57,0,0,1-5.22,0A3.72,3.72,0,0,1,138.5,534.7Z"/><path class="cls-27" d="M94,595.27a3,3,0,0,0-1.31-1.43,2.52,2.52,0,0,1-1.22-1.28,4,4,0,0,1-.22-1.57V573.47c0-6,0-12.39.06-19v-.08a5.36,5.36,0,0,0-1.86-4.3c-.85-.8-1.68-1.61-2.51-2.43L84.26,545c-1.28-1.29-2.61-2.64-3.94-3.93A4,4,0,0,1,79,537.9c0-12,0-24.06,0-34.24V482.45c0-.55,0-1.1,0-1.65s-.37-.68-.49-.68a.49.49,0,0,0-.4.11.83.83,0,0,0-.18.62c0,.61,0,1.23,0,1.84v41.48c0,5.8,0,10.22,0,14.34v0a3.72,3.72,0,0,0,1.2,2.94c1.71,1.65,3.41,3.35,5.06,5l.48.48c1.44,1.44,2.92,2.93,4.4,4.38a3.43,3.43,0,0,1,1.1,2.67q0,9.71,0,19.41c0,5.94,0,11.87,0,17.82a2.5,2.5,0,0,1-.73,2.07,3.42,3.42,0,0,1-.61.43,3.24,3.24,0,0,0-1.7,2.9,3.72,3.72,0,0,0,.18,1.14,3.55,3.55,0,0,0,3.42,2.48,3.42,3.42,0,0,0,3.34-2.37,3.58,3.58,0,0,0,.24-1.28A3.22,3.22,0,0,0,94,595.27Zm-3,4.23a2.82,2.82,0,0,1-3.1-2.48c0-.1,0-.2,0-.3a2.88,2.88,0,0,1,2.53-2.79,2.3,2.3,0,0,1,.37,0,2.73,2.73,0,0,1,1.67.62l.17.15a2.73,2.73,0,0,1,.85,1.75,2.83,2.83,0,0,1,0,.29A2.74,2.74,0,0,1,91,599.5Z"/><path class="cls-28" d="M167,476.84a.92.92,0,0,1,.15-.61.71.71,0,0,1,.47-.13c.46,0,.6.16.6.68,0,.18,0,.39,0,.59s0,.4,0,.59c0,6.19,0,11.78,0,17.08,0,5.82,0,11.21,0,16.46a4.23,4.23,0,0,0,1.36,3.33c1.58,1.53,3.16,3.11,4.68,4.65s3.31,3.32,5,4.95a3.94,3.94,0,0,1,1.29,3.12c0,6.51,0,13.1,0,19.48q0,8.61,0,17.22v0a3.47,3.47,0,0,0,1.65,3.43,3,3,0,0,1,1.38,2.62,3.72,3.72,0,0,1-1.11,2.63,3.5,3.5,0,0,1-2.64,1,3.62,3.62,0,0,1-2.57-1.28,3.71,3.71,0,0,1-.88-2.38h0a3.1,3.1,0,0,1,1.53-2.73,2.88,2.88,0,0,0,1.51-3q0-9.06,0-18.07c0-6.72,0-12.75,0-18.44h0a4.41,4.41,0,0,0-1.48-3.46c-1.52-1.48-3-3-4.5-4.48s-3.26-3.27-4.92-4.87a4,4,0,0,1-1.39-3.18v-.1c0-2.2,0-4.61,0-7.6v-4.64c0-1.51,0-3,0-4.53v-8.57c0-3.53,0-6.23,0-8.75h0a5.25,5.25,0,0,0,0-.56C167,477.21,167,477,167,476.84Z"/><path class="cls-29" d="M138.46,609.28a3.1,3.1,0,0,1,1.55-2.77,2.79,2.79,0,0,0,1.46-2.81c0-4.93,0-9.83,0-14.74,0-6.35,0-12.91,0-19.37a3.94,3.94,0,0,1,1.26-3.14c1.75-1.68,3.49-3.43,5.18-5.12,1.47-1.48,3-3,4.5-4.48a4,4,0,0,0,1.32-3.12v0c0-3,0-6.27,0-10.2,0-2.72,0-5.45,0-8.18V531.2c0-.79.16-.93.59-.93a.59.59,0,0,1,.42.11,1,1,0,0,1,.14.63,2.62,2.62,0,0,1,0,.28v.28c0,2,0,4.06,0,6.08v5.87c0,1,0,2,0,2.92s0,1.95,0,2.93c0,1.69,0,3.07.06,4.34V554a4.48,4.48,0,0,1-1.52,3.54c-1.87,1.78-3.72,3.64-5.51,5.44-1.32,1.33-2.68,2.7-4,4a3.82,3.82,0,0,0-1.25,3c0,5.3,0,10.9,0,17.13q0,8.4,0,16.8a2.41,2.41,0,0,0,1.34,2.51,3.19,3.19,0,0,1,1.73,2.92,4.25,4.25,0,0,1-.16,1.11,3.57,3.57,0,0,1-6.81,0A3.85,3.85,0,0,1,138.46,609.28Z"/><path class="cls-30" d="M75,626.72A3,3,0,0,1,76.52,624a2.85,2.85,0,0,0,1.5-3v0c0-6.19,0-12.31,0-17.47V576.25c0-4.82,0-11.17,0-17.55h0c0-.23,0-.46,0-.72a6.32,6.32,0,0,1-.06-.74c0-.64.22-.77.63-.78a.75.75,0,0,1,.53.13.81.81,0,0,1,.15.57,4.86,4.86,0,0,1-.07.74,6,6,0,0,0-.06.7c0,11,0,22.49,0,35.13q0,13.66,0,27.34a2.72,2.72,0,0,0,1.44,2.84,3.12,3.12,0,0,1,1.62,2.81A3.62,3.62,0,0,1,82,628a3.38,3.38,0,0,1-3.31,2.4,3.51,3.51,0,0,1-3.44-2.44A3.61,3.61,0,0,1,75,626.72Z"/><path class="cls-31" d="M181.93,638.62a2.48,2.48,0,0,1-1.17-1.23,3.71,3.71,0,0,1-.22-1.45v-1.65q0-5.74,0-11.49v-6.2c0-3.55,0-7.14,0-10.71,0-.61,0-1.23,0-1.84a4.13,4.13,0,0,0-1.35-3.28c-1.86-1.8-3.71-3.66-5.5-5.46-1.4-1.41-2.85-2.87-4.29-4.28a3.66,3.66,0,0,1-1.18-2.79v0c0-1.73,0-3.6,0-5.87,0-1.4,0-2.81,0-4.21,0-1.18,0-2.36,0-3.57V574c0-.23,0-.46,0-.69,0-.74-.19-.88-.49-.91a.58.58,0,0,0-.43.11,1.13,1.13,0,0,0-.22.78c0,1.27,0,2.55,0,3.82v4.46l0,.34c0,.6,0,1.19,0,1.78s0,1.42,0,2.13c0,1.22,0,2.21,0,3.12v.1a3,3,0,0,0,1,2.24c1.79,1.76,3.6,3.57,5.34,5.32l5,4.95a3.23,3.23,0,0,1,1.06,2.5c0,.73,0,1.46,0,2.19,0,3.35,0,6.78,0,10.26v3.88c0,4.5,0,9,0,13.51v2a2.54,2.54,0,0,1-1.4,2.64,3.12,3.12,0,0,0-1.67,2.82,3.93,3.93,0,0,0,.2,1.21,3.55,3.55,0,0,0,6.78-.07,3.83,3.83,0,0,0,.18-1.15A3.08,3.08,0,0,0,181.93,638.62Zm-2,5.66a2.78,2.78,0,0,1-2-.81,2.73,2.73,0,0,1-.8-2,2.86,2.86,0,0,1,2.8-2.82,2.9,2.9,0,0,1,2,.84,2.84,2.84,0,0,1,.84,2A2.8,2.8,0,0,1,179.94,644.28Z"/><path class="cls-32" d="M58.76,605.17c0-1,0-2,0-3v-7.44c0-.33,0-.66,0-1,0-.64,0-1.29,0-1.94v-.57c0-.13,0-.26,0-.4v0c0-.12,0-.26,0-.38,0-.54-.12-.7-.56-.71a.58.58,0,0,0-.44.11c-.1.09-.14.28-.14.58,0,.13,0,.26,0,.39a2.81,2.81,0,0,1,0,.29.34.34,0,0,1,0,.1v5.37c0,.58,0,1.15,0,1.72V602c0,3.8,0,7.12,0,10.15v0a4,4,0,0,1-.45,2,4.6,4.6,0,0,1-.77,1c-1.73,1.69-3.47,3.43-5.15,5.11s-3.17,3.19-4.78,4.76a3.12,3.12,0,0,0-1,2.44v0c0,2.73,0,5.5,0,7.85v4.54c0,.86,0,1.73,0,2.59s0,1.56,0,2.34v.07a2.15,2.15,0,0,1-1.39,2.38,3.16,3.16,0,0,0-1.78,1.77,3,3,0,0,0-.25,1.23,3.83,3.83,0,0,0,.14,1A3.32,3.32,0,0,0,45.34,654,3.44,3.44,0,0,0,49,651.84a3.63,3.63,0,0,0,.26-1,2.29,2.29,0,0,0,.05-.52,3.38,3.38,0,0,0-1.57-2.81,2.42,2.42,0,0,1-1.1-2.27c0-.79,0-1.56,0-2.35h0c0-2.1,0-4.2,0-6.3,0-3.09,0-5.86,0-8.47v0a3.4,3.4,0,0,1,1.13-2.62c1.57-1.55,3.16-3.15,4.7-4.69,1.74-1.75,3.55-3.57,5.35-5.33a4.51,4.51,0,0,0,.42-.48,3,3,0,0,0,.6-1.93V613c0-1.4,0-2.93,0-4.83ZM48.49,650.44v0a1.93,1.93,0,0,1,0,.24,2.8,2.8,0,1,1,0-.26Z"/><path class="cls-33" d="M154.15,622.78a2.62,2.62,0,0,1,1.21-2.31,3.89,3.89,0,0,0,1.85-3.82v-.48c0-.49,0-.95,0-1.41v-2.65s0-4.19,0-5c0-.43,0-.93.2-1.12a.63.63,0,0,1,.45-.1c.32,0,.46.14.46.76v.23a1.93,1.93,0,0,0,0,.24c0,.74,0,1.46,0,2.18,0,1.39,0,2.78,0,4.17,0,1.18,0,2.23,0,3.21V617a3.23,3.23,0,0,0,1.65,3.23,3,3,0,0,1,1.42,2.64,3.74,3.74,0,0,1-.94,2.46,3.48,3.48,0,0,1-2.5,1.19,3.52,3.52,0,0,1-2.58-1,3.85,3.85,0,0,1-1.22-2.76Z"/><path class="cls-34" d="M397.64,593.58a3.46,3.46,0,0,1-.89,2.32,3.57,3.57,0,0,1-4.12.93,3.38,3.38,0,0,1-2.1-3.14,4,4,0,0,1,.1-.84,2.81,2.81,0,0,0,.06-.56,2.58,2.58,0,0,0-1-1.89l-.07-.07L384.23,585l0,0c-4.2-4.22-8.55-8.57-12.86-12.84l-1.15-1.14a3.81,3.81,0,0,1-1.25-3c0-12.5,0-25.46,0-38.62v-7.14q0-22,0-44a3.57,3.57,0,0,1,1.13-2.83c1.64-1.59,3.28-3.23,4.87-4.83s3.28-3.29,4.94-4.9a4.22,4.22,0,0,0,1.36-3.31c0-29.46,0-59.41,0-88.37V361.23q0-6.84,0-13.67v-9.85q0-6.84,0-13.68V311.28c0-29,0-58.91,0-88.36a4.21,4.21,0,0,0-1.36-3.32c-1.66-1.62-3.33-3.29-4.94-4.91s-3.23-3.23-4.87-4.83a3.55,3.55,0,0,1-1.13-2.82q0-22,0-44c0-15.62,0-31,0-45.76a3.79,3.79,0,0,1,1.25-3c4.13-4.09,8.3-8.27,12.37-12.34h1.6c-4.82,4.83-9,9-13,13a3.45,3.45,0,0,0-1.11,2.67q0,22.33,0,44.68,0,22.16,0,44.32a3.63,3.63,0,0,0,1.22,2.81c1.33,1.31,2.67,2.66,4,4,1.81,1.83,3.69,3.71,5.58,5.52a4.69,4.69,0,0,1,1.58,3.73c0,12.72,0,25.5,0,36.33V426.28c0,10.83,0,23.61,0,36.3a4.72,4.72,0,0,1-1.58,3.76c-1.89,1.8-3.77,3.69-5.58,5.51-1.3,1.31-2.64,2.66-4,4a3.59,3.59,0,0,0-1.22,2.8q0,22.17,0,44.33v5.75q0,19.45,0,38.92a3.46,3.46,0,0,0,1.11,2.68l1.16,1.15h0c4,4,8.29,8.27,13.19,13.19l4.79,4.81a2.29,2.29,0,0,0,2.75.75,3.34,3.34,0,0,1,4,1.5A3.57,3.57,0,0,1,397.64,593.58Z"/><path class="cls-35" d="M389.24,483a2.8,2.8,0,0,1,1-2.14l3.92-3.92c2-2,4.07-4.08,6.13-6.1a3.86,3.86,0,0,0,1.26-3c0-30.66,0-61.83,0-92v-7.79q0-11.19,0-22.37v-6.24q0-11.2,0-22.38v-7.79c0-30.14,0-61.3,0-92a3.86,3.86,0,0,0-1.26-3c-2.06-2-4.13-4.09-6.12-6.1-1.31-1.31-2.61-2.62-3.93-3.92a2.8,2.8,0,0,1-1-2.14c0-14.24,0-28.77,0-43.19q0-18.39,0-36.78a2.94,2.94,0,0,1,1-2.32c1.52-1.49,3-3,4.52-4.5,1.1-1.1,2.2-2.21,3.31-3.3a2.35,2.35,0,0,0,.88-1.78,3.29,3.29,0,0,0-.06-.6,4,4,0,0,1-.1-.89,3.33,3.33,0,0,1,2.06-3.13,3.56,3.56,0,0,1,5,3.28,3.49,3.49,0,0,1-4.74,3.28,1.94,1.94,0,0,0-2.27.61c-2.32,2.36-4.72,4.81-7.17,7.14a4.2,4.2,0,0,0-1.37,3.31q0,17.58,0,35.17c0,13.7,0,28.09,0,42.77a3.64,3.64,0,0,0,1.19,2.83c1.45,1.42,2.92,2.89,4.34,4.31,1.78,1.79,3.63,3.63,5.48,5.42a4.14,4.14,0,0,1,1.37,3.28c0,13.65,0,27.25,0,38.75V429.35c0,11.51,0,25.11,0,38.75a4.15,4.15,0,0,1-1.37,3.29c-1.85,1.78-3.7,3.63-5.48,5.42l-4.34,4.31a3.62,3.62,0,0,0-1.19,2.82c0,14.69,0,29.08,0,42.78q0,17.58,0,35.16a4.17,4.17,0,0,0,1.37,3.31c2.45,2.33,4.85,4.78,7.17,7.15a1.94,1.94,0,0,0,2.27.61,3.45,3.45,0,0,1,4.23,1.46,3.38,3.38,0,0,1,.51,1.82,3.56,3.56,0,0,1-5,3.28,3.33,3.33,0,0,1-2.06-3.13,3.92,3.92,0,0,1,.1-.89,3.4,3.4,0,0,0,.06-.61,2.33,2.33,0,0,0-.88-1.77c-1.11-1.09-2.2-2.2-3.3-3.3-1.48-1.48-3-3-4.53-4.5a2.94,2.94,0,0,1-1-2.31q0-18.4,0-36.79c0-14.42,0-29,0-43.18Z"/><path class="cls-36" d="M412.44,485.5a4.6,4.6,0,0,0-1.52,3.7v.07c0,3.35,0,6.74,0,10.09q0,3.24,0,6.42c0,3.84,0,7.67,0,11.54a3,3,0,0,1-1.4,2.83,3,3,0,0,0-1.39,2.58,4.91,4.91,0,0,0,.25,1.45,3.5,3.5,0,0,0,3.55,2.26,3.59,3.59,0,0,0,3.25-2.71,3.71,3.71,0,0,0,.1-.88,3.22,3.22,0,0,0-1.76-3,2.53,2.53,0,0,1-1.54-2.72v0c0-5.09,0-9.7,0-14.08,0-1.59,0-3.13,0-4.65,0-3.13,0-6.14,0-9.12a4,4,0,0,1,1.33-3.12c1.36-1.33,2.73-2.71,4.05-4l2.58-2.58V478l-2.19,2.2C416.06,482,414.26,483.77,412.44,485.5Zm2.15,37.39v0a2.91,2.91,0,0,1-2.84,2.81,2.81,2.81,0,0,1,0-5.62A2.81,2.81,0,0,1,414.59,522.89Zm2.83-319.76c-1.32-1.33-2.69-2.7-4.05-4A4,4,0,0,1,412,196c0-4.39,0-8.89,0-13.74,0-4.39,0-9,0-14.08v0a2.55,2.55,0,0,1,1.54-2.73,3.19,3.19,0,0,0,1.76-3,3.63,3.63,0,0,0-.1-.87,3.59,3.59,0,0,0-3.25-2.72,3.5,3.5,0,0,0-3.55,2.26,4.92,4.92,0,0,0-.25,1.46,3,3,0,0,0,1.39,2.58,2.93,2.93,0,0,1,1.14,1.27A4,4,0,0,1,411,168c0,3.84,0,7.67,0,11.51,0,5.41,0,11,0,16.5v.07a4.62,4.62,0,0,0,1.52,3.71c1.83,1.73,3.63,3.54,5.37,5.3l2.19,2.2v-1.55Zm-7.62-38.77a2.83,2.83,0,0,1,1.95-4.81,2.9,2.9,0,0,1,2.84,2.8v0a2.81,2.81,0,0,1-2.81,2.79A2.74,2.74,0,0,1,409.8,164.36Z"/><path class="cls-37" d="M277.47,534.81A3.22,3.22,0,0,1,279,532a3,3,0,0,0,1.54-3c0-42.51,0-84.63,0-127.65V366.88q0-10.17,0-20.35v-.06l0-.06a1.33,1.33,0,0,1-.06-.44c0-.21,0-.44,0-.66s0-.26,0-.38v-4.57c0-.14,0-.27,0-.4s0-.45,0-.66a1.29,1.29,0,0,1,.06-.44l0-.06v-.06q0-10.19,0-20.36V283.84c0-43,0-85.14,0-127.64a3,3,0,0,0-1.54-3,3.22,3.22,0,0,1-1.51-2.77,3.66,3.66,0,0,1,1-2.48,3.57,3.57,0,0,1,5.22,0,3.67,3.67,0,0,1,1,2.5,3,3,0,0,1-1.41,2.62c-1.5,1-1.62,2.09-1.62,3.48q0,31.57,0,63.11v38.23q0,40.44,0,80.86v0l0,.05a1.89,1.89,0,0,1,0,.46c0,.2,0,.41,0,.62s0,.34,0,.49v4.34l0,.5c0,.2,0,.42,0,.61a1.78,1.78,0,0,1,0,.46l0,.05v.06q0,40.42,0,80.85v38.24q0,31.55,0,63.09c0,1.4.12,2.54,1.62,3.5a3,3,0,0,1,1.41,2.62,3.65,3.65,0,0,1-1,2.49,3.52,3.52,0,0,1-2.61,1.15,3.57,3.57,0,0,1-2.61-1.13A3.68,3.68,0,0,1,277.47,534.81Z"/><path class="cls-38" d="M338,147.58c-1.87-1.81-3.74-3.68-5.55-5.5-1.43-1.43-2.91-2.92-4.39-4.37A3.43,3.43,0,0,1,327,135q0-9.7,0-19.41,0-6.81,0-13.63h-1.1v13.6c0,6,0,12.39-.06,19v.08a5.36,5.36,0,0,0,1.86,4.3c1.78,1.68,3.52,3.44,5.22,5.15,1.28,1.3,2.61,2.64,3.94,3.93a4,4,0,0,1,1.28,3.16c0,12.07,0,24.06,0,34.19v21.26c0,.55,0,1.1,0,1.65s.37.68.49.68a.49.49,0,0,0,.4-.11.83.83,0,0,0,.18-.62c0-.61,0-1.23,0-1.84V165c0-3.93,0-9.13,0-14.43v0A3.72,3.72,0,0,0,338,147.58Z"/><path class="cls-39" d="M221.41,114.84a3.76,3.76,0,0,1,1.11-2.63,3.52,3.52,0,0,1,2.65-1,3.6,3.6,0,0,1,2.56,1.28,3.71,3.71,0,0,1,.88,2.38,3.1,3.1,0,0,1-1.53,2.73,2.88,2.88,0,0,0-1.51,3q0,9,0,18c0,6.73,0,12.77,0,18.48a4.41,4.41,0,0,0,1.48,3.46c1.51,1.47,3,3,4.49,4.47s3.26,3.28,4.92,4.88a4,4,0,0,1,1.39,3.18v.1c0,2.21-.05,4.63-.05,7.61,0,1.56,0,3.11,0,4.67s0,3,0,4.49v8.53c0,3.54,0,6.26,0,8.79h0a5.25,5.25,0,0,0,0,.56,5.4,5.4,0,0,1,0,.56.92.92,0,0,1-.15.61.71.71,0,0,1-.47.13c-.46,0-.6-.16-.6-.67,0-.19,0-.4,0-.6a4.15,4.15,0,0,0,.05-.59c0-6.22,0-11.82,0-17.12,0-5.81,0-11.19,0-16.42h0a4.23,4.23,0,0,0-1.35-3.33c-1.58-1.53-3.16-3.12-4.69-4.65s-3.31-3.32-5-5a3.93,3.93,0,0,1-1.28-3.12c0-6.51,0-13.1,0-19.48q0-8.61,0-17.22v0a3.48,3.48,0,0,0-1.65-3.43,3,3,0,0,1-1.39-2.62Z"/><path class="cls-40" d="M269.05,115.6a3.91,3.91,0,0,1-1.26,3.14c-1.74,1.68-3.48,3.43-5.17,5.12-1.47,1.48-3,3-4.5,4.48a4,4,0,0,0-1.32,3.12v0c0,3,0,6.25,0,10.16,0,2.7,0,5.39,0,8.08V154c0,.79-.15.93-.59.93a.56.56,0,0,1-.41-.11,1,1,0,0,1-.14-.63v-.28c0-.1,0-.19,0-.28q0-3.09,0-6.15v-5.8c0-1,0-1.95,0-2.93s0-2,0-2.93c0-1.69,0-3.06-.06-4.33v-.24a4.48,4.48,0,0,1,1.52-3.54c1.87-1.78,3.72-3.64,5.51-5.44,1.32-1.33,2.68-2.7,4-4a3.82,3.82,0,0,0,1.24-3c0-4.18,0-8.54,0-13.26H269C269,106.51,269,111.09,269.05,115.6Z"/><path class="cls-41" d="M343.86,131.83c0,.64-.23.77-.64.78a.71.71,0,0,1-.52-.13.76.76,0,0,1-.16-.57,6.58,6.58,0,0,1,.07-.74,6,6,0,0,0,.06-.7c0-9,0-18.39,0-28.47h1.13v10.88c0,4.81,0,11.14,0,17.49a6.54,6.54,0,0,0,.06.72A6.32,6.32,0,0,1,343.86,131.83Z"/><path class="cls-42" d="M237.72,102h-1.17v5.08c0,1.18,0,2.36,0,3.54v.57c0,.24,0,.47,0,.7,0,.74.19.88.5.91a.57.57,0,0,0,.42-.11,1.08,1.08,0,0,0,.22-.78c0-1.28,0-2.57,0-3.85v-4.77C237.73,102.86,237.73,102.43,237.72,102Z"/><path class="cls-43" d="M216.92,300.9a2.89,2.89,0,0,0-1-2.24c-1.78-1.76-3.58-3.56-5.32-5.31s-3.31-3.31-5-5a3.24,3.24,0,0,1-1-2.51c0-5.29,0-10.82,0-16.41,0-5.15,0-10.29,0-15.47a2.55,2.55,0,0,1,1.41-2.64,3.11,3.11,0,0,0,1.67-2.82,3.93,3.93,0,0,0-.2-1.21,3.55,3.55,0,0,0-6.78.07,3.83,3.83,0,0,0-.18,1.15,3.06,3.06,0,0,0,1.58,2.75,2.52,2.52,0,0,1,1.18,1.24,3.87,3.87,0,0,1,.21,1.45q0,6.57,0,13.13c0,6.14,0,12.48,0,18.76a4.12,4.12,0,0,0,1.34,3.27c1.86,1.8,3.72,3.67,5.51,5.47,1.4,1.41,2.85,2.86,4.28,4.27a3.67,3.67,0,0,1,1.19,2.79v.06c0,1.72,0,3.59,0,5.87,0,1.4,0,2.8,0,4.2v16.24c0,5.35,0,11.13,0,14.58s0,9.23,0,14.59v16.24c0,1.4,0,2.8,0,4.2,0,2.28,0,4.14,0,5.87v.05a3.64,3.64,0,0,1-1.19,2.79c-1.43,1.41-2.88,2.87-4.28,4.27-1.79,1.81-3.65,3.67-5.51,5.47a4.18,4.18,0,0,0-1.34,3.31c0,6.24,0,12.59,0,18.73q0,6.56,0,13.15a2.6,2.6,0,0,1-1.39,2.66,3.07,3.07,0,0,0-1.58,2.75,3.78,3.78,0,0,0,.18,1.15,3.54,3.54,0,0,0,6.78.08,4,4,0,0,0,.2-1.21,3.11,3.11,0,0,0-1.67-2.82,2.47,2.47,0,0,1-1.19-1.22,3.68,3.68,0,0,1-.22-1.45q0-7.73,0-15.44c0-5.6,0-11.12,0-16.43a3.21,3.21,0,0,1,1-2.49c1.67-1.65,3.35-3.34,5-5s3.54-3.54,5.32-5.3a2.89,2.89,0,0,0,1-2.24v-.1c0-.91,0-1.9,0-3.12,0-.71,0-1.42,0-2.12v-1.78h0s0-14.16,0-20.72c0-5.42,0-10.65,0-13.9s0-8.48,0-13.89c0-6.56,0-20.37,0-20.37v-2.13c0-.71,0-1.42,0-2.13,0-1.21,0-2.2,0-3.12Zm-14.83-50.51a2.8,2.8,0,0,1,4-3.94,2.77,2.77,0,0,1,.81,2,2.85,2.85,0,0,1-2.81,2.81A2.8,2.8,0,0,1,202.09,250.39Zm4.8,186.46a2.77,2.77,0,0,1-2.82,2.77,2.75,2.75,0,0,1-2-4.74,2.79,2.79,0,0,1,4.8,2Z"/><path class="cls-44" d="M76.61,350a6.49,6.49,0,0,1,.06-.75q0-.27.06-.51v-4.33l-.06-.54a6.5,6.5,0,0,1-.06-.74,1,1,0,0,1,.08-.48l0-.07v-.08c0-10.61,0-21,0-30.73V274.35c0-9.23,0-20.17,0-31.27A4,4,0,0,1,78,240c4-3.95,8-8,11.93-11.9L100,218a4.27,4.27,0,0,0,1.4-3.27v0c0-4.18,0-8.56,0-13.38q0-6.57,0-13.16v0a2.72,2.72,0,0,0-1.45-2.79,3.14,3.14,0,0,1-1.62-2.81,3.6,3.6,0,0,1,.23-1.26,3.44,3.44,0,0,1,3.35-2.38,3.54,3.54,0,0,1,3.42,2.48,3.72,3.72,0,0,1,.18,1.14,3.09,3.09,0,0,1-1.55,2.79,2.81,2.81,0,0,0-1.48,2.93v.08c0,3.79,0,7.57,0,11.36,0,5.09,0,10.36,0,15.55v0a4,4,0,0,1-1.27,3.1c-3.72,3.68-7.48,7.45-11.12,11.09s-7.28,7.27-10.93,10.89a4.42,4.42,0,0,0-1.42,3.47c0,16.49,0,33.56,0,50.73q0,24,0,48v.08l0,.08a1.11,1.11,0,0,1,.08.5,6.86,6.86,0,0,1-.06.75c0,.2,0,.41-.06.59v4.07c0,.2,0,.4.06.61a6.67,6.67,0,0,1,.06.75,1.13,1.13,0,0,1-.08.5l0,.07v.08q0,24,0,48c0,17.17,0,34.23,0,50.72a4.41,4.41,0,0,0,1.42,3.47c3.65,3.62,7.36,7.33,10.93,10.91s7.4,7.4,11.12,11.08a4,4,0,0,1,1.27,3.1v0c0,5.18,0,10.45,0,15.55,0,3.78,0,7.57,0,11.35v.08a2.82,2.82,0,0,0,1.48,2.94,3.07,3.07,0,0,1,1.55,2.78,3.74,3.74,0,0,1-.18,1.15,3.53,3.53,0,0,1-3.42,2.47,3.42,3.42,0,0,1-3.35-2.37,3.65,3.65,0,0,1-.23-1.26,3.17,3.17,0,0,1,1.62-2.82,2.71,2.71,0,0,0,1.45-2.79v0q0-6.57,0-13.16c0-4.82,0-9.19,0-13.37v0a4.25,4.25,0,0,0-1.4-3.26c-3.39-3.36-6.82-6.79-10.13-10.11C86,461.06,81.94,457,78,453.08A4,4,0,0,1,76.68,450c0-11.11,0-22,0-31.29V381.31c0-9.69,0-20.12,0-30.73v-.08l0-.08A1,1,0,0,1,76.61,350Z"/><path class="cls-45" d="M181.71,489.48a2.38,2.38,0,0,1-1.22-2.36v-1.77c0-1.11,0-2.22,0-3.33s0-2.22,0-3.33c0-1.6,0-2.91,0-4.14v-.1a3.72,3.72,0,0,0-1.24-2.89c-1.37-1.34-2.74-2.72-4.07-4.06-1.69-1.7-3.44-3.46-5.21-5.15a5.22,5.22,0,0,1-1.74-4.1c0-21.56,0-43.45,0-63.89V354.67c0-2.73,0-5.45,0-8.18v-.08a1.38,1.38,0,0,0,0-.38c0-.18,0-.37,0-.56l0-.24V340l0-.21c0-.19,0-.38,0-.56a1.34,1.34,0,0,0,0-.38v-.09c0-2.72,0-5.45,0-8.17V290.91c0-20.44,0-42.33,0-63.91a5.19,5.19,0,0,1,1.74-4.08c1.77-1.69,3.52-3.45,5.21-5.16,1.33-1.33,2.7-2.72,4.07-4a3.74,3.74,0,0,0,1.24-2.9v-.09c0-1.23,0-2.55,0-4.14,0-1.11,0-2.22,0-3.33s0-2.22,0-3.33v-1.77a2.38,2.38,0,0,1,1.22-2.36,3.32,3.32,0,0,0,1.74-2.89,3.77,3.77,0,0,0-.18-1.14,3.54,3.54,0,0,0-6.83.11,3.71,3.71,0,0,0-.15,1,3.43,3.43,0,0,0,1.85,3,2.22,2.22,0,0,1,1.2,2.18v.05c0,2.53,0,4.79,0,6.91,0,1.91,0,3.69,0,5.42v.06a3.63,3.63,0,0,1-1.19,2.79c-1.41,1.38-2.83,2.8-4.2,4.17-1.74,1.75-3.54,3.55-5.35,5.29a4.54,4.54,0,0,0-1.52,3.61c0,12.36,0,24.66,0,35V304q0,17.4,0,34.81v.08a1.54,1.54,0,0,0,0,.4c0,.17,0,.35,0,.51s0,.25,0,.38v4.92c0,.12,0,.24,0,.36s0,.35,0,.52a1.54,1.54,0,0,0,0,.4v.07q0,24,0,48v29.41c0,10.39,0,22.68,0,35.05v0a4.49,4.49,0,0,0,1.52,3.58c1.81,1.74,3.61,3.55,5.36,5.3,1.37,1.37,2.78,2.79,4.19,4.17a3.6,3.6,0,0,1,1.19,2.79v.05c0,1.74,0,3.51,0,5.42,0,2.13,0,4.39,0,6.92v.05a2.23,2.23,0,0,1-1.2,2.18,3.43,3.43,0,0,0-1.85,2.95,3.71,3.71,0,0,0,3.61,3.68,3.56,3.56,0,0,0,3.37-2.54,3.87,3.87,0,0,0,.18-1.14A3.32,3.32,0,0,0,181.71,489.48ZM177,192.78v-.1A2.87,2.87,0,0,1,180,190a2.83,2.83,0,0,1,2.72,2.8v.1a2.82,2.82,0,0,1-2.91,2.7A2.85,2.85,0,0,1,177,192.78Zm5.65,299.71a2.83,2.83,0,0,1-2.72,2.8,2.87,2.87,0,0,1-2.93-2.71v-.1a2.84,2.84,0,0,1,2.74-2.79,2.78,2.78,0,0,1,2,.74,2.83,2.83,0,0,1,.9,2Z"/><path class="cls-46" d="M91.28,119.56V102h-1.1c0,5.87,0,11.72,0,17.59q0,9.69,0,19.42a3.44,3.44,0,0,1-1.1,2.66c-1.48,1.44-3,2.93-4.4,4.37-1.8,1.81-3.67,3.69-5.54,5.5a3.7,3.7,0,0,0-1.2,2.94v0c0,4.11,0,8.53,0,14.33v41.49c0,.61,0,1.22,0,1.84a.85.85,0,0,0,.18.62.53.53,0,0,0,.4.11c.12,0,.48,0,.49-.68s0-1.1,0-1.66v-21.2c0-10.18,0-22.21,0-34.26A4,4,0,0,1,80.32,152c1.33-1.29,2.66-2.63,3.94-3.92,1.69-1.71,3.44-3.47,5.22-5.15a5.36,5.36,0,0,0,1.86-4.31v-.07C91.29,132,91.28,125.52,91.28,119.56Z"/><path class="cls-47" d="M113.11,452.15a2.65,2.65,0,0,1-1.4-2.67q0-7.86,0-15.7c0-7.06,0-14.35,0-21.57a4.08,4.08,0,0,0-1.39-3.24c-1.67-1.61-3.33-3.28-4.94-4.89s-3.06-3.07-4.61-4.58a4.21,4.21,0,0,1-1.35-3.32c0-8.14,0-16.58,0-25.82q0-9.92,0-19.84v-.06l0,0a1.18,1.18,0,0,0,.06-.41c0-.19,0-.4,0-.6s0-.27,0-.41v-5c0-.13,0-.26,0-.4a5.85,5.85,0,0,0,0-.59,1.15,1.15,0,0,0-.06-.41l0-.06v-.06q0-9.92,0-19.84c0-6.56,0-12.72,0-18.66q0-3.63,0-7.17a4.18,4.18,0,0,1,1.35-3.3c1.55-1.51,3.11-3.07,4.62-4.59s3.26-3.28,4.93-4.89a5.12,5.12,0,0,0,.76-.9,4.14,4.14,0,0,0,.63-2.37c0-7.18,0-14.48,0-21.53,0-5.24,0-10.47,0-15.72a2.66,2.66,0,0,1,1.4-2.66,3.23,3.23,0,0,0,1.67-2.83,3.7,3.7,0,0,0-.22-1.22,3.44,3.44,0,0,0-3.31-2.43,3.66,3.66,0,0,0-3.46,2.45,3.45,3.45,0,0,0-.19,1.11,3.36,3.36,0,0,0,1.68,2.94,2.53,2.53,0,0,1,1.37,2.51q0,10.64,0,21.27,0,8,0,16a3.49,3.49,0,0,1-.81,2.35,5.57,5.57,0,0,1-.41.45c-1.55,1.52-3.12,3.09-4.63,4.6-1.73,1.74-3.52,3.53-5.31,5.27A3.33,3.33,0,0,0,98.4,296c0,2.77,0,5.51,0,8v29.51c0,3,0,6,0,9v.06l0,.05a1.34,1.34,0,0,0,0,.38,5.65,5.65,0,0,0,0,.58c0,.1,0,.19,0,.31v5.26a2.45,2.45,0,0,0,0,.27c0,.2,0,.4,0,.58a1.41,1.41,0,0,0,0,.39l0,.05v.05c0,3,0,6,0,9v23.87c0,3.73,0,8.66,0,13.7a3.3,3.3,0,0,0,1.08,2.62c1.79,1.74,3.58,3.54,5.32,5.28,1.51,1.51,3.07,3.08,4.62,4.6a3.61,3.61,0,0,1,1.22,2.81q0,8,0,16,0,10.63,0,21.29a2.51,2.51,0,0,1-1.37,2.49,3.39,3.39,0,0,0-1.68,2.95,3.5,3.5,0,0,0,.19,1.11,3.64,3.64,0,0,0,3.46,2.44,3.43,3.43,0,0,0,3.31-2.42,3.7,3.7,0,0,0,.22-1.22A3.26,3.26,0,0,0,113.11,452.15ZM108.35,238v0a2.88,2.88,0,0,1,2.8-2.8,2.73,2.73,0,0,1,2,.8,2.77,2.77,0,0,1,.83,2,2.7,2.7,0,0,1-2.77,2.79A2.77,2.77,0,0,1,108.35,238ZM114,455.09a2.77,2.77,0,0,1-2.81,2.79,2.86,2.86,0,0,1-2.8-2.79v0a2.78,2.78,0,0,1,2.84-2.76,2.7,2.7,0,0,1,2.77,2.79Z"/><path class="cls-48" d="M167,208.42c0-.17,0-.37,0-.55a5.32,5.32,0,0,0,0-.54c0-2.55,0-5.24,0-8.77V190c0-1.51,0-3,0-4.53v-4.65c0-3,0-5.39,0-7.6v-.09a4,4,0,0,1,1.39-3.18c1.66-1.6,3.32-3.27,4.92-4.88s3-3,4.5-4.47a4.4,4.4,0,0,0,1.48-3.43c0-5.72,0-11.76,0-18.47q0-9,0-18h0a2.92,2.92,0,0,0-1.51-3,3.08,3.08,0,0,1-1.53-2.73h0a3.7,3.7,0,0,1,.88-2.37,3.56,3.56,0,0,1,2.57-1.28,3.48,3.48,0,0,1,2.64,1,3.69,3.69,0,0,1,1.11,2.63,3,3,0,0,1-1.38,2.62,3.45,3.45,0,0,0-1.65,3.43v0q0,8.61,0,17.21c0,6.38,0,13,0,19.46a4,4,0,0,1-1.29,3.15c-1.69,1.63-3.37,3.31-5,4.95s-3.11,3.12-4.69,4.65a4.21,4.21,0,0,0-1.36,3.29c0,5.29,0,10.67,0,16.5,0,5.3,0,10.89,0,17.07h0c0,.19,0,.39,0,.59s0,.41,0,.6c0,.51-.14.67-.6.67a.66.66,0,0,1-.47-.13A.88.88,0,0,1,167,208.42Z"/><path class="cls-49" d="M154.85,131.56c0,1.27-.06,2.65-.06,4.34,0,1,0,1.95,0,2.92s0,2,0,2.92v5.87q0,3,0,6.06h0v.3a2.53,2.53,0,0,1,0,.28,1,1,0,0,1-.14.62.59.59,0,0,1-.42.12c-.43,0-.59-.14-.59-.93V150c0-2.72,0-5.45,0-8.18,0-3.92,0-7.16,0-10.19v-.05a4,4,0,0,0-1.32-3.11c-1.52-1.48-3-3-4.51-4.48-1.68-1.69-3.42-3.44-5.17-5.13a3.9,3.9,0,0,1-1.26-3.1c0-4.57,0-9.17,0-13.71h1.11c0,4.74,0,9.12,0,13.31a3.87,3.87,0,0,0,1.25,3c1.36,1.32,2.72,2.7,4,4,1.79,1.8,3.64,3.66,5.51,5.44a4.46,4.46,0,0,1,1.52,3.53Z"/><path class="cls-50" d="M79.22,135.87a.78.78,0,0,1-.15.56.71.71,0,0,1-.53.13c-.41,0-.63-.14-.63-.78A6.5,6.5,0,0,1,78,135c0-.25,0-.49,0-.71,0-6.39,0-12.73,0-17.55V102h1.12c0,11.57,0,22.21,0,32.42a6.18,6.18,0,0,0,.06.71A4.86,4.86,0,0,1,79.22,135.87Z"/><path class="cls-51" d="M110.27,626.72a3,3,0,0,1,1.52-2.73,2.85,2.85,0,0,0,1.5-3v0c0-6.19,0-12.31,0-17.47V576.25c0-4.82,0-11.17,0-17.55h0a6.23,6.23,0,0,0-.05-.72,6.32,6.32,0,0,1-.06-.74c0-.64.22-.77.63-.78a.75.75,0,0,1,.53.13.81.81,0,0,1,.15.57,6.5,6.5,0,0,1-.06.74,4.48,4.48,0,0,0-.07.7c0,11,0,22.49,0,35.13q0,13.66,0,27.34a2.72,2.72,0,0,0,1.44,2.84,3.13,3.13,0,0,1,1.63,2.81,3.63,3.63,0,0,1-.23,1.25,3.38,3.38,0,0,1-3.31,2.4,3.52,3.52,0,0,1-3.44-2.44A3.61,3.61,0,0,1,110.27,626.72Z"/><path class="cls-52" d="M114.49,135.87a.78.78,0,0,1-.15.56.71.71,0,0,1-.53.13c-.41,0-.63-.14-.63-.78a6.5,6.5,0,0,1,.06-.74,6.07,6.07,0,0,0,.05-.71c0-6.39,0-12.73,0-17.55V102h1.12c0,11.57,0,22.21,0,32.42a4.6,4.6,0,0,0,.07.71A6.5,6.5,0,0,1,114.49,135.87Z"/><path class="cls-53" d="M198.8,626.72a3.06,3.06,0,0,1,1.52-2.73,2.85,2.85,0,0,0,1.5-3v0c0-6.19,0-12.31,0-17.47V576.25c0-4.82,0-11.17,0-17.55h0a6.23,6.23,0,0,0,0-.72,6.32,6.32,0,0,1-.06-.74c0-.64.22-.77.63-.78a.75.75,0,0,1,.53.13.81.81,0,0,1,.15.57,6.5,6.5,0,0,1-.06.74,4.48,4.48,0,0,0-.07.7c0,11,0,22.49,0,35.13q0,13.66,0,27.34a2.72,2.72,0,0,0,1.44,2.84,3.13,3.13,0,0,1,1.63,2.81,3.63,3.63,0,0,1-.23,1.25,3.38,3.38,0,0,1-3.31,2.4,3.52,3.52,0,0,1-3.44-2.44A3.88,3.88,0,0,1,198.8,626.72Z"/><path class="cls-54" d="M203,135.87a.78.78,0,0,1-.15.56.71.71,0,0,1-.53.13c-.41,0-.63-.14-.63-.78a6.5,6.5,0,0,1,.06-.74,6.07,6.07,0,0,0,0-.71c0-6.39,0-12.73,0-17.55V102h1.12c0,11.57,0,22.21,0,32.42a4.6,4.6,0,0,0,.07.71A6.5,6.5,0,0,1,203,135.87Z"/><path class="cls-55" d="M294,626.72a3.06,3.06,0,0,1,1.52-2.73,2.84,2.84,0,0,0,1.5-3v0c0-6.19,0-12.31,0-17.47V576.25c0-4.82,0-11.17,0-17.55h0A6.35,6.35,0,0,0,297,558a6.32,6.32,0,0,1-.06-.74c0-.64.22-.77.64-.78a.72.72,0,0,1,.52.13.81.81,0,0,1,.15.57,6.5,6.5,0,0,1-.06.74,6.14,6.14,0,0,0-.07.7c0,11,0,22.49,0,35.13q0,13.66,0,27.34a2.72,2.72,0,0,0,1.44,2.84,3.13,3.13,0,0,1,1.63,2.81A3.63,3.63,0,0,1,301,628a3.38,3.38,0,0,1-3.3,2.4,3.52,3.52,0,0,1-3.45-2.44A3.88,3.88,0,0,1,294,626.72Z"/><path class="cls-56" d="M298.25,135.87a.78.78,0,0,1-.15.56.68.68,0,0,1-.52.13c-.42,0-.64-.14-.64-.78A6.5,6.5,0,0,1,297,135a6.18,6.18,0,0,0,.06-.71c0-6.39,0-12.73,0-17.55V102h1.12c0,11.57,0,22.21,0,32.42a6.3,6.3,0,0,0,.07.71A6.5,6.5,0,0,1,298.25,135.87Z"/><path class="cls-57" d="M167.11,102c0,.45,0,.9,0,1.35h0v4.81c0,1.28,0,2.55,0,3.83a1.1,1.1,0,0,0,.22.77.51.51,0,0,0,.43.11c.3,0,.45-.16.49-.9,0-.23,0-.46,0-.69v-.58c0-1.18,0-2.36,0-3.55,0-1.4,0-2.8,0-4.2v-1Z"/><path class="cls-58" d="M58.77,102.2V102h-1.1a1.85,1.85,0,0,1,0,.23c0,.12,0,.25,0,.38,0,.31,0,.5.14.59a.58.58,0,0,0,.44.11c.44,0,.56-.17.56-.71C58.79,102.47,58.78,102.33,58.77,102.2Z"/><path class="cls-59" d="M117,378.86a3.24,3.24,0,0,1,1.69-2.91,2.47,2.47,0,0,0,1.36-2.59v-.09c0-2.66,0-5.33,0-8V320c0-2.67,0-5.33,0-8v-.08a2.46,2.46,0,0,0-1.36-2.59A3.24,3.24,0,0,1,117,306.4h0a4,4,0,0,1,.17-1.13,3.56,3.56,0,0,1,3.41-2.47,3.4,3.4,0,0,1,3.34,2.35,3.6,3.6,0,0,1,.24,1.29,3.13,3.13,0,0,1-1.59,2.78,2.76,2.76,0,0,0-1.44,2.79c0,5.17,0,10.64,0,17.76V355.5c0,7.12,0,12.59,0,17.73A2.76,2.76,0,0,0,122.6,376a3.16,3.16,0,0,1,1.59,2.79,3.64,3.64,0,0,1-.24,1.29,3.41,3.41,0,0,1-3.34,2.35A3.57,3.57,0,0,1,117.2,380,4.09,4.09,0,0,1,117,378.86Z"/><path class="cls-60" d="M274.64,549.22v67.34a120.72,120.72,0,0,1-14.76-4.34c-3.72-1.39-7.32-2.65-10.83-3.77V549.22Z"/><path class="cls-61" d="M240.19,574.81v31.06a134.18,134.18,0,0,0-17.72-3.47V574.81Z"/><path class="cls-62" d="M303.19,578.75v29.56c-6.16,2.19-13.26,4.82-21.66,7.9V578.75Z"/><path class="cls-63" d="M417.62,630.56c.79,0,1.58,0,2.38,0v62.95c-20.84,19.63-53.74,35.92-94.14,46.73h0q-7.06,1.89-14.44,3.55A442.85,442.85,0,0,1,246,753.33c-11.72.85-23.73,1.29-35.95,1.29-2,0-4,0-5.93,0h0a484.27,484.27,0,0,1-52.95-3.47l-.05.06a.06.06,0,0,0,0-.06q-13.09-1.59-25.54-3.87c3-2.17,8.87-4.66,18-7.51a46.87,46.87,0,0,0,6.88.64c2.63.09,6,.1,10.14-.14,12.56-.73,32.05-3.68,58.4-12.89a412.24,412.24,0,0,0,58.25-26q9.74-5.21,20.17-11.35l1.7-1c24.22-14.29,42.76-25.28,57.43-33.66l3.47-2c5.19-2.93,9.86-5.52,14.12-7.79l1.23-.65h0l1.91-1h0l1.26-.65,3.83-2h0l.8-.4a140.14,140.14,0,0,1,15.33-6.67c1.42-.5,2.79-1,4.11-1.33h0l.34-.1H403a55.76,55.76,0,0,1,5.9-1.37l.18,0a51.94,51.94,0,0,1,8.44-.77Z"/><path class="cls-64" d="M337.66,275.83v0a2,2,0,0,1-2,2H219.14a2,2,0,0,1-1.9-1.35,16.94,16.94,0,0,1,26.64-18.74c0-.53,0-1.06,0-1.6a26,26,0,0,1,51.61-4.75,13.34,13.34,0,0,1,22.78,9.42v.39a15,15,0,0,1,4.21-.59A15.22,15.22,0,0,1,337.66,275.83Z"/><path class="cls-65" d="M86.72,319.61v0A1.38,1.38,0,0,0,88.11,321h80.67a1.4,1.4,0,0,0,1.32-.93,11.72,11.72,0,0,0-18.44-13c0-.37,0-.73,0-1.11A18,18,0,0,0,116,302.69a9.24,9.24,0,0,0-15.78,6.53c0,.09,0,.18,0,.26a10.83,10.83,0,0,0-2.92-.4A10.53,10.53,0,0,0,86.72,319.61Z"/><path class="cls-66" d="M420,0V693.52c-20.84,19.63-53.74,35.92-94.14,46.73h0q-7.06,1.89-14.44,3.55A442.85,442.85,0,0,1,246,753.33c-11.72.85-23.73,1.29-35.95,1.29-2,0-4,0-5.93,0h0a484.27,484.27,0,0,1-52.95-3.47h-.05q-13.09-1.59-25.54-3.87h0C70.81,737.31,26,718,0,693.52V0Z"/></g></g></svg>