<svg xmlns="http://www.w3.org/2000/svg" xmlns:xlink="http://www.w3.org/1999/xlink" viewBox="0 0 404 252"><defs><style>.cls-1{fill:#e4fcdc;}.cls-2{fill:#fff;}.cls-3{fill:url(#radial-gradient);}.cls-4{fill:url(#linear-gradient);}.cls-5{fill:url(#linear-gradient-2);}.cls-6{fill:url(#linear-gradient-3);}.cls-7{fill:url(#linear-gradient-4);}.cls-8{fill:url(#linear-gradient-5);}.cls-9{fill:url(#linear-gradient-6);}.cls-10{fill:url(#linear-gradient-7);}.cls-11{fill:url(#linear-gradient-8);}</style><radialGradient id="radial-gradient" cx="201.17" cy="213" r="136.85" gradientTransform="translate(-31.66 148.22) scale(1.16 0.31)" gradientUnits="userSpaceOnUse"><stop offset="0" stop-color="#58c280" stop-opacity="0.5"/><stop offset="1" stop-color="#cbf8cf" stop-opacity="0"/></radialGradient><linearGradient id="linear-gradient" x1="129.84" y1="121.12" x2="285.96" y2="53.66" gradientUnits="userSpaceOnUse"><stop offset="0" stop-color="#a3ebbb"/><stop offset="1" stop-color="#58c280"/></linearGradient><linearGradient id="linear-gradient-2" x1="130.63" y1="122.96" x2="286.76" y2="55.5" xlink:href="#linear-gradient"/><linearGradient id="linear-gradient-3" x1="248.46" y1="63.74" x2="193.89" y2="145.59" gradientUnits="userSpaceOnUse"><stop offset="0" stop-color="#4cb54c"/><stop offset="1" stop-color="#3d985f"/></linearGradient><linearGradient id="linear-gradient-4" x1="214.51" y1="126.68" x2="124.07" y2="63.52" xlink:href="#linear-gradient-3"/><linearGradient id="linear-gradient-5" x1="248.96" y1="64.07" x2="194.39" y2="145.93" xlink:href="#linear-gradient-3"/><linearGradient id="linear-gradient-6" x1="117.58" y1="173.54" x2="271.43" y2="225.08" gradientUnits="userSpaceOnUse"><stop offset="0" stop-color="#58c280"/><stop offset="1" stop-color="#349f71"/></linearGradient><linearGradient id="linear-gradient-7" x1="126.31" y1="147.48" x2="280.16" y2="199.02" xlink:href="#linear-gradient-6"/><linearGradient id="linear-gradient-8" x1="137.24" y1="114.87" x2="291.09" y2="166.4" xlink:href="#linear-gradient-6"/></defs><g id="Layer_2" data-name="Layer 2"><g id="Layer_1-2" data-name="Layer 1"><rect class="cls-1" width="404" height="252"/><path class="cls-2" d="M105.13,139.7a.76.76,0,0,1,0,.15,3.07,3.07,0,0,1-3.27,2.62H21.78c-2.11,0-3.72-1.68-3.2-3.41,2-6.56,9-11.4,17.34-11.4.67,0,1.32,0,2,.09,0-.16,0-.33,0-.49-.25-8.37,6.46-15.71,16.12-17.35,11.41-1.94,21.6,4.25,24,13a24.11,24.11,0,0,1,8.66-.93C97.25,122.75,105.45,130.65,105.13,139.7Z"/><path class="cls-2" d="M303,77v.14a2.81,2.81,0,0,0,3,2.38h73c1.91,0,3.39-1.52,2.91-3.1-1.81-6-8.21-10.4-15.81-10.4a17.58,17.58,0,0,0-1.79.09c0-.15,0-.3,0-.45.22-7.63-5.89-14.32-14.7-15.82-10.41-1.77-19.69,3.87-21.87,11.84a21.58,21.58,0,0,0-7.9-.85C310.18,61.57,302.71,68.77,303,77Z"/><ellipse class="cls-3" cx="202" cy="214.5" rx="151" ry="10.5"/><path class="cls-4" d="M133.11,115.9c-1.85,0-3,0-3.34-.06a4.08,4.08,0,0,1,.36-8.16c.78,0,79.47,2.75,139.08-55.69a4.08,4.08,0,1,1,5.72,5.83C219.1,112.56,149.28,115.9,133.11,115.9Z"/><path class="cls-5" d="M246.32,54.23,274.93,81.5A2.52,2.52,0,0,0,279.17,80l4.19-34.15a2.52,2.52,0,0,0-3-2.77l-32.8,6.88A2.52,2.52,0,0,0,246.32,54.23Z"/><rect class="cls-6" x="200.12" y="120" width="3" height="28"/><path class="cls-7" d="M203.12,119s-1-20-24-31-27,0-27,0,1,17,27,26S201.12,125,203.12,119Z"/><path class="cls-8" d="M200.12,122s8-32,24-42,21-21,26-16,4,34-23,48S200.12,122,200.12,122Z"/><rect class="cls-9" x="120.62" y="153.26" width="42.2" height="56.74" rx="3.73"/><rect class="cls-10" x="180.52" y="135.42" width="42.2" height="74.58" rx="3.73"/><rect class="cls-11" x="240.42" y="103" width="42.2" height="107" rx="3.73"/></g></g></svg>