<svg xmlns="http://www.w3.org/2000/svg" xmlns:xlink="http://www.w3.org/1999/xlink" viewBox="0 0 404 252"><defs><style>.cls-1{fill:#e4fcdc;}.cls-2{fill:url(#radial-gradient);}.cls-3{fill:url(#radial-gradient-2);}.cls-4{fill:url(#radial-gradient-3);}.cls-5{fill:url(#linear-gradient);}.cls-6{fill:url(#linear-gradient-2);}.cls-7{fill:url(#linear-gradient-3);}.cls-8{fill:url(#radial-gradient-4);}.cls-9{fill:url(#radial-gradient-5);}.cls-10{fill:url(#radial-gradient-6);}.cls-11{fill:url(#radial-gradient-7);}.cls-12{fill:#12be36;}.cls-13{fill:#139630;}.cls-14{fill:#057523;}.cls-15{fill:#4fcb4f;}.cls-16{fill:#00701c;}.cls-17{fill:#52be35;}.cls-18{fill:#60cd3e;}.cls-19{fill:#279e10;}.cls-20{fill:url(#linear-gradient-4);}.cls-21{fill:url(#linear-gradient-5);}</style><radialGradient id="radial-gradient" cx="65.6" cy="200.43" r="136.85" gradientTransform="translate(68.53 112.84) scale(0.79 0.41)" gradientUnits="userSpaceOnUse"><stop offset="0" stop-color="#58c280" stop-opacity="0.5"/><stop offset="1" stop-color="#cbf8cf" stop-opacity="0"/></radialGradient><radialGradient id="radial-gradient-2" cx="253.66" cy="194" r="136.85" gradientTransform="translate(68.53 100.5) scale(0.79 0.41)" xlink:href="#radial-gradient"/><radialGradient id="radial-gradient-3" cx="271.33" cy="183.71" r="136.85" gradientTransform="translate(68.53 80.77) scale(0.79 0.41)" xlink:href="#radial-gradient"/><linearGradient id="linear-gradient" x1="323.19" y1="113.79" x2="317.51" y2="153.2" gradientUnits="userSpaceOnUse"><stop offset="0" stop-color="#66be56"/><stop offset="1" stop-color="#329b36"/></linearGradient><linearGradient id="linear-gradient-2" x1="292.5" y1="111.85" x2="313.67" y2="111.85" xlink:href="#linear-gradient"/><linearGradient id="linear-gradient-3" x1="346.35" y1="97.46" x2="324.18" y2="141.8" xlink:href="#linear-gradient"/><radialGradient id="radial-gradient-4" cx="335.41" cy="84.69" r="53.18" gradientUnits="userSpaceOnUse"><stop offset="0" stop-color="#3fa74e"/><stop offset="1" stop-color="#0b723d"/></radialGradient><radialGradient id="radial-gradient-5" cx="358.71" cy="211.33" r="154.3" xlink:href="#radial-gradient-4"/><radialGradient id="radial-gradient-6" cx="423.13" cy="123.16" r="74.31" xlink:href="#radial-gradient-4"/><radialGradient id="radial-gradient-7" cx="363.26" cy="72.13" r="105.67" xlink:href="#radial-gradient-4"/><linearGradient id="linear-gradient-4" x1="140" y1="48.66" x2="272.33" y2="48.66" xlink:href="#linear-gradient"/><linearGradient id="linear-gradient-5" x1="140" y1="59.71" x2="272.33" y2="59.71" xlink:href="#linear-gradient"/></defs><g id="Layer_2" data-name="Layer 2"><g id="Layer_1-2" data-name="Layer 1"><rect class="cls-1" width="404" height="252"/><ellipse class="cls-2" cx="120.5" cy="196" rx="103" ry="14"/><ellipse class="cls-3" cx="269.5" cy="181" rx="103" ry="14"/><ellipse class="cls-4" cx="283.5" cy="157" rx="103" ry="14"/><path class="cls-5" d="M354,120.5l-8,17a56,56,0,0,0-27,15.23,47.22,47.22,0,0,0-5,6.18l-1-1.18-2.22-2.53L289,130.5l3.5-8.61,2.54-6.23,5-12.16,13-1.74,7.52-1L330,99.5l3.45,3,1,.9,6.39,5.6Z"/><path class="cls-6" d="M292.5,121.89l2.54-6.23,5-12.16,13-1.74A22.73,22.73,0,0,0,313.5,112C315.46,117.87,300.19,122.49,292.5,121.89Z"/><path class="cls-7" d="M354,120.5l-8,17a56,56,0,0,0-27,15.23,47.22,47.22,0,0,0-5,6.18l-1-1.18c4.2-7.58,7.17-20.22,12.58-24.73,6-5-6,2-7,1s5-8,11-10-7-4-8-12c-.76-6.06,3.08-12.13,11.95-9.48l1,.9,6.39,5.6Z"/><path class="cls-8" d="M365.15,131.07A30,30,0,0,1,363.5,136c-6,14-16,20-29,15A16.25,16.25,0,0,0,319,152.73a21.9,21.9,0,0,0-5.46,5.23c.39-.73,6.73-12.58,14.48-16.46,5.49-2.75,12.87-10.68,10-14.57-1.31-1.78-4.76-2.71-11.49-1.93,0,0,10-15,7-15s-10,2-12-2-7-7-10,0-9-3-12,5a4.08,4.08,0,0,1-4.46,2.66c-6.19-.43-15.79-9.63-13.54-21.66a29.42,29.42,0,0,1,.68-2.87A24.39,24.39,0,0,1,305.5,73c8,0,9-8,24-2,0,0,12-5,18,3,5.81,7.75,3.18,11.75,3,12,.35-.12,7.66-2.61,11.65,6.22.12.25.23.52.34.79,4,10,1,17,0,20-.29.88.19,2,.87,3.57C364.71,119.58,366.79,124.09,365.15,131.07Z"/><path class="cls-9" d="M344.5,122c-.38,3.41-3.06,4.38-6.51,4.93-1.31-1.78-4.76-2.71-11.49-1.93,0,0,10-15,7-15s-10,2-12-2-7-7-10,0-9-3-12,5a4.08,4.08,0,0,1-4.46,2.66c-6.19-.43-15.79-9.63-13.54-21.66a29.42,29.42,0,0,1,.68-2.87A14.11,14.11,0,0,0,294.5,96c8.1-.74,18.92,1.78,26.05,4.76A26.14,26.14,0,0,1,326.5,104c2.58,2.06,5.42.4,8-.58,2.41-1,4.57-1.3,6,2.58a6.14,6.14,0,0,1,.37,3c-.82,6-10.83,9.25-7.37,11C337.5,122,345.5,113,344.5,122Z"/><path class="cls-10" d="M356.5,106c.54-6.5,4-9.77,5.66-13.79.12.25.23.52.34.79,4,10,1,17,0,20-.29.88.19,2,.87,3.57C359.28,113.75,356.12,110.51,356.5,106Z"/><path class="cls-11" d="M365.15,131.07A30,30,0,0,1,363.5,136c-6,14-16,20-29,15a16.72,16.72,0,0,0-8.17-1.1c4.14-3.48,8.65-5.94,13.17-4.9,13,3,8-11,15-15C357.05,128.54,361.07,129.61,365.15,131.07Z"/><path class="cls-12" d="M89.54,189.13a59.59,59.59,0,0,1,19.36-20.85c.24-.16.49-.33.74-.48a35.17,35.17,0,0,0,5.7-4.43h0c.6-.58,1.14-1.16,1.64-1.74l0,0a19.53,19.53,0,0,0,4.42-17.95c-1.16-5,.27-22.17,16.87-41.67s42-30.26,53.41-33.72c8-2.44,13.63-3.76,16.78-1h0c1.33,1.14,2.2,3,2.66,5.78,1.55,9.43,0,16.76-6.63,33.24s2.2,16.85-12.33,35A59.49,59.49,0,0,1,177,154.51a80.91,80.91,0,0,1-21.16,9.09h0a69.67,69.67,0,0,1-18.45,2.66c-14.65-.12-34.09,11.87-42.39,25.81Z"/><path class="cls-13" d="M89.54,189.13a59.72,59.72,0,0,1,20.1-21.33,35.72,35.72,0,0,0,5.7-4.42l0,0c7.84-7.62,7-15.54,6.08-19.71-1.16-5,.27-22.17,16.87-41.67s42-30.26,53.41-33.72c8-2.44,13.63-3.76,16.78-1-.79.2-28.12,6.88-37.2,18.64-9.21,11.93-21.44,25.25-23.39,36.5s-8.52,25.73-3.08,29.41c4.78,3.24,19.26,7.64,32.12,2.72a80.91,80.91,0,0,1-21.16,9.09h0a69.67,69.67,0,0,1-18.45,2.66c-14.65-.12-34.09,11.87-42.39,25.81Z"/><path class="cls-14" d="M163.63,132.38c-17.24,15.41-40.92,28.74-54.73,35.9.24-.16.49-.33.74-.48a35.17,35.17,0,0,0,5.7-4.43h0c.6-.58,1.14-1.16,1.64-1.74l0,0c18.61-13.19,41.3-31.42,41.3-31.42a37.57,37.57,0,0,0,4.8-3.74c7.52-6.09,43.3-48.93,43.3-48.93-18.41,32.24-36.69,49.21-36.69,49.21A56.56,56.56,0,0,1,163.63,132.38Z"/><path class="cls-12" d="M134.92,191.58a44.33,44.33,0,0,1-14.49-21.3c-.08-.26-.17-.53-.24-.79a27.68,27.68,0,0,0-2.61-6.13s0,0,0,0a18.76,18.76,0,0,0-1.2-1.8s0,0,0,0c-5-6.71-12.08-6.58-16.06-6-5.15.73-21.35-2.21-35.35-20.62S48,90,48,78.17c0-8.31.36-14,3.94-17h0A11.07,11.07,0,0,1,58.33,59c9.57-.73,16.2,1.48,30.19,9.58s16.94-.74,30.2,15.46a46.06,46.06,0,0,1,8.35,16.52,73.1,73.1,0,0,1,2.59,22.09.08.08,0,0,1,0,0,74.7,74.7,0,0,1-2.83,18.81c-4.42,14.72,1.47,35.34,12.52,44.92Z"/><path class="cls-13" d="M134.92,191.58a44.44,44.44,0,0,1-14.73-22.09,27.68,27.68,0,0,0-2.61-6.13s0,0,0,0c-5.06-8.56-13-8.45-17.27-7.84-5.15.73-21.35-2.21-35.35-20.62S48,90,48,78.17c0-8.31.36-14,3.94-17-.05.81-1.6,28.9,7.1,39.06S77.19,124.05,87.5,127s22.38,10.82,27.53,5.67c4.53-4.53,13-18.72,12-32.09a73.1,73.1,0,0,1,2.59,22.09.08.08,0,0,1,0,0,74.25,74.25,0,0,1-2.83,18.81c-4.42,14.72,1.47,35.34,12.52,44.92Z"/><path class="cls-14" d="M101.78,112.05c9.84,18.7,15.79,43.7,18.65,58.23-.08-.26-.17-.53-.24-.79a27.68,27.68,0,0,0-2.61-6.13s0,0,0,0a18.76,18.76,0,0,0-1.2-1.8s0,0,0,0c-7.3-19.89-18.27-44.32-18.27-44.32a29.61,29.61,0,0,0-2.2-5.15C92.2,104,61.27,64.18,61.27,64.18c25.78,21.36,36.82,41.24,36.82,41.24A43.2,43.2,0,0,1,101.78,112.05Z"/><path class="cls-12" d="M183.35,194a42.59,42.59,0,0,1-24.3-4.63l-.7-.37a26.65,26.65,0,0,0-5.93-2.39h0a17.88,17.88,0,0,0-2-.4h0c-8-1.14-12.67,3.73-15,6.81-3,4-16,13-38,10s-42-19-50-27c-5.64-5.64-9.29-9.79-8.85-14.2h0A10.55,10.55,0,0,1,41.35,156c6-7,12-10,27-14s11-12,31-10a44.21,44.21,0,0,1,16.89,5.54A70.15,70.15,0,0,1,133,150.78l0,0a71.33,71.33,0,0,1,10.84,14.69c7,13,25,23,39,22Z"/><path class="cls-13" d="M183.35,194a42.69,42.69,0,0,1-25-5,26.65,26.65,0,0,0-5.93-2.39h0c-9.25-2.37-14.54,3.06-17.05,6.4-3,4-16,13-38,10s-42-19-50-27c-5.64-5.64-9.29-9.79-8.85-14.2.52.58,18.54,20.71,31.35,21.7,13,1,40,15,49,10s11-19,11-26c0-6.15-3.86-21.56-13.61-30A70.15,70.15,0,0,1,133,150.78l0,0a71.33,71.33,0,0,1,10.84,14.69c7,13,25,23,39,22Z"/><path class="cls-15" d="M183.35,194a42.69,42.69,0,0,1-25-5,26.65,26.65,0,0,0-5.93-2.39h0c-13.46-6.89-12.55-15.1-12.55-15.1a10.76,10.76,0,0,0,5,4s-4-5-5-10c-1-4.84-6.5-14.12-6.84-14.69a71.33,71.33,0,0,1,10.84,14.69c7,13,25,23,39,22Z"/><path class="cls-14" d="M106.85,162.5c19.38,6,40.39,18.95,52.2,26.87l-.7-.37a26.65,26.65,0,0,0-5.93-2.39h0a17.88,17.88,0,0,0-2-.4h0c-18.46-8.55-42.49-17.69-42.49-17.69a48.14,48.14,0,0,0-5-2c-8-3-56-9-56-9,32-3,53,3,53,3C105.5,162,106.85,162.5,106.85,162.5Z"/><path class="cls-16" d="M315.5,146.5A50.5,50.5,0,1,1,265,96q2.16,0,4.26.18A50.5,50.5,0,0,1,315.5,146.5Z"/><path class="cls-17" d="M308.5,144a49,49,0,0,1-73.12,42.66A50.5,50.5,0,0,1,266,96q2.16,0,4.26.18A49,49,0,0,1,308.5,144Z"/><circle class="cls-18" cx="263" cy="144" r="36.5"/><path class="cls-19" d="M257.46,113.66a7.94,7.94,0,0,1,2-2.65,13,13,0,0,0,2-2,2.88,2.88,0,0,0,.26-.39c0-.09,0-.13,0,0a.74.74,0,0,0,.19.46l0,0s0,0-.09,0l-.14-.08-.59-.32c-.2-.1-.43-.16-.64-.24a7.23,7.23,0,0,0-1.33-.36,13.41,13.41,0,0,0-5.94.49,27.12,27.12,0,0,0-5.88,2.6,38.6,38.6,0,0,0-10,8.57,39.35,39.35,0,0,0-6.79,11.34,30.7,30.7,0,0,0-2,12.61,43,43,0,0,0,2.7,12.25,41.93,41.93,0,0,0,6.23,10.85,50.32,50.32,0,0,0,9.34,8.88l0,0a1,1,0,0,1-.93,1.76,30.26,30.26,0,0,1-11.92-7.54,33.46,33.46,0,0,1-9.67-26.28,35.89,35.89,0,0,1,4.25-13.46,67.85,67.85,0,0,1,7.64-11.39,55.52,55.52,0,0,1,10-9.46,28.39,28.39,0,0,1,6.15-3.45,15.94,15.94,0,0,1,7.33-1.24,11,11,0,0,1,1.95.39c.32.1.65.17,1,.3l.92.42.24.11a1.32,1.32,0,0,1,.27.15,3.13,3.13,0,0,1,.7.57,3.06,3.06,0,0,1,.82,2,4.66,4.66,0,0,1-.94,2.69A15,15,0,0,1,262,114a6.22,6.22,0,0,1-3.42,1.33,1.14,1.14,0,0,1-1.21-1.07,1.16,1.16,0,0,1,.09-.53Z"/><path class="cls-19" d="M254.5,125.37a14.17,14.17,0,0,1-4.28-2.22,15.59,15.59,0,0,1-3.45-3.52,10.51,10.51,0,0,1-2-4.87A7.71,7.71,0,0,1,245,112a7.15,7.15,0,0,1,1.17-2.38,1,1,0,0,1,1.79.85l0,.07a6.56,6.56,0,0,0,0,3.65,10.28,10.28,0,0,0,1.76,3.3,37.07,37.07,0,0,0,2.77,3c1,1,2.06,2,3.05,3.08l.05.06a1,1,0,0,1-.06,1.45A1,1,0,0,1,254.5,125.37Z"/><path class="cls-19" d="M252.66,136.25a28.65,28.65,0,0,1-3.29,2.87,29.25,29.25,0,0,1-3.67,2.39,23.09,23.09,0,0,1-4.1,1.78,6.66,6.66,0,0,1-4.6.21,1.07,1.07,0,0,1-.11-1.94l.11-.06a16.35,16.35,0,0,1,3.67-1.19,27.09,27.09,0,0,0,3.66-1.46c1.21-.57,2.39-1.23,3.57-1.92s2.34-1.43,3.44-2.18l0,0a1,1,0,0,1,1.28,1.53Z"/><path class="cls-19" d="M233.25,151.84a14.81,14.81,0,0,1,4.28-3.69,13.33,13.33,0,0,1,5.44-1.77,11.68,11.68,0,0,1,5.62,1,13.39,13.39,0,0,1,1.26.62c.39.25.78.5,1.18.73a7.52,7.52,0,0,1,2.13,1.94,4.91,4.91,0,0,1,1,2.86,7.39,7.39,0,0,1-.62,2.9,17.93,17.93,0,0,1-3.05,4.76,21.18,21.18,0,0,1-8.94,6.17,1,1,0,0,1-1.29-.66,1,1,0,0,1,.25-1l0,0c2.48-2.48,5.36-4.33,8-6.47a16.6,16.6,0,0,0,3.44-3.52,4.8,4.8,0,0,0,.8-2.14,3.09,3.09,0,0,0-.58-2.09,5.72,5.72,0,0,0-.78-.86,7.18,7.18,0,0,0-1-.67c-.37-.2-.75-.38-1.12-.57a9.53,9.53,0,0,0-1.17-.41,10.16,10.16,0,0,0-4.77-.21,19.89,19.89,0,0,0-8.51,4.47l-.08.07a1,1,0,0,1-1.42-1.39Z"/><path class="cls-19" d="M288.51,155.94a13.8,13.8,0,0,0-7.36-4.77,7.49,7.49,0,0,0-4,.05,7.21,7.21,0,0,0-3,2c-1.1,1.08-2.26,2.09-3.39,3.07a20.14,20.14,0,0,0-2.86,2.8,6.1,6.1,0,0,0-.8,1.58l-.36,1.05a13,13,0,0,1-.49,1.27,28.73,28.73,0,0,1-2.64,4.12,12.53,12.53,0,0,0-2,3.77,7,7,0,0,0-.19,1,5.46,5.46,0,0,0,0,1,4,4,0,0,0,.21,1c0,.17.08.29.16.5s.15.41.21.63a5.78,5.78,0,0,1,.16,2.72,8.56,8.56,0,0,1-1,2.39c0,.06,0,.11-.05.12s.07-.09,0-.4a.74.74,0,0,0-.19-.3c0-.05-.13-.09-.12-.09s0,0,.05,0a6.77,6.77,0,0,0,.95,0,16.72,16.72,0,0,0,2.23-.16l2.22-.25c.73-.12,1.45-.33,2.17-.48a29.32,29.32,0,0,0,4.21-1.31,21.09,21.09,0,0,0,2-.88c.65-.33,1.33-.58,2-1a40.1,40.1,0,0,0,3.65-2.3,44.54,44.54,0,0,0,6.47-5.53c.91-1.08,1.94-2.06,2.75-3.22l1.29-1.68c.39-.59.77-1.19,1.17-1.77.2-.3.41-.59.59-.89l.52-.93,1.06-1.87.9-2,.47-1,.38-1,.75-2c.23-.69.38-1.41.57-2.12a27.47,27.47,0,0,0,.8-4.36,29,29,0,0,0-3.49-17.41,27.07,27.07,0,0,0-12.92-11.93,2.32,2.32,0,1,1,1.8-4.28,2.25,2.25,0,0,1,.66.42l0,0a52.91,52.91,0,0,1,11.72,15.07,47.17,47.17,0,0,1,4.94,18.14,41,41,0,0,1,0,4.83c-.05.81-.07,1.63-.17,2.44l-.39,2.42c-.07.4-.12.81-.21,1.22l-.33,1.18-.68,2.39c-.29.77-.62,1.53-.94,2.3l-.49,1.15c-.18.37-.39.73-.58,1.09-.4.73-.82,1.45-1.24,2.18s-.95,1.36-1.44,2a17.31,17.31,0,0,1-1.56,2l-1.7,1.83a33,33,0,0,1-8.05,5.81,38.17,38.17,0,0,1-18.83,4.11,21.27,21.27,0,0,1-2.39-.07,9.59,9.59,0,0,1-1.34-.18,2.72,2.72,0,0,1-.5-.19,1.49,1.49,0,0,1-.36-.24,1.3,1.3,0,0,1-.35-.54,1.47,1.47,0,0,1,0-1,3.08,3.08,0,0,1,.19-.4,5.75,5.75,0,0,0,.89-1.83,3.61,3.61,0,0,0-.06-1.84c0-.15-.1-.31-.15-.47l-.2-.59a6.13,6.13,0,0,1-.31-1.28,9.76,9.76,0,0,1-.09-1.32,9.23,9.23,0,0,1,.15-1.3,17.24,17.24,0,0,1,1.7-4.65,25.26,25.26,0,0,0,1.71-4c.08-.33.12-.53.19-.94l.22-1.18a9.17,9.17,0,0,1,.94-2.68,16.71,16.71,0,0,1,3.42-3.93c1.18-1.06,2.36-2,3.59-3a9,9,0,0,1,5.23-2,10.58,10.58,0,0,1,5.08,1.25,22.19,22.19,0,0,1,4,2.65c1.25,1,2.41,2,3.63,3.06a.66.66,0,1,1-.88,1l-.07-.08Z"/><path class="cls-19" d="M272.44,161.06a43.84,43.84,0,0,1,5.37,5,16.15,16.15,0,0,1,2.33,3.12l.14.26.12.34a2.63,2.63,0,0,1,.1.49,1.15,1.15,0,0,1,0,.4,1.28,1.28,0,0,1-.15.47,1.66,1.66,0,0,1-.44.51,1.31,1.31,0,0,1-.44.2,1.54,1.54,0,0,1-.64.08,1.75,1.75,0,0,1-.24,0l-.17,0-.33-.09-.52-.19-.42-.18-.84-.35a24.73,24.73,0,0,0-6.53-2.15,5.41,5.41,0,0,0-3,.49,6.58,6.58,0,0,0-2.33,2.28l0,0a.42.42,0,0,1-.6.11.43.43,0,0,1-.16-.51,7.11,7.11,0,0,1,2.33-3.14,6.5,6.5,0,0,1,3.91-1.14,21.68,21.68,0,0,1,7.32,1.87l.85.33.41.16.33.11.12,0,.05,0h0l-.2,0a.64.64,0,0,0-.23.12.76.76,0,0,0-.3.34.81.81,0,0,0-.09.26c0,.08,0,.18,0,.17s0,.09,0,0a.11.11,0,0,1,0-.08l-.07-.14a9.63,9.63,0,0,0-.89-1.33c-.33-.47-.69-.93-1.06-1.39-1.47-1.85-3-3.69-4.49-5.62h0a.65.65,0,0,1,.12-.89A.63.63,0,0,1,272.44,161.06Z"/><path class="cls-19" d="M269,127.84a7.81,7.81,0,0,0,2.89-1.89,9.38,9.38,0,0,0,1-1.4,10.37,10.37,0,0,1,1.55-1.82,8.25,8.25,0,0,1,4.29-2.11,5.22,5.22,0,0,1,4.59,1.37.63.63,0,0,1-.63,1h0a5.07,5.07,0,0,0-3.34.08,8.53,8.53,0,0,0-2.88,1.81,8.84,8.84,0,0,0-1.16,1.29,8.55,8.55,0,0,1-1.68,1.73,6.11,6.11,0,0,1-4.6,1.24.67.67,0,0,1-.55-.75.65.65,0,0,1,.42-.52Z"/><path class="cls-19" d="M290,126.23a26.58,26.58,0,0,1,1.43,4.4,23.78,23.78,0,0,1,.65,4.68,10.68,10.68,0,0,1-.94,5.18,5.15,5.15,0,0,1-2.35,2.38,6,6,0,0,1-1.59.48l-1.22.14a48.34,48.34,0,0,1-9.21-.36,74.19,74.19,0,0,1-8.88-1.64,1,1,0,0,1,.29-2h0l8.84.39a72.21,72.21,0,0,0,8.6-.08l1-.13a1.77,1.77,0,0,0,.53-.16,1.62,1.62,0,0,0,.72-.76,8.7,8.7,0,0,0,.73-3.49,55.29,55.29,0,0,0-.52-8.51v0a1,1,0,0,1,1.93-.5Z"/><path class="cls-20" d="M145.49,71.07,140,68.64a71.27,71.27,0,0,1,121.55-14.7l-4.75,3.67A65.26,65.26,0,0,0,145.49,71.07Z"/><polygon class="cls-21" points="243.56 59.76 269.5 74.67 269.45 44.76 243.56 59.76"/></g></g></svg>