<svg xmlns="http://www.w3.org/2000/svg" xmlns:xlink="http://www.w3.org/1999/xlink" viewBox="0 0 114.69 114.69"><defs><style>.cls-1{fill:#fff;stroke-miterlimit:10;stroke-width:2px;stroke:url(#linear-gradient);}.cls-2{fill:url(#linear-gradient-2);}</style><linearGradient id="linear-gradient" x1="57.35" x2="57.35" y2="114.69" gradientUnits="userSpaceOnUse"><stop offset="0" stop-color="#05c65b"/><stop offset="1" stop-color="#00aa47"/></linearGradient><linearGradient id="linear-gradient-2" x1="43.49" y1="30.08" x2="71.29" y2="84.63" xlink:href="#linear-gradient"/></defs><g id="Layer_2" data-name="Layer 2"><g id="Layer_1-2" data-name="Layer 1"><circle class="cls-1" cx="57.35" cy="57.35" r="56.35"/><path class="cls-2" d="M54,88.5a4.39,4.39,0,0,1-2-1.17,3.79,3.79,0,0,1-.87-1.89c-.05-.35-.11-.7-.17-1-.15-.89-.31-1.81-.44-2.71a1.14,1.14,0,0,0-.87-1,20.53,20.53,0,0,1-3.22-1.33,1.11,1.11,0,0,0-.53-.14,1.12,1.12,0,0,0-.69.26C44.09,80.23,43,81,42,81.68a3.87,3.87,0,0,1-2.22.78,3.62,3.62,0,0,1-2.55-1.16c-1.18-1.15-2.37-2.34-3.66-3.66a3.49,3.49,0,0,1-.37-4.82c.68-1,1.42-2,2.19-3a1,1,0,0,0,.1-1.22,19.31,19.31,0,0,1-1.38-3.27,1.25,1.25,0,0,0-1.1-.94c-1.26-.19-2.53-.41-3.76-.63a3.49,3.49,0,0,1-3.07-3.61c0-1.7,0-3.47,0-5.24a3.5,3.5,0,0,1,3.12-3.63l1-.17c.9-.15,1.83-.31,2.75-.45A1,1,0,0,0,34,49.9a24.21,24.21,0,0,1,1.46-3.58,1,1,0,0,0-.13-1.1c-.71-1-1.46-2-2.22-3.1a3.55,3.55,0,0,1,.42-5c1-1,2.28-2.28,3.54-3.52a3.67,3.67,0,0,1,2.61-1.21,3.94,3.94,0,0,1,2.3.82l.26.19c.87.62,1.76,1.26,2.63,1.9a1.33,1.33,0,0,0,.81.32,1.29,1.29,0,0,0,.63-.18,17.69,17.69,0,0,1,3.21-1.35,1.21,1.21,0,0,0,.89-1.07c0-.27.09-.54.13-.81v0c.18-1.12.36-2.27.61-3.37a3.31,3.31,0,0,1,3.12-2.61c1,0,2.07,0,3.05,0s2,0,3,.05a3.41,3.41,0,0,1,3.22,3c.21,1.18.43,2.46.63,3.76a1.12,1.12,0,0,0,.83,1,21.51,21.51,0,0,1,3.51,1.44,1.2,1.2,0,0,0,.55.15,1.16,1.16,0,0,0,.72-.27c1-.75,2.11-1.51,3.06-2.18A4,4,0,0,1,75,32.35a3.63,3.63,0,0,1,2.57,1.17c1.26,1.24,2.49,2.47,3.65,3.65A3.48,3.48,0,0,1,81.61,42c-.77,1.11-1.49,2.11-2.18,3a1.17,1.17,0,0,0-.13,1.34,18.93,18.93,0,0,1,1.35,3.28,1.21,1.21,0,0,0,1.08.89c1.4.21,2.63.42,3.75.63a3.39,3.39,0,0,1,2.9,2.61,1.27,1.27,0,0,0,.11.26v6.71a1.17,1.17,0,0,0-.11.25,3.47,3.47,0,0,1-3,2.63c-1.47.26-2.66.46-3.75.61a1.16,1.16,0,0,0-1,.87,19.11,19.11,0,0,1-1.36,3.27,1.18,1.18,0,0,0,.14,1.39c.71,1,1.42,2,2.1,2.93l0,.06a3.52,3.52,0,0,1-.36,4.83C80,78.76,78.78,80,77.55,81.2A3.69,3.69,0,0,1,75,82.37a3.87,3.87,0,0,1-2.25-.8c-1-.71-2.06-1.46-3.1-2.22a1.17,1.17,0,0,0-.66-.24,1.07,1.07,0,0,0-.5.13A21.42,21.42,0,0,1,65,80.67a1.11,1.11,0,0,0-.81,1c-.17,1.1-.37,2.3-.62,3.76a3.49,3.49,0,0,1-2.16,2.8l-.52.2-.18.07Zm3.4-2.72q1.18,0,2.31,0h0A1.13,1.13,0,0,0,61,84.7c.13-.91.29-1.83.44-2.72v0c.12-.69.24-1.41.35-2.12A1.51,1.51,0,0,1,63,78.48a21.14,21.14,0,0,0,5.2-2.16,1.77,1.77,0,0,1,.91-.28,1.9,1.9,0,0,1,1.09.41c.65.48,1.32,1,2,1.42s1.33.94,2,1.42a1.26,1.26,0,0,0,.77.3,1.15,1.15,0,0,0,.84-.42c1.2-1.26,2.3-2.35,3.34-3.35a1.13,1.13,0,0,0,.12-1.71c-.42-.57-.84-1.17-1.25-1.74S77,71,76.51,70.31a1.77,1.77,0,0,1-.14-2.21,17.83,17.83,0,0,0,2-4.87A1.85,1.85,0,0,1,80.2,61.7c1-.12,2-.29,2.93-.46l1.7-.28a1,1,0,0,0,1-1.16c0-.58,0-1.17,0-1.74V56.65c0-.52,0-1,0-1.56a1.14,1.14,0,0,0-1.13-1.36c-.83-.12-1.68-.27-2.49-.41h0c-.71-.12-1.44-.25-2.17-.36a1.69,1.69,0,0,1-1.56-1.41,19.2,19.2,0,0,0-2.1-5,1.66,1.66,0,0,1,.13-2.05c.53-.71,1-1.44,1.54-2.14s.86-1.22,1.3-1.82A1.06,1.06,0,0,0,79.19,39c-1.23-1.2-2.36-2.32-3.43-3.43a1.12,1.12,0,0,0-.81-.4,1.25,1.25,0,0,0-.75.29c-.67.5-1.36,1-2,1.47s-1.31.94-2,1.42a1.77,1.77,0,0,1-1,.39,1.64,1.64,0,0,1-.85-.26,22.32,22.32,0,0,0-5.44-2.22,1.49,1.49,0,0,1-1.19-1.33c-.13-.8-.27-1.6-.4-2.38s-.3-1.73-.43-2.6a1,1,0,0,0-1.13-1h0c-1,0-1.77,0-2.51,0l-2.29,0h0A1.1,1.1,0,0,0,53.64,30c-.11.69-.23,1.38-.34,2.05-.15.86-.31,1.75-.43,2.63a1.79,1.79,0,0,1-1.45,1.68,19.48,19.48,0,0,0-5,2.09,1.7,1.7,0,0,1-2.1-.11c-.69-.52-1.4-1-2.09-1.51S41,36,40.45,35.51a1.28,1.28,0,0,0-.77-.3,1.12,1.12,0,0,0-.83.42c-1,1.08-2.15,2.19-3.39,3.39a1.08,1.08,0,0,0-.13,1.6c.44.59.87,1.21,1.29,1.8h0c.5.71,1,1.44,1.55,2.15a1.69,1.69,0,0,1,.14,2.1,18.92,18.92,0,0,0-2,5,1.76,1.76,0,0,1-1.66,1.45c-.93.13-1.86.29-2.76.44l-1.93.32a1.07,1.07,0,0,0-1,1.2c0,1.61,0,3.23,0,4.79a1.08,1.08,0,0,0,1,1.23l2.23.38c.86.15,1.75.3,2.63.43a1.65,1.65,0,0,1,1.5,1.33,20.51,20.51,0,0,0,1.58,4.07l.13.25L42,63.64l0,0,.21-.22.74-.75c.63-.65,1.23-1.26,1.86-1.87a1.24,1.24,0,0,0,.37-1.25,12.37,12.37,0,0,1,4.31-12.11,12.19,12.19,0,0,1,8.07-3.12,14.48,14.48,0,0,1,4.48.76c.71.23,1.14.55,1.23.94s-.14.87-.68,1.41L56.88,53.1a1.12,1.12,0,0,0-.42,1.2c.27,1,.5,1.93.69,2.75a.91.91,0,0,0,.8.77,24.92,24.92,0,0,1,2.51.62,1.55,1.55,0,0,0,.49.09,1.26,1.26,0,0,0,.94-.46c2.1-2.13,4.22-4.22,5.84-5.81a1.49,1.49,0,0,1,1-.5c.44,0,.82.34,1.06,1a12.2,12.2,0,0,1,.81,3.83,12.92,12.92,0,0,1-3.56,9.58,12.73,12.73,0,0,1-9.28,3.94,14.49,14.49,0,0,1-2.45-.22l-.11,0a1.54,1.54,0,0,0-.3,0,.64.64,0,0,0-.47.19c-.66.68-1.34,1.35-2,2l-1.08,1.08,0,0-3.79,3.83.26.13a19.93,19.93,0,0,0,3.75,1.39A1.68,1.68,0,0,1,53,80c.11.75.24,1.51.36,2.24s.28,1.66.4,2.5A1.1,1.1,0,0,0,55,85.81h0Zm.35-39.2a9.7,9.7,0,0,0-2.08.24,10.58,10.58,0,0,0-8.18,13A2,2,0,0,1,46.82,62l-1.36,1.35c-3.62,3.58-4.08,4-7.22,7.21h0c-.46.62-.89,1.23-1.38,1.92L35.5,74.33a1.06,1.06,0,0,0,.14,1.56C37,77.17,38,78.24,39,79.28a1.22,1.22,0,0,0,.85.43,1.32,1.32,0,0,0,.76-.3c.62-.46,1.27-.91,1.89-1.36h0c.68-.48,1.37-1,2-1.46a2.61,2.61,0,0,1,.3-.2h0l.28-.27c2.92-2.92,3.53-3.52,8.16-8.17a1.46,1.46,0,0,1,1.11-.49,3.63,3.63,0,0,1,.77.11,10.7,10.7,0,0,0,10.5-3.22A10.63,10.63,0,0,0,68.39,56c0-.09,0-.18-.06-.32s0-.21-.08-.37l-.09-.39-.27.29-1.48,1.49c-1.13,1.13-2.19,2.19-3.21,3.32a2.22,2.22,0,0,1-1.71.89,3,3,0,0,1-1-.18c-1.06-.34-2.15-.59-3.22-.84l-.9-.21a1.33,1.33,0,0,1-1.08-1.09c-.35-1.49-.73-3.08-1.17-4.67a1.51,1.51,0,0,1,.46-1.63c1.2-1.18,2.37-2.35,3.61-3.59.49-.5,1-1,1.5-1.5l.25-.25-.35-.1A6.8,6.8,0,0,0,57.72,46.58Z"/></g></g></svg>