<svg xmlns="http://www.w3.org/2000/svg" xmlns:xlink="http://www.w3.org/1999/xlink" viewBox="0 0 114.69 114.69"><defs><style>.cls-1{fill:#fff;stroke-miterlimit:10;stroke-width:2px;stroke:url(#linear-gradient);}.cls-2{fill:url(#linear-gradient-2);}.cls-3{fill:url(#linear-gradient-3);}.cls-4{fill:url(#linear-gradient-4);}.cls-5{fill:url(#linear-gradient-5);}.cls-6{fill:url(#linear-gradient-6);}</style><linearGradient id="linear-gradient" x1="57.35" x2="57.35" y2="114.69" gradientUnits="userSpaceOnUse"><stop offset="0" stop-color="#05c65b"/><stop offset="1" stop-color="#00aa47"/></linearGradient><linearGradient id="linear-gradient-2" x1="68.83" y1="55.62" x2="83.12" y2="83.66" xlink:href="#linear-gradient"/><linearGradient id="linear-gradient-3" x1="50.28" y1="64.49" x2="60.57" y2="84.68" xlink:href="#linear-gradient"/><linearGradient id="linear-gradient-4" x1="31.27" y1="71.31" x2="38.48" y2="85.46" xlink:href="#linear-gradient"/><linearGradient id="linear-gradient-5" x1="47.72" y1="41.5" x2="53.88" y2="53.6" xlink:href="#linear-gradient"/><linearGradient id="linear-gradient-6" x1="72.5" y1="29.09" x2="78.28" y2="40.44" xlink:href="#linear-gradient"/></defs><g id="Layer_2" data-name="Layer 2"><g id="Layer_1-2" data-name="Layer 1"><circle class="cls-1" cx="57.35" cy="57.35" r="56.35"/><rect class="cls-2" x="69.89" y="54.42" width="12.18" height="30.44" rx="1.71"/><rect class="cls-3" x="49.34" y="64.31" width="12.18" height="20.55" rx="1.71"/><rect class="cls-4" x="28.79" y="71.92" width="12.18" height="12.94" rx="1.71"/><path class="cls-5" d="M29.08,62.47a.3.3,0,0,1-.33-.51l9.17-7.08Q42.92,51,48,47.26c1.68-1.26,3.39-2.49,5.09-3.73s3.4-2.47,5.12-3.68c3.43-2.43,6.88-4.83,10.38-7.15l2.66-1.77,3.52,5.43-2.7,1.71c-3.55,2.24-7.15,4.41-10.77,6.55-1.81,1.08-3.63,2.12-5.46,3.17s-3.64,2.1-5.48,3.12Q44.87,54,39.29,57Z"/><path class="cls-6" d="M73.7,44.14l7.88-15.42a.6.6,0,0,0-.57-.88l-17.3.88a.62.62,0,0,0-.48.94L72.65,44.2A.61.61,0,0,0,73.7,44.14Z"/></g></g></svg>