<svg xmlns="http://www.w3.org/2000/svg" xmlns:xlink="http://www.w3.org/1999/xlink" viewBox="0 0 114.69 114.69"><defs><style>.cls-1{fill:#fff;stroke-miterlimit:10;stroke-width:2px;stroke:url(#linear-gradient);}.cls-2{fill:url(#linear-gradient-2);}.cls-3{fill:url(#linear-gradient-3);}.cls-4{fill:url(#linear-gradient-4);}</style><linearGradient id="linear-gradient" x1="57.35" x2="57.35" y2="114.69" gradientUnits="userSpaceOnUse"><stop offset="0" stop-color="#05c65b"/><stop offset="1" stop-color="#00aa47"/></linearGradient><linearGradient id="linear-gradient-2" x1="42.56" y1="31.16" x2="71.85" y2="82.37" xlink:href="#linear-gradient"/><linearGradient id="linear-gradient-3" x1="42.56" y1="31.16" x2="71.85" y2="82.37" xlink:href="#linear-gradient"/><linearGradient id="linear-gradient-4" x1="41.99" y1="31.49" x2="71.28" y2="82.7" xlink:href="#linear-gradient"/></defs><g id="Layer_2" data-name="Layer 2"><g id="Layer_1-2" data-name="Layer 1"><circle class="cls-1" cx="57.35" cy="57.35" r="56.35"/><path class="cls-2" d="M57.35,83.21A26.23,26.23,0,1,1,79.17,71.49l2.89,2A29.7,29.7,0,1,0,57.35,86.71H58l-.41-3.5Z"/><path class="cls-3" d="M70.54,65.54A15.71,15.71,0,1,0,41.63,57a15.73,15.73,0,0,0,14.74,15.7L56,69.16a12.23,12.23,0,1,1,11.72-5.6Z"/><path class="cls-4" d="M82.14,76.71,60.65,61.9a1.75,1.75,0,0,0-2.73,1.64L61,89.83a1.73,1.73,0,0,0,1.38,1.5,1.45,1.45,0,0,0,.35,0,1.76,1.76,0,0,0,1.52-.88L70.15,80.2l11-.3a1.75,1.75,0,0,0,.94-3.19Zm-13.07,0a1.75,1.75,0,0,0-1.47.88l-3.72,6.53L61.85,67l13.9,9.59Z"/></g></g></svg>