<svg xmlns="http://www.w3.org/2000/svg" xmlns:xlink="http://www.w3.org/1999/xlink" viewBox="0 0 114.69 114.69"><defs><style>.cls-1{fill:#fff;stroke-miterlimit:10;stroke-width:2px;stroke:url(#linear-gradient);}.cls-2{fill:url(#linear-gradient-2);}.cls-3{fill:url(#linear-gradient-3);}.cls-4{fill:url(#linear-gradient-4);}.cls-5{fill:url(#linear-gradient-6);}.cls-6{fill:url(#linear-gradient-7);}.cls-7{fill:url(#linear-gradient-8);}</style><linearGradient id="linear-gradient" x1="57.35" x2="57.35" y2="114.69" gradientUnits="userSpaceOnUse"><stop offset="0" stop-color="#05c65b"/><stop offset="1" stop-color="#00aa47"/></linearGradient><linearGradient id="linear-gradient-2" x1="37.25" y1="35.81" x2="77.44" y2="79" xlink:href="#linear-gradient"/><linearGradient id="linear-gradient-3" x1="37.26" y1="35.81" x2="77.44" y2="79" xlink:href="#linear-gradient"/><linearGradient id="linear-gradient-4" x1="37.29" y1="35.78" x2="77.48" y2="78.97" xlink:href="#linear-gradient"/><linearGradient id="linear-gradient-6" x1="33.44" y1="39.36" x2="73.63" y2="82.55" xlink:href="#linear-gradient"/><linearGradient id="linear-gradient-7" x1="39.6" y1="33.63" x2="79.79" y2="76.82" xlink:href="#linear-gradient"/><linearGradient id="linear-gradient-8" x1="58.92" y1="15.65" x2="99.11" y2="58.84" xlink:href="#linear-gradient"/></defs><g id="Layer_2" data-name="Layer 2"><g id="Layer_1-2" data-name="Layer 1"><circle class="cls-1" cx="57.35" cy="57.35" r="56.35"/><path class="cls-2" d="M83.38,44l-2.47,2.16a26.25,26.25,0,1,1-4.48-6.59l2.4-2.09A29.19,29.19,0,1,0,83.38,44Z"/><path class="cls-3" d="M57.29,47.48a9.87,9.87,0,1,1-9.86,9.87,9.88,9.88,0,0,1,9.86-9.87m0-3.59A13.46,13.46,0,1,0,70.75,57.35,13.46,13.46,0,0,0,57.29,43.89Z"/><path class="cls-4" d="M72.5,74.76a1.42,1.42,0,0,1-1-.42L64,66.89a1.42,1.42,0,1,1,2-2l7.45,7.46a1.42,1.42,0,0,1-1,2.42Z"/><path class="cls-3" d="M56.46,62.54a1.18,1.18,0,0,1-.34-.83V53a1.18,1.18,0,0,1,2.35,0v8.73a1.18,1.18,0,0,1-1.18,1.18A1.21,1.21,0,0,1,56.46,62.54Z"/><path class="cls-5" d="M51.18,62.54a1.15,1.15,0,0,1-.35-.83V57a1.24,1.24,0,0,1,1-1.25,1.18,1.18,0,0,1,1.36,1.17V61.6a1.24,1.24,0,0,1-1.3,1.28A1.11,1.11,0,0,1,51.18,62.54Z"/><path class="cls-6" d="M61.75,62.54a1.18,1.18,0,0,1-.34-.83V55a1.22,1.22,0,0,1,1-1.24A1.18,1.18,0,0,1,63.76,55V61.6a1.25,1.25,0,0,1-1.31,1.28A1.14,1.14,0,0,1,61.75,62.54Z"/><path class="cls-7" d="M92.67,32,91.44,43.76a1.58,1.58,0,0,1-1.68,1.41H89.7a1.6,1.6,0,0,1-1.41-1.75l.79-7.49a1.47,1.47,0,0,0,0-.21l-17,14.8a14.31,14.31,0,0,0-1.54-2.86L87,33.33l-.12,0-7.62-.25a1.58,1.58,0,1,1,.1-3.16l11.79.38A1.57,1.57,0,0,1,92.67,32Z"/></g></g></svg>