<svg xmlns="http://www.w3.org/2000/svg" xmlns:xlink="http://www.w3.org/1999/xlink" viewBox="0 0 114.69 114.69"><defs><style>.cls-1{fill:#fff;stroke-miterlimit:10;stroke-width:2px;stroke:url(#linear-gradient);}.cls-2{fill:url(#linear-gradient-2);}.cls-3{fill:url(#linear-gradient-3);}</style><linearGradient id="linear-gradient" y1="57.35" x2="114.69" y2="57.35" gradientUnits="userSpaceOnUse"><stop offset="0" stop-color="#05c65b"/><stop offset="1" stop-color="#00aa47"/></linearGradient><linearGradient id="linear-gradient-2" x1="46.64" y1="30.92" x2="70.89" y2="78.51" xlink:href="#linear-gradient"/><linearGradient id="linear-gradient-3" x1="47.08" y1="30.69" x2="71.33" y2="78.28" xlink:href="#linear-gradient"/></defs><g id="Layer_2" data-name="Layer 2"><g id="Layer_1-2" data-name="Layer 1"><circle class="cls-1" cx="57.35" cy="57.35" r="56.35"/><path class="cls-2" d="M80.06,52.75C80,58.21,77.12,64.4,73.17,70.16A74.94,74.94,0,0,1,58.71,85.72c-.76.61-1.34,1.16-2.4.27-8.16-6.9-15.37-14.57-19.56-24.6C31.56,49,36.18,35.89,47.57,30.46,62.65,23.27,80,34.24,80.06,52.75Zm-2.3-1.54A20.41,20.41,0,0,0,50.61,31.78c-11.15,4-16.45,15.73-12.16,27.36C42,68.88,48.88,76.24,56.45,83c1,.9,1.52.23,2.17-.33a69.44,69.44,0,0,0,14.3-16.56C75.68,61.56,77.68,56.68,77.76,51.21Z"/><path class="cls-3" d="M57.45,41.34a9.39,9.39,0,0,1,9.46,9.53,9.57,9.57,0,1,1-19.13-.21A9.44,9.44,0,0,1,57.45,41.34Zm0,16.68a7.08,7.08,0,0,0,7.11-7.17,7.25,7.25,0,1,0-14.49,0A7.1,7.1,0,0,0,57.48,58Z"/></g></g></svg>