<svg xmlns="http://www.w3.org/2000/svg" xmlns:xlink="http://www.w3.org/1999/xlink" viewBox="0 0 404 252"><defs><style>.cls-1{fill:#e4fcdc;}.cls-2,.cls-4{fill:#fff;}.cls-3{fill:url(#radial-gradient);}.cls-4{stroke:#3d985f;stroke-width:10px;}.cls-4,.cls-8{stroke-miterlimit:10;}.cls-5{fill:#ddffdc;}.cls-6{fill:#58c280;}.cls-7{fill:url(#linear-gradient);}.cls-8{fill:none;stroke:#58c280;stroke-linecap:round;stroke-width:2px;}.cls-9{fill:#4cb54c;}</style><radialGradient id="radial-gradient" cx="17.33" cy="217" r="225.59" gradientTransform="translate(181.87 188.31) scale(1.16 0.15)" gradientUnits="userSpaceOnUse"><stop offset="0" stop-color="#58c280" stop-opacity="0.5"/><stop offset="1" stop-color="#cbf8cf" stop-opacity="0"/></radialGradient><linearGradient id="linear-gradient" x1="150" y1="89.56" x2="150" y2="120.51" gradientTransform="matrix(1, 0, 0, 1, 0, 0)" xlink:href="#radial-gradient"/></defs><g id="Layer_2" data-name="Layer 2"><g id="Layer_1-2" data-name="Layer 1"><rect class="cls-1" width="404" height="252"/><path class="cls-2" d="M85.12,142.68s0,.08,0,.12a2.57,2.57,0,0,1-2.74,2.2H15.16c-1.76,0-3.12-1.4-2.68-2.86,1.67-5.5,7.55-9.57,14.55-9.57.56,0,1.11,0,1.65.08,0-.14,0-.27,0-.41-.2-7,5.43-13.18,13.53-14.56,9.58-1.63,18.13,3.56,20.14,10.89a20.15,20.15,0,0,1,7.27-.78C78.51,128.46,85.38,135.08,85.12,142.68Z"/><path class="cls-2" d="M318.13,72.87a.41.41,0,0,0,0,.11,2.36,2.36,0,0,0,2.52,2h61.71c1.63,0,2.87-1.29,2.47-2.62-1.54-5.06-6.94-8.8-13.37-8.8a15.11,15.11,0,0,0-1.51.08c0-.13,0-.25,0-.38.19-6.45-5-12.1-12.42-13.37-8.8-1.5-16.65,3.27-18.49,10a18.3,18.3,0,0,0-6.68-.71C324.2,59.81,317.89,65.89,318.13,72.87Z"/><ellipse class="cls-3" cx="202" cy="221.5" rx="191" ry="13.28"/><rect class="cls-4" x="73.5" y="38.19" width="257" height="180.62" rx="10.63"/><rect class="cls-5" x="219" y="61.5" width="87" height="69" rx="5.9"/><path class="cls-6" d="M284.8,92.43H265.07V73.57A22.49,22.49,0,0,1,284.8,92.43Z"/><path class="cls-6" d="M284.93,98.43A22.5,22.5,0,1,1,259.07,73.7V98.43Z"/><rect class="cls-5" x="98" y="61.5" width="108" height="69" rx="5.9"/><path class="cls-7" d="M197.5,77.81v40.44h-95v-2c4-3.74,30.34-28.22,40.5-24.52,11,4,15,8,19,5S187.29,79.23,197.5,77.81Z"/><path class="cls-8" d="M198,77.75l-.5.06c-10.21,1.42-31.57,16-35.5,18.94s-8-1-19-5c-10.16-3.7-36.55,20.78-40.5,24.52l-.5.48"/><circle class="cls-9" cx="138.26" cy="91.39" r="3.26"/><circle class="cls-9" cx="197.74" cy="78.11" r="3.26"/><rect class="cls-5" x="98" y="142.5" width="94" height="53" rx="5.9"/><rect class="cls-6" x="113.5" y="168.5" width="9" height="17" rx="1.22"/><rect class="cls-6" x="131.5" y="160.5" width="9" height="25" rx="1.22"/><rect class="cls-6" x="149.5" y="170.5" width="9" height="15" rx="1.22"/><rect class="cls-6" x="167.5" y="157.5" width="9" height="28" rx="1.22"/><rect class="cls-5" x="205" y="142.5" width="101" height="53" rx="5.9"/><rect class="cls-6" x="219" y="157.5" width="68" height="6" rx="3"/><rect class="cls-6" x="219" y="174.5" width="54" height="6" rx="3"/></g></g></svg>