<svg xmlns="http://www.w3.org/2000/svg" xmlns:xlink="http://www.w3.org/1999/xlink" viewBox="0 0 420.04 777"><defs><style>.cls-1{fill:url(#linear-gradient);}.cls-2{fill:url(#linear-gradient-2);}.cls-3{fill:url(#linear-gradient-3);}.cls-4{fill:url(#linear-gradient-4);}.cls-5{fill:url(#linear-gradient-5);}.cls-6{fill:url(#linear-gradient-6);}.cls-7{fill:url(#linear-gradient-7);}.cls-8{fill:url(#linear-gradient-8);}.cls-9{fill:url(#linear-gradient-9);}.cls-10{fill:url(#linear-gradient-10);}.cls-11{fill:url(#linear-gradient-11);}.cls-12{fill:url(#linear-gradient-12);}.cls-13{fill:url(#linear-gradient-13);}.cls-14{fill:url(#linear-gradient-14);}.cls-15{fill:url(#linear-gradient-15);}.cls-16{fill:url(#linear-gradient-16);}.cls-17{fill:url(#linear-gradient-17);}.cls-18{fill:url(#linear-gradient-18);}.cls-19{fill:url(#linear-gradient-19);}.cls-20{fill:url(#linear-gradient-20);}.cls-21{fill:url(#linear-gradient-21);}.cls-22{fill:url(#linear-gradient-22);}.cls-23{fill:url(#linear-gradient-23);}.cls-24{fill:url(#linear-gradient-24);}.cls-25{fill:url(#linear-gradient-25);}.cls-26{fill:url(#linear-gradient-26);}.cls-27{fill:url(#linear-gradient-27);}.cls-28{fill:url(#linear-gradient-28);}.cls-29{fill:url(#linear-gradient-29);}.cls-30{fill:url(#linear-gradient-30);}.cls-31{fill:url(#linear-gradient-31);}.cls-32{fill:url(#linear-gradient-32);}.cls-33{fill:url(#linear-gradient-33);}.cls-34{fill:url(#linear-gradient-34);}.cls-35{fill:url(#linear-gradient-35);}.cls-36{fill:url(#linear-gradient-36);}.cls-37{fill:url(#linear-gradient-37);}.cls-38{fill:url(#linear-gradient-38);}.cls-39{fill:url(#linear-gradient-39);}.cls-40{fill:url(#linear-gradient-40);}.cls-41{fill:url(#linear-gradient-41);}.cls-42{fill:url(#linear-gradient-42);}.cls-43{fill:url(#linear-gradient-43);}.cls-44{fill:url(#linear-gradient-44);}.cls-45{fill:url(#linear-gradient-45);}.cls-46{fill:url(#linear-gradient-46);}.cls-47{fill:url(#linear-gradient-47);}.cls-48{fill:url(#linear-gradient-48);}.cls-49{fill:url(#linear-gradient-49);}.cls-50{fill:url(#linear-gradient-50);}.cls-51{fill:url(#linear-gradient-51);}.cls-52{fill:url(#linear-gradient-52);}.cls-53{fill:#82de91;}.cls-54{fill:#e7ffdd;}.cls-55{fill:#e1ffed;}.cls-56{fill:url(#linear-gradient-53);}.cls-57{fill:#106927;}.cls-58{fill:#019f26;}.cls-59{fill:#027a23;}</style><linearGradient id="linear-gradient" x1="210" y1="-68.77" x2="210" y2="537.34" gradientUnits="userSpaceOnUse"><stop offset="0" stop-color="#fff"/><stop offset="0.31" stop-color="#e9ffff"/><stop offset="0.39" stop-color="#e6fef9"/><stop offset="0.49" stop-color="#defce9"/><stop offset="0.61" stop-color="#d0f8ce"/><stop offset="0.62" stop-color="#cff8cc"/><stop offset="0.69" stop-color="#c2f4c2"/><stop offset="0.81" stop-color="#a0eba8"/><stop offset="0.98" stop-color="#6adc7f"/><stop offset="1" stop-color="#64da7a"/></linearGradient><linearGradient id="linear-gradient-2" x1="210" y1="338.82" x2="210" y2="719.43" xlink:href="#linear-gradient"/><linearGradient id="linear-gradient-3" x1="316.66" y1="192.66" x2="380.86" y2="192.66" gradientUnits="userSpaceOnUse"><stop offset="0" stop-color="#fff" stop-opacity="0.05"/><stop offset="1" stop-color="#fff" stop-opacity="0.2"/></linearGradient><linearGradient id="linear-gradient-4" x1="1312.65" y1="-1331.48" x2="2057.73" y2="-1331.48" gradientTransform="translate(-1105.91 -1480.71) rotate(90)" xlink:href="#linear-gradient-3"/><linearGradient id="linear-gradient-5" x1="1315.26" y1="-1451.59" x2="2057.67" y2="-1451.59" gradientTransform="translate(-1105.91 -1480.71) rotate(90)" xlink:href="#linear-gradient-3"/><linearGradient id="linear-gradient-6" x1="1312.96" y1="-1434.07" x2="2057.4" y2="-1434.07" gradientTransform="translate(-1105.91 -1480.71) rotate(90)" xlink:href="#linear-gradient-3"/><linearGradient id="linear-gradient-7" x1="1315.92" y1="-1331.54" x2="2057.36" y2="-1331.54" gradientTransform="translate(-1105.91 -1480.71) rotate(90)" xlink:href="#linear-gradient-3"/><linearGradient id="linear-gradient-8" x1="1317.12" y1="-1372.01" x2="2057.59" y2="-1372.01" gradientTransform="translate(-1105.91 -1480.71) rotate(90)" xlink:href="#linear-gradient-3"/><linearGradient id="linear-gradient-9" x1="1317.95" y1="-1465.94" x2="2057.67" y2="-1465.94" gradientTransform="translate(-1105.91 -1480.71) rotate(90)" xlink:href="#linear-gradient-3"/><linearGradient id="linear-gradient-10" x1="1318.31" y1="-1331.43" x2="2057.87" y2="-1331.43" gradientTransform="translate(-1105.91 -1480.71) rotate(90)" xlink:href="#linear-gradient-3"/><linearGradient id="linear-gradient-11" x1="1319.2" y1="-1500.92" x2="2057.9" y2="-1500.92" gradientTransform="translate(-1105.91 -1480.71) rotate(90)" xlink:href="#linear-gradient-3"/><linearGradient id="linear-gradient-12" x1="1314.94" y1="-1421.63" x2="2055.18" y2="-1421.63" gradientTransform="translate(-1105.91 -1480.71) rotate(90)" xlink:href="#linear-gradient-3"/><linearGradient id="linear-gradient-13" x1="1314.94" y1="-1285.28" x2="2055.18" y2="-1285.28" gradientTransform="translate(-1105.91 -1480.71) rotate(90)" xlink:href="#linear-gradient-3"/><linearGradient id="linear-gradient-14" x1="1334.27" y1="-1351.75" x2="2056.3" y2="-1351.75" gradientTransform="translate(-1105.91 -1480.71) rotate(90)" xlink:href="#linear-gradient-3"/><linearGradient id="linear-gradient-15" x1="-1.97" y1="240.07" x2="27.09" y2="240.07" xlink:href="#linear-gradient-3"/><linearGradient id="linear-gradient-16" x1="115.56" y1="209.2" x2="129.28" y2="209.2" xlink:href="#linear-gradient-3"/><linearGradient id="linear-gradient-17" x1="1319.85" y1="-1161.68" x2="2062.26" y2="-1161.68" gradientTransform="translate(-1105.91 -1480.71) rotate(90)" xlink:href="#linear-gradient-3"/><linearGradient id="linear-gradient-18" x1="1315.92" y1="-1267.11" x2="2057.36" y2="-1267.11" gradientTransform="translate(-1105.91 -1480.71) rotate(90)" xlink:href="#linear-gradient-3"/><linearGradient id="linear-gradient-19" x1="1317.12" y1="-1233.32" x2="2057.59" y2="-1233.32" gradientTransform="translate(-1105.91 -1480.71) rotate(90)" xlink:href="#linear-gradient-3"/><linearGradient id="linear-gradient-20" x1="1322.54" y1="-1152.75" x2="2062.26" y2="-1152.75" gradientTransform="translate(-1105.91 -1480.71) rotate(90)" xlink:href="#linear-gradient-3"/><linearGradient id="linear-gradient-21" x1="1318.25" y1="-1267.23" x2="2057.87" y2="-1267.23" gradientTransform="translate(-1105.91 -1480.71) rotate(90)" xlink:href="#linear-gradient-3"/><linearGradient id="linear-gradient-22" x1="1323.77" y1="-1119.45" x2="2062.49" y2="-1119.45" gradientTransform="translate(-1105.91 -1480.71) rotate(90)" xlink:href="#linear-gradient-3"/><linearGradient id="linear-gradient-23" x1="1334.27" y1="-1246.49" x2="2056.3" y2="-1246.49" gradientTransform="translate(-1105.91 -1480.71) rotate(90)" xlink:href="#linear-gradient-3"/><linearGradient id="linear-gradient-24" x1="388.05" y1="243.99" x2="424.54" y2="243.99" xlink:href="#linear-gradient-3"/><linearGradient id="linear-gradient-25" x1="413.87" y1="397.01" x2="421.1" y2="397.01" xlink:href="#linear-gradient-3"/><linearGradient id="linear-gradient-26" x1="413.87" y1="13.69" x2="421.1" y2="13.69" xlink:href="#linear-gradient-3"/><linearGradient id="linear-gradient-27" x1="280.05" y1="209.25" x2="293.77" y2="209.25" xlink:href="#linear-gradient-3"/><linearGradient id="linear-gradient-28" x1="1476.15" y1="-1460.6" x2="1590.46" y2="-1460.6" gradientTransform="translate(-1105.91 -1480.71) rotate(90)" xlink:href="#linear-gradient-3"/><linearGradient id="linear-gradient-29" x1="232.95" y1="14.34" x2="242.23" y2="14.34" xlink:href="#linear-gradient-3"/><linearGradient id="linear-gradient-30" x1="1313.11" y1="-1306.78" x2="2057.22" y2="-1306.78" gradientTransform="translate(-1105.91 -1480.71) rotate(90)" xlink:href="#linear-gradient-3"/><linearGradient id="linear-gradient-31" x1="31.32" y1="194.91" x2="95.53" y2="194.91" xlink:href="#linear-gradient-3"/><linearGradient id="linear-gradient-32" x1="1312.67" y1="-1267.19" x2="2057.73" y2="-1267.19" gradientTransform="translate(-1105.91 -1480.71) rotate(90)" xlink:href="#linear-gradient-3"/><linearGradient id="linear-gradient-33" x1="1469.94" y1="-1152.67" x2="1625.97" y2="-1152.67" gradientTransform="translate(-1105.91 -1480.71) rotate(90)" xlink:href="#linear-gradient-3"/><linearGradient id="linear-gradient-34" x1="1317.54" y1="-1185.88" x2="2061.99" y2="-1185.88" gradientTransform="translate(-1105.91 -1480.71) rotate(90)" xlink:href="#linear-gradient-3"/><linearGradient id="linear-gradient-35" x1="150.51" y1="14.38" x2="159.79" y2="14.38" xlink:href="#linear-gradient-3"/><linearGradient id="linear-gradient-36" x1="1322.54" y1="-1194.5" x2="2062.26" y2="-1194.5" gradientTransform="translate(-1105.91 -1480.71) rotate(90)" xlink:href="#linear-gradient-3"/><linearGradient id="linear-gradient-37" x1="1322.54" y1="-1299.29" x2="2062.26" y2="-1299.29" gradientTransform="translate(-1105.91 -1480.71) rotate(90)" xlink:href="#linear-gradient-3"/><linearGradient id="linear-gradient-38" x1="1322.54" y1="-1412.02" x2="2062.26" y2="-1412.02" gradientTransform="translate(-1105.91 -1480.71) rotate(90)" xlink:href="#linear-gradient-3"/><linearGradient id="linear-gradient-39" x1="1314.94" y1="-1202.5" x2="2055.17" y2="-1202.5" gradientTransform="translate(-1105.91 -1480.71) rotate(90)" xlink:href="#linear-gradient-3"/><linearGradient id="linear-gradient-40" x1="71.31" y1="126.2" x2="-48.44" y2="14.03" gradientUnits="userSpaceOnUse"><stop offset="0" stop-color="#fff"/><stop offset="0.24" stop-color="#f9fdff"/><stop offset="0.55" stop-color="#e9f6fd"/><stop offset="0.62" stop-color="#e4f4fd"/><stop offset="0.71" stop-color="#d8f1f0"/><stop offset="0.87" stop-color="#b7ebcf"/><stop offset="1" stop-color="#9ae5b1"/></linearGradient><linearGradient id="linear-gradient-41" x1="58.12" y1="71.53" x2="-34.35" y2="144.29" xlink:href="#linear-gradient-40"/><linearGradient id="linear-gradient-42" x1="353.95" y1="49.91" x2="419.8" y2="163.37" xlink:href="#linear-gradient-40"/><linearGradient id="linear-gradient-43" x1="321.99" y1="125.61" x2="436.43" y2="232.47" xlink:href="#linear-gradient-40"/><linearGradient id="linear-gradient-44" x1="70.64" y1="403.24" x2="70.64" y2="496.15" gradientUnits="userSpaceOnUse"><stop offset="0" stop-color="#fff"/><stop offset="0.24" stop-color="#f9fdff"/><stop offset="0.55" stop-color="#e9f6fd"/><stop offset="0.62" stop-color="#e4f4fd"/><stop offset="0.68" stop-color="#d8f1f0"/><stop offset="0.78" stop-color="#b7ebce"/><stop offset="0.93" stop-color="#81e098"/><stop offset="1" stop-color="#64da7a"/></linearGradient><linearGradient id="linear-gradient-45" x1="393.08" y1="497.98" x2="393.08" y2="551.17" xlink:href="#linear-gradient-44"/><linearGradient id="linear-gradient-46" x1="218.2" y1="669.38" x2="218.2" y2="755.72" xlink:href="#linear-gradient"/><linearGradient id="linear-gradient-47" x1="324.22" y1="689.15" x2="420.39" y2="689.15" gradientUnits="userSpaceOnUse"><stop offset="0" stop-color="#caffd4"/><stop offset="1" stop-color="#82de91"/></linearGradient><linearGradient id="linear-gradient-48" x1="15" y1="727.79" x2="355.73" y2="727.79" xlink:href="#linear-gradient-47"/><linearGradient id="linear-gradient-49" x1="0" y1="727.93" x2="420" y2="727.93" xlink:href="#linear-gradient-47"/><linearGradient id="linear-gradient-50" x1="16.81" y1="575.59" x2="72.44" y2="575.59" xlink:href="#linear-gradient-47"/><linearGradient id="linear-gradient-51" x1="16.86" y1="597.37" x2="135.36" y2="597.37" xlink:href="#linear-gradient-47"/><linearGradient id="linear-gradient-52" x1="16.9" y1="615.79" x2="97.57" y2="615.79" xlink:href="#linear-gradient-47"/><linearGradient id="linear-gradient-53" x1="249.08" y1="701.17" x2="366.19" y2="720.53" gradientUnits="userSpaceOnUse"><stop offset="0" stop-color="#106927"/><stop offset="0.08" stop-color="#156d2b"/><stop offset="0.18" stop-color="#247838"/><stop offset="0.28" stop-color="#3d8a4d"/><stop offset="0.39" stop-color="#5fa46b"/><stop offset="0.51" stop-color="#8bc591"/><stop offset="0.63" stop-color="#c0edbf"/><stop offset="0.66" stop-color="#cff8cc"/><stop offset="0.72" stop-color="#c2f4c2"/><stop offset="0.83" stop-color="#a0eba8"/><stop offset="0.98" stop-color="#6adc7f"/><stop offset="1" stop-color="#64da7a"/></linearGradient></defs><g id="Layer_2" data-name="Layer 2"><g id="Layer_2-2" data-name="Layer 2"><rect class="cls-1" width="420" height="777"/><ellipse class="cls-2" cx="210" cy="529.39" rx="189.56" ry="194.26"/><path class="cls-3" d="M363.91,188.07v.09c0,11.44,0,22.73,0,33.35V269c0,10.93,0,23.88,0,37a4.73,4.73,0,0,1-1.51,3.71c-4.73,4.68-9.51,9.46-14.13,14.08-3.92,3.92-8,8-12,11.95a5.06,5.06,0,0,0-1.66,3.87v0c0,5,.05,10.17.05,15.9,0,5.17,0,10.34,0,15.51v.05a3.21,3.21,0,0,0,1.72,3.3,3.75,3.75,0,0,1,1.91,3.33,4.35,4.35,0,0,1-4.23,4.3,3.71,3.71,0,0,1-.67,0,4.18,4.18,0,0,1-3.38-2.89v0a4.32,4.32,0,0,1-.21-1.34,3.66,3.66,0,0,1,1.83-3.29c1.63-.89,1.76-2.1,1.76-3.47v-.1q0-6.72,0-13.44c0-6,0-12.27,0-18.4V339a4.66,4.66,0,0,1,1.5-3.67c4.4-4.36,8.85-8.81,13.16-13.12s8.62-8.62,12.95-12.91a5.24,5.24,0,0,0,1.67-4.1c0-19.39,0-39.49,0-59.76q0-12.6,0-25.19,0-16,0-32.08V188l-.05-.09a1.49,1.49,0,0,1-.09-.59,7.08,7.08,0,0,1,.07-.89c0-.24.06-.48.07-.7v-4.63c0-.24,0-.48-.07-.73a6.93,6.93,0,0,1-.07-.88,1.58,1.58,0,0,1,.09-.6l.05-.08v-.1q0-11.83,0-23.68,0-16.78,0-33.59c0-20.26,0-40.36,0-59.75A5.32,5.32,0,0,0,361,57.62c-4.34-4.28-8.72-8.67-13-12.91S339.28,36,334.88,31.6a4.68,4.68,0,0,1-1.5-3.67v-.05c0-6.13,0-12.37,0-18.4,0-2.06,0-4.11,0-6.17h1.31c0,2.69,0,5.38,0,8.07,0,5.73,0,10.93-.05,15.9v0a5.06,5.06,0,0,0,1.66,3.87c4,4,8,8,12,11.93,4.62,4.63,9.41,9.42,14.14,14.1A4.71,4.71,0,0,1,364,60.91c0,13.15,0,26.1,0,37v44.13c0,3.73,0,7.55,0,11.43,0,8.18,0,16.66,0,25.22v.1l0,.09a1.39,1.39,0,0,1,.09.56c0,.28,0,.58-.07.88s-.06.42-.07.61v4.94c0,.22,0,.42.07.64s.07.6.07.88a1.39,1.39,0,0,1-.09.56Z"/><path class="cls-4" d="M235.22,245.05q0-28.59,0-57.18v-.08a2.21,2.21,0,0,0,0-.48c0-.2,0-.41,0-.61s0-.29,0-.44v-5.64c0-.14,0-.28,0-.43s0-.41,0-.61a2.21,2.21,0,0,0,0-.48V179q0-28.57,0-57.17v-35c0-12.19,0-26.62.05-41.2a5.34,5.34,0,0,0-1.8-4.24c-2.15-2.06-4.28-4.2-6.35-6.27-1.62-1.62-3.29-3.31-5-4.93a4.3,4.3,0,0,1-1.41-3.31v-.06c0-2.05,0-4.14,0-6.4,0-2.51,0-5.19,0-8.2v-.06a2.64,2.64,0,0,1,1.42-2.58,4.07,4.07,0,0,0,2.19-3.5,4.33,4.33,0,0,0-.18-1.21,4.41,4.41,0,0,0-.84-1.59,4.11,4.11,0,0,0-3.26-1.56,4.15,4.15,0,0,0-3.2,1.56,4.3,4.3,0,0,0-.79,1.46,4.51,4.51,0,0,0-.21,1.34,4,4,0,0,0,2.06,3.43,2.81,2.81,0,0,1,1.45,2.79v.05c0,.68,0,1.36,0,2,0,1.32,0,2.63,0,3.94s0,2.64,0,3.95c0,1.89,0,3.44,0,4.9v.11a4.39,4.39,0,0,0,1.47,3.42c1.62,1.59,3.25,3.23,4.82,4.81,2,2,4.08,4.1,6.16,6.1a6.16,6.16,0,0,1,2.07,4.85c0,24.17,0,48.08,0,76.54V168.9c0,3.35,0,6.71,0,10.06v.1a1.89,1.89,0,0,0-.05.46c0,.21,0,.43,0,.66l0,.29v6l0,.26c0,.22,0,.45,0,.66a2,2,0,0,0,.05.46v.09q0,5,0,10.07v45.86c0,28.46,0,52.36,0,76.55a6.15,6.15,0,0,1-2.07,4.84c-2.08,2-4.15,4.08-6.16,6.1-1.35,1.36-2.75,2.76-4.14,4.14l-.68.66a4.42,4.42,0,0,0-1.47,3.42v.12c0,1.45,0,3,0,4.9,0,1.31,0,2.63,0,3.94s0,2.63,0,4c0,.68,0,1.36,0,2v.05a2.81,2.81,0,0,1-1.45,2.79,4,4,0,0,0-2.06,3.43,4.56,4.56,0,0,0,.21,1.34,4.2,4.2,0,0,0,8.09-.13,4.33,4.33,0,0,0,.18-1.21,4.07,4.07,0,0,0-2.19-3.5,2.65,2.65,0,0,1-1.42-2.58v-.06c0-3,0-5.7,0-8.2,0-2.26,0-4.35,0-6.4V340a4.28,4.28,0,0,1,1.41-3.3l1.1-1.07,3.86-3.86c2.06-2.07,4.2-4.21,6.35-6.27a5.38,5.38,0,0,0,1.8-4.27c0-14.55-.05-29-.05-41.17ZM217.84,8.41a3.37,3.37,0,0,1-1.07-2.32V6a3.3,3.3,0,0,1,1.37-2.66,3.26,3.26,0,0,1,3.91,0,3.33,3.33,0,0,1,1.41,2.55V6a3.37,3.37,0,0,1-3.24,3.31A3.28,3.28,0,0,1,217.84,8.41Zm5.62,352.5V361a3.4,3.4,0,0,1-3.47,3.2,3.36,3.36,0,0,1-3.22-3.31v-.12a3.37,3.37,0,0,1,1.07-2.32,3.28,3.28,0,0,1,2.38-.88A3.36,3.36,0,0,1,223.46,360.91Z"/><path class="cls-5" d="M355.35,404.7h0c0-3.25,0-6.81,0-11v-49c0-.72,0-1.45,0-2.17a1,1,0,0,0-.21-.74.62.62,0,0,0-.47-.13c-.14,0-.58,0-.58.8s0,1.31,0,2V369.6c0,10,0,21.62,0,33.53,0,2.31,0,4.63,0,7a4.78,4.78,0,0,1-1.52,3.73c-1.58,1.53-3.15,3.11-4.67,4.65-2,2-4.07,4.11-6.18,6.09a6.35,6.35,0,0,0-2.19,5.1v.08c0,1.71,0,3.4,0,5.09q0,4.21,0,8.3t0,7.92v14c0,1.38,0,2.76,0,4.14V473a3.2,3.2,0,0,1-1.71,3.33,3.64,3.64,0,0,0-1.76,2.3,3.73,3.73,0,0,0-.13,1,4.16,4.16,0,0,0,.28,1.51,4,4,0,0,0,4,2.81,4.2,4.2,0,0,0,4-2.93,4.55,4.55,0,0,0,.22-1.36,4,4,0,0,0-.14-1,3.82,3.82,0,0,0-1.88-2.39,2.88,2.88,0,0,1-1.58-3v-4c0-5,0-10,0-15v-2.2c0-2.93,0-5.87,0-8.8,0-2.77,0-5.53,0-8.3,0-1.89,0-3.79,0-5.68a4.09,4.09,0,0,1,1.31-3.15c1.75-1.71,3.5-3.47,5.2-5.17,2.14-2.14,4.35-4.36,6.56-6.51a4.38,4.38,0,0,0,1.43-3.48v0C355.36,408.85,355.36,406.85,355.35,404.7Zm-12,73.88a3,3,0,0,1,.21,1.12,2,2,0,0,1,0,.35A3.32,3.32,0,0,1,339.9,483a3.24,3.24,0,0,1-2.95-3.3c0-.11,0-.22,0-.34a2.87,2.87,0,0,1,.17-.77,3.24,3.24,0,0,1,1-1.48,3.18,3.18,0,0,1,2.42-.7A3.43,3.43,0,0,1,343.38,478.58Z"/><path class="cls-6" d="M337.82,188a1.36,1.36,0,0,0,.06-.45c0-.22,0-.46-.05-.69s0-.23,0-.36v-6l0-.33c0-.23.05-.47.05-.69a1.47,1.47,0,0,0-.06-.46l0-.06v-.06q0-5.48,0-11s0-25.55,0-28.09c0-4.43,0-10.28,0-16.27a3.94,3.94,0,0,0-1.28-3.11c-2.12-2.06-4.24-4.18-6.29-6.24-1.79-1.79-3.64-3.64-5.48-5.44a4.33,4.33,0,0,1-1.44-3.33q0-9.45,0-18.89,0-12.58,0-25.19a3,3,0,0,1,1.61-3,4,4,0,0,0,2-3.48,3.89,3.89,0,0,0-.22-1.32,4.3,4.3,0,0,0-4.09-2.89,4.06,4.06,0,0,0-3.92,2.87,4.27,4.27,0,0,0-.26,1.45,3.84,3.84,0,0,0,2,3.35,3.1,3.1,0,0,1,1.35,1.37,4.26,4.26,0,0,1,.31,1.8q0,9.33,0,18.65c0,8.33,0,16.94-.06,25.46a4.84,4.84,0,0,0,1.64,3.83c2,1.91,3.95,3.88,5.85,5.79s3.62,3.64,5.46,5.42a5,5,0,0,1,1.6,3.93c0,9.64,0,19.63,0,30.53q0,11.85,0,23.7v.07l0,.06a1.68,1.68,0,0,0-.06.49c0,.22,0,.47,0,.71a3.89,3.89,0,0,1,0,.49v5.69a3.89,3.89,0,0,1,0,.47c0,.24,0,.48,0,.71a1.56,1.56,0,0,0,.06.48l0,.07v.07q0,11.85,0,23.7v0c0,10.88,0,20.85,0,30.49a5,5,0,0,1-1.6,3.91c-1.84,1.79-3.68,3.63-5.46,5.42s-3.87,3.89-5.85,5.8a4.87,4.87,0,0,0-1.64,3.87c0,8.48.05,17.09.06,25.42,0,6.22,0,12.43,0,18.68a3.13,3.13,0,0,1-1.66,3.14,3.83,3.83,0,0,0-2,3.35,4.31,4.31,0,0,0,.26,1.45,4.06,4.06,0,0,0,3.92,2.87,4.32,4.32,0,0,0,4.09-2.89,4,4,0,0,0-1.77-4.8,3,3,0,0,1-1.61-3q0-12.58,0-25.17c0-6.3,0-12.59,0-18.91a4.32,4.32,0,0,1,1.44-3.31c1.84-1.8,3.69-3.65,5.48-5.44,2.05-2.06,4.17-4.18,6.29-6.24a4,4,0,0,0,1.28-3.14c0-6,0-11.81,0-16.25,0-2.53,0-28.09,0-28.09q0-5.47,0-10.95V188ZM319.41,54.84a3.35,3.35,0,0,1,1-2.38,3.22,3.22,0,0,1,2.33-.93,3.39,3.39,0,0,1,3.32,3.31v0a3.29,3.29,0,0,1-3.36,3.27A3.21,3.21,0,0,1,319.41,54.84ZM326.06,312v0a3.4,3.4,0,0,1-3.32,3.31,3.25,3.25,0,0,1-2.33-.94,3.33,3.33,0,0,1-1-2.38,3.21,3.21,0,0,1,3.29-3.3A3.29,3.29,0,0,1,326.06,312Z"/><path class="cls-7" d="M215.91,453.07a3.6,3.6,0,0,1,1.64-3.1,4.1,4.1,0,0,0,1.95-4.05v-.06q0-10.2,0-20.38c0-7.55,0-15.36,0-23a4.68,4.68,0,0,1,1.52-3.72c2-1.93,4-3.93,5.92-5.86s3.68-3.69,5.55-5.5a5,5,0,0,0,1.6-3.9c0-6.24,0-12.6,0-19.48,0-6.27,0-12.9,0-20.26h0a5.91,5.91,0,0,0-.05-.7c0-.24-.05-.48-.05-.71,0-.6.17-.79.72-.79a.8.8,0,0,1,.55.15,1.07,1.07,0,0,1,.18.73c0,.2,0,.43,0,.65s0,.45,0,.64c0,3,0,6.24,0,10.43v10.1c0,1.77,0,3.54,0,5.31s0,3.69,0,5.53c0,3.53,0,6.4.06,9v.11a4.77,4.77,0,0,1-1.64,3.77c-2,1.9-3.93,3.87-5.83,5.78-1.73,1.74-3.52,3.54-5.32,5.28a5.25,5.25,0,0,0-1.75,4.07c0,6.79.05,13.95.05,21.91q0,10.65,0,21.31h0a3.45,3.45,0,0,0,1.79,3.53,3.65,3.65,0,0,1,1.81,3.23,4.4,4.4,0,0,1-1,2.81,4.27,4.27,0,0,1-3,1.51,4.14,4.14,0,0,1-3.13-1.19,4.42,4.42,0,0,1-1.31-3.12Z"/><path class="cls-8" d="M256.41,433.67v-.29c0-1.5.07-3.13.07-5.13,0-1.15,0-2.31,0-3.46s0-2.31,0-3.47v-6.87c0-2.42,0-4.83,0-7.25h0c0-.13,0-.24,0-.36s0-.22,0-.33a1.14,1.14,0,0,1,.17-.74.7.7,0,0,1,.49-.14c.52,0,.7.17.7,1.11v5c0,3.19,0,6.38,0,9.57,0,4.63,0,8.45,0,12v.05a4.72,4.72,0,0,0,1.56,3.68c1.8,1.75,3.59,3.55,5.33,5.3,2,2,4.06,4.08,6.13,6.07a4.62,4.62,0,0,1,1.49,3.67c0,7.7,0,15.48,0,23q0,8.69,0,17.38a3.34,3.34,0,0,0,1.73,3.36,3.68,3.68,0,0,1,1.84,3.28,4.32,4.32,0,0,1-.22,1.37,4.23,4.23,0,0,1-8.06,0,5,5,0,0,1-.18-1.31,3.76,3.76,0,0,1,2-3.45,2.84,2.84,0,0,0,1.58-3q0-9.94,0-19.85c0-7.4,0-14,0-20.3a4.5,4.5,0,0,0-1.48-3.54c-1.61-1.58-3.22-3.2-4.78-4.78-2.12-2.13-4.31-4.33-6.52-6.44A5.28,5.28,0,0,1,256.41,433.67Z"/><path class="cls-9" d="M355.79,515.2a3.7,3.7,0,0,1,1.93-3.32c1.57-.86,1.7-2,1.7-3.34q0-16.28,0-32.53c0-14.93,0-28.48,0-41.43,0-.26,0-.54-.07-.84a6.7,6.7,0,0,1-.08-.87.94.94,0,0,1,.18-.67.84.84,0,0,1,.62-.15c.49,0,.75.16.75.92a6.79,6.79,0,0,1-.07.88c0,.3-.06.58-.06.84,0,7.52,0,15,0,20.71v32.33c0,6.14,0,13.39,0,20.69v.06c0,1.37.14,2.58,1.78,3.5a3.61,3.61,0,0,1,1.8,3.23,4.42,4.42,0,0,1-.24,1.43,4.15,4.15,0,0,1-4.08,2.88,4,4,0,0,1-3.91-2.84,4.17,4.17,0,0,1-.27-1.48Z"/><path class="cls-10" d="M235.21,471.38c0-.84,0-1.68,0-2.52v-2.1h0V461.1c0-1.52,0-3,0-4.56a1.26,1.26,0,0,0-.26-.92.63.63,0,0,0-.5-.12c-.36,0-.54.19-.59,1.06,0,.28,0,.56,0,.83v.68c0,1.4,0,2.8,0,4.2,0,1.65,0,3.31,0,5,0,2.7,0,4.91,0,6.95v.07a4.34,4.34,0,0,1-1.4,3.3c-1.7,1.66-3.41,3.38-5.06,5-2.12,2.14-4.32,4.35-6.53,6.49a4.9,4.9,0,0,0-1.59,3.91c0,7.39,0,14.9,0,22.17,0,5.18,0,10.36,0,15.57a3.1,3.1,0,0,1-1.64,3.15,3.64,3.64,0,0,0-1.88,3.25,4.55,4.55,0,0,0,.22,1.36,4.09,4.09,0,0,0,4,3,4.15,4.15,0,0,0,4.05-2.92,4.8,4.8,0,0,0,.23-1.43,3.69,3.69,0,0,0-2-3.34,2.9,2.9,0,0,1-1.41-1.44,4.28,4.28,0,0,1-.26-1.72q0-9.17,0-18.32c0-6.6,0-13.12,0-19.4a3.85,3.85,0,0,1,1.25-2.95c2-1.95,4-3.94,5.89-5.87s4.19-4.2,6.31-6.28a3.47,3.47,0,0,0,1.17-2.65v-.12C235.22,474,235.21,472.81,235.21,471.38ZM223.37,537.3h0a3.27,3.27,0,0,1-1,2.32,3.38,3.38,0,0,1-2.39,1,3.34,3.34,0,0,1-3.34-3.3,3.28,3.28,0,0,1,1-2.32,3.31,3.31,0,0,1,5.68,2.33Z"/><path class="cls-11" d="M404.87,543a3.7,3.7,0,0,0-2-3.2,3.17,3.17,0,0,0-.41-.21,2.53,2.53,0,0,1-1.65-2.81v-.09c0-1.92,0-3.84,0-5.76v-5.44c0-2.78,0-6.06,0-9.3v-.06a3.65,3.65,0,0,0-1.24-2.88l-.79-.78c-1.49-1.47-3-3-4.44-4.42l-.44-.45c-2-2-4-4-6.08-6a4.48,4.48,0,0,1-1.45-3.5V498c0-3.59,0-7.52,0-12,0-3.94,0-7.87,0-11.81v-1c0-.15,0-.3,0-.46s0-.3,0-.45a1,1,0,0,0-.16-.7.75.75,0,0,0-.53-.13c-.51,0-.66.2-.66.84,0,.16,0,.32,0,.47s0,.33,0,.5q0,3.06,0,6.12v10.33c0,1.2,0,2.39,0,3.59,0,2.23,0,4,0,5.7v.1a3.63,3.63,0,0,0,1.21,2.85c2.13,2.08,4.26,4.22,6.33,6.3l.73.73c1.59,1.59,3.22,3.22,4.84,4.82a4.93,4.93,0,0,1,.78,1,4,4,0,0,1,.55,2.12v0c0,2.77,0,5.68,0,8.9v2.72c0,.46,0,.92,0,1.38q0,3.63,0,7.31a3.43,3.43,0,0,1-.22,1.37h0a2.64,2.64,0,0,1-1.07,1.28,4,4,0,0,0-1.86,3.12,1.27,1.27,0,0,0,0,.2.41.41,0,0,0,0,.11,4.57,4.57,0,0,0,.36,1.63,4.11,4.11,0,0,0,2,2.15,4.21,4.21,0,0,0,2.28.39,4,4,0,0,0,3.66-3.15,4.48,4.48,0,0,0,.16-1.19A.66.66,0,0,0,404.87,543Zm-.91.32a3.29,3.29,0,0,1-3.34,3.3,3.24,3.24,0,0,1-1.75-.52,3.28,3.28,0,0,1-1.54-2.79v0a1.32,1.32,0,0,1,0-.28,3.23,3.23,0,0,1,1-2.06,3,3,0,0,1,.95-.65,3.38,3.38,0,0,1,3.36.33A3.27,3.27,0,0,1,404,543a2.81,2.81,0,0,1,0,.29Z"/><path class="cls-12" d="M311.48,226.37a3.77,3.77,0,0,1,1.88-3.29,3.24,3.24,0,0,0,1.71-3.29c0-6.1,0-12.55,0-20.95V168c0-8.4,0-14.84,0-20.9h0a3.26,3.26,0,0,0-1.71-3.33,3.74,3.74,0,0,1-1.88-3.3,4.32,4.32,0,0,1,.29-1.53,4,4,0,0,1,4-2.78,4.23,4.23,0,0,1,4,2.93,4.73,4.73,0,0,1,.2,1.34,3.85,3.85,0,0,1-2,3.45,2.93,2.93,0,0,0-1.61,3.07v.1c0,3.13,0,6.27,0,9.41v53.89c0,3.14,0,6.28,0,9.41v.1A2.93,2.93,0,0,0,318,223a3.84,3.84,0,0,1,2,3.45,4.73,4.73,0,0,1-.2,1.34,4.24,4.24,0,0,1-4,2.93,4,4,0,0,1-4-2.79,4.23,4.23,0,0,1-.29-1.52Z"/><path class="cls-13" d="M175.14,226.37a3.77,3.77,0,0,1,1.88-3.29,3.24,3.24,0,0,0,1.71-3.29c0-6.1,0-12.55,0-20.95V168c0-8.4,0-14.84,0-20.9h0a3.26,3.26,0,0,0-1.71-3.33,3.72,3.72,0,0,1-1.88-3.3,4.11,4.11,0,0,1,.29-1.53,4,4,0,0,1,3.95-2.78,4.21,4.21,0,0,1,4,2.93,4.4,4.4,0,0,1,.2,1.34,3.84,3.84,0,0,1-2,3.45A2.92,2.92,0,0,0,180,147v.1c0,3.13,0,6.27,0,9.41v53.89c0,3.14,0,6.28,0,9.41v.1a2.92,2.92,0,0,0,1.62,3.07,3.83,3.83,0,0,1,2,3.45,4.4,4.4,0,0,1-.2,1.34,4.22,4.22,0,0,1-4,2.93,4.35,4.35,0,0,1-4.24-4.31Z"/><path class="cls-14" d="M241.57,515.22a3.52,3.52,0,0,1,1.68-3.12,3.82,3.82,0,0,0,1.95-3.82V508c0-1.26,0-2.53,0-3.79,0-1.64,0-3.29,0-4.94,0-.85,0-2.57,0-2.57v-.3c0-.09,0-.18,0-.28h0c0-.74.16-.87.54-.89a.68.68,0,0,1,.54.12c.24.22.24.81.24,1.29V503s0,2.23,0,2.69,0,1.1,0,1.65v.59c0,1.65.16,3.24,2.19,4.52a3.11,3.11,0,0,1,1.42,2.74,4.58,4.58,0,0,1-1.43,3.27,4.21,4.21,0,0,1-6-.28A4.42,4.42,0,0,1,241.57,515.22Z"/><path class="cls-15" d="M23.47,454.66A4.48,4.48,0,0,1,22,458.17c-1.51,1.5-3,3-4.54,4.52-4.08,4.06-8.16,8.14-12.13,12.12L0,480.13v-1.87c6.54-6.57,12.19-12.22,17.4-17.41l3.44-3.42a4.11,4.11,0,0,0,1.31-3.17V447q0-22.92,0-45.82,0-26.15,0-52.29a4.31,4.31,0,0,0-1.44-3.33c-1.59-1.55-3.17-3.15-4.71-4.69-2.14-2.16-4.36-4.39-6.6-6.53A5.57,5.57,0,0,1,7.53,330c0-15.08,0-30.18,0-43v-202c0-11.85,0-25.34,0-38.79A5.56,5.56,0,0,1,9.4,41.71l.4-.39c2.1-2,4.19-4.12,6.21-6.15,1.53-1.54,3.12-3.14,4.7-4.69a4.29,4.29,0,0,0,1.44-3.32q0-11.92,0-23.85V0h1.31c0,1.1,0,2.21,0,3.31q0,12.15,0,24.32A4.2,4.2,0,0,1,22.12,31c-1.94,1.89-3.88,3.83-5.76,5.72s-3.83,3.84-5.78,5.73l-.07.07A5,5,0,0,0,8.9,46.41q0,18.3,0,36.71h0c0,3.21,0,6.42,0,9.63V226.57c0,33.78,0,68.72,0,103.08a5,5,0,0,0,1.61,3.93c2,1.91,4,3.89,5.85,5.81s3.82,3.83,5.76,5.71a4.21,4.21,0,0,1,1.34,3.34q0,26.1,0,52.19c0,15.19,0,30.22,0,44.8,0,0,0,0,0,0Q23.46,450.09,23.47,454.66Z"/><path class="cls-16" d="M126.3,410.83a4.27,4.27,0,0,1-1.17,2.93,4.21,4.21,0,0,1-6.18,0,4.38,4.38,0,0,1-1.18-2.95,3.6,3.6,0,0,1,1.68-3.1c1.77-1.13,1.91-2.48,1.91-4.12q0-23,0-45.92,0-14.41,0-28.82V282q0-46.93,0-93.88V188l0-.06a2,2,0,0,1-.06-.54c0-.24,0-.49,0-.73s0-.4,0-.58v-5.32c0-.19,0-.39,0-.59s0-.5,0-.73a2,2,0,0,1,.06-.54l0-.06v-.07q0-46.94,0-93.87V38.05q0-17.37,0-34.74h1.35c0,40.83,0,81.8,0,121.73v29.4q0,12.15,0,24.3v.08l0,.07a1.48,1.48,0,0,1,.07.52,7.27,7.27,0,0,1-.05.78c0,.15,0,.3,0,.44v5.6c0,.17,0,.32,0,.47a7,7,0,0,1,.05.78,1.48,1.48,0,0,1-.07.52l0,.07v.07q0,12.17,0,24.31v29.39c0,37.77,0,76.46,0,115.08q0,23.59,0,47.1a3.61,3.61,0,0,0,1.82,3.53A3.79,3.79,0,0,1,126.3,410.83Z"/><path class="cls-17" d="M63.58,480.79a3.06,3.06,0,0,1-1.45-1.51,4.91,4.91,0,0,1-.26-1.86c0-2.12,0-4.25,0-6.38V456.68c0-7.06,0-14.67.07-22.44v-.08a6.35,6.35,0,0,0-2.19-5.1l-1.34-1.28c-1.65-1.59-3.27-3.22-4.84-4.81l-1.32-1.33c-1.1-1.11-2.22-2.23-3.35-3.32a4.74,4.74,0,0,1-1.52-3.74c0-3.57,0-7.14,0-10.68,0-10.57,0-20.83,0-29.85V348.94c0-.65,0-1.3,0-1.95s-.44-.8-.58-.81a.62.62,0,0,0-.47.13,1,1,0,0,0-.21.74c0,.72,0,1.45,0,2.18v49.1c0,2,0,3.81,0,5.54,0,4.3,0,7.95,0,11.43v.05a4.36,4.36,0,0,0,1.43,3.47c1.34,1.3,2.68,2.63,4,3.95l2.56,2.56,3.86,3.85c.44.45.89.89,1.34,1.33a4.08,4.08,0,0,1,1.31,3.16q0,11.49,0,23,0,7.2,0,14.4c0,2.23,0,4.46,0,6.7a2.89,2.89,0,0,1-1.58,3,3.83,3.83,0,0,0-2,3.43,4.54,4.54,0,0,0,.22,1.35,4.2,4.2,0,0,0,4.05,2.93,4,4,0,0,0,3.95-2.8,4.18,4.18,0,0,0,.28-1.52A3.69,3.69,0,0,0,63.58,480.79Zm-2,6.7a3.32,3.32,0,0,1-3.66-2.94,2,2,0,0,1,0-.35,3.39,3.39,0,0,1,3-3.3,3.27,3.27,0,0,1,3.63,3c0,.12,0,.23,0,.35A3.23,3.23,0,0,1,61.56,487.49Z"/><path class="cls-18" d="M151.48,342.3a1.06,1.06,0,0,1,.18-.72.8.8,0,0,1,.55-.15c.55,0,.72.19.72.79,0,.23,0,.47-.05.71a6,6,0,0,0-.06.69c0,7.33,0,13.95,0,20.23,0,6.89,0,13.26,0,19.48a5,5,0,0,0,1.6,3.93c1.87,1.82,3.74,3.69,5.55,5.51s3.92,3.93,5.91,5.86a4.67,4.67,0,0,1,1.53,3.69c0,7.71,0,15.52,0,23.07q0,10.19,0,20.37v.06c0,1.54.14,2.9,2,4.06a3.6,3.6,0,0,1,1.64,3.1,4.44,4.44,0,0,1-1.31,3.12,4.14,4.14,0,0,1-3.13,1.19,4.25,4.25,0,0,1-3-1.51,4.4,4.4,0,0,1-1-2.81h0a3.64,3.64,0,0,1,1.81-3.23,3.44,3.44,0,0,0,1.79-3.5q0-10.73,0-21.39c0-8,0-15.09,0-21.83h0a5.24,5.24,0,0,0-1.75-4.1c-1.79-1.74-3.59-3.54-5.32-5.29-1.9-1.91-3.85-3.88-5.82-5.77a4.77,4.77,0,0,1-1.64-3.77V384c0-2.61.05-5.46.05-9,0-1.84,0-3.67,0-5.51s0-3.57,0-5.36V354c0-4.17,0-7.37,0-10.36h0q0-.31,0-.66C151.5,342.74,151.48,342.51,151.48,342.3Z"/><path class="cls-19" d="M117.72,499.06a3.7,3.7,0,0,1,1.84-3.28,3.29,3.29,0,0,0,1.72-3.31q0-8.76,0-17.45c0-7.52,0-15.29,0-22.94a4.64,4.64,0,0,1,1.49-3.71c2.07-2,4.13-4.06,6.12-6.06,1.74-1.75,3.54-3.56,5.34-5.31a4.74,4.74,0,0,0,1.56-3.68v-.05c0-3.59,0-7.43,0-12.07,0-3.23,0-6.46,0-9.69v-4.86c0-.94.18-1.11.7-1.11a.72.72,0,0,1,.49.14,1.14,1.14,0,0,1,.16.74v.33c0,.12,0,.23,0,.33,0,2.42,0,4.81,0,7.2v7c0,1.15,0,2.31,0,3.46s0,2.31,0,3.46c0,2,0,3.64.07,5.14v.29a5.31,5.31,0,0,1-1.8,4.18c-2.21,2.11-4.4,4.31-6.52,6.44-1.56,1.58-3.17,3.2-4.79,4.77a4.54,4.54,0,0,0-1.47,3.52c0,6.28,0,12.9,0,20.27q0,9.94,0,19.89a2.83,2.83,0,0,0,1.59,3,3.77,3.77,0,0,1,2,3.46,4.61,4.61,0,0,1-.19,1.31,4.22,4.22,0,0,1-8,.05A4.33,4.33,0,0,1,117.72,499.06Z"/><path class="cls-20" d="M42.6,519.71a3.61,3.61,0,0,1,1.8-3.23c1.64-.92,1.77-2.13,1.77-3.5v-.06c0-7.32,0-14.56,0-20.67V460c0-5.7,0-13.22,0-20.77h0a6.48,6.48,0,0,0-.07-.85c0-.3-.06-.6-.06-.88,0-.76.26-.91.75-.92a.87.87,0,0,1,.62.15.94.94,0,0,1,.18.67,7,7,0,0,1-.08.88,6.2,6.2,0,0,0-.07.83c0,13,0,26.62,0,41.58q0,16.18,0,32.37c0,1.33.13,2.5,1.7,3.35a3.71,3.71,0,0,1,1.93,3.32,4.22,4.22,0,0,1-.27,1.49A4,4,0,0,1,46.92,524a4.16,4.16,0,0,1-4.08-2.89A4.42,4.42,0,0,1,42.6,519.71Z"/><path class="cls-21" d="M169.17,533.8a3,3,0,0,1-1.39-1.46,4.49,4.49,0,0,1-.25-1.72q0-7.77,0-15.55c0-7.26,0-14.77,0-22.2A4.84,4.84,0,0,0,166,489c-2.2-2.13-4.39-4.34-6.51-6.47-1.66-1.67-3.37-3.39-5.07-5.07a4.32,4.32,0,0,1-1.41-3.3v-.06c0-1,0-2,0-3.06s0-2.47,0-3.89v-5c0-1.4,0-2.8,0-4.23v-.65c0-.28,0-.55,0-.83-.05-.87-.23-1-.59-1.07a.71.71,0,0,0-.51.13,1.31,1.31,0,0,0-.25.92c0,1.51,0,3,0,4.53v5.27l0,.41c0,.7,0,1.41,0,2.11s0,1.51,0,2.27v.25c0,1.43,0,2.61,0,3.69v.12a3.44,3.44,0,0,0,1.17,2.64c2.12,2.09,4.26,4.23,6.32,6.3S163,488,165,489.9a3.83,3.83,0,0,1,1.25,3c0,6.22,0,12.73,0,19.32,0,6.13,0,12.25,0,18.41a3,3,0,0,1-1.67,3.13,3.69,3.69,0,0,0-2,3.34,4.8,4.8,0,0,0,.23,1.43,4.2,4.2,0,0,0,8-.09,4.54,4.54,0,0,0,.21-1.36A3.63,3.63,0,0,0,169.17,533.8Zm1,3.41a3.37,3.37,0,0,1-5.73,2.33,3.27,3.27,0,0,1-1-2.33,3.31,3.31,0,0,1,5.68-2.33,3.32,3.32,0,0,1,1,2.32Z"/><path class="cls-22" d="M23.38,494.2c0-1.19,0-2.37,0-3.55v-6.8c0-2,0-4.08,0-6.15,0-.15,0-.31,0-.47s0-.32,0-.48c0-.64-.15-.83-.66-.84a.74.74,0,0,0-.53.13,1,1,0,0,0-.16.7c0,.15,0,.3,0,.45s0,.31,0,.46v1c0,3.94,0,7.87,0,11.81,0,4.5,0,8.42,0,12v.05a4.51,4.51,0,0,1-1.44,3.51c-2.05,2-4.1,4.05-6.09,6s-3.76,3.77-5.67,5.64a3.7,3.7,0,0,0-1.23,2.89v.05c0,3.23,0,6.51,0,9.29v5.38c0,1.94,0,3.89,0,5.83v.09a2.53,2.53,0,0,1-1.65,2.81,3.79,3.79,0,0,0-2.4,3.55,4.39,4.39,0,0,0,.17,1.19A3.94,3.94,0,0,0,7.5,552a4.06,4.06,0,0,0,4.28-2.54,4.39,4.39,0,0,0,.37-1.74,4,4,0,0,0-1.86-3.32,2.81,2.81,0,0,1-1-1.22A3.5,3.5,0,0,1,9,541.69c0-3.42,0-6.83,0-10.25,0-3.66,0-6.94,0-10v0a4,4,0,0,1,1.34-3.11c1.87-1.83,3.74-3.72,5.56-5.54s3.87-3.89,5.83-5.81l.51-.5a3.63,3.63,0,0,0,1.21-2.85v-.1c0-1.66,0-3.47,0-5.71ZM11.23,547.79v0a3.32,3.32,0,1,1-3.34-3.32A3.29,3.29,0,0,1,11.23,547.81Z"/><path class="cls-23" d="M136.3,515.05a3.11,3.11,0,0,1,1.42-2.74c2-1.28,2.19-2.87,2.19-4.52v-.57c0-.57,0-1.12,0-1.67v-9c0-.5,0-1.1.24-1.32a.77.77,0,0,1,.54-.12c.38,0,.54.16.54.9,0,.09,0,.19,0,.28v.27c0,.89,0,1.74,0,2.59,0,1.65,0,3.29,0,4.93,0,1.4,0,2.65,0,3.81v.29a3.81,3.81,0,0,0,2,3.82,3.55,3.55,0,0,1,1.68,3.13,4.42,4.42,0,0,1-1.11,2.91,4.21,4.21,0,0,1-6,.28,4.58,4.58,0,0,1-1.43-3.27Z"/><path class="cls-24" d="M420,476.27v8.4a3.79,3.79,0,0,1-1.43-.34,4,4,0,0,1-2.48-3.72,4.77,4.77,0,0,1,.11-1,3.2,3.2,0,0,0,.08-.66,3.07,3.07,0,0,0-1.2-2.24l-.08-.08-6.37-6.37c-5.44-5.45-11.06-11.09-16.63-16.6a4.51,4.51,0,0,1-1.48-3.5h0c0-17.45,0-35.68,0-54.16q0-26,0-52.05a4.21,4.21,0,0,1,1.34-3.35c1.94-1.88,3.88-3.83,5.76-5.72s3.88-3.89,5.85-5.8a5,5,0,0,0,1.61-3.92c0-18.72,0-37.6,0-56.38V187.12c0-.11,0-.2,0-.29s0-.45,0-.45v-6.32a2.62,2.62,0,0,1,0-.28V140.64c0-24.08,0-48.69,0-73.21q0-12.87,0-25.69a5,5,0,0,0-1.61-3.93c-2-1.91-3.94-3.89-5.85-5.81s-3.82-3.83-5.76-5.71A4.21,4.21,0,0,1,390.52,23q0-9.83,0-19.64h1.31q0,9.58,0,19.16a4.32,4.32,0,0,0,1.45,3.33c1.58,1.55,3.16,3.14,4.7,4.69,2.14,2.16,4.36,4.39,6.6,6.53a5.54,5.54,0,0,1,1.87,4.42c0,8.39,0,16.8,0,24.83,0,6.37,0,12.49,0,18.16v29s0,12.78,0,27.72v90.6c0,13.48,0,24.27,0,24.27v26.42c0,12.82,0,27.95.05,43a5.56,5.56,0,0,1-1.87,4.45c-2.24,2.14-4.46,4.37-6.6,6.53-1.54,1.54-3.12,3.14-4.7,4.69a4.3,4.3,0,0,0-1.45,3.32q0,26.25,0,52.47,0,26.43,0,52.88a4.09,4.09,0,0,0,1.31,3.16c6.6,6.56,13.8,13.76,22.67,22.67a2.67,2.67,0,0,0,3.25.89A3.9,3.9,0,0,1,420,476.27Z"/><path class="cls-25" d="M415.73,347.08c1.43-1.42,2.84-2.84,4.27-4.27v1.83l-2.75,2.72a4.3,4.3,0,0,0-1.41,3.34c0,17.39,0,34.43,0,50.64q0,20.82,0,41.62a4.93,4.93,0,0,0,1.62,3.92c.85.81,1.7,1.63,2.53,2.46v1.88c-1.4-1.4-2.82-2.81-4.25-4.2a3.52,3.52,0,0,1-1.19-2.74q0-21.78,0-43.54c0-17.07,0-34.27,0-51.12A3.3,3.3,0,0,1,415.73,347.08Z"/><path class="cls-26" d="M420,22.25v1.83c-1.43-1.43-2.84-2.85-4.27-4.27a3.3,3.3,0,0,1-1.17-2.54q0-6.94,0-14h1.28c0,4.26,0,8.56,0,12.87a4.31,4.31,0,0,0,1.41,3.35Z"/><path class="cls-27" d="M290.79,410.88a4.35,4.35,0,0,1-1.19,3,4.22,4.22,0,0,1-6.18,0,4.3,4.3,0,0,1-1.16-2.93,3.79,3.79,0,0,1,1.79-3.28,3.62,3.62,0,0,0,1.82-3.52q0-26.46,0-52.81c0-32.59,0-65.22,0-98.28V212.15q0-12,0-24.1V188l0-.07a1.76,1.76,0,0,1-.07-.52,7,7,0,0,1,.06-.78c0-.15,0-.3,0-.45v-5.41c0-.17,0-.32,0-.47a7,7,0,0,1-.06-.78,1.76,1.76,0,0,1,.07-.52l0-.07v-.08q0-12,0-24.09V113.86c0-37.22,0-73.87,0-110.55h1.36q0,17.31,0,34.62V83.19q0,47.85,0,95.7V179l0,.06a2,2,0,0,1,.06.54c0,.23,0,.49,0,.73s0,.4,0,.58V186c0,.19,0,.38,0,.59s0,.49,0,.73a2,2,0,0,1-.06.54l0,.06V188q0,47.87,0,95.71V329q0,11.49,0,23,0,25.86,0,51.71c0,1.66.14,3,1.91,4.14A3.6,3.6,0,0,1,290.79,410.88Z"/><path class="cls-28" d="M354.05,3.31V22.45c0,.65,0,1.3,0,1.95s.44.8.58.81a.62.62,0,0,0,.47-.13,1,1,0,0,0,.21-.74c0-.72,0-1.45,0-2.18V3.31Z"/><path class="cls-29" d="M235.37,24.49a1,1,0,0,1-.18.72.75.75,0,0,1-.55.16c-.55,0-.72-.19-.72-.8,0-.22,0-.47.05-.7a5.91,5.91,0,0,0,.05-.7c0-7.21,0-13.71,0-19.86h1.32v9.45c0,4.2,0,7.41,0,10.42,0,.21,0,.43,0,.65S235.37,24.28,235.37,24.49Z"/><path class="cls-30" d="M210.56,229v-2.52c0-.7,0-1.4,0-2.1h0V142.47c0-.7,0-1.4,0-2.1v-2.52c0-1.44,0-2.61,0-3.69V134a3.44,3.44,0,0,0-1.18-2.65c-2.11-2.08-4.24-4.21-6.3-6.28s-3.92-3.92-5.89-5.87a3.87,3.87,0,0,1-1.25-3c0-6.27,0-12.81,0-19.43,0-6.09,0-12.18,0-18.31a3,3,0,0,1,1.67-3.12,3.7,3.7,0,0,0,2-3.34,4.47,4.47,0,0,0-.24-1.43,4.19,4.19,0,0,0-8,.08,4.3,4.3,0,0,0-.22,1.36A3.64,3.64,0,0,0,193,75.34a3,3,0,0,1,1.4,1.46,4.49,4.49,0,0,1,.25,1.72q0,7.77,0,15.54c0,7.26,0,14.78,0,22.21a4.89,4.89,0,0,0,1.59,3.87c2.2,2.13,4.4,4.34,6.52,6.48,1.66,1.66,3.37,3.38,5.07,5a4.31,4.31,0,0,1,1.4,3.3V135c0,2.05,0,4.26,0,7,0,1.65,0,3.31,0,5,0,1.4,0,2.8,0,4.2v15c0,6.34,0,13.18,0,17.26s0,10.93,0,17.27v15c0,1.4,0,2.8,0,4.2,0,1.66,0,3.31,0,5,0,2.7,0,4.91,0,6.95v.07a4.32,4.32,0,0,1-1.4,3.3c-1.7,1.67-3.41,3.39-5.07,5.05-2.12,2.14-4.32,4.35-6.52,6.48a4.9,4.9,0,0,0-1.59,3.91c0,7.39,0,14.9,0,22.17,0,5.18,0,10.36,0,15.57a3.09,3.09,0,0,1-1.65,3.15,3.63,3.63,0,0,0-1.87,3.25,4.32,4.32,0,0,0,.22,1.37,4.2,4.2,0,0,0,8,.08,4.52,4.52,0,0,0,.24-1.43,3.69,3.69,0,0,0-2-3.34,2.9,2.9,0,0,1-1.41-1.44,4.28,4.28,0,0,1-.26-1.72q0-9.13,0-18.27c0-6.62,0-13.16,0-19.45a3.85,3.85,0,0,1,1.25-2.95c2-2,4-3.94,5.89-5.87s4.19-4.2,6.3-6.28a3.44,3.44,0,0,0,1.18-2.65v-.12C210.57,231.65,210.56,230.48,210.56,229ZM193,74.26a3.32,3.32,0,0,1,4.72-4.66,3.22,3.22,0,0,1,1,2.32A3.31,3.31,0,0,1,193,74.26ZM198.72,295h0a3.23,3.23,0,0,1-1,2.32A3.37,3.37,0,0,1,192,295a3.3,3.3,0,0,1,1-2.32,3.31,3.31,0,0,1,5.68,2.33Z"/><path class="cls-31" d="M78.71,382.22a4.43,4.43,0,0,1-.21,1.35,4.17,4.17,0,0,1-4,2.93,4.05,4.05,0,0,1-4-2.81,4.22,4.22,0,0,1-.27-1.49,3.74,3.74,0,0,1,1.91-3.33,3.21,3.21,0,0,0,1.72-3.3v-.05q0-7.8,0-15.58c0-5.71,0-10.88,0-15.83v0a5,5,0,0,0-1.66-3.87c-4-4-8.06-8-12-12-4.62-4.62-9.4-9.39-14.12-14.07a4.71,4.71,0,0,1-1.51-3.69c0-13.15,0-26.1,0-37V229.23c0-11.48,0-23.83,0-36.38v-.1l0-.09a1.39,1.39,0,0,1-.09-.56,6.93,6.93,0,0,1,.07-.88c0-.21.05-.42.07-.6v-5.14c0-.21,0-.42-.07-.63a6.79,6.79,0,0,1-.07-.88,1.39,1.39,0,0,1,.09-.56l0-.09v-.09c0-12.56,0-24.91,0-36.38V102.62c0-10.93,0-23.88,0-37A4.73,4.73,0,0,1,46.1,61.9l3.78-3.74L60.23,47.82c3.92-3.92,8-8,12-12A5,5,0,0,0,73.86,32v0c0-4.94,0-10.12,0-15.83q0-6.4,0-12.82h1.29c0,3.62,0,7.23,0,10.85,0,6,0,12.27,0,18.41v0a4.7,4.7,0,0,1-1.5,3.67c-4.41,4.36-8.86,8.82-13.17,13.13-3.17,3.18-6.43,6.43-9.69,9.67l-3.25,3.23a5.22,5.22,0,0,0-1.67,4.1c0,14.82,0,30,0,45.41v14.64q0,28.39,0,56.8v.09l0,.09a1.31,1.31,0,0,1,.1.59c0,.27,0,.58-.07.88s-.06.49-.07.71v4.82c0,.23,0,.47.07.72s.07.61.07.89a1.33,1.33,0,0,1-.1.59l0,.08v.1q0,28.4,0,56.79c0,20.33,0,40.53,0,60.05a5.24,5.24,0,0,0,1.67,4.11c4.33,4.28,8.71,8.66,13,12.9s8.76,8.76,13.16,13.12a4.7,4.7,0,0,1,1.5,3.67v.05c0,6.13,0,12.37,0,18.4q0,6.72,0,13.44v.1c0,1.37.13,2.58,1.75,3.47A3.64,3.64,0,0,1,78.71,382.22Z"/><path class="cls-32" d="M168.92,357.26a2.81,2.81,0,0,1-1.45-2.79v-2.09c0-1.32,0-2.63,0-3.95s0-2.63,0-3.94c0-1.7,0-3.13,0-4.46,0-.15,0-.29,0-.44v-.11a4.42,4.42,0,0,0-1.47-3.43c-1.63-1.58-3.25-3.22-4.83-4.8-2-2-4.07-4.1-6.16-6.1A6.2,6.2,0,0,1,153,320.3c0-25.52,0-51.43,0-75.63v-47c0-3.22,0-6.45,0-9.68v-.09a2,2,0,0,0,0-.46c0-.21,0-.44,0-.66l0-.28v-6.18l0-.25c0-.22,0-.45,0-.67a1.92,1.92,0,0,0,0-.45v-.1c0-3.22,0-6.45,0-9.67v-47c0-24.2,0-50.11,0-75.64A6.18,6.18,0,0,1,155,41.74c2.09-2,4.16-4.09,6.17-6.1,1.57-1.58,3.2-3.22,4.82-4.8a4.42,4.42,0,0,0,1.47-3.43V27.3c0-1.46,0-3,0-4.9,0-1.31,0-2.63,0-3.94s0-2.63,0-4V12.42a2.81,2.81,0,0,1,1.45-2.79A4,4,0,0,0,171,6.2a4.22,4.22,0,0,0-.22-1.34,4.41,4.41,0,0,0-.85-1.55,4.16,4.16,0,0,0-6.33,0,4.33,4.33,0,0,0-.9,1.68,4.33,4.33,0,0,0-.18,1.21,4,4,0,0,0,2.19,3.5,2.64,2.64,0,0,1,1.42,2.58v.06c0,3,0,5.67,0,8.18,0,2.26,0,4.36,0,6.42V27a4.29,4.29,0,0,1-1.41,3.31c-1.67,1.63-3.35,3.31-5,4.93-2.06,2.07-4.2,4.21-6.34,6.27a5.34,5.34,0,0,0-1.8,4.26c0,14.64,0,29.19,0,41.5v34.8q0,28.43,0,56.85V179a2.15,2.15,0,0,0,0,.48c0,.2,0,.41,0,.61l0,.44v5.82l0,.43c0,.2,0,.41,0,.61a2.21,2.21,0,0,0,0,.48V188q0,28.42,0,56.85v34.8c0,12.3,0,26.85,0,41.49v0a5.34,5.34,0,0,0,1.8,4.24c2.15,2.06,4.28,4.2,6.35,6.27,1.62,1.62,3.29,3.3,5,4.93a4.29,4.29,0,0,1,1.41,3.31v.48c0,1.93,0,3.89,0,6,0,2.51,0,5.19,0,8.18v.06a2.65,2.65,0,0,1-1.42,2.58,4,4,0,0,0-2.19,3.5,4.33,4.33,0,0,0,.18,1.21,4.19,4.19,0,0,0,8.08.13,4.28,4.28,0,0,0,.22-1.35A4,4,0,0,0,168.92,357.26ZM163.39,6.07V6a3.33,3.33,0,0,1,1.53-2.64,3.26,3.26,0,0,1,1.93-.56,3.2,3.2,0,0,1,1.72.56,3.3,3.3,0,0,1,1.51,2.75s0,.08,0,.12a3.31,3.31,0,0,1-3.45,3.2A3.36,3.36,0,0,1,163.39,6.07Zm6.69,354.76a3.35,3.35,0,0,1-6.69.11v-.12a3.36,3.36,0,0,1,3.23-3.31,3.31,3.31,0,0,1,3.45,3.19S170.08,360.79,170.08,360.83Z"/><path class="cls-33" d="M46.12,0V26.85c0,.72,0,1.45,0,2.17a1,1,0,0,0,.21.74.62.62,0,0,0,.47.13c.14,0,.58,0,.58-.8s0-1.31,0-2V0Z"/><path class="cls-34" d="M87.72,313.08a3.14,3.14,0,0,1-1.66-3.17q0-9.29,0-18.58c0-8.35,0-17,.06-25.53A4.84,4.84,0,0,0,84.5,262c-2-1.91-4-3.88-5.85-5.79s-3.62-3.64-5.46-5.42a5,5,0,0,1-1.6-3.93c0-9.64,0-19.63,0-30.56q0-11.75,0-23.49v-.07l0-.06a1.68,1.68,0,0,0,.06-.49c0-.22,0-.47,0-.7a4,4,0,0,1,0-.49v-5.89a3.91,3.91,0,0,1,0-.46c0-.24,0-.48,0-.71a1.56,1.56,0,0,0-.06-.48l0-.07v-.07q0-11.74,0-23.48c0-10.93,0-20.93,0-30.58a5,5,0,0,1,1.6-3.91c1.84-1.79,3.68-3.64,5.46-5.43s3.87-3.88,5.85-5.78a4.91,4.91,0,0,0,1.64-3.88c0-8.5,0-17.14-.06-25.49q0-9.28,0-18.61A3.14,3.14,0,0,1,87.72,63a3.83,3.83,0,0,0,2-3.35,4.31,4.31,0,0,0-.26-1.45,4.06,4.06,0,0,0-3.92-2.87,4.32,4.32,0,0,0-4.09,2.89A4.06,4.06,0,0,0,83.19,63a3,3,0,0,1,1.61,3q0,12.58,0,25.18,0,9.43,0,18.9a4.29,4.29,0,0,1-1.45,3.31c-1.83,1.8-3.68,3.66-5.47,5.45-2.05,2-4.17,4.18-6.29,6.24a3.93,3.93,0,0,0-1.28,3.13c0,5.93,0,11.77,0,16.18v28.26q0,5.34,0,10.67v.07l0,.06a1.36,1.36,0,0,0-.06.45c0,.22,0,.46,0,.69s0,.22,0,.36v6.23l0,.32c0,.23,0,.47,0,.69a1.47,1.47,0,0,0,.06.46l0,.06v.06c0,3.56,0,7.11,0,10.67v28.26c0,4.42,0,10.25,0,16.22a3.93,3.93,0,0,0,1.28,3.1c2.12,2.06,4.24,4.18,6.29,6.24,1.79,1.79,3.64,3.64,5.47,5.44A4.31,4.31,0,0,1,84.79,266q0,9.45,0,18.89,0,12.58,0,25.19a3,3,0,0,1-1.61,3,4,4,0,0,0-1.77,4.8,4.3,4.3,0,0,0,4.09,2.89,4.06,4.06,0,0,0,3.92-2.87,4.27,4.27,0,0,0,.26-1.45A3.84,3.84,0,0,0,87.72,313.08ZM82.08,59.57v0a3.4,3.4,0,0,1,3.32-3.31,3.22,3.22,0,0,1,2.33.94,3.35,3.35,0,0,1,1,2.37h0a3.2,3.2,0,0,1-3.29,3.3A3.29,3.29,0,0,1,82.08,59.57Zm5.65,259.35a3.21,3.21,0,0,1-2.33.94,3.39,3.39,0,0,1-3.32-3.31v0a3.29,3.29,0,0,1,3.36-3.27,3.21,3.21,0,0,1,3.29,3.31A3.31,3.31,0,0,1,87.73,318.92Z"/><path class="cls-35" d="M152.93,24.66c0,.61-.17.8-.72.8a.75.75,0,0,1-.55-.16,1,1,0,0,1-.18-.72c0-.21,0-.43,0-.65s0-.45,0-.64c0-3,0-6.21,0-10.38V3.31h1.32c0,6.2,0,12.72,0,20a6,6,0,0,0,.06.7C152.9,24.2,152.93,24.44,152.93,24.66Z"/><path class="cls-36" d="M84.35,519.71a3.61,3.61,0,0,1,1.8-3.23c1.64-.92,1.77-2.13,1.77-3.5v-.06c0-7.32,0-14.56,0-20.67V460c0-5.7,0-13.22,0-20.77h0a6.48,6.48,0,0,0-.07-.85c0-.3-.06-.6-.06-.88,0-.76.26-.91.75-.92a.87.87,0,0,1,.62.15.94.94,0,0,1,.18.67,7,7,0,0,1-.08.88,6.2,6.2,0,0,0-.07.83c0,13,0,26.62,0,41.58q0,16.18,0,32.37c0,1.33.12,2.5,1.7,3.35a3.71,3.71,0,0,1,1.93,3.32,4.22,4.22,0,0,1-.27,1.49A4,4,0,0,1,88.67,524a4.16,4.16,0,0,1-4.08-2.89A4.42,4.42,0,0,1,84.35,519.71Z"/><path class="cls-37" d="M189.14,519.71a3.61,3.61,0,0,1,1.8-3.23c1.64-.92,1.77-2.13,1.77-3.5v-.06c0-7.32,0-14.56,0-20.67V460c0-5.7,0-13.22,0-20.77h0a6.48,6.48,0,0,0-.07-.85c0-.3-.06-.6-.06-.88,0-.76.26-.91.75-.92a.87.87,0,0,1,.62.15.94.94,0,0,1,.18.67,7,7,0,0,1-.08.88,6.2,6.2,0,0,0-.07.83c0,13,0,26.62,0,41.58q0,16.18,0,32.37c0,1.33.13,2.5,1.7,3.35a3.71,3.71,0,0,1,1.93,3.32,4.22,4.22,0,0,1-.27,1.49,4,4,0,0,1-3.91,2.84,4.16,4.16,0,0,1-4.08-2.89A4.42,4.42,0,0,1,189.14,519.71Z"/><path class="cls-38" d="M301.86,519.71a3.63,3.63,0,0,1,1.8-3.23c1.64-.92,1.78-2.13,1.78-3.5v-.06c0-7.32,0-14.56,0-20.67V460c0-5.7,0-13.22,0-20.77h0c0-.27,0-.55-.06-.85a6.79,6.79,0,0,1-.07-.88c0-.76.26-.91.75-.92a.84.84,0,0,1,.62.15.94.94,0,0,1,.18.67,7,7,0,0,1-.08.88c0,.29-.07.57-.07.83,0,13,0,26.62,0,41.58q0,16.18,0,32.37c0,1.33.13,2.5,1.7,3.35a3.71,3.71,0,0,1,1.93,3.32,4.22,4.22,0,0,1-.27,1.49,4,4,0,0,1-3.91,2.84,4.16,4.16,0,0,1-4.08-2.89A4.42,4.42,0,0,1,301.86,519.71Z"/><path class="cls-39" d="M92.35,226.33a3.83,3.83,0,0,1,2-3.45A2.93,2.93,0,0,0,96,219.81v-.1c0-3.15,0-6.31,0-9.46V156.64c0-3.15,0-6.31,0-9.46v-.1A2.93,2.93,0,0,0,94.35,144a3.84,3.84,0,0,1-2-3.45h0a4.73,4.73,0,0,1,.2-1.34,4.24,4.24,0,0,1,4-2.93,4,4,0,0,1,4,2.78,4.11,4.11,0,0,1,.29,1.53A3.72,3.72,0,0,1,99,143.9a3.24,3.24,0,0,0-1.71,3.29c0,6.12,0,12.6,0,21,0,3.73,0,15.23,0,15.23s0,11.5,0,15.24c0,8.42,0,14.89,0,21A3.26,3.26,0,0,0,99,223a3.72,3.72,0,0,1,1.88,3.29,4.35,4.35,0,0,1-4.24,4.32,4.24,4.24,0,0,1-4-2.93A4.73,4.73,0,0,1,92.35,226.33Z"/><path class="cls-40" d="M58.37,71.11c4.58,13.41-.65,28.47-12.45,40.71-.42.44-.85.88-1.29,1.3q-2.22,2.19-4.71,4.23a27.19,27.19,0,0,1,2,4.53c5.08,14.87-3.57,31.63-19.65,39.93A44.32,44.32,0,0,1,16,164.49a45.51,45.51,0,0,1-7.11,1.81l-1.35.21A43.2,43.2,0,0,1,0,166.9V0H51.34a34.55,34.55,0,0,1,3.11,3.31A30.89,30.89,0,0,1,59.89,13c4.74,13.91-1.06,29.58-13.78,42.06a36.7,36.7,0,0,1,3.77,3.09c.32.29.63.6.94.92A31.17,31.17,0,0,1,58.37,71.11Z"/><path class="cls-41" d="M22.48,162.29c4,11.8-1.86,25-13.55,32.69-.44.3-.89.58-1.35.86A39.56,39.56,0,0,1,0,199.37v-167a35.93,35.93,0,0,1,9.8,9c.27.36.53.72.78,1.1a32.58,32.58,0,0,1,4,7.91c3.77,11,1.31,22.91-5.63,32.79h0c-.43.62-.88,1.22-1.34,1.81a47.14,47.14,0,0,1-3.7,4.22C5.16,90,6.4,90.8,7.58,91.7c.46.34.91.7,1.35,1.06a43.37,43.37,0,0,1,13.94,19.75c4.65,13.62,2,28.24-6.09,40.66a23.48,23.48,0,0,1,5.52,8.64A4.68,4.68,0,0,1,22.48,162.29Z"/><path class="cls-42" d="M420,58.51V235.58a50,50,0,0,1-13.6-3.82q-.69-.3-1.35-.63a33.34,33.34,0,0,1-15.93-15.64c-6.24-13.31-2.19-29.53,9.09-43.32a32.73,32.73,0,0,1-13.95-14.6A32,32,0,0,1,381.47,141c1-10.71,6.71-21.85,16.07-31.39A27.73,27.73,0,0,1,395,105.3c-5.86-12.49-1.36-27.59,10-37.87.44-.4.89-.78,1.35-1.16a45.33,45.33,0,0,1,9.7-6.15C417.4,59.51,418.69,59,420,58.51Z"/><path class="cls-43" d="M420,151.43v129.3a44.59,44.59,0,0,1-13.6-10.36q-.69-.78-1.35-1.59c-8.23-10-12.88-23.68-12.76-38.46a33,33,0,0,1-28.35-8.81c-.45-.42-.88-.85-1.3-1.3-10.15-10.67-14.43-28-9.79-45.46a53.91,53.91,0,0,1,9.79-19.68c.42-.54.85-1.06,1.29-1.57A43.81,43.81,0,0,1,381.47,141a33.9,33.9,0,0,1,20.84-1.21c.93.25,1.85.54,2.74.87.46.15.91.33,1.35.52A34.41,34.41,0,0,1,420,151.43Z"/><path class="cls-44" d="M141.28,468.22v0a2.83,2.83,0,0,1-2.84,2.79H0V438.15a23.63,23.63,0,0,1,9.22,4.6c-.05-.74-.07-1.49-.07-2.25a36.56,36.56,0,0,1,13-28c.42-.36.86-.71,1.3-1a36.48,36.48,0,0,1,22.36-7.61h.32l1.29,0a36.19,36.19,0,0,1,14.81,3.84A36.64,36.64,0,0,1,81.82,433.8a18.79,18.79,0,0,1,32.09,13.28v.54a21.45,21.45,0,0,1,5.93-.83,20.41,20.41,0,0,1,4.09.4c.52.09,1,.21,1.54.35A21.43,21.43,0,0,1,141.28,468.22Z"/><path class="cls-45" d="M420,506.61V543H370.26a3.17,3.17,0,0,1-2.9-1.89,13.47,13.47,0,0,1-1.19-5.57,13.62,13.62,0,0,1,13.62-13.62,13.45,13.45,0,0,1,7,1.91,21.37,21.37,0,0,1,6.66-14.89c.32-.31.65-.61,1-.89a22,22,0,0,1,3.73-2.52A21.47,21.47,0,0,1,420,506.61Z"/><path class="cls-46" d="M33.16,762S-9.38,696.67,53.1,668.48,134.85,707,179.48,704.65s42.69-48,91.14-24.9c59.19,28.19,75.63-75.16,117.91-51.2,44.9,25.44,40.41,127.78-34.76,125.9S33.16,762,33.16,762Z"/><path class="cls-47" d="M420,689.9a32.17,32.17,0,0,0-5-4.28,42.52,42.52,0,0,0-5.59-3.4,49,49,0,0,0-12.3-4.3,55.59,55.59,0,0,0-13-1.09,77.16,77.16,0,0,0-13,1.64c-2.13.54-4.28,1-6.35,1.72s-4.16,1.43-6.2,2.24-4,1.8-6,2.74-3.9,2-5.8,3.12a249.64,249.64,0,0,0-22.2,14.18l-.06-.08a132.41,132.41,0,0,1,21.87-14.82c1.95-1,4-1.93,5.95-2.9l3.05-1.29c1-.42,2-.91,3.05-1.27A117.52,117.52,0,0,1,371,677.94c8.53-2.18,17.63-2.94,26.35-1a45.07,45.07,0,0,1,12.46,4.62A36,36,0,0,1,420,689.84Z"/><path class="cls-48" d="M15,742.56s37.5,10,92.5,10,110-27.5,137.5-40,72.5-25,105-17.5-82.11,30.58-122.5,57.5C220,757.56,72.5,777.56,15,742.56Z"/><path class="cls-49" d="M0,730.06s25,35,107.5,35,147.5-7.5,197.5-35,80-40,115-7.5v-15s-35.14-37.64-102.64-.14S74.86,792.42,0,730.06Z"/><path class="cls-50" d="M17,551.67a45.08,45.08,0,0,1,8,4.69,67.61,67.61,0,0,1,7.13,5.94,99.71,99.71,0,0,1,12,14.12c.92,1.24,1.92,2.41,2.87,3.62s2,2.35,3,3.45a76.65,76.65,0,0,0,6.56,6.44,50.09,50.09,0,0,0,15.65,9.48l0,.1A43.48,43.48,0,0,1,56,590.69a61.22,61.22,0,0,1-6.65-6.53c-1.05-1.14-2-2.37-3-3.56s-1.92-2.43-2.82-3.7l-2.72-3.74-1.37-1.86L38,569.5c-.94-1.22-2-2.34-3-3.51s-2.09-2.27-3.21-3.33a65.83,65.83,0,0,0-7-6.06A44.27,44.27,0,0,0,17,551.77Z"/><path class="cls-51" d="M17,574.28a80.86,80.86,0,0,1,15,7.32c4.79,2.86,9.39,6,13.87,9.34s8.79,6.87,13.05,10.47l6.28,5.53a52.4,52.4,0,0,0,6.59,5A46.17,46.17,0,0,0,87,618.23a53.82,53.82,0,0,0,16.46,1A73.55,73.55,0,0,0,119.75,616a82.91,82.91,0,0,0,7.81-2.87,70.12,70.12,0,0,0,7.51-3.63l.05.08A74.67,74.67,0,0,1,120,616.63a71.68,71.68,0,0,1-16.38,3.6,54.63,54.63,0,0,1-16.77-1,47,47,0,0,1-15.43-6.57,53.43,53.43,0,0,1-6.65-5.15l-6.22-5.57c-4.21-3.63-8.46-7.23-12.92-10.56s-9-6.57-13.73-9.49A80.93,80.93,0,0,0,17,574.38Z"/><path class="cls-52" d="M17,596.9a73.11,73.11,0,0,1,10.59,3.44c3.45,1.37,6.82,2.93,10.14,4.6s6.57,3.48,9.76,5.38,6.34,3.83,9.6,5.6c6.49,3.56,13.21,6.68,19.93,9.79s13.54,6,20.39,8.88l0,.09c-7.06-2.32-14-5.11-20.77-8.06s-13.44-6.34-19.91-10c-3.24-1.82-6.4-3.8-9.55-5.74s-6.36-3.78-9.65-5.49-6.61-3.34-10-4.78A71.77,71.77,0,0,0,17,597Z"/><path class="cls-53" d="M389.77,731.3C402,733.24,402,741.78,402,741.78s0-10.29-7-14-15.73,0-15.73,0a50.23,50.23,0,0,1,5.25,6.8c5.43,8.93,15.72,1.75,17.47,7.18C400.25,734.79,389.77,731.3,389.77,731.3Z"/><path class="cls-54" d="M92.42,707.36c9.73,1.54,9.73,8.34,9.73,8.34s0-8.19-5.56-11.12-12.51,0-12.51,0a39.85,39.85,0,0,1,4.17,5.4c4.33,7.11,12.51,1.39,13.9,5.72C100.76,710.14,92.42,707.36,92.42,707.36Z"/><path class="cls-54" d="M134.47,663.56c13.86,2.2,13.86,11.89,13.86,11.89s0-11.67-7.92-15.85-17.82,0-17.82,0a57.31,57.31,0,0,1,5.94,7.7c6.16,10.13,17.82,2,19.8,8.15C146.35,667.52,134.47,663.56,134.47,663.56Z"/><path class="cls-53" d="M344.05,651c-16.45,11.33-10.51,23.76-10.51,23.76s-7.15-15,.45-25.2,22.88-10.93,22.88-10.93a81.06,81.06,0,0,0-2.9,13.53c-1.7,16.77-21.67,13.47-20.43,22.6C331.22,663.38,344.05,651,344.05,651Z"/><path class="cls-53" d="M96.12,585.15c-10.83,5.22-8.44,13.16-8.44,13.16s-2.88-9.56,2.59-14.94,14.62-4.4,14.62-4.4a49.28,49.28,0,0,0-3,7.78c-2.55,9.82-14.13,6-14.23,11.56C87.35,591.33,96.12,585.15,96.12,585.15Z"/><path class="cls-53" d="M35.6,546.08c-5.71,8.16-.77,12.93-.77,12.93s-5.95-5.75-4.18-11.85,8.79-9.09,8.79-9.09a39.92,39.92,0,0,0,1,6.82C42.56,553,32.66,555,34.83,559,31.77,554.09,35.6,546.08,35.6,546.08Z"/><path class="cls-55" d="M31.27,626.21c-10.23,3.55-8.91,10.9-8.91,10.9s-1.59-8.85,3.86-13.1,13.53-2.43,13.53-2.43a44.51,44.51,0,0,0-3.47,6.66c-3.3,8.52-13.25,3.92-13.92,8.87C22.79,630.83,31.27,626.21,31.27,626.21Z"/><path class="cls-56" d="M184.6,637.93l-.32.41c-.11.14-.22.29-.32.44-.22.3-.41.62-.61.93a20.24,20.24,0,0,0-1.08,1.93,22,22,0,0,0-1.53,4.1,20.61,20.61,0,0,0-.65,4.26,21,21,0,0,0,.26,4.27l.08.53.11.53c0,.18.07.35.11.53l.13.52.14.52.16.54.31,1.08a34,34,0,0,0,1.58,4.09,23.51,23.51,0,0,0,2.13,3.68,20,20,0,0,0,2.83,3.14,29.63,29.63,0,0,0,7.27,4.75l1,.49,1,.43,1,.43.52.22.53.19,2.13.77c.72.24,1.45.46,2.17.69l1.09.35,1.09.3c.73.21,1.46.39,2.2.58s1.47.33,2.2.5,1.48.29,2.22.41l1.12.17,1.11.15c.37.06.74.1,1.12.14s.74.09,1.12.11c1.49.14,3,.21,4.52.25s3.06,0,4.63,0,3.2,0,4.86.13a28.3,28.3,0,0,1,5,.8,25.34,25.34,0,0,1,4.82,1.79,34.24,34.24,0,0,1,4.33,2.52c.35.23.68.48,1,.72s.67.48,1,.73l1,.75c.32.26.65.56,1,.84a21.73,21.73,0,0,1,3.48,3.87A22.7,22.7,0,0,1,255,697.1a27.45,27.45,0,0,1,1.84,10,36,36,0,0,1-1.3,9.86,38.15,38.15,0,0,1-3.83,9.13c-.21.36-.43.71-.64,1.06l-.6,1c-.39.65-.77,1.3-1.14,2q-1.11,2-2.06,4c-.63,1.36-1.2,2.75-1.7,4.16-.26.7-.49,1.41-.7,2.13l-.08.26-.05.23-.11.47a1.85,1.85,0,0,0-.08.47l-.07.47a8.84,8.84,0,0,0,.46,3.78,9,9,0,0,0,2,3.24,8.88,8.88,0,0,0,3.14,2.13c.3.13.61.2.92.31.14,0,.33.08.49.13l.52.11c.34.07.69.14,1,.18s.7.08,1.06.11a20.32,20.32,0,0,0,4.33-.13,27.82,27.82,0,0,0,4.34-.94,39,39,0,0,0,8.27-3.64c1.32-.76,2.62-1.58,3.91-2.43s2.58-1.72,3.85-2.62c2.56-1.78,5.12-3.59,7.72-5.37s5.27-3.5,8-5.08a73.9,73.9,0,0,1,8.59-4.28c1.49-.62,3-1.17,4.54-1.68s3.11-.9,4.69-1.26a48.79,48.79,0,0,1,4.81-.82c1.61-.19,3.24-.3,4.86-.33a48.22,48.22,0,0,1,9.68.86,58.31,58.31,0,0,1,17.9,6.79,81.7,81.7,0,0,1,15.13,11.3,122.33,122.33,0,0,0-16.21-9.2,64.86,64.86,0,0,0-17.41-5.37,49.33,49.33,0,0,0-9-.52c-1.5.07-3,.17-4.49.37s-3,.43-4.43.76a62,62,0,0,0-8.65,2.64c-1.41.56-2.81,1.16-4.19,1.79s-2.75,1.34-4.1,2.06A177.84,177.84,0,0,0,280.47,745c-2.62,1.73-5.22,3.51-8,5.1a51.94,51.94,0,0,1-8.79,4,31.13,31.13,0,0,1-4.76,1.27,23.82,23.82,0,0,1-5,.41c-.43,0-.85,0-1.28-.07s-.85-.08-1.28-.14l-.64-.11c-.21,0-.42-.07-.64-.13l-.67-.18a4.88,4.88,0,0,1-.65-.2,12.26,12.26,0,0,1-4.65-3,12.83,12.83,0,0,1-3.64-10.1l.08-.69c0-.23.06-.46.11-.69l.16-.67.07-.34.09-.3c.23-.78.47-1.57.74-2.34q.8-2.31,1.8-4.52c.66-1.48,1.39-2.92,2.16-4.34.38-.71.78-1.41,1.19-2.1l.62-1c.19-.32.38-.63.56-.95a34.14,34.14,0,0,0,3.32-8.15,31.87,31.87,0,0,0,1.07-8.68,22.84,22.84,0,0,0-1.6-8.35,17.63,17.63,0,0,0-4.81-6.69c-.28-.22-.52-.45-.81-.68l-.89-.68-.9-.66c-.31-.21-.6-.44-.91-.63a30.37,30.37,0,0,0-3.76-2.19,21.18,21.18,0,0,0-4-1.46,23.21,23.21,0,0,0-4.22-.65c-2.9-.21-6,0-9.25-.13a61.86,61.86,0,0,1-9.67-.88c-.8-.13-1.59-.3-2.39-.46s-1.58-.34-2.36-.55-1.56-.39-2.33-.62l-1.17-.33-1.14-.37a60.25,60.25,0,0,1-9-3.54,34.12,34.12,0,0,1-8.3-5.57,25.4,25.4,0,0,1-3.39-3.85,25.67,25.67,0,0,1-2.48-4.46,33.26,33.26,0,0,1-1.63-4.71l-.3-1.18-.14-.6c-.05-.2-.09-.41-.13-.62l-.13-.62-.09-.63-.09-.62-.07-.64a22.71,22.71,0,0,1,.06-5.08,22.34,22.34,0,0,1,1.22-4.91,18.78,18.78,0,0,1,1-2.29,22,22,0,0,1,1.26-2.15,24.48,24.48,0,0,1,1.5-2c.27-.31.55-.62.85-.91.14-.15.29-.3.44-.44l.5-.44a.94.94,0,0,1,1.32.12,1,1,0,0,1,0,1.19Z"/><path class="cls-57" d="M169.75,629.43c0,.35.05.75.09,1.13s.08.76.13,1.14.09.77.15,1.15l.18,1.15c.28,1.52.58,3,1,4.54.19.75.37,1.51.6,2.25l.33,1.11c.11.37.22.74.35,1.11l.74,2.19.84,2.17a68.4,68.4,0,0,0,4,8.32c.72,1.36,1.58,2.64,2.39,3.94.39.66.87,1.27,1.3,1.9l1.33,1.87.07.09a2.1,2.1,0,1,1-3.42,2.43l-.07-.11-1.28-2.07c-.42-.69-.87-1.37-1.25-2.09-.77-1.43-1.57-2.83-2.24-4.3a71.62,71.62,0,0,1-3.63-9l-.72-2.3-.63-2.33c-.11-.39-.2-.78-.28-1.17l-.27-1.18c-.19-.78-.32-1.57-.47-2.36-.3-1.58-.52-3.17-.7-4.76,0-.4-.07-.8-.11-1.2s-.06-.8-.08-1.21,0-.8-.06-1.21,0-.8,0-1.23a.88.88,0,0,1,1.75,0Z"/><path class="cls-57" d="M230.32,686l-1.14-.35-1.09-.39c-.73-.26-1.45-.55-2.16-.85a36.08,36.08,0,0,1-4.17-2.09,19.51,19.51,0,0,1-3.84-2.87,11.82,11.82,0,0,1-1.59-2,7.68,7.68,0,0,1-1-2.47,1.17,1.17,0,0,1,2.28-.52v0a6.46,6.46,0,0,0,2.08,3,17.27,17.27,0,0,0,3.44,2.28,32.6,32.6,0,0,0,3.92,1.69c.68.24,1.36.47,2.05.68l1,.3,1,.25h0a1.67,1.67,0,0,1,1.26,2,1.69,1.69,0,0,1-2,1.26Z"/><path class="cls-57" d="M248.06,714.33a9.14,9.14,0,0,1,.45,1c.14.31.25.63.37,1s.22.65.32,1,.19.65.26,1a18.8,18.8,0,0,1,.53,4.1,18.27,18.27,0,0,1-.35,4.17,18.77,18.77,0,0,1-.51,2.06,9.83,9.83,0,0,1-.34,1l-.37,1a1.5,1.5,0,0,1-2.81-1l.06-.14.06-.11.4-.81a6.94,6.94,0,0,0,.39-.83,16.79,16.79,0,0,0,.63-1.72,16.24,16.24,0,0,0,.7-3.61,17.34,17.34,0,0,0-.07-3.74c0-.31-.1-.62-.14-.93s-.13-.62-.19-.93-.15-.61-.25-.91-.19-.6-.29-.86l0,0a.63.63,0,0,1,.37-.82A.64.64,0,0,1,248.06,714.33Z"/><path class="cls-57" d="M265.11,708.76a5.21,5.21,0,0,0-.54.16c-.18.05-.37.13-.56.2a10.73,10.73,0,0,0-1.09.5,16.85,16.85,0,0,0-2.08,1.25,23.13,23.13,0,0,0-3.65,3.2l-.82.91-.76.95-.38.47c-.13.17-.24.34-.36.5l-.7,1c-.46.67-.87,1.38-1.3,2.07l-1.17,2.15,0,.06a1.3,1.3,0,1,1-2.29-1.24.41.41,0,0,1,.05-.09l1.4-2.17c.52-.7,1-1.41,1.54-2.09l.83-1,.42-.5.44-.48.89-1,1-.89a24.81,24.81,0,0,1,4.15-3.13,20.43,20.43,0,0,1,2.34-1.17,13.07,13.07,0,0,1,1.24-.45c.21-.06.42-.13.64-.18a5.81,5.81,0,0,1,.68-.14.53.53,0,0,1,.2,1Z"/><path class="cls-57" d="M238.55,736.69l.33.32.27.29c.17.19.33.39.49.58.31.39.61.79.89,1.19.56.81,1.09,1.64,1.58,2.48s.95,1.69,1.39,2.55l.65,1.3.62,1.31a1.78,1.78,0,1,1-3.21,1.52.85.85,0,0,1-.09-.22v0l-.42-1.31-.43-1.31c-.31-.87-.62-1.73-1-2.57s-.72-1.68-1.13-2.48c-.2-.4-.42-.79-.64-1.18l-.35-.55-.18-.26-.15-.2-.13-.23a1,1,0,0,1,.36-1.32A1,1,0,0,1,238.55,736.69Z"/><path class="cls-58" d="M157,612s-1.1,13.5,3.56,18.86,9.67,5.73,9.67,5.73,3-10.14-1.44-15.22A37.07,37.07,0,0,0,157,612Z"/><path class="cls-58" d="M178.65,642.55s0-20.1,22.61-10a18.78,18.78,0,0,0-7.54,7.54C191.21,645.06,183.67,647.58,178.65,642.55Z"/><path class="cls-58" d="M208.8,664.61s-2.79,17.3,12.42,14.93C221.22,679.54,224.16,667.4,208.8,664.61Z"/><path class="cls-58" d="M234.21,685s-20.11-7.54-22.62,17.58c0,0,2.51-2.23,10-2.51S231.69,685.26,234.21,685Z"/><path class="cls-58" d="M280.55,706.43s-20.1-15.36-22.61,5c0,0,4.74,4.75,12.28-.28S280.55,706.43,280.55,706.43Z"/><path class="cls-58" d="M240.12,699.91s-1.62,10.4,1.69,14.83,7.17,5,7.17,5,2.87-7.7-.25-11.88A28.63,28.63,0,0,0,240.12,699.91Z"/><path class="cls-58" d="M226,723.9s1.77,10.38,6.31,13.52,8.38,2.46,8.38,2.46.28-8.21-4-11.19A28.81,28.81,0,0,0,226,723.9Z"/><path class="cls-59" d="M160.36,619.11s6.78,4.14,7,14.5C167.33,633.61,166,628.15,160.36,619.11Z"/><path class="cls-59" d="M212,668.36s4.53,2.34,5.13,9C217.09,677.33,216,673.89,212,668.36Z"/><path class="cls-59" d="M217.08,696.16s2.23-6.35,12-8.8C229,687.36,224.21,689.63,217.08,696.16Z"/><path class="cls-59" d="M243,706s4.71,3.34,4.39,11.77C247.42,717.81,246.71,713.37,243,706Z"/><path class="cls-59" d="M231.38,727.58s5.47,1.85,7.59,10C239,737.59,237,733.55,231.38,727.58Z"/><path class="cls-59" d="M260,709.43s4.5-4.69,12.84-3C272.87,706.4,268.26,706.5,260,709.43Z"/><path class="cls-59" d="M181.3,640.12s3.65-7.06,14-8C195.27,632.14,189.91,633.84,181.3,640.12Z"/></g></g></svg>