<svg xmlns="http://www.w3.org/2000/svg" xmlns:xlink="http://www.w3.org/1999/xlink" viewBox="0 0 1920.23 1080"><defs><style>.cls-1{fill:url(#linear-gradient);}.cls-2{fill:url(#linear-gradient-2);}.cls-3{fill:url(#linear-gradient-3);}.cls-4{fill:url(#linear-gradient-4);}.cls-5{fill:url(#linear-gradient-5);}.cls-6{fill:url(#linear-gradient-6);}.cls-7{fill:url(#linear-gradient-7);}.cls-8{fill:url(#linear-gradient-8);}.cls-9{fill:url(#linear-gradient-9);}.cls-10{fill:url(#linear-gradient-10);}.cls-11{fill:url(#linear-gradient-11);}.cls-12{fill:url(#linear-gradient-12);}.cls-13{fill:url(#linear-gradient-13);}.cls-14{fill:url(#linear-gradient-14);}.cls-15{fill:url(#linear-gradient-15);}.cls-16{fill:url(#linear-gradient-16);}.cls-17{fill:url(#linear-gradient-17);}.cls-18{fill:url(#linear-gradient-18);}.cls-19{fill:url(#linear-gradient-19);}.cls-20{fill:url(#linear-gradient-20);}.cls-21{fill:url(#linear-gradient-21);}.cls-22{fill:url(#linear-gradient-22);}.cls-23{fill:url(#linear-gradient-23);}.cls-24{fill:url(#linear-gradient-24);}.cls-25{fill:url(#linear-gradient-25);}.cls-26{fill:url(#linear-gradient-26);}.cls-27{fill:url(#linear-gradient-27);}.cls-28{fill:url(#linear-gradient-28);}.cls-29{fill:url(#linear-gradient-29);}.cls-30{fill:url(#linear-gradient-30);}.cls-31{fill:url(#linear-gradient-31);}.cls-32{fill:url(#linear-gradient-32);}.cls-33{fill:url(#linear-gradient-33);}.cls-34{fill:url(#linear-gradient-34);}.cls-35{fill:url(#linear-gradient-35);}.cls-36{fill:url(#linear-gradient-36);}.cls-37{fill:url(#linear-gradient-37);}.cls-38{fill:url(#linear-gradient-38);}.cls-39{fill:url(#linear-gradient-39);}.cls-40{fill:url(#linear-gradient-40);}.cls-41{fill:url(#linear-gradient-41);}.cls-42{fill:url(#linear-gradient-42);}.cls-43{fill:url(#linear-gradient-43);}.cls-44{fill:url(#linear-gradient-44);}.cls-45{fill:url(#linear-gradient-45);}.cls-46{fill:url(#linear-gradient-46);}.cls-47{fill:url(#linear-gradient-47);}.cls-48{fill:url(#linear-gradient-48);}.cls-49{fill:url(#linear-gradient-49);}.cls-50{fill:url(#linear-gradient-50);}.cls-51{fill:url(#linear-gradient-51);}.cls-52{fill:url(#linear-gradient-52);}.cls-53{fill:url(#linear-gradient-53);}.cls-54{fill:url(#linear-gradient-54);}.cls-55{fill:url(#linear-gradient-55);}.cls-56{fill:url(#linear-gradient-56);}.cls-57{fill:url(#linear-gradient-57);}.cls-58{fill:url(#linear-gradient-58);}.cls-59{fill:none;}.cls-60{fill:url(#linear-gradient-59);}.cls-61{fill:url(#linear-gradient-60);}.cls-62{fill:url(#linear-gradient-61);}.cls-63{fill:url(#linear-gradient-62);}.cls-64{fill:url(#linear-gradient-63);}.cls-65{fill:url(#linear-gradient-64);}.cls-66{fill:#82de91;}.cls-67{fill:#e7ffdd;}.cls-68{fill:#e1ffed;}.cls-69{fill:url(#linear-gradient-65);}.cls-70{fill:#106927;}.cls-71{fill:#019f26;}.cls-72{fill:#027a23;}</style><linearGradient id="linear-gradient" x1="570.24" y1="-141.59" x2="1173.53" y2="913.4" gradientUnits="userSpaceOnUse"><stop offset="0" stop-color="#fff"/><stop offset="0.31" stop-color="#e9ffff"/><stop offset="0.39" stop-color="#e6fef9"/><stop offset="0.49" stop-color="#defce9"/><stop offset="0.61" stop-color="#d0f8ce"/><stop offset="0.62" stop-color="#cff8cc"/><stop offset="0.69" stop-color="#c2f4c2"/><stop offset="0.81" stop-color="#a0eba8"/><stop offset="0.98" stop-color="#6adc7f"/><stop offset="1" stop-color="#64da7a"/></linearGradient><linearGradient id="linear-gradient-2" x1="1396.97" y1="157.05" x2="1396.97" y2="984.93" xlink:href="#linear-gradient"/><linearGradient id="linear-gradient-3" x1="71.36" y1="189.51" x2="1854.61" y2="189.51" gradientUnits="userSpaceOnUse"><stop offset="0" stop-color="#fff" stop-opacity="0.05"/><stop offset="1" stop-color="#fff" stop-opacity="0.2"/></linearGradient><linearGradient id="linear-gradient-4" x1="71.53" y1="479.96" x2="1854.43" y2="479.96" xlink:href="#linear-gradient-3"/><linearGradient id="linear-gradient-5" x1="77.72" y1="192.54" x2="1854.29" y2="192.54" xlink:href="#linear-gradient-3"/><linearGradient id="linear-gradient-6" x1="72.23" y1="234.46" x2="1853.64" y2="234.46" xlink:href="#linear-gradient-3"/><linearGradient id="linear-gradient-7" x1="79.32" y1="479.67" x2="1853.54" y2="479.67" xlink:href="#linear-gradient-3"/><linearGradient id="linear-gradient-8" x1="82.21" y1="382.95" x2="1854.1" y2="382.95" xlink:href="#linear-gradient-3"/><linearGradient id="linear-gradient-9" x1="84.18" y1="158.19" x2="1854.28" y2="158.19" xlink:href="#linear-gradient-3"/><linearGradient id="linear-gradient-10" x1="84.95" y1="480.06" x2="1854.76" y2="480.06" xlink:href="#linear-gradient-3"/><linearGradient id="linear-gradient-11" x1="87.21" y1="74.5" x2="1854.82" y2="74.5" xlink:href="#linear-gradient-3"/><linearGradient id="linear-gradient-12" x1="76.98" y1="264.24" x2="1848.32" y2="264.24" xlink:href="#linear-gradient-3"/><linearGradient id="linear-gradient-13" x1="76.98" y1="590.5" x2="1848.32" y2="590.5" xlink:href="#linear-gradient-3"/><linearGradient id="linear-gradient-14" x1="123.24" y1="431.43" x2="1851" y2="431.43" xlink:href="#linear-gradient-3"/><linearGradient id="linear-gradient-15" x1="81.74" y1="1004.25" x2="1866.29" y2="1004.25" xlink:href="#linear-gradient-3"/><linearGradient id="linear-gradient-16" x1="81.84" y1="1057.04" x2="1866.18" y2="1057.04" xlink:href="#linear-gradient-3"/><linearGradient id="linear-gradient-17" x1="71.11" y1="727.71" x2="1854.9" y2="727.71" xlink:href="#linear-gradient-3"/><linearGradient id="linear-gradient-18" x1="88.7" y1="886.26" x2="1865.27" y2="886.26" xlink:href="#linear-gradient-3"/><linearGradient id="linear-gradient-19" x1="79.32" y1="633.97" x2="1853.54" y2="633.97" xlink:href="#linear-gradient-3"/><linearGradient id="linear-gradient-20" x1="82.21" y1="714.83" x2="1854.09" y2="714.83" xlink:href="#linear-gradient-3"/><linearGradient id="linear-gradient-21" x1="95.17" y1="907.63" x2="1865.27" y2="907.63" xlink:href="#linear-gradient-3"/><linearGradient id="linear-gradient-22" x1="84.9" y1="633.7" x2="1854.77" y2="633.7" xlink:href="#linear-gradient-3"/><linearGradient id="linear-gradient-23" x1="98.19" y1="987.32" x2="1865.8" y2="987.32" xlink:href="#linear-gradient-3"/><linearGradient id="linear-gradient-24" x1="123.23" y1="683.33" x2="1850.99" y2="683.33" xlink:href="#linear-gradient-3"/><linearGradient id="linear-gradient-25" x1="70.75" y1="44.58" x2="1855.3" y2="44.58" xlink:href="#linear-gradient-3"/><linearGradient id="linear-gradient-26" x1="209.18" y1="13.86" x2="606.21" y2="13.86" xlink:href="#linear-gradient-3"/><linearGradient id="linear-gradient-27" x1="1241.45" y1="13.86" x2="1638.48" y2="13.86" xlink:href="#linear-gradient-3"/><linearGradient id="linear-gradient-28" x1="82.11" y1="320.11" x2="1865.9" y2="320.11" xlink:href="#linear-gradient-3"/><linearGradient id="linear-gradient-29" x1="71.31" y1="192.54" x2="1847.88" y2="192.54" xlink:href="#linear-gradient-3"/><linearGradient id="linear-gradient-30" x1="71.93" y1="479.8" x2="1846.14" y2="479.8" xlink:href="#linear-gradient-3"/><linearGradient id="linear-gradient-31" x1="71.24" y1="382.95" x2="1843.11" y2="382.95" xlink:href="#linear-gradient-3"/><linearGradient id="linear-gradient-32" x1="70.95" y1="158.19" x2="1841.06" y2="158.19" xlink:href="#linear-gradient-3"/><linearGradient id="linear-gradient-33" x1="70.45" y1="480.06" x2="1840.27" y2="480.06" xlink:href="#linear-gradient-3"/><linearGradient id="linear-gradient-34" x1="72.62" y1="539.05" x2="1853.21" y2="539.05" xlink:href="#linear-gradient-3"/><linearGradient id="linear-gradient-35" x1="70.28" y1="74.5" x2="1837.88" y2="74.5" xlink:href="#linear-gradient-3"/><linearGradient id="linear-gradient-36" x1="71.84" y1="431.43" x2="1799.57" y2="431.43" xlink:href="#linear-gradient-3"/><linearGradient id="linear-gradient-37" x1="82.35" y1="872.31" x2="1865.6" y2="872.31" xlink:href="#linear-gradient-3"/><linearGradient id="linear-gradient-38" x1="71.52" y1="633.8" x2="1854.43" y2="633.8" xlink:href="#linear-gradient-3"/><linearGradient id="linear-gradient-39" x1="82.3" y1="886.26" x2="1858.86" y2="886.26" xlink:href="#linear-gradient-3"/><linearGradient id="linear-gradient-40" x1="83.23" y1="828.35" x2="1864.62" y2="828.35" xlink:href="#linear-gradient-3"/><linearGradient id="linear-gradient-41" x1="71.93" y1="633.97" x2="1846.14" y2="633.97" xlink:href="#linear-gradient-3"/><linearGradient id="linear-gradient-42" x1="71.24" y1="714.83" x2="1843.11" y2="714.83" xlink:href="#linear-gradient-3"/><linearGradient id="linear-gradient-43" x1="81.94" y1="907.63" x2="1852.05" y2="907.63" xlink:href="#linear-gradient-3"/><linearGradient id="linear-gradient-44" x1="95.17" y1="807.73" x2="1865.27" y2="807.73" xlink:href="#linear-gradient-3"/><linearGradient id="linear-gradient-45" x1="81.94" y1="807.73" x2="1852.05" y2="807.73" xlink:href="#linear-gradient-3"/><linearGradient id="linear-gradient-46" x1="95.17" y1="556.97" x2="1865.27" y2="556.97" xlink:href="#linear-gradient-3"/><linearGradient id="linear-gradient-47" x1="81.94" y1="556.97" x2="1852.05" y2="556.97" xlink:href="#linear-gradient-3"/><linearGradient id="linear-gradient-48" x1="95.17" y1="287.23" x2="1865.27" y2="287.23" xlink:href="#linear-gradient-3"/><linearGradient id="linear-gradient-49" x1="81.94" y1="287.23" x2="1852.05" y2="287.23" xlink:href="#linear-gradient-3"/><linearGradient id="linear-gradient-50" x1="70.45" y1="633.7" x2="1840.26" y2="633.7" xlink:href="#linear-gradient-3"/><linearGradient id="linear-gradient-51" x1="81.26" y1="987.32" x2="1848.93" y2="987.32" xlink:href="#linear-gradient-3"/><linearGradient id="linear-gradient-52" x1="76.99" y1="788.59" x2="1848.31" y2="788.59" xlink:href="#linear-gradient-3"/><linearGradient id="linear-gradient-53" x1="71.85" y1="683.33" x2="1799.58" y2="683.33" xlink:href="#linear-gradient-3"/><linearGradient id="linear-gradient-54" x1="1170.38" y1="447.86" x2="1170.38" y2="321.94" gradientUnits="userSpaceOnUse"><stop offset="0" stop-color="#c4eafd"/><stop offset="1" stop-color="#fff"/></linearGradient><linearGradient id="linear-gradient-55" x1="1859.49" y1="319.23" x2="1858.98" y2="455.15" gradientUnits="userSpaceOnUse"><stop offset="0" stop-color="#fff"/><stop offset="0.24" stop-color="#f9fdff"/><stop offset="0.55" stop-color="#e9f6fd"/><stop offset="0.62" stop-color="#e4f4fd"/><stop offset="0.68" stop-color="#d8f1f0"/><stop offset="0.78" stop-color="#b7ebce"/><stop offset="0.93" stop-color="#81e098"/><stop offset="1" stop-color="#64da7a"/></linearGradient><linearGradient id="linear-gradient-56" x1="1375.43" y1="777.77" x2="1375.43" y2="1055.28" xlink:href="#linear-gradient"/><linearGradient id="linear-gradient-57" x1="104.57" y1="831.39" x2="109.26" y2="974.73" xlink:href="#linear-gradient-54"/><linearGradient id="linear-gradient-58" x1="137.46" y1="991.52" x2="135.1" y2="1036.36" xlink:href="#linear-gradient-54"/><linearGradient id="linear-gradient-59" x1="1576.17" y1="776.85" x2="1922.34" y2="776.85" gradientUnits="userSpaceOnUse"><stop offset="0" stop-color="#caffd4"/><stop offset="1" stop-color="#82de91"/></linearGradient><linearGradient id="linear-gradient-60" x1="462" y1="915.82" x2="1688.62" y2="915.82" xlink:href="#linear-gradient-59"/><linearGradient id="linear-gradient-61" x1="408" y1="916.31" x2="1920" y2="916.31" xlink:href="#linear-gradient-59"/><linearGradient id="linear-gradient-62" x1="16.89" y1="757.5" x2="216.95" y2="757.5" xlink:href="#linear-gradient-59"/><linearGradient id="linear-gradient-63" x1="17.18" y1="836.14" x2="442.59" y2="836.14" xlink:href="#linear-gradient-59"/><linearGradient id="linear-gradient-64" x1="17.41" y1="901.49" x2="307.03" y2="901.49" xlink:href="#linear-gradient-59"/><linearGradient id="linear-gradient-65" x1="1307.78" y1="820.46" x2="1727.27" y2="889.81" gradientUnits="userSpaceOnUse"><stop offset="0" stop-color="#106927"/><stop offset="0.08" stop-color="#156d2b"/><stop offset="0.18" stop-color="#247838"/><stop offset="0.28" stop-color="#3d8a4d"/><stop offset="0.39" stop-color="#5fa46b"/><stop offset="0.51" stop-color="#8bc591"/><stop offset="0.63" stop-color="#c0edbf"/><stop offset="0.66" stop-color="#cff8cc"/><stop offset="0.72" stop-color="#c2f4c2"/><stop offset="0.83" stop-color="#a0eba8"/><stop offset="0.98" stop-color="#6adc7f"/><stop offset="1" stop-color="#64da7a"/></linearGradient></defs><g id="Layer_2" data-name="Layer 2"><g id="Layer_2-2" data-name="Layer 2"><rect class="cls-1" width="1920" height="1080"/><ellipse class="cls-2" cx="1396.97" cy="595.5" rx="403.5" ry="413.5"/><path class="cls-3" d="M1377.49,230.44a8.72,8.72,0,0,1-7.89-4.38c-2.12-3.88-5-4.19-8.31-4.19h-.22q-16.08,0-32.17,0c-14.43,0-29.36,0-44,.09h-.11a11.16,11.16,0,0,1-8.78-3.6c-10.43-10.53-21.09-21.18-31.39-31.48-10.14-10.14-20.63-20.63-30.89-31a12.53,12.53,0,0,0-9.81-4c-46.41,0-94.52.06-143,.06q-68.52,0-137,0h-.23l-.2.09a3.33,3.33,0,0,1-1.42.24,17.67,17.67,0,0,1-2.12-.18c-.6-.07-1.17-.13-1.69-.16H907.09c-.56,0-1.13.09-1.73.16a17.84,17.84,0,0,1-2.12.18,3.33,3.33,0,0,1-1.42-.24l-.2-.09h-.23q-68.52,0-137,0c-48.49,0-96.59,0-143-.06a12.66,12.66,0,0,0-9.83,4c-10.27,10.37-20.75,20.85-30.9,31-10.3,10.3-20.95,21-31.38,31.48a11.17,11.17,0,0,1-8.78,3.6h-.11c-14.68-.09-29.61-.09-44-.09q-16.08,0-32.17,0h-.22c-3.29,0-6.19.31-8.31,4.19a8.73,8.73,0,0,1-7.89,4.38,10.91,10.91,0,0,1-3.25-.5,10,10,0,0,1-7-9.7,9.7,9.7,0,0,1,6.73-9.47,10,10,0,0,1,3.55-.65,9,9,0,0,1,8,4.57c2.11,3.8,4.94,4.12,7.9,4.12h.12q18.56-.08,37.11-.07c13.71,0,26.15,0,38,.1H539a12.07,12.07,0,0,0,9.25-4c9.49-9.56,19.19-19.25,28.56-28.62,11.07-11.07,22.52-22.52,33.72-33.83a11.28,11.28,0,0,1,8.84-3.62c31.47.07,62.45.08,88.61.08H813.6c27.69,0,57.48,0,87.72.06h.23l.21-.11a3.21,3.21,0,0,1,1.35-.22,17.86,17.86,0,0,1,2.11.18c.51.06,1,.12,1.45.15h11.82c.52,0,1-.1,1.52-.16a17.68,17.68,0,0,1,2.11-.18,3.21,3.21,0,0,1,1.35.22l.21.11h.23c30.24,0,60-.06,87.72-.06h105.59c26.16,0,57.14,0,88.57-.08a11.27,11.27,0,0,1,8.87,3.62c11.2,11.31,22.64,22.74,33.7,33.8,9.38,9.38,19.09,19.08,28.59,28.65a12.05,12.05,0,0,0,9.25,4h.11c11.89-.07,24.33-.1,38-.1q18.56,0,37.11.07h.12c3,0,5.79-.32,7.9-4.12a9,9,0,0,1,8-4.57,10,10,0,0,1,3.55.65,9.7,9.7,0,0,1,6.73,9.47,10,10,0,0,1-7,9.7A10.8,10.8,0,0,1,1377.49,230.44Z"/><path class="cls-4" d="M1339.85,483.31a10.07,10.07,0,0,0-2.89-.43c-3.38,0-6.35,1.86-8.38,5.24a6.31,6.31,0,0,1-6.17,3.4h-.13c-7.22-.06-13.64-.09-19.64-.09-5.39,0-10.4,0-15.3.07h-.16a10.29,10.29,0,0,1-7.9-3.37c-3.9-4-7.91-8-11.8-11.87-5-4.95-10.08-10.06-15-15.2a12.81,12.81,0,0,0-10.21-4.3c-34.82.1-69.34.11-98.52.11h-127q-46.76,0-93.5,0h-.11l-.1,0a5.34,5.34,0,0,0-1.15-.1c-.48,0-1,0-1.45.07l-1.06.05h-13.5l-1-.05c-.48,0-1-.07-1.45-.07a5.28,5.28,0,0,0-1.15.1l-.1,0H902q-68.4,0-136.8,0H681.49c-29.17,0-63.7,0-98.58-.11a12.77,12.77,0,0,0-10.15,4.3c-4.93,5.14-10,10.24-15,15.18-3.89,3.88-7.91,7.9-11.81,11.89a10.3,10.3,0,0,1-7.9,3.37h-.16c-4.9-.05-9.91-.07-15.31-.07-6,0-12.41,0-19.63.09h-.14a6.31,6.31,0,0,1-6.16-3.4c-2-3.38-5-5.24-8.38-5.24a10.1,10.1,0,0,0-3.21,19.78,10.69,10.69,0,0,0,3.21.51,9.45,9.45,0,0,0,8.2-4.93c1.75-2.89,3.85-3.47,6.68-3.47h.12l4.89,0,9.43,0,9.45,0c4.51,0,8.23,0,11.72.09H539a10.56,10.56,0,0,0,8.19-3.51c3.79-3.89,7.71-7.78,11.5-11.55,4.82-4.79,9.81-9.75,14.59-14.74a14.76,14.76,0,0,1,11.61-4.94c57.84.09,115.05.11,183.15.11H877.8q12,0,24.09,0H902l.12,0a4.66,4.66,0,0,0,1.08.1c.51,0,1,0,1.58-.08l.7-.06h7.13l7.18,0,.64.05c.52,0,1.07.08,1.57.08a4.76,4.76,0,0,0,1.09-.1l.12,0h.12q12,0,24.09,0h109.73c68.1,0,125.3,0,183.18-.11a14.74,14.74,0,0,1,11.58,4.94c4.78,5,9.77,10,14.59,14.74,3.79,3.77,7.71,7.66,11.5,11.55a10.56,10.56,0,0,0,8.19,3.51h.27c3.49-.06,7.21-.09,11.72-.09,3.15,0,6.3,0,9.44,0l9.44,0,4.89,0h.12c2.83,0,4.93.58,6.68,3.47a9.45,9.45,0,0,0,8.19,4.93,10.76,10.76,0,0,0,3.22-.51,10,10,0,0,0-.32-19.35ZM493.76,498.46a7.91,7.91,0,0,1-5.53,2.55h-.29A8,8,0,0,1,480,493.3a8.11,8.11,0,0,1,7.66-8.29H488a8.06,8.06,0,0,1,7.93,7.74A7.9,7.9,0,0,1,493.76,498.46ZM1337.29,501H1337a8,8,0,0,1-7.65-8.26,8.05,8.05,0,0,1,7.93-7.74h.28a8.12,8.12,0,0,1,7.66,8.29A8,8,0,0,1,1337.29,501Z"/><path class="cls-5" d="M1624.58,195.92a10.59,10.59,0,0,0-3.23-.52,9.18,9.18,0,0,0-8.21,4.82c-1.76,3.17-3.93,3.78-7.13,3.78q-25.2,0-50.42,0l-28.49,0-26.52,0a9.69,9.69,0,0,1-7.54-3.13c-3-3.1-6.16-6.22-9.23-9.29l-3.15-3.14c-5.13-5.12-10.44-10.41-15.57-15.71a10.48,10.48,0,0,0-8.33-3.4h-.11c-11.72.06-24.33.09-40.88.09l-38.44,0h-78.79l-5.21,0a2.47,2.47,0,0,0-1.77.52,1.45,1.45,0,0,0-.3,1.12c0,.34.07,1.37,1.92,1.39,1.56,0,3.13,0,4.69,0h60.21c28.69,0,62.64,0,96.88-.07a11.39,11.39,0,0,1,8.92,3.63c3.66,3.77,7.45,7.54,11.13,11.18l3.14,3.11c3.83,3.81,7.71,7.71,11.44,11.67a15.2,15.2,0,0,0,12.19,5.25h.21c11.51-.09,22.88-.13,33.88-.14l19.79,0h49.72c3.13,0,5.89.31,8,4.09a8.86,8.86,0,0,0,7.9,4.53,10.07,10.07,0,0,0,3.63-.68,9.65,9.65,0,0,0,6.72-9.46A10.07,10.07,0,0,0,1624.58,195.92Zm-3.06,17.52a7.63,7.63,0,0,1-.82,0,7.81,7.81,0,0,1-5.38-2.9,7.67,7.67,0,0,1-1.69-5.79,8.13,8.13,0,0,1,7.91-7.15,8,8,0,0,1,7.86,8.82A7.74,7.74,0,0,1,1621.52,213.44Z"/><path class="cls-6" d="M1223.49,237.91a9.72,9.72,0,0,0-11.49,4.23c-1.88,3.21-4.19,3.87-7.11,3.87h-1.58l-22,0q-18.33,0-36.66,0-22.61,0-45.24.05a10.49,10.49,0,0,1-4-.7,11.49,11.49,0,0,1-4-2.77c-4.31-4.39-8.74-8.81-13-13.09-4.92-4.91-10-10-14.94-15.05a9.4,9.4,0,0,0-7.5-3.06c-14.27.07-28.27.08-38.87.08l-67.22,0H923.55l-.14,0a3.67,3.67,0,0,0-1.1-.13c-.52,0-1.09.06-1.65.11l-.86.07-7.19,0-7.25,0-.79-.07c-.56-.05-1.13-.11-1.65-.11a3.67,3.67,0,0,0-1.1.13l-.14,0H875.31l-67.22,0c-10.6,0-24.6,0-39-.08a9.38,9.38,0,0,0-7.43,3.06c-4.93,5.07-10,10.14-14.94,15.05-4.28,4.28-8.72,8.7-13,13.09a10.33,10.33,0,0,1-8,3.47q-22.6,0-45.2-.05-30.12,0-60.29.07c-2.88,0-5.19-.66-7.07-3.87a9.72,9.72,0,0,0-11.49-4.23,10.33,10.33,0,0,0-6.92,9.79,9.72,9.72,0,0,0,6.87,9.38,10.19,10.19,0,0,0,3.46.62,9.16,9.16,0,0,0,8-4.71,7.56,7.56,0,0,1,3.29-3.23,10,10,0,0,1,4.29-.75q22.32.06,44.63.07c19.93,0,40.54,0,60.92.12a11.59,11.59,0,0,0,9.18-3.92c4.55-4.73,9.28-9.44,13.86-14,4.27-4.26,8.7-8.66,13-13.07a12,12,0,0,1,9.41-3.82c23.06,0,47,.07,73,.07q28.35,0,56.7,0h.17l.16.05a3.36,3.36,0,0,0,1.17.16,16.59,16.59,0,0,0,1.68-.12c.39,0,.77-.08,1.18-.1h13.62c.36,0,.74.05,1.13.09a16.39,16.39,0,0,0,1.68.12,3.36,3.36,0,0,0,1.17-.16l.16-.05h.17q28.35,0,56.7,0h.13c26,0,49.9,0,73-.07a11.9,11.9,0,0,1,9.35,3.82c4.27,4.4,8.69,8.8,13,13.06,4.58,4.56,9.31,9.27,13.87,14a13.55,13.55,0,0,0,3.16,2.52h0a12.16,12.16,0,0,0,6.11,1.4c20.27-.1,40.89-.11,60.82-.12l16.77,0h0l27.92-.05a16.88,16.88,0,0,1,1.79.09,7.07,7.07,0,0,1,5.72,3.89,9.16,9.16,0,0,0,8,4.71,10.19,10.19,0,0,0,3.46-.62,9.72,9.72,0,0,0,6.87-9.38A10.35,10.35,0,0,0,1223.49,237.91ZM604.86,255.4a7.93,7.93,0,0,1-5.67-2.37,7.78,7.78,0,0,1-2.24-5.6,8.12,8.12,0,0,1,7.92-7.94H605a7.87,7.87,0,0,1,7.8,8.06A7.65,7.65,0,0,1,604.86,255.4ZM1226,253a7.94,7.94,0,0,1-5.7,2.37,7.66,7.66,0,0,1-7.9-7.85,7.89,7.89,0,0,1,7.81-8.06h.1a8.12,8.12,0,0,1,7.93,7.94A7.78,7.78,0,0,1,1226,253Z"/><path class="cls-7" d="M1557.81,503.08a8.63,8.63,0,0,1-7.42-3.92c-2.78-4.33-6-4.68-9.7-4.68h-.15q-24.37.07-48.76.06c-18.07,0-36.74,0-55.12.09a11.16,11.16,0,0,1-8.9-3.65c-4.62-4.78-9.4-9.54-14-14.15-4.34-4.33-16.39-15.36-20.73-19.83-2.61-2.69,2.16,2.72-1.77,2.72-14.92.06-30.14.09-46.6.09-15,0-30.87,0-48.49-.08h0c-.53,0-1.08.06-1.67.12a14.36,14.36,0,0,1-1.69.13c-1.45,0-1.9-.4-1.9-1.71a1.8,1.8,0,0,1,.37-1.32,2.46,2.46,0,0,1,1.72-.43c.5,0,1,0,1.58.09s1.06.08,1.53.08c7.23,0,14.91-.05,25-.05h24.15l12.71,0,13.23,0c8.46,0,15.32,0,21.57-.13h.27a11.41,11.41,0,0,1,9,3.93c4.55,4.72,9.27,9.41,13.84,13.95,4.17,4.15,8.48,8.43,12.64,12.72a12.49,12.49,0,0,0,9.73,4.19c16.25-.07,33.38-.1,52.43-.1q25.5,0,51,.06h0c3.27,0,6.1-.32,8.44-4.28a8.74,8.74,0,0,1,7.72-4.33,10.52,10.52,0,0,1,6.73,2.48,10.14,10.14,0,0,1,3.62,7.28,9.84,9.84,0,0,1-2.85,7.49,10.54,10.54,0,0,1-7.46,3.14Z"/><path class="cls-8" d="M1511.38,406.17h-.69c-3.59-.11-7.49-.17-12.26-.17-2.77,0-5.54,0-8.3,0l-8.29,0h-16.45c-5.78,0-11.56,0-17.34,0h-.86l-.79,0a2.8,2.8,0,0,1-1.78-.4,1.66,1.66,0,0,1-.33-1.18c0-1.23.4-1.67,2.65-1.67h1l11,0,22.89,0c11.08,0,20.23,0,28.79.08h.12a11.33,11.33,0,0,0,8.82-3.74c4.17-4.29,8.49-8.59,12.67-12.75,4.8-4.77,9.76-9.7,14.53-14.66a11,11,0,0,1,8.79-3.57c18.41.08,37,.09,55,.09q20.79,0,41.6,0c3.49,0,6-.7,8-4.14a8.82,8.82,0,0,1,7.85-4.4,10.39,10.39,0,0,1,3.29.53,10.12,10.12,0,0,1-.12,19.28,11.78,11.78,0,0,1-3.14.44,9,9,0,0,1-8.27-4.88c-1.84-3.51-4.39-3.8-7.06-3.8-15.88,0-31.69.05-47.51.05-17.71,0-33.6,0-48.57-.08a10.89,10.89,0,0,0-8.49,3.53c-3.76,3.85-7.65,7.72-11.41,11.45-5.1,5.07-10.38,10.3-15.42,15.6A12.7,12.7,0,0,1,1511.38,406.17Z"/><path class="cls-9" d="M1706.48,168.35a8.85,8.85,0,0,1-7.94-4.6c-2-3.78-4.83-4.08-8-4.08l-77.85,0c-35.72,0-68.15,0-99.13-.08a16.45,16.45,0,0,0-2,.18,17.36,17.36,0,0,1-2.09.18,2.22,2.22,0,0,1-1.6-.43,2,2,0,0,1-.37-1.48c0-1.17.39-1.8,2.21-1.8a19.47,19.47,0,0,1,2.1.16,18.66,18.66,0,0,0,2,.16c18-.07,35.94-.08,49.55-.08h77.39c14.67,0,32,0,49.5,0h.13c3.29,0,6.19-.32,8.38-4.24a8.65,8.65,0,0,1,7.73-4.31,10.58,10.58,0,0,1,3.42.57,9.94,9.94,0,0,1,6.91,9.76c-.11,4.58-2.39,7.73-6.8,9.36a10.07,10.07,0,0,1-3.54.64Z"/><path class="cls-10" d="M1764.11,484.31a10.2,10.2,0,0,0-1.66-.7,11.09,11.09,0,0,0-3.43-.56,8.81,8.81,0,0,0-8,4.72,6.64,6.64,0,0,1-5,3.81,14.36,14.36,0,0,1-2.56.18h0q-21.92-.06-43.83-.06-9.62,0-19.11,0h-15.88l-4.86,0h-6.58a9.66,9.66,0,0,1-3.81-.7,9.85,9.85,0,0,1-3.24-2.29c-4.66-4.71-9.43-9.47-14-14.07l-.8-.8c-4.46-4.44-9-9-13.53-13.57l-.72-.73a8.26,8.26,0,0,0-6.34-2.81h-.27c-2.59.06-5.41.09-8.85.09h-6l-5,0v0H1577c-3.64,0-7.28,0-10.92,0a3.06,3.06,0,0,0-2.19.61,1.53,1.53,0,0,0-.31,1.21c.06.86.46,1.3,2.56,1.4.66,0,1.32,0,2,0h11.67l11.9,0,8,0c3.09,0,5.92,0,8.63-.05h.15a10.33,10.33,0,0,1,7.9,3.35l1.39,1.41c3.55,3.6,7.18,7.21,10.69,10.7l2.84,2.83c4.22,4.2,8.51,8.49,12.67,12.79a11.46,11.46,0,0,0,5.41,3.35,15,15,0,0,0,4,.47l4.26,0,4.85,0c14.71,0,29.53-.05,43.93-.05q18.58,0,37.26,0a15.6,15.6,0,0,1,2.38.15,6.78,6.78,0,0,1,5.16,3.78,8.7,8.7,0,0,0,7.79,4.48,10.46,10.46,0,0,0,3.25-.52,11.14,11.14,0,0,0,1.87-.78,9.62,9.62,0,0,0,5.33-8.75A9.82,9.82,0,0,0,1764.11,484.31Zm0,15.26a7.74,7.74,0,0,1-4.77,1.64,7.94,7.94,0,0,1-5.56-2.39,7.93,7.93,0,0,1,5.59-13.6h0a7.76,7.76,0,0,1,4.73,1.58,6.84,6.84,0,0,1,.82.71,8.12,8.12,0,0,1-.82,12.06Z"/><path class="cls-11" d="M1783.71,60c-.46-4.57-3-7.51-7.52-8.76a10.81,10.81,0,0,0-2.85-.39,9.08,9.08,0,0,0-8.5,5.73c-1.56,3.66-4,4-6.71,4h-.23q-6.89,0-13.78,0h-13c-6.66,0-14.52,0-22.26-.08h-.13a8.85,8.85,0,0,0-6.92,2.95c-4.46,4.57-9.06,9.15-13.5,13.58-4.76,4.75-9.68,9.66-14.45,14.55a10.74,10.74,0,0,1-8.39,3.47h-.12c-8.58-.06-18-.09-28.74-.09q-14.13,0-28.26,0h-2.49c-.35,0-.72,0-1.09,0s-.73,0-1.09,0a2.4,2.4,0,0,0-1.67.4,1.73,1.73,0,0,0-.31,1.25c0,1.23.48,1.58,2,1.58.38,0,.76,0,1.14,0s.77,0,1.19,0q7.32,0,14.63,0h16.15l8.58,0H1654c5.34,0,9.68,0,13.65.09h.23a8.67,8.67,0,0,0,6.82-2.9c5-5.09,10.11-10.2,15.07-15.14,4.38-4.35,8.9-8.85,13.29-13.32a9.65,9.65,0,0,1,7.43-3.2h.11c7.37.06,15.2.09,24,.09,8.19,0,16.38,0,24.64-.06,2.53,0,4.58.53,6.37,3.12a9.59,9.59,0,0,0,8,4.46,10.8,10.8,0,0,0,4.16-.88A9.75,9.75,0,0,0,1783.71,60Zm-10,8.92a7.93,7.93,0,0,1,0-15.85h.07a7.93,7.93,0,0,1-.1,15.85Z"/><path class="cls-12" d="M1015.34,274.38a9,9,0,0,1-7.88-4.5c-2-3.42-4.4-4.09-7.88-4.09-14.59,0-30,.06-50.11.06H875.76c-20.1,0-35.52,0-50-.06h0c-3.57,0-6,.67-8,4.09a8.91,8.91,0,0,1-7.88,4.5,10.16,10.16,0,0,1-3.67-.69,9.66,9.66,0,0,1-6.66-9.47,10.13,10.13,0,0,1,7-9.65,11,11,0,0,1,3.21-.48,9.18,9.18,0,0,1,8.25,4.78c1.92,3.58,4.46,3.87,7.34,3.87h.24q11.26,0,22.52,0h129q11.25,0,22.52,0h.24c2.88,0,5.42-.29,7.34-3.87a9.17,9.17,0,0,1,8.25-4.78,11,11,0,0,1,3.21.48,10.13,10.13,0,0,1,7,9.65,9.66,9.66,0,0,1-6.66,9.47,10.16,10.16,0,0,1-3.67.69Z"/><path class="cls-13" d="M1015.34,600.64a9,9,0,0,1-7.88-4.49c-2-3.43-4.4-4.1-7.88-4.1-14.59,0-30,.06-50.11.06H875.76c-20.1,0-35.52,0-50-.06h0c-3.57,0-6,.67-8,4.1a8.92,8.92,0,0,1-7.88,4.49,10.16,10.16,0,0,1-3.67-.69,9.65,9.65,0,0,1-6.66-9.46,10.12,10.12,0,0,1,7-9.65,11,11,0,0,1,3.21-.48,9.17,9.17,0,0,1,8.25,4.77c1.92,3.58,4.46,3.87,7.34,3.87h.24q11.26-.06,22.52,0h129q11.25,0,22.52,0h.24c2.88,0,5.42-.29,7.34-3.87a9.16,9.16,0,0,1,8.25-4.77,11,11,0,0,1,3.21.48,10.12,10.12,0,0,1,7,9.65A9.65,9.65,0,0,1,1019,600a10.16,10.16,0,0,1-3.67.69Z"/><path class="cls-14" d="M1706.52,441.69a8.48,8.48,0,0,1-7.47-4c-2.59-4.31-5.8-4.66-9.14-4.66h-.71c-3,.05-6,.06-9.06.06q-5.91,0-11.82-.05l-6.16,0h-1.38c-1.77,0-2.08-.38-2.15-1.29a1.72,1.72,0,0,1,.29-1.29c.53-.57,1.95-.57,3.1-.57h21.59c1.31,0,2.62,0,3.94,0H1689c3.94,0,7.74-.4,10.81-5.24a7.45,7.45,0,0,1,6.56-3.42,11,11,0,0,1,7.82,3.44,10.06,10.06,0,0,1-.66,14.4A10.63,10.63,0,0,1,1706.52,441.69Z"/><path class="cls-15" d="M1634.18,1044.92a10.15,10.15,0,0,1-5.33-1.56,9.5,9.5,0,0,1-4.25-11.47c1.4-3.84-.13-5.79-2.13-7.77-21.23-21.13-38.47-38.37-54.24-54.25a9.82,9.82,0,0,0-7.57-3.14q-63.5,0-127,0-62.57,0-125.13,0a10.27,10.27,0,0,0-8,3.46c-3.71,3.78-7.54,7.57-11.23,11.25-5.17,5.13-10.51,10.43-15.63,15.79a13.23,13.23,0,0,1-10.57,4.47c-36.09-.1-72.22-.11-102.81-.11H686.83c-30.59,0-66.73,0-102.75.11a13.3,13.3,0,0,1-10.64-4.47c-5.12-5.36-10.46-10.67-15.63-15.8-3.69-3.67-7.51-7.47-11.22-11.24a10.26,10.26,0,0,0-7.94-3.46q-62.59,0-125.15,0-63.48,0-126.95,0a9.82,9.82,0,0,0-7.57,3.14c-15.73,15.84-33,33.07-54.25,54.25-2,2-3.52,3.93-2.13,7.77a9.49,9.49,0,0,1-4.24,11.47,10.15,10.15,0,0,1-5.33,1.56,10,10,0,0,1-6.57-2.53,10.17,10.17,0,0,1-2.64-11.69,9.56,9.56,0,0,1,8.91-5.92,11.48,11.48,0,0,1,2.38.26,7.44,7.44,0,0,0,1.58.18c2.48,0,3.93-1.46,5.34-2.87l.2-.2,15-15c13.12-13.1,26.69-26.64,40-40a10.75,10.75,0,0,1,8.37-3.56c41.74,0,85.24.08,129.33.08q62.43,0,124.86-.07a10.07,10.07,0,0,1,8,3.21c4.51,4.64,9.17,9.28,13.68,13.77s9.32,9.29,13.89,14a12,12,0,0,0,9.38,3.86c82.25-.08,165.85-.08,246.7-.08H1015.8c80.85,0,164.45,0,246.68.08a11.94,11.94,0,0,0,9.39-3.86c4.58-4.71,9.32-9.43,13.9-14s9.17-9.13,13.68-13.77a10,10,0,0,1,8-3.21q62.44.07,124.87.07c44.1,0,87.61,0,129.31-.08a10.73,10.73,0,0,1,8.39,3.56c13.22,13.34,26.74,26.83,39.82,39.88l15.15,15.13.2.2c1.4,1.41,2.86,2.87,5.34,2.87a7.44,7.44,0,0,0,1.58-.18,11.48,11.48,0,0,1,2.38-.26,9.58,9.58,0,0,1,8.91,5.92,10.17,10.17,0,0,1-2.64,11.69,10,10,0,0,1-6.57,2.53Z"/><path class="cls-16" d="M1591.79,1078.72a9.77,9.77,0,0,1-1.86,1.28h-9.71l-.35-.2c-4-2.45-5.58-6.68-4.3-11.4a.13.13,0,0,1,0-.06,5.44,5.44,0,0,1,.15-.54c1-3,.06-4.7-1.71-6.44-4.5-4.4-9.11-8.91-13.66-13.51-2.21-2.24-4.42-4.5-6.59-6.78a11.79,11.79,0,0,0-9.35-3.89H1504.5q-29.67,0-59.33,0l-48.66,0h-19.22l-53.64,0a10.33,10.33,0,0,0-8,3.36c-4,4.13-8.18,8.27-12.2,12.28-5.06,5.06-10.3,10.29-15.35,15.53a11.72,11.72,0,0,1-9.29,3.89c-33-.07-65.69-.09-94.64-.09H645.69c-24.36,0-50.7,0-77.24.08a11.71,11.71,0,0,1-9.32-3.89c-5.06-5.24-10.3-10.47-15.36-15.53-4-4-8.16-8.15-12.19-12.28a10.32,10.32,0,0,0-8-3.36c-41.7,0-82.58.08-121.54.08q-49.62,0-99.23-.06a11.82,11.82,0,0,0-9.38,3.89c-6.64,7-13.55,13.75-20.24,20.29-1.77,1.74-2.67,3.42-1.72,6.44,1.33,4.21.42,8.09-2.43,10.72a10.5,10.5,0,0,1-1.7,1.28l-.35.2h-9.71a9.46,9.46,0,0,1-1.86-1.28,10.14,10.14,0,0,1-2.53-11.7,10.27,10.27,0,0,1,1.63-2.59,9.29,9.29,0,0,1,7.24-3.25,12.19,12.19,0,0,1,2.51.27,8.37,8.37,0,0,0,1.72.19c2.12,0,3.49-1,5-2.5q4.68-4.73,9.4-9.41c4.18-4.17,8.51-8.48,12.7-12.78a8.35,8.35,0,0,1,6.55-2.84q52,0,103.9.05c40.82,0,82.07,0,122.61-.07a7.92,7.92,0,0,1,6.08,2.79c3.69,3.72,7.41,7.42,11.12,11.12,5.68,5.66,11.55,11.51,17.25,17.33a10.94,10.94,0,0,0,8.45,3.59q41.52,0,83.33-.06c29.42,0,58.84,0,88.11,0H890.16l18.34,0h170l105.26,0,94.36.07a10.91,10.91,0,0,0,8.46-3.59c5.71-5.83,11.59-11.68,17.27-17.34,3.66-3.65,7.31-7.28,11-11l.16-.16a7.91,7.91,0,0,1,6.06-2.79l56.94.05h65.69l60.16,0h43.72a8.38,8.38,0,0,1,6.57,2.84c3.48,3.57,7.05,7.14,10.55,10.64l2.15,2.14q4.71,4.69,9.4,9.41a9.63,9.63,0,0,0,2.14,1.75,5.55,5.55,0,0,0,2.87.75,8.39,8.39,0,0,0,1.73-.19,12.19,12.19,0,0,1,2.51-.27,9.43,9.43,0,0,1,8.87,5.84A10.14,10.14,0,0,1,1591.79,1078.72Z"/><path class="cls-17" d="M1456.63,737.92a8.62,8.62,0,0,1-7.41-4c-2.72-4.24-5.94-4.58-9.86-4.58q-89.47.06-178.84,0H1148.36q-112.32,0-224.64,0h-.16l-.14,0a4.59,4.59,0,0,1-1.3.15c-.56,0-1.16,0-1.75-.1s-.94-.09-1.37-.1H906.26c-.46,0-.92,0-1.4.1s-1.19.1-1.75.1a4.54,4.54,0,0,1-1.3-.15l-.15,0h-.15q-112.32.06-224.64,0H564.71q-89.39,0-178.79,0c-4,0-7.19.34-9.91,4.58a8.62,8.62,0,0,1-7.41,4,10.51,10.51,0,0,1-7.08-2.83,10.12,10.12,0,0,1,0-14.8,10.34,10.34,0,0,1,7-2.78,9.08,9.08,0,0,1,7.84,4.29c2.29,3.62,4.92,4.34,8.42,4.34,129.38-.06,260.9-.06,388.1-.06h70.34q29.07,0,58.16,0h.17l.17-.06a3.8,3.8,0,0,1,1.25-.17,17.56,17.56,0,0,1,1.86.14l1.06.1h13.4l1.13-.1a17.37,17.37,0,0,1,1.86-.14,3.8,3.8,0,0,1,1.25.17l.17.06h.17q29.08-.06,58.16,0h70.34c127.2,0,258.72,0,388.08.06,3.52,0,6.15-.72,8.44-4.34a9.08,9.08,0,0,1,7.84-4.29,10.34,10.34,0,0,1,7,2.78,10.12,10.12,0,0,1,0,14.8A10.51,10.51,0,0,1,1456.63,737.92Z"/><path class="cls-18" d="M1635.66,863.74a10.07,10.07,0,0,0-3.63-.68,8.84,8.84,0,0,0-7.9,4.54,7.26,7.26,0,0,1-3.61,3.45,11.66,11.66,0,0,1-4.44.63h-49.64c-16.89,0-35.09,0-53.68-.17h-.21a15.2,15.2,0,0,0-12.19,5.25l-1.2,1.27c-4.39,4.6-9,9.12-13.38,13.51-3.67,3.64-7.47,7.41-11.13,11.18a11.38,11.38,0,0,1-9,3.63c-34.1-.06-68.16-.06-97-.06h-60.07q-2.34,0-4.68,0c-1.86,0-1.91,1-1.93,1.39a1.4,1.4,0,0,0,.31,1.12,2.44,2.44,0,0,0,1.77.53l5.21,0h78.79l38.71,0c16.42,0,28.94,0,40.6.1h.12a10.46,10.46,0,0,0,8.32-3.41c5.13-5.3,10.43-10.58,15.56-15.7,3.67-3.65,7.45-7.42,11.15-11.18l1.24-1.26a9.75,9.75,0,0,1,7.58-3.13q26.92.06,53.85.06h1.12q25.22,0,50.47,0c3.16,0,5.33.62,7.08,3.78a9.18,9.18,0,0,0,8.21,4.82,10.25,10.25,0,0,0,3.23-.52,10,10,0,0,0,7-9.68A9.67,9.67,0,0,0,1635.66,863.74Zm-2.51,17.45a5.92,5.92,0,0,1-.84,0,8.13,8.13,0,0,1-7.91-7.15,7.67,7.67,0,0,1,1.69-5.79,7.81,7.81,0,0,1,5.38-2.9c.28,0,.55,0,.82,0a7.74,7.74,0,0,1,7.88,7.06A8,8,0,0,1,1633.15,881.19Z"/><path class="cls-19" d="M1292.75,657.25a2.46,2.46,0,0,1-1.72-.43,1.86,1.86,0,0,1-.37-1.32c0-1.31.45-1.71,1.9-1.71a16.79,16.79,0,0,1,1.69.12,14.25,14.25,0,0,0,1.66.12c17.54,0,33.36-.07,48.39-.07,16.49,0,31.74,0,46.62.09a12,12,0,0,0,9.42-3.84c4.34-4.47,8.83-8.94,13.17-13.27,4.63-4.61,9.42-9.37,14-14.15a11.11,11.11,0,0,1,8.83-3.65c18.45.07,37.13.08,55.19.09q24.38,0,48.77.06h.14c3.66,0,6.92-.36,9.71-4.68a8.61,8.61,0,0,1,7.42-3.92,10.52,10.52,0,0,1,7.45,3.14,9.88,9.88,0,0,1,2.86,7.49,10.15,10.15,0,0,1-3.63,7.27,10.46,10.46,0,0,1-6.72,2.49h0a8.74,8.74,0,0,1-7.73-4.33c-2.34-4-5.17-4.29-8.36-4.29q-25.68.06-51.19.07c-19,0-36.11,0-52.24-.11h0a12.53,12.53,0,0,0-9.8,4.2c-4.17,4.29-8.49,8.58-12.67,12.74-4.56,4.53-9.28,9.22-13.82,13.93a11.37,11.37,0,0,1-9,3.92h-.27c-6.24-.09-13.08-.13-21.52-.13l-13.17,0-12.82,0h-24.28c-10,0-17.63,0-24.78-.06h0c-.51,0-1,0-1.57.09S1293.26,657.25,1292.75,657.25Z"/><path class="cls-20" d="M1667.87,738.05a8.84,8.84,0,0,1-7.85-4.4c-2-3.45-4.53-4.14-7.94-4.14-14,0-27.86,0-41.76,0-18,0-36.58,0-54.87.09-3.89,0-6.44-1-8.88-3.57-4.78-5-9.73-9.88-14.52-14.64-4.18-4.17-8.51-8.47-12.69-12.77a11.32,11.32,0,0,0-8.82-3.73h-.12c-8.59.05-17.77.08-28.88.08q-11.6,0-23.18,0h-11.64c-2.24,0-2.64-.44-2.65-1.68a1.64,1.64,0,0,1,.33-1.17,2.75,2.75,0,0,1,1.78-.41l.79,0,.8,0c5.78,0,11.5,0,17.23,0h16.62c2.76,0,5.52,0,8.27,0s5.52,0,8.29,0c4.79,0,8.7,0,12.3-.17h.68a12.69,12.69,0,0,1,10,4.31c5,5.3,10.32,10.54,15.42,15.6,3.76,3.74,7.65,7.6,11.42,11.45a10.78,10.78,0,0,0,8.42,3.53c15,0,30.85-.08,48.49-.08q23.8,0,47.59.05c2.74,0,5.29-.29,7.13-3.8a9,9,0,0,1,8.26-4.88,11.35,11.35,0,0,1,3.14.45,10.11,10.11,0,0,1,.12,19.28A10.68,10.68,0,0,1,1667.87,738.05Z"/><path class="cls-21" d="M1717.27,917.79a8.62,8.62,0,0,1-7.72-4.3c-2.2-3.93-5.1-4.25-8.37-4.25H1701c-17.54,0-34.86.06-49.49.06h-77.24c-13.64,0-31.62,0-49.69-.08h0a18.6,18.6,0,0,0-2,.16,19.55,19.55,0,0,1-2.1.17c-1.82,0-2.18-.63-2.21-1.8a2.06,2.06,0,0,1,.37-1.49,2.22,2.22,0,0,1,1.6-.43,17.26,17.26,0,0,1,2.09.19,16.36,16.36,0,0,0,2,.17c31.16-.05,63.7-.08,99.49-.08q38.73,0,77.46,0c3.2,0,6-.31,8-4.08a8.84,8.84,0,0,1,8-4.61,10.3,10.3,0,0,1,3.54.64c4.41,1.64,6.7,4.79,6.8,9.37a9.94,9.94,0,0,1-6.91,9.75A10.58,10.58,0,0,1,1717.27,917.79Z"/><path class="cls-22" d="M1768.76,617.65v-.17A9.91,9.91,0,0,0,1762,611a10.87,10.87,0,0,0-3.26-.51,8.7,8.7,0,0,0-7.79,4.48,7.1,7.1,0,0,1-3.49,3.33,6.67,6.67,0,0,1-1.63.44,14.61,14.61,0,0,1-2.49.16q-18.6,0-37.19,0c-17.38,0-35.36,0-53.13-.09a11.66,11.66,0,0,0-9.27,3.82c-5.1,5.26-10.38,10.52-15.49,15.59-4,4-8.11,8.06-12.11,12.14a10.32,10.32,0,0,1-7.9,3.35h-.15c-4.89,0-10.18-.07-16.63-.07h-11.9l-10.12,0h-1.56c-.66,0-1.31,0-2,0-2.1.1-2.49.53-2.56,1.4a1.62,1.62,0,0,0,.31,1.21,3.13,3.13,0,0,0,2.19.61c3.62,0,7.23,0,10.85,0h12.61l1,0,5,0,6,0c3.44,0,6.25,0,8.84.09h.27a8.24,8.24,0,0,0,6.34-2.8c5-5.07,10.12-10.18,15.07-15.12,4.61-4.6,9.37-9.35,14-14a9.17,9.17,0,0,1,7.1-3c14.9,0,30.46.08,46.24.08,14.66,0,29.32,0,44.06-.06a14.59,14.59,0,0,1,2.58.18,6.67,6.67,0,0,1,4.9,3.81,8.81,8.81,0,0,0,8,4.71,11.06,11.06,0,0,0,3.42-.55,9.89,9.89,0,0,0,6.43-6.18,10.3,10.3,0,0,0,.57-3.49A9.09,9.09,0,0,0,1768.76,617.65Zm-4,8.61a7.8,7.8,0,0,1-5.56,2.29,7.93,7.93,0,0,1-5.59-13.6,8,8,0,0,1,5.55-2.4h0a8.08,8.08,0,0,1,5.58,13.71Z"/><path class="cls-23" d="M1788.42,991.53a10.88,10.88,0,0,0-4.17-.88,9.6,9.6,0,0,0-8,4.46,6.89,6.89,0,0,1-2.92,2.53,6.48,6.48,0,0,1-1.38.42,11.25,11.25,0,0,1-2.14.17l-12.07,0-12.44,0h-1.5c-8.17,0-15.54,0-22.51.09h-.11a9.61,9.61,0,0,1-7.42-3.2c-3.86-3.91-7.8-7.85-11.66-11.7l-1.62-1.61c-5-4.94-10.1-10.06-15.09-15.15a8.65,8.65,0,0,0-6.82-2.91h-.23c-3.57,0-7.45.08-12.1.09h-3.65l-6.42,0h-24.76c-4.89,0-9.77,0-14.71,0-.36,0-.74,0-1.14,0s-.76,0-1.14,0a2.23,2.23,0,0,0-1.66.42,1.65,1.65,0,0,0-.35,1.16,1.68,1.68,0,0,0,.32,1.25,2.35,2.35,0,0,0,1.66.4c.36,0,.73,0,1.09,0s.74,0,1.1,0h2.48l8.85,0h34.68l3.65,0,9.82-.05h.12a10.72,10.72,0,0,1,8.39,3.47c4.78,4.89,9.7,9.81,14.47,14.56.4.4.8.79,1.2,1.2,4.06,4.05,8.23,8.22,12.28,12.37a8.85,8.85,0,0,0,6.92,3h.13c7.72-.07,15.57-.08,22.23-.08h12.87q7,0,14,0h.22a10.46,10.46,0,0,1,3.11.34,5.65,5.65,0,0,1,3.61,3.61,9.08,9.08,0,0,0,8.5,5.73,10.81,10.81,0,0,0,2.85-.39,11.35,11.35,0,0,0,4.18-2,8.79,8.79,0,0,0,1.22-1.22,10.35,10.35,0,0,0-3.94-15.75Zm-3.94,17.19a7.93,7.93,0,0,1,0-15.86h0a7.93,7.93,0,1,1,0,15.86Z"/><path class="cls-24" d="M1706.12,693.58a7.44,7.44,0,0,1-6.56-3.41c-3.07-4.84-6.87-5.24-10.82-5.24h-1.36c-1.37,0-2.68,0-4,0h-21.53c-1.19,0-2.62,0-3.15-.57a1.7,1.7,0,0,1-.28-1.29c.06-.91.38-1.29,2.15-1.29h1.32l6.19,0c3.93,0,7.87,0,11.8,0,3.35,0,6.32,0,9.1.06h.7c3.35,0,6.56-.36,9.15-4.66a8.46,8.46,0,0,1,7.47-4,10.63,10.63,0,0,1,7,2.67,10.06,10.06,0,0,1,.66,14.4,11,11,0,0,1-7.82,3.43Z"/><path class="cls-25" d="M1550.85,85.25c-41.77,0-85.38-.08-129.6-.08q-62.28,0-124.57.07a10.07,10.07,0,0,1-8-3.2c-4.51-4.65-9.18-9.29-13.68-13.78s-9.32-9.29-13.9-14a12,12,0,0,0-9.38-3.86c-83.44.08-168.26.08-250.29.08H823.8c-82,0-166.85,0-250.28-.08a12,12,0,0,0-9.39,3.86c-4.58,4.71-9.32,9.44-13.9,14S541.06,77.39,536.55,82a10.06,10.06,0,0,1-8,3.2q-62.33-.06-124.59-.07c-44.23,0-87.83,0-129.6.08A10.79,10.79,0,0,1,266,81.7c-13.18-13.31-26.66-26.77-39.7-39.78L211,26.68l-.2-.2c-1.4-1.41-2.86-2.87-5.34-2.87a7.44,7.44,0,0,0-1.58.18,10.84,10.84,0,0,1-2.38.26,9.58,9.58,0,0,1-8.91-5.92,10.17,10.17,0,0,1,2.64-11.69,10,10,0,0,1,6.57-2.53,10.15,10.15,0,0,1,5.33,1.56,9.51,9.51,0,0,1,4.25,11.47c-1.4,3.84.13,5.79,2.13,7.77C234.9,46,252.14,63.22,267.77,79a9.81,9.81,0,0,0,7.56,3.14q63.29,0,126.55,0,62.78,0,125.55.06a10.34,10.34,0,0,0,8-3.46c3.7-3.78,7.52-7.58,11.21-11.24,5.17-5.14,10.52-10.45,15.64-15.8a13.24,13.24,0,0,1,10.57-4.48c36,.1,72.21.11,102.88.11h473.85c30.67,0,66.87,0,102.82-.11A13.31,13.31,0,0,1,1263,51.6c5.12,5.36,10.46,10.67,15.63,15.8,3.7,3.67,7.52,7.47,11.22,11.25a10.33,10.33,0,0,0,8,3.46q62.81-.06,125.56-.06,63.26,0,126.53,0a9.83,9.83,0,0,0,7.58-3.14c15.68-15.79,32.92-33,54.24-54.25,2-2,3.53-3.93,2.13-7.77a9.5,9.5,0,0,1,4.25-11.47,10.12,10.12,0,0,1,5.33-1.56A9.92,9.92,0,0,1,1630,6.44a10.15,10.15,0,0,1,2.65,11.69,9.58,9.58,0,0,1-8.91,5.92,10.84,10.84,0,0,1-2.38-.26,7.44,7.44,0,0,0-1.58-.18c-2.48,0-3.94,1.46-5.34,2.87l-.2.2L1599,41.91c-13,13-26.53,26.47-39.72,39.79a10.74,10.74,0,0,1-8.37,3.55Z"/><path class="cls-26" d="M541.55,0H546c-4.6,4.65-9.26,9.3-13.8,13.82Q526.6,19.37,521,24.94A7.91,7.91,0,0,1,515,27.73c-40.33,0-81.48-.07-122.34-.07q-52.08,0-104.17.05a8.38,8.38,0,0,1-6.57-2.84c-4.2-4.31-8.53-8.63-12.73-12.81q-4.69-4.68-9.37-9.38c-1.52-1.55-2.9-2.5-5-2.5a8.39,8.39,0,0,0-1.73.19,12.19,12.19,0,0,1-2.51.27A9.82,9.82,0,0,1,247,0h14.53c.14.15.29.31.45.46,6.7,6.56,13.63,13.34,20.25,20.29a11.79,11.79,0,0,0,9.35,3.89q49.83-.06,99.62-.06c38.8,0,79.57,0,121.16.08a10.33,10.33,0,0,0,8-3.36c4-4.13,8.19-8.28,12.21-12.29C535.54,6.05,538.55,3,541.55,0Z"/><path class="cls-27" d="M1578.23,0a9.86,9.86,0,0,1-3.55.64,12.12,12.12,0,0,1-2.51-.27,8.46,8.46,0,0,0-1.73-.19c-2.12,0-3.49,1-5,2.5-3.1,3.13-6.23,6.24-9.35,9.36-4.2,4.18-8.54,8.51-12.75,12.83a8.39,8.39,0,0,1-6.56,2.84q-52.11,0-104.18-.05c-40.86,0-82,0-122.33.07h0a7.91,7.91,0,0,1-6.06-2.79c-3.69-3.72-7.4-7.41-11.11-11.11-4.54-4.52-9.21-9.17-13.81-13.83h4.41c3,3,6,6.05,9,9,4,4,8.17,8.16,12.21,12.29a10.31,10.31,0,0,0,8,3.36c41.61-.05,82.38-.08,121.18-.08q49.79,0,99.59.06a11.81,11.81,0,0,0,9.38-3.89c6.6-6.93,13.54-13.72,20.25-20.29.16-.15.31-.31.45-.46Z"/><path class="cls-28" d="M1467.94,330.31a9.09,9.09,0,0,1-7.85-4.29c-2.28-3.62-4.91-4.34-8.41-4.34-120.4.05-239.72.06-361.55.06H992.3q-28.83,0-57.65,0h-.18l-.16.06a3.94,3.94,0,0,1-1.26.16,17.47,17.47,0,0,1-1.86-.13c-.37,0-.73-.08-1.07-.1l-6.5,0-6.44,0c-.41,0-.78.06-1.14.1a17.47,17.47,0,0,1-1.86.13,3.94,3.94,0,0,1-1.26-.16l-.16-.06h-.18q-28.82,0-57.65,0H757.1c-121.83,0-241.16,0-361.53-.06-3.52,0-6.15.72-8.43,4.34a9.11,9.11,0,0,1-7.85,4.29,10.34,10.34,0,0,1-7-2.78,10.11,10.11,0,0,1,0-14.8,10.48,10.48,0,0,1,7.07-2.83,8.62,8.62,0,0,1,7.41,4c2.72,4.24,5.94,4.58,9.88,4.58q89.41-.06,178.74-.05h108.3q114.51,0,229,.05h.15l.15-.05a4.51,4.51,0,0,1,1.29-.15c.56,0,1.17,0,1.75.1s.95.09,1.38.1h12.3c.45,0,.92-.05,1.41-.1s1.19-.1,1.74-.1a4.54,4.54,0,0,1,1.3.15l.15.05h.15q114.51-.08,229-.05h108.3q89.36,0,178.7.05c4,0,7.2-.34,9.92-4.58a8.61,8.61,0,0,1,7.4-4,10.49,10.49,0,0,1,7.08,2.83,10.1,10.1,0,0,1,0,14.8A10.31,10.31,0,0,1,1467.94,330.31Z"/><path class="cls-29" d="M533.66,170a2.44,2.44,0,0,0-1.77-.52c-1.73,0-3.47,0-5.2,0h-78.8l-38.44,0c-11.13,0-25.85,0-40.87-.09h-.12a10.46,10.46,0,0,0-8.32,3.4c-5.13,5.3-10.43,10.59-15.57,15.7-4.07,4.07-8.29,8.26-12.38,12.44a9.72,9.72,0,0,1-7.58,3.13q-27.48-.06-55-.06-25.21,0-50.47,0c-3.16,0-5.33-.61-7.08-3.78a9.18,9.18,0,0,0-8.21-4.82,10.54,10.54,0,0,0-3.23.52,10.06,10.06,0,0,0-7,9.68,9.66,9.66,0,0,0,6.72,9.46,10.07,10.07,0,0,0,3.63.68,8.86,8.86,0,0,0,7.9-4.53,7.24,7.24,0,0,1,3.61-3.46,11.66,11.66,0,0,1,4.44-.63h49.65c16.89,0,35.08,0,53.67.16h.21A15.2,15.2,0,0,0,335.64,202c4.75-5,9.75-10,14.59-14.79,3.67-3.64,7.46-7.4,11.12-11.17a11.41,11.41,0,0,1,8.95-3.63c34.21.06,68.15.07,96.85.07h60.21q2.34,0,4.68,0c1.86,0,1.91-1,1.93-1.39A1.41,1.41,0,0,0,533.66,170ZM209.91,210.51a7.84,7.84,0,0,1-5.38,2.89,7.63,7.63,0,0,1-.82,0,7.74,7.74,0,0,1-7.88-7.06,8,8,0,0,1,7.86-8.82,8.13,8.13,0,0,1,7.91,7.15A7.7,7.7,0,0,1,209.91,210.51Z"/><path class="cls-30" d="M267.42,503.08a10.54,10.54,0,0,1-7.46-3.14,9.9,9.9,0,0,1-2.86-7.49,10.19,10.19,0,0,1,3.63-7.28,10.51,10.51,0,0,1,6.72-2.48,8.74,8.74,0,0,1,7.73,4.33c2.34,4,5.17,4.28,8.36,4.28q25.62,0,51.08-.06c19.05,0,36.18,0,52.35.1a12.52,12.52,0,0,0,9.8-4.19c4.17-4.29,8.48-8.58,12.66-12.73,4.56-4.53,9.28-9.22,13.83-13.94a11.38,11.38,0,0,1,9-3.93h.27c6.25.09,13.11.13,21.56.13l13.23,0,12.72,0h24.15c10,0,17.73,0,24.91.05h0c.51,0,1,0,1.57-.08s1.08-.09,1.58-.09A2.46,2.46,0,0,1,534,457a1.8,1.8,0,0,1,.37,1.32c0,1.31-.45,1.71-1.9,1.71a14.36,14.36,0,0,1-1.69-.13c-.59-.06-1.14-.12-1.66-.12-17.63,0-33.49.08-48.5.08-16.47,0-31.68,0-46.51-.09h0a12,12,0,0,0-9.42,3.84c-4.34,4.47-8.83,8.95-13.18,13.28-4.63,4.6-9.41,9.37-14,14.14a11.11,11.11,0,0,1-8.83,3.65c-18.45-.07-37.13-.08-55.19-.09q-24.37,0-48.77-.06h-.14c-3.66,0-6.92.35-9.7,4.68a8.63,8.63,0,0,1-7.42,3.92Z"/><path class="cls-31" d="M313.85,406.17a12.7,12.7,0,0,1-10-4.31c-5-5.3-10.32-10.54-15.42-15.6-3.76-3.74-7.65-7.6-11.42-11.45a10.81,10.81,0,0,0-8.41-3.53c-15,.05-30.93.08-48.64.08q-23.73,0-47.45-.05h0c-2.74,0-5.29.29-7.13,3.8a9,9,0,0,1-8.26,4.88,11.78,11.78,0,0,1-3.14-.44,10.11,10.11,0,0,1-.12-19.28,10.39,10.39,0,0,1,3.29-.53,8.82,8.82,0,0,1,7.85,4.4c2,3.44,4.53,4.14,7.94,4.14,13.95,0,27.82,0,41.68,0,18,0,36.64,0,54.95-.09,3.9,0,6.44,1,8.88,3.57,4.78,5,9.73,9.88,14.52,14.64,4.18,4.17,8.51,8.48,12.69,12.77a11.33,11.33,0,0,0,8.82,3.74h.12c8.56-.06,17.7-.08,28.79-.08l22.89,0,10.94,0h1.08c2.24,0,2.65.44,2.65,1.67a1.66,1.66,0,0,1-.33,1.18,2.8,2.8,0,0,1-1.78.4l-.79,0h-.8c-5.84,0-11.62,0-17.4,0H343.39l-8.29,0c-2.76,0-5.53,0-8.3,0-4.78,0-8.67.06-12.27.17Z"/><path class="cls-32" d="M118.74,168.35a10.07,10.07,0,0,1-3.54-.64c-4.41-1.63-6.7-4.78-6.8-9.36a9.94,9.94,0,0,1,6.91-9.76,10.58,10.58,0,0,1,3.42-.57,8.62,8.62,0,0,1,7.72,4.31c2.2,3.92,5.1,4.24,8.39,4.24H135c17.48,0,34.83,0,49.5,0h77.39c13.61,0,31.54,0,49.52.08a18.6,18.6,0,0,0,2-.16,19.47,19.47,0,0,1,2.1-.16c1.82,0,2.18.63,2.21,1.8a2,2,0,0,1-.37,1.48,2.22,2.22,0,0,1-1.6.43h0a17.19,17.19,0,0,1-2.09-.18,16.47,16.47,0,0,0-2-.18c-31,.06-63.42.08-99.15.08l-77.8,0c-3.2,0-6,.3-8,4.08A8.85,8.85,0,0,1,118.74,168.35Z"/><path class="cls-33" d="M261.31,457.53a3.08,3.08,0,0,0-2.19-.61c-3.64,0-7.28,0-10.92,0H235.66l-1,0-5,0-6,0c-3.45,0-6.26,0-8.85-.09h-.27a8.26,8.26,0,0,0-6.34,2.81c-5,5.06-10.1,10.16-15,15.09-4.61,4.61-9.38,9.37-14,14.08a9.16,9.16,0,0,1-7.1,3c-15,0-30.58-.07-46.38-.07-14.61,0-29.22,0-43.92.06-2.8,0-5.48-.31-7.48-4a8.81,8.81,0,0,0-8-4.72,11.09,11.09,0,0,0-3.43.56,10,10,0,0,0,.21,19.2,10.46,10.46,0,0,0,3.25.52A8.7,8.7,0,0,0,74,498.85a7.16,7.16,0,0,1,3.5-3.33,10.82,10.82,0,0,1,4.11-.6q18.6,0,37.19,0c17.38,0,35.36,0,53.13.09a11.66,11.66,0,0,0,9.27-3.82c5.1-5.27,10.39-10.52,15.5-15.6,4-4,8.1-8.06,12.1-12.13a10.33,10.33,0,0,1,7.9-3.35h.15c4.89.05,10.18.07,16.63.07l11.9,0h11.67c.66,0,1.32,0,2,0,2.1-.1,2.5-.53,2.56-1.4A1.57,1.57,0,0,0,261.31,457.53ZM71.45,498.82a7.95,7.95,0,0,1-11.16-11.31,7.8,7.8,0,0,1,5.56-2.29h0a7.93,7.93,0,0,1,5.59,13.6Z"/><path class="cls-34" d="M1182.55,542.6a11.09,11.09,0,0,0-3.43-.56,8.81,8.81,0,0,0-8,4.72,7,7,0,0,1-3.44,3.38,10.66,10.66,0,0,1-4.12.61q-21.87-.06-43.73-.06c-15.85,0-31.49,0-46.54.07a9.13,9.13,0,0,1-7-3c-4.67-4.72-9.44-9.49-14.06-14.1-4.94-4.93-10-10-15-15.07a8.25,8.25,0,0,0-6.34-2.81h-.27c-2.59.06-5.4.09-8.84.09l-6,0-5,0v0H815.55l-1,0-5,0-6,0c-3.44,0-6.25,0-8.84-.09h-.27a8.25,8.25,0,0,0-6.34,2.81c-5,5-10.09,10.14-15,15.07-4.62,4.61-9.39,9.38-14.06,14.1a9.16,9.16,0,0,1-7.1,3c-15,0-30.64-.07-46.5-.07-14.57,0-29.14,0-43.8.06-2.81,0-5.49-.31-7.48-4a8.82,8.82,0,0,0-8-4.72,11.08,11.08,0,0,0-3.42.56,10,10,0,0,0,.2,19.2,10.53,10.53,0,0,0,3.26.52,8.7,8.7,0,0,0,7.79-4.48,7.14,7.14,0,0,1,3.49-3.33,10.68,10.68,0,0,1,4.12-.6q18.59,0,37.19,0c17.38,0,35.35,0,53.13.08a11.65,11.65,0,0,0,9.27-3.81c5.1-5.27,10.39-10.52,15.5-15.6,4-4,8.1-8.06,12.1-12.13a10.31,10.31,0,0,1,7.89-3.35h.16c4.89,0,10.18.07,16.63.07l11.9,0h175l11.48,0c6.45,0,11.74,0,16.63-.07h.15a10.32,10.32,0,0,1,7.9,3.35c4,4.07,8.12,8.17,12.1,12.13,5.11,5.08,10.4,10.33,15.5,15.6a11.72,11.72,0,0,0,9.36,3.81c17.69-.08,35.66-.08,53-.08,12.4,0,24.79,0,37.26,0,2.8,0,5.49.3,7.54,3.93a8.7,8.7,0,0,0,7.79,4.48,10.53,10.53,0,0,0,3.26-.52,10,10,0,0,0,.2-19.2ZM651.34,557.81a7.94,7.94,0,0,1-11.15-11.31,7.79,7.79,0,0,1,5.56-2.29h0a7.93,7.93,0,0,1,5.58,13.6Zm528.1,2.39a7.9,7.9,0,0,1-5.55-2.39,7.93,7.93,0,0,1,5.58-13.6h0a7.76,7.76,0,0,1,5.56,2.29,8.07,8.07,0,0,1-5.6,13.7Z"/><path class="cls-35" d="M223.23,95.29a2.4,2.4,0,0,0-1.67-.4c-.36,0-.73,0-1.09,0s-.74,0-1.1,0h-2.48q-14.13,0-28.26,0c-10.76,0-20.16,0-28.74.09h-.12a10.72,10.72,0,0,1-8.39-3.47c-4.78-4.89-9.7-9.81-14.47-14.56-4.43-4.43-9-9-13.48-13.57a8.85,8.85,0,0,0-6.92-2.95h-.13c-7.74.07-15.6.08-22.26.08h-13q-6.9,0-13.78,0H67.1c-2.75,0-5.15-.29-6.71-4a9.08,9.08,0,0,0-8.5-5.73,10.81,10.81,0,0,0-2.85.39C44.5,52.52,42,55.46,41.52,60a9.75,9.75,0,0,0,6.07,10.26,10.8,10.8,0,0,0,4.16.88,9.6,9.6,0,0,0,8-4.46,6.89,6.89,0,0,1,2.92-2.53,8.69,8.69,0,0,1,3.52-.59q12.28,0,24.57.06c8.74,0,16.58,0,24-.09h.11a9.65,9.65,0,0,1,7.43,3.2c4.4,4.47,8.92,9,13.3,13.34,4.95,4.93,10.08,10,15.06,15.12a8.67,8.67,0,0,0,6.82,2.9h.23c4-.06,8.31-.09,13.65-.09h8.58l8.58,0h16.15c4.88,0,9.75,0,14.68,0,.36,0,.75,0,1.14,0s.76,0,1.14,0c1.53,0,2-.35,2-1.58A1.73,1.73,0,0,0,223.23,95.29ZM57.16,66.62a8,8,0,0,1-13.58-5.55,7.84,7.84,0,0,1,7.87-8h.07A7.84,7.84,0,0,1,59.43,61,8,8,0,0,1,57.16,66.62Z"/><path class="cls-36" d="M118.71,441.69a10.68,10.68,0,0,1-7-2.67,10.06,10.06,0,0,1-.66-14.4,11,11,0,0,1,7.82-3.44,7.45,7.45,0,0,1,6.56,3.42c3.07,4.84,6.87,5.24,10.81,5.24h1.38c1.36,0,2.67,0,4,0h21.54c1.19,0,2.62,0,3.15.57a1.72,1.72,0,0,1,.29,1.29c-.07.91-.39,1.29-2.15,1.29h-1.33l-6.21,0q-5.91,0-11.82.05c-3,0-6,0-9.06-.06h-.71c-3.34,0-6.55.35-9.14,4.66a8.48,8.48,0,0,1-7.47,4Z"/><path class="cls-37" d="M933.33,913.23a17.51,17.51,0,0,1-2.11-.18c-.5-.06-1-.12-1.44-.15H917.5c-.52,0-1,.1-1.52.16a17.52,17.52,0,0,1-2.1.18,3.21,3.21,0,0,1-1.35-.22l-.21-.11h-.23C882,913,852.5,913,825,913H719.22c-26.17,0-57.15,0-88.57.08a11.3,11.3,0,0,1-8.88-3.62c-11.19-11.31-22.63-22.74-33.69-33.8-9.39-9.38-19.09-19.08-28.6-28.66a12.06,12.06,0,0,0-9.25-4h-.1c-11.83.07-24.23.1-37.88.1q-18.63,0-37.27-.07h-.12c-3,0-5.79.32-7.9,4.12a9,9,0,0,1-8,4.57,10.1,10.1,0,0,1-3.56-.65,9.71,9.71,0,0,1-6.73-9.47,10,10,0,0,1,7-9.7,10.86,10.86,0,0,1,3.25-.5,8.75,8.75,0,0,1,7.89,4.38c2.12,3.88,5,4.19,8.3,4.19h.23q16.08,0,32.17,0c14.43,0,29.35,0,44-.09h.12a11.2,11.2,0,0,1,8.78,3.59c10.44,10.55,21.1,21.21,31.42,31.52,10.13,10.13,20.6,20.6,30.85,31a12.55,12.55,0,0,0,9.82,4c46.72,0,95.06-.06,143.7-.06q67.95,0,135.9,0h.23l.2-.1a3.52,3.52,0,0,1,1.42-.23,17.67,17.67,0,0,1,2.12.18c.6.07,1.17.13,1.68.16h11.54c.56,0,1.13-.09,1.72-.16a17.83,17.83,0,0,1,2.13-.18,3.47,3.47,0,0,1,1.41.23l.21.1H935q68,0,135.91,0c48.64,0,97,0,143.68.06a12.53,12.53,0,0,0,9.83-4c10.26-10.36,20.75-20.85,30.89-31,10.3-10.31,21-21,31.39-31.5a11.2,11.2,0,0,1,8.78-3.59h.11c14.68.09,29.61.09,44,.09q16.08,0,32.17,0h.22c3.29,0,6.19-.31,8.31-4.19a8.75,8.75,0,0,1,7.89-4.38,10.91,10.91,0,0,1,3.25.5,10,10,0,0,1,7,9.7,9.69,9.69,0,0,1-6.72,9.47,10.1,10.1,0,0,1-3.56.65,9,9,0,0,1-8-4.57c-2.11-3.8-4.94-4.12-7.9-4.12h-.12q-18.64.07-37.27.07c-13.66,0-26,0-37.88-.1h-.1a12.1,12.1,0,0,0-9.26,4c-9.51,9.59-19.22,19.3-28.62,28.69-11,11.05-22.48,22.47-33.66,33.77a11.27,11.27,0,0,1-8.84,3.62c-31.47-.07-62.45-.08-88.61-.08H1022.17c-27.46,0-57,0-87-.06h-.24l-.21.11A3.15,3.15,0,0,1,933.33,913.23Z"/><path class="cls-38" d="M1340,611.11a10.69,10.69,0,0,0-3.21-.51,9.45,9.45,0,0,0-8.2,4.93c-1.74,2.89-3.85,3.47-6.68,3.47h-.12l-4.89,0-9.43,0-9.45,0c-4.51,0-8.23,0-11.72-.08H1286a10.58,10.58,0,0,0-8.19,3.51c-3.79,3.89-7.71,7.78-11.5,11.55-4.82,4.79-9.81,9.75-14.59,14.74a14.76,14.76,0,0,1-11.61,4.94c-61.07-.09-123.07-.11-181-.11H923.43l-.11,0a4.76,4.76,0,0,0-1.09-.11c-.5,0-1.05,0-1.58.09l-.68.05-7.36,0-7.42,0-.61-.05c-.53,0-1.08-.09-1.58-.09a4.69,4.69,0,0,0-1.09.11l-.11,0H766.12c-57.91,0-119.92,0-181,.11a14.74,14.74,0,0,1-11.57-4.94c-4.79-5-9.78-10-14.61-14.75-3.78-3.77-7.69-7.65-11.49-11.54a10.55,10.55,0,0,0-8.19-3.51H539c-3.49.06-7.21.08-11.72.08l-9.45,0-9.43,0-4.89,0h-.12c-2.83,0-4.94-.58-6.69-3.47a9.43,9.43,0,0,0-8.19-4.93,10.69,10.69,0,0,0-3.21.51,10.15,10.15,0,0,0,3.2,19.78c3.38,0,6.36-1.86,8.38-5.24a6.32,6.32,0,0,1,6.17-3.4h.14c7.17.06,13.57.09,19.59.09,5.4,0,10.43,0,15.35-.07h.15a10.32,10.32,0,0,1,7.91,3.37c3.9,4,7.92,8,11.82,11.89,4.94,4.94,10.06,10,15,15.18a12.8,12.8,0,0,0,10.2,4.3c35-.1,69.85-.11,99.29-.11h83.29q68,0,136,0h.1l.1,0a6.16,6.16,0,0,0,1.15.09c.48,0,1,0,1.45-.06l1.06-.06H919.6l1,.06c.48,0,1,.06,1.45.06a6.16,6.16,0,0,0,1.15-.09l.1,0h.1q23.46,0,46.91,0H972q9.22,0,18.44,0h152.32c29.44,0,64.26,0,99.29.11h.06a12.76,12.76,0,0,0,10.14-4.3c4.93-5.14,10-10.25,15-15.19,3.88-3.88,7.9-7.89,11.8-11.88a10.31,10.31,0,0,1,7.91-3.37h.15c4.92.05,9.94.07,15.35.07,6,0,12.42,0,19.59-.09h.14a6.33,6.33,0,0,1,6.17,3.4c2,3.38,5,5.24,8.37,5.24a10.1,10.1,0,0,0,3.21-19.78ZM488.17,628.76h-.28a8.1,8.1,0,0,1-7.66-8.29,8,8,0,0,1,7.92-7.7h.3A8,8,0,0,1,496.1,621,8.06,8.06,0,0,1,488.17,628.76Zm849.17,0h-.28a8.06,8.06,0,0,1-7.93-7.74,8,8,0,0,1,7.65-8.26h.29a8,8,0,0,1,7.93,7.7A8.1,8.1,0,0,1,1337.34,628.75Z"/><path class="cls-39" d="M543.25,906.32q-2.34,0-4.68,0H478.5c-28.83,0-62.9,0-97,.06a11.34,11.34,0,0,1-8.92-3.63c-3.66-3.77-7.45-7.53-11.12-11.16-4.84-4.8-9.84-9.75-14.59-14.8a15.2,15.2,0,0,0-12.19-5.25h-.21c-18.59.15-36.79.17-53.69.17h-49.7c-3.13,0-5.89-.31-8-4.08a8.86,8.86,0,0,0-7.91-4.54,10.06,10.06,0,0,0-3.62.68,9.67,9.67,0,0,0-6.72,9.46,10,10,0,0,0,7,9.68,10.3,10.3,0,0,0,3.23.52,9.15,9.15,0,0,0,8.21-4.82c1.76-3.16,3.93-3.78,7.13-3.78q25.22,0,50.43,0,27.48,0,55-.06a9.73,9.73,0,0,1,7.54,3.13c4.09,4.18,8.31,8.38,12.38,12.44,5.13,5.12,10.44,10.4,15.57,15.7a10.46,10.46,0,0,0,8.32,3.41h.12c11.66-.07,24.18-.1,40.6-.1l38.71,0h78.79l5.21,0a2.45,2.45,0,0,0,1.77-.53,1.48,1.48,0,0,0,.31-1.12C545.16,907.37,545.11,906.34,543.25,906.32ZM222.81,874.09a8.13,8.13,0,0,1-7.91,7.15,5.92,5.92,0,0,1-.84,0,8,8,0,0,1-7-8.77,7.74,7.74,0,0,1,7.88-7.06c.27,0,.54,0,.81,0a7.82,7.82,0,0,1,5.39,2.9A7.71,7.71,0,0,1,222.81,874.09Z"/><path class="cls-40" d="M1234.31,805.74a10,10,0,0,0-3.46-.63,9.17,9.17,0,0,0-8,4.72c-1.94,3.31-4.31,4-7.58,4q-22.23-.07-44.46-.07c-20,0-40.66,0-61.08-.13a11.6,11.6,0,0,0-9.19,3.93c-4.55,4.73-9.28,9.43-13.85,14l-2.69,2.68c-3.2,3.18-6.44,6.43-9.59,9.69-.24.23-.46.47-.69.7a12,12,0,0,1-9.41,3.82c-12.62,0-25.5,0-38.86,0h0l-34.26,0H972.66l-37.7,0h-.16l-.17-.06a3.63,3.63,0,0,0-1.16-.15,16.79,16.79,0,0,0-1.69.12c-.38,0-.76.07-1.17.09H916.54l-1.12-.09a16.39,16.39,0,0,0-1.68-.12,3.74,3.74,0,0,0-1.17.15l-.16.06h-.17q-28.08,0-56.19,0c-26.15,0-50.07,0-73.17.07a11.92,11.92,0,0,1-9.36-3.82c-4.27-4.41-8.7-8.82-13-13.08-4.57-4.55-9.29-9.26-13.85-14a11.64,11.64,0,0,0-9.28-3.93c-20.33.1-41,.12-61,.13-14.82,0-29.63,0-44.52.07-3.2,0-5.57-.67-7.52-4a9.16,9.16,0,0,0-8-4.72,10,10,0,0,0-3.47.63,9.71,9.71,0,0,0-6.86,9.37,10.34,10.34,0,0,0,6.92,9.8,9.72,9.72,0,0,0,11.49-4.23c1.87-3.22,4.18-3.87,7.11-3.87q30.12.06,60.25.07,22.59,0,45.23,0a10.26,10.26,0,0,1,7.92,3.46c4.32,4.4,8.75,8.83,13,13.11,4.91,4.9,10,10,14.92,15a9.47,9.47,0,0,0,7.51,3.06c14.19-.07,28.15-.08,38.72-.08l67.62,0q12.76,0,25.53,0h.15l.15.05a3.65,3.65,0,0,0,1.09.13c.52,0,1.09-.06,1.64-.11l.86-.07,7.42,0,7.48,0,.78.07c.56,0,1.13.11,1.65.11a3.65,3.65,0,0,0,1.09-.13l.14-.05h.16q12.76,0,25.53,0h67.62c10.57,0,24.53,0,38.81.08a9.4,9.4,0,0,0,7.42-3.06l2-2c4-4.12,8.14-8.22,12.15-12.22l.83-.83c4.28-4.28,8.72-8.7,13-13.1a10.32,10.32,0,0,1,8-3.46q22.61,0,45.2,0,30.12,0,60.29-.07c2.88,0,5.19.65,7.07,3.87a9.72,9.72,0,0,0,11.49,4.23,10.34,10.34,0,0,0,6.92-9.8A9.71,9.71,0,0,0,1234.31,805.74ZM616.18,823.33h-.1a8.14,8.14,0,0,1-7.93-7.94,7.78,7.78,0,0,1,2.25-5.6,7.91,7.91,0,0,1,5.67-2.37h0a7.65,7.65,0,0,1,7.9,7.85A7.88,7.88,0,0,1,616.18,823.33Zm615,0H1231a7.87,7.87,0,0,1-7.8-8.06,7.65,7.65,0,0,1,7.9-7.85h0a7.93,7.93,0,0,1,5.67,2.37,7.77,7.77,0,0,1,2.24,5.6A8.12,8.12,0,0,1,1231.13,823.33Z"/><path class="cls-41" d="M532.48,657.25c-.51,0-1.05,0-1.58-.09s-1.06-.09-1.53-.09c-7.2,0-14.85.06-24.83.06H480.26l-12.83,0-13.16,0c-8.45,0-15.28,0-21.52.13h-.27a11.41,11.41,0,0,1-9-3.92c-4.54-4.71-9.25-9.4-13.81-13.93-4.18-4.15-8.5-8.45-12.67-12.74a12.49,12.49,0,0,0-9.72-4.2c-16.21.07-33.29.11-52.32.11q-25.54,0-51.11-.07h0c-3.27,0-6.1.33-8.44,4.29a8.74,8.74,0,0,1-7.73,4.33h0a10.51,10.51,0,0,1-6.73-2.49,10.18,10.18,0,0,1-3.62-7.27,9.89,9.89,0,0,1,2.86-7.49,10.52,10.52,0,0,1,7.45-3.14,8.61,8.61,0,0,1,7.42,3.92c2.78,4.33,6,4.68,9.71,4.68h.14q24.39-.07,48.77-.06c18.06,0,36.74,0,55.11-.09a11.17,11.17,0,0,1,8.91,3.65c4.61,4.77,9.39,9.54,14,14.14,4.34,4.33,8.84,8.81,13.18,13.28a11.91,11.91,0,0,0,9.33,3.84c15-.06,30.22-.09,46.71-.09,15,0,30.85,0,48.37.07h0a14,14,0,0,0,1.67-.12,17,17,0,0,1,1.7-.12c1.45,0,1.89.4,1.9,1.71a1.86,1.86,0,0,1-.37,1.32A2.48,2.48,0,0,1,532.48,657.25Z"/><path class="cls-42" d="M157.36,738.05a10.68,10.68,0,0,1-3.29-.53,10.11,10.11,0,0,1,.12-19.28,11.35,11.35,0,0,1,3.14-.45,9,9,0,0,1,8.26,4.88c1.84,3.51,4.39,3.8,7.07,3.8q23.88,0,47.65-.05c17.64,0,33.48,0,48.43.08a10.82,10.82,0,0,0,8.48-3.53c3.77-3.85,7.66-7.71,11.42-11.45,5.1-5.06,10.38-10.3,15.42-15.6a12.69,12.69,0,0,1,10-4.31h.68c3.6.12,7.51.17,12.3.17l8.29,0c2.75,0,5.51,0,8.27,0h16.62q8.58,0,17.17,0h0l.84,0,.8,0a2.75,2.75,0,0,1,1.78.41,1.64,1.64,0,0,1,.33,1.17c0,1.24-.41,1.68-2.65,1.68H366.86q-11.58,0-23.17,0c-11.11,0-20.29,0-28.88-.08h-.12a11.32,11.32,0,0,0-8.82,3.73c-4.19,4.3-8.52,8.61-12.7,12.78-4.79,4.76-9.74,9.69-14.51,14.63a11,11,0,0,1-8.78,3.57c-18.39-.08-37-.08-55-.09q-20.84,0-41.67,0h0c-3.49,0-6,.69-8,4.14A8.84,8.84,0,0,1,157.36,738.05Z"/><path class="cls-43" d="M129.94,917.79a10.53,10.53,0,0,1-3.42-.57,9.94,9.94,0,0,1-6.91-9.75c.1-4.58,2.39-7.73,6.79-9.37a10.35,10.35,0,0,1,3.55-.64,8.86,8.86,0,0,1,8,4.61c2,3.77,4.83,4.08,8,4.08q38.81,0,77.51,0c35.79,0,68.33,0,99.48.08a16.36,16.36,0,0,0,2-.17,17.44,17.44,0,0,1,2.09-.19,2.25,2.25,0,0,1,1.61.43,2.11,2.11,0,0,1,.37,1.49c0,1.17-.4,1.8-2.22,1.8a19.58,19.58,0,0,1-2.09-.17,18.83,18.83,0,0,0-2-.16c-18.09.07-36.07.08-49.71.08H195.66c-14.63,0-31.95,0-49.49-.06H146c-3.28,0-6.17.32-8.37,4.25a8.63,8.63,0,0,1-7.72,4.3Z"/><path class="cls-44" d="M1717.27,817.89a8.64,8.64,0,0,1-7.72-4.3c-2.2-3.93-5.1-4.25-8.37-4.25H1701c-17.54,0-34.86,0-49.49,0h-77.24c-13.64,0-31.62,0-49.69-.08h0a18.6,18.6,0,0,0-2,.16,19.55,19.55,0,0,1-2.1.17c-1.82,0-2.18-.64-2.21-1.8a2.06,2.06,0,0,1,.37-1.49,2.22,2.22,0,0,1,1.6-.43,17.19,17.19,0,0,1,2.09.18,14.68,14.68,0,0,0,2,.18c31.16,0,63.7-.08,99.49-.08q38.73,0,77.46,0c3.2,0,6-.31,8-4.08a8.84,8.84,0,0,1,8-4.61,10.3,10.3,0,0,1,3.54.64c4.41,1.63,6.7,4.78,6.8,9.36a9.94,9.94,0,0,1-6.91,9.76A10.58,10.58,0,0,1,1717.27,817.89Z"/><path class="cls-45" d="M129.94,817.89a10.53,10.53,0,0,1-3.42-.57,9.94,9.94,0,0,1-6.91-9.76c.1-4.58,2.39-7.73,6.79-9.36a10.35,10.35,0,0,1,3.55-.64,8.86,8.86,0,0,1,8,4.61c2,3.77,4.83,4.08,8,4.08q38.81,0,77.51,0c35.79,0,68.33,0,99.48.08a14.68,14.68,0,0,0,2-.18,17.36,17.36,0,0,1,2.09-.18,2.25,2.25,0,0,1,1.61.43,2.11,2.11,0,0,1,.37,1.49c0,1.16-.4,1.8-2.22,1.8a19.58,19.58,0,0,1-2.09-.17,18.83,18.83,0,0,0-2-.16c-18.09.07-36.07.08-49.71.08H195.66c-14.63,0-31.95,0-49.49,0H146c-3.28,0-6.17.32-8.37,4.25a8.65,8.65,0,0,1-7.72,4.3Z"/><path class="cls-46" d="M1717.27,567.14a8.62,8.62,0,0,1-7.72-4.31c-2.2-3.93-5.1-4.25-8.37-4.25H1701c-17.54,0-34.86.06-49.49.06h-77.24c-13.64,0-31.62,0-49.69-.07h0a18.5,18.5,0,0,0-2,.15,17.28,17.28,0,0,1-2.1.17c-1.82,0-2.18-.63-2.21-1.8a2.06,2.06,0,0,1,.37-1.49,2.22,2.22,0,0,1,1.6-.43,17.26,17.26,0,0,1,2.09.19,16.47,16.47,0,0,0,2,.18c31.16-.06,63.7-.09,99.49-.09q38.73,0,77.46,0c3.2,0,6-.31,8-4.08a8.86,8.86,0,0,1,8-4.61,10.08,10.08,0,0,1,3.54.65c4.41,1.63,6.7,4.78,6.8,9.36a10,10,0,0,1-6.91,9.76A10.85,10.85,0,0,1,1717.27,567.14Z"/><path class="cls-47" d="M129.94,567.14a10.81,10.81,0,0,1-3.42-.57,10,10,0,0,1-6.91-9.76c.1-4.58,2.39-7.73,6.79-9.36a10.13,10.13,0,0,1,3.55-.65,8.88,8.88,0,0,1,8,4.61c2,3.77,4.83,4.08,8,4.08q38.81,0,77.51,0c35.79,0,68.33,0,99.48.09a16.47,16.47,0,0,0,2-.18,17.44,17.44,0,0,1,2.09-.19,2.25,2.25,0,0,1,1.61.43,2.11,2.11,0,0,1,.37,1.49c0,1.17-.4,1.8-2.22,1.8a17.28,17.28,0,0,1-2.09-.17,18.7,18.7,0,0,0-2-.15c-18.09.06-36.07.07-49.71.07H195.66c-14.63,0-31.95,0-49.49-.06H146c-3.28,0-6.17.32-8.37,4.25a8.64,8.64,0,0,1-7.72,4.31Z"/><path class="cls-48" d="M1717.27,297.4a8.62,8.62,0,0,1-7.72-4.31c-2.2-3.93-5.1-4.24-8.37-4.24H1701c-17.54,0-34.86,0-49.49,0h-77.24c-13.64,0-31.62,0-49.69-.08h0a16.42,16.42,0,0,0-2,.16,19.47,19.47,0,0,1-2.1.16c-1.82,0-2.18-.63-2.21-1.8a2,2,0,0,1,.37-1.48,2.22,2.22,0,0,1,1.6-.43,17.19,17.19,0,0,1,2.09.18,16.47,16.47,0,0,0,2,.18c31.16-.06,63.7-.09,99.49-.09q38.73,0,77.46,0c3.2,0,6-.31,8-4.08a8.85,8.85,0,0,1,8-4.6,10.07,10.07,0,0,1,3.54.64c4.41,1.63,6.7,4.78,6.8,9.36a10,10,0,0,1-6.91,9.76A10.58,10.58,0,0,1,1717.27,297.4Z"/><path class="cls-49" d="M129.94,297.4a10.53,10.53,0,0,1-3.42-.57,10,10,0,0,1-6.91-9.76c.1-4.58,2.39-7.73,6.79-9.36a10.12,10.12,0,0,1,3.55-.64,8.88,8.88,0,0,1,8,4.6c2,3.77,4.83,4.08,8,4.08q38.81,0,77.51,0c35.79,0,68.33,0,99.48.09a16.47,16.47,0,0,0,2-.18,17.36,17.36,0,0,1,2.09-.18,2.25,2.25,0,0,1,1.61.43,2.06,2.06,0,0,1,.37,1.48c0,1.17-.4,1.8-2.22,1.8a19.48,19.48,0,0,1-2.09-.16,16.56,16.56,0,0,0-2-.16c-18.09.07-36.07.08-49.71.08H195.66c-14.63,0-31.95,0-49.49,0H146c-3.28,0-6.17.31-8.37,4.24a8.64,8.64,0,0,1-7.72,4.31Z"/><path class="cls-50" d="M259.28,653.63c-.66,0-1.31,0-2,0h-1.63l-10.05,0h-11.9c-6.45,0-11.74,0-16.63.07h-.16a10.31,10.31,0,0,1-7.89-3.35c-4-4.08-8.13-8.18-12.11-12.14-5.11-5.07-10.39-10.33-15.49-15.59a11.73,11.73,0,0,0-9.37-3.82c-17.68.08-35.65.09-53,.09-12.4,0-24.8,0-37.27,0-2.8,0-5.48-.3-7.53-3.93a8.7,8.7,0,0,0-7.79-4.48,10.82,10.82,0,0,0-3.26.51,10,10,0,0,0-.2,19.21,11.06,11.06,0,0,0,3.42.55,8.81,8.81,0,0,0,8-4.71,7,7,0,0,1,3.44-3.38A10.44,10.44,0,0,1,82,622q22,.06,44,.06c15.79,0,31.35,0,46.3-.08a9.13,9.13,0,0,1,7,3c4.66,4.71,9.43,9.47,14,14.07,4.95,4.94,10.06,10,15,15.1a8.23,8.23,0,0,0,6.33,2.8H215c2.59-.06,5.4-.09,8.84-.09l6,0,5,0v0h13.62c3.62,0,7.23,0,10.85,0a3.13,3.13,0,0,0,2.19-.61,1.58,1.58,0,0,0,.3-1.21C261.77,654.16,261.38,653.73,259.28,653.63ZM66.07,628.55a7.8,7.8,0,0,1-5.56-2.29,8.08,8.08,0,0,1,5.58-13.71h0a8.19,8.19,0,0,1,7.94,8.05A8.1,8.1,0,0,1,66.07,628.55Z"/><path class="cls-51" d="M232.73,963.7c-.37,0-.76,0-1.13,0s-.78,0-1.19,0h0q-7.32,0-14.65,0H191l-8.5,0c-5.35,0-9.7,0-13.67-.09h-.23a8.69,8.69,0,0,0-6.83,2.91c-5,5.08-10.1,10.19-15.06,15.12l-2.23,2.22c-3.67,3.66-7.41,7.4-11.07,11.12a9.63,9.63,0,0,1-7.43,3.2h-.11c-7.38-.06-15.24-.09-24-.09-8.17,0-16.34,0-24.59.06-2.52,0-4.57-.53-6.36-3.12A9.6,9.6,0,0,0,63,990.65a10.85,10.85,0,0,0-4.17.88,9.76,9.76,0,0,0-6.07,10.26c.46,4.57,3,7.51,7.53,8.76a10.74,10.74,0,0,0,2.84.39,9.08,9.08,0,0,0,8.51-5.73c1.56-3.66,4-4,6.72-4h.21q7,0,14,0h12.87c6.66,0,14.5,0,22.23.08h.13a8.82,8.82,0,0,0,6.91-3c3.68-3.77,7.45-7.54,11.15-11.22.78-.79,1.56-1.56,2.33-2.33,4.76-4.76,9.7-9.68,14.48-14.58a10.72,10.72,0,0,1,8.39-3.47h.11c8.59.06,18,.09,28.74.09q14.13,0,28.26,0h2.5c.34,0,.71,0,1.09,0s.73,0,1.09,0a2.35,2.35,0,0,0,1.66-.4,1.72,1.72,0,0,0,.32-1.25C234.71,964.05,234.26,963.7,232.73,963.7Zm-170.07,45a7.93,7.93,0,0,1,0-15.86h0a7.93,7.93,0,0,1-.09,15.86Z"/><path class="cls-52" d="M1015.23,798.74A9.18,9.18,0,0,1,1007,794c-1.92-3.58-4.46-3.87-7.34-3.87h-.24q-11.32.06-22.64,0H848.47q-11.31,0-22.64,0h-.24c-2.88,0-5.42.29-7.35,3.87a9.16,9.16,0,0,1-8.24,4.78h0a11.47,11.47,0,0,1-3.22-.48,10.13,10.13,0,0,1-7-9.66,9.66,9.66,0,0,1,6.66-9.46,10.11,10.11,0,0,1,3.66-.69A8.89,8.89,0,0,1,818,783c2,3.42,4.4,4.09,7.89,4.09,14.65,0,30.13-.06,50.3-.06h72.89c20.17,0,35.65,0,50.21.06,3.57,0,6-.67,8-4.09a8.89,8.89,0,0,1,7.88-4.5,10.11,10.11,0,0,1,3.66.69,9.66,9.66,0,0,1,6.66,9.46,10.14,10.14,0,0,1-7,9.66A11.47,11.47,0,0,1,1015.23,798.74Z"/><path class="cls-53" d="M119.11,693.58a10.94,10.94,0,0,1-7.82-3.43,10.06,10.06,0,0,1,.66-14.4,10.63,10.63,0,0,1,7-2.67,8.46,8.46,0,0,1,7.47,4c2.59,4.3,5.8,4.66,9.14,4.66h.71c2.78,0,5.75-.06,9.1-.06q5.9,0,11.8,0l6.14,0h1.37c1.77,0,2.09.38,2.15,1.29a1.65,1.65,0,0,1-.29,1.29c-.52.57-2,.57-3.09.57H141.85c-1.32,0-2.63,0-3.95,0h-1.41c-4,0-7.75.4-10.82,5.24a7.45,7.45,0,0,1-6.56,3.41Z"/><path class="cls-54" d="M1352.25,361v.06a6,6,0,0,1-6,5.94H997a6,6,0,0,1-5.71-4,50.76,50.76,0,0,1,79.84-56.18c-.1-1.58-.15-3.17-.15-4.78a78,78,0,0,1,154.7-14.26A40,40,0,0,1,1294,316c0,.39,0,.77,0,1.15A45.67,45.67,0,0,1,1352.25,361Z"/><path class="cls-55" d="M1920,387.69V459H1806.7a6.76,6.76,0,0,1-6.17-4,29,29,0,0,1,41.28-36.79,45.6,45.6,0,0,1,78.19-30.5Z"/><path class="cls-56" d="M981.55,1048.12S891,909,1024,849s174,82,269,77,90.88-102.1,194-53c126,60,161-160,251-109,95.56,54.15,86,272-74,268S981.55,1048.12,981.55,1048.12Z"/><path class="cls-57" d="M225,1069.5a98.12,98.12,0,0,1-.56,10.5H0V898.29c10,9.33,18.55,21.38,25.26,35.39C37.52,924.93,51.35,920,66,920c33.44,0,62.67,25.68,78.47,63.94.45,1.07.89,2.15,1.31,3.25.23.59.46,1.19.68,1.79A57.56,57.56,0,0,1,157,988c23.8,0,44.75,14.66,56.89,36.85a87.28,87.28,0,0,1,6.92,16.45,93.33,93.33,0,0,1,3.12,13.71A98.33,98.33,0,0,1,225,1069.5Z"/><path class="cls-58" d="M270.12,1080H0V994.26c27.6,2.37,51.44,21,64.9,47.92C82,1028.19,102.71,1020,125,1020c30.63,0,58.24,15.46,77.72,40.21a50.71,50.71,0,0,1,21.21-5.2H225a51.66,51.66,0,0,1,29.52,9.43A62.9,62.9,0,0,1,269,1078.52C269.41,1079,269.77,1079.5,270.12,1080Z"/><rect class="cls-59" width="1920" height="1080"/><path class="cls-60" d="M1919.77,780.19a108.36,108.36,0,0,0-8.7-7.9c-3-2.45-6.18-4.8-9.4-7a160.44,160.44,0,0,0-20.1-11.84,168.07,168.07,0,0,0-21.48-8.89c-1.84-.6-3.65-1.28-5.51-1.81l-5.59-1.58-2.79-.79-2.84-.62-5.67-1.25a200.74,200.74,0,0,0-46.25-4c-2,0-3.89.11-5.83.25l-5.83.37c-3.9.13-7.76.74-11.64,1.15l-5.82.67c-1.94.21-3.86.61-5.79.91l-5.79,1-2.9.49-1.45.24-1.43.32-11.47,2.65-2.87.67-2.82.83-5.63,1.73c-1.88.57-3.76,1.14-5.63,1.75-.94.3-1.88.58-2.81.9l-2.75,1c-3.68,1.38-7.33,2.86-11,4.29-.91.35-1.82.73-2.73,1.1s-1.78.83-2.68,1.24l-5.33,2.53c-3.52,1.73-7.08,3.39-10.57,5.2l-10.3,5.72c-3.42,1.93-6.93,3.68-10.26,5.76s-6.74,4-10.16,5.93l-5.11,2.91c-1.71,1-3.36,2-5,3l-10,6.13-5.06,3c-1.69,1-3.3,2.12-5,3.18-6.55,4.33-13.27,8.42-19.82,12.78s-13.07,8.79-19.76,13l-.36-.48c6-5.16,12.09-10.17,18.26-15.13,3-2.54,6.3-4.77,9.48-7.12s6.39-4.66,9.63-6.94c1.62-1.13,3.2-2.33,4.86-3.4l5-3.23,10-6.37,2.51-1.59c.83-.54,1.66-1.08,2.54-1.54l5.19-2.9c3.45-2,7-3.8,10.44-5.68,1.73-1,3.5-1.86,5.31-2.67l5.4-2.5,10.81-4.92,11-4.47c3.67-1.47,7.26-3.14,11-4.42s7.41-2.75,11.09-4.2l2.76-1.08c.93-.34,1.87-.63,2.81-.94,1.88-.62,3.75-1.26,5.62-1.9l5.61-1.93,2.8-1,2.85-.83,11.4-3.39,1.42-.43,1.45-.34,2.89-.7,5.8-1.38c1.94-.44,3.86-1,5.82-1.33l5.88-1c3.93-.66,7.85-1.37,11.83-1.67l6-.57c2-.2,4-.41,6-.43a178.53,178.53,0,0,1,47.79,3.46l5.85,1.41,2.92.72,2.88.87,5.75,1.76c1,.27,1.9.65,2.84,1l2.81,1.06,2.81,1.07,1.41.54,1.37.6,5.5,2.45,1.37.61,1.33.69,2.67,1.39c1.77.93,3.57,1.8,5.28,2.85l5.16,3.05,5,3.32c3.29,2.27,6.51,4.63,9.57,7.19s6,5.23,8.84,8a83.59,83.59,0,0,1,7.86,9Z"/><path class="cls-61" d="M462,969s135,36,333,36,396-99,495-144,261-90,378-63-295.6,110.07-441,207C1200,1023,669,1095,462,969Z"/><path class="cls-62" d="M408,924s90,126,387,126,531-27,711-126,288-144,414-27V843s-126.5-135.5-369.5-.5S677.5,1148.5,408,924Z"/><path class="cls-63" d="M18.11,671.72A118.14,118.14,0,0,1,33,679.26c2.42,1.37,4.72,2.92,7.09,4.38s4.6,3.11,6.88,4.68a241.36,241.36,0,0,1,25.74,21.16l3,2.85c1,1,2,2,3,2.95l5.84,6,5.62,6.18c.93,1,1.88,2.05,2.79,3.1l2.68,3.2,5.35,6.4c1.72,2.18,3.4,4.41,5.1,6.61l10,13.18c.84,1.09,1.65,2.2,2.51,3.27l2.6,3.2,5.21,6.39,5.43,6.18,2.71,3.09,2.83,3c1.88,2,3.7,4,5.62,6l5.8,5.79c1.91,2,4,3.75,5.92,5.65s4,3.7,6.06,5.5l3,2.73,3.16,2.59,3.16,2.59,3.26,2.47,3.25,2.48,3.36,2.34c1.12.77,2.23,1.56,3.37,2.31l3.44,2.21c4.61,2.94,9.39,5.61,14.26,8.12s9.93,4.73,15,6.94l-.18.56a145.54,145.54,0,0,1-15.94-5c-1.31-.48-2.58-1.06-3.88-1.59s-2.6-1-3.85-1.66c-2.53-1.2-5.08-2.36-7.53-3.72l-3.71-2c-1.22-.69-2.4-1.45-3.6-2.17L173.8,825l-3.49-2.35c-1.16-.78-2.33-1.56-3.47-2.38l-3.36-2.53-3.36-2.54-3.25-2.67c-4.35-3.54-8.43-7.38-12.46-11.26l-5.84-6c-1.92-2-3.74-4.15-5.61-6.22l-2.76-3.14-2.64-3.25-5.28-6.48-5.07-6.63-2.54-3.32c-.83-1.11-1.62-2.26-2.43-3.39l-9.71-13.47c-1.61-2.22-3.21-4.46-4.85-6.66l-5.11-6.46L90,733c-.87-1.06-1.79-2.08-2.68-3.13L82,723.57l-5.61-6c-1-1-1.87-2-2.83-3l-2.94-2.89a238.54,238.54,0,0,0-24.74-21.83c-2.21-1.64-4.43-3.28-6.67-4.88s-4.52-3.15-6.87-4.58a116.9,116.9,0,0,0-14.4-8.07Z"/><path class="cls-64" d="M18.08,752.71a135.47,135.47,0,0,1,14,5.31c2.3,1,4.59,2,6.84,3.06s4.55,2.08,6.76,3.25l6.69,3.39c2.21,1.16,4.39,2.38,6.59,3.56,4.42,2.34,8.7,4.93,13,7.43,17.2,10.2,33.74,21.48,49.87,33.29l12,9,11.75,9.31,5.88,4.66,5.76,4.8,11.5,9.62c7.58,6.51,15,13.2,22.54,19.76A183.36,183.36,0,0,0,214.86,887,164.8,164.8,0,0,0,241,900.5a167.14,167.14,0,0,0,28.1,8.64A184.4,184.4,0,0,0,298.27,913c2.44.18,4.9.22,7.35.31s4.91.07,7.37,0c4.92,0,9.83-.29,14.74-.67A241.37,241.37,0,0,0,357,908.59a289.59,289.59,0,0,0,28.77-7.24q14.21-4.35,28-10a270.66,270.66,0,0,0,27-12.61l.32.5c-4.17,2.79-8.49,5.32-12.88,7.73s-8.85,4.69-13.36,6.88a276.76,276.76,0,0,1-27.82,11.5,263.88,263.88,0,0,1-29,8.41,238.49,238.49,0,0,1-29.88,4.86,199.37,199.37,0,0,1-30.33.61,185.19,185.19,0,0,1-30.09-4.31A173.56,173.56,0,0,1,212.25,891a187.9,187.9,0,0,1-23.85-18.65c-7.42-6.68-14.71-13.43-22.17-20l-11.32-9.76-5.66-4.87L143.47,833l-11.57-9.45-11.81-9.14c-15.82-12.09-32.07-23.65-49-34.15-4.26-2.58-8.47-5.24-12.82-7.66-2.17-1.22-4.32-2.48-6.5-3.68l-6.59-3.51c-2.19-1.21-4.45-2.25-6.67-3.37s-4.49-2.16-6.75-3.19a138.21,138.21,0,0,0-13.84-5.55Z"/><path class="cls-65" d="M18.06,833.71c13,2.82,25.64,7.25,38,12.08s24.54,10.37,36.47,16.31c6,2.92,11.83,6.13,17.72,9.24l8.71,4.89c1.45.82,2.92,1.62,4.35,2.46l4.3,2.55,17.15,10.14c5.66,3.43,11.53,6.51,17.3,9.74,2.88,1.62,5.86,3.08,8.78,4.63s5.87,3.08,8.82,4.57l8.92,4.38,4.45,2.19,4.5,2.12,9,4.3,9,4.19c6,2.85,12,5.61,18,8.42s12,5.58,18.06,8.33l9,4.13q4.55,2,9.07,4.09l36.39,16.25-.2.56c-12.77-3.8-25.33-8.24-37.79-12.91s-24.79-9.74-37-15a726.26,726.26,0,0,1-71.31-36.08c-5.75-3.38-11.58-6.61-17.2-10.2l-16.94-10.53L121.42,882c-1.41-.87-2.84-1.69-4.27-2.54l-8.55-5.06c-5.78-3.22-11.52-6.55-17.4-9.58-11.69-6.24-23.6-12.08-35.8-17.27-3.06-1.27-6.1-2.6-9.19-3.78l-4.63-1.81-4.67-1.71a191.78,191.78,0,0,0-19-5.91Z"/><path class="cls-66" d="M1602.5,1004.5c63,10,63,54,63,54s0-53-36-72-81,0-81,0,16.54,17.81,27,35c28,46,81,9,90,37C1656.5,1022.5,1602.5,1004.5,1602.5,1004.5Z"/><path class="cls-67" d="M746.65,842.63c34.85,5.53,34.85,29.87,34.85,29.87s0-29.32-19.91-39.83-44.81,0-44.81,0,9.15,9.85,14.93,19.36c15.49,25.45,44.81,5,49.79,20.47C776.52,852.59,746.65,842.63,746.65,842.63Z"/><path class="cls-67" d="M879.34,710.84C929,718.73,929,753.41,929,753.41s0-41.78-28.38-56.75-63.84,0-63.84,0,13,14,21.28,27.58c22.07,36.26,63.85,7.1,70.94,29.17C921.91,725,879.34,710.84,879.34,710.84Z"/><path class="cls-66" d="M1479.59,676.63c-58.91,40.57-37.64,85.08-37.64,85.08s-25.62-53.62,1.62-90.25,82-39.15,82-39.15-8.12,26-10.4,48.46c-6.1,60.08-77.61,48.26-73.18,80.94C1433.66,720.94,1479.59,676.63,1479.59,676.63Z"/><path class="cls-68" d="M301.39,791.74c-38.78,18.71-30.22,47.15-30.22,47.15s-10.3-34.26,9.27-53.54,52.36-15.74,52.36-15.74-7.23,14.73-10.65,27.87c-9.16,35.18-50.61,21.56-51,41.41C270,813.87,301.39,791.74,301.39,791.74Z"/><path class="cls-68" d="M84.63,651.8c-20.45,29.21-2.76,46.3-2.76,46.3s-21.31-20.58-15-42.44,31.46-32.55,31.46-32.55.74,13.56,3.58,24.44c7.62,29.13-27.84,36.06-20.08,50.55C70.89,680.5,84.63,651.8,84.63,651.8Z"/><path class="cls-68" d="M69.1,938.8c-36.61,12.74-31.9,39.06-31.9,39.06S31.52,946.15,51,930.93s48.46-8.68,48.46-8.68-8,12.43-12.4,23.83c-11.82,30.52-47.5,14.07-49.88,31.78C38.73,955.36,69.1,938.8,69.1,938.8Z"/><path class="cls-69" d="M1076.81,593.94c-.32.4-.76,1-1.14,1.47s-.78,1.05-1.16,1.59c-.76,1.07-1.47,2.2-2.18,3.31a72.26,72.26,0,0,0-3.84,6.94,77,77,0,0,0-5.5,14.68,74.22,74.22,0,0,0-2.32,15.26,76.93,76.93,0,0,0,.91,15.31l.3,1.89.39,1.89c.13.62.25,1.25.4,1.88l.48,1.87.48,1.87.57,1.93,1.13,3.86a117.26,117.26,0,0,0,5.65,14.65,82,82,0,0,0,7.62,13.2,76,76,0,0,0,10.13,11.25,106.66,106.66,0,0,0,26,17l3.59,1.73c1.22.54,2.47,1,3.7,1.56l3.72,1.55,1.85.77,1.91.69,7.62,2.77c2.57.86,5.19,1.65,7.78,2.48l3.89,1.22,3.92,1.1c2.61.76,5.24,1.4,7.86,2.05s5.27,1.19,7.91,1.79,5.29,1,7.94,1.48l4,.63c1.33.2,2.66.36,4,.54s2.66.35,4,.48,2.67.31,4,.41c5.36.5,10.75.75,16.19.88s11,.08,16.6.08,11.45,0,17.4.47a101.05,101.05,0,0,1,18,2.86,91.08,91.08,0,0,1,17.24,6.39,124,124,0,0,1,15.54,9.06c1.25.8,2.41,1.7,3.61,2.55s2.4,1.72,3.54,2.63l3.45,2.7c1.16.9,2.34,2,3.51,3A78.23,78.23,0,0,1,1320,789.51a81.91,81.91,0,0,1,8.89,16.37,98.2,98.2,0,0,1,6.58,35.74,130,130,0,0,1-4.65,35.3,137.28,137.28,0,0,1-13.73,32.7c-.74,1.28-1.53,2.53-2.29,3.8l-2.15,3.49c-1.41,2.31-2.76,4.66-4.08,7-2.64,4.73-5.12,9.55-7.38,14.45s-4.31,9.87-6.1,14.91c-.91,2.52-1.73,5.06-2.49,7.61l-.29,1-.19.84-.39,1.67a9.68,9.68,0,0,0-.29,1.68l-.23,1.7a31.21,31.21,0,0,0,1.63,13.51,32.64,32.64,0,0,0,7.1,11.63,31.91,31.91,0,0,0,11.25,7.63c1.06.44,2.19.69,3.28,1.09a17.77,17.77,0,0,0,1.78.46c.61.15,1.22.31,1.84.42,1.24.23,2.47.48,3.73.62s2.52.3,3.8.41a73.36,73.36,0,0,0,15.5-.48,100.9,100.9,0,0,0,15.54-3.34,140.54,140.54,0,0,0,29.65-13.05c4.72-2.74,9.38-5.68,14-8.71s9.22-6.17,13.79-9.37c9.16-6.39,18.32-12.89,27.64-19.26s18.88-12.5,28.77-18.2a270.51,270.51,0,0,1,30.77-15.33q8-3.28,16.26-6c5.51-1.79,11.14-3.24,16.8-4.53s11.42-2.23,17.2-3,11.61-1,17.43-1.15a172.76,172.76,0,0,1,34.68,3.07c22.81,4.29,44.37,13.09,64.11,24.34A292.25,292.25,0,0,1,1722,969c-18.82-12.27-38-23.79-58.07-32.93s-41-16.14-62.38-19.25a178.23,178.23,0,0,0-32.2-1.86c-5.37.25-10.72.63-16,1.32s-10.63,1.56-15.89,2.73a216.35,216.35,0,0,0-31,9.47c-5,2-10.06,4.13-15,6.42s-9.84,4.77-14.69,7.34c-19.4,10.34-37.91,22.66-56.51,35.2-9.37,6.2-18.71,12.57-28.67,18.25a184.2,184.2,0,0,1-31.49,14.47,110.69,110.69,0,0,1-17.06,4.56,87.08,87.08,0,0,1-18,1.49c-1.52-.06-3-.1-4.57-.25s-3.06-.32-4.58-.53c-.77-.09-1.53-.25-2.29-.38s-1.5-.24-2.3-.47l-2.39-.64a22.15,22.15,0,0,1-2.36-.73,43.47,43.47,0,0,1-16.62-10.55,45.92,45.92,0,0,1-13.05-36.2l.29-2.47a17.13,17.13,0,0,1,.4-2.45l.54-2.42.28-1.21.31-1.06c.81-2.82,1.69-5.62,2.64-8.38,1.91-5.52,4.08-10.92,6.45-16.22s5-10.46,7.73-15.54c1.39-2.53,2.81-5.05,4.28-7.53l2.22-3.68c.67-1.14,1.36-2.26,2-3.41a122.4,122.4,0,0,0,11.91-29.18,114.4,114.4,0,0,0,3.81-31.1,82.18,82.18,0,0,0-5.72-29.9,63.19,63.19,0,0,0-17.25-24c-1-.81-1.85-1.62-2.9-2.43l-3.19-2.44c-1-.83-2.14-1.58-3.22-2.35s-2.15-1.58-3.25-2.28a105.17,105.17,0,0,0-13.46-7.82,75.15,75.15,0,0,0-14.2-5.24,84.33,84.33,0,0,0-15.1-2.35c-10.41-.73-21.64-.17-33.14-.43a223.42,223.42,0,0,1-34.63-3.18c-2.87-.47-5.71-1.06-8.55-1.63s-5.68-1.21-8.46-2-5.61-1.42-8.38-2.24l-4.16-1.18-4.1-1.32a217.18,217.18,0,0,1-32.39-12.7,122.48,122.48,0,0,1-29.72-19.94,90.69,90.69,0,0,1-12.14-13.79,93.82,93.82,0,0,1-8.89-16,119.56,119.56,0,0,1-5.84-16.87l-1.06-4.25-.52-2.12c-.17-.73-.31-1.48-.46-2.22l-.44-2.23c-.13-.75-.23-1.5-.35-2.25l-.33-2.25-.23-2.27a82.05,82.05,0,0,1,.21-18.2,78.64,78.64,0,0,1,4.38-17.57,68.64,68.64,0,0,1,3.64-8.22,80.12,80.12,0,0,1,4.52-7.71,84.51,84.51,0,0,1,5.38-7.08c1-1.13,2-2.21,3-3.27.52-.53,1-1.05,1.6-1.57s1.08-1,1.77-1.56a3.36,3.36,0,0,1,4.79,4.66Z"/><path class="cls-70" d="M1023.64,563.5c.07,1.27.17,2.68.31,4s.28,2.74.45,4.11.34,2.74.57,4.11.4,2.74.64,4.11c1,5.46,2.07,10.91,3.45,16.28.69,2.69,1.33,5.39,2.16,8l1.17,4c.39,1.33.79,2.65,1.25,4l2.67,7.87,3,7.74a243.33,243.33,0,0,0,14.35,29.82c2.58,4.87,5.65,9.46,8.56,14.11,1.4,2.36,3.09,4.55,4.66,6.8l4.77,6.71.23.33a7.51,7.51,0,0,1-12.24,8.69c-.09-.12-.19-.27-.27-.4l-4.58-7.41c-1.51-2.49-3.12-4.9-4.45-7.48-2.76-5.11-5.66-10.13-8-15.42a255.27,255.27,0,0,1-13-32.12l-2.59-8.25-2.25-8.34c-.39-1.38-.72-2.79-1-4.19l-1-4.21c-.68-2.8-1.16-5.64-1.7-8.46-1.06-5.65-1.84-11.35-2.48-17.06-.16-1.43-.26-2.87-.39-4.3s-.23-2.87-.31-4.31-.16-2.88-.19-4.33-.07-2.87,0-4.43a3.14,3.14,0,0,1,6.27-.14Z"/><path class="cls-70" d="M1240.58,766.26c-1.47-.43-2.73-.84-4.07-1.29s-2.63-.9-3.93-1.38q-3.9-1.43-7.72-3a128.06,128.06,0,0,1-15-7.48,71.06,71.06,0,0,1-13.74-10.3,39.4,39.4,0,0,1-5.68-7.06,26.16,26.16,0,0,1-3.57-8.82,4.19,4.19,0,0,1,8.16-1.87l0,.09c1,4,3.89,7.74,7.44,10.91a61.36,61.36,0,0,0,12.33,8.16,114.78,114.78,0,0,0,14.05,6.05c2.42.87,4.87,1.68,7.33,2.43,1.23.37,2.46.73,3.7,1.06s2.51.68,3.62.93h0a6,6,0,1,1-2.67,11.68Z"/><path class="cls-70" d="M1304.12,867.6c.63,1.21,1.14,2.28,1.61,3.44s.91,2.28,1.34,3.43.79,2.33,1.13,3.51.69,2.36.94,3.56a68.29,68.29,0,0,1,1.9,14.7,67.15,67.15,0,0,1-1.26,14.94,64.6,64.6,0,0,1-1.81,7.35,34.46,34.46,0,0,1-1.22,3.59l-1.33,3.56a5.38,5.38,0,1,1-10.07-3.77,4.61,4.61,0,0,1,.22-.51l.19-.38,1.46-2.91a28.4,28.4,0,0,0,1.39-3,58.11,58.11,0,0,0,2.25-6.16,58.78,58.78,0,0,0,2.52-13,61.88,61.88,0,0,0-.27-13.39c-.11-1.12-.34-2.22-.5-3.34s-.45-2.2-.68-3.31-.54-2.19-.88-3.25-.7-2.17-1-3.1l-.06-.16a2.3,2.3,0,0,1,4.18-1.89Z"/><path class="cls-70" d="M1365.21,847.66c-.56.13-1.29.34-1.94.56s-1.34.49-2,.73c-1.33.55-2.65,1.11-3.93,1.79a62.38,62.38,0,0,0-7.44,4.47,83.94,83.94,0,0,0-13.08,11.48l-2.93,3.23-2.74,3.41-1.36,1.71c-.44.58-.85,1.19-1.27,1.78l-2.52,3.57c-1.63,2.42-3.1,5-4.66,7.41l-4.18,7.71-.12.23a4.66,4.66,0,0,1-8.2-4.45,2.48,2.48,0,0,1,.18-.31l5-7.8c1.85-2.5,3.61-5,5.53-7.48l3-3.59c.5-.6,1-1.2,1.49-1.79l1.59-1.7,3.19-3.4,3.38-3.21a89.47,89.47,0,0,1,14.9-11.2,68.1,68.1,0,0,1,8.37-4.19c1.43-.63,2.93-1.13,4.42-1.62.77-.22,1.5-.47,2.29-.65s1.52-.36,2.45-.5a1.92,1.92,0,0,1,.73,3.77Z"/><path class="cls-70" d="M1270.08,947.7c.53.5.8.77,1.16,1.14s.66.7,1,1c.63.69,1.19,1.39,1.77,2.09,1.11,1.4,2.19,2.82,3.19,4.27q3,4.35,5.65,8.87c1.77,3,3.4,6.06,5,9.14l2.32,4.65,2.23,4.69a6.37,6.37,0,0,1-11.52,5.46,6.54,6.54,0,0,1-.32-.79l0-.14L1279,983.4l-1.56-4.69c-1.1-3.09-2.23-6.18-3.48-9.2s-2.58-6-4-8.88c-.73-1.44-1.51-2.84-2.31-4.21-.41-.66-.81-1.34-1.24-2-.21-.33-.42-.62-.63-.93s-.48-.63-.54-.73l-.47-.84a3.44,3.44,0,0,1,1.29-4.71A3.48,3.48,0,0,1,1270.08,947.7Z"/><path class="cls-71" d="M978.07,501.14s-3.94,48.34,12.74,67.58,34.63,20.5,34.63,20.5,10.6-36.33-5.15-54.5C999,510.21,978.07,501.14,978.07,501.14Z"/><path class="cls-71" d="M1055.5,610.5s0-72,81-36c0,0-18,9-27,27S1073.5,628.5,1055.5,610.5Z"/><path class="cls-71" d="M1163.5,689.5s-10,62,44.5,53.5C1208,743,1218.5,699.5,1163.5,689.5Z"/><path class="cls-71" d="M1254.5,762.5s-72-27-81,63c0,0,9-8,36-9S1245.5,763.5,1254.5,762.5Z"/><path class="cls-71" d="M1420.5,839.3s-72-55-81,18c0,0,17,17,44-1S1420.5,839.3,1420.5,839.3Z"/><path class="cls-71" d="M1275.7,816s-5.81,37.26,6,53.12,25.68,17.87,25.68,17.87,10.3-27.56-.88-42.54C1291.44,824.18,1275.7,816,1275.7,816Z"/><path class="cls-71" d="M1225.12,901.88s6.33,37.17,22.59,48.45,30,8.78,30,8.78,1-29.41-14.36-40.06C1242.65,904.68,1225.12,901.88,1225.12,901.88Z"/><path class="cls-72" d="M990,526.53s24.29,14.84,25,51.94C1015,578.47,1010.24,558.91,990,526.53Z"/><path class="cls-72" d="M1174.82,702.94s16.23,8.39,18.36,32.12C1193.18,735.06,1189.26,722.75,1174.82,702.94Z"/><path class="cls-72" d="M1193.17,802.53s8-22.77,42.83-31.53C1236,771,1218.7,779.12,1193.17,802.53Z"/><path class="cls-72" d="M1286.1,837.92s16.86,12,15.74,42.16C1301.84,880.08,1299.29,864.18,1286.1,837.92Z"/><path class="cls-72" d="M1244.39,915.06s19.58,6.62,27.17,35.88C1271.56,950.94,1264.55,936.44,1244.39,915.06Z"/><path class="cls-72" d="M1347,850.07s16.11-16.82,46-10.87C1393,839.2,1376.48,839.55,1347,850.07Z"/><path class="cls-72" d="M1065,601.8s13.08-25.28,50-28.6C1115,573.2,1095.84,579.31,1065,601.8Z"/></g></g></svg>