<svg xmlns="http://www.w3.org/2000/svg" xmlns:xlink="http://www.w3.org/1999/xlink" viewBox="0 0 404 252"><defs><style>.cls-1{fill:#e4fcdc;}.cls-2{fill:url(#radial-gradient);}.cls-3{fill:url(#radial-gradient-2);}.cls-4{fill:url(#radial-gradient-3);}.cls-5{fill:url(#linear-gradient);}.cls-6{fill:url(#linear-gradient-2);}.cls-7{fill:url(#linear-gradient-3);}.cls-8{fill:url(#linear-gradient-4);}.cls-9{fill:url(#linear-gradient-5);}.cls-10{fill:url(#linear-gradient-6);}.cls-11{fill:url(#linear-gradient-7);}</style><radialGradient id="radial-gradient" cx="183.48" cy="212.86" r="94.34" gradientTransform="translate(-21.37 136.68) scale(0.79 0.41)" gradientUnits="userSpaceOnUse"><stop offset="0" stop-color="#58c280" stop-opacity="0.5"/><stop offset="1" stop-color="#cbf8cf" stop-opacity="0"/></radialGradient><radialGradient id="radial-gradient-2" cx="284.45" cy="217.57" r="94.34" gradientTransform="translate(-21.37 145.72) scale(0.79 0.41)" xlink:href="#radial-gradient"/><radialGradient id="radial-gradient-3" cx="380.37" cy="211.57" r="94.34" gradientTransform="translate(-21.37 134.21) scale(0.79 0.41)" xlink:href="#radial-gradient"/><linearGradient id="linear-gradient" x1="137.03" y1="87.82" x2="270.97" y2="87.82" gradientUnits="userSpaceOnUse"><stop offset="0" stop-color="#4cb54c"/><stop offset="1" stop-color="#3d985f"/></linearGradient><linearGradient id="linear-gradient-2" x1="193.77" y1="174.72" x2="243.54" y2="227.27" xlink:href="#linear-gradient"/><linearGradient id="linear-gradient-3" x1="169" y1="198.18" x2="218.77" y2="250.73" xlink:href="#linear-gradient"/><linearGradient id="linear-gradient-4" x1="270.54" y1="145.2" x2="325.36" y2="212.9" xlink:href="#linear-gradient"/><linearGradient id="linear-gradient-5" x1="240.97" y1="169.14" x2="295.79" y2="236.85" xlink:href="#linear-gradient"/><linearGradient id="linear-gradient-6" x1="117.04" y1="144.91" x2="171.36" y2="210.09" xlink:href="#linear-gradient"/><linearGradient id="linear-gradient-7" x1="87.37" y1="169.64" x2="141.69" y2="234.82" xlink:href="#linear-gradient"/></defs><g id="Layer_2" data-name="Layer 2"><g id="Layer_1-2" data-name="Layer 1"><rect class="cls-1" width="404" height="252"/><ellipse class="cls-2" cx="124" cy="225" rx="71" ry="9.65"/><ellipse class="cls-3" cx="204" cy="236" rx="71" ry="9.65"/><ellipse class="cls-4" cx="280" cy="222" rx="71" ry="9.65"/><path class="cls-5" d="M264.64,45.45C233.87,8.34,204,52.69,204,52.69s-29.87-44.35-60.64-7.24S204,145,204,145,295.41,82.55,264.64,45.45Z"/><circle class="cls-6" cx="203.5" cy="185" r="20"/><path class="cls-7" d="M167.65,240c0-19.8,16-27,35.85-27s35.85,7.2,35.85,27Z"/><circle class="cls-8" cx="279.5" cy="156.26" r="21.74"/><path class="cls-9" d="M240.32,225c0-28.36,17.54-38.67,39.18-38.67s39.18,10.31,39.18,38.67Z"/><circle class="cls-10" cx="126.5" cy="156.26" r="21.74"/><path class="cls-11" d="M87.32,225c0-28.36,17.54-38.67,39.18-38.67s39.18,10.31,39.18,38.67Z"/></g></g></svg>