<svg xmlns="http://www.w3.org/2000/svg" xmlns:xlink="http://www.w3.org/1999/xlink" viewBox="0 0 1920 1439.5"><defs><style>.cls-1{fill:url(#linear-gradient);}.cls-2{fill:url(#linear-gradient-2);}.cls-3{fill:url(#linear-gradient-3);}.cls-4{fill:url(#linear-gradient-4);}.cls-5{fill:url(#linear-gradient-5);}.cls-6{fill:url(#linear-gradient-6);}.cls-7{fill:url(#linear-gradient-7);}.cls-8{fill:url(#linear-gradient-8);}.cls-9{fill:#167c31;}.cls-10{fill:url(#linear-gradient-9);}.cls-11{fill:url(#linear-gradient-10);}.cls-12{fill:url(#linear-gradient-11);}.cls-13{fill:url(#linear-gradient-12);}.cls-14{fill:url(#linear-gradient-13);}.cls-15{fill:url(#linear-gradient-14);}.cls-16{fill:url(#linear-gradient-15);}.cls-17{fill:url(#linear-gradient-16);}.cls-18{fill:url(#linear-gradient-17);}.cls-19{fill:url(#linear-gradient-18);}.cls-20{fill:url(#linear-gradient-19);}.cls-21{fill:url(#linear-gradient-20);}.cls-22{fill:url(#linear-gradient-21);}.cls-23{fill:url(#linear-gradient-22);}.cls-24{fill:url(#linear-gradient-23);}.cls-25{fill:url(#linear-gradient-24);}</style><linearGradient id="linear-gradient" x1="960" y1="154.44" x2="960" y2="1400.71" gradientUnits="userSpaceOnUse"><stop offset="0" stop-color="#fff"/><stop offset="0.5" stop-color="#b6eebf"/><stop offset="1" stop-color="#e3f8ef"/></linearGradient><linearGradient id="linear-gradient-2" x1="1904.11" y1="1168.05" x2="1859.28" y2="1105.7" gradientUnits="userSpaceOnUse"><stop offset="0" stop-color="#95e1a1"/><stop offset="1" stop-color="#44c14a"/></linearGradient><linearGradient id="linear-gradient-3" x1="1194.18" y1="1132" x2="1276.1" y2="1132" gradientUnits="userSpaceOnUse"><stop offset="0" stop-color="#95e1a1"/><stop offset="1" stop-color="#b6eebf"/></linearGradient><linearGradient id="linear-gradient-4" x1="243.97" y1="1117.94" x2="355.77" y2="1117.94" xlink:href="#linear-gradient-3"/><linearGradient id="linear-gradient-5" x1="1622.97" y1="1064.75" x2="1711.82" y2="1064.75" xlink:href="#linear-gradient-3"/><linearGradient id="linear-gradient-6" x1="8.12" y1="1197.04" x2="19.49" y2="1171.27" xlink:href="#linear-gradient-2"/><linearGradient id="linear-gradient-7" x1="0" y1="1146.3" x2="46" y2="1146.3" xlink:href="#linear-gradient-2"/><linearGradient id="linear-gradient-8" x1="101.08" y1="998.23" x2="101.08" y2="1144.82" gradientUnits="userSpaceOnUse"><stop offset="0" stop-color="#7ed98c"/><stop offset="1" stop-color="#35b53b"/></linearGradient><linearGradient id="linear-gradient-9" x1="188.08" y1="1084.77" x2="188.08" y2="1208.3" xlink:href="#linear-gradient-8"/><linearGradient id="linear-gradient-10" x1="1820.71" y1="950.23" x2="1820.71" y2="1172.34" xlink:href="#linear-gradient-8"/><linearGradient id="linear-gradient-11" x1="1820.73" y1="971.77" x2="1828.85" y2="1193.49" gradientUnits="userSpaceOnUse"><stop offset="0" stop-color="#1fa332"/><stop offset="1" stop-color="#208e47"/></linearGradient><linearGradient id="linear-gradient-12" x1="1744.85" y1="1124.24" x2="1747.51" y2="1196.62" xlink:href="#linear-gradient-2"/><linearGradient id="linear-gradient-13" x1="991.95" y1="1142.73" x2="991.95" y2="1250.35" gradientUnits="userSpaceOnUse"><stop offset="0" stop-color="#45bf59"/><stop offset="1" stop-color="#90e09d"/></linearGradient><linearGradient id="linear-gradient-14" x1="1769.52" y1="1072.98" x2="1007.08" y2="1321.57" xlink:href="#linear-gradient-8"/><linearGradient id="linear-gradient-15" x1="674.55" y1="1356.23" x2="709.41" y2="1081.87" xlink:href="#linear-gradient-8"/><linearGradient id="linear-gradient-16" x1="1568.76" y1="1300.59" x2="1542.24" y2="1188.42" xlink:href="#linear-gradient-2"/><linearGradient id="linear-gradient-17" x1="310.63" y1="1306.87" x2="356.87" y2="1202.28" xlink:href="#linear-gradient-2"/><linearGradient id="linear-gradient-18" x1="960" y1="1467.11" x2="960" y2="1247.24" xlink:href="#linear-gradient-8"/><linearGradient id="linear-gradient-19" x1="1808.06" y1="1204.83" x2="1798.96" y2="1268.49" xlink:href="#linear-gradient-2"/><linearGradient id="linear-gradient-20" x1="68.16" y1="1182.19" x2="69.3" y2="1246.99" xlink:href="#linear-gradient-2"/><linearGradient id="linear-gradient-21" x1="127.9" y1="939.84" x2="93.38" y2="853.35" xlink:href="#linear-gradient-3"/><linearGradient id="linear-gradient-22" x1="55.3" y1="819.37" x2="103.43" y2="937.98" xlink:href="#linear-gradient-3"/><linearGradient id="linear-gradient-23" x1="1817.52" y1="859.16" x2="1793.96" y2="800.11" gradientTransform="matrix(0.58, 0.81, -0.81, 0.58, 1407.78, -1123.35)" xlink:href="#linear-gradient-3"/><linearGradient id="linear-gradient-24" x1="1767.97" y1="776.92" x2="1800.82" y2="857.88" gradientTransform="matrix(0.58, 0.81, -0.81, 0.58, 1407.78, -1123.35)" xlink:href="#linear-gradient-3"/></defs><g id="Layer_2" data-name="Layer 2"><g id="Layer_1-2" data-name="Layer 1"><path class="cls-1" d="M1920,0V1250.15c-175.89,112.26-539.71,189.35-960,189.35S175.89,1362.41,0,1250.15V0Z"/><path class="cls-2" d="M1920,1109.94V1173h-55.51a13.3,13.3,0,0,1-1.55-.24,20.34,20.34,0,0,1-2.94.24,19.5,19.5,0,1,1,13-34,19.49,19.49,0,0,1,34.78-17.39A19.58,19.58,0,0,1,1920,1109.94Z"/><path class="cls-3" d="M1245.5,1140s-5-32,30-38c0,0,7,32-27,43a11.68,11.68,0,0,0,0,9c2,5,2,26,2,26l-4,2s2-43-15-54c0,0-27,1-33-20s-4-26-4-26,30,0,39,19,3,22,7,31S1245.5,1140,1245.5,1140Z"/><path class="cls-4" d="M315.5,1090c28-5,55-36,31-38-31-2.58-35,37-35,37a97.79,97.79,0,0,0-12.45,15.25c3.56-7.76-.55-27.25-6.55-32.25s-16,1-17,19,15.66,25.77,15.66,25.77h0A443.9,443.9,0,0,0,269.46,1160a85.51,85.51,0,0,0-3-27c-4-14-17-13-20-11s-5,21,4,30,17.25,9.5,17.12,12.25c-3.1,7.16-5.46,13-6.82,16.41h0c-.84,2.13-1.3,3.33-1.3,3.33l5-1s.48-1.57,1.42-4.33c1.1-3.28,2.83-8.22,5.12-14.18,6.53-1.5,5.46.51,14.46,2.51a47,47,0,0,0,9.49,1h0c8.11.08,17-1.46,20.5-5a13.09,13.09,0,0,0,2-2.56c2.91-4.88,1.63-11.23-11-15.44-15-5-28,11-30,14s-4.14,2.13-4.15,2.12a309.92,309.92,0,0,1,18.9-40c6.75-1.87,15.25,2.88,25.25,5.88s32-10,20-18-32,2-35,5-9.13,5.22-9.14,5.23C299.16,1107.71,307,1097.11,315.5,1090Z"/><path class="cls-5" d="M1705.5,1057c-10-5-26,6-32,12-4.4,4.4-9.33,12-11.65,15.77,1.28-8,2.63-15.68,3.65-21.77,3-18,10-20,18-26s26-40-2-31-8,28-17,51c-3.16,8.08-5.46,18.52-7.11,28.65h0s-.89-9.65-2.89-23.65-8-25-16-31-13,1-14,7-5,21,6,31,13,7,18,11,7,5.24,7.5,15.12h0c-1.92,14.77-2.5,26.88-2.5,26.88l5,3c-1.16-7,.37-20.65,2.45-34.43,0,0,3.56-1.57,11.55-1.57s15,3,28-7S1715.5,1062,1705.5,1057Z"/><path class="cls-6" d="M0,1172.86s24-7.36,34,1.64S0,1188,0,1188Z"/><path class="cls-7" d="M0,1123.5s12-15,22-12-6,26-6,26,22,2,30,7c0,0-22,31-46,37Z"/><path class="cls-8" d="M148.52,1065.75c2.95,15.8,18.12,90-47.62,91.23-60.7,1.17-52.25-59.42-47.62-91.23,5-34.46,25.71-91.23,47.62-91.23S143.82,1040.6,148.52,1065.75Z"/><path class="cls-9" d="M134.19,1084.5c-6.81,6.81-25.86,22.46-29.66,25.57-.37-9.42-.74-19.62-1.12-30.68.4-1.74,18.14-32,18.14-32L103,1066c-.53-16-1.07-33.69-1.63-53.14,0,0-.76,37.25-2.1,80.7,0,0-19.81-16.65-29.08-24.24,0,0,23.36,28.84,28.73,35.32-1.47,45.24-3.52,94.22-6,113.85h17.7s-2.29-15.58-5.52-94.72C108.8,1119.89,134.19,1084.5,134.19,1084.5Z"/><path class="cls-10" d="M219.38,1108.7c2,10.43,12,59.37-31.42,60.2-40.06.77-34.48-39.2-31.42-60.2,3.31-22.74,17-60.2,31.42-60.2S216.29,1092.11,219.38,1108.7Z"/><path class="cls-9" d="M209.93,1121.08c-4.5,4.49-17.07,14.82-19.58,16.87-.24-6.22-.48-13-.73-20.25.26-1.15,12-21.09,12-21.09l-12.27,12.27c-.35-10.58-.71-22.24-1.08-35.08,0,0-.5,24.59-1.39,53.26,0,0-13.07-11-19.19-16,0,0,15.42,19,19,23.31-1,29.85-2.32,62.18-3.94,75.13h11.68s-1.52-10.28-3.65-62.51C193.17,1144.43,209.93,1121.08,209.93,1121.08Z"/><path class="cls-11" d="M1877,993.25c3.5,18.75,21.5,106.75-56.5,108.25-72,1.39-62-70.5-56.5-108.25,6-40.89,30.5-108.25,56.5-108.25S1871.43,963.41,1877,993.25Z"/><path class="cls-12" d="M1860,1015.5c-8.08,8.08-30.68,26.65-35.2,30.34-.43-11.17-.87-23.28-1.33-36.41.48-2.06,21.53-37.93,21.53-37.93l-22.06,22.06c-.63-19-1.28-40-1.94-63.06,0,0-.9,44.2-2.49,95.76,0,0-23.51-19.76-34.51-28.76,0,0,27.72,34.22,34.09,41.91-1.74,53.68-4.18,111.8-7.09,135.09h21s-2.72-18.49-6.55-112.4C1829.87,1057.5,1860,1015.5,1860,1015.5Z"/><path class="cls-13" d="M1805.33,1162.83A19.5,19.5,0,0,0,1787,1150a19.89,19.89,0,0,0-4.66.58,14.49,14.49,0,0,0-24.35-15.7,19.74,19.74,0,0,0,.51-4.38,19.5,19.5,0,0,0-38.9-1.9,19.48,19.48,0,0,0-33.75,9.24,19.24,19.24,0,0,0-.35,3.66,19.48,19.48,0,0,0,11.06,17.56h0l.3.12a19.64,19.64,0,0,0,2.28.9c5.2,2.05,17.62,6.91,31.49,12.07l6.75,2.49h0c20.21,7.4,41.49,14.6,47.13,14.35a6.37,6.37,0,0,0,.65-.09c.61,0,1.22.09,1.85.09a19.51,19.51,0,0,0,18.33-26.17Zm-49.6-22.36a.19.19,0,0,1,0,.08h0A.16.16,0,0,0,1755.73,1140.47Z"/><path class="cls-14" d="M809.06,1232.66S953.5,1172,1006.5,1177s150.59,34.69,166.79,35.34S1075.5,1272,998.5,1272,845.62,1258.32,809.06,1232.66Z"/><path class="cls-15" d="M939.21,1267.21S1014.5,1282,1202.5,1200s227-128,320-125,158.62,77.69,241.81,92.34c0,0-497.92,137.2-629.87,133.93S958.93,1288.42,939.21,1267.21Z"/><path class="cls-16" d="M218.58,1198.61S365.5,1129,471.5,1134s251,65,341,100,268.82,57.76,346.41,56.38c0,0-35.41,33.62-303.41,43.62S214.66,1225.22,218.58,1198.61Z"/><path class="cls-17" d="M1625.41,1180.09c-5.1-4.78-20.88,3.77-35.25,19.1-2.4,2.56-4.6,5.14-6.59,7.7.89-1.77,1.75-3.59,2.57-5.48,8.92-20.48,9.8-39.85,2-43.26s-21.41,10.44-30.32,30.92c-1,2.25-1.86,4.49-2.65,6.7a110.85,110.85,0,0,0-1.24-11.91c-3.3-20.75-11.57-36.68-18.48-35.59s-9.82,18.81-6.53,39.56a107.57,107.57,0,0,0,3.41,14.8,103.26,103.26,0,0,0-8-6.72c-17.81-13.48-36.43-18.88-41.58-12.07-4.84,6.39,3.91,21.27,19.73,34.22-19.42-4.7-36.13-3.38-37.84,3.14-1.78,6.76,13.26,16.56,33.59,21.89s38.23,4.17,40-2.6a6.23,6.23,0,0,0-1.33-5.07c4.78.57,8.47-.28,10.35-2.77,1.68-2.22,1.71-5.46.39-9.29a5.5,5.5,0,0,0,3-1.92c.38,5.56,2.11,9.52,5.26,10.89,4.84,2.1,11.86-2.37,18.63-10.93-3,6.57-3.61,11.82-1.07,14.2,5.1,4.79,20.89-3.77,35.25-19.1S1630.51,1184.87,1625.41,1180.09Z"/><path class="cls-18" d="M401,1234c-1.79-4.3-13.71-3.41-26.62,2-2.15.89-4.19,1.86-6.1,2.87,1-.82,2.05-1.7,3.06-2.62,11-10,16.81-21.53,13-25.73s-15.85.49-26.85,10.5q-1.81,1.65-3.43,3.35a71.67,71.67,0,0,0,2.49-7.58c3.66-13.5,3-25.43-1.51-26.64s-11.1,8.74-14.75,22.24a71,71,0,0,0-2,9.91c-.87-2-1.88-4.15-3-6.26-7.14-13-17-21.41-22-18.67-4.68,2.56-3.43,14,2.65,26.16-10.51-8.15-21-11.91-23.84-8.42s3.54,13.68,14.43,22.46,22.08,13,25,9.34a4.14,4.14,0,0,0,.58-3.45c2.75,1.65,5.22,2.14,7,1.14,1.62-.89,2.53-2.85,2.77-5.53a3.68,3.68,0,0,0,2.32-.36c-1.29,3.48-1.32,6.35.22,8,2.36,2.59,7.85,1.79,14.29-1.56-3.62,3.17-5.41,6.19-4.52,8.33,1.8,4.3,13.71,3.41,26.62-2S402.75,1238.24,401,1234Z"/><path class="cls-19" d="M1920,1157.5v92.65c-175.89,112.26-539.71,189.35-960,189.35S175.89,1362.41,0,1250.15V1186.5s9.11-1.59,25.13-3a590.2,590.2,0,0,1,70.57-1.72q5.94.2,12.16.53a606.36,606.36,0,0,1,76.32,8.92q4.38.79,8.82,1.68,12.6,2.49,25.58,5.69A532.41,532.41,0,0,1,274,1215.5q9.18,3.36,18.86,6.67c28.14,9.62,59.22,18.83,92.21,27.4,134.57,34.91,301.06,59,430.93,55.93,103.55-2.45,165.8-.4,253.93-6.72h0c26.66-1.91,55.7-4.59,89-8.4,36.21-4.14,77.44-9.61,126.09-16.88,71.41-10.67,132-25.11,189.13-40.17,37.85-10,74.17-20.25,111.09-29.86.48-.14,1-.26,1.45-.38q18.84-4.92,38-9.55c33.71-8.12,68.51-15.47,105.93-21.38q16.44-2.6,33.61-4.8l.09,0q19.95-2.55,41-4.51c2.29-.22,4.6-.42,6.91-.63q9.12-.78,18.46-1.45C1858.67,1158.76,1888.29,1157.61,1920,1157.5Z"/><path class="cls-20" d="M1848.37,1251.65c-1-4.53-11.89-6.05-25.22-3.84,6.94-12.19,8.58-24,3.49-27.27-5.48-3.48-16.71,4.35-25.08,17.5a65.9,65.9,0,0,0-4.67,8.72c-.26-2-.63-4.09-1.1-6.22-3.12-14-9.59-24.5-14.44-23.42s-6.25,13.32-3.14,27.34c.2.89.42,1.77.64,2.63-11.57-4.89-21.74-5.91-23.6-2.09-2.06,4.24,6.88,12.84,20,19.19,12.36,6,39.61,4.5,47.33,2.78C1837.93,1263.55,1849.49,1256.69,1848.37,1251.65Z"/><path class="cls-21" d="M91.37,1228c-2.32-2.33-9.58,1.14-16.32,7.76,0-9.57-2.73-17.29-6-17.29s-6,7.72-6,17.29c-6.74-6.62-14-10.09-16.32-7.76s1.25,9.82,8.09,16.66c4.36,4.36,9,7.41,12.36,8.43a3.46,3.46,0,0,0,1.8.36l.12,0,.13,0a3.44,3.44,0,0,0,1.79-.36c3.38-1,8-4.07,12.36-8.43C90.12,1237.85,93.74,1230.39,91.37,1228Z"/><path class="cls-22" d="M103.93,908.57S120.5,900,114.5,870,73,805.5,67,815.69C61.49,825,103.93,908.57,103.93,908.57Z"/><path class="cls-23" d="M68,814.5s-8,8-9,25-3,52,39,71c0,0,2,1,4,7s5,15,8,15,4-1,4-1S104.5,913,100.5,898,68.5,813,68,814.5Z"/><path class="cls-24" d="M1769.14,830s11.32,5.83,25.63-9.37,19.46-48.61,11.41-47.92C1798.83,773.32,1769.14,830,1769.14,830Z"/><path class="cls-25" d="M1807.25,772.78s-7.62-1.28-17.47,4.89-30.11,18.9-24.06,49.78c0,0,.23,1.51-2.31,5s-6.37,8.71-5.18,10.38,2.14,1.83,2.14,1.83,6.53-12.6,13.29-20.76S1808.28,772.47,1807.25,772.78Z"/></g></g></svg>