<svg xmlns="http://www.w3.org/2000/svg" xmlns:xlink="http://www.w3.org/1999/xlink" viewBox="0 0 720 1113.6"><defs><style>.cls-1{fill:url(#linear-gradient);}.cls-2{fill:url(#linear-gradient-2);}.cls-3{fill:url(#linear-gradient-3);}.cls-4{fill:url(#linear-gradient-4);}.cls-5{fill:url(#linear-gradient-5);}.cls-6{fill:url(#linear-gradient-6);}.cls-7{fill:url(#linear-gradient-7);}.cls-8{fill:url(#linear-gradient-8);}.cls-9{fill:#167c31;}.cls-10{fill:url(#linear-gradient-9);}.cls-11{fill:url(#linear-gradient-10);}.cls-12{fill:url(#linear-gradient-11);}.cls-13{fill:url(#linear-gradient-12);}.cls-14{fill:url(#linear-gradient-13);}.cls-15{fill:url(#linear-gradient-14);}.cls-16{fill:url(#linear-gradient-15);}.cls-17{fill:url(#linear-gradient-16);}.cls-18{fill:url(#linear-gradient-17);}.cls-19{fill:url(#linear-gradient-18);}.cls-20{fill:url(#linear-gradient-19);}.cls-21{fill:url(#linear-gradient-20);}.cls-22{fill:url(#linear-gradient-21);}.cls-23{fill:url(#linear-gradient-22);}.cls-24{fill:url(#linear-gradient-23);}.cls-25{fill:url(#linear-gradient-24);}</style><linearGradient id="linear-gradient" x1="360" x2="360" y2="1158.59" gradientUnits="userSpaceOnUse"><stop offset="0" stop-color="#fff"/><stop offset="0.5" stop-color="#b6eebf"/><stop offset="1" stop-color="#e3f8ef"/></linearGradient><linearGradient id="linear-gradient-2" x1="711.41" y1="893.95" x2="687.16" y2="860.23" gradientUnits="userSpaceOnUse"><stop offset="0" stop-color="#95e1a1"/><stop offset="1" stop-color="#44c14a"/></linearGradient><linearGradient id="linear-gradient-3" x1="437.51" y1="883.68" x2="484.61" y2="883.68" gradientUnits="userSpaceOnUse"><stop offset="0" stop-color="#95e1a1"/><stop offset="1" stop-color="#b6eebf"/></linearGradient><linearGradient id="linear-gradient-4" x1="153.13" y1="853.38" x2="200.85" y2="853.38" xlink:href="#linear-gradient-3"/><linearGradient id="linear-gradient-5" x1="599.06" y1="823.01" x2="650.15" y2="823.01" xlink:href="#linear-gradient-3"/><linearGradient id="linear-gradient-6" x1="2.07" y1="895.2" x2="13.69" y2="911.37" xlink:href="#linear-gradient-2"/><linearGradient id="linear-gradient-7" x1="0" y1="885.9" x2="26.45" y2="885.9" xlink:href="#linear-gradient-2"/><linearGradient id="linear-gradient-8" x1="57.97" y1="787.76" x2="57.97" y2="872.05" gradientUnits="userSpaceOnUse"><stop offset="0" stop-color="#7ed98c"/><stop offset="1" stop-color="#35b53b"/></linearGradient><linearGradient id="linear-gradient-9" x1="108" y1="837.52" x2="108" y2="908.55" xlink:href="#linear-gradient-8"/><linearGradient id="linear-gradient-10" x1="562.76" y1="735.67" x2="562.76" y2="863.39" xlink:href="#linear-gradient-8"/><linearGradient id="linear-gradient-11" x1="562.77" y1="748.06" x2="567.44" y2="875.55" gradientUnits="userSpaceOnUse"><stop offset="0" stop-color="#1fa332"/><stop offset="1" stop-color="#208e47"/></linearGradient><linearGradient id="linear-gradient-12" x1="643.3" y1="859.46" x2="644.82" y2="901.08" gradientTransform="translate(233.05 -130.11) rotate(14.15)" xlink:href="#linear-gradient-2"/><linearGradient id="linear-gradient-13" x1="373.5" y1="903.95" x2="376.98" y2="1002.36" xlink:href="#linear-gradient-8"/><linearGradient id="linear-gradient-14" x1="526.44" y1="826.01" x2="502.81" y2="973.31" xlink:href="#linear-gradient-8"/><linearGradient id="linear-gradient-15" x1="263.38" y1="908.46" x2="243.26" y2="1106.02" xlink:href="#linear-gradient-8"/><linearGradient id="linear-gradient-16" x1="524.93" y1="885.62" x2="542.62" y2="937.16" xlink:href="#linear-gradient-2"/><linearGradient id="linear-gradient-17" x1="178.47" y1="978.23" x2="205.05" y2="918.09" xlink:href="#linear-gradient-2"/><linearGradient id="linear-gradient-18" x1="360" y1="937.84" x2="360" y2="1107.93" gradientUnits="userSpaceOnUse"><stop offset="0" stop-color="#35b53b"/><stop offset="1" stop-color="#7ed98c"/></linearGradient><linearGradient id="linear-gradient-19" x1="614.3" y1="940.16" x2="609.75" y2="988.67" xlink:href="#linear-gradient-2"/><linearGradient id="linear-gradient-20" x1="59.47" y1="949.2" x2="57.95" y2="986.09" xlink:href="#linear-gradient-2"/><linearGradient id="linear-gradient-21" x1="82.4" y1="753.19" x2="62.55" y2="703.45" xlink:href="#linear-gradient-3"/><linearGradient id="linear-gradient-22" x1="40.65" y1="683.92" x2="68.33" y2="752.12" xlink:href="#linear-gradient-3"/><linearGradient id="linear-gradient-23" x1="85.68" y1="-130.17" x2="72.13" y2="-164.12" gradientTransform="matrix(0.58, 0.81, -0.81, 0.58, 473.82, 687.45)" xlink:href="#linear-gradient-3"/><linearGradient id="linear-gradient-24" x1="57.18" y1="-177.46" x2="76.07" y2="-130.9" gradientTransform="matrix(0.58, 0.81, -0.81, 0.58, 473.82, 687.45)" xlink:href="#linear-gradient-3"/></defs><g id="Layer_2" data-name="Layer 2"><g id="Layer_1-2" data-name="Layer 1"><path class="cls-1" d="M719.78,0V979.21C653.86,1058.89,517.51,1113.6,360,1113.6S66.14,1058.89.22,979.21V0Z"/><path class="cls-2" d="M720,862.52v34.11H690c-.3,0-.58-.08-.84-.13a10.54,10.54,0,1,1,5.45-18.27,10.54,10.54,0,0,1,18.81-9.4,10.53,10.53,0,0,1,6.39-6.23Z"/><path class="cls-3" d="M467,888.28s-2.88-18.4,17.25-21.85c0,0,4,18.4-15.53,24.72a6.73,6.73,0,0,0,0,5.18c1.15,2.87,1.15,14.95,1.15,14.95l-2.3,1.15s1.15-24.73-8.62-31c0,0-15.53.57-19-11.5s-2.3-15-2.3-15,17.25,0,22.43,10.92,1.72,12.65,4,17.83S467,888.28,467,888.28Z"/><path class="cls-4" d="M183.66,841.46c12-2.13,23.48-15.37,13.23-16.22C183.68,824.14,182,841,182,841a42.73,42.73,0,0,0-5.31,6.51c1.52-3.31-.23-11.63-2.79-13.76s-6.83.42-7.26,8.11,6.68,11,6.68,11A191.61,191.61,0,0,0,164,871.34a36.27,36.27,0,0,0-1.26-11.53c-1.71-6-7.26-5.55-8.54-4.69s-2.13,9,1.71,12.8,7.31,4.05,7.31,5.21v0c-1.26,2.9-2.23,5.28-2.82,6.76l-.65,1.67,2.13-.43.51-1.57c.47-1.39,1.25-3.61,2.29-6.33,2.78-.64,2.33.22,6.17,1.07s10.67.43,12.8-1.7,2.56-5.55-3.84-7.69-11.95,4.7-12.8,6-1.77.91-1.78.91a133.6,133.6,0,0,1,8.07-17.08c2.88-.8,6.51,1.23,10.78,2.51s13.66-4.27,8.54-7.68-13.66.85-14.94,2.13a12.93,12.93,0,0,1-3.91,2.23C176.69,849,180,844.5,183.66,841.46Z"/><path class="cls-5" d="M646.52,818.55c-5.75-2.87-14.95,3.45-18.4,6.9a56.75,56.75,0,0,0-6.7,9.07c.73-4.59,1.51-9,2.1-12.52,1.72-10.35,5.75-11.5,10.35-15s15-23-1.15-17.82-4.6,16.1-9.78,29.32A85.22,85.22,0,0,0,618.85,835h0s-.51-5.55-1.66-13.6-4.6-14.38-9.2-17.83-7.47.58-8,4-2.87,12.07,3.45,17.82,7.48,4,10.35,6.33,4,3,4.32,8.69h0c-1.11,8.5-1.44,15.46-1.44,15.46l2.87,1.72c-.66-4,.22-11.87,1.41-19.79,0,0,2.05-.91,6.64-.91s8.63,1.73,16.1-4S652.27,821.43,646.52,818.55Z"/><path class="cls-6" d="M16.77,906.53c-5.38,2.05-15,3.17-16.55,3.34l-.22,0v-8.72l.22-.06a39.22,39.22,0,0,1,12.14-1.51,11.8,11.8,0,0,1,7.19,2.52C21.53,903.9,19.84,905.37,16.77,906.53Z"/><path class="cls-7" d="M0,872.79s6.9-8.62,12.65-6.9-3.45,15-3.45,15,12.65,1.15,17.25,4c0,0-12.65,17.82-26.45,21.27Z"/><path class="cls-8" d="M85.25,826.59C87,835.67,95.67,878.32,57.87,879c-34.9.67-30-34.16-27.38-52.45,2.89-19.82,14.78-52.46,27.38-52.46S82.55,812.13,85.25,826.59Z"/><path class="cls-9" d="M77,837.37c-3.92,3.92-14.87,12.91-17.05,14.7q-.32-8.12-.65-17.64c.23-1,10.43-18.38,10.43-18.38L59.05,826.74c-.3-9.22-.62-19.38-.94-30.56,0,0-.43,21.42-1.2,46.4,0,0-11.4-9.57-16.73-13.93,0,0,13.44,16.58,16.52,20.3-.84,26-2,54.18-3.43,65.47H63.44s-1.31-9-3.17-54.47C62.41,857.72,77,837.37,77,837.37Z"/><path class="cls-10" d="M126,851.28c1.12,6,6.87,34.14-18.07,34.62-23,.44-19.82-22.55-18.07-34.62,1.91-13.07,9.76-34.61,18.07-34.61S124.22,841.74,126,851.28Z"/><path class="cls-9" d="M120.56,858.4c-2.58,2.58-9.81,8.52-11.25,9.7q-.21-5.36-.43-11.64c.15-.66,6.89-12.13,6.89-12.13l-7.06,7c-.2-6.08-.41-12.78-.62-20.16,0,0-.29,14.13-.8,30.62,0,0-7.51-6.32-11-9.2,0,0,8.86,11,10.9,13.4-.56,17.17-1.34,35.76-2.27,43.2h6.72s-.87-5.91-2.1-35.94C110.93,871.83,120.56,858.4,120.56,858.4Z"/><path class="cls-11" d="M595.13,760.41c2,10.78,12.36,61.38-32.49,62.25-41.42.79-35.65-40.54-32.49-62.25,3.43-23.51,17.54-62.24,32.49-62.24S591.93,743.25,595.13,760.41Z"/><path class="cls-12" d="M585.35,773.21c-4.65,4.64-17.64,15.32-20.23,17.44q-.37-9.63-.77-20.93c.27-1.19,12.38-21.81,12.38-21.81L564,760.59c-.36-10.94-.73-23-1.11-36.26,0,0-.52,25.42-1.43,55.06,0,0-13.52-11.36-19.85-16.53,0,0,15.94,19.67,19.61,24.09-1,30.87-2.41,64.29-4.08,77.68h12.07S567.69,854,565.49,800C568,797.35,585.35,773.21,585.35,773.21Z"/><path class="cls-13" d="M666.66,880.79a11.77,11.77,0,0,0-2.68-.33,8.33,8.33,0,0,0-11.37-12.18,11.05,11.05,0,0,0,.9-2.37,11.21,11.21,0,0,0-21.42-6.52,11.2,11.2,0,0,0-12.82-5.7,10.43,10.43,0,0,0-2.59,1,11.13,11.13,0,0,0-5.12,6.07,10.14,10.14,0,0,0-.3,1,11.19,11.19,0,0,0,3.7,11.34h0l.15.11a11.78,11.78,0,0,0,1.14.82c5.48,3.93,27,19.24,38,25.49h0c1.37.78,2.57,1.42,3.56,1.87a9.46,9.46,0,0,0,2,.76l.37,0c.33.12.67.23,1,.32a11.2,11.2,0,0,0,13.15-6.74,9.56,9.56,0,0,0,.46-1.4A11.2,11.2,0,0,0,666.66,880.79Zm-16.09-9.7s0,0,0,0h0Z"/><path class="cls-14" d="M305.36,935.56s54.54-34.88,74.55-32,56.86,20,63,20.33-36.92,34.3-66,34.3S319.16,950.31,305.36,935.56Z"/><path class="cls-15" d="M354.5,955.43s28.43,8.5,99.42-38.65,85.72-73.6,120.84-71.88,59.89,44.67,91.3,53.1c0,0-188,78.89-237.84,77S362,967.62,354.5,955.43Z"/><path class="cls-16" d="M82.39,916s55.48-40,95.5-37.15,94.78,37.37,128.77,57.5,101.5,33.21,130.8,32.42c0,0-13.37,19.33-114.57,25.08S80.91,931.28,82.39,916Z"/><path class="cls-17" d="M584.46,912.33c-2.93-2.75-12,2.17-20.27,11-1.37,1.47-2.64,3-3.78,4.43q.76-1.51,1.47-3.15c5.13-11.78,5.64-22.91,1.13-24.87s-12.3,6-17.43,17.78c-.56,1.29-1.07,2.58-1.52,3.85a61.16,61.16,0,0,0-.72-6.85c-1.89-11.93-6.65-21.09-10.62-20.46s-5.65,10.81-3.75,22.74a60.27,60.27,0,0,0,2,8.51,58.37,58.37,0,0,0-4.61-3.86c-10.24-7.75-21-10.86-23.91-6.94-2.78,3.67,2.25,12.23,11.34,19.67C502.59,931.46,493,932.22,492,936s7.62,9.52,19.31,12.59,22,2.39,23-1.5a3.58,3.58,0,0,0-.77-2.92c2.75.33,4.87-.16,6-1.59,1-1.27,1-3.14.23-5.34a3.16,3.16,0,0,0,1.7-1.1c.21,3.2,1.21,5.47,3,6.26,2.78,1.21,6.82-1.37,10.71-6.28-1.73,3.77-2.07,6.79-.61,8.16,2.93,2.75,12-2.17,20.27-11S587.4,915.08,584.46,912.33Z"/><path class="cls-18" d="M230.41,936.3c-1-2.47-7.89-2-15.31,1.14-1.24.52-2.41,1.08-3.51,1.66.59-.48,1.18-1,1.76-1.51,6.32-5.76,9.67-12.38,7.47-14.8s-9.11.29-15.44,6c-.69.64-1.35,1.28-2,1.93a39.8,39.8,0,0,0,1.43-4.36c2.11-7.76,1.72-14.62-.87-15.32s-6.38,5-8.48,12.79a41.22,41.22,0,0,0-1.13,5.7c-.5-1.18-1.08-2.39-1.74-3.6-4.11-7.5-9.76-12.31-12.63-10.74-2.69,1.47-2,8,1.52,15-6-4.68-12.09-6.84-13.71-4.83s2,7.86,8.3,12.91,12.7,7.45,14.38,5.37a2.41,2.41,0,0,0,.33-2c1.58.95,3,1.23,4.05.66a3.78,3.78,0,0,0,1.59-3.18,2.07,2.07,0,0,0,1.33-.21c-.74,2-.75,3.66.13,4.63,1.36,1.49,4.52,1,8.22-.89-2.08,1.82-3.11,3.56-2.6,4.79,1,2.47,7.89,2,15.31-1.15S231.44,938.77,230.41,936.3Z"/><path class="cls-19" d="M720,892.34v4.29h-.22v82.58C653.86,1058.89,517.51,1113.6,360,1113.6S66.14,1058.89.22,979.21V909.87l-.22,0V909l.22,0a103.52,103.52,0,0,1,16.55-2.44,151.6,151.6,0,0,1,37.11,1.79c3,.51,6,1.12,9.13,1.86a150.72,150.72,0,0,1,19.37,6,152.57,152.57,0,0,1,20.37,9.55c53.25,29.9,139.87,54,203.25,51.75,39.27-1.43,62.71-.2,96.37-4,9.63-1.08,20.11-2.57,32-4.66,13.63-2.39,29.15-5.54,47.47-9.74,12.08-2.77,23.34-6,34-9.47,8.42-2.73,16.47-5.65,24.3-8.65l2.13-.82c13.71-5.32,26.74-10.9,39.75-16.28,22.87-9.47,45.7-18.36,72.13-24.26h0q4.95-1.11,10.09-2.07,4.92-.93,10-1.69c2.39-.37,4.81-.7,7.26-1a322.28,322.28,0,0,1,38.19-2.45Z"/><path class="cls-20" d="M637.66,978.48c-.58-2.6-6.83-3.48-14.49-2.21,4-7,4.93-13.82,2-15.68-3.15-2-9.61,2.5-14.42,10.06a36.74,36.74,0,0,0-2.68,5c-.16-1.16-.37-2.36-.64-3.58-1.79-8.06-5.51-14.09-8.3-13.47s-3.6,7.66-1.8,15.72c.11.52.23,1,.36,1.52-6.65-2.82-12.5-3.4-13.56-1.2-1.19,2.43,4,7.38,11.48,11,7.1,3.45,22.77,2.59,27.21,1.6C631.66,985.32,638.31,981.38,637.66,978.48Z"/><path class="cls-21" d="M71.39,970.9c-1.33-1.34-5.5.65-9.38,4.46,0-5.5-1.57-9.94-3.48-9.94s-3.46,4.44-3.48,9.94c-3.88-3.81-8-5.8-9.39-4.46s.73,5.64,4.66,9.57a19.2,19.2,0,0,0,7.11,4.85,1.92,1.92,0,0,0,1,.21h.14a1.92,1.92,0,0,0,1-.21,19.2,19.2,0,0,0,7.11-4.85C70.67,976.54,72.75,972.26,71.39,970.9Z"/><path class="cls-22" d="M68.61,735.21s9.53-4.93,6.08-22.18S50.83,675.94,47.37,681.8C44.21,687.15,68.61,735.21,68.61,735.21Z"/><path class="cls-23" d="M48,681.12s-4.6,4.6-5.17,14.37-1.73,29.9,22.42,40.83c0,0,1.15.57,2.3,4S70.38,749,72.1,749a3.33,3.33,0,0,0,2.3-.58s-5.46-10.64-7.76-19.26S48.24,680.25,48,681.12Z"/><path class="cls-24" d="M634.11,667s6.51,3.35,14.74-5.39,11.19-28,6.56-27.55C651.18,634.44,634.11,667,634.11,667Z"/><path class="cls-25" d="M656,634.13s-4.38-.74-10,2.81-17.32,10.87-13.84,28.63c0,0,.14.86-1.33,2.87s-3.66,5-3,6,1.23,1.05,1.23,1.05a80.46,80.46,0,0,1,7.64-11.94C640.6,658.83,656.61,634,656,634.13Z"/></g></g></svg>