<svg xmlns="http://www.w3.org/2000/svg" xmlns:xlink="http://www.w3.org/1999/xlink" viewBox="0 0 748.12 954"><defs><style>.cls-1{fill:url(#linear-gradient);}.cls-2{fill:url(#linear-gradient-2);}.cls-3{fill:url(#linear-gradient-3);}.cls-4{fill:url(#linear-gradient-4);}.cls-5{fill:url(#linear-gradient-5);}.cls-6{fill:url(#linear-gradient-6);}.cls-7,.cls-8{fill:#f7f7f7;}.cls-8{opacity:0.2;}.cls-9{fill:url(#linear-gradient-7);}.cls-10{fill:url(#linear-gradient-8);}.cls-11{fill:url(#linear-gradient-9);}.cls-12{fill:url(#linear-gradient-10);}.cls-13{fill:#fac747;}.cls-14{fill:#fe6f23;}.cls-15{fill:#ee4e1c;}.cls-16{fill:#fff;}.cls-17{fill:#1280d5;}.cls-18{fill:#ff6d20;}.cls-19{opacity:0.1;}.cls-20{fill:#55d5fc;}.cls-21{fill:#fe6a22;}.cls-22{fill:#ed4a1f;}</style><linearGradient id="linear-gradient" x1="65.83" y1="83.71" x2="514.69" y2="477.44" gradientUnits="userSpaceOnUse"><stop offset="0" stop-color="#4dd1ff"/><stop offset="1" stop-color="#ace8f9"/></linearGradient><linearGradient id="linear-gradient-2" x1="107.29" y1="-276.89" x2="929.68" y2="444.5" xlink:href="#linear-gradient"/><linearGradient id="linear-gradient-3" x1="153.6" y1="-281.38" x2="1001.48" y2="462.38" gradientTransform="translate(1.33 177.63) rotate(-19.5)" xlink:href="#linear-gradient"/><linearGradient id="linear-gradient-4" x1="59.61" y1="831.65" x2="588.71" y2="191.41" gradientUnits="userSpaceOnUse"><stop offset="0" stop-color="#ace8f9"/><stop offset="1" stop-color="#4dd1ff"/></linearGradient><linearGradient id="linear-gradient-5" x1="59.61" y1="816.65" x2="588.71" y2="176.41" xlink:href="#linear-gradient"/><linearGradient id="linear-gradient-6" x1="328.32" y1="791.96" x2="328.32" y2="202.09" gradientUnits="userSpaceOnUse"><stop offset="0" stop-color="#1b5eb5"/><stop offset="1" stop-color="#0195ff"/></linearGradient><linearGradient id="linear-gradient-7" x1="308.87" y1="496.22" x2="92.36" y2="595.29" gradientUnits="userSpaceOnUse"><stop offset="0" stop-color="#fac546"/><stop offset="1" stop-color="#ff902a"/></linearGradient><linearGradient id="linear-gradient-8" x1="515.32" y1="946" x2="743.32" y2="946" gradientUnits="userSpaceOnUse"><stop offset="0" stop-color="#c4eafd"/><stop offset="1" stop-color="#c5ffff"/></linearGradient><linearGradient id="linear-gradient-9" x1="-1335.31" y1="1870.58" x2="-1335.31" y2="1726.83" gradientTransform="matrix(0.73, 0.68, -0.68, 0.73, 2729.36, 440.07)" gradientUnits="userSpaceOnUse"><stop offset="0" stop-color="#fac747" stop-opacity="0"/><stop offset="0.49" stop-color="#fac546"/><stop offset="1" stop-color="#ff902a"/></linearGradient><linearGradient id="linear-gradient-10" x1="-1338.76" y1="1878.66" x2="-1337.55" y2="1730.86" xlink:href="#linear-gradient-9"/></defs><g id="Layer_2" data-name="Layer 2"><g id="Layer_2-2" data-name="Layer 2"><circle class="cls-1" cx="211.4" cy="211.4" r="211.4"/><circle class="cls-2" cx="660.47" cy="208.35" r="87.65"/><circle class="cls-3" cx="572.55" cy="68.81" r="22.49"/><rect class="cls-4" x="23.32" y="176" width="610" height="661" rx="66.78"/><rect class="cls-5" x="23.32" y="161" width="610" height="661" rx="66.78"/><rect class="cls-6" x="54.77" y="197.93" width="547.11" height="591.82" rx="45.71"/><path class="cls-7" d="M157.24,283h11.6v6.84H148.39V253.5h8.85Z"/><path class="cls-7" d="M173,267.53a12.6,12.6,0,0,1,4.58-5.18,12,12,0,0,1,6.47-1.81,11.11,11.11,0,0,1,5.36,1.25,9,9,0,0,1,3.54,3.26V261h8.85v28.88H193v-4.09a9.62,9.62,0,0,1-3.59,3.26,11.11,11.11,0,0,1-5.36,1.24,11.7,11.7,0,0,1-6.42-1.84,12.65,12.65,0,0,1-4.58-5.22,17.47,17.47,0,0,1-1.68-7.85A17.27,17.27,0,0,1,173,267.53Zm18.12,2.64a6.22,6.22,0,0,0-9,0,7.17,7.17,0,0,0-1.83,5.2,7.37,7.37,0,0,0,1.83,5.26,6.16,6.16,0,0,0,9,0,8.37,8.37,0,0,0,0-10.45Z"/><path class="cls-7" d="M236.74,261v28.88h-8.85V285.9a9.62,9.62,0,0,1-3.65,3.08,11.09,11.09,0,0,1-5.1,1.17,11.36,11.36,0,0,1-5.85-1.48,9.88,9.88,0,0,1-3.93-4.27,14.53,14.53,0,0,1-1.4-6.57V261h8.8v15.68a6.34,6.34,0,0,0,1.5,4.5,5.27,5.27,0,0,0,4,1.61,5.34,5.34,0,0,0,4.09-1.61,6.34,6.34,0,0,0,1.5-4.5V261Z"/><path class="cls-7" d="M268.8,263.93q3,3.29,3,9v16.88H263V274.15a6.34,6.34,0,0,0-1.5-4.5,5.89,5.89,0,0,0-8.07,0,6.29,6.29,0,0,0-1.5,4.5v15.69h-8.85V261H252v3.83a9.23,9.23,0,0,1,3.62-3,11.52,11.52,0,0,1,5.12-1.11A10.48,10.48,0,0,1,268.8,263.93Z"/><path class="cls-7" d="M278.07,267.53a12.77,12.77,0,0,1,5.12-5.18,15.42,15.42,0,0,1,7.53-1.81,14.3,14.3,0,0,1,9.08,2.85,13.4,13.4,0,0,1,4.79,8h-9.42a4.53,4.53,0,0,0-4.6-3.31,4.65,4.65,0,0,0-3.89,1.89,10.82,10.82,0,0,0,0,10.82,4.64,4.64,0,0,0,3.89,1.88,4.53,4.53,0,0,0,4.6-3.31h9.42a13.55,13.55,0,0,1-4.81,8,14.13,14.13,0,0,1-9.06,2.9,15.31,15.31,0,0,1-7.53-1.81,12.71,12.71,0,0,1-5.12-5.18,17.73,17.73,0,0,1,0-15.73Z"/><path class="cls-7" d="M335,263.93q3,3.29,3,9v16.88h-8.8V274.15a6.34,6.34,0,0,0-1.5-4.5,5.9,5.9,0,0,0-8.08,0,6.34,6.34,0,0,0-1.5,4.5v15.69H309.3v-38.3h8.85v13.3a9.33,9.33,0,0,1,3.68-3,11.7,11.7,0,0,1,5.22-1.14A10.26,10.26,0,0,1,335,263.93Z"/><path class="cls-7" d="M382.22,274.34A9.51,9.51,0,0,1,381,287.17c-2.13,1.78-5.08,2.67-8.88,2.67H355.16V253.5h16.35q5.53,0,8.67,2.54a9.2,9.2,0,0,1,1.45,12.21,8.63,8.63,0,0,1-4.48,2.95A8.43,8.43,0,0,1,382.22,274.34ZM364,268.2h5.79a5.17,5.17,0,0,0,3.34-.95,3.44,3.44,0,0,0,1.17-2.83,3.49,3.49,0,0,0-1.17-2.84,5,5,0,0,0-3.34-1H364Zm10,13.49a3.61,3.61,0,0,0,1.22-2.93,3.75,3.75,0,0,0-1.27-3,5.18,5.18,0,0,0-3.5-1.09H364v8h6.52A5.26,5.26,0,0,0,374,281.69Z"/><path class="cls-7" d="M394.78,288.44a13.3,13.3,0,0,1-5.34-5.18,16.74,16.74,0,0,1,0-15.7,13.41,13.41,0,0,1,5.38-5.21,17.11,17.11,0,0,1,15.32,0,13.44,13.44,0,0,1,5.39,5.21,15.34,15.34,0,0,1,2,7.84,15.18,15.18,0,0,1-2,7.84,13.51,13.51,0,0,1-5.43,5.2,16.25,16.25,0,0,1-7.69,1.81A15.9,15.9,0,0,1,394.78,288.44Zm12-7.71a7.4,7.4,0,0,0,1.79-5.33,7.52,7.52,0,0,0-1.74-5.33,5.57,5.57,0,0,0-4.27-1.87,5.63,5.63,0,0,0-4.29,1.84,7.6,7.6,0,0,0-1.71,5.36,7.69,7.69,0,0,0,1.68,5.33,5.45,5.45,0,0,0,4.22,1.86A5.77,5.77,0,0,0,406.73,280.73Z"/><path class="cls-7" d="M422.15,267.53a12.67,12.67,0,0,1,4.58-5.18,12,12,0,0,1,6.47-1.81,11.08,11.08,0,0,1,5.36,1.25,9.05,9.05,0,0,1,3.55,3.26V261H451v28.88h-8.85v-4.09a9.73,9.73,0,0,1-3.6,3.26,11.11,11.11,0,0,1-5.36,1.24,11.74,11.74,0,0,1-6.42-1.84,12.72,12.72,0,0,1-4.58-5.22,17.47,17.47,0,0,1-1.68-7.85A17.27,17.27,0,0,1,422.15,267.53Zm18.12,2.64a6.21,6.21,0,0,0-8.95,0,7.13,7.13,0,0,0-1.84,5.2,7.33,7.33,0,0,0,1.84,5.26,6.15,6.15,0,0,0,8.95,0,8.34,8.34,0,0,0,0-10.45Z"/><path class="cls-7" d="M470.11,262a9.92,9.92,0,0,1,5.17-1.37V270h-2.43a7.44,7.44,0,0,0-5,1.43c-1.1.95-1.66,2.61-1.66,5v13.41h-8.85V261h8.85v4.81A11.6,11.6,0,0,1,470.11,262Z"/><path class="cls-7" d="M479.45,267.53a12.6,12.6,0,0,1,4.58-5.18,12,12,0,0,1,6.47-1.81,11.43,11.43,0,0,1,5.2,1.19,9.6,9.6,0,0,1,3.7,3.21v-13.4h8.85v38.3H499.4V285.7a9,9,0,0,1-3.55,3.31,11.07,11.07,0,0,1-5.35,1.24,11.79,11.79,0,0,1-6.47-1.84,12.65,12.65,0,0,1-4.58-5.22,17.47,17.47,0,0,1-1.68-7.85A17.27,17.27,0,0,1,479.45,267.53Zm18.11,2.64a5.94,5.94,0,0,0-4.47-1.92,6,6,0,0,0-4.48,1.89,7.13,7.13,0,0,0-1.84,5.2,7.33,7.33,0,0,0,1.84,5.26,6.15,6.15,0,0,0,8.95,0,8.34,8.34,0,0,0,0-10.45Z"/><rect class="cls-8" x="327.85" y="339.44" width="244.68" height="125.18" rx="14.28"/><path class="cls-7" d="M424.27,387.33a7.58,7.58,0,0,1,2.91-2.9,8.28,8.28,0,0,1,4.13-1,8.13,8.13,0,0,1,4.68,1.37,7.19,7.19,0,0,1,2.82,3.8h-3.68a3.89,3.89,0,0,0-1.55-1.72,4.54,4.54,0,0,0-2.3-.57,4.78,4.78,0,0,0-2.48.65,4.49,4.49,0,0,0-1.69,1.84,6.66,6.66,0,0,0,0,5.57,4.48,4.48,0,0,0,1.69,1.86,4.78,4.78,0,0,0,2.48.65,4.45,4.45,0,0,0,2.3-.59,3.94,3.94,0,0,0,1.55-1.72h3.68a7.15,7.15,0,0,1-2.8,3.8,8.7,8.7,0,0,1-8.83.32,7.55,7.55,0,0,1-2.91-2.89,8.28,8.28,0,0,1-1.06-4.21A8.37,8.37,0,0,1,424.27,387.33Z"/><path class="cls-7" d="M453.51,386.89v12.67h-3.22V398a4.15,4.15,0,0,1-1.62,1.29,5,5,0,0,1-2.16.47,5.38,5.38,0,0,1-2.63-.63,4.44,4.44,0,0,1-1.79-1.85,6.08,6.08,0,0,1-.65-2.92v-7.43h3.2v7a3.33,3.33,0,0,0,.75,2.33,3,3,0,0,0,4.14,0,3.29,3.29,0,0,0,.76-2.33v-7Z"/><path class="cls-7" d="M458.73,399.2a4.87,4.87,0,0,1-2-1.52,3.89,3.89,0,0,1-.79-2.12h3.23a1.76,1.76,0,0,0,.72,1.21,2.5,2.5,0,0,0,1.56.48,2.38,2.38,0,0,0,1.43-.37,1.08,1.08,0,0,0,.52-.93,1,1,0,0,0-.63-.93,12.08,12.08,0,0,0-2-.68,16.13,16.13,0,0,1-2.32-.7,4,4,0,0,1-1.56-1.13,3,3,0,0,1-.65-2,3.31,3.31,0,0,1,.6-1.92,4.09,4.09,0,0,1,1.74-1.37,6.49,6.49,0,0,1,2.67-.51,5.45,5.45,0,0,1,3.61,1.13,4.22,4.22,0,0,1,1.49,3.06h-3.07a1.59,1.59,0,0,0-.63-1.2,2.3,2.3,0,0,0-1.49-.45,2.39,2.39,0,0,0-1.34.32,1,1,0,0,0-.47.89,1.06,1.06,0,0,0,.64,1,10.22,10.22,0,0,0,2,.67,17.6,17.6,0,0,1,2.26.71,4,4,0,0,1,1.55,1.13,3.12,3.12,0,0,1,.67,2,3.36,3.36,0,0,1-.6,2,4.07,4.07,0,0,1-1.74,1.36,7.29,7.29,0,0,1-5.43-.07Z"/><path class="cls-7" d="M472.86,389.52v6.13a1.19,1.19,0,0,0,.31.92,1.5,1.5,0,0,0,1,.29h1.49v2.7h-2q-4.05,0-4.05-3.94v-6.1h-1.5v-2.63h1.5v-3.13h3.23v3.13h2.84v2.63Z"/><path class="cls-7" d="M480.34,399a5.72,5.72,0,0,1-2.3-2.3,7.35,7.35,0,0,1,0-6.86,6,6,0,0,1,2.35-2.3,7.19,7.19,0,0,1,6.63,0,6,6,0,0,1,2.34,2.3,6.77,6.77,0,0,1,.86,3.43,6.56,6.56,0,0,1-.88,3.43A6,6,0,0,1,487,399a7,7,0,0,1-3.35.81A6.66,6.66,0,0,1,480.34,399Zm4.93-2.4a3.06,3.06,0,0,0,1.22-1.27,4.32,4.32,0,0,0,.46-2.06,3.84,3.84,0,0,0-.95-2.78,3.16,3.16,0,0,0-2.32-1,3.06,3.06,0,0,0-2.3,1,3.88,3.88,0,0,0-.93,2.78,3.94,3.94,0,0,0,.9,2.78,3,3,0,0,0,2.28,1A3.39,3.39,0,0,0,485.27,396.55Z"/><path class="cls-7" d="M512.09,388.14a5.4,5.4,0,0,1,1.43,4v7.43h-3.2v-7a3.16,3.16,0,0,0-.76-2.28,2.73,2.73,0,0,0-2.06-.78,2.76,2.76,0,0,0-2.06.78,3.12,3.12,0,0,0-.77,2.28v7h-3.2v-7a3.16,3.16,0,0,0-.76-2.28,2.73,2.73,0,0,0-2.06-.78,2.8,2.8,0,0,0-2.09.78,3.16,3.16,0,0,0-.76,2.28v7h-3.21V386.89h3.21v1.53a4.33,4.33,0,0,1,1.59-1.26,5,5,0,0,1,2.13-.45,5.64,5.64,0,0,1,2.66.62,4.4,4.4,0,0,1,1.8,1.8,4.55,4.55,0,0,1,1.8-1.76,5.5,5.5,0,0,1,6.31.77Z"/><path class="cls-7" d="M528.25,394.18H519a3.12,3.12,0,0,0,1,2.15,2.94,2.94,0,0,0,2.08.78,2.62,2.62,0,0,0,2.54-1.53H528a5.81,5.81,0,0,1-2.11,3,6.16,6.16,0,0,1-3.82,1.17,6.62,6.62,0,0,1-3.28-.81,5.63,5.63,0,0,1-2.26-2.3,7.75,7.75,0,0,1,0-6.88,5.62,5.62,0,0,1,2.24-2.29,6.73,6.73,0,0,1,3.31-.8,6.64,6.64,0,0,1,3.24.78,5.49,5.49,0,0,1,2.22,2.21,6.61,6.61,0,0,1,.79,3.28A7.54,7.54,0,0,1,528.25,394.18ZM525,392a2.5,2.5,0,0,0-.89-2,3.15,3.15,0,0,0-2.13-.75,2.91,2.91,0,0,0-2,.72,3.17,3.17,0,0,0-1,2Z"/><path class="cls-7" d="M535.48,387.28a4.54,4.54,0,0,1,2.28-.57v3.36h-.85a3.2,3.2,0,0,0-2.27.71,3.26,3.26,0,0,0-.77,2.47v6.31h-3.2V386.89h3.2v2A4.43,4.43,0,0,1,535.48,387.28Z"/><path class="cls-7" d="M433.78,420.59h-6.36l-1.05,3H423l5.75-16h3.72l5.74,16h-3.38Zm-.87-2.56-2.31-6.68L428.29,418Z"/><path class="cls-7" d="M445.64,420.68l3.21-9.72h3.4l-4.68,12.67h-3.89L439,411h3.43Z"/><path class="cls-7" d="M454,413.84a5.62,5.62,0,0,1,2.08-2.28,5.5,5.5,0,0,1,2.94-.8,5.13,5.13,0,0,1,2.48.57,5.06,5.06,0,0,1,1.71,1.44V411h3.22v12.67h-3.22v-1.85a4.77,4.77,0,0,1-1.71,1.47,5.16,5.16,0,0,1-2.5.59,5.4,5.4,0,0,1-2.92-.83,5.8,5.8,0,0,1-2.08-2.32,7.45,7.45,0,0,1-.76-3.44A7.35,7.35,0,0,1,454,413.84Zm8.75,1.46a3.26,3.26,0,0,0-1.23-1.29,3.39,3.39,0,0,0-1.67-.44,3.23,3.23,0,0,0-1.65.43,3.32,3.32,0,0,0-1.22,1.27,3.92,3.92,0,0,0-.47,2,4,4,0,0,0,.47,2,3.41,3.41,0,0,0,1.23,1.32,3.19,3.19,0,0,0,1.64.45,3.39,3.39,0,0,0,1.67-.44,3.3,3.3,0,0,0,1.23-1.28,4.08,4.08,0,0,0,.46-2A4,4,0,0,0,462.75,415.3Z"/><path class="cls-7" d="M473.29,413.59v6.13a1.24,1.24,0,0,0,.31.93,1.52,1.52,0,0,0,1,.28h1.49v2.7h-2q-4,0-4.05-3.93v-6.11h-1.51V411h1.51v-3.13h3.22V411h2.84v2.63Z"/><path class="cls-7" d="M478.38,413.84a5.62,5.62,0,0,1,2.08-2.28,5.5,5.5,0,0,1,2.94-.8,5.16,5.16,0,0,1,2.48.57,5.06,5.06,0,0,1,1.71,1.44V411h3.22v12.67h-3.22v-1.85a4.85,4.85,0,0,1-1.71,1.47,5.19,5.19,0,0,1-2.5.59,5.4,5.4,0,0,1-2.92-.83,5.8,5.8,0,0,1-2.08-2.32,7.45,7.45,0,0,1-.76-3.44A7.35,7.35,0,0,1,478.38,413.84Zm8.75,1.46a3.28,3.28,0,0,0-1.24-1.29,3.33,3.33,0,0,0-1.67-.44,3.22,3.22,0,0,0-1.64.43,3.34,3.34,0,0,0-1.23,1.27,4,4,0,0,0-.46,2,4.13,4.13,0,0,0,.46,2,3.51,3.51,0,0,0,1.24,1.32,3.15,3.15,0,0,0,1.63.45,3.27,3.27,0,0,0,2.91-1.72,4.19,4.19,0,0,0,.46-2A4.13,4.13,0,0,0,487.13,415.3Z"/><path class="cls-7" d="M498.76,411.35a4.48,4.48,0,0,1,2.27-.57v3.36h-.84a2.67,2.67,0,0,0-3,3.18v6.31h-3.21V411h3.21v2A4.43,4.43,0,0,1,498.76,411.35Z"/><circle class="cls-7" cx="382.16" cy="390.03" r="13.51"/><path class="cls-7" d="M360.45,427.54c0-9.75,9.72-17.65,21.71-17.65s21.72,7.9,21.72,17.65Z"/><rect class="cls-9" x="84.11" y="485.39" width="223.27" height="125.18" rx="14.28"/><path class="cls-7" d="M181.56,542.37h5.26v2.54h-8.46V529h3.2Z"/><path class="cls-7" d="M188.8,535.12a5.71,5.71,0,0,1,2.08-2.29,5.59,5.59,0,0,1,2.94-.8,5.13,5.13,0,0,1,4.19,2v-1.81h3.22v12.67H198v-1.85a4.77,4.77,0,0,1-1.71,1.47,5.18,5.18,0,0,1-2.5.58,5.39,5.39,0,0,1-2.92-.82A5.8,5.8,0,0,1,188.8,542a7.48,7.48,0,0,1-.76-3.44A7.35,7.35,0,0,1,188.8,535.12Zm8.75,1.45a3.32,3.32,0,0,0-1.24-1.28,3.25,3.25,0,0,0-4.53,1.26,3.92,3.92,0,0,0-.47,2,4,4,0,0,0,.47,2,3.32,3.32,0,0,0,1.23,1.31,3.1,3.1,0,0,0,1.63.46,3.33,3.33,0,0,0,1.67-.44,3.28,3.28,0,0,0,1.24-1.29,4.13,4.13,0,0,0,.46-2A4.19,4.19,0,0,0,197.55,536.57Z"/><path class="cls-7" d="M216.32,532.24v12.67H213.1v-1.6a4.19,4.19,0,0,1-1.61,1.29,5.08,5.08,0,0,1-2.16.47,5.36,5.36,0,0,1-2.63-.63,4.46,4.46,0,0,1-1.8-1.85,6.2,6.2,0,0,1-.65-2.92v-7.43h3.2v7a3.24,3.24,0,0,0,.76,2.32,2.64,2.64,0,0,0,2,.82,2.7,2.7,0,0,0,2.09-.82,3.29,3.29,0,0,0,.75-2.32v-7Z"/><path class="cls-7" d="M230.16,533.49a5.46,5.46,0,0,1,1.4,4v7.43h-3.21v-7a3.29,3.29,0,0,0-.75-2.32,2.67,2.67,0,0,0-2.06-.81,2.74,2.74,0,0,0-2.09.81,3.25,3.25,0,0,0-.77,2.32v7h-3.2V532.24h3.2v1.58a4.49,4.49,0,0,1,1.64-1.3,5.07,5.07,0,0,1,2.18-.46A4.86,4.86,0,0,1,230.16,533.49Z"/><path class="cls-7" d="M234.57,535.13a5.8,5.8,0,0,1,2.22-2.28A6.36,6.36,0,0,1,240,532a6.28,6.28,0,0,1,3.9,1.18,5.74,5.74,0,0,1,2.07,3.31h-3.45a2.65,2.65,0,0,0-.93-1.3,2.71,2.71,0,0,0-1.61-.47,2.67,2.67,0,0,0-2.18,1,5.35,5.35,0,0,0,0,5.63,2.66,2.66,0,0,0,2.18,1,2.44,2.44,0,0,0,2.54-1.74H246a5.89,5.89,0,0,1-2.08,3.27,6.14,6.14,0,0,1-3.89,1.21,6.45,6.45,0,0,1-3.25-.81,5.8,5.8,0,0,1-2.22-2.28,7.82,7.82,0,0,1,0-6.89Z"/><path class="cls-7" d="M258.06,532.69a4.24,4.24,0,0,1,1.75,1.85,6.32,6.32,0,0,1,.63,2.94v7.43h-3.2v-7a3.24,3.24,0,0,0-.76-2.32,2.67,2.67,0,0,0-2.06-.81,2.74,2.74,0,0,0-2.09.81,3.24,3.24,0,0,0-.76,2.32v7h-3.21V528h3.21v5.83a4.26,4.26,0,0,1,1.64-1.3,5.51,5.51,0,0,1,2.29-.46A5.14,5.14,0,0,1,258.06,532.69Z"/><path class="cls-7" d="M178.65,556.76a7.72,7.72,0,0,1,2.9-2.91,8.31,8.31,0,0,1,4.13-1,8.16,8.16,0,0,1,4.69,1.37,7.21,7.21,0,0,1,2.81,3.8H189.5a3.84,3.84,0,0,0-1.54-1.71,4.47,4.47,0,0,0-2.3-.58,4.67,4.67,0,0,0-2.48.66,4.39,4.39,0,0,0-1.7,1.84,6.1,6.1,0,0,0-.6,2.79,6.18,6.18,0,0,0,.6,2.78,4.48,4.48,0,0,0,1.7,1.85,4.75,4.75,0,0,0,2.48.65,4.57,4.57,0,0,0,2.3-.58A4,4,0,0,0,189.5,564h3.68a7.16,7.16,0,0,1-2.8,3.81,8.2,8.2,0,0,1-4.7,1.36,8.31,8.31,0,0,1-4.13-1,7.69,7.69,0,0,1-2.9-2.9,8.25,8.25,0,0,1-1.07-4.2A8.35,8.35,0,0,1,178.65,556.76Z"/><path class="cls-7" d="M199.13,552.06V569h-3.2V552.06Z"/><path class="cls-7" d="M202.23,559.19a5.55,5.55,0,0,1,2.08-2.28,5.45,5.45,0,0,1,2.94-.8,5.19,5.19,0,0,1,2.48.57,5,5,0,0,1,1.7,1.44v-1.81h3.23V569h-3.23v-1.85a4.82,4.82,0,0,1-1.7,1.47,5.23,5.23,0,0,1-2.51.59,5.36,5.36,0,0,1-2.91-.83,5.73,5.73,0,0,1-2.08-2.32,7.33,7.33,0,0,1-.77-3.44A7.23,7.23,0,0,1,202.23,559.19Zm8.74,1.45a3.23,3.23,0,0,0-1.23-1.28,3.39,3.39,0,0,0-1.67-.44,3.25,3.25,0,0,0-1.65.43,3.32,3.32,0,0,0-1.22,1.27,4,4,0,0,0-.47,2,4.13,4.13,0,0,0,.47,2,3.41,3.41,0,0,0,1.23,1.32,3.19,3.19,0,0,0,1.64.45,3.39,3.39,0,0,0,1.67-.44,3.23,3.23,0,0,0,1.23-1.28,4.6,4.6,0,0,0,0-4Z"/><path class="cls-7" d="M222.6,556.7a4.51,4.51,0,0,1,2.28-.57v3.36H224a2.67,2.67,0,0,0-3,3.18V569h-3.2V556.31H221v2A4.51,4.51,0,0,1,222.6,556.7Z"/><path class="cls-7" d="M227.24,554.26a1.77,1.77,0,0,1-.56-1.33,1.79,1.79,0,0,1,.56-1.34,2.11,2.11,0,0,1,2.82,0,1.79,1.79,0,0,1,.56,1.34,1.77,1.77,0,0,1-.56,1.33,2.11,2.11,0,0,1-2.82,0Zm3,2V569H227V556.31Z"/><path class="cls-7" d="M237.11,558.94v6.13a1.24,1.24,0,0,0,.31.93,1.52,1.52,0,0,0,1,.28H240V569h-2q-4,0-4.05-3.93v-6.11h-1.51v-2.63h1.51v-3.13h3.22v3.13H240v2.63Z"/><path class="cls-7" d="M254.38,556.31,246.53,575h-3.4l2.74-6.31-5.08-12.35h3.59l3.27,8.85,3.32-8.85Z"/><path class="cls-7" d="M150.25,572.92V546c0-16-11.53-28.77-15.49-32.66a1.88,1.88,0,0,0-2.64,0c-4,3.89-15.5,16.61-15.5,32.66v26.9h-6.86v10.23h47.35V572.92Zm-16.81-18.83a6.46,6.46,0,1,1,6.46-6.46A6.46,6.46,0,0,1,133.44,554.09Z"/><rect class="cls-8" x="84.11" y="628.31" width="488.42" height="131.24" rx="14.28"/><path class="cls-7" d="M204.43,693.19a4.5,4.5,0,0,1-1.9,1.81,6.88,6.88,0,0,1-3.26.68h-2.68v6.13h-3.2v-16h5.88a7.07,7.07,0,0,1,3.16.64,4.42,4.42,0,0,1,1.95,1.76,4.9,4.9,0,0,1,.65,2.54A5,5,0,0,1,204.43,693.19Zm-3.33-.7a2.21,2.21,0,0,0,.64-1.7c0-1.56-.87-2.33-2.61-2.33h-2.54v4.64h2.54A2.75,2.75,0,0,0,201.1,692.49Z"/><path class="cls-7" d="M219,696.44h-9.26a3.2,3.2,0,0,0,1,2.15,3,3,0,0,0,2.08.78,2.61,2.61,0,0,0,2.54-1.54h3.45a5.7,5.7,0,0,1-2.1,3,6.12,6.12,0,0,1-3.82,1.18,6.62,6.62,0,0,1-3.28-.81,5.69,5.69,0,0,1-2.26-2.3,7,7,0,0,1-.82-3.43,7.27,7.27,0,0,1,.8-3.46,5.55,5.55,0,0,1,2.25-2.28,6.62,6.62,0,0,1,3.31-.8,6.77,6.77,0,0,1,3.24.77,5.55,5.55,0,0,1,2.22,2.21,6.74,6.74,0,0,1,.78,3.28A7.76,7.76,0,0,1,219,696.44Zm-3.22-2.15a2.57,2.57,0,0,0-.89-2,3.19,3.19,0,0,0-2.13-.74,2.91,2.91,0,0,0-2,.72,3.22,3.22,0,0,0-1,2Z"/><path class="cls-7" d="M226.22,689.53a4.49,4.49,0,0,1,2.28-.57v3.36h-.85a2.67,2.67,0,0,0-3,3.18v6.31h-3.2V689.14h3.2v2A4.51,4.51,0,0,1,226.22,689.53Z"/><path class="cls-7" d="M232.7,701.46a5,5,0,0,1-1.95-1.52,3.89,3.89,0,0,1-.79-2.13h3.22a1.81,1.81,0,0,0,.72,1.21,2.53,2.53,0,0,0,1.57.48,2.46,2.46,0,0,0,1.43-.36,1.13,1.13,0,0,0,.52-.94,1,1,0,0,0-.63-.93,12.26,12.26,0,0,0-2-.67,18,18,0,0,1-2.33-.71,4,4,0,0,1-1.55-1.12,3,3,0,0,1-.65-2,3.31,3.31,0,0,1,.6-1.92,4.17,4.17,0,0,1,1.74-1.37,6.63,6.63,0,0,1,2.67-.5,5.42,5.42,0,0,1,3.61,1.13,4.21,4.21,0,0,1,1.49,3H237.3a1.63,1.63,0,0,0-.63-1.2,2.31,2.31,0,0,0-1.5-.44,2.27,2.27,0,0,0-1.33.32,1,1,0,0,0-.47.89,1,1,0,0,0,.64,1,9.37,9.37,0,0,0,2,.67,17.6,17.6,0,0,1,2.26.71,4,4,0,0,1,1.55,1.14,3.14,3.14,0,0,1,.67,2,3.33,3.33,0,0,1-.61,2,4,4,0,0,1-1.73,1.36,7.32,7.32,0,0,1-5.44-.07Z"/><path class="cls-7" d="M245.44,701.21a5.91,5.91,0,0,1-2.3-2.3,7,7,0,0,1-.83-3.43,6.74,6.74,0,0,1,.86-3.43,6,6,0,0,1,2.34-2.3,7.19,7.19,0,0,1,6.63,0,6,6,0,0,1,2.35,2.3,6.74,6.74,0,0,1,.85,3.43,6.59,6.59,0,0,1-.88,3.43,6.09,6.09,0,0,1-2.37,2.3,7,7,0,0,1-3.35.81A6.72,6.72,0,0,1,245.44,701.21Zm4.93-2.4a3.12,3.12,0,0,0,1.22-1.27,4.24,4.24,0,0,0,.46-2.06,3.82,3.82,0,0,0-1-2.78,3.1,3.1,0,0,0-2.32-1,3.05,3.05,0,0,0-2.3,1,3.9,3.9,0,0,0-.92,2.78,4,4,0,0,0,.9,2.78,3,3,0,0,0,2.28,1A3.35,3.35,0,0,0,250.37,698.81Z"/><path class="cls-7" d="M268.38,690.39a5.46,5.46,0,0,1,1.39,4v7.43h-3.2v-7a3.31,3.31,0,0,0-.75-2.33,2.69,2.69,0,0,0-2.06-.81,2.74,2.74,0,0,0-2.09.81,3.27,3.27,0,0,0-.77,2.33v7h-3.2V689.14h3.2v1.58a4.37,4.37,0,0,1,1.64-1.29,5.08,5.08,0,0,1,2.18-.47A4.9,4.9,0,0,1,268.38,690.39Z"/><path class="cls-7" d="M272.76,692a5.5,5.5,0,0,1,5-3.08,5.19,5.19,0,0,1,2.48.57A4.92,4.92,0,0,1,282,691v-1.81h3.23v12.67H282V700a4.84,4.84,0,0,1-1.7,1.48,5.3,5.3,0,0,1-2.5.58,5.47,5.47,0,0,1-2.92-.82,5.75,5.75,0,0,1-2.08-2.33,8,8,0,0,1,0-6.85Zm8.75,1.46a3.19,3.19,0,0,0-1.24-1.28,3.27,3.27,0,0,0-1.67-.45,3.32,3.32,0,0,0-1.64.43,3.27,3.27,0,0,0-1.23,1.27,4,4,0,0,0-.47,2,4.11,4.11,0,0,0,.47,2,3.37,3.37,0,0,0,1.24,1.32,3.16,3.16,0,0,0,1.63.46,3.3,3.3,0,0,0,2.91-1.73,4.67,4.67,0,0,0,0-4Z"/><rect class="cls-8" x="348.6" y="662.57" width="184.51" height="62.73" rx="31.37"/><path class="cls-7" d="M402,704.91h-4l-9-13.55v13.55h-4V685.13h4l9,13.58V685.13h4Z"/><path class="cls-7" d="M405.85,692.8a6.78,6.78,0,0,1,6.21-3.82,6.41,6.41,0,0,1,3.07.71,6.26,6.26,0,0,1,2.11,1.78v-2.23h4v15.67h-4v-2.29a6,6,0,0,1-2.11,1.82,6.48,6.48,0,0,1-3.1.72,6.68,6.68,0,0,1-3.61-1,7,7,0,0,1-2.57-2.87,9.21,9.21,0,0,1-1-4.25A9.11,9.11,0,0,1,405.85,692.8Zm10.82,1.8a4,4,0,0,0-3.59-2.14,4,4,0,0,0-3.55,2.11A4.88,4.88,0,0,0,409,697a5,5,0,0,0,.58,2.47,4.13,4.13,0,0,0,1.52,1.63,3.89,3.89,0,0,0,2,.56,4.06,4.06,0,0,0,3.59-2.13,5.66,5.66,0,0,0,0-4.95Z"/><path class="cls-7" d="M449.22,690.78a6.66,6.66,0,0,1,1.77,4.93v9.2h-4v-8.66a3.92,3.92,0,0,0-.94-2.81,3.35,3.35,0,0,0-2.54-1,3.4,3.4,0,0,0-2.56,1,3.84,3.84,0,0,0-.95,2.81v8.66h-4v-8.66a3.88,3.88,0,0,0-.94-2.81,3.35,3.35,0,0,0-2.54-1,3.44,3.44,0,0,0-2.59,1,3.88,3.88,0,0,0-.95,2.81v8.66h-4V689.24h4v1.89a5.34,5.34,0,0,1,2-1.56,6.22,6.22,0,0,1,2.64-.56,6.77,6.77,0,0,1,3.28.78,5.44,5.44,0,0,1,2.24,2.22,5.68,5.68,0,0,1,2.22-2.18,6.79,6.79,0,0,1,7.81.95Z"/><path class="cls-7" d="M455,686.7a2.2,2.2,0,0,1-.7-1.65,2.24,2.24,0,0,1,.7-1.66,2.62,2.62,0,0,1,3.48,0,2.23,2.23,0,0,1,.69,1.66,2.19,2.19,0,0,1-.69,1.65,2.59,2.59,0,0,1-3.48,0Zm3.69,2.54v15.67h-4V689.24Z"/><path class="cls-7" d="M475.83,690.78a6.76,6.76,0,0,1,1.72,4.93v9.2h-4v-8.66a4.08,4.08,0,0,0-.93-2.87,3.31,3.31,0,0,0-2.55-1,3.39,3.39,0,0,0-2.59,1,4,4,0,0,0-.95,2.87v8.66h-4V689.24h4v2a5.54,5.54,0,0,1,2-1.6,6.2,6.2,0,0,1,2.7-.58A6.06,6.06,0,0,1,475.83,690.78Z"/><path class="cls-7" d="M490.54,689.67a5.86,5.86,0,0,1,2.09,1.8v-2.23h4V705a8.35,8.35,0,0,1-.88,3.89,6.49,6.49,0,0,1-2.63,2.72,8.39,8.39,0,0,1-4.24,1,9.13,9.13,0,0,1-5.48-1.55,5.81,5.81,0,0,1-2.42-4.25h3.94a2.86,2.86,0,0,0,1.34,1.71,4.62,4.62,0,0,0,2.5.64,3.89,3.89,0,0,0,2.81-1,4.18,4.18,0,0,0,1.07-3.13v-2.43a6,6,0,0,1-2.11,1.84,6.28,6.28,0,0,1-3.07.73,6.74,6.74,0,0,1-3.62-1,7,7,0,0,1-2.59-2.87,9.2,9.2,0,0,1-.94-4.25,9.11,9.11,0,0,1,.94-4.22,6.81,6.81,0,0,1,6.21-3.82A6.64,6.64,0,0,1,490.54,689.67Zm1.52,4.93a4,4,0,0,0-1.52-1.59,4,4,0,0,0-5.62,1.56,4.88,4.88,0,0,0-.58,2.45,5,5,0,0,0,.58,2.47,4.23,4.23,0,0,0,1.53,1.63,3.83,3.83,0,0,0,2,.56,4.06,4.06,0,0,0,2.07-.55,3.92,3.92,0,0,0,1.52-1.58,5.66,5.66,0,0,0,0-4.95Z"/><path class="cls-7" d="M155.53,672.41H122.38A11.41,11.41,0,0,0,111,683.81v20.25a11.41,11.41,0,0,0,11.41,11.4h33.15a11.4,11.4,0,0,0,11.4-11.4V683.81A11.4,11.4,0,0,0,155.53,672.41Zm-14.21,29.27a3,3,0,0,1-2.1.86H125.77a3,3,0,0,1,0-5.92h13.45a3,3,0,0,1,2.1,5.06Zm10.76-12.92a3,3,0,0,1-2.1.87H125.77a3,3,0,0,1-3-3,3,3,0,0,1,3-3H150a3,3,0,0,1,2.1,5Z"/><rect class="cls-8" x="84.11" y="339.44" width="223.27" height="125.18" rx="14.28"/><path class="cls-7" d="M189.64,392.12a3.93,3.93,0,0,1,.87,2.51,4.06,4.06,0,0,1-.63,2.26,4.23,4.23,0,0,1-1.82,1.52,6.74,6.74,0,0,1-2.81.55h-6.89V383H185a6.86,6.86,0,0,1,2.8.53,4,4,0,0,1,1.78,1.46,3.82,3.82,0,0,1,.61,2.13,3.65,3.65,0,0,1-.74,2.33,4,4,0,0,1-2,1.33A3.61,3.61,0,0,1,189.64,392.12Zm-8.08-2.54h2.93a2.7,2.7,0,0,0,1.76-.51,1.84,1.84,0,0,0,.62-1.48,1.86,1.86,0,0,0-.62-1.49,2.64,2.64,0,0,0-1.76-.52h-2.93Zm5.05,6.22a1.93,1.93,0,0,0,.65-1.55,2,2,0,0,0-.69-1.62,2.75,2.75,0,0,0-1.85-.58h-3.16v4.3h3.23A2.73,2.73,0,0,0,186.61,395.8Z"/><path class="cls-7" d="M197.88,386.68a4.39,4.39,0,0,1,2.28-.58v3.37h-.85a2.65,2.65,0,0,0-3,3.17V399h-3.2V386.29h3.2v2A4.48,4.48,0,0,1,197.88,386.68Z"/><path class="cls-7" d="M202.25,389.17a5.48,5.48,0,0,1,5-3.09,5.19,5.19,0,0,1,2.48.57,4.92,4.92,0,0,1,1.7,1.44v-1.8h3.23V399h-3.23V397.1a4.74,4.74,0,0,1-1.7,1.48,5.18,5.18,0,0,1-2.5.58,5.39,5.39,0,0,1-2.92-.82,5.73,5.73,0,0,1-2.08-2.32,7.48,7.48,0,0,1-.77-3.44A7.35,7.35,0,0,1,202.25,389.17Zm8.75,1.45a3.3,3.3,0,0,0-2.91-1.73,3.29,3.29,0,0,0-1.65.44,3.25,3.25,0,0,0-1.22,1.27,4,4,0,0,0-.47,2,4.13,4.13,0,0,0,.47,2,3.34,3.34,0,0,0,1.24,1.31,3.07,3.07,0,0,0,1.63.46,3.27,3.27,0,0,0,1.67-.45,3.19,3.19,0,0,0,1.24-1.28,4.67,4.67,0,0,0,0-4Z"/><path class="cls-7" d="M228.49,387.53a5.5,5.5,0,0,1,1.4,4V399h-3.21v-7a3.29,3.29,0,0,0-.75-2.32,2.67,2.67,0,0,0-2.06-.81,2.74,2.74,0,0,0-2.09.81A3.25,3.25,0,0,0,221,392v7h-3.2V386.29H221v1.57a4.58,4.58,0,0,1,1.64-1.29,5.08,5.08,0,0,1,2.18-.47A4.9,4.9,0,0,1,228.49,387.53Z"/><path class="cls-7" d="M232.87,389.17a5.51,5.51,0,0,1,5-3.09,5.37,5.37,0,0,1,2.36.54,4.63,4.63,0,0,1,1.78,1.43v-6h3.25V399h-3.25v-1.88a4.23,4.23,0,0,1-1.67,1.51,5.23,5.23,0,0,1-2.49.57,5.45,5.45,0,0,1-2.93-.82,5.75,5.75,0,0,1-2.09-2.32,7.48,7.48,0,0,1-.77-3.44A7.35,7.35,0,0,1,232.87,389.17Zm8.75,1.45a3.28,3.28,0,0,0-5.78,0,4,4,0,0,0-.47,2,4.13,4.13,0,0,0,.47,2,3.41,3.41,0,0,0,1.24,1.31,3.07,3.07,0,0,0,1.63.46,3.27,3.27,0,0,0,1.67-.45,3.19,3.19,0,0,0,1.24-1.28,4.67,4.67,0,0,0,0-4Z"/><path class="cls-7" d="M180.87,422.62a4.89,4.89,0,0,1-2.12-1.65,4.36,4.36,0,0,1-.8-2.54h3.43a2.24,2.24,0,0,0,.7,1.56,2.47,2.47,0,0,0,1.73.57,2.66,2.66,0,0,0,1.76-.54,1.77,1.77,0,0,0,.64-1.4,1.62,1.62,0,0,0-.44-1.17,2.93,2.93,0,0,0-1.08-.72c-.44-.18-1-.37-1.8-.59a18.22,18.22,0,0,1-2.53-.9,4.48,4.48,0,0,1-1.67-1.35,3.85,3.85,0,0,1-.69-2.41,4.25,4.25,0,0,1,.71-2.47,4.47,4.47,0,0,1,2-1.61,7.16,7.16,0,0,1,2.93-.56,6.37,6.37,0,0,1,4,1.2,4.49,4.49,0,0,1,1.7,3.35h-3.52a1.84,1.84,0,0,0-.7-1.36,2.61,2.61,0,0,0-1.73-.54,2.21,2.21,0,0,0-1.49.48,1.73,1.73,0,0,0-.56,1.4,1.45,1.45,0,0,0,.42,1.06,3.31,3.31,0,0,0,1.05.69q.63.25,1.77.6a18.15,18.15,0,0,1,2.54.92,4.44,4.44,0,0,1,1.69,1.37,3.77,3.77,0,0,1,.71,2.4,4.54,4.54,0,0,1-.66,2.38,4.73,4.73,0,0,1-1.94,1.75,6.73,6.73,0,0,1-3,.65A7.57,7.57,0,0,1,180.87,422.62Z"/><path class="cls-7" d="M196,413v6.13a1.18,1.18,0,0,0,.31.92,1.45,1.45,0,0,0,1,.29h1.48V423h-2q-4.05,0-4.05-3.93V413h-1.51v-2.63h1.51v-3.13H196v3.13h2.83V413Z"/><path class="cls-7" d="M206,410.75a4.48,4.48,0,0,1,2.27-.57v3.36h-.84a3.21,3.21,0,0,0-2.28.71,3.26,3.26,0,0,0-.77,2.47V423h-3.2V410.36h3.2v2A4.54,4.54,0,0,1,206,410.75Z"/><path class="cls-7" d="M210.34,413.24a5.71,5.71,0,0,1,2.08-2.29,5.59,5.59,0,0,1,2.94-.8,5.13,5.13,0,0,1,4.19,2v-1.81h3.22V423h-3.22v-1.85a4.77,4.77,0,0,1-1.71,1.47,5.16,5.16,0,0,1-2.5.58,5.39,5.39,0,0,1-2.92-.82,5.8,5.8,0,0,1-2.08-2.32,7.48,7.48,0,0,1-.76-3.44A7.35,7.35,0,0,1,210.34,413.24Zm8.75,1.45a3.3,3.3,0,0,0-1.23-1.28,3.39,3.39,0,0,0-1.67-.44,3.19,3.19,0,0,0-2.87,1.7,3.92,3.92,0,0,0-.47,2,4,4,0,0,0,.47,2,3.32,3.32,0,0,0,1.23,1.31,3.11,3.11,0,0,0,1.64.46,3.39,3.39,0,0,0,1.67-.44,3.3,3.3,0,0,0,1.23-1.28,4.6,4.6,0,0,0,0-4Z"/><path class="cls-7" d="M229.63,413v6.13a1.21,1.21,0,0,0,.31.92,1.47,1.47,0,0,0,1,.29h1.49V423h-2q-4.05,0-4.05-3.93V413H224.9v-2.63h1.51v-3.13h3.22v3.13h2.84V413Z"/><path class="cls-7" d="M246.47,417.65H237.2a3.16,3.16,0,0,0,1,2.15,3,3,0,0,0,2.08.78,2.61,2.61,0,0,0,2.54-1.53h3.46a5.81,5.81,0,0,1-2.11,3,6.16,6.16,0,0,1-3.82,1.17,6.62,6.62,0,0,1-3.28-.81,5.63,5.63,0,0,1-2.26-2.3,7.75,7.75,0,0,1,0-6.88A5.62,5.62,0,0,1,237,411a6.73,6.73,0,0,1,3.31-.8,6.64,6.64,0,0,1,3.24.78,5.55,5.55,0,0,1,2.22,2.21,6.72,6.72,0,0,1,.79,3.28A7.54,7.54,0,0,1,246.47,417.65Zm-3.23-2.15a2.5,2.5,0,0,0-.89-2,3.15,3.15,0,0,0-2.13-.75,2.91,2.91,0,0,0-2,.72,3.17,3.17,0,0,0-1,2Z"/><path class="cls-7" d="M256.34,410.71a4.68,4.68,0,0,1,1.7,1.46v-1.81h3.22v12.76a6.82,6.82,0,0,1-.71,3.14,5.22,5.22,0,0,1-2.12,2.2,6.83,6.83,0,0,1-3.43.81,7.33,7.33,0,0,1-4.43-1.26,4.68,4.68,0,0,1-2-3.43h3.18a2.4,2.4,0,0,0,1.09,1.39,3.81,3.81,0,0,0,2,.51,3.17,3.17,0,0,0,2.27-.83,3.36,3.36,0,0,0,.87-2.53v-2a4.9,4.9,0,0,1-1.71,1.49,5,5,0,0,1-2.48.59,5.45,5.45,0,0,1-2.93-.82,5.75,5.75,0,0,1-2.09-2.32,7.48,7.48,0,0,1-.76-3.44,7.35,7.35,0,0,1,.76-3.41,5.71,5.71,0,0,1,2.08-2.29,5.59,5.59,0,0,1,2.94-.8A5.32,5.32,0,0,1,256.34,410.71Zm1.24,4a3.27,3.27,0,0,0-2.91-1.72,3.22,3.22,0,0,0-1.64.43,3.34,3.34,0,0,0-1.23,1.27,4,4,0,0,0-.46,2,4.13,4.13,0,0,0,.46,2A3.41,3.41,0,0,0,253,420a3.1,3.1,0,0,0,1.63.46,3.27,3.27,0,0,0,2.91-1.72,4.6,4.6,0,0,0,0-4Z"/><path class="cls-7" d="M276.51,410.36,268.67,429h-3.41l2.75-6.31-5.08-12.35h3.59l3.27,8.85,3.32-8.85Z"/><path class="cls-7" d="M154.53,391.81a21.12,21.12,0,1,0-36.18,15.85,17,17,0,0,1,4.93,11.87v.53h20.31v-.53a17.16,17.16,0,0,1,5-11.93A21,21,0,0,0,154.53,391.81Zm-12.25,5.35L134.79,405a1.87,1.87,0,0,1-2.7,0l-7.49-7.88a1.85,1.85,0,0,1,0-2.6L129,390.2a1.87,1.87,0,0,1,1.32-.54h6.26a1.85,1.85,0,0,1,1.31.54l4.36,4.36A1.86,1.86,0,0,1,142.28,397.16Z"/><path class="cls-7" d="M133.43,432.3a10.16,10.16,0,0,0,10-8.48h-20A10.16,10.16,0,0,0,133.43,432.3Z"/><ellipse class="cls-7" cx="133.44" cy="396.38" rx="5.11" ry="1.88"/><rect class="cls-8" x="327.85" y="485.39" width="244.68" height="125.18" rx="14.28"/><path class="cls-7" d="M419.36,529.67a7.72,7.72,0,0,1,2.9-2.91,8.31,8.31,0,0,1,4.13-1,8.1,8.1,0,0,1,4.69,1.38,7.15,7.15,0,0,1,2.81,3.79h-3.68a3.84,3.84,0,0,0-1.54-1.71,4.57,4.57,0,0,0-2.3-.58,4.67,4.67,0,0,0-2.48.66,4.45,4.45,0,0,0-1.7,1.84,6.76,6.76,0,0,0,0,5.57,4.48,4.48,0,0,0,1.7,1.85,4.75,4.75,0,0,0,2.48.65,4.47,4.47,0,0,0,2.3-.58,4,4,0,0,0,1.54-1.73h3.68a7.16,7.16,0,0,1-2.8,3.81,8.12,8.12,0,0,1-4.7,1.36,8.31,8.31,0,0,1-4.13-1,7.66,7.66,0,0,1-2.9-2.89,8.91,8.91,0,0,1,0-8.43Z"/><path class="cls-7" d="M439,541.29a5.91,5.91,0,0,1-2.3-2.3,6.86,6.86,0,0,1-.83-3.43,6.74,6.74,0,0,1,.85-3.43,6,6,0,0,1,2.35-2.3,7.19,7.19,0,0,1,6.63,0,6,6,0,0,1,2.34,2.3,7.2,7.2,0,0,1,0,6.86,6.19,6.19,0,0,1-2.38,2.3,6.92,6.92,0,0,1-3.35.81A6.66,6.66,0,0,1,439,541.29Zm4.93-2.41a3,3,0,0,0,1.22-1.26,4.24,4.24,0,0,0,.46-2.06,3.82,3.82,0,0,0-.95-2.78,3.11,3.11,0,0,0-2.32-1,3,3,0,0,0-2.3,1,3.86,3.86,0,0,0-.93,2.78,3.91,3.91,0,0,0,.91,2.78,3,3,0,0,0,2.27,1A3.27,3.27,0,0,0,443.9,538.88Z"/><path class="cls-7" d="M470.72,530.47a5.4,5.4,0,0,1,1.43,4v7.43H469v-7a3.16,3.16,0,0,0-.75-2.27,3.09,3.09,0,0,0-4.13,0,3.12,3.12,0,0,0-.77,2.27v7h-3.2v-7a3.12,3.12,0,0,0-.76-2.27,2.67,2.67,0,0,0-2-.79,2.77,2.77,0,0,0-2.1.79,3.12,3.12,0,0,0-.76,2.27v7h-3.2V529.22h3.2v1.53A4.2,4.2,0,0,1,456,529.5a4.89,4.89,0,0,1,2.14-.46,5.49,5.49,0,0,1,2.65.63,4.37,4.37,0,0,1,1.8,1.79,4.69,4.69,0,0,1,1.8-1.76A5.16,5.16,0,0,1,467,529,5.08,5.08,0,0,1,470.72,530.47Z"/><path class="cls-7" d="M480.1,529.6a5.13,5.13,0,0,1,2.48-.58,5.5,5.5,0,0,1,2.94.8,5.65,5.65,0,0,1,2.08,2.27,7.37,7.37,0,0,1,.77,3.42,7.45,7.45,0,0,1-.77,3.44,5.73,5.73,0,0,1-2.08,2.32,5.44,5.44,0,0,1-2.94.83,5.13,5.13,0,0,1-2.46-.57,5.49,5.49,0,0,1-1.73-1.45v7.85h-3.2V529.22h3.2v1.83A4.91,4.91,0,0,1,480.1,529.6Zm4.53,3.93a3.36,3.36,0,0,0-1.24-1.27,3.29,3.29,0,0,0-1.66-.43,3.15,3.15,0,0,0-1.63.45,3.28,3.28,0,0,0-1.24,1.29,4,4,0,0,0-.47,2,4.09,4.09,0,0,0,.47,2,3.42,3.42,0,0,0,1.24,1.29,3.14,3.14,0,0,0,1.63.44,3.21,3.21,0,0,0,1.66-.45,3.48,3.48,0,0,0,1.24-1.31,4.09,4.09,0,0,0,.47-2A4,4,0,0,0,484.63,533.53Z"/><path class="cls-7" d="M502.38,536.52h-9.26a3.2,3.2,0,0,0,1,2.15,3,3,0,0,0,2.08.77,2.61,2.61,0,0,0,2.54-1.53h3.46a5.81,5.81,0,0,1-2.11,3,6.12,6.12,0,0,1-3.82,1.18,6.62,6.62,0,0,1-3.28-.81,5.75,5.75,0,0,1-2.26-2.3,7.07,7.07,0,0,1-.82-3.43,7.16,7.16,0,0,1,.81-3.46,5.53,5.53,0,0,1,2.24-2.28,6.62,6.62,0,0,1,3.31-.8,6.74,6.74,0,0,1,3.24.77,5.55,5.55,0,0,1,2.22,2.21,6.74,6.74,0,0,1,.79,3.28A7.69,7.69,0,0,1,502.38,536.52Zm-3.22-2.15a2.55,2.55,0,0,0-.89-2,3.14,3.14,0,0,0-2.13-.74,2.91,2.91,0,0,0-2,.72,3.2,3.2,0,0,0-1,2Z"/><path class="cls-7" d="M508.54,531.85V538a1.24,1.24,0,0,0,.3.93,1.55,1.55,0,0,0,1.05.28h1.48v2.7h-2q-4,0-4.05-3.93v-6.11H503.8v-2.63h1.51v-3.13h3.23v3.13h2.83v2.63Z"/><path class="cls-7" d="M513.9,527.18a1.88,1.88,0,0,1,0-2.68,2.1,2.1,0,0,1,2.81,0,1.88,1.88,0,0,1,0,2.68,2.13,2.13,0,0,1-2.81,0Zm3,2v12.67h-3.2V529.22Z"/><path class="cls-7" d="M523.77,531.85V538a1.24,1.24,0,0,0,.3.93,1.55,1.55,0,0,0,1,.28h1.48v2.7h-2q-4.05,0-4.05-3.93v-6.11H519v-2.63h1.51v-3.13h3.23v3.13h2.83v2.63Z"/><path class="cls-7" d="M531.24,541.29A5.89,5.89,0,0,1,529,539a6.86,6.86,0,0,1-.84-3.43,6.74,6.74,0,0,1,.86-3.43,6,6,0,0,1,2.34-2.3,7.19,7.19,0,0,1,6.63,0,5.91,5.91,0,0,1,2.35,2.3,7.2,7.2,0,0,1,0,6.86,6.19,6.19,0,0,1-2.38,2.3,7,7,0,0,1-3.35.81A6.72,6.72,0,0,1,531.24,541.29Zm4.93-2.41a3.11,3.11,0,0,0,1.23-1.26,4.35,4.35,0,0,0,.45-2.06,3.78,3.78,0,0,0-1-2.78,3.1,3.1,0,0,0-2.32-1,3.05,3.05,0,0,0-2.3,1,3.9,3.9,0,0,0-.92,2.78,4,4,0,0,0,.9,2.78,3,3,0,0,0,2.28,1A3.23,3.23,0,0,0,536.17,538.88Z"/><path class="cls-7" d="M548.32,529.61a4.48,4.48,0,0,1,2.27-.57v3.36h-.85a2.67,2.67,0,0,0-3,3.18v6.31h-3.2V529.22h3.2v2A4.46,4.46,0,0,1,548.32,529.61Z"/><path class="cls-7" d="M436.48,550v16h-3.21V555.58L429,566h-2.43l-4.3-10.38V566h-3.2V550h3.64l5.08,11.87L432.86,550Z"/><path class="cls-7" d="M439.57,556.18a5.67,5.67,0,0,1,2.09-2.29,5.53,5.53,0,0,1,2.93-.8,5.2,5.2,0,0,1,2.49.57,5,5,0,0,1,1.7,1.44v-1.81H452V566h-3.22v-1.85a4.74,4.74,0,0,1-1.7,1.48,5.22,5.22,0,0,1-2.51.58,5.33,5.33,0,0,1-2.91-.82,5.89,5.89,0,0,1-2.09-2.32,7.49,7.49,0,0,1-.76-3.45A7.31,7.31,0,0,1,439.57,556.18Zm8.75,1.45a3.1,3.1,0,0,0-1.23-1.28,3.3,3.3,0,0,0-1.67-.45,3.22,3.22,0,0,0-2.87,1.71,4,4,0,0,0-.47,2,4.11,4.11,0,0,0,.47,2,3.34,3.34,0,0,0,1.23,1.32,3.2,3.2,0,0,0,1.64.46,3.3,3.3,0,0,0,1.67-.45,3.16,3.16,0,0,0,1.23-1.28,4.58,4.58,0,0,0,0-4Z"/><path class="cls-7" d="M460,553.67a5.16,5.16,0,0,1,2.48-.58,5.51,5.51,0,0,1,5,3.07,7.37,7.37,0,0,1,.77,3.42,7.49,7.49,0,0,1-.77,3.45,5.79,5.79,0,0,1-2.08,2.32,5.38,5.38,0,0,1-2.94.82,5.07,5.07,0,0,1-2.45-.57,5.23,5.23,0,0,1-1.73-1.44V572h-3.2V553.29h3.2v1.83A4.87,4.87,0,0,1,460,553.67Zm4.53,3.94a3.2,3.2,0,0,0-1.23-1.27,3.35,3.35,0,0,0-1.66-.44,3.19,3.19,0,0,0-1.64.45,3.26,3.26,0,0,0-1.23,1.29,4.45,4.45,0,0,0,0,4,3.33,3.33,0,0,0,1.23,1.29,3.19,3.19,0,0,0,1.64.45,3.27,3.27,0,0,0,1.66-.46,3.43,3.43,0,0,0,1.23-1.3,4.16,4.16,0,0,0,.47-2A4,4,0,0,0,464.57,557.61Z"/><polygon class="cls-7" points="380.62 521.43 361.02 533.61 380.62 545.26 399.69 533.61 380.62 521.43"/><polygon class="cls-7" points="380.36 547.52 361.02 536.79 361.02 548.97 380.36 559.71 399.69 548.97 399.69 536.79 380.36 547.52"/><polygon class="cls-7" points="380.36 562.36 361.02 551.62 361.02 563.8 380.36 574.54 399.69 563.8 399.69 551.62 380.36 562.36"/><ellipse class="cls-10" cx="629.32" cy="946" rx="114" ry="8"/><path class="cls-11" d="M567,796s-17.59,2.3-46.79,33.6-69.1,33.11-69.1,33.11,13.71,31.5,33.39,40.91,110.94-51.82,110.7-82.94S567,796,567,796Z"/><path class="cls-12" d="M450.19,874.07s23.15.46,52.88-15.72a233.81,233.81,0,0,0,50.44-37.51l14.86,21.37s-30.64,33-60.63,41.64-35,9.63-42.56,9.89S450.19,874.07,450.19,874.07Z"/><path class="cls-13" d="M546.05,847.49c0-23.88,22.1-46.68,22.1-46.68l12.53,10.94,11.79,11.75s-21.21,23.6-45,25.29A1.3,1.3,0,0,1,546.05,847.49Z"/><path class="cls-14" d="M568.53,780.78c-4.84-3.45-12.8-3.73-20.87-2.73a122.09,122.09,0,0,0-18.78,4.09,3.29,3.29,0,0,1-3.66-5c34-50.83,70-40.21,70-40.21l-9.11,15Z"/><path class="cls-15" d="M568.53,780.78c-4.84-3.45-12.8-3.73-20.87-2.73,12.8-11,28.65-20.61,38.41-26.12Z"/><path class="cls-14" d="M610.51,819.93c3.77,4.59,4.61,12.51,4.17,20.63a120.72,120.72,0,0,1-2.78,19,3.3,3.3,0,0,0,5.24,3.31c48.34-37.46,35.25-72.59,35.25-72.59l-14.32,10.14Z"/><path class="cls-15" d="M610.51,819.93c3.77,4.59,4.61,12.51,4.17,20.63,10.06-13.52,18.56-30,23.39-40.12Z"/><path class="cls-16" d="M610.69,820.1q-3.72,2-7.59,3.91a10.34,10.34,0,0,1-11.39-1.29c-3.06-2.65-7.3-6.4-12.13-10.9l-.31-.29c-5-4.64-9.12-8.71-12-11.64a10.34,10.34,0,0,1-2.07-11.27q1.65-4,3.37-7.84c24.64-54.94,61.87-86.48,94-104.45a207.84,207.84,0,0,1,53.53-21,7.77,7.77,0,0,1,6.77,1.58h0a7.75,7.75,0,0,1,2.73,7.27,207,207,0,0,1-16,52.13C694.23,750.21,665.24,790.92,610.69,820.1Z"/><path class="cls-17" d="M610.69,820.1q-3.72,2-7.59,3.91a10.34,10.34,0,0,1-11.39-1.29c-3.12-2.7-7.47-6.56-12.44-11.19s-9.12-8.71-12-11.64a10.34,10.34,0,0,1-2.07-11.27q1.65-4,3.37-7.84Z"/><path class="cls-18" d="M709.62,716.31c-14.71-18.61-36.78-33.56-47.06-40a207.84,207.84,0,0,1,53.53-21,7.81,7.81,0,0,1,9.5,8.86A207,207,0,0,1,709.62,716.31Z"/><path class="cls-19" d="M610.69,820.1q-3.72,2-7.59,3.91a10.34,10.34,0,0,1-11.39-1.29c-3.06-2.65-7.3-6.4-12.13-10.9,17.08-20.08,44.13-51.33,47.53-52,5-1,.87,25.21.87,25.21,71.62-59.89,90.66-112.88,94.88-128.1a7.75,7.75,0,0,1,2.73,7.27,207,207,0,0,1-16,52.13C694.23,750.21,665.24,790.92,610.69,820.1Z"/><circle class="cls-17" cx="657.16" cy="728.89" r="22.89"/><circle class="cls-20" cx="657.16" cy="728.89" r="13.97"/><path class="cls-21" d="M569.39,825.15a1,1,0,0,1-.85-.38c-2.48-3.87,19.23-35,34.26-50.24,9.18-9.31,16.84-13.08,21.4-14.6a3.71,3.71,0,0,1,4.74,2.54,3.56,3.56,0,0,1,0,1.72c-.11.53-.25,1.1-.43,1.71-1.29,4.43-4.47,10.92-11.06,19.9C606.21,801.17,575.29,825.33,569.39,825.15Z"/><path class="cls-22" d="M569.39,825.15c35.74-30.33,52.88-55.81,58.23-64.64a3.65,3.65,0,0,1,1.32,2,3.56,3.56,0,0,1,0,1.72c-.11.53-.25,1.1-.43,1.71-1.29,4.43-4.47,10.92-11.06,19.9C606.21,801.17,575.29,825.33,569.39,825.15Z"/></g></g></svg>