<svg xmlns="http://www.w3.org/2000/svg" xmlns:xlink="http://www.w3.org/1999/xlink" viewBox="0 0 1920.5 1440"><defs><style>.cls-1{fill:url(#linear-gradient);}.cls-2{opacity:0.1;}.cls-3{fill:url(#linear-gradient-2);}.cls-4{fill:url(#linear-gradient-3);}.cls-5{fill:url(#linear-gradient-4);}.cls-6{fill:url(#linear-gradient-5);}.cls-7{fill:url(#linear-gradient-6);}.cls-8{fill:url(#linear-gradient-7);}.cls-9{fill:url(#linear-gradient-8);}.cls-10{fill:url(#linear-gradient-9);}.cls-11{fill:url(#linear-gradient-10);}.cls-12{fill:url(#linear-gradient-11);}.cls-13{fill:url(#linear-gradient-12);}.cls-14{fill:url(#linear-gradient-13);}.cls-15{fill:url(#linear-gradient-14);}.cls-16{fill:url(#linear-gradient-15);}.cls-17{fill:url(#linear-gradient-16);}.cls-18{fill:url(#linear-gradient-17);}.cls-19{fill:url(#linear-gradient-18);}.cls-20{fill:url(#linear-gradient-19);}.cls-21{fill:url(#linear-gradient-20);}.cls-22{fill:url(#linear-gradient-21);}.cls-23{fill:url(#linear-gradient-22);}.cls-24{fill:url(#linear-gradient-23);}.cls-25{fill:url(#linear-gradient-24);}.cls-26{fill:url(#linear-gradient-25);}.cls-27{fill:url(#linear-gradient-26);}.cls-28{fill:url(#linear-gradient-27);}.cls-29{fill:url(#linear-gradient-28);}.cls-30{fill:url(#linear-gradient-29);}.cls-31{fill:url(#linear-gradient-30);}.cls-32{fill:url(#linear-gradient-31);}.cls-33{fill:url(#linear-gradient-32);}.cls-34{fill:url(#linear-gradient-33);}.cls-35{fill:url(#linear-gradient-34);}.cls-36{fill:url(#linear-gradient-35);}.cls-37{fill:url(#linear-gradient-36);}.cls-38{fill:url(#linear-gradient-37);}.cls-39{fill:url(#linear-gradient-38);}.cls-40{fill:url(#linear-gradient-39);}.cls-41{fill:url(#linear-gradient-40);}.cls-42{fill:url(#linear-gradient-41);}.cls-43{fill:url(#linear-gradient-42);}.cls-44{fill:url(#linear-gradient-43);}.cls-45{fill:url(#linear-gradient-44);}.cls-46{fill:url(#linear-gradient-45);}.cls-47{fill:url(#linear-gradient-46);}.cls-48{fill:url(#linear-gradient-47);}.cls-49{fill:url(#linear-gradient-48);}.cls-50{fill:url(#linear-gradient-49);}.cls-51{fill:url(#linear-gradient-50);}.cls-52{fill:url(#linear-gradient-51);}.cls-53{fill:url(#linear-gradient-52);}.cls-54{fill:url(#linear-gradient-53);}.cls-55{fill:url(#linear-gradient-54);}.cls-56{fill:url(#linear-gradient-55);}.cls-57{fill:url(#linear-gradient-56);}.cls-58{fill:url(#linear-gradient-57);}.cls-59{fill:url(#linear-gradient-58);}.cls-60{fill:url(#linear-gradient-59);}.cls-61{fill:url(#linear-gradient-60);}.cls-62{fill:url(#linear-gradient-61);}.cls-63{fill:url(#linear-gradient-62);}.cls-64{fill:url(#linear-gradient-63);}.cls-65{fill:url(#linear-gradient-64);}.cls-66{fill:url(#linear-gradient-65);}.cls-67{fill:url(#linear-gradient-66);}.cls-68{fill:url(#linear-gradient-67);}.cls-69{fill:url(#linear-gradient-68);}.cls-70{fill:url(#linear-gradient-69);}.cls-71{fill:url(#linear-gradient-70);}.cls-72{fill:url(#linear-gradient-71);}.cls-73{fill:url(#linear-gradient-72);}.cls-74{fill:url(#linear-gradient-73);}.cls-75{fill:url(#linear-gradient-74);}.cls-76{fill:url(#linear-gradient-75);}.cls-77{fill:url(#linear-gradient-76);}.cls-78{fill:url(#linear-gradient-77);}.cls-79{fill:url(#linear-gradient-78);}.cls-80{fill:url(#linear-gradient-79);}.cls-81{fill:url(#linear-gradient-80);}.cls-82{fill:url(#linear-gradient-81);}.cls-83{fill:url(#linear-gradient-82);}</style><linearGradient id="linear-gradient" x1="960" y1="1184.16" x2="960" y2="15.99" gradientUnits="userSpaceOnUse"><stop offset="0" stop-color="#2d70b4"/><stop offset="0.57" stop-color="#245897"/><stop offset="1" stop-color="#023769"/></linearGradient><linearGradient id="linear-gradient-2" x1="46.68" y1="327.86" x2="1956.85" y2="327.86" gradientUnits="userSpaceOnUse"><stop offset="0" stop-color="#fff" stop-opacity="0.1"/><stop offset="1" stop-color="#fff" stop-opacity="0.3"/></linearGradient><linearGradient id="linear-gradient-3" x1="46.85" y1="638.98" x2="1956.65" y2="638.98" xlink:href="#linear-gradient-2"/><linearGradient id="linear-gradient-4" x1="53.49" y1="331.1" x2="1956.5" y2="331.1" xlink:href="#linear-gradient-2"/><linearGradient id="linear-gradient-5" x1="47.62" y1="376" x2="1955.8" y2="376" xlink:href="#linear-gradient-2"/><linearGradient id="linear-gradient-6" x1="55.2" y1="638.8" x2="1955.7" y2="638.8" xlink:href="#linear-gradient-2"/><linearGradient id="linear-gradient-7" x1="58.3" y1="535.06" x2="1956.29" y2="535.06" xlink:href="#linear-gradient-2"/><linearGradient id="linear-gradient-8" x1="60.41" y1="294.3" x2="1956.49" y2="294.3" xlink:href="#linear-gradient-2"/><linearGradient id="linear-gradient-9" x1="61.22" y1="639.09" x2="1957.01" y2="639.09" xlink:href="#linear-gradient-2"/><linearGradient id="linear-gradient-10" x1="63.66" y1="204.66" x2="1957.06" y2="204.66" xlink:href="#linear-gradient-2"/><linearGradient id="linear-gradient-11" x1="52.7" y1="407.9" x2="1950.11" y2="407.9" xlink:href="#linear-gradient-2"/><linearGradient id="linear-gradient-12" x1="52.7" y1="757.38" x2="1950.11" y2="757.38" xlink:href="#linear-gradient-2"/><linearGradient id="linear-gradient-13" x1="102.25" y1="586.99" x2="1952.97" y2="586.99" xlink:href="#linear-gradient-2"/><linearGradient id="linear-gradient-14" x1="57.8" y1="1200.58" x2="1969.35" y2="1200.58" xlink:href="#linear-gradient-2"/><linearGradient id="linear-gradient-15" x1="57.9" y1="1257.79" x2="1969.23" y2="1257.79" xlink:href="#linear-gradient-2"/><linearGradient id="linear-gradient-16" x1="58.29" y1="1324.34" x2="1968.8" y2="1324.34" xlink:href="#linear-gradient-2"/><linearGradient id="linear-gradient-17" x1="46.41" y1="904.36" x2="1957.15" y2="904.36" xlink:href="#linear-gradient-2"/><linearGradient id="linear-gradient-18" x1="65.26" y1="1074.19" x2="1968.27" y2="1074.19" xlink:href="#linear-gradient-2"/><linearGradient id="linear-gradient-19" x1="55.2" y1="803.95" x2="1955.69" y2="803.95" xlink:href="#linear-gradient-2"/><linearGradient id="linear-gradient-20" x1="58.3" y1="890.56" x2="1956.29" y2="890.56" xlink:href="#linear-gradient-2"/><linearGradient id="linear-gradient-21" x1="72.18" y1="1097.08" x2="1968.26" y2="1097.08" xlink:href="#linear-gradient-2"/><linearGradient id="linear-gradient-22" x1="61.22" y1="803.66" x2="1957.01" y2="803.66" xlink:href="#linear-gradient-2"/><linearGradient id="linear-gradient-23" x1="75.43" y1="1182.44" x2="1968.83" y2="1182.44" xlink:href="#linear-gradient-2"/><linearGradient id="linear-gradient-24" x1="102.24" y1="856.82" x2="1952.96" y2="856.82" xlink:href="#linear-gradient-2"/><linearGradient id="linear-gradient-25" x1="46.02" y1="172.61" x2="1957.58" y2="172.61" xlink:href="#linear-gradient-2"/><linearGradient id="linear-gradient-26" x1="46.13" y1="129.31" x2="1957.46" y2="129.31" xlink:href="#linear-gradient-2"/><linearGradient id="linear-gradient-27" x1="46.51" y1="72.39" x2="1957.03" y2="72.39" xlink:href="#linear-gradient-2"/><linearGradient id="linear-gradient-28" x1="46.41" y1="482.74" x2="1957.15" y2="482.74" xlink:href="#linear-gradient-2"/><linearGradient id="linear-gradient-29" x1="46.62" y1="331.1" x2="1949.64" y2="331.1" xlink:href="#linear-gradient-2"/><linearGradient id="linear-gradient-30" x1="47.28" y1="638.8" x2="1947.77" y2="638.8" xlink:href="#linear-gradient-2"/><linearGradient id="linear-gradient-31" x1="46.55" y1="535.06" x2="1944.53" y2="535.06" xlink:href="#linear-gradient-2"/><linearGradient id="linear-gradient-32" x1="46.24" y1="294.3" x2="1942.32" y2="294.3" xlink:href="#linear-gradient-2"/><linearGradient id="linear-gradient-33" x1="45.7" y1="639.09" x2="1941.49" y2="639.09" xlink:href="#linear-gradient-2"/><linearGradient id="linear-gradient-34" x1="48.03" y1="702.28" x2="1955.33" y2="702.28" xlink:href="#linear-gradient-2"/><linearGradient id="linear-gradient-35" x1="45.51" y1="204.66" x2="1938.93" y2="204.66" xlink:href="#linear-gradient-2"/><linearGradient id="linear-gradient-36" x1="47.2" y1="586.99" x2="1897.89" y2="586.99" xlink:href="#linear-gradient-2"/><linearGradient id="linear-gradient-37" x1="58.45" y1="1059.24" x2="1968.62" y2="1059.24" xlink:href="#linear-gradient-2"/><linearGradient id="linear-gradient-38" x1="46.86" y1="803.77" x2="1956.65" y2="803.77" xlink:href="#linear-gradient-2"/><linearGradient id="linear-gradient-39" x1="58.4" y1="1074.19" x2="1961.41" y2="1074.19" xlink:href="#linear-gradient-2"/><linearGradient id="linear-gradient-40" x1="59.39" y1="1012.17" x2="1967.57" y2="1012.17" xlink:href="#linear-gradient-2"/><linearGradient id="linear-gradient-41" x1="47.29" y1="803.95" x2="1947.77" y2="803.95" xlink:href="#linear-gradient-2"/><linearGradient id="linear-gradient-42" x1="46.55" y1="890.56" x2="1944.53" y2="890.56" xlink:href="#linear-gradient-2"/><linearGradient id="linear-gradient-43" x1="58.01" y1="1097.08" x2="1954.1" y2="1097.08" xlink:href="#linear-gradient-2"/><linearGradient id="linear-gradient-44" x1="72.18" y1="990.07" x2="1968.26" y2="990.07" xlink:href="#linear-gradient-2"/><linearGradient id="linear-gradient-45" x1="58.01" y1="990.07" x2="1954.1" y2="990.07" xlink:href="#linear-gradient-2"/><linearGradient id="linear-gradient-46" x1="72.18" y1="721.46" x2="1968.26" y2="721.46" xlink:href="#linear-gradient-2"/><linearGradient id="linear-gradient-47" x1="58.01" y1="721.46" x2="1954.1" y2="721.46" xlink:href="#linear-gradient-2"/><linearGradient id="linear-gradient-48" x1="72.18" y1="432.53" x2="1968.26" y2="432.53" xlink:href="#linear-gradient-2"/><linearGradient id="linear-gradient-49" x1="58.01" y1="432.53" x2="1954.1" y2="432.53" xlink:href="#linear-gradient-2"/><linearGradient id="linear-gradient-50" x1="45.7" y1="803.66" x2="1941.49" y2="803.66" xlink:href="#linear-gradient-2"/><linearGradient id="linear-gradient-51" x1="57.29" y1="1182.44" x2="1950.7" y2="1182.44" xlink:href="#linear-gradient-2"/><linearGradient id="linear-gradient-52" x1="52.71" y1="969.57" x2="1950.09" y2="969.57" xlink:href="#linear-gradient-2"/><linearGradient id="linear-gradient-53" x1="47.2" y1="856.82" x2="1897.89" y2="856.82" xlink:href="#linear-gradient-2"/><linearGradient id="linear-gradient-54" x1="1725.55" y1="709.72" x2="1725.55" y2="840.07" gradientUnits="userSpaceOnUse"><stop offset="0" stop-color="#59a0e6"/><stop offset="0.99" stop-color="#2d70b4"/></linearGradient><linearGradient id="linear-gradient-55" x1="1785.55" y1="696.07" x2="1785.55" y2="824.19" xlink:href="#linear-gradient-54"/><linearGradient id="linear-gradient-56" x1="1842.55" y1="706.68" x2="1842.55" y2="824.92" xlink:href="#linear-gradient-54"/><linearGradient id="linear-gradient-57" x1="1780.67" y1="703.65" x2="1780.67" y2="964.41" xlink:href="#linear-gradient-54"/><linearGradient id="linear-gradient-58" x1="131.9" y1="822.37" x2="-190.96" y2="2052.43" gradientUnits="userSpaceOnUse"><stop offset="0" stop-color="#2d70b4"/><stop offset="1" stop-color="#204e8a"/></linearGradient><linearGradient id="linear-gradient-59" x1="960" y1="1259.95" x2="960" y2="830.17" xlink:href="#linear-gradient-58"/><linearGradient id="linear-gradient-60" x1="1817.06" y1="1059.54" x2="1988.72" y2="1252.81" xlink:href="#linear-gradient-58"/><linearGradient id="linear-gradient-61" x1="936.82" y1="1423.49" x2="709.45" y2="891.45" xlink:href="#linear-gradient-58"/><linearGradient id="linear-gradient-62" x1="46.62" y1="1018.53" x2="469.52" y2="334.15" xlink:href="#linear-gradient-58"/><linearGradient id="linear-gradient-63" x1="437.46" y1="1431.26" x2="19.11" y2="1031.09" xlink:href="#linear-gradient-58"/><linearGradient id="linear-gradient-64" x1="1543.5" y1="1457.82" x2="1543.5" y2="1285.03" gradientUnits="userSpaceOnUse"><stop offset="0" stop-color="#2742a9"/><stop offset="1" stop-color="#023769"/></linearGradient><linearGradient id="linear-gradient-65" x1="1827.55" y1="1520.28" x2="1827.55" y2="1151.95" xlink:href="#linear-gradient-64"/><linearGradient id="linear-gradient-66" x1="1722.55" y1="1503.23" x2="1722.55" y2="1072.37" xlink:href="#linear-gradient-64"/><linearGradient id="linear-gradient-67" x1="1284.28" y1="943.6" x2="1151.27" y2="1614.34" xlink:href="#linear-gradient-64"/><linearGradient id="linear-gradient-68" x1="1610.05" y1="1598.73" x2="1610.05" y2="1177.6" xlink:href="#linear-gradient-64"/><linearGradient id="linear-gradient-69" x1="129.2" y1="1473.67" x2="129.2" y2="1105.34" xlink:href="#linear-gradient-64"/><linearGradient id="linear-gradient-70" x1="217.64" y1="1473.67" x2="217.64" y2="1105.34" xlink:href="#linear-gradient-64"/><linearGradient id="linear-gradient-71" x1="960" y1="1619.19" x2="960" y2="1377.79" xlink:href="#linear-gradient-64"/><linearGradient id="linear-gradient-72" x1="1812.53" y1="570.9" x2="1812.53" y2="502.66" xlink:href="#linear-gradient-54"/><linearGradient id="linear-gradient-73" x1="1900.05" y1="659.87" x2="1900.05" y2="636.19" xlink:href="#linear-gradient-54"/><linearGradient id="linear-gradient-74" x1="90.58" y1="409.9" x2="90.58" y2="394.45" xlink:href="#linear-gradient-54"/><linearGradient id="linear-gradient-75" x1="1684.05" y1="553.87" x2="1684.05" y2="530.19" xlink:href="#linear-gradient-54"/><linearGradient id="linear-gradient-76" x1="1542.55" y1="683.91" x2="1542.55" y2="621.91" xlink:href="#linear-gradient-54"/><linearGradient id="linear-gradient-77" x1="1684.5" y1="441.66" x2="1684.5" y2="401.21" xlink:href="#linear-gradient-54"/><linearGradient id="linear-gradient-78" x1="380.05" y1="553.87" x2="380.05" y2="530.19" xlink:href="#linear-gradient-54"/><linearGradient id="linear-gradient-79" x1="109.02" y1="620.86" x2="109.02" y2="586.51" xlink:href="#linear-gradient-54"/><linearGradient id="linear-gradient-80" x1="236.5" y1="521.66" x2="236.5" y2="481.21" xlink:href="#linear-gradient-54"/><linearGradient id="linear-gradient-81" x1="699.87" y1="544.49" x2="699.87" y2="848.11" xlink:href="#linear-gradient-58"/><linearGradient id="linear-gradient-82" x1="1253.34" y1="693.04" x2="1253.34" y2="852.78" xlink:href="#linear-gradient-58"/></defs><g id="Layer_2" data-name="Layer 2"><g id="Layer_2-2" data-name="Layer 2"><rect class="cls-1" width="1920" height="1440"/><g class="cls-2"><path class="cls-3" d="M1445.76,371.7a9.39,9.39,0,0,1-8.45-4.69c-2.27-4.16-5.37-4.5-8.9-4.5h-.23q-17.23.06-34.46,0c-15.46,0-31.45,0-47.17.09h-.13a12,12,0,0,1-9.4-3.85c-11.17-11.28-22.59-22.69-33.63-33.73-10.86-10.86-22.09-22.09-33.08-33.19a13.43,13.43,0,0,0-10.51-4.29c-49.71.05-101.24.07-153.18.07q-73.39,0-146.79-.06h-.25l-.21.11a3.63,3.63,0,0,1-1.52.25,20.6,20.6,0,0,1-2.28-.19c-.63-.07-1.25-.15-1.8-.17H941.89c-.6,0-1.22.1-1.85.17a20.6,20.6,0,0,1-2.28.19,3.6,3.6,0,0,1-1.52-.25l-.21-.11h-.25q-73.39.06-146.79.06c-51.94,0-103.47,0-153.16-.07a13.61,13.61,0,0,0-10.53,4.29c-11,11.11-22.23,22.34-33.09,33.2-11,11-22.45,22.44-33.62,33.72a12,12,0,0,1-9.4,3.85h-.13c-15.72-.09-31.71-.09-47.17-.09q-17.22,0-34.46,0h-.23c-3.53,0-6.63.34-8.9,4.5a9.39,9.39,0,0,1-8.45,4.69,11.35,11.35,0,0,1-3.48-.54,10.73,10.73,0,0,1-7.51-10.39,10.38,10.38,0,0,1,7.21-10.14,10.63,10.63,0,0,1,3.81-.71,9.59,9.59,0,0,1,8.54,4.91c2.27,4.07,5.3,4.4,8.47,4.4H467q19.88-.06,39.75-.07c14.68,0,28,0,40.75.11h.11a12.9,12.9,0,0,0,9.91-4.26c10.17-10.25,20.55-20.62,30.59-30.66,11.86-11.86,24.13-24.12,36.13-36.24a12.06,12.06,0,0,1,9.46-3.87c33.71.07,66.9.08,94.92.08h113.1c29.66,0,61.57,0,94,.06H936l.22-.11a3.4,3.4,0,0,1,1.44-.24,20.46,20.46,0,0,1,2.26.19c.55.07,1.08.13,1.56.17H954.1c.55,0,1.08-.1,1.63-.17A20.06,20.06,0,0,1,958,284a3.44,3.44,0,0,1,1.44.24l.22.11h.25c32.4-.05,64.31-.06,94-.06H1167c28,0,61.21,0,94.87-.08a12.1,12.1,0,0,1,9.51,3.87c12,12.11,24.25,24.36,36.1,36.21,10,10,20.44,20.43,30.62,30.69a12.9,12.9,0,0,0,9.91,4.26h.11c12.74-.08,26.07-.11,40.75-.11q19.88,0,39.75.07h.13c3.17,0,6.2-.33,8.47-4.4a9.59,9.59,0,0,1,8.54-4.91,10.63,10.63,0,0,1,3.81.71,10.38,10.38,0,0,1,7.21,10.14,10.73,10.73,0,0,1-7.51,10.39A11.4,11.4,0,0,1,1445.76,371.7Z"/><path class="cls-4" d="M1402.34,663.84a10.12,10.12,0,0,1-8.77-5.28c-1.87-3.1-4.13-3.72-7.16-3.72h-5.36l-10.11,0q-5.06,0-10.12,0c-4.83,0-8.82,0-12.56.09H1348a11.29,11.29,0,0,1-8.77-3.76c-4.07-4.17-8.26-8.34-12.32-12.37-5.17-5.13-10.51-10.45-15.63-15.79a15.79,15.79,0,0,0-12.4-5.29c-62,.09-123.28.11-196.23.11H985.1l-25.81,0h-.13l-.12,0a5.34,5.34,0,0,1-1.17.11c-.54,0-1.12,0-1.69-.1l-.68-.05-7.69,0-7.63,0-.75.05c-.57,0-1.15.1-1.7.1a5.3,5.3,0,0,1-1.16-.11l-.12,0h-.13l-25.81,0H793c-73,0-134.23,0-196.19-.11A15.82,15.82,0,0,0,584.35,623c-5.12,5.34-10.46,10.65-15.63,15.79-4.06,4-8.25,8.2-12.32,12.37a11.29,11.29,0,0,1-8.77,3.76h-.28c-3.74-.06-7.73-.09-12.56-.09q-5.07,0-10.12,0l-10.11,0H509.2c-3,0-5.29.62-7.16,3.72a10.12,10.12,0,0,1-8.78,5.28,11.65,11.65,0,0,1-3.44-.55,10.75,10.75,0,0,1,.34-20.73,11.24,11.24,0,0,1,3.09-.46c3.63,0,6.81,2,9,5.61a6.76,6.76,0,0,0,6.61,3.65H509c7.72-.07,14.6-.1,21-.1,5.78,0,11.14,0,16.39.08h.17a11,11,0,0,0,8.46-3.61c4.18-4.28,8.49-8.58,12.66-12.74,5.3-5.29,10.78-10.76,16.06-16.26a13.68,13.68,0,0,1,10.87-4.61c37.37.11,74.35.12,105.6.12H789.9q73.27,0,146.55,0h.11l.11,0a6,6,0,0,1,1.23-.1c.51,0,1,0,1.55.07l1.11.06H955l1.15-.06c.51,0,1-.07,1.55-.07a6,6,0,0,1,1.23.1l.11,0h.11q73.27,0,146.55,0h89.67c31.25,0,68.23,0,105.54-.12a13.72,13.72,0,0,1,10.93,4.61c5.28,5.51,10.77,11,16.08,16.28,4.16,4.15,8.46,8.44,12.64,12.72a11,11,0,0,0,8.46,3.61h.17c5.25-.06,10.61-.08,16.39-.08,6.43,0,13.31,0,21,.1h.15a6.77,6.77,0,0,0,6.61-3.65c2.17-3.62,5.35-5.61,9-5.61a11.24,11.24,0,0,1,3.09.46,10.75,10.75,0,0,1,.34,20.73,11.65,11.65,0,0,1-3.44.55Zm.35-19.46a8.63,8.63,0,0,0-8.49,8.3,8.54,8.54,0,0,0,8.2,8.84h.31a8.6,8.6,0,0,0,8.49-8.26,8.7,8.7,0,0,0-8.21-8.88Zm-910.07,0a8.7,8.7,0,0,0-8.21,8.88,8.6,8.6,0,0,0,8.49,8.26h.31a8.54,8.54,0,0,0,8.2-8.84,8.63,8.63,0,0,0-8.49-8.3Z"/><path class="cls-5" d="M1706.89,356a9.49,9.49,0,0,1-8.47-4.86c-2.23-4-5.19-4.37-8.55-4.37h-53.25c-18.1,0-37.59,0-57.49.18h-.23a16.3,16.3,0,0,1-13.06-5.62c-5.08-5.4-10.44-10.71-15.62-15.84-3.93-3.9-8-7.93-11.92-12a12.15,12.15,0,0,0-9.55-3.89c-36.68.06-73,.07-103.77.07h-64.5c-1.68,0-3.35,0-5,0-2,0-2-1.12-2.06-1.49a1.59,1.59,0,0,1,.32-1.2,2.67,2.67,0,0,1,1.9-.56c1.86,0,3.72,0,5.58,0h125.58c17.72,0,31.22,0,43.78-.1h.12a11.23,11.23,0,0,1,8.92,3.65c5.49,5.68,11.18,11.35,16.68,16.83,4.36,4.35,8.88,8.84,13.26,13.31a10.4,10.4,0,0,0,8.08,3.36q29.51-.07,58.92-.07,27,0,54,.05c3.43,0,5.76-.66,7.64-4.05a9.82,9.82,0,0,1,8.79-5.17,11.14,11.14,0,0,1,3.46.56,10.77,10.77,0,0,1,7.53,10.37c-.12,4.94-2.54,8.35-7.2,10.13A10.6,10.6,0,0,1,1706.89,356Zm.29-19.47a8.71,8.71,0,0,0-8.47,7.66,8.23,8.23,0,0,0,1.81,6.2,8.35,8.35,0,0,0,5.77,3.1,8.44,8.44,0,0,0,.87,0,8.3,8.3,0,0,0,8.45-7.55,8.54,8.54,0,0,0-7.53-9.4A6.79,6.79,0,0,0,1707.18,336.48Z"/><path class="cls-6" d="M1277.15,400.9a9.83,9.83,0,0,1-8.6-5c-2.08-3.55-4.62-4.26-8-4.26q-24,.06-47.88.07c-21.35,0-43.43,0-65.14.13a12.45,12.45,0,0,1-9.94-4.2c-4.88-5.07-10-10.11-14.86-15-4.57-4.56-9.31-9.28-13.88-14a12.76,12.76,0,0,0-10-4.1c-24.71.05-50.27.08-78.16.08h-.15q-30.36,0-60.73,0h-.18l-.17.06a3.8,3.8,0,0,1-1.25.17c-.57,0-1.2-.07-1.81-.13-.41,0-.82-.08-1.2-.1H940.54c-.44,0-.85.06-1.27.1-.6.06-1.23.13-1.8.13a3.8,3.8,0,0,1-1.25-.17l-.17-.06h-.18q-30.37,0-60.73,0c-28,0-53.55,0-78.26-.08a12.8,12.8,0,0,0-10.07,4.1c-4.57,4.71-9.31,9.43-13.89,14-4.9,4.87-10,9.92-14.85,15a12.39,12.39,0,0,1-9.83,4.2c-21.82-.1-43.9-.12-65.25-.13q-23.91,0-47.81-.07h0c-3.5,0-6,.71-8.12,4.26a9.83,9.83,0,0,1-8.6,5,10.7,10.7,0,0,1-3.71-.67,10.41,10.41,0,0,1-7.36-10,11.07,11.07,0,0,1,7.42-10.49,10.1,10.1,0,0,1,3.37-.56,10.25,10.25,0,0,1,8.94,5.09c2,3.44,4.48,4.14,7.57,4.14q32.34-.06,64.58-.07,24.19,0,48.41.05a11.05,11.05,0,0,0,8.53-3.71c4.61-4.71,9.36-9.44,13.95-14,5.27-5.26,10.72-10.7,16-16.13a10.07,10.07,0,0,1,8-3.28c15.37.08,30.36.09,41.72.09l72,0h28.25l.16,0a3.77,3.77,0,0,1,1.17-.14c.56,0,1.17.06,1.76.11l.85.08,7.77,0,7.7,0c.35,0,.64-.05.93-.08.59-.05,1.2-.11,1.76-.11a3.77,3.77,0,0,1,1.17.14l.16,0h28.25l72,0c11.36,0,26.36,0,41.63-.09a10.1,10.1,0,0,1,8,3.28c5.29,5.43,10.74,10.87,16,16.12,4.59,4.58,9.34,9.32,14,14a11,11,0,0,0,8.49,3.71q24.27-.06,48.45-.05,32.27,0,64.54.07c3.13,0,5.61-.7,7.61-4.14a10.25,10.25,0,0,1,8.94-5.09,10.1,10.1,0,0,1,3.37.56,11.07,11.07,0,0,1,7.42,10.49,10.41,10.41,0,0,1-7.36,10A10.7,10.7,0,0,1,1277.15,400.9Zm.19-19.51A8.44,8.44,0,0,0,1269,390a8.21,8.21,0,0,0,8.47,8.41,8.46,8.46,0,0,0,6.09-2.54,8.3,8.3,0,0,0,2.41-6,8.71,8.71,0,0,0-8.49-8.51h-.11Zm-659.18,0a8.71,8.71,0,0,0-8.49,8.51,8.3,8.3,0,0,0,2.41,6,8.45,8.45,0,0,0,6.07,2.54,8.21,8.21,0,0,0,8.49-8.41,8.44,8.44,0,0,0-8.37-8.63Z"/><path class="cls-7" d="M1638.92,663.74a9.24,9.24,0,0,1-8-4.2c-3-4.63-6.47-5-10.39-5h-.16q-26.12.08-52.23.07c-19.35,0-39.36,0-59,.08a12,12,0,0,1-9.54-3.9c-4.94-5.12-10.07-10.22-15-15.16-4.66-4.64-9.47-9.43-14.11-14.22a12.77,12.77,0,0,0-10-4.11c-16,.07-32.28.1-49.92.1-16.07,0-33.06,0-51.93-.08h0a16.05,16.05,0,0,0-1.79.13c-.61.06-1.24.13-1.81.13-1.56,0-2-.43-2-1.83a2,2,0,0,1,.39-1.41,2.62,2.62,0,0,1,1.85-.47c.54,0,1.12,0,1.69.1s1.14.09,1.64.09c7.75,0,16-.06,26.73-.06h25.87l13.63,0q7.08,0,14.17,0c9.06,0,16.4,0,23.1-.15h.29a12.21,12.21,0,0,1,9.64,4.21c4.87,5,9.93,10.08,14.82,14.94,4.47,4.44,9.09,9,13.55,13.63a13.35,13.35,0,0,0,10.41,4.49c17.42-.08,35.76-.11,56.16-.11q27.32,0,54.63.07h0c3.5,0,6.53-.35,9-4.6a9.35,9.35,0,0,1,8.27-4.63,11.25,11.25,0,0,1,7.21,2.66,10.89,10.89,0,0,1,3.88,7.79,10.6,10.6,0,0,1-3.06,8,11.33,11.33,0,0,1-8,3.36Z"/><path class="cls-8" d="M1589.19,559.93h-.74c-3.85-.12-8-.18-13.14-.18-3,0-5.93,0-8.89,0s-5.92,0-8.88,0h-17.62q-9.29,0-18.58,0h0l-.91,0h-.85a2.91,2.91,0,0,1-1.91-.43,1.78,1.78,0,0,1-.35-1.25c0-1.33.43-1.8,2.84-1.8h1.13l11.75,0,24.51,0c11.88,0,21.68,0,30.84.08h.13a12.1,12.1,0,0,0,9.44-4c4.48-4.59,9.11-9.2,13.58-13.65,5.14-5.11,10.45-10.4,15.57-15.71a11.82,11.82,0,0,1,9.41-3.82c19.72.09,39.67.09,59,.09q22.29,0,44.57.05c3.73,0,6.43-.74,8.59-4.43a9.45,9.45,0,0,1,8.4-4.72,11.29,11.29,0,0,1,3.53.57,10.83,10.83,0,0,1-.13,20.65,12.23,12.23,0,0,1-3.36.48,9.65,9.65,0,0,1-8.85-5.23c-2-3.75-4.71-4.07-7.57-4.07q-25.52,0-50.89,0c-19,0-36,0-52-.08a11.63,11.63,0,0,0-9.09,3.78c-4,4.13-8.2,8.27-12.23,12.27-5.46,5.42-11.11,11-16.51,16.71A13.62,13.62,0,0,1,1589.19,559.93Z"/><path class="cls-9" d="M1798.18,305.19a9.52,9.52,0,0,1-8.52-4.93c-2.19-4.05-5.17-4.37-8.55-4.37q-41.74,0-83.39,0c-38.26,0-73,0-106.19-.09a16.93,16.93,0,0,0-2.15.19,19.92,19.92,0,0,1-2.24.19,2.37,2.37,0,0,1-1.71-.46,2.13,2.13,0,0,1-.4-1.59c0-1.25.42-1.93,2.37-1.93a19.65,19.65,0,0,1,2.24.18,19.1,19.1,0,0,0,2.16.17c19.29-.07,38.5-.08,53.08-.08h82.89c15.71,0,34.3,0,53,.06h.14c3.52,0,6.62-.34,9-4.55a9.24,9.24,0,0,1,8.27-4.61,11.47,11.47,0,0,1,3.66.61,10.67,10.67,0,0,1,7.41,10.45c-.12,4.91-2.56,8.28-7.29,10a10.76,10.76,0,0,1-3.79.69Z"/><path class="cls-10" d="M1854.42,664a9.34,9.34,0,0,1-8.35-4.8c-2.2-3.89-5.07-4.21-8.07-4.21-13.36,0-26.64,0-39.92,0-18.62,0-37.87,0-56.81.09-4.35,0-7.23-1.18-10-4.08-5.47-5.65-11.14-11.29-16.62-16.74-4.26-4.23-8.66-8.61-12.94-13a11.08,11.08,0,0,0-8.46-3.59h-.16c-5.25,0-10.91.08-17.82.08l-12.75,0-10.76,0H1650c-.71,0-1.42,0-2.13,0-2.24-.11-2.67-.57-2.74-1.5a1.64,1.64,0,0,1,.34-1.29,3.3,3.3,0,0,1,2.34-.66c3.9,0,7.8,0,11.7,0H1674v0l5.38,0,6.45,0c3.69,0,6.7,0,9.47-.1h.3a8.89,8.89,0,0,1,6.79,3c5.34,5.42,10.82,10.89,16.12,16.18,4.94,4.93,10,10,15,15.08a9.82,9.82,0,0,0,7.56,3.2c16.09,0,32.81-.08,49.73-.08q23.48,0,47,.06h0c3.09,0,6-.32,8.1-4.27a9.43,9.43,0,0,1,8.55-5.05,12,12,0,0,1,3.67.59,10.76,10.76,0,0,1-.22,20.58,11.65,11.65,0,0,1-3.48.55Zm.41-19.4a8.49,8.49,0,0,0-6,14.57,8.51,8.51,0,0,0,12-12.12,8.34,8.34,0,0,0-6-2.45Z"/><path class="cls-11" d="M1756.54,230c-4.25-.07-8.89-.1-14.62-.1l-9.19,0h-26.49c-5.22,0-10.44,0-15.67,0h0c-.44,0-.86,0-1.28,0s-.81.05-1.21.05c-1.64,0-2.12-.38-2.16-1.69a1.86,1.86,0,0,1,.34-1.35,2.53,2.53,0,0,1,1.78-.42c.39,0,.78,0,1.17,0s.8,0,1.16,0h2.68q15.14,0,30.27-.05c11.52,0,21.59,0,30.78.09h.13a11.51,11.51,0,0,0,9-3.71c5.11-5.24,10.38-10.5,15.48-15.59,4.76-4.74,9.68-9.65,14.46-14.54a9.46,9.46,0,0,1,7.41-3.16h.13c8.3.07,16.72.09,23.86.09h13.93l14.76,0h.25c2.94,0,5.51-.32,7.18-4.23a9.73,9.73,0,0,1,9.11-6.15,11.92,11.92,0,0,1,3,.42c4.86,1.34,7.57,4.5,8.06,9.38a10.43,10.43,0,0,1-6.5,11,11.43,11.43,0,0,1-4.46,1,10.3,10.3,0,0,1-8.52-4.78c-1.92-2.77-4.11-3.34-6.82-3.34-8.85,0-17.62.06-26.4.06-9.36,0-17.75,0-25.65-.09h-.11a10.28,10.28,0,0,0-8,3.43c-4.71,4.78-9.55,9.61-14.24,14.27-5.31,5.29-10.81,10.76-16.14,16.22a9.33,9.33,0,0,1-7.31,3.1Zm113.64-48.23a8.52,8.52,0,0,0-6,14.48,8.51,8.51,0,0,0,6,2.51,8.5,8.5,0,0,0,.1-17Z"/><path class="cls-12" d="M1057.85,418.76a9.67,9.67,0,0,1-8.45-4.82c-2.13-3.66-4.71-4.38-8.44-4.38-15.63,0-32.15.06-53.68.06H908.33c-21.53,0-38.06,0-53.59-.06h0c-3.82,0-6.4.72-8.53,4.38a9.53,9.53,0,0,1-8.45,4.82,10.94,10.94,0,0,1-3.92-.74,10.35,10.35,0,0,1-7.14-10.14,10.84,10.84,0,0,1,7.51-10.33,11.62,11.62,0,0,1,3.44-.52,9.81,9.81,0,0,1,8.83,5.12c2.07,3.83,4.79,4.14,7.87,4.14h.26q12.06-.06,24.12-.05h138.15q12.06,0,24.12.05h.26c3.08,0,5.8-.31,7.86-4.14A9.84,9.84,0,0,1,1058,397a11.62,11.62,0,0,1,3.44.52,10.84,10.84,0,0,1,7.51,10.33,10.35,10.35,0,0,1-7.14,10.14,10.94,10.94,0,0,1-3.92.74Z"/><path class="cls-13" d="M1057.85,768.25a9.67,9.67,0,0,1-8.45-4.82c-2.13-3.67-4.71-4.38-8.44-4.38-15.63,0-32.15.06-53.68.06H908.33c-21.53,0-38.06,0-53.59-.06h0c-3.82,0-6.4.71-8.53,4.38a9.55,9.55,0,0,1-8.45,4.82,10.94,10.94,0,0,1-3.92-.74,10.35,10.35,0,0,1-7.14-10.14A10.84,10.84,0,0,1,834.21,747a12,12,0,0,1,3.44-.51,9.8,9.8,0,0,1,8.83,5.11c2.07,3.83,4.79,4.14,7.87,4.14h.26q12.06-.06,24.12,0l34.67,0h103.48q12.06,0,24.12,0h.26c3.08,0,5.8-.31,7.86-4.14a9.83,9.83,0,0,1,8.84-5.11,12,12,0,0,1,3.44.51,10.84,10.84,0,0,1,7.51,10.34,10.35,10.35,0,0,1-7.14,10.14,10.94,10.94,0,0,1-3.92.74Z"/><path class="cls-14" d="M1798.21,598a9.08,9.08,0,0,1-8-4.33c-2.78-4.61-6.21-5-9.79-5h-.76c-3.24.05-6.47.07-9.71.07-4.22,0-8.44,0-12.66-.06l-6.6,0h-1.47c-1.89,0-2.23-.41-2.3-1.39a1.78,1.78,0,0,1,.31-1.38c.56-.6,2.09-.61,3.32-.61h16.21l6.91,0,4.22,0,1.52,0c4.23,0,8.3-.43,11.58-5.62a8,8,0,0,1,7-3.66,11.73,11.73,0,0,1,8.38,3.69,10.77,10.77,0,0,1-.71,15.42A11.39,11.39,0,0,1,1798.21,598Z"/><path class="cls-15" d="M1720.73,1244.14a10.91,10.91,0,0,1-5.72-1.67,10.16,10.16,0,0,1-4.54-12.28c1.49-4.11-.15-6.21-2.28-8.33-22.75-22.63-41.21-41.1-58.11-58.11a10.5,10.5,0,0,0-8.1-3.36q-68,0-136,0-67,0-134-.06a11,11,0,0,0-8.53,3.71c-4,4.05-8.07,8.12-12,12.05-5.53,5.5-11.25,11.18-16.73,16.92a14.23,14.23,0,0,1-11.33,4.79c-38.65-.11-77.36-.12-110.13-.12H706c-32.77,0-71.47,0-110.06.12a14.24,14.24,0,0,1-11.39-4.79c-5.49-5.74-11.21-11.43-16.75-16.93-4-3.93-8-8-12-12a11,11,0,0,0-8.51-3.71q-67,.06-134,.06-68,0-136,0a10.52,10.52,0,0,0-8.11,3.36c-16.84,17-35.31,35.43-58.1,58.11-2.14,2.12-3.78,4.22-2.28,8.33a10.18,10.18,0,0,1-4.55,12.28,10.91,10.91,0,0,1-5.71,1.67,10.66,10.66,0,0,1-7-2.71,10.88,10.88,0,0,1-2.83-12.51,10.26,10.26,0,0,1,9.55-6.35,11.85,11.85,0,0,1,2.55.28,7.82,7.82,0,0,0,1.69.19c2.66,0,4.21-1.56,5.72-3.07l.21-.22,16.08-16c14-14,28.58-28.54,42.8-42.89a11.53,11.53,0,0,1,9-3.81c44.71.06,91.31.09,138.54.09q66.87,0,133.75-.07a10.78,10.78,0,0,1,8.57,3.43c4.83,5,9.83,10,14.65,14.76s10,9.94,14.89,15a12.8,12.8,0,0,0,10,4.14c88.1-.09,177.65-.09,264.26-.09h89.85l1.14,0h106.53c86.6,0,176.15,0,264.23.09a12.82,12.82,0,0,0,10.06-4.14c4.91-5,10-10.1,14.89-15s9.82-9.79,14.65-14.76a10.77,10.77,0,0,1,8.56-3.43q66.9.06,133.76.07c47.24,0,93.84,0,138.51-.09a11.55,11.55,0,0,1,9,3.81c14.16,14.3,28.64,28.75,42.65,42.73l16.23,16.2.21.22c1.51,1.51,3.06,3.07,5.73,3.07a7.89,7.89,0,0,0,1.69-.19,11.72,11.72,0,0,1,2.55-.28,10.25,10.25,0,0,1,9.54,6.35,10.88,10.88,0,0,1-2.83,12.51,10.63,10.63,0,0,1-7,2.71Z"/><path class="cls-16" d="M1668.08,1283a10.55,10.55,0,0,1-5.53-1.53c-4.46-2.74-6.11-7.55-4.43-12.86,1-3.24.06-5-1.84-6.89-7.17-7-14.58-14.28-21.68-21.74a12.68,12.68,0,0,0-10-4.17q-53.19.06-106.32.06c-41.73,0-85.53,0-130.17-.08a11,11,0,0,0-8.59,3.6c-4.31,4.42-8.76,8.86-13.06,13.15-5.42,5.42-11,11-16.45,16.64a12.52,12.52,0,0,1-10,4.16c-41.31-.08-82.17-.09-116.7-.09H695.81c-34.52,0-75.39,0-116.66.09a12.56,12.56,0,0,1-10-4.16c-5.41-5.62-11-11.22-16.45-16.64-4.3-4.29-8.74-8.73-13.06-13.15a11,11,0,0,0-8.56-3.6c-44.67.05-88.47.08-130.2.08q-53.14,0-106.29-.06a12.66,12.66,0,0,0-10,4.17c-7.12,7.47-14.53,14.72-21.69,21.74-1.89,1.85-2.86,3.65-1.84,6.89,1.69,5.31,0,10.12-4.42,12.86a10.61,10.61,0,0,1-5.54,1.53,11,11,0,0,1-7.24-2.69,10.86,10.86,0,0,1-2.7-12.53,10.08,10.08,0,0,1,9.5-6.26,13.32,13.32,0,0,1,2.69.29,8.88,8.88,0,0,0,1.84.21c2.27,0,3.74-1,5.37-2.68,3.34-3.38,6.71-6.73,10.08-10.09,4.48-4.46,9.11-9.08,13.6-13.68a8.94,8.94,0,0,1,7-3q55.66,0,111.29,0c43.72,0,87.91,0,131.34-.07a8.52,8.52,0,0,1,6.51,3q5.94,6,11.91,11.91c6.08,6.06,12.37,12.33,18.48,18.56a11.68,11.68,0,0,0,9,3.85c93-.09,187.58-.1,279-.1h23.6l67.44,0h19.39l67.46,0h23.6c91.45,0,186,0,279,.1a11.67,11.67,0,0,0,9.06-3.85c6.12-6.23,12.41-12.51,18.5-18.57q6-5.94,11.89-11.9a8.52,8.52,0,0,1,6.5-3c43.45,0,87.63.07,131.35.07q55.63,0,111.28,0a8.94,8.94,0,0,1,7,3c4.5,4.6,9.13,9.22,13.6,13.68q5.06,5,10.08,10.09c1.63,1.65,3.1,2.68,5.37,2.68a9,9,0,0,0,1.85-.21,13.25,13.25,0,0,1,2.69-.29,10.1,10.1,0,0,1,9.5,6.26,10.87,10.87,0,0,1-2.71,12.53A11,11,0,0,1,1668.08,1283Z"/><path class="cls-17" d="M1354.61,1349c-42.14-.09-83.42-.1-118.25-.1H682.79c-34.83,0-76.11,0-118.25.1-5,0-8.36-1.34-11.49-4.63-5.39-5.67-11-11.27-16.48-16.69-4-4-8.22-8.16-12.26-12.3a12.15,12.15,0,0,0-9.45-4c-13.44.07-27.07.1-41.77.1-13.37,0-27.35,0-42.74-.09h-.12c-3.81,0-6.39.77-8.26,4.68a9.71,9.71,0,0,1-9,5.34,11.18,11.18,0,0,1-2.65-.32,10.87,10.87,0,0,1-8.24-9.86,10.59,10.59,0,0,1,6.85-10.75,14.25,14.25,0,0,1,4.43-.77,9,9,0,0,1,7.81,4.22c2.37,3.53,5,4.24,8.59,4.24,11.74,0,23.37-.05,35-.05,16.42,0,33.39,0,50.09-.13h.21c4.88,0,8.14,1.34,11.24,4.61,5.25,5.54,10.76,11,16.08,16.29,4.05,4,8.23,8.16,12.26,12.31a12.87,12.87,0,0,0,10,4.24c71.34-.08,142.09-.09,208.45-.09H1146c66.36,0,137.11,0,208.43.09a12.87,12.87,0,0,0,10-4.24c4-4.15,8.22-8.3,12.26-12.31,5.32-5.28,10.83-10.75,16.08-16.29,3.11-3.27,6.36-4.61,11.24-4.61h.21c16.7.13,33.67.13,50.09.13q17.45,0,34.9.05h0c3.65,0,6.32-.71,8.69-4.24a9,9,0,0,1,7.82-4.22,14.19,14.19,0,0,1,4.42.77,10.59,10.59,0,0,1,6.85,10.75,10.86,10.86,0,0,1-8.24,9.86,11.18,11.18,0,0,1-2.65.32,9.7,9.7,0,0,1-8.94-5.34c-1.88-3.91-4.45-4.68-8.27-4.68h-.12c-15.39.06-29.37.09-42.74.09-14.7,0-28.33,0-41.67-.1h0a12.23,12.23,0,0,0-9.55,4c-4,4.14-8.22,8.29-12.26,12.31-5.45,5.41-11.09,11-16.48,16.68-3.13,3.29-6.44,4.63-11.42,4.63Zm151.63-46.91a8.55,8.55,0,0,0-6,2.47,8.41,8.41,0,0,0-2.42,6,8.54,8.54,0,0,0,8.47,8.52,8.82,8.82,0,0,0,8.56-8.61,8.4,8.4,0,0,0-8.53-8.4h0Zm-1093.38,0a8.39,8.39,0,0,0-8.52,8.4,8.79,8.79,0,0,0,8.49,8.61,8.55,8.55,0,0,0,8.53-8.52,8.41,8.41,0,0,0-2.42-6,8.51,8.51,0,0,0-6-2.47Z"/><path class="cls-18" d="M1530.54,915.29a9.22,9.22,0,0,1-7.94-4.3c-2.91-4.54-6.36-4.9-10.56-4.9q-95.83.07-191.57,0H1200.32q-120.3,0-240.62,0h-.17l-.15,0a4.77,4.77,0,0,1-1.39.16c-.6,0-1.25,0-1.88-.11s-1-.08-1.47-.1H941c-.49,0-1,.06-1.5.1s-1.28.11-1.88.11a4.77,4.77,0,0,1-1.39-.16l-.16,0h-.16q-120.31.07-240.63,0H575.14q-95.76,0-191.51,0c-4.26,0-7.71.36-10.62,4.9a9.22,9.22,0,0,1-7.94,4.3,11.2,11.2,0,0,1-7.58-3,10.82,10.82,0,0,1,0-15.85,11,11,0,0,1,7.51-3,9.75,9.75,0,0,1,8.41,4.59c2.45,3.88,5.26,4.66,9,4.66,138.59-.07,279.47-.07,415.72-.07h75.35q31.14,0,62.3,0H936l.17-.06a4,4,0,0,1,1.34-.18,19.8,19.8,0,0,1,2,.14l1.14.11,7.21,0,7.15,0c.43,0,.82-.06,1.21-.11a19.8,19.8,0,0,1,2-.14,4.09,4.09,0,0,1,1.34.18l.17.06h.19q31.15,0,62.3,0h75.35c136.25,0,277.13,0,415.7.07,3.77,0,6.58-.78,9-4.66a9.75,9.75,0,0,1,8.41-4.59,11.05,11.05,0,0,1,7.51,3,10.82,10.82,0,0,1,0,15.85A11.2,11.2,0,0,1,1530.54,915.29Z"/><path class="cls-19" d="M1542.1,1099c-12.49-.07-25.91-.1-43.5-.1l-41.46,0h-84.4l-5.58,0a2.67,2.67,0,0,1-1.9-.56,1.54,1.54,0,0,1-.32-1.2c0-.36.07-1.47,2.06-1.49,1.67,0,3.34,0,5,0h64.34c30.88,0,67.37,0,103.89.07a12.2,12.2,0,0,0,9.59-3.89c3.92-4,8-8.07,11.92-12,5.18-5.13,10.53-10.44,15.62-15.83a16.27,16.27,0,0,1,13.06-5.63h.22c19.92.16,39.41.18,57.51.18h53.17c3.43,0,6.38-.32,8.62-4.37a9.48,9.48,0,0,1,8.47-4.86,10.81,10.81,0,0,1,3.88.73c4.66,1.78,7.08,5.19,7.2,10.13a10.76,10.76,0,0,1-7.53,10.37,11.14,11.14,0,0,1-3.46.56,9.81,9.81,0,0,1-8.79-5.17c-1.88-3.38-4.21-4-7.59-4q-27.08,0-54.06,0-29.44,0-58.89-.07a10.42,10.42,0,0,0-8.11,3.36c-4.39,4.47-8.9,9-13.27,13.32-5.5,5.48-11.18,11.15-16.67,16.82a11.23,11.23,0,0,1-8.92,3.65Zm176.6-47.23a8.44,8.44,0,0,0-.87,0,8.33,8.33,0,0,0-5.77,3.1,8.23,8.23,0,0,0-1.81,6.2,8.71,8.71,0,0,0,8.47,7.67,6.8,6.8,0,0,0,.9-.06,8.52,8.52,0,0,0,7.52-9.4A8.29,8.29,0,0,0,1718.7,1051.81Z"/><path class="cls-20" d="M1355,828.89a2.66,2.66,0,0,1-1.85-.47,2,2,0,0,1-.4-1.41c0-1.41.49-1.83,2-1.83a16.75,16.75,0,0,1,1.82.13,16.05,16.05,0,0,0,1.77.13c18.79-.05,35.74-.08,51.83-.08,17.66,0,34,0,50,.09a12.8,12.8,0,0,0,10.08-4.11c4.65-4.79,9.46-9.58,14.11-14.21,5-4.94,10.09-10,15-15.16a11.88,11.88,0,0,1,9.46-3.91c19.76.08,39.76.08,59.11.09q26.13,0,52.24.07h.15c3.93,0,7.42-.38,10.4-5a9.24,9.24,0,0,1,8-4.2,11.29,11.29,0,0,1,8,3.36,10.63,10.63,0,0,1,3.06,8,10.88,10.88,0,0,1-3.89,7.8,11.3,11.3,0,0,1-7.2,2.66h0a9.37,9.37,0,0,1-8.28-4.64c-2.5-4.24-5.54-4.59-9-4.59q-27.5.06-54.83.07c-20.38,0-38.68,0-55.95-.11h0a13.44,13.44,0,0,0-10.51,4.49c-4.46,4.6-9.09,9.2-13.56,13.65-4.89,4.85-9.94,9.87-14.8,14.92a12.22,12.22,0,0,1-9.65,4.2h-.28c-6.69-.1-14-.14-23.06-.14l-14.1,0-13.74,0-26,0c-10.69,0-18.88,0-26.54-.07h0c-.55,0-1.11,0-1.68.1S1355.54,828.89,1355,828.89Z"/><path class="cls-21" d="M1756.81,915.43a9.47,9.47,0,0,1-8.41-4.72c-2.15-3.69-4.85-4.43-8.5-4.43-15,0-29.85.05-44.73.05-19.26,0-39.19,0-58.78.09-4.17,0-6.9-1.1-9.51-3.82-5.12-5.3-10.42-10.58-15.55-15.69-4.48-4.46-9.12-9.07-13.6-13.67a12.15,12.15,0,0,0-9.45-4h-.12c-9.21.06-19,.09-30.94.09l-24.82,0-11.31,0h-1.17c-2.4,0-2.83-.47-2.83-1.79a1.76,1.76,0,0,1,.35-1.26,3,3,0,0,1,1.9-.43l.86,0,.85,0c6.19,0,12.32,0,18.45,0h17.81c3,0,5.91,0,8.86,0s5.91,0,8.87,0c5.13,0,9.32-.06,13.18-.18h.73a13.6,13.6,0,0,1,10.72,4.61c5.4,5.68,11,11.29,16.52,16.72,4,4,8.2,8.14,12.23,12.26a11.58,11.58,0,0,0,9,3.78c16.08,0,33-.08,52-.08q25.48,0,51,0c2.93,0,5.66-.31,7.63-4.07a9.68,9.68,0,0,1,8.86-5.23,12.23,12.23,0,0,1,3.36.48,10.83,10.83,0,0,1,.13,20.65A11.34,11.34,0,0,1,1756.81,915.43Z"/><path class="cls-22" d="M1809.72,1108a9.23,9.23,0,0,1-8.26-4.61c-2.36-4.21-5.46-4.55-9-4.55h-.15c-18.79,0-37.34.06-53,.06h-82.74c-14.61,0-33.86,0-53.22-.08h0a19.08,19.08,0,0,0-2.19.17,19.83,19.83,0,0,1-2.24.18c-2,0-2.34-.68-2.38-1.93a2.22,2.22,0,0,1,.4-1.59,2.4,2.4,0,0,1,1.72-.46,19.92,19.92,0,0,1,2.24.19,17,17,0,0,0,2.13.19c33.39-.06,68.24-.09,106.58-.09q41.49,0,83,0c3.43,0,6.4-.33,8.6-4.37a9.5,9.5,0,0,1,8.52-4.93,10.8,10.8,0,0,1,3.79.69c4.72,1.75,7.17,5.12,7.28,10a10.65,10.65,0,0,1-7.4,10.46A11.48,11.48,0,0,1,1809.72,1108Z"/><path class="cls-23" d="M1695.08,828.57c-2.78-.06-5.79-.1-9.47-.1l-6.46,0-5.39,0-1,0h-13.52q-5.81,0-11.61,0a3.27,3.27,0,0,1-2.35-.65,1.69,1.69,0,0,1-.33-1.3c.07-.92.49-1.38,2.74-1.5.7,0,1.41,0,2.11,0h1.67l10.84,0H1675c6.91,0,12.57,0,17.81.07h.17a11.06,11.06,0,0,0,8.46-3.6c4.28-4.36,8.7-8.75,13-13,5.47-5.44,11.13-11.07,16.58-16.71a12.53,12.53,0,0,1,9.94-4.09c19,.09,38.29.09,56.91.09q19.92,0,39.84,0h0c3.08,0,6-.33,8.15-4.21a9.32,9.32,0,0,1,8.34-4.8,11.4,11.4,0,0,1,3.49.55,10.77,10.77,0,0,1,.22,20.58,12.08,12.08,0,0,1-3.67.59,9.46,9.46,0,0,1-8.56-5.05c-2.13-3.95-5-4.28-8-4.28-15.8,0-31.49.07-47.2.07-16.91,0-33.57,0-49.53-.08a9.85,9.85,0,0,0-7.61,3.2c-5,5-10.08,10.13-15,15-5.31,5.3-10.79,10.77-16.15,16.21a8.85,8.85,0,0,1-6.78,3ZM1854.56,781a8.51,8.51,0,0,0-6,2.57,8.49,8.49,0,0,0,6,14.57,8.4,8.4,0,0,0,6-2.45,8.65,8.65,0,0,0-6-14.69h0Z"/><path class="cls-24" d="M1881.33,1207.75a9.72,9.72,0,0,1-9.11-6.15c-1.67-3.91-4.25-4.23-7.2-4.23h-.23q-7.47,0-14.94,0h-13.8c-7.12,0-15.53,0-23.81.09h-.14a9.45,9.45,0,0,1-7.4-3.16c-4.78-4.89-9.69-9.79-14.45-14.53-5.1-5.09-10.38-10.36-15.49-15.6a11.51,11.51,0,0,0-9-3.71h-.13c-9.19.06-19.26.09-30.78.09q-15.13,0-30.28,0h-2.65c-.39,0-.78,0-1.18,0s-.79,0-1.17,0a2.53,2.53,0,0,1-1.78-.42,1.86,1.86,0,0,1-.34-1.35c0-1.31.52-1.69,2.16-1.69.4,0,.81,0,1.21,0s.84,0,1.23,0c5.28,0,10.51,0,15.75,0h26.52l9.1,0c5.74,0,10.4,0,14.65-.1h.25a9.33,9.33,0,0,1,7.31,3.1c5.34,5.46,10.84,10.94,16.16,16.24,4.68,4.66,9.51,9.47,14.22,14.25a10.28,10.28,0,0,0,8,3.43h.12c7.92-.06,16.33-.09,25.72-.09q13.13,0,26.25.06h0c2.78,0,5-.57,6.89-3.34a10.3,10.3,0,0,1,8.52-4.78,11.6,11.6,0,0,1,4.46.94,10.47,10.47,0,0,1,6.5,11c-.49,4.88-3.2,8-8.06,9.37a11.57,11.57,0,0,1-3.05.43Zm.37-19.37a8.5,8.5,0,1,0,8.53,8.45,8.42,8.42,0,0,0-8.53-8.45h0Z"/><path class="cls-25" d="M1797.79,867.8a8,8,0,0,1-7-3.66c-3.29-5.18-7.36-5.61-11.59-5.61h-1.46c-1.46,0-2.87,0-4.28,0h-23.06c-1.29,0-2.81,0-3.38-.62a1.8,1.8,0,0,1-.3-1.38c.07-1,.4-1.38,2.3-1.38h1.41l6.64,0c4.21,0,8.42-.06,12.63-.06,3.59,0,6.78,0,9.76.06h.75c3.58,0,7-.38,9.8-5a9.07,9.07,0,0,1,8-4.33,11.4,11.4,0,0,1,7.47,2.85,10.74,10.74,0,0,1,3.62,7.6,10.62,10.62,0,0,1-2.91,7.83,11.71,11.71,0,0,1-8.37,3.68Z"/><path class="cls-26" d="M1631.47,216.18c-44.75-.06-91.46-.09-138.83-.09q-66.71,0-133.43.07a10.78,10.78,0,0,1-8.58-3.43c-4.83-5-9.82-9.95-14.65-14.76s-10-9.94-14.88-15a12.85,12.85,0,0,0-10-4.13c-89.38.09-180.24.09-268.11.09H852.67c-87.87,0-178.73,0-268.09-.09A12.86,12.86,0,0,0,574.51,183c-4.9,5.06-10,10.11-14.88,15s-9.82,9.79-14.65,14.76a10.76,10.76,0,0,1-8.55,3.43q-66.76-.07-133.46-.07c-47.37,0-94.08,0-138.83.09a11.56,11.56,0,0,1-9-3.81c-14.12-14.26-28.56-28.68-42.53-42.62q-8.18-8.16-16.34-16.32l-.22-.21c-1.5-1.51-3.06-3.07-5.72-3.07a7.89,7.89,0,0,0-1.69.19,11.78,11.78,0,0,1-2.55.28,10.25,10.25,0,0,1-9.54-6.35,10.88,10.88,0,0,1,2.83-12.52,10.62,10.62,0,0,1,7-2.7,10.79,10.79,0,0,1,5.71,1.67A10.15,10.15,0,0,1,196.68,143c-1.5,4.11.15,6.2,2.28,8.33,22.9,22.78,41.36,41.25,58.11,58.1a10.48,10.48,0,0,0,8.09,3.37q67.8,0,135.56-.05,67.25,0,134.48.06a11,11,0,0,0,8.53-3.71c4-4,8.06-8.11,12-12,5.54-5.5,11.27-11.19,16.75-16.93a14.22,14.22,0,0,1,11.33-4.79c38.57.11,77.35.12,110.2.12h507.57c32.85,0,71.63,0,110.14-.12a14.26,14.26,0,0,1,11.39,4.79c5.48,5.74,11.21,11.43,16.74,16.92,4,3.93,8.05,8,12,12a11,11,0,0,0,8.51,3.71q67.27-.06,134.5-.06,67.77,0,135.54.05a10.5,10.5,0,0,0,8.11-3.37c16.8-16.91,35.27-35.37,58.11-58.1,2.13-2.13,3.78-4.22,2.28-8.33a10.15,10.15,0,0,1,4.55-12.28,10.79,10.79,0,0,1,5.71-1.67,10.62,10.62,0,0,1,7,2.7,10.88,10.88,0,0,1,2.83,12.52,10.25,10.25,0,0,1-9.54,6.35,11.78,11.78,0,0,1-2.55-.28,7.89,7.89,0,0,0-1.69-.19c-2.66,0-4.22,1.56-5.72,3.07l-.22.21L1683,169.75c-14,13.94-28.41,28.35-42.53,42.62a11.55,11.55,0,0,1-9,3.81Z"/><path class="cls-27" d="M1373.74,154.56a8.49,8.49,0,0,1-6.5-3q-5.92-6-11.9-11.89c-6.08-6.07-12.37-12.34-18.49-18.57a11.66,11.66,0,0,0-9-3.85c-93,.09-187.57.1-279,.1h-23.62q-33.93,0-67.87,0H938.35l-67.9,0H846.83c-91.45,0-186,0-279-.1a11.67,11.67,0,0,0-9.06,3.85c-6.12,6.23-12.41,12.5-18.49,18.56-4,4-7.95,7.92-11.9,11.9a8.49,8.49,0,0,1-6.5,3c-43.2-.05-87.28-.07-131-.07q-55.8,0-111.59,0a9,9,0,0,1-7-3c-4.5-4.61-9.14-9.24-13.63-13.71-3.35-3.35-6.71-6.69-10-10.06-1.63-1.65-3.1-2.68-5.37-2.68a9,9,0,0,0-1.85.21,13.25,13.25,0,0,1-2.69.29,10.1,10.1,0,0,1-9.5-6.26,10.87,10.87,0,0,1,2.71-12.53,11,11,0,0,1,7.24-2.69,10.55,10.55,0,0,1,5.53,1.53c4.46,2.74,6.11,7.54,4.43,12.86-1,3.24-.06,5,1.84,6.89,7.17,7,14.6,14.3,21.68,21.74a12.66,12.66,0,0,0,10,4.17q53.39-.06,106.71-.06c41.57,0,85.23,0,129.78.08a11,11,0,0,0,8.58-3.6c4.33-4.42,8.78-8.87,13.08-13.17,5.42-5.41,11-11,16.44-16.62a12.5,12.5,0,0,1,9.94-4.16c41.43.08,82.69.09,117.59.09h526.23c34.9,0,76.17,0,117.55-.09a12.53,12.53,0,0,1,10,4.16c5.41,5.61,11,11.21,16.44,16.62,4.3,4.3,8.75,8.75,13.08,13.17a11,11,0,0,0,8.56,3.6c44.57-.06,88.23-.08,129.8-.08q53.34,0,106.68.06a12.68,12.68,0,0,0,10-4.17c7.06-7.42,14.5-14.7,21.68-21.74,1.9-1.85,2.87-3.65,1.84-6.89-1.68-5.32,0-10.12,4.43-12.86a10.55,10.55,0,0,1,5.53-1.53,11,11,0,0,1,7.24,2.69,10.87,10.87,0,0,1,2.71,12.53,10.1,10.1,0,0,1-9.5,6.26,13.25,13.25,0,0,1-2.69-.29,9,9,0,0,0-1.85-.21c-2.27,0-3.74,1-5.37,2.68-3.32,3.36-6.67,6.69-10,10-4.5,4.48-9.15,9.12-13.66,13.74a9,9,0,0,1-7,3q-55.83-.06-111.61,0c-43.76,0-87.84,0-131,.07Z"/><path class="cls-28" d="M1494.21,97.05a9,9,0,0,1-7.81-4.22c-2.38-3.53-5.06-4.24-8.6-4.24-11.74,0-23.37,0-35,0-16.42,0-33.39,0-50.09.13h-.21c-4.88,0-8.13-1.34-11.24-4.61-5.25-5.54-10.75-11-16.07-16.28-4-4-8.23-8.17-12.27-12.32a12.83,12.83,0,0,0-10-4.23c-71.68.08-142.37.08-214.5.08H767.21c-72.14,0-142.82,0-214.48-.08a12.84,12.84,0,0,0-10,4.23c-4,4.15-8.22,8.3-12.26,12.31-5.32,5.28-10.83,10.75-16.08,16.29-3.11,3.27-6.36,4.61-11.24,4.61h-.22c-16.69-.13-33.67-.13-50.08-.13q-17.44,0-34.9,0h0c-3.65,0-6.32.71-8.7,4.24a9,9,0,0,1-7.81,4.22h0a14.14,14.14,0,0,1-4.42-.77,10.56,10.56,0,0,1-6.85-10.75,10.85,10.85,0,0,1,8.23-9.86,11.32,11.32,0,0,1,2.66-.32A9.7,9.7,0,0,1,410,80.69c1.88,3.91,4.45,4.68,8.27,4.68h.12c15.44-.06,29.41-.09,42.72-.09,14.73,0,28.37,0,41.69.1a12.23,12.23,0,0,0,9.55-4c4-4.14,8.21-8.29,12.25-12.3,5.46-5.42,11.09-11,16.49-16.69,3.13-3.29,6.44-4.63,11.43-4.63,42,.09,83,.1,117.61.1h555.43c34.59,0,75.61,0,117.55-.1,5,0,8.36,1.34,11.49,4.63C1360,58,1365.59,63.63,1371,69c4,4,8.22,8.17,12.26,12.31a12.17,12.17,0,0,0,9.46,4c13.41-.07,27-.1,41.78-.1,13.31,0,27.28,0,42.72.09h.12c3.82,0,6.39-.77,8.27-4.68a9.7,9.7,0,0,1,8.94-5.34,11.18,11.18,0,0,1,2.65.32,10.85,10.85,0,0,1,8.24,9.86,10.57,10.57,0,0,1-6.85,10.75A14.14,14.14,0,0,1,1494.21,97.05ZM400.83,77.63a8.8,8.8,0,0,0-8.5,8.61,8.39,8.39,0,0,0,8.52,8.4,8.55,8.55,0,0,0,6.08-2.47,8.38,8.38,0,0,0,2.43-6,8.54,8.54,0,0,0-8.47-8.52h-.06Zm1093.89,0a8.54,8.54,0,0,0-8.47,8.52,8.52,8.52,0,0,0,17,.09,8.8,8.8,0,0,0-8.5-8.61Z"/><path class="cls-29" d="M1530.87,493.67a9.75,9.75,0,0,1-8.41-4.59c-2.44-3.88-5.26-4.66-9-4.66-129,.06-256.78.07-387.28.07H1021.38q-30.89,0-61.76-.05h-.19l-.17.07a4.11,4.11,0,0,1-1.35.18c-.62,0-1.32-.08-2-.15-.39,0-.78-.08-1.15-.1l-7,0h-6.9l-1.22.11c-.67.07-1.37.15-2,.15a4.11,4.11,0,0,1-1.35-.18l-.17-.07H936q-30.88.06-61.76.05H769.44c-130.5,0-258.32,0-387.26-.07-3.77,0-6.59.78-9,4.66a9.72,9.72,0,0,1-8.4,4.59,11.08,11.08,0,0,1-7.52-3,10.83,10.83,0,0,1,0-15.85,11.2,11.2,0,0,1,7.58-3,9.24,9.24,0,0,1,7.94,4.29c2.91,4.55,6.36,4.91,10.57,4.91q95.79-.08,191.47-.06h116q122.65,0,245.31.05h.17l.15-.05a4.78,4.78,0,0,1,1.39-.17c.6,0,1.25.06,1.88.12s1,.08,1.47.1h13.17c.49,0,1-.06,1.51-.1s1.28-.12,1.88-.12a4.78,4.78,0,0,1,1.39.17l.15.05h.17q122.65-.08,245.31-.05h116q95.71,0,191.43.06c4.25,0,7.7-.36,10.61-4.91a9.24,9.24,0,0,1,7.94-4.29,11.2,11.2,0,0,1,7.58,3,10.82,10.82,0,0,1,0,15.85A11,11,0,0,1,1530.87,493.67Z"/><path class="cls-30" d="M188.72,356a10.6,10.6,0,0,1-3.88-.73c-4.66-1.78-7.08-5.19-7.2-10.13a10.77,10.77,0,0,1,7.53-10.37,11.14,11.14,0,0,1,3.46-.56,9.82,9.82,0,0,1,8.79,5.17c1.88,3.39,4.21,4.05,7.59,4.05q27.08,0,54.06-.05,29.43,0,58.88.07a10.43,10.43,0,0,0,8.12-3.36c4.39-4.47,8.9-9,13.26-13.32,5.5-5.48,11.19-11.14,16.68-16.82a11.23,11.23,0,0,1,8.92-3.65h.12c16.1.09,31.85.1,43.78.1H534.41c1.86,0,3.72,0,5.58,0a2.67,2.67,0,0,1,1.9.56,1.59,1.59,0,0,1,.32,1.2c0,.37-.07,1.47-2.06,1.49-1.67,0-3.34,0-5,0h-64.5c-30.73,0-67.09,0-103.73-.07a12.18,12.18,0,0,0-9.59,3.89c-3.92,4-8,8.07-11.92,12-5.18,5.14-10.53,10.45-15.62,15.85a16.3,16.3,0,0,1-13.06,5.62h-.23c-19.9-.16-39.39-.18-57.49-.18H205.81c-3.43,0-6.39.33-8.62,4.37A9.49,9.49,0,0,1,188.72,356Zm-.29-19.47a6.79,6.79,0,0,0-.9,0,8.54,8.54,0,0,0-7.53,9.4,8.29,8.29,0,0,0,8.45,7.55,8.44,8.44,0,0,0,.87,0,8.35,8.35,0,0,0,5.77-3.1,8.23,8.23,0,0,0,1.81-6.2A8.71,8.71,0,0,0,188.43,336.48Z"/><path class="cls-31" d="M256.69,663.74a11.33,11.33,0,0,1-8-3.36,10.6,10.6,0,0,1-3.06-8,10.89,10.89,0,0,1,3.88-7.79,11.25,11.25,0,0,1,7.21-2.66,9.35,9.35,0,0,1,8.27,4.63c2.51,4.25,5.54,4.6,9,4.6,18.3,0,36.5-.07,54.72-.07,20.4,0,38.74,0,56.07.11a13.41,13.41,0,0,0,10.5-4.49c4.46-4.6,9.09-9.19,13.56-13.64,4.89-4.86,9.94-9.88,14.81-14.93a12.21,12.21,0,0,1,9.64-4.21h.29c6.7.1,14,.15,23.1.15q7.08,0,14.17,0l13.63,0h25.87c10.75,0,19,0,26.68.06h0c.55,0,1.11,0,1.69-.09s1.15-.1,1.69-.1a2.58,2.58,0,0,1,1.84.47,2,2,0,0,1,.4,1.41c0,1.4-.48,1.83-2,1.83-.57,0-1.2-.07-1.81-.13a16.41,16.41,0,0,0-1.77-.13c-18.89.05-35.88.08-51.95.08-17.64,0-33.94,0-49.83-.1h0a12.84,12.84,0,0,0-10.09,4.11c-4.65,4.8-9.46,9.59-14.12,14.23-4.95,4.93-10.07,10-15,15.15a11.91,11.91,0,0,1-9.46,3.9c-19.76-.07-39.77-.08-59.12-.08q-26.12,0-52.24-.07H275c-3.92,0-7.42.38-10.4,5a9.21,9.21,0,0,1-7.94,4.2Z"/><path class="cls-32" d="M306.42,559.93a13.62,13.62,0,0,1-10.72-4.61c-5.4-5.68-11.05-11.29-16.52-16.72-4-4-8.19-8.13-12.22-12.26a11.59,11.59,0,0,0-9-3.78c-16.11.06-33.12.08-52.1.08q-25.41,0-50.83,0h0c-2.92,0-5.66.32-7.63,4.07a9.65,9.65,0,0,1-8.85,5.23,12.23,12.23,0,0,1-3.36-.48,10.83,10.83,0,0,1-.13-20.65,11.24,11.24,0,0,1,3.53-.57,9.45,9.45,0,0,1,8.4,4.72c2.16,3.69,4.86,4.43,8.51,4.43,14.94,0,29.79,0,44.65-.05,19.29,0,39.24,0,58.86-.09,4.17,0,6.89,1.11,9.51,3.82,5.11,5.3,10.42,10.58,15.55,15.69,4.48,4.46,9.11,9.07,13.59,13.67a12.13,12.13,0,0,0,9.45,4h.13c9.16-.06,19-.08,30.83-.08l24.52,0,11.72,0h1.16c2.41,0,2.84.47,2.84,1.8a1.78,1.78,0,0,1-.35,1.25,2.91,2.91,0,0,1-1.91.43h-.85l-.85,0c-6.26,0-12.45,0-18.64,0H338.07c-3,0-5.92,0-8.88,0s-5.93,0-8.89,0c-5.12,0-9.29.06-13.14.18Z"/><path class="cls-33" d="M97.43,305.19a10.86,10.86,0,0,1-3.8-.69c-4.72-1.75-7.17-5.12-7.28-10A10.67,10.67,0,0,1,93.76,284a11.47,11.47,0,0,1,3.66-.61,9.24,9.24,0,0,1,8.27,4.61c2.36,4.21,5.46,4.55,9,4.55h.14c18.73-.05,37.31-.06,53-.06h82.89c14.58,0,33.79,0,53,.08a19.08,19.08,0,0,0,2.19-.17,19.65,19.65,0,0,1,2.24-.18c2,0,2.34.68,2.37,1.93a2.13,2.13,0,0,1-.4,1.59,2.37,2.37,0,0,1-1.71.46h0a19.92,19.92,0,0,1-2.24-.19,16.94,16.94,0,0,0-2.14-.19c-33.2.06-67.94.09-106.2.09q-41.67,0-83.34,0c-3.43,0-6.41.32-8.6,4.37A9.52,9.52,0,0,1,97.43,305.19Z"/><path class="cls-34" d="M41.19,664a11.65,11.65,0,0,1-3.48-.55,10.76,10.76,0,0,1-.22-20.58,12,12,0,0,1,3.67-.59,9.43,9.43,0,0,1,8.55,5.05c2.14,3.95,5,4.27,8,4.27,15.75,0,31.4-.06,47.05-.06,16.92,0,33.64,0,49.68.08a9.85,9.85,0,0,0,7.61-3.2c5-5,10.1-10.15,15-15.09,5.29-5.28,10.77-10.75,16.11-16.17a8.89,8.89,0,0,1,6.79-3h.3c2.77.07,5.78.1,9.47.1l6.45,0,5.4,0,1,0H236.1c3.9,0,7.8,0,11.7,0a3.3,3.3,0,0,1,2.34.66,1.65,1.65,0,0,1,.34,1.3c-.07.92-.5,1.38-2.74,1.49-.71,0-1.42,0-2.13,0h-1.73l-10.76,0-12.75,0c-6.91,0-12.57,0-17.82-.08h-.16a11.08,11.08,0,0,0-8.46,3.59c-4.28,4.37-8.69,8.75-13,13-5.47,5.44-11.14,11.07-16.6,16.72a12.5,12.5,0,0,1-9.93,4.08c-19-.08-38.29-.09-56.91-.09q-19.92,0-39.84,0h0c-3.08,0-5.95.32-8.15,4.21A9.34,9.34,0,0,1,41.19,664Zm-.41-19.4a8.34,8.34,0,0,0-6,2.45,8.51,8.51,0,1,0,12,12.12,8.49,8.49,0,0,0-6-14.57Z"/><path class="cls-35" d="M1233.25,727.2a9.34,9.34,0,0,1-8.35-4.8c-2.2-3.89-5.07-4.21-8.07-4.21-13.36,0-26.64,0-39.91,0-18.62,0-37.88,0-56.82.09-4.35,0-7.22-1.18-10-4.08-5.46-5.65-11.13-11.28-16.6-16.72-4.27-4.24-8.68-8.63-13-13a11.08,11.08,0,0,0-8.46-3.59h-.16c-5.25.05-10.91.08-17.82.08l-12.75,0-10.76,0H992.05l-44.24,0-44.25,0H865.05l-10.77,0-12.74,0c-6.91,0-12.57,0-17.82-.08h-.16a11.08,11.08,0,0,0-8.46,3.59c-4.29,4.36-8.7,8.75-13,13-5.48,5.44-11.14,11.07-16.6,16.72a12.5,12.5,0,0,1-9.93,4.08c-19-.09-38.3-.09-56.92-.09q-19.91,0-39.83,0h0c-3.08,0-6,.32-8.15,4.21a9.34,9.34,0,0,1-8.35,4.8,11.36,11.36,0,0,1-3.48-.56,10.76,10.76,0,0,1-.23-20.57,12.14,12.14,0,0,1,3.68-.59,9.43,9.43,0,0,1,8.55,5c2.14,3.94,5,4.27,8,4.27,15.7,0,31.31-.06,46.93-.06,17,0,33.73,0,49.8.08a9.82,9.82,0,0,0,7.61-3.21c5-5.05,10.11-10.16,15.06-15.1,5.29-5.28,10.76-10.74,16.09-16.15a8.89,8.89,0,0,1,6.79-3h.3c2.77.07,5.78.1,9.47.1l6.45,0,5.4,0,1.05,0h209v0l5.38,0,6.45,0c3.69,0,6.7,0,9.47-.1h.3a8.89,8.89,0,0,1,6.79,3c5.33,5.41,10.8,10.87,16.09,16.15,5,4.94,10.07,10,15.06,15.1a9.79,9.79,0,0,0,7.56,3.21c16.12-.05,32.87-.08,49.85-.08q23.43,0,46.84.06h0c3.09,0,6-.33,8.1-4.27a9.43,9.43,0,0,1,8.55-5,12,12,0,0,1,3.67.59,10.76,10.76,0,0,1-.22,20.57A11.36,11.36,0,0,1,1233.25,727.2Zm.41-19.4a8.5,8.5,0,0,0-6,14.57,8.51,8.51,0,0,0,11.95-12.12,8.33,8.33,0,0,0-5.95-2.45Zm-571.72,0a8.31,8.31,0,0,0-6,2.45,8.51,8.51,0,1,0,12,12.12,8.49,8.49,0,0,0-6-14.57Z"/><path class="cls-36" d="M138.82,230a9.33,9.33,0,0,1-7.31-3.1c-5.33-5.45-10.82-10.92-16.13-16.21-4.69-4.66-9.53-9.49-14.25-14.28a10.28,10.28,0,0,0-8-3.43h-.11c-7.9.06-16.29.09-25.65.09q-13.17,0-26.33-.06h0c-2.78,0-5,.57-6.89,3.34a10.3,10.3,0,0,1-8.52,4.78h0a11.43,11.43,0,0,1-4.46-1,10.43,10.43,0,0,1-6.5-11c.49-4.88,3.2-8,8.06-9.38a11.92,11.92,0,0,1,3.05-.42,9.73,9.73,0,0,1,9.11,6.15c1.67,3.91,4.24,4.23,7.18,4.23h.25l14.76,0H71.05c7.14,0,15.56,0,23.85-.09H95a9.47,9.47,0,0,1,7.41,3.16c4.78,4.89,9.69,9.79,14.45,14.53,5.1,5.09,10.38,10.36,15.49,15.6a11.51,11.51,0,0,0,9,3.71h.12c9.2-.06,19.27-.09,30.79-.09q15.14,0,30.27.05h2.66c.38,0,.78,0,1.18,0s.78,0,1.17,0a2.53,2.53,0,0,1,1.78.42,1.86,1.86,0,0,1,.34,1.35c0,1.31-.52,1.69-2.16,1.69-.4,0-.81,0-1.21-.05s-.84,0-1.23,0c-5.28,0-10.5,0-15.72,0H162.88l-9.2,0c-5.72,0-10.36,0-14.61.1ZM25.35,181.73a8.5,8.5,0,0,0,0,17,8.45,8.45,0,0,0,8.5-8.55,8.4,8.4,0,0,0-8.47-8.44h-.08Z"/><path class="cls-37" d="M97.4,598a11.44,11.44,0,0,1-7.48-2.86,10.77,10.77,0,0,1-.71-15.42A11.73,11.73,0,0,1,97.59,576a8,8,0,0,1,7,3.66c3.28,5.19,7.35,5.62,11.58,5.62l1.48,0,4.26,0,6.91,0H145c1.28,0,2.81,0,3.37.61a1.83,1.83,0,0,1,.31,1.38c-.07,1-.41,1.39-2.3,1.39H145l-6.65,0c-4.22,0-8.44.06-12.66.06q-4.86,0-9.71-.07h-.76c-3.58,0-7,.38-9.79,5a9.08,9.08,0,0,1-8,4.33Z"/><path class="cls-38" d="M970,1103.08a20.09,20.09,0,0,1-2.25-.19c-.55-.07-1.07-.13-1.55-.17H953c-.55,0-1.07.1-1.62.17a20.09,20.09,0,0,1-2.25.19,3.4,3.4,0,0,1-1.44-.24l-.23-.11h-.25c-32.18,0-63.83.06-93.24.06H740.64c-28,0-61.21,0-94.87.08a12.1,12.1,0,0,1-9.51-3.87c-12-12.11-24.24-24.36-36.09-36.21-10-10-20.45-20.43-30.63-30.69a12.89,12.89,0,0,0-9.91-4.26h-.11c-12.68.08-25.95.11-40.57.11q-20,0-39.93-.07h-.13c-3.17,0-6.2.33-8.46,4.4a9.61,9.61,0,0,1-8.55,4.91,10.63,10.63,0,0,1-3.81-.71,10.37,10.37,0,0,1-7.2-10.14,10.72,10.72,0,0,1,7.5-10.39,11.44,11.44,0,0,1,3.48-.54,9.37,9.37,0,0,1,8.45,4.69c2.27,4.16,5.37,4.5,8.9,4.5h.24q17.22-.06,34.46,0c15.46,0,31.44,0,47.17-.09h.12a12,12,0,0,1,9.41,3.85c11.18,11.29,22.6,22.71,33.65,33.76,10.85,10.85,22.07,22.06,33,33.15a13.43,13.43,0,0,0,10.52,4.3c50,0,101.82-.07,153.92-.07q72.79,0,145.58.06h.24l.22-.11a3.6,3.6,0,0,1,1.52-.25,18.13,18.13,0,0,1,2.27.19c.64.07,1.25.15,1.81.17h12.35c.6,0,1.21-.1,1.85-.17a18.28,18.28,0,0,1,2.27-.19,3.6,3.6,0,0,1,1.52.25l.22.11h.24q72.79-.06,145.58-.06c52.1,0,103.88,0,153.9.07a13.44,13.44,0,0,0,10.54-4.3c11-11.09,22.22-22.32,33.08-33.18,11-11,22.46-22.45,33.62-33.73a12,12,0,0,1,9.41-3.85h.12c15.73.09,31.72.09,47.18.09q17.22,0,34.45,0h.24c3.53,0,6.63-.34,8.9-4.5a9.37,9.37,0,0,1,8.45-4.69,11.44,11.44,0,0,1,3.48.54,10.72,10.72,0,0,1,7.5,10.39,10.37,10.37,0,0,1-7.2,10.14,10.63,10.63,0,0,1-3.81.71,9.59,9.59,0,0,1-8.54-4.91c-2.27-4.07-5.3-4.4-8.47-4.4h-.13q-20,.06-39.92.07c-14.63,0-27.9,0-40.58-.11h-.11a12.9,12.9,0,0,0-9.91,4.26c-10.19,10.27-20.6,20.67-30.66,30.72-11.84,11.84-24.08,24.08-36.06,36.18a12.06,12.06,0,0,1-9.46,3.87c-33.71-.07-66.9-.08-94.92-.08H1065.15c-29.41,0-61.06,0-93.24-.06h-.25l-.23.11A3.4,3.4,0,0,1,970,1103.08Z"/><path class="cls-39" d="M1300.68,828.62c-37.52-.1-74.82-.11-106.35-.11h-89.22q-72.85,0-145.72,0h-.11l-.11,0a6,6,0,0,1-1.22.1c-.52,0-1.05,0-1.56-.07l-1.1-.06H940.35c-.38,0-.75,0-1.13.06s-1,.07-1.56.07a6,6,0,0,1-1.22-.1l-.11,0h-.11q-72.87,0-145.72,0H701.28c-31.53,0-68.83,0-106.35.11A13.69,13.69,0,0,1,584,824c-5.28-5.49-10.76-11-16.06-16.25-4.17-4.16-8.48-8.46-12.66-12.74a11,11,0,0,0-8.47-3.61h-.16c-5.28.05-10.66.08-16.45.08-6.44,0-13.3,0-21-.1h-.15a6.77,6.77,0,0,0-6.61,3.65c-2.16,3.61-5.35,5.6-9,5.6a11.28,11.28,0,0,1-3.1-.45,10.76,10.76,0,0,1-.33-20.74,11.53,11.53,0,0,1,3.44-.54,10.1,10.1,0,0,1,8.77,5.28c1.88,3.09,4.13,3.71,7.16,3.71h5.37l10.1,0L535,788c4.83,0,8.82,0,12.56-.09h.28a11.28,11.28,0,0,1,8.77,3.77c4.07,4.16,8.26,8.32,12.31,12.35,5.17,5.14,10.52,10.46,15.64,15.8a15.81,15.81,0,0,0,12.41,5.3c65.44-.1,131.86-.12,193.89-.12H911.29q12.39,0,24.8,0h.13l.12,0a4.75,4.75,0,0,1,1.16-.11c.55,0,1.13,0,1.7.09l.65.05,7.95,0,7.88,0,.73-.06c.57,0,1.15-.09,1.7-.09a4.75,4.75,0,0,1,1.16.11l.12,0h.13q12.4,0,24.8,0h120.41c62,0,128.45,0,193.86.12a15.85,15.85,0,0,0,12.44-5.29c5.12-5.35,10.46-10.66,15.63-15.8,4-4,8.25-8.2,12.31-12.36a11.32,11.32,0,0,1,8.78-3.77h.28c3.74.06,7.73.09,12.56.09l10.11,0,10.11,0h5.37c3,0,5.28-.62,7.16-3.71a10.1,10.1,0,0,1,8.77-5.28,11.53,11.53,0,0,1,3.44.54,10.76,10.76,0,0,1-.33,20.74,11.28,11.28,0,0,1-3.1.45c-3.62,0-6.81-2-9-5.6a6.77,6.77,0,0,0-6.61-3.65h-.15c-7.68.07-14.54.1-21,.1-5.79,0-11.17,0-16.45-.08h-.16a11,11,0,0,0-8.47,3.61c-4.17,4.28-8.48,8.57-12.64,12.73-5.31,5.29-10.79,10.76-16.08,16.26a13.64,13.64,0,0,1-10.86,4.61Zm101.48-47.39a8.52,8.52,0,0,0-8.2,8.84,8.64,8.64,0,0,0,8.5,8.29h.3a8.68,8.68,0,0,0,8.2-8.88,8.58,8.58,0,0,0-8.49-8.26Zm-909,0a8.58,8.58,0,0,0-8.49,8.26,8.68,8.68,0,0,0,8.2,8.88h.3a8.65,8.65,0,0,0,8.5-8.29,8.54,8.54,0,0,0-8.2-8.84Z"/><path class="cls-40" d="M376.93,1099a11.21,11.21,0,0,1-8.91-3.65c-5.5-5.67-11.18-11.34-16.68-16.82-4.36-4.35-8.88-8.85-13.27-13.32a10.38,10.38,0,0,0-8.07-3.36q-29.5.08-58.93.07-27,0-54,0c-3.43,0-5.75.67-7.64,4a9.81,9.81,0,0,1-8.79,5.17,11.18,11.18,0,0,1-3.46-.56,10.78,10.78,0,0,1-7.53-10.37c.12-4.94,2.54-8.35,7.2-10.13a10.86,10.86,0,0,1,3.89-.73,9.5,9.5,0,0,1,8.47,4.86c2.23,4,5.19,4.37,8.54,4.37H271c18.1,0,37.6,0,57.51-.18h.22a16.27,16.27,0,0,1,13.06,5.63c5.09,5.4,10.45,10.71,15.63,15.85,3.93,3.89,8,7.92,11.91,12a12.17,12.17,0,0,0,9.55,3.89c36.56-.06,73.05-.07,103.93-.07h64.35l5,0c2,0,2.05,1.13,2.07,1.49a1.59,1.59,0,0,1-.33,1.2,2.66,2.66,0,0,1-1.9.56l-5.58,0H462l-41.47,0c-17.59,0-31,0-43.5.1Zm-176.48-47.23a8.29,8.29,0,0,0-8.44,7.55,8.52,8.52,0,0,0,7.52,9.4,6.8,6.8,0,0,0,.9.06,8.72,8.72,0,0,0,8.48-7.67,8.23,8.23,0,0,0-1.82-6.2,8.33,8.33,0,0,0-5.76-3.1A8.77,8.77,0,0,0,200.45,1051.81Z"/><path class="cls-41" d="M970.19,1037.06c-.55,0-1.16-.06-1.75-.11l-.84-.08-8,0-8,0c-.35,0-.63.05-.91.08-.59,0-1.21.11-1.76.11a3.77,3.77,0,0,1-1.17-.14l-.16,0H920.12l-72.44,0c-11.32,0-26.27,0-41.47.09a10.11,10.11,0,0,1-8-3.28c-5.28-5.43-10.72-10.86-16-16.11-4.59-4.59-9.35-9.33-14-14a11,11,0,0,0-8.49-3.71q-24.26,0-48.45,0-32.26,0-64.53-.08c-3.14,0-5.61.71-7.62,4.15a10.4,10.4,0,0,1-12.31,4.53A11.08,11.08,0,0,1,619.4,998a10.4,10.4,0,0,1,7.35-10,10.7,10.7,0,0,1,3.71-.67,9.82,9.82,0,0,1,8.6,5.05c2.09,3.55,4.63,4.26,8.05,4.26,15.95-.05,31.82-.06,47.69-.07,21.42,0,43.56,0,65.34-.14a12.45,12.45,0,0,1,9.93,4.21c4.88,5.06,9.94,10.1,14.84,15,4.59,4.57,9.33,9.29,13.9,14a12.81,12.81,0,0,0,10,4.09c24.74-.05,50.36-.08,78.38-.08q30.09,0,60.19,0h.18l.17,0a3.8,3.8,0,0,1,1.25-.17,16.06,16.06,0,0,1,1.8.13c.42,0,.82.08,1.2.1h15.07c.44,0,.85-.06,1.26-.1a16.23,16.23,0,0,1,1.8-.13,3.8,3.8,0,0,1,1.25.17l.17,0h.19l60.18,0c28,0,53.64,0,78.34.08a12.83,12.83,0,0,0,10.07-4.09c4.57-4.73,9.31-9.44,13.89-14,4.9-4.87,10-9.92,14.85-15a12.38,12.38,0,0,1,9.83-4.21c21.88.11,44,.13,65.44.14q23.81,0,47.62.07c3.5,0,6-.71,8.12-4.26a9.83,9.83,0,0,1,8.6-5.05,10.7,10.7,0,0,1,3.71.67,10.38,10.38,0,0,1,7.35,10,11.06,11.06,0,0,1-7.41,10.49,10.1,10.1,0,0,1-3.37.56,10.23,10.23,0,0,1-8.94-5.09c-2-3.44-4.48-4.15-7.57-4.15q-32.34.08-64.58.08-24.21,0-48.41,0a11,11,0,0,0-8.53,3.71c-4.61,4.71-9.36,9.44-14,14-5.27,5.25-10.72,10.69-16,16.12A10,10,0,0,1,1113,1037c-15.3-.08-30.25-.09-41.57-.09l-72.44,0H971.52l-.15,0A3.84,3.84,0,0,1,970.19,1037.06ZM1289,989.74a8.21,8.21,0,0,0-8.46,8.41,8.44,8.44,0,0,0,8.37,8.63h.11a8.71,8.71,0,0,0,8.49-8.51,8.3,8.3,0,0,0-2.41-6,8.47,8.47,0,0,0-6.07-2.54Zm-658.81,0a8.49,8.49,0,0,0-6.08,2.54,8.3,8.3,0,0,0-2.4,6,8.7,8.7,0,0,0,8.49,8.51h.11a8.44,8.44,0,0,0,8.36-8.63,8.21,8.21,0,0,0-8.46-8.41Z"/><path class="cls-42" d="M540.61,828.89c-.54,0-1.12,0-1.69-.1s-1.14-.1-1.64-.1c-7.71,0-15.9.07-26.59.07l-26,0-13.74,0-14.11,0c-9,0-16.36,0-23.05.14h-.28a12.2,12.2,0,0,1-9.65-4.2c-4.86-5-9.91-10.07-14.8-14.92-4.47-4.45-9.1-9.05-13.56-13.65a13.39,13.39,0,0,0-10.42-4.49c-17.36.07-35.66.11-56,.11q-27.37,0-54.75-.07h0c-3.5,0-6.54.35-9,4.59a9.37,9.37,0,0,1-8.28,4.64h0a11.3,11.3,0,0,1-7.2-2.66,10.87,10.87,0,0,1-3.89-7.8,10.63,10.63,0,0,1,3.06-8,11.29,11.29,0,0,1,8-3.36,9.24,9.24,0,0,1,7.95,4.2c3,4.63,6.47,5,10.39,5h.16q26.11-.09,52.24-.07c19.34,0,39.35,0,59-.09a11.94,11.94,0,0,1,9.54,3.91c4.94,5.11,10.06,10.21,15,15.15,4.65,4.64,9.47,9.43,14.12,14.22a12.74,12.74,0,0,0,10,4.11c16-.06,32.38-.09,50-.09,16.1,0,33.05,0,51.82.08h0a16.05,16.05,0,0,0,1.79-.13,16.58,16.58,0,0,1,1.82-.13c1.55,0,2,.42,2,1.83a1.92,1.92,0,0,1-.39,1.41A2.66,2.66,0,0,1,540.61,828.89Z"/><path class="cls-43" d="M138.8,915.43a11.34,11.34,0,0,1-3.53-.57,10.83,10.83,0,0,1,.13-20.65,12.23,12.23,0,0,1,3.36-.48,9.68,9.68,0,0,1,8.86,5.23c2,3.76,4.7,4.07,7.56,4.07q25.59,0,51,0c18.9,0,35.87,0,51.89.08a11.62,11.62,0,0,0,9.08-3.78c4-4.13,8.2-8.26,12.23-12.27,5.47-5.42,11.12-11,16.52-16.71a13.6,13.6,0,0,1,10.72-4.61h.73c3.86.12,8.05.18,13.18.18,3,0,5.91,0,8.87,0s5.91,0,8.86,0h17.81c6.13,0,12.26,0,18.39,0h0l.9,0,.86,0a3,3,0,0,1,1.9.43,1.76,1.76,0,0,1,.35,1.26c0,1.32-.43,1.79-2.83,1.79h-1.14l-11.34,0-24.82,0c-11.9,0-21.74,0-30.94-.09h-.12a12.15,12.15,0,0,0-9.45,4c-4.49,4.61-9.13,9.22-13.61,13.69-5.13,5.1-10.43,10.37-15.54,15.67a11.78,11.78,0,0,1-9.41,3.82c-19.7-.08-39.62-.09-58.88-.09q-22.32,0-44.64-.05h0c-3.73,0-6.43.74-8.58,4.43A9.47,9.47,0,0,1,138.8,915.43Z"/><path class="cls-44" d="M109.43,1108a11.53,11.53,0,0,1-3.67-.61,10.66,10.66,0,0,1-7.4-10.46c.11-4.9,2.56-8.27,7.28-10a10.82,10.82,0,0,1,3.8-.69,9.48,9.48,0,0,1,8.51,4.93c2.2,4,5.17,4.37,8.56,4.37q41.55,0,83,0c38.34,0,73.2,0,106.57.09a16.79,16.79,0,0,0,2.14-.19,20.11,20.11,0,0,1,2.24-.19,2.38,2.38,0,0,1,1.72.46,2.17,2.17,0,0,1,.4,1.59c0,1.25-.43,1.93-2.37,1.93A19.82,19.82,0,0,1,318,1099a19.1,19.1,0,0,0-2.16-.17c-19.38.07-38.64.08-53.25.08H179.82c-15.67,0-34.22,0-53-.06h-.15c-3.51,0-6.61.34-9,4.55a9.26,9.26,0,0,1-8.27,4.61Z"/><path class="cls-45" d="M1809.72,1001a9.25,9.25,0,0,1-8.26-4.61c-2.36-4.21-5.46-4.56-9-4.56h-.15c-18.79.06-37.34.06-53,.06h-82.74c-14.61,0-33.86,0-53.22-.08h0a19.08,19.08,0,0,0-2.19.17,22.36,22.36,0,0,1-2.24.17c-2,0-2.34-.67-2.38-1.92a2.27,2.27,0,0,1,.4-1.6,2.4,2.4,0,0,1,1.72-.46,17.89,17.89,0,0,1,2.24.2,17,17,0,0,0,2.13.19c33.39-.06,68.24-.09,106.58-.09q41.49,0,83,0c3.43,0,6.4-.33,8.6-4.37a9.5,9.5,0,0,1,8.52-4.93,11,11,0,0,1,3.79.68c4.72,1.75,7.17,5.13,7.28,10a10.65,10.65,0,0,1-7.4,10.46A11.48,11.48,0,0,1,1809.72,1001Z"/><path class="cls-46" d="M109.43,1001a11.53,11.53,0,0,1-3.67-.61,10.66,10.66,0,0,1-7.4-10.46c.11-4.9,2.56-8.28,7.28-10a11,11,0,0,1,3.8-.68,9.48,9.48,0,0,1,8.51,4.93c2.2,4,5.17,4.37,8.56,4.37q41.55,0,83,0c38.34,0,73.2,0,106.57.09a16.79,16.79,0,0,0,2.14-.19,18.06,18.06,0,0,1,2.24-.2,2.38,2.38,0,0,1,1.72.46,2.22,2.22,0,0,1,.4,1.6c0,1.25-.43,1.92-2.37,1.92A22.34,22.34,0,0,1,318,992a19.1,19.1,0,0,0-2.16-.17c-19.38.07-38.64.08-53.25.08H179.82c-15.67,0-34.22,0-53-.06h-.15c-3.51,0-6.61.35-9,4.56a9.28,9.28,0,0,1-8.27,4.61Z"/><path class="cls-47" d="M1809.72,732.35a9.23,9.23,0,0,1-8.26-4.61c-2.36-4.21-5.46-4.55-9-4.55h-.15c-18.79,0-37.34.06-53,.06h-82.74c-14.61,0-33.86,0-53.22-.09h0a21.63,21.63,0,0,0-2.19.17,19.83,19.83,0,0,1-2.24.18c-2,0-2.34-.68-2.38-1.93a2.24,2.24,0,0,1,.4-1.59,2.4,2.4,0,0,1,1.72-.46,17.89,17.89,0,0,1,2.24.2,17,17,0,0,0,2.13.19c33.39-.06,68.24-.09,106.58-.09q41.49,0,83,0c3.43,0,6.4-.33,8.6-4.37a9.5,9.5,0,0,1,8.52-4.94,11,11,0,0,1,3.79.69c4.72,1.75,7.17,5.12,7.28,10a10.64,10.64,0,0,1-7.4,10.45A11.21,11.21,0,0,1,1809.72,732.35Z"/><path class="cls-48" d="M109.43,732.35a11.26,11.26,0,0,1-3.67-.61,10.65,10.65,0,0,1-7.4-10.45c.11-4.91,2.56-8.28,7.28-10a11,11,0,0,1,3.8-.69,9.49,9.49,0,0,1,8.51,4.94c2.2,4,5.17,4.37,8.56,4.37q41.55,0,83,0c38.34,0,73.2,0,106.57.09a16.79,16.79,0,0,0,2.14-.19,18.06,18.06,0,0,1,2.24-.2,2.38,2.38,0,0,1,1.72.46,2.19,2.19,0,0,1,.4,1.59c0,1.25-.43,1.93-2.37,1.93a19.82,19.82,0,0,1-2.25-.18c-.77-.08-1.49-.17-2.16-.17-19.38.08-38.64.09-53.25.09H179.82c-15.67,0-34.22,0-53-.06h-.15c-3.51,0-6.61.34-9,4.55a9.26,9.26,0,0,1-8.27,4.61Z"/><path class="cls-49" d="M1809.72,443.42a9.23,9.23,0,0,1-8.26-4.61c-2.36-4.21-5.46-4.55-9-4.55h-.15c-18.79.05-37.34.05-53,.05h-82.74c-14.61,0-33.86,0-53.22-.08h0a19.08,19.08,0,0,0-2.19.17,19.83,19.83,0,0,1-2.24.18c-2,0-2.34-.68-2.38-1.93a2.22,2.22,0,0,1,.4-1.59,2.4,2.4,0,0,1,1.72-.46,19.92,19.92,0,0,1,2.24.19,17,17,0,0,0,2.13.19c33.39-.06,68.24-.09,106.58-.09q41.49,0,83,0c3.43,0,6.4-.33,8.6-4.37a9.5,9.5,0,0,1,8.52-4.93,10.8,10.8,0,0,1,3.79.69c4.72,1.75,7.17,5.12,7.28,10a10.65,10.65,0,0,1-7.4,10.46A11.48,11.48,0,0,1,1809.72,443.42Z"/><path class="cls-50" d="M109.43,443.42a11.53,11.53,0,0,1-3.67-.61,10.66,10.66,0,0,1-7.4-10.46c.11-4.9,2.56-8.27,7.28-10a10.82,10.82,0,0,1,3.8-.69,9.48,9.48,0,0,1,8.51,4.93c2.2,4,5.17,4.37,8.56,4.37q41.55,0,83,0c38.34,0,73.2,0,106.57.09a16.79,16.79,0,0,0,2.14-.19,20.11,20.11,0,0,1,2.24-.19,2.38,2.38,0,0,1,1.72.46,2.17,2.17,0,0,1,.4,1.59c0,1.25-.43,1.93-2.37,1.93a19.82,19.82,0,0,1-2.25-.18,19.1,19.1,0,0,0-2.16-.17c-19.38.07-38.64.08-53.25.08H179.82c-15.67,0-34.22,0-53-.05h-.15c-3.51,0-6.61.34-9,4.55a9.26,9.26,0,0,1-8.27,4.61Z"/><path class="cls-51" d="M200.23,828.58a8.85,8.85,0,0,1-6.78-3c-5.35-5.43-10.82-10.89-16.12-16.18-4.94-4.93-10.05-10-15-15.08a9.82,9.82,0,0,0-7.56-3.2c-16,0-32.67.08-49.58.08q-23.55,0-47.1-.07h0c-3.09,0-6,.33-8.09,4.28a9.46,9.46,0,0,1-8.56,5.05h0a12.08,12.08,0,0,1-3.67-.59,10.77,10.77,0,0,1,.22-20.58,11.36,11.36,0,0,1,3.49-.55,9.33,9.33,0,0,1,8.34,4.8c2.2,3.88,5.07,4.21,8.07,4.21,13.36,0,26.64,0,39.92,0,18.62,0,37.87,0,56.81-.09,4.35,0,7.23,1.19,10,4.09,5.46,5.64,11.12,11.27,16.59,16.71,4.27,4.24,8.69,8.63,13,13a11.06,11.06,0,0,0,8.46,3.6h.17c5.24,0,10.9-.07,17.81-.07h12.75l10.76,0h1.75c.7,0,1.41,0,2.11,0,2.25.12,2.67.58,2.74,1.5a1.69,1.69,0,0,1-.33,1.3,3.28,3.28,0,0,1-2.35.65q-5.81,0-11.61,0H221.83v0l-5.37,0-6.46,0c-3.68,0-6.69,0-9.47.1ZM41,781a8.65,8.65,0,0,0-6,14.69A8.38,8.38,0,0,0,41,798.14a8.49,8.49,0,0,0,6-14.57,8.51,8.51,0,0,0-6-2.57Z"/><path class="cls-52" d="M37.82,1207.75a11.44,11.44,0,0,1-3-.43c-4.86-1.33-7.58-4.49-8.06-9.37a10.45,10.45,0,0,1,6.49-11,11.69,11.69,0,0,1,4.47-.94,10.29,10.29,0,0,1,8.51,4.78c1.92,2.77,4.11,3.34,6.81,3.34,8.84,0,17.59-.06,26.34-.06,9.4,0,17.81,0,25.72.09h.12a10.28,10.28,0,0,0,7.95-3.43c4.72-4.79,9.57-9.62,14.25-14.28,5.31-5.29,10.8-10.76,16.13-16.21a9.33,9.33,0,0,1,7.31-3.1h.25c4.26.07,8.91.1,14.65.1l9.1,0h26.53c5.23,0,10.46,0,15.69,0h0c.43,0,.85,0,1.27,0s.81,0,1.22,0c1.63,0,2.12.38,2.15,1.69a1.86,1.86,0,0,1-.33,1.35,2.57,2.57,0,0,1-1.79.42c-.38,0-.78,0-1.16,0s-.8,0-1.17,0h-2.67q-15.13,0-30.28,0c-11.52,0-21.59,0-30.78-.09h-.13a11.49,11.49,0,0,0-9,3.71c-5.12,5.25-10.41,10.52-15.52,15.61-4.74,4.74-9.65,9.64-14.43,14.52a9.45,9.45,0,0,1-7.4,3.16h-.14c-8.28-.08-16.68-.09-23.81-.09H69.31q-7.47,0-15,0h-.23c-3,0-5.53.32-7.2,4.23A9.72,9.72,0,0,1,37.82,1207.75Zm-.42-19.37a8.47,8.47,0,1,0,.06,0Z"/><path class="cls-53" d="M1057.73,980.44a9.84,9.84,0,0,1-8.84-5.12c-2.06-3.83-4.78-4.14-7.87-4.14h-.25q-12.13.06-24.26.05H879.1q-12.14,0-24.26-.05h-.25c-3.09,0-5.81.31-7.87,4.14a9.84,9.84,0,0,1-8.84,5.12h0a12,12,0,0,1-3.44-.52,10.83,10.83,0,0,1-7.5-10.34,10.35,10.35,0,0,1,7.14-10.14,10.85,10.85,0,0,1,3.92-.73,9.53,9.53,0,0,1,8.44,4.81c2.13,3.67,4.71,4.39,8.45,4.39,15.69,0,32.27-.07,53.87-.07h78.09c21.6,0,38.18,0,53.78.07,3.83,0,6.41-.72,8.54-4.39a9.53,9.53,0,0,1,8.44-4.81,10.65,10.65,0,0,1,3.92.74,10.33,10.33,0,0,1,7.14,10.13,10.83,10.83,0,0,1-7.5,10.34A12,12,0,0,1,1057.73,980.44Z"/><path class="cls-54" d="M97.82,867.8a11.7,11.7,0,0,1-8.37-3.68,10.62,10.62,0,0,1-2.91-7.83,10.74,10.74,0,0,1,3.62-7.6,11.4,11.4,0,0,1,7.47-2.85,9.07,9.07,0,0,1,8,4.33c2.78,4.61,6.22,5,9.8,5h.75c3,0,6.17-.06,9.76-.06,4.21,0,8.42,0,12.63.06l6.58,0h1.47c1.9,0,2.23.4,2.3,1.38a1.8,1.8,0,0,1-.3,1.38c-.57.61-2.09.61-3.32.62H122.18c-1.41,0-2.82,0-4.23,0h-1.51c-4.23,0-8.3.43-11.59,5.61a8,8,0,0,1-7,3.66Z"/></g><path class="cls-55" d="M1738.69,821.14a28.18,28.18,0,0,0,10.61,5.29,261.88,261.88,0,0,1-13.57-31.26,25.89,25.89,0,0,0,11.64,6.55,249.26,249.26,0,0,1-14.16-33.5,17.4,17.4,0,0,0,6.88,3.56c-9.36-17.86-14.56-39.28-14.56-39.28s-5.19,21.42-14.55,39.28a17.31,17.31,0,0,0,6.91-3.59,248.39,248.39,0,0,1-14.17,33.53,25.89,25.89,0,0,0,11.64-6.55,261.88,261.88,0,0,1-13.57,31.26,28.18,28.18,0,0,0,10.61-5.29A299.16,299.16,0,0,1,1697.51,855a33.17,33.17,0,0,0,15.52-9c4.51-4.76,12.52,21,12.52,21s8-25.75,12.51-21a33.17,33.17,0,0,0,15.52,9A301,301,0,0,1,1738.69,821.14Z"/><path class="cls-56" d="M1801.72,795.57a34.71,34.71,0,0,0,13.06,6.52,320.82,320.82,0,0,1-16.7-38.47,31.85,31.85,0,0,0,14.32,8A307.16,307.16,0,0,1,1795,730.45a21.33,21.33,0,0,0,8.47,4.38c-11.51-22-17.91-48.33-17.91-48.33s-6.4,26.36-17.91,48.33a21.41,21.41,0,0,0,8.51-4.41,308.13,308.13,0,0,1-17.44,41.25,31.8,31.8,0,0,0,14.32-8,320.82,320.82,0,0,1-16.7,38.47,34.78,34.78,0,0,0,13.07-6.52,370.26,370.26,0,0,1-18.33,41.66,40.82,40.82,0,0,0,19.1-11.06c5.54-5.86,15.4,25.83,15.4,25.83s9.85-31.69,15.39-25.83a40.82,40.82,0,0,0,19.1,11.06A368.34,368.34,0,0,1,1801.72,795.57Z"/><path class="cls-57" d="M1854.61,807.89a26,26,0,0,0,9.75,4.86,240.32,240.32,0,0,1-12.46-28.7,23.69,23.69,0,0,0,10.68,6,228.64,228.64,0,0,1-13-30.75,15.89,15.89,0,0,0,6.32,3.26c-8.59-16.39-13.36-36.06-13.36-36.06s-4.78,19.67-13.37,36.06a15.81,15.81,0,0,0,6.35-3.29,230.36,230.36,0,0,1-13,30.78,23.69,23.69,0,0,0,10.68-6,238.71,238.71,0,0,1-12.46,28.7,26,26,0,0,0,9.75-4.86A277.36,277.36,0,0,1,1816.81,839a30.36,30.36,0,0,0,14.24-8.26c4.14-4.37,11.5,19.28,11.5,19.28s7.35-23.65,11.49-19.28a30.36,30.36,0,0,0,14.25,8.26A275.65,275.65,0,0,1,1854.61,807.89Z"/><path class="cls-58" d="M1641.62,927.09S1673.92,871,1742.71,850s177.79,14,177.79,14v154S1623.75,1046.17,1641.62,927.09Z"/><path class="cls-59" d="M0,768s56.5-34,103.5-77,101-43,148,0,23,145,23,145-175,155-222,98S0,862.81,0,862.81Z"/><path class="cls-60" d="M87.5,944s53-33,82-72,78-72,137-50,59,102,59,102,75-32,141,20,139,154,240,192,243,89,377,79,191-65,255-120,142-179,237-172S1851,1040.31,1920,991.65V1377H0Z"/><path class="cls-61" d="M1920,984s-77.5,8-82.5,87,0,203,0,203l82.5-3.44Z"/><path class="cls-62" d="M678.5,1307s31,15,128-20,171-92,233-94,97,54,92,144-467.84,76.37-471.42,41.68S678.5,1307,678.5,1307Z"/><path class="cls-63" d="M0,846s35.5-7,69.5,25,32,63,32,63,52-7,79,40-23,112-23,112H0Z"/><path class="cls-64" d="M0,959s70.5,21,56.5,101c0,0,41-44,110,5s51,107,51,107,44.81-37.24,82-12c28,19,27,41,27,41s18-28,43-9,23,48,25,79c0,0,47-28,81-9,0,0,58.14-44.4,95-13,27,23,25,51,25,51s51-30,87,0,23,78.68,23,78.68H0Z"/><path class="cls-65" d="M1416.5,1308s11-51,46-28c0,0,3-77,98-67s110,116,110,116l-107,48Z"/><path class="cls-66" d="M1862.78,1250.85a73.71,73.71,0,0,0,28.47,15.19c-14.46-29.54-26.66-61.16-36.38-89.71a67.92,67.92,0,0,0,31.2,18.78c-15.66-32-28.42-66.58-38-96.12a45.19,45.19,0,0,0,18.46,10.21c-25.09-51.23-39-112.7-39-112.7s-14,61.47-39,112.7a45.22,45.22,0,0,0,18.55-10.28c-9.57,29.55-22.34,64.2-38,96.19a67.92,67.92,0,0,0,31.2-18.78c-9.72,28.55-21.91,60.17-36.38,89.71a73.71,73.71,0,0,0,28.47-15.19c-11,31.34-24.32,65.27-39.94,97.15a87.25,87.25,0,0,0,41.62-25.8c12.08-13.66,33.56-13.66,33.56-13.66s21.47,0,33.56,13.66a87.2,87.2,0,0,0,41.61,25.8C1887.1,1316.12,1873.73,1282.19,1862.78,1250.85Z"/><path class="cls-67" d="M1761.43,1322.81a83.65,83.65,0,0,0,31.42,15.66c-16-30.46-29.42-63.07-40.16-92.51a76.59,76.59,0,0,0,34.44,19.36c-17.28-33-31.36-68.66-41.91-99.12a51.24,51.24,0,0,0,20.37,10.53c-27.69-52.83-43.08-116.23-43.08-116.23s-15.38,63.4-43.07,116.23a51.29,51.29,0,0,0,20.46-10.61c-10.55,30.47-24.64,66.21-41.93,99.2A76.58,76.58,0,0,0,1692.4,1246c-10.74,29.44-24.19,62-40.16,92.51a83.65,83.65,0,0,0,31.42-15.66c-12.08,32.32-26.84,67.31-44.07,100.19,0,0,25.91-5.46,45.92-26.61,13.33-14.09,37-14.09,37-14.09s23.7,0,37,14.09c20,21.15,45.92,26.61,45.92,26.61C1788.27,1390.12,1773.51,1355.13,1761.43,1322.81Z"/><path class="cls-68" d="M711.5,1393s169-18,356-60,248-69,397-20,206,122,206,122h-959Z"/><path class="cls-69" d="M1662.86,1279.73a119.11,119.11,0,0,0,42.66,19.27c-21.68-37.48-40-77.6-54.53-113.83,20.88,18.88,46.76,23.83,46.76,23.83-23.46-40.55-42.58-84.48-56.92-122a72.91,72.91,0,0,0,27.67,13c-37.61-65-58.5-143-58.5-143s-20.89,78-58.5,143a72.89,72.89,0,0,0,27.79-13c-14.33,37.49-33.46,81.46-57,122,0,0,25.88-5,46.76-23.83-14.57,36.23-32.85,76.35-54.53,113.83a119.11,119.11,0,0,0,42.66-19.27c-16.4,39.76-36.44,82.82-59.84,123.27,0,0,35.18-6.72,62.36-32.74,18.11-17.33,50.3-17.33,50.3-17.33s32.18,0,50.29,17.33c27.18,26,62.36,32.74,62.36,32.74C1699.3,1362.55,1679.27,1319.49,1662.86,1279.73Z"/><path class="cls-70" d="M163.23,1207.3a78.41,78.41,0,0,0,27.5,12c-14-23.32-25.75-48.28-35.14-70.82,13.45,11.75,30.13,14.82,30.13,14.82-15.12-25.23-27.44-52.56-36.68-75.87a48,48,0,0,0,17.83,8c-24.24-40.44-37.7-89-37.7-89s-13.47,48.53-37.71,89a47.85,47.85,0,0,0,17.92-8.12c-9.24,23.33-21.58,50.69-36.71,75.94,0,0,16.68-3.07,30.14-14.82-9.4,22.54-21.18,47.5-35.15,70.82a78.34,78.34,0,0,0,27.5-12C84.58,1232,71.67,1258.83,56.58,1284c0,0,22.68-4.18,40.2-20.37,11.67-10.78,32.42-10.78,32.42-10.78s20.74,0,32.41,10.78c17.52,16.19,40.2,20.37,40.2,20.37C186.72,1258.83,173.81,1232,163.23,1207.3Z"/><path class="cls-71" d="M245.92,1248.22a59.18,59.18,0,0,0,20.38,10,418.9,418.9,0,0,1-24.19-54.68,53.63,53.63,0,0,0,22.28,12.21c-10.59-19.57-19-40.63-25.18-58.56a36.14,36.14,0,0,0,13.2,6.69c-17-31.37-25.51-68.49-25.51-68.49s-11.8,36.22-31.47,66a36.2,36.2,0,0,0,13.81-5.53c-7.76,17.31-18,37.57-30.28,56.14a53.42,53.42,0,0,0,23.27-10.19,419.67,419.67,0,0,1-28.92,52.34,59.21,59.21,0,0,0,21.17-8.14,483.23,483.23,0,0,1-31.71,56.66s17.28-2.4,31.06-14c9.17-7.76,24.85-7.06,24.85-7.06s15.67.69,24.13,9.23c12.69,12.82,29.69,16.74,29.69,16.74A483.42,483.42,0,0,1,245.92,1248.22Z"/><path class="cls-72" d="M0,1226s133.5,13,316.5,69,659,139,885,133,369-72,469-104,154.5-70,249.5-87v203H0Z"/><path class="cls-73" d="M1812.69,558.2l-5.15-14.34a15.2,15.2,0,0,0-9.32-9.23l-14.39-5,14.33-5.15a15.2,15.2,0,0,0,9.23-9.32l5-14.39,5.15,14.33a15.18,15.18,0,0,0,9.32,9.23l14.39,5-14.33,5.15a15.2,15.2,0,0,0-9.23,9.32Z"/><path class="cls-74" d="M1900.1,655.46l-1.79-5a5.28,5.28,0,0,0-3.23-3.2l-5-1.73,5-1.79a5.27,5.27,0,0,0,3.2-3.24l1.73-5,1.79,5a5.31,5.31,0,0,0,3.23,3.2l5,1.73-5,1.78a5.27,5.27,0,0,0-3.2,3.24Z"/><path class="cls-75" d="M90.62,407l-1.17-3.25a3.43,3.43,0,0,0-2.11-2.08l-3.26-1.13,3.25-1.17a3.44,3.44,0,0,0,2.09-2.11L90.55,394l1.16,3.25a3.44,3.44,0,0,0,2.11,2.09l3.26,1.13-3.24,1.16a3.44,3.44,0,0,0-2.09,2.11Z"/><path class="cls-76" d="M1684.1,549.46l-1.79-5a5.28,5.28,0,0,0-3.23-3.2l-5-1.73,5-1.79a5.27,5.27,0,0,0,3.2-3.24l1.73-5,1.79,5a5.31,5.31,0,0,0,3.23,3.2l5,1.73-5,1.78a5.27,5.27,0,0,0-3.2,3.24Z"/><path class="cls-77" d="M1542.69,672.36l-4.68-13a13.79,13.79,0,0,0-8.47-8.39l-13.07-4.53,13-4.68a13.79,13.79,0,0,0,8.39-8.47l4.53-13.07,4.67,13a13.83,13.83,0,0,0,8.48,8.39l13.07,4.53-13,4.67a13.8,13.8,0,0,0-8.39,8.48Z"/><path class="cls-78" d="M1684.59,434.13l-3-8.5a9,9,0,0,0-5.53-5.47l-8.53-3,8.5-3.05a9,9,0,0,0,5.47-5.52l3-8.53,3,8.49a9,9,0,0,0,5.53,5.47l8.53,3-8.5,3.05a9,9,0,0,0-5.47,5.53Z"/><path class="cls-79" d="M380.1,549.46l-1.79-5a5.28,5.28,0,0,0-3.23-3.2l-5-1.73,5-1.79a5.27,5.27,0,0,0,3.2-3.24l1.73-5,1.79,5a5.31,5.31,0,0,0,3.23,3.2l5,1.73-5,1.78a5.27,5.27,0,0,0-3.2,3.24Z"/><path class="cls-80" d="M109.1,614.46l-2.59-7.21a7.66,7.66,0,0,0-4.7-4.65l-7.24-2.51,7.22-2.59a7.65,7.65,0,0,0,4.64-4.69l2.51-7.25,2.59,7.22a7.64,7.64,0,0,0,4.7,4.64l7.24,2.52-7.21,2.59a7.64,7.64,0,0,0-4.65,4.69Z"/><path class="cls-81" d="M236.59,514.13l-3.05-8.5a9,9,0,0,0-5.53-5.47l-8.53-3,8.5-3.05a9,9,0,0,0,5.47-5.52l3-8.53,3,8.49a9,9,0,0,0,5.53,5.47l8.53,3-8.5,3.05a9,9,0,0,0-5.47,5.53Z"/><path class="cls-82" d="M881.75,682.06v.06a6,6,0,0,1-6,5.94H526.51a6,6,0,0,1-5.7-4,50.76,50.76,0,0,1,79.84-56.18c-.1-1.58-.15-3.17-.15-4.78A78,78,0,0,1,755.2,608.8a40,40,0,0,1,68.3,28.26c0,.39,0,.77,0,1.15a45.67,45.67,0,0,1,58.26,43.85Z"/><path class="cls-83" d="M1344.06,753.89a30,30,0,0,1-2.53,15.15,6.75,6.75,0,0,1-6.14,4h-164.2a6.75,6.75,0,0,1-6.16-4,29,29,0,0,1,41.28-36.79,45.6,45.6,0,0,1,91.14-.65,30.11,30.11,0,0,1,46.61,22.35Z"/></g></g></svg>