<svg xmlns="http://www.w3.org/2000/svg" xmlns:xlink="http://www.w3.org/1999/xlink" viewBox="0 0 738 1302.41"><defs><style>.cls-1{fill:url(#linear-gradient);}.cls-2{opacity:0.1;}.cls-3{fill:url(#linear-gradient-2);}.cls-4{fill:url(#linear-gradient-3);}.cls-5{fill:url(#linear-gradient-4);}.cls-6{fill:url(#linear-gradient-5);}.cls-7{fill:url(#linear-gradient-6);}.cls-8{fill:url(#linear-gradient-7);}.cls-9{fill:url(#linear-gradient-8);}.cls-10{fill:url(#linear-gradient-9);}.cls-11{fill:url(#linear-gradient-10);}.cls-12{fill:url(#linear-gradient-11);}.cls-13{fill:url(#linear-gradient-12);}.cls-14{fill:url(#linear-gradient-13);}.cls-15{fill:url(#linear-gradient-14);}.cls-16{fill:url(#linear-gradient-15);}.cls-17{fill:url(#linear-gradient-16);}.cls-18{fill:url(#linear-gradient-17);}.cls-19{fill:url(#linear-gradient-18);}.cls-20{fill:url(#linear-gradient-19);}.cls-21{fill:url(#linear-gradient-20);}.cls-22{fill:url(#linear-gradient-21);}.cls-23{fill:url(#linear-gradient-22);}.cls-24{fill:url(#linear-gradient-23);}.cls-25{fill:url(#linear-gradient-24);}.cls-26{fill:url(#linear-gradient-25);}.cls-27{fill:url(#linear-gradient-26);}.cls-28{fill:url(#linear-gradient-27);}.cls-29{fill:url(#linear-gradient-28);}.cls-30{fill:url(#linear-gradient-29);}.cls-31{fill:url(#linear-gradient-30);}.cls-32{fill:url(#linear-gradient-31);}.cls-33{fill:url(#linear-gradient-32);}.cls-34{fill:url(#linear-gradient-33);}.cls-35{fill:url(#linear-gradient-34);}.cls-36{fill:url(#linear-gradient-35);}.cls-37{fill:url(#linear-gradient-36);}.cls-38{fill:url(#linear-gradient-37);}.cls-39{fill:url(#linear-gradient-38);}.cls-40{fill:url(#linear-gradient-39);}.cls-41{fill:url(#linear-gradient-40);}.cls-42{fill:url(#linear-gradient-41);}.cls-43{fill:url(#linear-gradient-42);}.cls-44{fill:url(#linear-gradient-43);}.cls-45{fill:url(#linear-gradient-44);}.cls-46{fill:url(#linear-gradient-45);}.cls-47{fill:url(#linear-gradient-46);}.cls-48{fill:url(#linear-gradient-47);}.cls-49{fill:url(#linear-gradient-48);}.cls-50{fill:url(#linear-gradient-49);}.cls-51{fill:url(#linear-gradient-50);}.cls-52{fill:url(#linear-gradient-51);}.cls-53{fill:url(#linear-gradient-52);}.cls-54{fill:url(#linear-gradient-53);}.cls-55{fill:url(#linear-gradient-54);}.cls-56{fill:url(#linear-gradient-55);}.cls-57{fill:url(#linear-gradient-56);}.cls-58{fill:url(#linear-gradient-57);}.cls-59{fill:url(#linear-gradient-58);}.cls-60{fill:url(#linear-gradient-59);}.cls-61{fill:url(#linear-gradient-60);}.cls-62{fill:url(#linear-gradient-61);}.cls-63{fill:url(#linear-gradient-62);}.cls-64{fill:url(#linear-gradient-63);}.cls-65{fill:url(#linear-gradient-64);}.cls-66{fill:url(#linear-gradient-65);}.cls-67{fill:url(#linear-gradient-66);}.cls-68{fill:url(#linear-gradient-67);}.cls-69{fill:url(#linear-gradient-68);}.cls-70{fill:url(#linear-gradient-69);}.cls-71{fill:url(#linear-gradient-70);}.cls-72{fill:url(#linear-gradient-71);}.cls-73{fill:url(#linear-gradient-72);}.cls-74{fill:url(#linear-gradient-73);}.cls-75{fill:url(#linear-gradient-74);}.cls-76{fill:url(#linear-gradient-75);}.cls-77{fill:url(#linear-gradient-76);}.cls-78{fill:url(#linear-gradient-77);}.cls-79{fill:url(#linear-gradient-78);}.cls-80{fill:url(#linear-gradient-79);}.cls-81{fill:url(#linear-gradient-80);}.cls-82{fill:url(#linear-gradient-81);}.cls-83{fill:url(#linear-gradient-82);}</style><linearGradient id="linear-gradient" x1="369" y1="1071.01" x2="369" y2="14.46" gradientUnits="userSpaceOnUse"><stop offset="0" stop-color="#2d70b4"/><stop offset="0.57" stop-color="#245897"/><stop offset="1" stop-color="#023769"/></linearGradient><linearGradient id="linear-gradient-2" x1="-425.46" y1="473.99" x2="634.69" y2="473.99" gradientTransform="translate(1048.97 491.66) rotate(90)" gradientUnits="userSpaceOnUse"><stop offset="0" stop-color="#fff" stop-opacity="0.1"/><stop offset="1" stop-color="#fff" stop-opacity="0.3"/></linearGradient><linearGradient id="linear-gradient-3" x1="-425.37" y1="646.67" x2="634.59" y2="646.67" xlink:href="#linear-gradient-2"/><linearGradient id="linear-gradient-4" x1="-421.67" y1="475.79" x2="634.5" y2="475.79" xlink:href="#linear-gradient-2"/><linearGradient id="linear-gradient-5" x1="-424.93" y1="500.71" x2="634.1" y2="500.71" xlink:href="#linear-gradient-2"/><linearGradient id="linear-gradient-6" x1="-420.73" y1="646.56" x2="634.05" y2="646.56" xlink:href="#linear-gradient-2"/><linearGradient id="linear-gradient-7" x1="-419.01" y1="588.99" x2="634.39" y2="588.99" xlink:href="#linear-gradient-2"/><linearGradient id="linear-gradient-8" x1="-417.84" y1="455.36" x2="634.5" y2="455.36" xlink:href="#linear-gradient-2"/><linearGradient id="linear-gradient-9" x1="-417.42" y1="646.72" x2="634.79" y2="646.72" xlink:href="#linear-gradient-2"/><linearGradient id="linear-gradient-10" x1="-416.1" y1="405.61" x2="634.82" y2="405.61" xlink:href="#linear-gradient-2"/><linearGradient id="linear-gradient-11" x1="-422.12" y1="518.41" x2="630.95" y2="518.41" xlink:href="#linear-gradient-2"/><linearGradient id="linear-gradient-12" x1="-422.12" y1="712.38" x2="630.95" y2="712.38" xlink:href="#linear-gradient-2"/><linearGradient id="linear-gradient-13" x1="-394.62" y1="617.81" x2="632.54" y2="617.81" xlink:href="#linear-gradient-2"/><linearGradient id="linear-gradient-14" x1="-419.29" y1="958.35" x2="641.63" y2="958.35" xlink:href="#linear-gradient-2"/><linearGradient id="linear-gradient-15" x1="-419.23" y1="990.11" x2="641.57" y2="990.11" xlink:href="#linear-gradient-2"/><linearGradient id="linear-gradient-16" x1="-419.02" y1="1027.04" x2="641.32" y2="1027.04" xlink:href="#linear-gradient-2"/><linearGradient id="linear-gradient-17" x1="-425.61" y1="793.95" x2="634.86" y2="793.95" xlink:href="#linear-gradient-2"/><linearGradient id="linear-gradient-18" x1="-415.18" y1="888.21" x2="641.04" y2="888.21" xlink:href="#linear-gradient-2"/><linearGradient id="linear-gradient-19" x1="-420.73" y1="738.22" x2="634.05" y2="738.22" xlink:href="#linear-gradient-2"/><linearGradient id="linear-gradient-20" x1="-419.01" y1="786.29" x2="634.38" y2="786.29" xlink:href="#linear-gradient-2"/><linearGradient id="linear-gradient-21" x1="-411.31" y1="900.91" x2="641.03" y2="900.91" xlink:href="#linear-gradient-2"/><linearGradient id="linear-gradient-22" x1="-417.42" y1="738.06" x2="634.79" y2="738.06" xlink:href="#linear-gradient-2"/><linearGradient id="linear-gradient-23" x1="-409.48" y1="948.29" x2="641.34" y2="948.29" xlink:href="#linear-gradient-2"/><linearGradient id="linear-gradient-24" x1="-394.62" y1="767.57" x2="632.54" y2="767.57" xlink:href="#linear-gradient-2"/><linearGradient id="linear-gradient-25" x1="-425.83" y1="387.83" x2="635.1" y2="387.83" xlink:href="#linear-gradient-2"/><linearGradient id="linear-gradient-26" x1="-425.77" y1="363.79" x2="635.03" y2="363.79" xlink:href="#linear-gradient-2"/><linearGradient id="linear-gradient-27" x1="-425.55" y1="332.2" x2="634.8" y2="332.2" xlink:href="#linear-gradient-2"/><linearGradient id="linear-gradient-28" x1="-425.61" y1="559.95" x2="634.86" y2="559.95" xlink:href="#linear-gradient-2"/><linearGradient id="linear-gradient-29" x1="-425.49" y1="475.79" x2="630.68" y2="475.79" xlink:href="#linear-gradient-2"/><linearGradient id="linear-gradient-30" x1="-425.13" y1="646.56" x2="629.66" y2="646.56" xlink:href="#linear-gradient-2"/><linearGradient id="linear-gradient-31" x1="-425.54" y1="588.99" x2="627.86" y2="588.99" xlink:href="#linear-gradient-2"/><linearGradient id="linear-gradient-32" x1="-425.71" y1="455.36" x2="626.63" y2="455.36" xlink:href="#linear-gradient-2"/><linearGradient id="linear-gradient-33" x1="-426.01" y1="646.72" x2="626.2" y2="646.72" xlink:href="#linear-gradient-2"/><linearGradient id="linear-gradient-34" x1="-424.7" y1="681.79" x2="633.84" y2="681.79" xlink:href="#linear-gradient-2"/><linearGradient id="linear-gradient-35" x1="-426.11" y1="405.61" x2="624.81" y2="405.61" xlink:href="#linear-gradient-2"/><linearGradient id="linear-gradient-36" x1="-425.18" y1="617.81" x2="601.97" y2="617.81" xlink:href="#linear-gradient-2"/><linearGradient id="linear-gradient-37" x1="-418.93" y1="879.91" x2="641.23" y2="879.91" xlink:href="#linear-gradient-2"/><linearGradient id="linear-gradient-38" x1="-425.37" y1="738.12" x2="634.59" y2="738.12" xlink:href="#linear-gradient-2"/><linearGradient id="linear-gradient-39" x1="-418.96" y1="888.21" x2="637.22" y2="888.21" xlink:href="#linear-gradient-2"/><linearGradient id="linear-gradient-40" x1="-418.41" y1="853.78" x2="640.64" y2="853.78" xlink:href="#linear-gradient-2"/><linearGradient id="linear-gradient-41" x1="-425.13" y1="738.22" x2="629.66" y2="738.22" xlink:href="#linear-gradient-2"/><linearGradient id="linear-gradient-42" x1="-425.53" y1="786.29" x2="627.86" y2="786.29" xlink:href="#linear-gradient-2"/><linearGradient id="linear-gradient-43" x1="-419.17" y1="900.91" x2="633.17" y2="900.91" xlink:href="#linear-gradient-2"/><linearGradient id="linear-gradient-44" x1="-411.31" y1="841.52" x2="641.03" y2="841.52" xlink:href="#linear-gradient-2"/><linearGradient id="linear-gradient-45" x1="-419.17" y1="841.52" x2="633.17" y2="841.52" xlink:href="#linear-gradient-2"/><linearGradient id="linear-gradient-46" x1="-411.31" y1="692.44" x2="641.03" y2="692.44" xlink:href="#linear-gradient-2"/><linearGradient id="linear-gradient-47" x1="-419.17" y1="692.44" x2="633.17" y2="692.44" xlink:href="#linear-gradient-2"/><linearGradient id="linear-gradient-48" x1="-411.31" y1="532.08" x2="641.03" y2="532.08" xlink:href="#linear-gradient-2"/><linearGradient id="linear-gradient-49" x1="-419.17" y1="532.08" x2="633.17" y2="532.08" xlink:href="#linear-gradient-2"/><linearGradient id="linear-gradient-50" x1="-426.01" y1="738.06" x2="626.17" y2="738.06" xlink:href="#linear-gradient-2"/><linearGradient id="linear-gradient-51" x1="-419.58" y1="948.29" x2="631.34" y2="948.29" xlink:href="#linear-gradient-2"/><linearGradient id="linear-gradient-52" x1="-422.11" y1="830.14" x2="630.94" y2="830.14" xlink:href="#linear-gradient-2"/><linearGradient id="linear-gradient-53" x1="-425.17" y1="767.57" x2="601.97" y2="767.57" xlink:href="#linear-gradient-2"/><linearGradient id="linear-gradient-54" x1="638.94" y1="974.21" x2="638.94" y2="1024.35" gradientUnits="userSpaceOnUse"><stop offset="0" stop-color="#59a0e6"/><stop offset="0.99" stop-color="#2d70b4"/></linearGradient><linearGradient id="linear-gradient-55" x1="662.02" y1="968.97" x2="662.02" y2="1018.24" xlink:href="#linear-gradient-54"/><linearGradient id="linear-gradient-56" x1="683.94" y1="973.05" x2="683.94" y2="1018.52" xlink:href="#linear-gradient-54"/><linearGradient id="linear-gradient-57" x1="668.74" y1="951.49" x2="668.74" y2="1081.5" xlink:href="#linear-gradient-54"/><linearGradient id="linear-gradient-58" x1="59.3" y1="1011.7" x2="-83.45" y2="1555.53" gradientUnits="userSpaceOnUse"><stop offset="0" stop-color="#2d70b4"/><stop offset="1" stop-color="#204e8a"/></linearGradient><linearGradient id="linear-gradient-59" x1="369.49" y1="1199.94" x2="369.49" y2="1016.88" xlink:href="#linear-gradient-58"/><linearGradient id="linear-gradient-60" x1="699.03" y1="1098.47" x2="764.61" y2="1172.31" xlink:href="#linear-gradient-58"/><linearGradient id="linear-gradient-61" x1="413.36" y1="1236.31" x2="305.31" y2="983.49" xlink:href="#linear-gradient-58"/><linearGradient id="linear-gradient-62" x1="19.71" y1="1032.91" x2="199.68" y2="741.66" xlink:href="#linear-gradient-58"/><linearGradient id="linear-gradient-63" x1="225.04" y1="1285.04" x2="-9.12" y2="1061.06" xlink:href="#linear-gradient-58"/><linearGradient id="linear-gradient-64" x1="598.83" y1="1220.81" x2="598.83" y2="1156.34" gradientTransform="translate(47.35 -32.32) rotate(3.69)" gradientUnits="userSpaceOnUse"><stop offset="0" stop-color="#2742a9"/><stop offset="1" stop-color="#023769"/></linearGradient><linearGradient id="linear-gradient-65" x1="696.59" y1="1279.36" x2="696.59" y2="1137.71" gradientTransform="matrix(1, 0, 0, 1, 0, 0)" xlink:href="#linear-gradient-64"/><linearGradient id="linear-gradient-66" x1="657.52" y1="1288.58" x2="657.52" y2="1122.89" gradientTransform="matrix(1, 0, 0, 1, 0, 0)" xlink:href="#linear-gradient-64"/><linearGradient id="linear-gradient-67" x1="512.94" y1="1004.66" x2="438.71" y2="1378.97" gradientTransform="matrix(1, 0, 0, 1, 0, 0)" xlink:href="#linear-gradient-64"/><linearGradient id="linear-gradient-68" x1="609" y1="1365.6" x2="609" y2="1167.89" gradientTransform="matrix(1, 0, 0, 1, 0, 0)" xlink:href="#linear-gradient-64"/><linearGradient id="linear-gradient-69" x1="92.13" y1="1273.27" x2="92.13" y2="1131.62" gradientTransform="matrix(1, 0, 0, 1, 0, 0)" xlink:href="#linear-gradient-64"/><linearGradient id="linear-gradient-70" x1="128.77" y1="1275.9" x2="128.77" y2="1134.25" gradientTransform="matrix(1, 0, 0, 1, 0, 0)" xlink:href="#linear-gradient-64"/><linearGradient id="linear-gradient-71" x1="369" y1="1430.7" x2="369" y2="1257.87" gradientTransform="matrix(1, 0, 0, 1, 0, 0)" xlink:href="#linear-gradient-64"/><linearGradient id="linear-gradient-72" x1="646.09" y1="672.23" x2="646.09" y2="645.98" xlink:href="#linear-gradient-54"/><linearGradient id="linear-gradient-73" x1="661.33" y1="744.59" x2="661.33" y2="735.48" xlink:href="#linear-gradient-54"/><linearGradient id="linear-gradient-74" x1="53.6" y1="726.06" x2="53.6" y2="720.12" xlink:href="#linear-gradient-54"/><linearGradient id="linear-gradient-75" x1="694.02" y1="877.45" x2="694.02" y2="868.35" xlink:href="#linear-gradient-54"/><linearGradient id="linear-gradient-76" x1="581.72" y1="739.36" x2="581.72" y2="715.52" xlink:href="#linear-gradient-54"/><linearGradient id="linear-gradient-77" x1="648.15" y1="823.78" x2="648.15" y2="808.22" xlink:href="#linear-gradient-54"/><linearGradient id="linear-gradient-78" x1="163.6" y1="806.42" x2="163.6" y2="797.31" xlink:href="#linear-gradient-54"/><linearGradient id="linear-gradient-79" x1="173.81" y1="896.64" x2="173.81" y2="883.43" xlink:href="#linear-gradient-54"/><linearGradient id="linear-gradient-80" x1="72.88" y1="840.07" x2="72.88" y2="824.52" xlink:href="#linear-gradient-54"/><linearGradient id="linear-gradient-81" x1="269.5" y1="697.58" x2="269.5" y2="814.34" xlink:href="#linear-gradient-58"/><linearGradient id="linear-gradient-82" x1="482.34" y1="799.44" x2="482.34" y2="860.87" xlink:href="#linear-gradient-58"/></defs><g id="Layer_2" data-name="Layer 2"><g id="Layer_2-2" data-name="Layer 2"><rect class="cls-1" width="738" height="1302.41"/><g class="cls-2"><path class="cls-3" d="M550.65,842.7a5.21,5.21,0,0,1,2.61-4.7c2.3-1.26,2.49-3,2.49-4.93v-.14q0-9.55,0-19.12c0-8.58,0-17.45-.05-26.18v-.07a6.64,6.64,0,0,1,2.14-5.22c6.26-6.2,12.59-12.53,18.72-18.66s12.25-12.26,18.41-18.36a7.44,7.44,0,0,0,2.39-5.84c0-27.59,0-56.19,0-85q0-40.74,0-81.47v-.14l-.06-.12a2.06,2.06,0,0,1-.14-.84,11.1,11.1,0,0,1,.11-1.26c0-.36.08-.7.09-1V563c0-.33-.05-.67-.09-1a11.1,11.1,0,0,1-.11-1.26,2.06,2.06,0,0,1,.14-.84l.06-.12v-.14q0-40.74,0-81.47c0-28.82,0-57.42,0-85a7.56,7.56,0,0,0-2.39-5.85c-6.16-6.1-12.39-12.33-18.42-18.37s-12.45-12.45-18.71-18.65a6.64,6.64,0,0,1-2.14-5.22V345c.05-8.73.05-17.6.05-26.18q0-9.55,0-19.12v-.14c0-1.95-.19-3.67-2.49-4.94a5.19,5.19,0,0,1-2.61-4.69A6.37,6.37,0,0,1,551,288a6,6,0,0,1,5.77-4.16,5.77,5.77,0,0,1,5.63,4,5.89,5.89,0,0,1,.39,2.11,5.35,5.35,0,0,1-2.72,4.75c-2.26,1.25-2.45,2.93-2.45,4.69v.07q0,11,0,22.07c0,8.14,0,15.54-.06,22.61v.06a7.17,7.17,0,0,0,2.36,5.5c5.69,5.65,11.45,11.41,17,17,6.58,6.59,13.39,13.39,20.12,20.05a6.72,6.72,0,0,1,2.14,5.25c0,18.71,0,37.13,0,52.69v62.77c0,16.46,0,34.17,0,52.15v.14l.06.12a1.88,1.88,0,0,1,.14.8,11.51,11.51,0,0,1-.11,1.26c0,.3-.08.59-.09.86v7c0,.31.06.6.1.9a11.51,11.51,0,0,1,.11,1.26,1.91,1.91,0,0,1-.14.8l-.06.12V573c0,18,0,35.69,0,52.15V688c0,15.56,0,34,0,52.66a6.74,6.74,0,0,1-2.14,5.28c-6.73,6.65-13.53,13.45-20.1,20-5.58,5.58-11.34,11.34-17,17a7.18,7.18,0,0,0-2.36,5.5v.06c0,7.07.06,14.47.06,22.61q0,11,0,22.06v.08c0,1.75.19,3.44,2.45,4.69a5.35,5.35,0,0,1,2.72,4.75,5.89,5.89,0,0,1-.39,2.11,5.76,5.76,0,0,1-5.63,4,6,6,0,0,1-5.77-4.17A6.26,6.26,0,0,1,550.65,842.7Z"/><path class="cls-4" d="M416.06,561.69c0-.28,0-.58,0-.86a3.17,3.17,0,0,0-.06-.68V560q0-40.66,0-81.33V428.92c0-17.34,0-37.87.06-58.61a7.59,7.59,0,0,0-2.55-6c-3.05-2.93-6.09-6-9-8.92-2.3-2.31-4.69-4.7-7.07-7a6.13,6.13,0,0,1-2-4.7v-.09c0-2.91.05-5.89.05-9.1,0-3.57,0-7.38-.06-11.67v-.08a3.75,3.75,0,0,1,2-3.67,5.79,5.79,0,0,0,3.12-5,6.14,6.14,0,0,0-.26-1.72,6,6,0,0,0-11.5-.19,6.2,6.2,0,0,0-.31,1.91,5.6,5.6,0,0,0,2.93,4.87,4,4,0,0,1,2.07,4V323c0,1,0,1.93,0,2.9,0,1.87,0,3.74,0,5.61s0,3.75,0,5.62c0,2.68,0,4.89,0,7v.16a6.24,6.24,0,0,0,2.09,4.86c2.31,2.26,4.62,4.59,6.86,6.84,2.85,2.87,5.8,5.83,8.76,8.68a8.76,8.76,0,0,1,2.94,6.9c-.05,34.39-.06,68.4-.06,108.88v65.24q0,7.15,0,14.32V560l0,.07a2.87,2.87,0,0,0-.06.65c0,.3,0,.62.05.94l0,.41v8.51l0,.37c0,.32-.05.64-.05.94a2.93,2.93,0,0,0,.06.65l0,.07v.07q0,7.15,0,14.32v65.24c0,40.48,0,74.49.06,108.9a8.75,8.75,0,0,1-2.94,6.88c-3,2.85-5.91,5.81-8.76,8.68-2.24,2.25-4.55,4.58-6.86,6.84a6.24,6.24,0,0,0-2.09,4.86v.16c0,2.08,0,4.29,0,7,0,1.87,0,3.75,0,5.62s0,3.74,0,5.61c0,1,0,1.93,0,2.9v.07a4,4,0,0,1-2.07,4,5.6,5.6,0,0,0-2.93,4.87,6.2,6.2,0,0,0,.31,1.91,6,6,0,0,0,11.5-.19,6.14,6.14,0,0,0,.26-1.72,5.79,5.79,0,0,0-3.12-5,3.75,3.75,0,0,1-2-3.67v-.08c0-4.29.06-8.1.06-11.67,0-3.21,0-6.19-.05-9.1V789a6.13,6.13,0,0,1,2-4.7c2.38-2.32,4.76-4.7,7.06-7,2.94-2.95,6-6,9-8.93a7.62,7.62,0,0,0,2.55-6.07c-.05-20.7-.06-41.22-.06-58.57V654q0-40.66,0-81.33v-.13a3.17,3.17,0,0,0,.06-.68c0-.28,0-.58,0-.86s0-.42,0-.63v-8C416,562.11,416.05,561.9,416.06,561.69ZM391.31,317.31A4.68,4.68,0,0,1,389.8,314v-.17a4.76,4.76,0,0,1,4.58-4.71,4.83,4.83,0,0,1,4.93,4.55v.17a4.78,4.78,0,0,1-4.6,4.71A4.67,4.67,0,0,1,391.31,317.31Zm8,501.48V819a4.83,4.83,0,0,1-4.93,4.55,4.76,4.76,0,0,1-4.58-4.71v-.17a4.75,4.75,0,0,1,4.91-4.56A4.8,4.8,0,0,1,399.31,818.79Z"/><path class="cls-5" d="M586.92,865.46s0-19.11,0-22.86V795.76c0-1,0-2.06,0-3.09a1.46,1.46,0,0,0-.31-1.06.9.9,0,0,0-.66-.18c-.2,0-.82,0-.83,1.15,0,.92,0,1.85,0,2.78v35.8c0,17.06,0,37.24,0,57.59a6.79,6.79,0,0,1-2.16,5.31c-2.24,2.17-4.48,4.43-6.64,6.61-2.85,2.87-5.8,5.85-8.79,8.67a9,9,0,0,0-3.12,7.25v.12c.08,11,.09,21.87.09,31.91v18.27c0,3.75,0,7.5,0,11.29,0,1.86-.19,3.5-2.43,4.74a5.26,5.26,0,0,0-2.7,4.7,6,6,0,0,0,.41,2.16,5.74,5.74,0,0,0,5.62,4,6,6,0,0,0,5.76-4.18,6.31,6.31,0,0,0,.3-1.92,5.46,5.46,0,0,0-2.86-4.88c-1.88-1-2.25-2.33-2.25-4.24q0-15,0-30,0-16.35,0-32.71a5.78,5.78,0,0,1,1.86-4.48c2.48-2.43,5-4.94,7.39-7.36,3-3,6.19-6.21,9.34-9.26a6.2,6.2,0,0,0,2-4.94v-.07C586.94,882.79,586.92,875.29,586.92,865.46ZM570.2,987.78a4.07,4.07,0,0,1,0,.5,4.74,4.74,0,0,1-5.21,4.18,4.62,4.62,0,0,1-4.2-4.69c0-.16,0-.32,0-.48a4.63,4.63,0,0,1,1.73-3.2,4.54,4.54,0,0,1,3.44-1A4.84,4.84,0,0,1,570.2,987.78Z"/><path class="cls-6" d="M562,572.74a2.3,2.3,0,0,0,.08-.65,8.37,8.37,0,0,0-.07-1c0-.16,0-.32,0-.51V562c0-.15,0-.31,0-.47a8.37,8.37,0,0,0,.07-1,2.3,2.3,0,0,0-.08-.65l0-.09v-.09q0-7.79,0-15.58s0-36.35,0-40c0-6.3,0-14.62,0-23.15a5.6,5.6,0,0,0-1.82-4.42c-3-2.93-6-5.95-9-8.88-2.54-2.55-5.17-5.18-7.78-7.74a6.12,6.12,0,0,1-2.06-4.73q0-13.44,0-26.87,0-17.91,0-35.85a4.25,4.25,0,0,1,2.3-4.2,5.78,5.78,0,0,0,2.51-6.83,6.12,6.12,0,0,0-5.82-4.11,5.75,5.75,0,0,0-5.57,4.08,5.91,5.91,0,0,0-.38,2.06,5.47,5.47,0,0,0,2.81,4.77c2,1.15,2.36,2.56,2.36,4.5h0q0,13.26,0,26.53c0,11.85,0,24.1-.07,36.21a6.89,6.89,0,0,0,2.33,5.46c2.81,2.71,5.61,5.52,8.32,8.24,2.53,2.54,5.15,5.17,7.77,7.71a7.11,7.11,0,0,1,2.27,5.59c0,13.71,0,27.92,0,43.43q0,16.86,0,33.71v.1l0,.1a2.14,2.14,0,0,0-.09.69c0,.32,0,.66.07,1s0,.46.06.7v8.1c0,.21,0,.44-.06.67s-.07.68-.07,1a2.14,2.14,0,0,0,.09.69l0,.1v.1q0,16.86,0,33.71v.08c0,15.48,0,29.66,0,43.38a7.09,7.09,0,0,1-2.27,5.56c-2.62,2.53-5.24,5.16-7.77,7.7-2.7,2.73-5.51,5.54-8.32,8.25a6.91,6.91,0,0,0-2.33,5.51c.06,12.06.07,24.31.07,36.16,0,8.85,0,17.69,0,26.58,0,1.9-.39,3.31-2.36,4.46a5.47,5.47,0,0,0-2.81,4.77,5.91,5.91,0,0,0,.38,2.06,5.75,5.75,0,0,0,5.57,4.08,6.12,6.12,0,0,0,5.82-4.11,5.78,5.78,0,0,0-2.51-6.83,4.27,4.27,0,0,1-2.3-4.23q0-17.91,0-35.82,0-13.43,0-26.89a6.1,6.1,0,0,1,2.06-4.71c2.61-2.56,5.24-5.19,7.78-7.74,2.92-2.93,5.94-5.95,9-8.88a5.63,5.63,0,0,0,1.82-4.47c0-8.48,0-16.8,0-23.1,0-3.62,0-40,0-40q0-7.79,0-15.58v-.09ZM535.81,383.37a4.75,4.75,0,0,1,1.42-3.38,4.58,4.58,0,0,1,3.32-1.33,4.84,4.84,0,0,1,4.73,4.71v.06a4.68,4.68,0,0,1-4.79,4.64A4.55,4.55,0,0,1,535.81,383.37Zm9.46,365.85v0h0a4.84,4.84,0,0,1-4.73,4.71,4.58,4.58,0,0,1-3.32-1.33,4.76,4.76,0,0,1-1.42-3.39,4.55,4.55,0,0,1,4.67-4.69A4.68,4.68,0,0,1,545.27,749.22Z"/><path class="cls-7" d="M388.57,949.9a5.12,5.12,0,0,1,2.33-4.41c2.57-1.65,2.78-3.59,2.78-5.77v-.09q0-14.49,0-29c0-10.74,0-21.84-.05-32.76a6.65,6.65,0,0,1,2.17-5.3c2.84-2.74,5.67-5.59,8.41-8.34,2.58-2.58,5.24-5.25,7.89-7.83a7.08,7.08,0,0,0,2.29-5.55c0-8.87-.06-17.91-.06-27.7,0-8.92,0-18.35,0-28.82h0c0-.32,0-.65-.07-1a9,9,0,0,1-.08-1c0-.87.24-1.13,1-1.14a1.14,1.14,0,0,1,.78.22,1.45,1.45,0,0,1,.26,1c0,.3,0,.62-.05.94s-.06.63-.06.91c0,4.3,0,8.86,0,14.83v14.36q0,3.78,0,7.56c0,2.62,0,5.25,0,7.87,0,5,0,9.1.08,12.82v.16a6.78,6.78,0,0,1-2.34,5.35c-2.8,2.7-5.59,5.51-8.29,8.23-2.47,2.48-5,5-7.56,7.52a7.41,7.41,0,0,0-2.5,5.77c0,9.67.07,19.85.07,31.18q0,15.15,0,30.32h0c0,1.94.19,3.62,2.55,5a5.21,5.21,0,0,1,2.57,4.6,6.22,6.22,0,0,1-1.48,4,6,6,0,0,1-4.32,2.15,5.88,5.88,0,0,1-4.46-1.7,6.28,6.28,0,0,1-1.86-4.43Z"/><path class="cls-8" d="M446.18,922.3c0-.14,0-.27,0-.41.07-2.14.1-4.46.1-7.3,0-1.64,0-3.29,0-4.93s0-3.29,0-4.93V895q0-5.16,0-10.32h0c0-.19,0-.34,0-.51s0-.31,0-.47a1.61,1.61,0,0,1,.24-1.06,1,1,0,0,1,.69-.19c.74,0,1,.24,1,1.58v7.14q0,6.81,0,13.61c0,6.59,0,12-.05,17.11v.07a6.74,6.74,0,0,0,2.22,5.25c2.55,2.48,5.11,5.05,7.58,7.53,2.84,2.85,5.77,5.8,8.72,8.64a6.59,6.59,0,0,1,2.12,5.23c-.05,10.94-.05,22-.05,32.72q0,12.38,0,24.73c0,2.08.41,3.58,2.46,4.77a5.26,5.26,0,0,1,2.62,4.67,6.27,6.27,0,0,1-.32,1.95,6,6,0,0,1-11.46-.07,6.64,6.64,0,0,1-.27-1.86,5.37,5.37,0,0,1,2.91-4.92c2.08-1.09,2.25-2.61,2.25-4.2q0-14.16,0-28.24c0-10.53,0-20,0-28.88a6.48,6.48,0,0,0-2.09-5c-2.3-2.24-4.59-4.55-6.81-6.79-3-3-6.13-6.17-9.28-9.17A7.54,7.54,0,0,1,446.18,922.3Z"/><path class="cls-9" d="M587.56,1038.29a5.28,5.28,0,0,1,2.74-4.73c2.25-1.22,2.43-2.87,2.43-4.75q0-23.16,0-46.28c0-21.23,0-40.51,0-58.94a10.75,10.75,0,0,0-.11-1.19,11,11,0,0,1-.11-1.24,1.29,1.29,0,0,1,.26-.95,1.17,1.17,0,0,1,.88-.22c.69,0,1.07.23,1.07,1.31a11.05,11.05,0,0,1-.1,1.25,10.46,10.46,0,0,0-.09,1.2c0,10.7,0,21.36,0,29.46v46c0,8.72,0,19,0,29.43v.08c0,2,.19,3.68,2.52,5a5.13,5.13,0,0,1,2.56,4.59,6.19,6.19,0,0,1-.34,2,5.92,5.92,0,0,1-5.8,4.11,5.68,5.68,0,0,1-5.56-4,5.87,5.87,0,0,1-.39-2.1Z"/><path class="cls-10" d="M416,975.94c0-1.19,0-2.39,0-3.58,0-1,0-2,0-3h0v-8c0-2.17,0-4.33,0-6.5a1.84,1.84,0,0,0-.36-1.3.89.89,0,0,0-.72-.18c-.52,0-.77.27-.84,1.52,0,.39,0,.78,0,1.18v1c0,2,0,4,0,6,0,2.36,0,4.72,0,7.08,0,3.83,0,7,.05,9.88V980a6.15,6.15,0,0,1-2,4.7c-2.41,2.37-4.84,4.82-7.19,7.18-3,3-6.16,6.19-9.29,9.22a7,7,0,0,0-2.27,5.57c0,10.51,0,21.2,0,31.53,0,7.37,0,14.74,0,22.16,0,1.66-.18,3.26-2.34,4.48a5.19,5.19,0,0,0-2.66,4.63,6.13,6.13,0,0,0,.31,1.93,6,6,0,0,0,11.41.13,6.64,6.64,0,0,0,.33-2,5.26,5.26,0,0,0-2.8-4.75,4.14,4.14,0,0,1-2-2,6.37,6.37,0,0,1-.36-2.44q0-13,0-26.07c0-9.39,0-18.66,0-27.6a5.43,5.43,0,0,1,1.78-4.19c2.8-2.77,5.63-5.6,8.37-8.35,2.93-2.94,6-6,9-8.94a4.92,4.92,0,0,0,1.67-3.77v-.16C416,979.66,416,978,416,975.94Zm-16.84,93.79a4.67,4.67,0,0,1-1.35,3.31,4.72,4.72,0,1,1-3.37-8A4.81,4.81,0,0,1,399.18,1069.73Z"/><path class="cls-11" d="M654,1073c-2.17-.93-2.34-2.36-2.34-4v-.14c0-1.26,0-2.51,0-3.77,0-1.47,0-2.95,0-4.42v-7.73c0-4,0-8.63.05-13.24v-.08a5.23,5.23,0,0,0-1.76-4.11c-2.68-2.62-5.39-5.33-8-7.94l-.07-.07h0c-2.82-2.83-5.74-5.76-8.65-8.6l0,0a6.89,6.89,0,0,1-.73-.83,5.65,5.65,0,0,1-1.07-2.15s0,0,0,0a7.53,7.53,0,0,1-.23-2v-.07c0-1.43,0-2.9,0-4.42,0-.36,0-.73,0-1.1,0-3.57,0-7.4,0-11.57q0-8.4,0-16.8v-1.48c0-.21,0-.43,0-.65s0-.43,0-.65a1.41,1.41,0,0,0-.24-1,1,1,0,0,0-.74-.19c-.73,0-.94.29-.94,1.2,0,.22,0,.45,0,.68s0,.46,0,.7h0c0,2.89,0,5.79,0,8.69v9.61c0,1.7,0,3.39,0,5.09s0,3.41,0,5.11c0,3.17,0,5.75,0,8.11v.14a5,5,0,0,0,.87,3,4.33,4.33,0,0,0,.39.51,5.23,5.23,0,0,0,.46.5l1.41,1.39c2.55,2.51,5.09,5.06,7.57,7.55l0,0,1,1c2.28,2.3,4.62,4.64,7,6.93a5.72,5.72,0,0,1,1.9,4.42v.07c0,4.38-.05,9-.05,14.23q0,4.68,0,9.37c0,1.75,0,3.51,0,5.28a4.07,4.07,0,0,1-1.86,3.79,5.69,5.69,0,0,0-2.65,4.72,6.36,6.36,0,0,0,.53,2.48,5.79,5.79,0,0,0,6.1,3.61,5.61,5.61,0,0,0,5.2-4.48,6.15,6.15,0,0,0,.23-1.69A5.38,5.38,0,0,0,654,1073Zm2.09,5.31a4.72,4.72,0,1,1-4.68-4.74,4.66,4.66,0,0,1,4.68,4.74Z"/><path class="cls-12" d="M524.53,627.4a5.37,5.37,0,0,1,2.68-4.69c2-1.18,2.43-2.61,2.43-4.69,0-8.67,0-17.84,0-29.79V544.42c0-11.95,0-21.12,0-29.74h0c0-2.13-.4-3.56-2.43-4.74a5.3,5.3,0,0,1-2.68-4.69,6,6,0,0,1,.41-2.17,5.75,5.75,0,0,1,5.63-4,6,6,0,0,1,5.74,4.17,6.59,6.59,0,0,1,.28,1.91,5.45,5.45,0,0,1-2.84,4.9c-2.12,1.15-2.3,2.66-2.3,4.37v.14c0,4.46,0,8.93,0,13.39v76.67c0,4.46,0,8.93,0,13.39v.14c0,1.71.18,3.22,2.3,4.37a5.45,5.45,0,0,1,2.84,4.9,6.59,6.59,0,0,1-.28,1.91,6,6,0,0,1-5.74,4.17,5.75,5.75,0,0,1-5.63-4,6,6,0,0,1-.41-2.17Z"/><path class="cls-13" d="M330.56,627.4a5.39,5.39,0,0,1,2.68-4.69c2-1.18,2.43-2.61,2.43-4.69,0-8.67,0-17.84,0-29.79V544.42c0-11.95,0-21.12,0-29.74h0c0-2.13-.4-3.56-2.43-4.74a5.3,5.3,0,0,1-2.68-4.69,5.82,5.82,0,0,1,.42-2.17,5.74,5.74,0,0,1,5.62-4,6,6,0,0,1,5.74,4.17,6.61,6.61,0,0,1,.29,1.91,5.47,5.47,0,0,1-2.84,4.9c-2.13,1.15-2.3,2.66-2.3,4.37v.14q0,6.69,0,13.39v76.67q0,6.69,0,13.39v.14c0,1.71.17,3.22,2.3,4.37a5.47,5.47,0,0,1,2.84,4.9,6.61,6.61,0,0,1-.29,1.91,6,6,0,0,1-5.74,4.17,5.74,5.74,0,0,1-5.62-4,5.82,5.82,0,0,1-.42-2.17Z"/><path class="cls-14" d="M425.07,1038.31a5,5,0,0,1,2.4-4.44c2.56-1.55,2.77-3.45,2.77-5.44,0-.14,0-.28,0-.42,0-1.8,0-3.59,0-5.39q0-3.51,0-7c0-1.22,0-3.66,0-3.67v-.42c0-.13,0-.26,0-.39h0c0-1.06.23-1.24.77-1.28a1,1,0,0,1,.77.17c.34.31.34,1.16.34,1.84v9s0,3.18,0,3.84,0,1.56,0,2.34c0,.3,0,.57,0,.84,0,2.35.24,4.61,3.12,6.43a4.44,4.44,0,0,1,2,3.9,6.53,6.53,0,0,1-2.05,4.65,6,6,0,0,1-8.56-.4A6.29,6.29,0,0,1,425.07,1038.31Z"/><path class="cls-15" d="M66.44,995.3a6,6,0,0,1,.93-3.17,5.64,5.64,0,0,1,6.82-2.52c2.28.83,3.44-.08,4.62-1.27,12.56-12.62,22.81-22.87,32.25-32.25a5.81,5.81,0,0,0,1.86-4.49q0-37.76,0-75.48,0-37.2,0-74.39a6.16,6.16,0,0,0-2.06-4.74c-2.25-2.2-4.51-4.47-6.69-6.67-3.05-3.07-6.2-6.25-9.39-9.29a7.89,7.89,0,0,1-2.66-6.29c.06-21.45.07-42.93.07-61.12V432.09c0-18.18,0-39.66-.07-61.08a7.89,7.89,0,0,1,2.66-6.32c3.19-3.05,6.35-6.23,9.4-9.3,2.18-2.19,4.43-4.47,6.68-6.67a6.11,6.11,0,0,0,2.06-4.72q0-37.22,0-74.4,0-37.74,0-75.47a5.84,5.84,0,0,0-1.86-4.51c-9.42-9.35-19.66-19.59-32.25-32.25-1.18-1.18-2.34-2.09-4.62-1.26a5.65,5.65,0,0,1-6.82-2.52,6,6,0,0,1-.93-3.17,5.91,5.91,0,0,1,1.5-3.91,6.06,6.06,0,0,1,7-1.57,5.69,5.69,0,0,1,3.52,5.3,6.83,6.83,0,0,1-.15,1.41,4.61,4.61,0,0,0-.11.94,4.36,4.36,0,0,0,1.71,3.18l.12.12,8.9,8.92c7.79,7.8,15.84,15.86,23.8,23.75a6.37,6.37,0,0,1,2.12,5c0,24.81,0,50.67,0,76.89q0,37.11,0,74.23a6,6,0,0,1-1.9,4.76c-2.77,2.68-5.53,5.45-8.2,8.13s-5.52,5.54-8.32,8.26a7.1,7.1,0,0,0-2.29,5.57c0,48.9,0,98.6,0,146.67v23.6q0,11.42,0,22.82v16.78q0,11.4,0,22.81v23.61c0,48.06,0,97.77,0,146.65a7.12,7.12,0,0,0,2.29,5.59c2.8,2.72,5.61,5.53,8.32,8.26s5.43,5.45,8.2,8.13a6,6,0,0,1,1.9,4.75q0,37.13,0,74.24c0,26.22,0,52.08,0,76.87a6.36,6.36,0,0,1-2.12,5c-7.93,7.86-16,15.9-23.71,23.67l-9,9-.12.12a4.34,4.34,0,0,0-1.71,3.18,4.44,4.44,0,0,0,.11.93,7,7,0,0,1,.15,1.42,5.69,5.69,0,0,1-3.52,5.3,6,6,0,0,1-7-1.58,5.9,5.9,0,0,1-1.5-3.9Z"/><path class="cls-16" d="M44.85,966.08A5.93,5.93,0,0,1,45.7,963a5.85,5.85,0,0,1,7.14-2.46,3.26,3.26,0,0,0,3.82-1c3.9-4,7.93-8.09,12.07-12A7,7,0,0,0,71,941.94q0-29.52,0-59c0-23.16,0-47.47,0-72.24a6.09,6.09,0,0,0-2-4.77c-2.45-2.4-4.91-4.86-7.29-7.25-3-3-6.12-6.12-9.24-9.13A7,7,0,0,1,50.21,784c0-22.93,0-45.61,0-64.77V426.47c0-19.16,0-41.84,0-64.75a7,7,0,0,1,2.31-5.54c3.12-3,6.23-6.12,9.24-9.14,2.38-2.38,4.84-4.85,7.29-7.24a6.11,6.11,0,0,0,2-4.76c0-24.79,0-49.1,0-72.26q0-29.49,0-59a7,7,0,0,0-2.31-5.57c-4.15-3.95-8.17-8.06-12.07-12a3.28,3.28,0,0,0-3.82-1,5.84,5.84,0,0,1-7.14-2.45,5.94,5.94,0,0,1-.85-3.08,6,6,0,0,1,8.45-5.52,5.61,5.61,0,0,1,3.47,5.28,7.07,7.07,0,0,1-.16,1.49,5.48,5.48,0,0,0-.11,1,4,4,0,0,0,1.48,3c1.88,1.85,3.74,3.72,5.6,5.59,2.48,2.48,5,5.05,7.6,7.55a5,5,0,0,1,1.69,3.89q0,30.9,0,61.77c0,24.26,0,48.79,0,72.89a4.73,4.73,0,0,1-1.66,3.62q-3.31,3.29-6.61,6.61c-3.37,3.37-6.84,6.86-10.3,10.25a6.48,6.48,0,0,0-2.14,5c0,51.62.06,104.1.06,154.85V530q0,18.72,0,37.43v10.76q0,18.74,0,37.44v13.1c0,50.75,0,103.23-.06,154.85a6.47,6.47,0,0,0,2.14,5c3.46,3.4,6.94,6.89,10.31,10.27,2.19,2.2,4.39,4.41,6.6,6.6a4.71,4.71,0,0,1,1.66,3.61c0,24.11,0,48.63,0,72.9q0,30.87,0,61.76a5,5,0,0,1-1.69,3.9c-2.56,2.49-5.12,5.06-7.6,7.55-1.86,1.87-3.72,3.74-5.6,5.59a4,4,0,0,0-1.48,3,5.57,5.57,0,0,0,.11,1,7,7,0,0,1,.16,1.49,5.59,5.59,0,0,1-3.47,5.27,6,6,0,0,1-7-1.5A6.11,6.11,0,0,1,44.85,966.08Z"/><path class="cls-17" d="M33.27,871.65a5,5,0,0,1-1.91-2.15,6.65,6.65,0,0,1-.44-2.68q0-9.68,0-19.37c0-9.11,0-18.53.07-27.79v-.12a7.74,7.74,0,0,0-2.56-6.24c-3.07-2.91-6.11-6-9-8.92-2.23-2.25-4.53-4.57-6.83-6.81A7.13,7.13,0,0,1,10.24,792c0-39.59,0-78.86,0-115.69V639.54q0-27.66,0-55.33v-22.7q0-27.66,0-55.34V469.4c0-36.83,0-76.1,0-115.69a7.15,7.15,0,0,1,2.35-5.57c2.3-2.24,4.6-4.56,6.83-6.8,2.93-2.95,6-6,9-8.92A7.76,7.76,0,0,0,31,326.18v-.12c-.07-9.27-.07-18.69-.07-27.8,0-6.45,0-12.91,0-19.43a5,5,0,0,1,2.35-4.76,5,5,0,0,0,2.35-4.34,7.91,7.91,0,0,0-.43-2.45,5.86,5.86,0,0,0-6-3.81A6,6,0,0,0,23.75,268a6.12,6.12,0,0,0-.18,1.48,5.4,5.4,0,0,0,3,5c2.17,1,2.59,2.47,2.59,4.59v.07c0,8.54-.05,16.29-.05,23.72,0,8.15,0,15.72.06,23.18a6.75,6.75,0,0,1-2.24,5.24c-2.29,2.25-4.6,4.56-6.82,6.8-3,3-6.12,6.16-9.27,9.15a8,8,0,0,0-2.57,6.38c0,23.39.06,46.3.06,65.63V726.48c0,19.33,0,42.24-.06,65.63v0a7.91,7.91,0,0,0,2.57,6.34c3.15,3,6.26,6.12,9.26,9.15,2.23,2.24,4.53,4.56,6.83,6.8a6.78,6.78,0,0,1,2.24,5.3c0,7.41-.06,15-.06,23.13,0,7.42,0,15.18.05,23.72v.07c0,2.12-.42,3.54-2.59,4.59a5.37,5.37,0,0,0-3,5,6,6,0,0,0,5.65,6,5.87,5.87,0,0,0,6-3.8,8,8,0,0,0,.43-2.45A5,5,0,0,0,33.27,871.65ZM24.84,269.41a4.88,4.88,0,0,1,4.78-4.71,4.65,4.65,0,0,1,4.66,4.73v0a4.74,4.74,0,0,1-1.37,3.34,4.68,4.68,0,0,1-3.34,1.35A4.75,4.75,0,0,1,24.84,269.41Zm9.44,606.88A4.66,4.66,0,0,1,29.62,881a4.89,4.89,0,0,1-4.78-4.75,4.74,4.74,0,0,1,4.73-4.7,4.64,4.64,0,0,1,3.34,1.35,4.74,4.74,0,0,1,1.37,3.34Z"/><path class="cls-18" d="M249,889.74a5.13,5.13,0,0,1,2.39-4.4c2.52-1.62,2.72-3.53,2.72-5.86q0-53.19,0-106.32V706.47q0-66.76,0-133.54v-.09l0-.09a2.71,2.71,0,0,1-.09-.77c0-.34,0-.7.06-1s.05-.57.06-.82v-7.57q0-.4-.06-.84c0-.35-.06-.71-.06-1a2.71,2.71,0,0,1,.09-.77l0-.09v-.09q0-66.76,0-133.55V359.49q0-53.14,0-106.29c0-2.36-.2-4.27-2.72-5.89a5.13,5.13,0,0,1-2.39-4.4,6.2,6.2,0,0,1,1.69-4.21,6,6,0,0,1,8.79,0,6.11,6.11,0,0,1,1.66,4.17,5.4,5.4,0,0,1-2.55,4.66,5.14,5.14,0,0,0-2.59,5c0,76.91,0,155.11,0,230.73v41.81q0,17.3,0,34.58v.1l0,.1a2.17,2.17,0,0,1,.1.74,10.74,10.74,0,0,1-.08,1.11l-.06.63v8c0,.24,0,.45.06.67a10.74,10.74,0,0,1,.08,1.11,2.17,2.17,0,0,1-.1.74l0,.1v.1q0,17.29,0,34.58V649.4c0,75.62,0,153.82,0,230.72a5.15,5.15,0,0,0,2.59,5,5.4,5.4,0,0,1,2.55,4.66,6.11,6.11,0,0,1-1.66,4.17,6,6,0,0,1-8.79,0A6.2,6.2,0,0,1,249,889.74Z"/><path class="cls-19" d="M171.86,989.32a4.28,4.28,0,0,1-2.06-2.14,6.87,6.87,0,0,1-.37-2.64q0-5.62,0-11.25V955c0-10,0-20.86.1-31.91V923a9,9,0,0,0-3.12-7.25c-3-2.82-5.94-5.79-8.79-8.66-2.16-2.19-4.4-4.45-6.64-6.62a6.76,6.76,0,0,1-2.16-5.32c0-20.27,0-40.52,0-57.66V801.76c0-.92,0-1.85,0-2.78,0-1.11-.63-1.14-.83-1.15a.9.9,0,0,0-.67.19,1.52,1.52,0,0,0-.31,1.05c0,1,0,2.06,0,3.1V849c0,3.78,0,19.12,0,23,0,9.76,0,17.21-.06,24.14v.07a6.23,6.23,0,0,0,2,4.95c3.15,3.05,6.29,6.2,9.33,9.25,2.42,2.43,4.91,4.93,7.4,7.37a5.79,5.79,0,0,1,1.86,4.5q0,16.34,0,32.68,0,15,0,30c0,1.87-.37,3.16-2.25,4.21a5.45,5.45,0,0,0-2.87,4.88,6.37,6.37,0,0,0,.31,1.92,6,6,0,0,0,5.76,4.18,5.75,5.75,0,0,0,5.62-4,5.91,5.91,0,0,0,.4-2.16A5.25,5.25,0,0,0,171.86,989.32ZM169,998.86a4.73,4.73,0,0,1-5.21-4.17,4.32,4.32,0,0,1,0-.5,4.85,4.85,0,0,1,4.25-4.71,4.68,4.68,0,0,1,5.16,4.21,4,4,0,0,1,0,.49A4.6,4.6,0,0,1,169,998.86Z"/><path class="cls-20" d="M296.91,792.32a1.5,1.5,0,0,1,.26-1,1.14,1.14,0,0,1,.78-.22c.78,0,1,.27,1,1.14,0,.31,0,.66-.07,1a9,9,0,0,0-.08,1c0,10.43.05,19.83.05,28.76,0,9.81,0,18.87-.05,27.72a7.11,7.11,0,0,0,2.28,5.6c2.65,2.58,5.31,5.25,7.89,7.83,2.74,2.75,5.57,5.6,8.41,8.34a6.61,6.61,0,0,1,2.17,5.25c0,11-.05,22.07-.05,32.81q0,14.5,0,29v.09c0,2.18.21,4.12,2.78,5.77a5.12,5.12,0,0,1,2.33,4.41,6.28,6.28,0,0,1-1.86,4.43,5.88,5.88,0,0,1-4.46,1.7,6,6,0,0,1-4.32-2.15,6.28,6.28,0,0,1-1.48-4h0a5.21,5.21,0,0,1,2.57-4.6c2.36-1.39,2.55-3.07,2.55-5q0-15.25,0-30.43c0-11.31,0-21.47.07-31.06h0a7.44,7.44,0,0,0-2.5-5.82c-2.55-2.48-5.1-5-7.57-7.53-2.69-2.72-5.48-5.52-8.28-8.22a6.78,6.78,0,0,1-2.34-5.35v-.16c.06-3.71.08-7.78.08-12.79q0-3.92,0-7.83c0-2.54,0-5.09,0-7.63V808.93c0-5.94,0-10.48,0-14.74h0c0-.3,0-.61-.06-.93S296.91,792.62,296.91,792.32Z"/><path class="cls-21" d="M248.88,1015.33a5.25,5.25,0,0,1,2.61-4.67c2-1.19,2.46-2.69,2.46-4.72q0-12.45,0-24.82c0-10.69,0-21.75-.05-32.63a6.6,6.6,0,0,1,2.12-5.28c2.94-2.83,5.87-5.78,8.7-8.63,2.48-2.48,5-5.05,7.59-7.54a6.74,6.74,0,0,0,2.22-5.25v-.07c0-5.1,0-10.56,0-17.17q0-6.88,0-13.77v-6.93c0-1.33.26-1.57,1-1.57a1,1,0,0,1,.7.19,1.68,1.68,0,0,1,.24,1.06c0,.16,0,.32,0,.48s0,.32,0,.47c0,3.44,0,6.84,0,10.24v9.88c0,1.64,0,3.28,0,4.92s0,3.28,0,4.93c0,2.84,0,5.17.1,7.31v.41a7.54,7.54,0,0,1-2.56,6c-3.15,3-6.26,6.13-9.27,9.16-2.22,2.24-4.52,4.55-6.81,6.79a6.44,6.44,0,0,0-2.1,5c0,8.92,0,18.34,0,28.83q0,14.15,0,28.29c0,1.62.17,3.14,2.26,4.23a5.38,5.38,0,0,1,2.9,4.92,6.64,6.64,0,0,1-.27,1.86,6,6,0,0,1-11.46.08A6.32,6.32,0,0,1,248.88,1015.33Z"/><path class="cls-22" d="M142,1044.7a5.11,5.11,0,0,1,2.56-4.59c2.33-1.31,2.52-3,2.52-5v-.08c0-10.43,0-20.73,0-29.42V959.71c0-8.11,0-18.8,0-29.54h0A10.63,10.63,0,0,0,147,929a10.88,10.88,0,0,1-.1-1.24c0-1.08.38-1.3,1.07-1.32a1.21,1.21,0,0,1,.88.22,1.33,1.33,0,0,1,.26.95,11.13,11.13,0,0,1-.11,1.25,8.64,8.64,0,0,0-.11,1.18c0,18.53.05,37.88.05,59.15q0,23,0,46.05c0,1.9.18,3.56,2.43,4.77a5.29,5.29,0,0,1,2.73,4.73,5.88,5.88,0,0,1-.38,2.11,5.66,5.66,0,0,1-5.56,4,5.9,5.9,0,0,1-5.8-4.11A6.18,6.18,0,0,1,142,1044.7Z"/><path class="cls-23" d="M322.08,1064.74a4.23,4.23,0,0,1-2-2.08,6.4,6.4,0,0,1-.36-2.44q0-11.07,0-22.12c0-10.33,0-21,.05-31.58a6.92,6.92,0,0,0-2.27-5.51c-3.13-3-6.25-6.17-9.27-9.21-2.35-2.37-4.79-4.82-7.21-7.2a6.13,6.13,0,0,1-2-4.69v-.09c0-2.91.05-6.06.05-9.89,0-2.36,0-4.72,0-7.08,0-2,0-4,0-6v-.93c0-.39,0-.78,0-1.17-.07-1.25-.32-1.49-.84-1.52a.86.86,0,0,0-.71.18,1.78,1.78,0,0,0-.37,1.3c0,2.15,0,4.3,0,6.45v7.5l0,.58c0,1,0,2,0,3,0,1.19,0,2.39,0,3.58,0,2.05,0,3.72-.06,5.26v.16a4.92,4.92,0,0,0,1.67,3.77c3,3,6.05,6,9,9,2.73,2.74,5.56,5.57,8.35,8.33a5.45,5.45,0,0,1,1.78,4.22c0,8.86,0,18.11,0,27.5,0,8.71,0,17.42,0,26.19,0,1.66-.18,3.26-2.37,4.44a5.26,5.26,0,0,0-2.8,4.75,6.64,6.64,0,0,0,.33,2,6,6,0,0,0,11.42-.12,6.54,6.54,0,0,0,.3-1.94A5.19,5.19,0,0,0,322.08,1064.74Zm1.4,4.85a4.8,4.8,0,0,1-8.14,3.32,4.62,4.62,0,0,1-1.36-3.31,4.81,4.81,0,0,1,4.72-4.74,4.85,4.85,0,0,1,4.78,4.72Z"/><path class="cls-24" d="M114.67,1011.94c0-1.18,0-2.36,0-3.54,0-1.68,0-3.36,0-5v-9.67q0-4.35,0-8.74c0-.21,0-.44,0-.68s0-.45,0-.68c0-.9-.21-1.17-.94-1.19a1,1,0,0,0-.75.19,1.39,1.39,0,0,0-.23,1c0,.22,0,.44,0,.65s0,.45,0,.66v1.47c0,5.6,0,11.2,0,16.8,0,2.93,0,5.69,0,8.31,0,3.1,0,6,0,8.78v.07a6.4,6.4,0,0,1-2.05,5c-2.92,2.84-5.84,5.77-8.66,8.6l-.76.76c-2.4,2.4-4.86,4.86-7.31,7.26a5.25,5.25,0,0,0-1.75,4.11v.07c0,4.6,0,9.26,0,13.22V1067c0,1.81,0,3.61,0,5.41,0,1,0,1.93,0,2.89v.12c0,1.64-.18,3.07-2.35,4a5.42,5.42,0,0,0-3.41,5.06,6.67,6.67,0,0,0,.23,1.69,5.62,5.62,0,0,0,5.21,4.47,5.79,5.79,0,0,0,6.1-3.61,6.31,6.31,0,0,0,.53-2.47,5.73,5.73,0,0,0-2.66-4.73A4.06,4.06,0,0,1,94.2,1076v-1.68c0-4.29,0-8.6,0-12.9,0-5.21,0-9.88,0-14.27v-.07a5.72,5.72,0,0,1,1.9-4.41c2.66-2.61,5.33-5.3,7.91-7.89,2.94-3,6-6,9-9a6.46,6.46,0,0,0,.67-.75,5,5,0,0,0,1.06-3.31v-.14c0-2.36-.06-4.94-.06-8.13Zm-17.28,72.7v0a4.72,4.72,0,1,1-4.75-4.72A4.68,4.68,0,0,1,97.39,1084.67Z"/><path class="cls-25" d="M275.31,1038.07a4.42,4.42,0,0,1,2-3.9c2.88-1.82,3.12-4.08,3.12-6.43,0-.27,0-.54,0-.81,0-.81,0-1.6,0-2.38v-12.8c0-.71,0-1.56.34-1.87a1,1,0,0,1,.77-.17c.54,0,.76.23.76,1.28v.39c0,.13,0,.26,0,.39,0,1.26,0,2.47,0,3.69,0,2.33,0,4.67,0,7,0,2,0,3.76,0,5.41v.42c0,2,.21,3.89,2.77,5.44a5,5,0,0,1,2.4,4.44,6.34,6.34,0,0,1-1.58,4.14,6,6,0,0,1-8.57.4,6.54,6.54,0,0,1-2-4.65Z"/><path class="cls-26" d="M637,945.76c0-24.83,0-50.76,0-77q0-37,0-74.06a6,6,0,0,1,1.9-4.75c2.76-2.69,5.52-5.46,8.19-8.14s5.52-5.54,8.33-8.26a7.12,7.12,0,0,0,2.29-5.57c-.05-49.61-.05-100-.05-148.81V597.64q0-11.5,0-23v-3.06c0-.15,0-.28,0-.41s0-.64,0-.64V562c0-.17,0-.34,0-.51s0-.26,0-.39V558q0-11.5,0-23V513.53c0-48.77,0-99.2.05-148.8a7.13,7.13,0,0,0-2.29-5.58c-2.81-2.72-5.62-5.54-8.33-8.27s-5.43-5.45-8.19-8.13A6,6,0,0,1,637,338q0-37,0-74.07c0-26.29,0-52.22,0-77.05a6.4,6.4,0,0,1,2.11-5c7.92-7.84,15.92-15.85,23.65-23.61l9.06-9.07.12-.12a4.31,4.31,0,0,0,1.7-3.17,4.49,4.49,0,0,0-.1-.94,6.29,6.29,0,0,1-.16-1.41,5.7,5.7,0,0,1,3.53-5.3,6,6,0,0,1,6.94,1.57,5.85,5.85,0,0,1,1.5,3.9,6.07,6.07,0,0,1-.92,3.17,5.65,5.65,0,0,1-6.82,2.53c-2.28-.83-3.44.08-4.62,1.26-12.65,12.71-22.9,23-32.25,32.25a5.83,5.83,0,0,0-1.87,4.49q0,37.63,0,75.24,0,37.32,0,74.64a6.1,6.1,0,0,0,2.06,4.73c2.24,2.2,4.5,4.47,6.68,6.67,3,3.07,6.21,6.25,9.39,9.29a7.89,7.89,0,0,1,2.66,6.29c-.06,21.41-.06,42.93-.06,61.16v41.27s0,77.45,0,99.59,0,103.25,0,103.25v37.6c0,18.23,0,39.75.06,61.12a7.92,7.92,0,0,1-2.66,6.33c-3.18,3-6.34,6.22-9.39,9.29-2.18,2.2-4.44,4.47-6.68,6.67a6.1,6.1,0,0,0-2.06,4.72q0,37.35,0,74.65,0,37.6,0,75.23a5.84,5.84,0,0,0,1.87,4.5c9.39,9.32,19.63,19.57,32.25,32.25,1.18,1.18,2.34,2.1,4.62,1.26a5.65,5.65,0,0,1,6.82,2.53,6.07,6.07,0,0,1,.92,3.17,5.85,5.85,0,0,1-1.5,3.9,6,6,0,0,1-6.94,1.57,5.7,5.7,0,0,1-3.53-5.3,6.29,6.29,0,0,1,.16-1.41,4.49,4.49,0,0,0,.1-.94,4.31,4.31,0,0,0-1.7-3.17l-.12-.12-9-9.07c-7.74-7.75-15.74-15.77-23.66-23.61a6.4,6.4,0,0,1-2.11-5Z"/><path class="cls-27" d="M671.16,802.72a4.69,4.69,0,0,1,1.67-3.6c2.21-2.2,4.4-4.4,6.6-6.61,3.37-3.38,6.85-6.87,10.31-10.26a6.5,6.5,0,0,0,2.13-5c0-51.63,0-104.11,0-154.86V609.26q0-18.84,0-37.67V561.08q0-18.87,0-37.69V510.28c0-50.75,0-103.23,0-154.85a6.51,6.51,0,0,0-2.13-5c-3.46-3.39-6.94-6.88-10.31-10.26-2.2-2.21-4.39-4.41-6.6-6.61a4.69,4.69,0,0,1-1.67-3.6c0-24,.05-48.44.05-72.73q0-31,0-61.93a5,5,0,0,1,1.69-3.91c2.56-2.5,5.13-5.07,7.61-7.56,1.86-1.87,3.71-3.73,5.58-5.58a3.94,3.94,0,0,0,1.49-3,4.78,4.78,0,0,0-.12-1,7.81,7.81,0,0,1-.16-1.5,5.6,5.6,0,0,1,3.48-5.27,6,6,0,0,1,7,1.5,6.11,6.11,0,0,1,1.49,4,5.89,5.89,0,0,1-8,5.53,3.29,3.29,0,0,0-3.83,1c-3.9,4-7.93,8.1-12.06,12a7,7,0,0,0-2.32,5.56q0,29.63,0,59.22c0,23.07,0,47.3,0,72a6.12,6.12,0,0,0,2,4.76c2.45,2.4,4.92,4.87,7.31,7.26,3,3,6.11,6.12,9.22,9.12a7,7,0,0,1,2.31,5.52c0,23-.05,45.89-.05,65.27v82.81q0,31.6,0,63.22c0,21.07,0,104.22,0,104.22v41.8c0,19.38,0,42.28.05,65.24a7,7,0,0,1-2.31,5.55c-3.11,3-6.22,6.11-9.22,9.12-2.39,2.39-4.86,4.86-7.31,7.26a6.11,6.11,0,0,0-2,4.75c0,24.74,0,49,0,72q0,29.6,0,59.21a7,7,0,0,0,2.32,5.57c4.11,3.93,8.15,8,12.06,12a3.29,3.29,0,0,0,3.83,1,5.89,5.89,0,0,1,8,5.53,6.11,6.11,0,0,1-1.49,4,6,6,0,0,1-7,1.5,5.6,5.6,0,0,1-3.48-5.27,7.81,7.81,0,0,1,.16-1.5,4.78,4.78,0,0,0,.12-1,3.94,3.94,0,0,0-1.49-3l-5.56-5.56c-2.49-2.5-5.06-5.08-7.63-7.58a5,5,0,0,1-1.69-3.9q0-31,0-61.94c0-24.29,0-48.75-.05-72.72Z"/><path class="cls-28" d="M730.4,412.19c0-19.2,0-42,.06-65.28a7.92,7.92,0,0,0-2.57-6.34c-3.15-3-6.26-6.12-9.26-9.15-2.23-2.24-4.53-4.56-6.83-6.8a6.79,6.79,0,0,1-2.24-5.3c0-7.39.06-15,.06-23.13,0-7.39,0-15.15,0-23.72v-.06c0-2.12.42-3.55,2.59-4.59a5.4,5.4,0,0,0,3-5,6.1,6.1,0,0,0-.18-1.47,6,6,0,0,0-5.47-4.57,5.87,5.87,0,0,0-6,3.8,8,8,0,0,0-.43,2.46,5,5,0,0,0,2.35,4.33,5,5,0,0,1,1.91,2.15,6.68,6.68,0,0,1,.44,2.68q0,9.69,0,19.37c0,9.11,0,18.53-.07,27.8v.12a7.74,7.74,0,0,0,2.56,6.23c3.07,2.92,6.11,6,9,8.93,2.23,2.24,4.53,4.56,6.83,6.8a7.14,7.14,0,0,1,2.35,5.58c0,39.77-.05,79-.05,119v30.22q0,29.07,0,58.15v23.73q0,29.07,0,58.15v30.22c0,40,0,79.26.05,119a7.13,7.13,0,0,1-2.35,5.57c-2.3,2.24-4.61,4.56-6.84,6.81-2.93,2.95-6,6-9,8.92a7.74,7.74,0,0,0-2.56,6.23v.12c.07,9.27.07,18.69.07,27.8,0,6.46,0,12.91,0,19.42a5,5,0,0,1-2.35,4.78,5,5,0,0,0-2.35,4.33,8,8,0,0,0,.43,2.46,5.87,5.87,0,0,0,6,3.8,6,6,0,0,0,5.47-4.57,6.1,6.1,0,0,0,.18-1.47,5.4,5.4,0,0,0-3-5c-2.17-1-2.59-2.47-2.59-4.59v-.06c0-8.57,0-16.33,0-23.72,0-8.17,0-15.74-.06-23.18A6.75,6.75,0,0,1,711.8,808c2.3-2.24,4.6-4.56,6.83-6.81,3-3,6.11-6.15,9.26-9.14a8,8,0,0,0,2.57-6.38c-.05-23.28-.06-46-.06-65.24Zm-24.61-146a4.77,4.77,0,0,1-1.37-3.38,4.66,4.66,0,0,1,4.66-4.73,4.89,4.89,0,0,1,4.78,4.72v0a4.73,4.73,0,0,1-4.73,4.69A4.67,4.67,0,0,1,705.79,266.14Zm8.07,603.72v0a4.89,4.89,0,0,1-4.78,4.72,4.73,4.73,0,0,1,0-9.45A4.73,4.73,0,0,1,713.86,869.86Z"/><path class="cls-29" d="M483,889.93a5.43,5.43,0,0,1,2.55-4.67,5.11,5.11,0,0,0,2.58-5c0-71.57,0-142.51,0-214.94V607.16q0-17.14,0-34.28v-.1l0-.1a2.44,2.44,0,0,1-.1-.74,10.74,10.74,0,0,1,.08-1.11c0-.22.05-.43.06-.64V562.5c0-.25,0-.46-.06-.68a10.74,10.74,0,0,1-.08-1.11,2.44,2.44,0,0,1,.1-.74l0-.1v-.1q0-17.14,0-34.28V467.33c0-72.43,0-143.37,0-214.93a5.14,5.14,0,0,0-2.58-5,5.4,5.4,0,0,1-2.55-4.66,6.1,6.1,0,0,1,1.65-4.17,6,6,0,0,1,8.8,0,6.24,6.24,0,0,1,1.68,4.21,5.14,5.14,0,0,1-2.38,4.4c-2.53,1.62-2.73,3.53-2.73,5.87q0,53.16,0,106.27V423.7q0,68.07,0,136.15v.09l0,.09a2.71,2.71,0,0,1,.09.77c0,.33,0,.69-.06,1s-.05.57-.06.82V570c0,.27,0,.55.06.84s.06.71.06,1a2.71,2.71,0,0,1-.09.77l0,.09v.09q0,68.07,0,136.15v64.38q0,53.13,0,106.25c0,2.36.2,4.27,2.73,5.89a5.13,5.13,0,0,1,2.38,4.4,6.24,6.24,0,0,1-1.68,4.21,6,6,0,0,1-8.8,0A6.1,6.1,0,0,1,483,889.93Z"/><path class="cls-30" d="M587,242.82a6.2,6.2,0,0,0-2-4.94c-3.15-3-6.29-6.21-9.34-9.26-2.41-2.42-4.91-4.93-7.39-7.36a5.8,5.8,0,0,1-1.86-4.51q0-16.33,0-32.68,0-15,0-30c0-1.88.37-3.17,2.25-4.21a5.46,5.46,0,0,0,2.86-4.88,6.31,6.31,0,0,0-.3-1.92,6,6,0,0,0-5.76-4.18,5.74,5.74,0,0,0-5.62,4,6,6,0,0,0-.41,2.16,5.26,5.26,0,0,0,2.7,4.7,4.32,4.32,0,0,1,2.06,2.14,7.1,7.1,0,0,1,.37,2.64q0,5.63,0,11.25V184c0,10,0,20.86-.09,31.91v.12a9,9,0,0,0,3.12,7.25c3,2.82,5.94,5.8,8.79,8.67,2.16,2.18,4.4,4.44,6.64,6.61a6.8,6.8,0,0,1,2.16,5.33c0,20.33,0,40.51,0,57.57v35.8c0,.93,0,1.85,0,2.78,0,1.11.63,1.14.83,1.15a.9.9,0,0,0,.66-.18,1.47,1.47,0,0,0,.31-1.06c0-1,0-2.06,0-3.09V290.05c0-3.76,0-19,0-22.86,0-6.62,0-15.36.05-24.3Zm-24.46-94.26a4.63,4.63,0,0,1-1.73-3.2c0-.16,0-.32,0-.48a4.61,4.61,0,0,1,4.2-4.69,4.74,4.74,0,0,1,5.21,4.18,4,4,0,0,1,0,.49,4.84,4.84,0,0,1-4.25,4.71A4.54,4.54,0,0,1,562.51,148.56Z"/><path class="cls-31" d="M388.57,182.75a6.28,6.28,0,0,1,1.86-4.43,5.88,5.88,0,0,1,4.46-1.7,6,6,0,0,1,4.32,2.15,6.22,6.22,0,0,1,1.48,4,5.21,5.21,0,0,1-2.57,4.6c-2.36,1.39-2.55,3.07-2.55,5q0,15.22,0,30.36c0,11.33,0,21.51-.07,31.13a7.44,7.44,0,0,0,2.5,5.82c2.55,2.48,5.1,5.05,7.56,7.53,2.7,2.71,5.49,5.52,8.29,8.22a6.78,6.78,0,0,1,2.34,5.35v.16c-.06,3.72-.08,7.79-.08,12.82q0,3.93,0,7.87,0,3.78,0,7.56v14.36c0,6,0,10.53,0,14.81h0c0,.3,0,.61.06.93s.05.64.05.94a1.45,1.45,0,0,1-.26,1,1.14,1.14,0,0,1-.78.22c-.78,0-1-.27-1-1.14a9,9,0,0,1,.08-1c0-.35.07-.68.07-1,0-10.48,0-19.91,0-28.83,0-9.79,0-18.83.06-27.65h0a7.12,7.12,0,0,0-2.29-5.6c-2.66-2.58-5.32-5.25-7.89-7.84-2.74-2.75-5.57-5.59-8.41-8.33a6.61,6.61,0,0,1-2.17-5.25c0-11,.05-22.07.05-32.81q0-14.5,0-29v-.09c0-2.18-.21-4.12-2.78-5.77a5.12,5.12,0,0,1-2.33-4.41Z"/><path class="cls-32" d="M446.18,210.35a7.57,7.57,0,0,1,2.56-5.95c3.15-3,6.27-6.13,9.28-9.16,2.22-2.24,4.51-4.55,6.81-6.79a6.45,6.45,0,0,0,2.09-5c0-8.94,0-18.39,0-28.92q0-14.1,0-28.21h0c0-1.62-.17-3.14-2.25-4.23a5.37,5.37,0,0,1-2.91-4.92,6.64,6.64,0,0,1,.27-1.86,6,6,0,0,1,11.46-.08,6.33,6.33,0,0,1,.32,2,5.26,5.26,0,0,1-2.62,4.67c-2.05,1.19-2.46,2.69-2.46,4.72,0,8.29,0,16.53,0,24.78,0,10.71,0,21.78.05,32.67a6.63,6.63,0,0,1-2.12,5.28c-2.95,2.83-5.88,5.78-8.71,8.62-2.47,2.49-5,5.06-7.59,7.55a6.74,6.74,0,0,0-2.22,5.25v.07c0,5.08.05,10.52.05,17.11q0,6.81,0,13.61v7.14c0,1.34-.26,1.58-1,1.58a1,1,0,0,1-.69-.19,1.61,1.61,0,0,1-.24-1.06c0-.16,0-.32,0-.47s0-.33,0-.48c0-3.47,0-6.91,0-10.35v-9.77c0-1.64,0-3.29,0-4.93s0-3.29,0-4.93c0-2.84,0-5.16-.1-7.3C446.18,210.62,446.18,210.49,446.18,210.35Z"/><path class="cls-33" d="M587.56,94.36a6,6,0,0,1,.39-2.11,5.68,5.68,0,0,1,5.56-4,5.92,5.92,0,0,1,5.8,4.11,6.19,6.19,0,0,1,.34,2A5.13,5.13,0,0,1,597.09,99c-2.33,1.3-2.52,3-2.52,5V104c0,10.39,0,20.71,0,29.43v46c0,8.1,0,18.76,0,29.45a10.47,10.47,0,0,0,.09,1.21,11.05,11.05,0,0,1,.1,1.25c0,1.08-.38,1.29-1.07,1.31a1.17,1.17,0,0,1-.88-.22,1.29,1.29,0,0,1-.26-.95h0a11,11,0,0,1,.11-1.24,10.75,10.75,0,0,0,.11-1.19c0-18.43,0-37.71,0-58.94q0-23.13,0-46.26c0-1.9-.18-3.55-2.43-4.77A5.28,5.28,0,0,1,587.56,94.36Z"/><path class="cls-34" d="M416.08,151.29a4.92,4.92,0,0,0-1.67-3.77c-3-3-6-6-9-8.94-2.74-2.75-5.57-5.58-8.37-8.35a5.45,5.45,0,0,1-1.78-4.22c0-8.91,0-18.18,0-27.57,0-8.69,0-17.38,0-26.12,0-1.66.18-3.26,2.37-4.44a5.26,5.26,0,0,0,2.8-4.75,6.64,6.64,0,0,0-.33-2,6,6,0,0,0-11.41.12,6.24,6.24,0,0,0-.31,1.94,5.19,5.19,0,0,0,2.66,4.63,4.23,4.23,0,0,1,2,2.08,6.4,6.4,0,0,1,.36,2.44q0,11.07,0,22.12c0,10.33,0,21,0,31.58a6.92,6.92,0,0,0,2.27,5.51c3.13,3,6.25,6.18,9.28,9.22,2.35,2.36,4.78,4.81,7.2,7.19a6.15,6.15,0,0,1,2,4.7v.09c0,2.91-.05,6-.05,9.88,0,2.36,0,4.72,0,7.08,0,2,0,4,0,6v1c0,.4,0,.79,0,1.18.07,1.25.32,1.49.84,1.52a.89.89,0,0,0,.72-.18,1.84,1.84,0,0,0,.36-1.3c0-2.17,0-4.33,0-6.5v-8c0-1,0-2,0-3,0-1.19,0-2.39,0-3.58,0-2.05,0-3.72.06-5.26Zm-25-85a4.65,4.65,0,0,1,3.33-8,4.77,4.77,0,0,1,3.4,1.36,4.67,4.67,0,0,1,1.35,3.31,4.81,4.81,0,0,1-4.72,4.74A4.74,4.74,0,0,1,391.1,66.24Z"/><path class="cls-35" d="M381,496a4.9,4.9,0,0,0-1.67-3.76c-3-3-6-6-9-8.94-2.74-2.74-5.58-5.58-8.38-8.36a5.43,5.43,0,0,1-1.78-4.22c0-8.92,0-18.22,0-27.64,0-8.67,0-17.33,0-26,0-1.67.18-3.26,2.37-4.45a5.24,5.24,0,0,0,2.8-4.75,6.64,6.64,0,0,0-.33-2,6,6,0,0,0-11.41.13,6.18,6.18,0,0,0-.31,1.93,5.16,5.16,0,0,0,2.66,4.63,4.24,4.24,0,0,1,2,2.08,6.26,6.26,0,0,1,.36,2.45q0,11.06,0,22.11c0,10.33,0,21-.05,31.59a7,7,0,0,0,2.27,5.51c3.13,3,6.25,6.17,9.28,9.21,2.35,2.37,4.78,4.81,7.2,7.19a6.16,6.16,0,0,1,2,4.7v.09c0,2.91,0,6.05,0,9.89,0,2.36,0,4.71,0,7.07q0,3,0,6v21.37c0,9,0,18.74,0,24.56s0,15.54,0,24.55v21.37q0,3,0,6c0,2.36,0,4.71,0,7.07,0,3.84,0,7,0,9.89v.09a6.16,6.16,0,0,1-2,4.7c-2.42,2.37-4.85,4.82-7.2,7.19-3,3-6.15,6.18-9.28,9.21a7,7,0,0,0-2.27,5.57c.05,10.51.05,21.2.05,31.53,0,7.37,0,14.74,0,22.16,0,1.66-.18,3.26-2.34,4.48a5.16,5.16,0,0,0-2.66,4.63,6.18,6.18,0,0,0,.31,1.93,6,6,0,0,0,11.41.12,6.53,6.53,0,0,0,.33-2,5.24,5.24,0,0,0-2.8-4.75,4.23,4.23,0,0,1-2-2,6.23,6.23,0,0,1-.36-2.45q0-13,0-26c0-9.42,0-18.72,0-27.67a5.41,5.41,0,0,1,1.78-4.19c2.8-2.78,5.64-5.62,8.38-8.36,2.93-2.94,6-6,9-8.94a4.9,4.9,0,0,0,1.67-3.76v-.17c0-1.54-.06-3.21-.06-5.25,0-1.2,0-2.39,0-3.59,0-1,0-2,0-3h0v-34.9c0-9.12,0-17.93,0-23.4s0-14.27,0-23.39V508c0-1,0-2,0-3,0-1.19,0-2.38,0-3.58,0-2,0-3.71.06-5.25Zm-25-85a4.72,4.72,0,0,1,6.73-6.63,4.63,4.63,0,0,1,1.35,3.3h0A4.71,4.71,0,0,1,356,411Zm8.08,314h0a4.63,4.63,0,0,1-1.35,3.3,4.72,4.72,0,1,1-6.73-6.63,4.71,4.71,0,0,1,8.08,3.32Z"/><path class="cls-36" d="M657.17,52.92a5.61,5.61,0,0,0-5.2-4.47,5.79,5.79,0,0,0-6.1,3.61,6.36,6.36,0,0,0-.53,2.48A5.7,5.7,0,0,0,648,59.26,4,4,0,0,1,649.5,61a5.19,5.19,0,0,1,.35,2.09q0,7.3,0,14.61c0,5.2,0,9.85.05,14.23V92a5.72,5.72,0,0,1-1.9,4.42c-2.66,2.61-5.34,5.3-7.93,7.9-2.93,3-6,6-9,9a5.16,5.16,0,0,0-1.72,4v.14c0,2.36,0,4.94,0,8.11,0,1.7,0,3.41,0,5.11s0,3.39,0,5.09v9.61c0,2.9,0,5.79,0,8.73,0,.21,0,.44,0,.67s0,.46,0,.68c0,.91.21,1.18.94,1.2a1,1,0,0,0,.74-.19,1.41,1.41,0,0,0,.24-1c0-.22,0-.43,0-.65s0-.44,0-.66v-1.47q0-8.4,0-16.8c0-6.4,0-12-.05-17.09v-.07a6.37,6.37,0,0,1,2.06-5c2.91-2.84,5.83-5.77,8.66-8.6,2.63-2.64,5.35-5.37,8.06-8A5.23,5.23,0,0,0,651.71,93V93c0-4.61-.05-9.28-.05-13.24V72q0-4.09,0-8.19v-.14c0-1.63.17-3.06,2.34-4a5.38,5.38,0,0,0,3.41-5.05A6.27,6.27,0,0,0,657.17,52.92Zm-1.09,1.48a4.71,4.71,0,1,1-4.74-4.72,4.66,4.66,0,0,1,4.74,4.72Z"/><path class="cls-37" d="M425.07,94.34a6.29,6.29,0,0,1,1.58-4.14,6,6,0,0,1,8.56-.4,6.51,6.51,0,0,1,2.05,4.65,4.44,4.44,0,0,1-2,3.9c-2.88,1.82-3.12,4.08-3.12,6.43,0,.27,0,.54,0,.82,0,.8,0,1.58,0,2.36s0,3.84,0,3.84v9c0,.71,0,1.56-.34,1.87a1,1,0,0,1-.77.17c-.54,0-.77-.23-.77-1.28,0-.13,0-.26,0-.39v-.39c0-1.26,0-2.48,0-3.7q0-3.51,0-7c0-1.8,0-3.59,0-5.39,0-.14,0-.28,0-.42,0-2-.21-3.89-2.77-5.44a5,5,0,0,1-2.4-4.44Z"/><path class="cls-38" d="M144.73,578.64a9.19,9.19,0,0,1,.11-1.25c0-.3.07-.6.09-.86v-7.3c0-.31-.05-.6-.09-.9a9.33,9.33,0,0,1-.11-1.25,1.87,1.87,0,0,1,.13-.8l.06-.13V566c0-17.86,0-35.43,0-51.75V451.35c0-15.55,0-34-.05-52.66a6.7,6.7,0,0,1,2.15-5.27c6.72-6.66,13.52-13.46,20.1-20,5.57-5.57,11.34-11.34,17-17a7.16,7.16,0,0,0,2.36-5.5v-.06c0-7-.06-14.41-.06-22.52q0-11.08,0-22.16v-.07c0-1.76-.18-3.45-2.44-4.7a5.34,5.34,0,0,1-2.72-4.75,5.89,5.89,0,0,1,.39-2.11,5.76,5.76,0,0,1,5.63-4,5.94,5.94,0,0,1,5.76,4.17,6.28,6.28,0,0,1,.3,1.93,5.2,5.2,0,0,1-2.6,4.69c-2.31,1.26-2.5,3-2.5,4.94v.13q0,9.56,0,19.12c0,8.58,0,17.46.06,26.18v.07a6.64,6.64,0,0,1-2.14,5.22c-6.27,6.21-12.61,12.55-18.74,18.68S155.25,387.9,149.09,394a7.46,7.46,0,0,0-2.38,5.84c0,27.78,0,56.51,0,85.43q0,40.4,0,80.8v.13l.06.12a1.9,1.9,0,0,1,.14.84,11.4,11.4,0,0,1-.1,1.27c0,.35-.08.69-.1,1v6.86c0,.33.06.67.1,1a11.41,11.41,0,0,1,.1,1.26,1.87,1.87,0,0,1-.14.84l-.06.12v.14q0,40.4,0,80.8c0,28.91,0,57.65,0,85.41a7.46,7.46,0,0,0,2.38,5.85c6.16,6.1,12.39,12.33,18.42,18.36s12.46,12.46,18.72,18.66a6.66,6.66,0,0,1,2.14,5.22V794c-.06,8.73-.06,17.6-.06,26.18q0,9.57,0,19.13v.13c0,2,.19,3.68,2.5,4.94a5.19,5.19,0,0,1,2.6,4.69,6.37,6.37,0,0,1-.3,1.93,5.93,5.93,0,0,1-5.76,4.16,5.76,5.76,0,0,1-5.63-4,6,6,0,0,1-.39-2.12,5.34,5.34,0,0,1,2.72-4.74c2.26-1.26,2.44-2.94,2.44-4.7v-.07q0-11.09,0-22.16c0-8.12,0-15.48.06-22.52v-.06a7.15,7.15,0,0,0-2.36-5.5c-5.7-5.66-11.47-11.43-17-17-6.57-6.57-13.36-13.36-20.08-20a6.68,6.68,0,0,1-2.15-5.25c0-18.71.05-37.13.05-52.68V631.45c0-16.32,0-33.89,0-51.75v-.14l-.06-.12A1.87,1.87,0,0,1,144.73,578.64Z"/><path class="cls-39" d="M321.72,813.6a4,4,0,0,1-2.07-4v-.08c0-1,0-1.93,0-2.9,0-1.87,0-3.74,0-5.61s0-3.75,0-5.62c0-2.68,0-4.89.05-7v-.15a6.25,6.25,0,0,0-2.09-4.87c-2.31-2.26-4.62-4.59-6.86-6.84-2.85-2.87-5.8-5.83-8.76-8.68A8.76,8.76,0,0,1,299,761c0-2.73,0-5.47,0-8.21,0-11.59,0-23.22,0-34.78,0-22,0-43.74,0-64.6V572.69a3,3,0,0,0,.06-.65c0-.3,0-.62-.05-.94l0-.4v-8.79l0-.36c0-.32.05-.64.05-.94a3,3,0,0,0-.06-.65V479.23c0-34.43,0-71.29-.06-107.61a8.75,8.75,0,0,1,2.94-6.88c3-2.85,5.91-5.82,8.77-8.69,2.23-2.25,4.55-4.57,6.85-6.83a6.25,6.25,0,0,0,2.09-4.87v-.15c0-2.08-.05-4.29-.05-7,0-1.88,0-3.75,0-5.62s0-3.74,0-5.61c0-1,0-1.94,0-2.9V323a4,4,0,0,1,2.07-4,5.6,5.6,0,0,0,2.93-4.87,6.44,6.44,0,0,0-.3-1.91,6,6,0,0,0-11.51.19,6.12,6.12,0,0,0-.25,1.72,5.77,5.77,0,0,0,3.11,5,3.75,3.75,0,0,1,2,3.67v.08c0,4.26-.05,8.07-.05,11.64,0,3.22,0,6.2,0,9.13v.09a6.13,6.13,0,0,1-2,4.7c-2.38,2.32-4.77,4.71-7.08,7-2.93,2.94-6,6-9,8.91a7.62,7.62,0,0,0-2.55,6.07c.05,20.82.06,41.52.06,59V479q0,40.44,0,80.87V560a3.17,3.17,0,0,0-.06.68c0,.28,0,.58,0,.86s0,.42,0,.63v8.29c0,.19,0,.4,0,.61s0,.58,0,.86a3.17,3.17,0,0,0,.06.68v.13q0,40.43,0,80.87v49.52c0,4.88,0,10,0,15.33,0,10.87,0,22.5,0,34.32,0,3.11,0,6.24,0,9.37v0a7.59,7.59,0,0,0,2.55,6c3.06,2.93,6.1,6,9,8.92,2.31,2.31,4.69,4.7,7.07,7a6.13,6.13,0,0,1,2,4.7V789c0,2.93,0,5.91,0,9.13,0,3.57,0,7.38.05,11.64v.08a3.75,3.75,0,0,1-2,3.67,5.77,5.77,0,0,0-3.11,5,6.12,6.12,0,0,0,.25,1.72,6,6,0,0,0,11.51.19,6.44,6.44,0,0,0,.3-1.91A5.6,5.6,0,0,0,321.72,813.6ZM313.85,314v-.17a4.83,4.83,0,0,1,4.93-4.55,4.76,4.76,0,0,1,4.58,4.71v.17a4.73,4.73,0,0,1-4.91,4.55A4.79,4.79,0,0,1,313.85,314Zm9.51,504.68a4.76,4.76,0,0,1-4.58,4.71,4.83,4.83,0,0,1-4.93-4.55v-.17a4.79,4.79,0,0,1,4.6-4.71,4.73,4.73,0,0,1,4.91,4.55Z"/><path class="cls-40" d="M174.15,149.54a5.75,5.75,0,0,0-5.62-4,6,6,0,0,0-5.76,4.18,6.32,6.32,0,0,0-.31,1.92,5.45,5.45,0,0,0,2.87,4.88c1.88,1,2.25,2.33,2.25,4.24q0,15,0,30,0,16.35,0,32.71a5.78,5.78,0,0,1-1.86,4.48c-2.49,2.44-5,4.94-7.4,7.37-3,3.05-6.18,6.2-9.33,9.25a6.22,6.22,0,0,0-2,5v.06c0,6.94.06,14.38.06,24.14,0,3.9,0,19.24,0,23v46.84c0,1,0,2.06,0,3.1a1.54,1.54,0,0,0,.31,1.05.86.86,0,0,0,.67.18c.2,0,.82,0,.83-1.14,0-.93,0-1.86,0-2.79V308.24c0-17.14,0-37.39,0-57.68a6.73,6.73,0,0,1,2.16-5.3c2.24-2.17,4.47-4.43,6.63-6.61,2.86-2.88,5.8-5.85,8.8-8.68a9,9,0,0,0,3.12-7.25v-.12c-.08-11-.1-21.87-.1-31.91V172.43c0-3.75,0-7.5,0-11.3,0-1.86.18-3.5,2.43-4.74a5.25,5.25,0,0,0,2.69-4.7A5.9,5.9,0,0,0,174.15,149.54Zm-1,2.49a4.66,4.66,0,0,1-5.16,4.2,4.84,4.84,0,0,1-4.25-4.7,4.19,4.19,0,0,1,0-.5,4.74,4.74,0,0,1,5.21-4.18,4.62,4.62,0,0,1,4.2,4.69A4.15,4.15,0,0,1,173.16,152Z"/><path class="cls-41" d="M206.2,750.75c-2-1.16-2.36-2.57-2.36-4.51q0-6.81,0-13.62,0-6.4,0-12.81c0-11.89,0-24.17.07-36.32a6.89,6.89,0,0,0-2.33-5.46c-2.81-2.71-5.61-5.52-8.32-8.24-2.53-2.54-5.15-5.17-7.77-7.71a7.1,7.1,0,0,1-2.27-5.59c0-13.7,0-27.92,0-43.47q0-16.71,0-33.41v-.1l0-.09a2.2,2.2,0,0,0,.09-.7c0-.31,0-.66-.07-1s-.05-.45-.06-.7v-8.36c0-.21,0-.44.06-.67s.07-.68.07-1a2.14,2.14,0,0,0-.09-.69l0-.09v-.11q0-16.7,0-33.4c0-15.55,0-29.77,0-43.5a7.11,7.11,0,0,1,2.27-5.57c2.62-2.54,5.24-5.17,7.78-7.71,2.7-2.72,5.5-5.53,8.31-8.24a6.89,6.89,0,0,0,2.33-5.51c-.06-12.09-.06-24.38-.07-36.26q0-13.21,0-26.47A4.47,4.47,0,0,1,206.2,395,5.45,5.45,0,0,0,209,390.2a6.18,6.18,0,0,0-.37-2.06,5.79,5.79,0,0,0-5.58-4.08,6.14,6.14,0,0,0-5.82,4.11,5.78,5.78,0,0,0,2.51,6.83,4.27,4.27,0,0,1,2.3,4.23q0,17.91,0,35.82,0,13.43,0,26.89a6.1,6.1,0,0,1-2.06,4.71c-2.61,2.56-5.25,5.2-7.79,7.75-2.92,2.92-5.93,6-8.94,8.88a5.61,5.61,0,0,0-1.82,4.46c0,8.44,0,16.73,0,23l0,40.2q0,7.59,0,15.18v.09l0,.08a2.3,2.3,0,0,0-.08.65,8.37,8.37,0,0,0,.07,1c0,.16,0,.32,0,.51v8.86c0,.15,0,.31,0,.46a8.37,8.37,0,0,0-.07,1,2.3,2.3,0,0,0,.08.65l0,.09v.09q0,7.59,0,15.17l0,40.21c0,6.28,0,14.58,0,23.07a5.59,5.59,0,0,0,1.82,4.41c3,2.93,6,6,8.95,8.88,2.54,2.55,5.17,5.19,7.78,7.75A6.09,6.09,0,0,1,202,683.8q0,13.43,0,26.87,0,12.32,0,24.65c0,3.73,0,7.46,0,11.19a4.2,4.2,0,0,1-1.71,3.81,4.31,4.31,0,0,1-.59.39,5.78,5.78,0,0,0-2.51,6.83,6.15,6.15,0,0,0,5.82,4.12,5.8,5.8,0,0,0,5.58-4.08,6.18,6.18,0,0,0,.37-2.06,5.47,5.47,0,0,0-.72-2.72A5.71,5.71,0,0,0,206.2,750.75Zm-8-360.66V390a4.83,4.83,0,0,1,4.72-4.71,4.63,4.63,0,0,1,3.33,1.34,4.76,4.76,0,0,1,1.41,3.37h0a4.56,4.56,0,0,1-4.67,4.7A4.69,4.69,0,0,1,198.18,390.09Zm9.46,365.6a4.73,4.73,0,0,1-1.42,3.37,4.58,4.58,0,0,1-3.32,1.33,4.82,4.82,0,0,1-4.72-4.71v-.06a4.63,4.63,0,0,1,2.57-4.13A4.83,4.83,0,0,1,203,751a4.62,4.62,0,0,1,3.76,1.82,4.78,4.78,0,0,1,.91,2.88Z"/><path class="cls-42" d="M296.91,340.33c0-.3,0-.62,0-.94s.06-.63.06-.91c0-4.28,0-8.82,0-14.76V309.29c0-2.54,0-5.09,0-7.63s0-5.22,0-7.83c0-5,0-9.08-.08-12.79v-.16a6.78,6.78,0,0,1,2.34-5.35c2.8-2.7,5.59-5.5,8.28-8.22,2.47-2.48,5-5.05,7.57-7.53a7.41,7.41,0,0,0,2.5-5.78c-.05-9.63-.07-19.79-.07-31.1q0-15.19,0-30.39h0c0-1.94-.19-3.62-2.55-5a5.21,5.21,0,0,1-2.57-4.6h0a6.28,6.28,0,0,1,1.48-4,6,6,0,0,1,4.32-2.15,5.88,5.88,0,0,1,4.46,1.7,6.28,6.28,0,0,1,1.86,4.43,5.12,5.12,0,0,1-2.33,4.41c-2.57,1.65-2.78,3.59-2.78,5.77v.09q0,14.49,0,29c0,10.74,0,21.84.05,32.76a6.65,6.65,0,0,1-2.17,5.3c-2.84,2.74-5.67,5.58-8.41,8.33-2.57,2.59-5.23,5.26-7.89,7.84a7.07,7.07,0,0,0-2.28,5.55c0,8.9.05,18,.05,27.76,0,8.94,0,18.34-.05,28.76h0a9,9,0,0,0,.08,1c0,.34.07.69.07,1,0,.87-.24,1.13-1,1.14a1.08,1.08,0,0,1-.78-.23A1.46,1.46,0,0,1,296.91,340.33Z"/><path class="cls-43" d="M248.88,117.32a6.32,6.32,0,0,1,.31-2,6,6,0,0,1,11.46.08,6.64,6.64,0,0,1,.27,1.86,5.38,5.38,0,0,1-2.9,4.92c-2.09,1.09-2.26,2.61-2.26,4.19q0,14.21,0,28.33c0,10.49,0,19.91,0,28.8a6.46,6.46,0,0,0,2.1,5c2.29,2.24,4.59,4.55,6.81,6.79,3,3,6.12,6.17,9.27,9.16a7.54,7.54,0,0,1,2.56,5.95v.41c-.07,2.14-.1,4.47-.1,7.31,0,1.65,0,3.29,0,4.93s0,3.28,0,4.92v9.88c0,3.4,0,6.8,0,10.21h0c0,.19,0,.34,0,.5s0,.32,0,.48a1.68,1.68,0,0,1-.24,1.06,1,1,0,0,1-.7.19c-.74,0-1-.24-1-1.57v-6.93q0-6.88,0-13.77c0-6.61,0-12.07,0-17.17v-.07a6.74,6.74,0,0,0-2.22-5.25c-2.55-2.49-5.12-5.06-7.59-7.55-2.83-2.85-5.76-5.79-8.7-8.62a6.56,6.56,0,0,1-2.12-5.23c0-10.93.05-22,.05-32.68q0-12.39,0-24.78h0c0-2.07-.41-3.57-2.46-4.76A5.25,5.25,0,0,1,248.88,117.32Z"/><path class="cls-44" d="M142,101a6.24,6.24,0,0,1,.34-2,5.91,5.91,0,0,1,5.8-4.1,5.66,5.66,0,0,1,5.56,4,5.88,5.88,0,0,1,.38,2.11,5.27,5.27,0,0,1-2.73,4.72c-2.25,1.22-2.43,2.87-2.43,4.75q0,23.07,0,46.07c0,21.28,0,40.63-.05,59.15a8.63,8.63,0,0,0,.11,1.19,11.16,11.16,0,0,1,.11,1.24,1.3,1.3,0,0,1-.26.95,1.21,1.21,0,0,1-.88.23c-.69,0-1.07-.24-1.07-1.32a11.05,11.05,0,0,1,.1-1.25,10.3,10.3,0,0,0,.09-1.19c0-10.76,0-21.45,0-29.56V140.09c0-8.7,0-19,0-29.42v-.08c0-2-.19-3.67-2.52-5A5.13,5.13,0,0,1,142,101Z"/><path class="cls-45" d="M201.41,1044.7a5.13,5.13,0,0,1,2.56-4.59c2.33-1.31,2.52-3,2.52-5v-.08c0-10.43,0-20.73,0-29.42V959.71c0-8.11,0-18.8,0-29.54h0a10.63,10.63,0,0,0-.09-1.22,10.88,10.88,0,0,1-.1-1.24c0-1.08.38-1.3,1.07-1.32a1.26,1.26,0,0,1,.89.22,1.34,1.34,0,0,1,.25.95,9.19,9.19,0,0,1-.11,1.25,10.44,10.44,0,0,0-.1,1.18c0,18.53.05,37.88.05,59.15q0,23,0,46.05c0,1.9.19,3.56,2.43,4.77a5.3,5.3,0,0,1,2.74,4.73,6.1,6.1,0,0,1-.38,2.11,5.68,5.68,0,0,1-5.57,4,5.91,5.91,0,0,1-5.8-4.11A6.18,6.18,0,0,1,201.41,1044.7Z"/><path class="cls-46" d="M201.41,101a6.24,6.24,0,0,1,.34-2,5.92,5.92,0,0,1,5.8-4.1,5.68,5.68,0,0,1,5.57,4,6.1,6.1,0,0,1,.38,2.11,5.28,5.28,0,0,1-2.74,4.72c-2.24,1.22-2.43,2.87-2.43,4.75q0,23.07,0,46.07c0,21.28,0,40.63-.05,59.15a10.41,10.41,0,0,0,.1,1.19,9.19,9.19,0,0,1,.11,1.24,1.3,1.3,0,0,1-.25.95,1.25,1.25,0,0,1-.89.23c-.69,0-1.07-.24-1.07-1.32a11.05,11.05,0,0,1,.1-1.25,10.3,10.3,0,0,0,.09-1.19c0-10.76,0-21.45,0-29.56V140.09c0-8.7,0-19,0-29.42v-.08c0-2-.19-3.67-2.52-5a5.15,5.15,0,0,1-2.56-4.59Z"/><path class="cls-47" d="M350.49,1044.7a5.11,5.11,0,0,1,2.56-4.59c2.33-1.31,2.52-3,2.52-5v-.08c0-10.43,0-20.73,0-29.42V959.71c0-8.11,0-18.8.05-29.54h0a10.63,10.63,0,0,0-.09-1.22,10.88,10.88,0,0,1-.1-1.24c0-1.08.37-1.3,1.07-1.32a1.21,1.21,0,0,1,.88.22,1.33,1.33,0,0,1,.26.95,11.13,11.13,0,0,1-.11,1.25,8.64,8.64,0,0,0-.11,1.18c0,18.53.05,37.88.05,59.15q0,23,0,46.05c0,1.9.18,3.56,2.42,4.77a5.28,5.28,0,0,1,2.74,4.73,6.1,6.1,0,0,1-.38,2.11,5.66,5.66,0,0,1-5.56,4,5.9,5.9,0,0,1-5.8-4.11A6.18,6.18,0,0,1,350.49,1044.7Z"/><path class="cls-48" d="M350.49,101a6.24,6.24,0,0,1,.34-2,5.91,5.91,0,0,1,5.8-4.1,5.66,5.66,0,0,1,5.56,4,6.1,6.1,0,0,1,.38,2.11,5.26,5.26,0,0,1-2.74,4.72c-2.24,1.22-2.42,2.87-2.42,4.75q0,23.07,0,46.07c0,21.28,0,40.63-.05,59.15a8.63,8.63,0,0,0,.11,1.19,11.16,11.16,0,0,1,.11,1.24,1.3,1.3,0,0,1-.26.95,1.21,1.21,0,0,1-.88.23c-.7,0-1.07-.24-1.07-1.32a11.05,11.05,0,0,1,.1-1.25,10.3,10.3,0,0,0,.09-1.19c0-10.76-.05-21.45-.05-29.56V140.09c0-8.7,0-19,0-29.42v-.08c0-2-.19-3.67-2.52-5a5.13,5.13,0,0,1-2.56-4.59Z"/><path class="cls-49" d="M510.85,1044.7a5.11,5.11,0,0,1,2.56-4.59c2.33-1.31,2.52-3,2.52-5v-.08c0-10.43,0-20.73,0-29.42V959.71c0-8.11,0-18.8,0-29.54h0a10.63,10.63,0,0,0-.09-1.22,10.88,10.88,0,0,1-.1-1.24c0-1.08.38-1.3,1.07-1.32a1.21,1.21,0,0,1,.88.22,1.33,1.33,0,0,1,.26.95,11.13,11.13,0,0,1-.11,1.25,8.64,8.64,0,0,0-.11,1.18c0,18.53,0,37.88,0,59.15q0,23,0,46.05c0,1.9.18,3.56,2.43,4.77a5.29,5.29,0,0,1,2.73,4.73,5.88,5.88,0,0,1-.38,2.11,5.66,5.66,0,0,1-5.56,4,5.9,5.9,0,0,1-5.8-4.11A6.18,6.18,0,0,1,510.85,1044.7Z"/><path class="cls-50" d="M510.85,101a6.24,6.24,0,0,1,.34-2,5.91,5.91,0,0,1,5.8-4.1,5.66,5.66,0,0,1,5.56,4,5.88,5.88,0,0,1,.38,2.11,5.27,5.27,0,0,1-2.73,4.72c-2.25,1.22-2.43,2.87-2.43,4.75q0,23.07,0,46.07c0,21.28,0,40.63,0,59.15a8.63,8.63,0,0,0,.11,1.19,11.16,11.16,0,0,1,.11,1.24,1.3,1.3,0,0,1-.26.95,1.21,1.21,0,0,1-.88.23c-.69,0-1.07-.24-1.07-1.32a11.05,11.05,0,0,1,.1-1.25,10.3,10.3,0,0,0,.09-1.19c0-10.76,0-21.45,0-29.56V140.09c0-8.7,0-19,0-29.42v-.08c0-2-.19-3.67-2.52-5a5.13,5.13,0,0,1-2.56-4.59Z"/><path class="cls-51" d="M324.44,61.34A6,6,0,0,0,313,61.22a6.64,6.64,0,0,0-.33,2,5.26,5.26,0,0,0,2.8,4.75,4.14,4.14,0,0,1,2,2,6.37,6.37,0,0,1,.36,2.44q0,13.08,0,26.14c0,9.39,0,18.64,0,27.52a5.43,5.43,0,0,1-1.78,4.2c-2.8,2.77-5.63,5.6-8.37,8.35-2.93,2.94-6,6-9,8.94a4.92,4.92,0,0,0-1.67,3.77v.16c0,1.54.06,3.21.06,5.26,0,1.19,0,2.39,0,3.58,0,1,0,2,0,3h0v8.1c0,2.15,0,4.3,0,6.45a1.78,1.78,0,0,0,.37,1.3.93.93,0,0,0,.71.18c.52,0,.77-.27.84-1.52,0-.39,0-.78,0-1.17v-1c0-2,0-4,0-6,0-2.36,0-4.72,0-7.08,0-3.83,0-7-.05-9.89v-.09a6.13,6.13,0,0,1,2-4.69c2.42-2.38,4.86-4.83,7.21-7.2,3-3,6.14-6.18,9.27-9.21a7,7,0,0,0,2.27-5.57c-.05-10.51-.05-21.19-.05-31.53,0-7.37,0-14.74,0-22.15,0-1.66.18-3.26,2.34-4.48a5.19,5.19,0,0,0,2.66-4.63A6.49,6.49,0,0,0,324.44,61.34Zm-1,1.73a4.85,4.85,0,0,1-4.78,4.72A4.81,4.81,0,0,1,314,63.05a4.62,4.62,0,0,1,1.36-3.31,4.8,4.8,0,0,1,8.14,3.32Z"/><path class="cls-52" d="M114.73,124a5.15,5.15,0,0,0-1.73-4.06c-3-3-6-6-9-9-2.59-2.61-5.27-5.3-7.93-7.91a5.74,5.74,0,0,1-1.9-4.42V98.6c0-4.4,0-9.06,0-14.28,0-4.85,0-9.71,0-14.61a4.06,4.06,0,0,1,1.85-3.79,5.7,5.7,0,0,0,2.66-4.72,6.36,6.36,0,0,0-.53-2.48,5.8,5.8,0,0,0-6.1-3.61,5.64,5.64,0,0,0-5.21,4.48,6.55,6.55,0,0,0-.23,1.69,5.39,5.39,0,0,0,3.41,5c2.17.93,2.35,2.36,2.35,4v.13c0,2.76,0,5.53,0,8.29v7.66c0,4,0,8.62,0,13.21v.08a5.25,5.25,0,0,0,1.75,4.11c2.71,2.65,5.43,5.37,8.06,8,2.83,2.83,5.75,5.77,8.67,8.61a6.38,6.38,0,0,1,2.05,5v.07c0,5.1-.05,10.69-.05,17.08,0,5.6,0,11.2,0,16.8v1.49c0,.2,0,.42,0,.64s0,.44,0,.65a1.42,1.42,0,0,0,.23,1,1.06,1.06,0,0,0,.75.19c.73,0,.94-.29.94-1.2,0-.22,0-.45,0-.67s0-.47,0-.71q0-4.37,0-8.71v-9.68c0-1.68,0-3.36,0-5.05s0-3.36,0-5.05c0-3.18,0-5.76.06-8.13ZM92.64,65.76a4.71,4.71,0,1,1,4.75-4.71v0A4.66,4.66,0,0,1,92.64,65.76Z"/><path class="cls-53" d="M212.8,627.33a5.45,5.45,0,0,1,2.84-4.9c2.12-1.14,2.3-2.66,2.3-4.37v-.14c0-4.49,0-9,0-13.46V528.19c0-4.48,0-9,0-13.46v-.14c0-1.71-.18-3.23-2.3-4.37a5.45,5.45,0,0,1-2.84-4.9h0a6.59,6.59,0,0,1,.28-1.91,6,6,0,0,1,5.74-4.17,5.75,5.75,0,0,1,5.63,4,6.11,6.11,0,0,1,.41,2.18,5.31,5.31,0,0,1-2.67,4.69c-2,1.18-2.44,2.61-2.44,4.68,0,8.71,0,17.92,0,29.91,0,5.3,0,21.67,0,21.67s0,16.36,0,21.66c0,12,0,21.2,0,29.85,0,2.13.4,3.56,2.44,4.74a5.31,5.31,0,0,1,2.67,4.69,6.11,6.11,0,0,1-.41,2.18,5.75,5.75,0,0,1-5.63,4,6,6,0,0,1-5.74-4.17A6.59,6.59,0,0,1,212.8,627.33Z"/><path class="cls-54" d="M275.31,94.58a6.54,6.54,0,0,1,2-4.65,6,6,0,0,1,8.57.4,6.34,6.34,0,0,1,1.58,4.14,5,5,0,0,1-2.4,4.44c-2.56,1.55-2.77,3.46-2.77,5.44v.42c0,1.65,0,3.42,0,5.41,0,2.34,0,4.68,0,7l0,3.66c0,.16,0,.29,0,.42v.39c0,1-.22,1.24-.76,1.28a1,1,0,0,1-.77-.17c-.34-.31-.34-1.16-.34-1.84V108.1c0-.78,0-1.57,0-2.35,0-.3,0-.57,0-.84,0-2.35-.24-4.61-3.12-6.43a4.42,4.42,0,0,1-2-3.9Z"/></g><path class="cls-55" d="M644,1017.07a10.87,10.87,0,0,0,4.08,2,102.49,102.49,0,0,1-5.22-12,10,10,0,0,0,4.48,2.51,95.1,95.1,0,0,1-5.45-12.88,6.61,6.61,0,0,0,2.65,1.37,76.39,76.39,0,0,1-5.6-15.1,76.39,76.39,0,0,1-5.6,15.1A6.56,6.56,0,0,0,636,996.7a95.2,95.2,0,0,1-5.45,12.89,10,10,0,0,0,4.48-2.51,102.49,102.49,0,0,1-5.22,12,10.87,10.87,0,0,0,4.08-2,116.16,116.16,0,0,1-5.73,13,12.74,12.74,0,0,0,6-3.46c1.73-1.83,4.81,8.07,4.81,8.07s3.08-9.9,4.82-8.07a12.74,12.74,0,0,0,6,3.46A116.16,116.16,0,0,1,644,1017.07Z"/><path class="cls-56" d="M668.24,1007.23a13.39,13.39,0,0,0,5,2.51,124.4,124.4,0,0,1-6.42-14.8,12.2,12.2,0,0,0,5.51,3.1,117.77,117.77,0,0,1-6.71-15.85,8.21,8.21,0,0,0,3.26,1.68A94.16,94.16,0,0,1,662,965.29a94.51,94.51,0,0,1-6.88,18.58,8.16,8.16,0,0,0,3.27-1.69A118.42,118.42,0,0,1,651.69,998a12.2,12.2,0,0,0,5.51-3.1,124.4,124.4,0,0,1-6.42,14.8,13.39,13.39,0,0,0,5-2.51,140.46,140.46,0,0,1-7,16,15.66,15.66,0,0,0,7.35-4.25c2.13-2.25,5.92,9.93,5.92,9.93s3.79-12.18,5.92-9.93a15.66,15.66,0,0,0,7.34,4.25A142.14,142.14,0,0,1,668.24,1007.23Z"/><path class="cls-57" d="M688.58,1012a10,10,0,0,0,3.75,1.87,91.79,91.79,0,0,1-4.79-11,9.12,9.12,0,0,0,4.11,2.31,87,87,0,0,1-5-11.83,6.14,6.14,0,0,0,2.44,1.26,70,70,0,0,1-5.14-13.87,70.37,70.37,0,0,1-5.15,13.87,6.09,6.09,0,0,0,2.45-1.27,87.6,87.6,0,0,1-5,11.84,9.12,9.12,0,0,0,4.11-2.31,91.79,91.79,0,0,1-4.79,11,10.07,10.07,0,0,0,3.75-1.87,105.57,105.57,0,0,1-5.26,12,11.78,11.78,0,0,0,5.48-3.18c1.59-1.68,4.42,7.41,4.42,7.41s2.83-9.09,4.42-7.41a11.78,11.78,0,0,0,5.48,3.18A105.57,105.57,0,0,1,688.58,1012Z"/><path class="cls-58" d="M738,1031.16v77.14c-3.31.28-15.42,1.23-31.18,1.35h-.32c-6.13,0-12.81,0-19.73-.32-23.37-1-49.55-4.31-67.09-13.33-7.09-3.64-12.77-8.2-16.28-13.92-3.28-5.34-4.66-11.68-3.53-19.19,0,0,.56-1,1.69-2.61h0a95.36,95.36,0,0,1,35.49-30.58c1-.48,2-.94,3-1.39l1.87-.82.15-.06h0l1.78-.72h0c1.17-.46,2.37-.9,3.59-1.32.93-.32,1.88-.63,2.84-.92a68.62,68.62,0,0,1,9.23-2.11c1.76-.29,3.56-.52,5.37-.7s3.84-.33,5.79-.42c1.17-.05,2.35-.08,3.54-.1l1.25,0,3.68,0,1.75.05q3,.09,5.9.29c.87.07,1.74.13,2.6.21,1.17.09,2.33.2,3.48.32h0A256,256,0,0,1,738,1031.16Z"/><path class="cls-59" d="M1,987.67s25-15,45.76-34,44.65-19,65.43,0,10.17,64.11,10.17,64.11S45,1086.26,24.19,1061.06,1,1029.58,1,1029.58Z"/><path class="cls-60" d="M738,1086.34V1249.8H1l17.49-95.91,0-.22,15.91-87.23.19-1.07s1.93-1.33,4.93-3.67,7-5.57,11.18-9.5a104.94,104.94,0,0,0,15.41-17.5,66.55,66.55,0,0,1,13-14.53c9.25-7.56,20.74-11.89,33.69-8.72.61.14,1.22.31,1.84.49a41.33,41.33,0,0,1,4.11,1.46,27.24,27.24,0,0,1,4,2.06c18.65,11.48,18.65,41.39,18.65,41.39s28.82-13.63,54.19,8.52,53.42,65.59,92.24,81.78c18.72,7.8,41.11,16.9,65.05,23.74,25.7,7.35,53.18,12.11,79.84,9.9,31.44-2.59,51.84-12.33,68.57-24.87,10.68-8,19.85-17.1,29.44-26.24,19.87-18.92,43.26-57,70.77-69.39h0a40.82,40.82,0,0,1,20.31-3.86c8.55.7,18.06,3.81,28,7.9l1.82.76c14.27,6,29.27,13.92,43.26,19.38,1.24.49,2.48,1,3.7,1.4a102.45,102.45,0,0,0,11.69,3.54C721,1091.88,730.51,1091.64,738,1086.34Z"/><path class="cls-61" d="M738,1069.3v110.11l-17.6.74-3,.12-5.55.23h0l-4.65.2s-.11-2.76-.25-7.39c0-.16,0-.33,0-.5-.32-10.73-.79-30.76-.48-49.65,0-1.42.05-2.83.08-4.23.07-2.91.16-5.78.28-8.56h0c0-.24,0-.48,0-.71.1-2.42.22-4.77.36-7a38,38,0,0,1,3.12-13.23C717.35,1073.57,733.94,1070,738,1069.3Z"/><path class="cls-62" d="M290.61,1181s14.73,7.13,60.82-9.5,81.26-43.72,110.72-44.67,46.09,25.66,43.71,68.43-222.31,36.29-224,19.8S290.61,1181,290.61,1181Z"/><path class="cls-63" d="M71.4,1054.67c-.29.51-.58,1-.86,1.46a65.72,65.72,0,0,1-3.72,5.57H0V959.32c2.22-.33,15.28-1.67,28.16,9.68.38.33.76.67,1.14,1,14.49,13.64,13.64,26.86,13.64,26.86s22.17-3,33.68,17.06a24.7,24.7,0,0,1,2.52,6.22C82.36,1032.63,76.12,1046.53,71.4,1054.67Z"/><path class="cls-64" d="M366.79,1264.27H0V1000l1,.42c6.4,2.91,33.78,18,28.33,61.28q-.11.88-.24,1.8a20.25,20.25,0,0,1,1.63-1.8,33,33,0,0,1,20-9.5,37.37,37.37,0,0,1,18.85,3.49l1,.44a70.2,70.2,0,0,1,15.76,10.52q3.3,2.83,6.09,5.72c.63.64,1.23,1.28,1.81,1.92,26.54,28.94,18.64,59.77,18.64,59.77s23.32-23.46,42.67-7.56c14.57,12,14.05,25.83,14.05,25.83s9.37-17.64,22.38-5.67,12,30.24,13,49.77c0,0,24.45-17.64,42.14-5.67,0,0,29.86-27.6,49-8.57l.39.38a46.12,46.12,0,0,1,13,32.13s26.53-18.9,45.27,0a42,42,0,0,1,8.62,12.83,52.47,52.47,0,0,1,3.38,11.06A65.86,65.86,0,0,1,368,1249.8,67.41,67.41,0,0,1,366.79,1264.27Z"/><path class="cls-65" d="M520.73,1197.07s5.32-18.72,17.8-9.32c0,0,3-28.6,38.09-22.6S614.8,1211,614.8,1211l-41,15.3Z"/><path class="cls-66" d="M710.14,1175.74a28.31,28.31,0,0,0,11,5.84,297.74,297.74,0,0,1-14-34.5,26.15,26.15,0,0,0,12,7.22,285.51,285.51,0,0,1-14.6-37,17.46,17.46,0,0,0,7.1,3.93c-9.65-19.7-15-43.34-15-43.34s-5.36,23.64-15,43.34a17.39,17.39,0,0,0,7.13-4,285.08,285.08,0,0,1-14.61,37,26.15,26.15,0,0,0,12-7.22,299.41,299.41,0,0,1-14,34.5,28.23,28.23,0,0,0,10.94-5.84,345.28,345.28,0,0,1-15.35,37.36,33.55,33.55,0,0,0,16-9.92c4.65-5.26,12.91-5.26,12.91-5.26s8.26,0,12.9,5.26a33.6,33.6,0,0,0,16,9.92A343.37,343.37,0,0,1,710.14,1175.74Z"/><path class="cls-67" d="M672.48,1219.2a32.16,32.16,0,0,0,12.08,6,294.83,294.83,0,0,1-15.44-35.58,29.46,29.46,0,0,0,13.24,7.45A284.45,284.45,0,0,1,666.24,1159a19.7,19.7,0,0,0,7.83,4c-10.64-20.32-16.56-44.7-16.56-44.7s-5.92,24.38-16.57,44.7a19.78,19.78,0,0,0,7.87-4.08,284.75,284.75,0,0,1-16.12,38.15,29.51,29.51,0,0,0,13.24-7.45,296.43,296.43,0,0,1-15.44,35.58,32.16,32.16,0,0,0,12.08-6,342.84,342.84,0,0,1-17,38.53,37.7,37.7,0,0,0,17.66-10.24c5.13-5.41,14.24-5.41,14.24-5.41s9.12,0,14.24,5.41a37.7,37.7,0,0,0,17.66,10.24A342.74,342.74,0,0,1,672.48,1219.2Z"/><path class="cls-68" d="M274,1264.79s65-12.9,136.9-43,95.38-49.44,152.68-14.33,79.22,87.41,79.22,87.41H274Z"/><path class="cls-69" d="M633.79,1215.84a56,56,0,0,0,20,9.05,424.72,424.72,0,0,1-25.6-53.44,50.7,50.7,0,0,0,21.95,11.18c-11-19-20-39.66-26.72-57.25a34.11,34.11,0,0,0,13,6.08C618.78,1101,609,1064.33,609,1064.33s-9.81,36.62-27.47,67.13a34.2,34.2,0,0,0,13-6.12c-6.73,17.6-15.71,38.24-26.74,57.29a50.7,50.7,0,0,0,21.95-11.18,424.72,424.72,0,0,1-25.6,53.44,55.91,55.91,0,0,0,20-9.05,491,491,0,0,1-28.09,57.87s16.51-3.15,29.27-15.37c8.5-8.13,23.62-8.13,23.62-8.13s15.11,0,23.61,8.13c12.76,12.22,29.28,15.37,29.28,15.37A489.56,489.56,0,0,1,633.79,1215.84Z"/><path class="cls-70" d="M105.22,1170.83a30,30,0,0,0,10.57,4.61,214.18,214.18,0,0,1-13.51-27.23,27.27,27.27,0,0,0,11.59,5.7,204,204,0,0,1-14.11-29.18,18.5,18.5,0,0,0,6.86,3.1c-9.33-15.56-14.5-34.22-14.5-34.22s-5.18,18.66-14.5,34.22a18.29,18.29,0,0,0,6.88-3.13,204.22,204.22,0,0,1-14.11,29.21,27.33,27.33,0,0,0,11.59-5.7,213,213,0,0,1-13.52,27.23A30.09,30.09,0,0,0,79,1170.83a246.84,246.84,0,0,1-14.84,29.5,34.74,34.74,0,0,0,15.46-7.84c4.49-4.14,12.47-4.14,12.47-4.14s8,0,12.46,4.14a34.74,34.74,0,0,0,15.46,7.84A245.25,245.25,0,0,1,105.22,1170.83Z"/><path class="cls-71" d="M139.65,1189.2a22.7,22.7,0,0,0,7.83,3.84,161.8,161.8,0,0,1-9.3-21,20.63,20.63,0,0,0,8.57,4.69,154.36,154.36,0,0,1-9.69-22.52,13.94,13.94,0,0,0,5.08,2.57c-6.52-12.06-9.81-26.33-9.81-26.33s-4.54,13.92-12.1,25.36a13.81,13.81,0,0,0,5.31-2.13,154.47,154.47,0,0,1-11.64,21.6,20.56,20.56,0,0,0,8.94-3.92,159.64,159.64,0,0,1-11.12,20.12,22.65,22.65,0,0,0,8.15-3.13,186.78,186.78,0,0,1-12.2,21.79,26.23,26.23,0,0,0,11.94-5.4c3.53-3,9.56-2.71,9.56-2.71s6,.26,9.28,3.55a26.32,26.32,0,0,0,11.42,6.43A186.08,186.08,0,0,1,139.65,1189.2Z"/><path class="cls-72" d="M738,1157.43v145H0V1149.2c1.92.39,8.11,1.7,17.73,4.47l.74.22a433.2,433.2,0,0,1,51,18.66l.53.23,2.62,1.15.31.14c1.12.48,2.24,1,3.37,1.5l.54.24c12,5.44,25,11.9,38.89,19.58l.43.24.85.47.82.46,3.48,2q3,1.73,6.31,3.48l0,0c28,15,70.27,32.28,116.58,47.77,13.13,4.39,26.6,8.64,40.15,12.65h0l.07,0h0c2,.61,4.07,1.2,6.11,1.79,64,18.58,129.35,31.64,171.81,29.54,37.5-1.85,69.08-11.68,96-24.1l.56-.26a365.13,365.13,0,0,0,36.41-19.65c3.92-2.38,7.71-4.76,11.39-7.1l.33-.21c10.91-7,20.79-13.67,29.79-19.32l.32-.2.06,0,.09-.06c1.37-.86,2.71-1.68,4-2.48l.26-.16h0l.71-.43.25-.15,0,0,.5-.29.06,0q2.87-1.71,5.6-3.44l.46-.29c8.53-5.41,16.21-11,23.45-16.52l.51-.39,1.51-1.15,1-.76h0l1.76-1.37.25-.2,2.61-2,.49-.39c8.86-6.9,17.27-13.55,26.09-19.44.24-.18.49-.34.73-.5,2.42-1.61,4.87-3.15,7.38-4.63.2-.13.41-.25.62-.37A124.58,124.58,0,0,1,738,1157.43Z"/><path class="cls-73" d="M646.15,667.34l-2-5.52a5.86,5.86,0,0,0-3.59-3.54l-5.53-1.92,5.51-2a5.85,5.85,0,0,0,3.55-3.59l1.92-5.53,2,5.51a5.87,5.87,0,0,0,3.59,3.55l5.53,1.92-5.51,2a5.81,5.81,0,0,0-3.55,3.58Z"/><path class="cls-74" d="M661.35,742.89l-.69-1.91a2,2,0,0,0-1.24-1.23l-1.92-.67,1.91-.69a2,2,0,0,0,1.23-1.24l.67-1.92.68,1.91a2,2,0,0,0,1.25,1.23l1.92.67-1.91.69A2,2,0,0,0,662,741Z"/><path class="cls-75" d="M53.61,725l-.44-1.24a1.34,1.34,0,0,0-.82-.81l-1.25-.43,1.25-.45a1.29,1.29,0,0,0,.8-.81l.44-1.25L54,721.2a1.34,1.34,0,0,0,.82.81l1.25.43-1.25.45a1.29,1.29,0,0,0-.8.81Z"/><path class="cls-76" d="M694,875.76l-.69-1.92a2.07,2.07,0,0,0-1.24-1.23l-1.93-.66,1.92-.69a2,2,0,0,0,1.23-1.25l.67-1.92.68,1.92a2,2,0,0,0,1.25,1.23l1.92.67-1.92.68a2.06,2.06,0,0,0-1.23,1.25Z"/><path class="cls-77" d="M581.78,734.92l-1.8-5a5.29,5.29,0,0,0-3.26-3.22l-5-1.75,5-1.8a5.31,5.31,0,0,0,3.23-3.25l1.74-5,1.8,5a5.29,5.29,0,0,0,3.26,3.22l5,1.75-5,1.79a5.32,5.32,0,0,0-3.23,3.26Z"/><path class="cls-78" d="M648.19,820.88,647,817.61a3.42,3.42,0,0,0-2.12-2.1l-3.28-1.14,3.26-1.17a3.5,3.5,0,0,0,2.11-2.13l1.14-3.28,1.17,3.27a3.42,3.42,0,0,0,2.12,2.1l3.28,1.14-3.26,1.17a3.5,3.5,0,0,0-2.11,2.13Z"/><path class="cls-79" d="M163.62,804.73l-.68-1.92a2.06,2.06,0,0,0-1.25-1.23l-1.92-.66,1.91-.69a2,2,0,0,0,1.24-1.25l.66-1.92.69,1.92a2,2,0,0,0,1.24,1.23l1.92.66-1.91.69a2,2,0,0,0-1.23,1.25Z"/><path class="cls-80" d="M173.84,894.18l-1-2.78a3,3,0,0,0-1.81-1.79l-2.78-1,2.77-1a2.93,2.93,0,0,0,1.79-1.8l1-2.79,1,2.78a2.93,2.93,0,0,0,1.81,1.78l2.78,1-2.77,1a2.93,2.93,0,0,0-1.79,1.8Z"/><path class="cls-81" d="M72.92,837.17l-1.17-3.26a3.5,3.5,0,0,0-2.13-2.11l-3.28-1.13,3.27-1.18a3.45,3.45,0,0,0,2.1-2.12l1.14-3.28L74,827.36a3.46,3.46,0,0,0,2.13,2.1l3.28,1.14-3.27,1.17a3.42,3.42,0,0,0-2.1,2.12Z"/><path class="cls-82" d="M339.44,750.49v0a2.31,2.31,0,0,1-2.32,2.29H202.83a2.32,2.32,0,0,1-2.19-1.56,19.52,19.52,0,0,1,30.7-21.6c0-.61-.06-1.22-.06-1.84a30,30,0,0,1,59.49-5.48A15.38,15.38,0,0,1,317,733.18v.45a17.28,17.28,0,0,1,4.85-.69A17.55,17.55,0,0,1,339.44,750.49Z"/><path class="cls-83" d="M517.23,822.84a11.59,11.59,0,0,1-1,5.83,2.61,2.61,0,0,1-2.36,1.52H450.75a2.61,2.61,0,0,1-2.37-1.55,11,11,0,0,1-1-4.56,11.16,11.16,0,0,1,16.85-9.59,17.53,17.53,0,0,1,35-.24,11.57,11.57,0,0,1,17.93,8.59Z"/></g></g></svg>