<svg xmlns="http://www.w3.org/2000/svg" xmlns:xlink="http://www.w3.org/1999/xlink" viewBox="0 0 1209.64 1176.26"><defs><style>.cls-1,.cls-10,.cls-12,.cls-18{stroke:#fff;stroke-width:4px;}.cls-1,.cls-10,.cls-12,.cls-13,.cls-14,.cls-15,.cls-16,.cls-18,.cls-19,.cls-20,.cls-21,.cls-22{stroke-miterlimit:10;}.cls-1{fill:url(#linear-gradient);}.cls-2{fill:#d3effb;}.cls-3{fill:#b9e2f6;}.cls-4{fill:url(#linear-gradient-2);}.cls-5{fill:#b1d8a8;}.cls-6{fill:#4fb7aa;}.cls-7{fill:url(#linear-gradient-3);}.cls-8{fill:url(#linear-gradient-4);}.cls-9{fill:url(#linear-gradient-5);}.cls-10{fill:url(#linear-gradient-6);}.cls-11{font-size:46px;fill:#15477c;font-family:Poppins-SemiBold, Poppins;font-weight:600;}.cls-12{fill:url(#linear-gradient-7);}.cls-13,.cls-15,.cls-19,.cls-20{stroke:#1263cb;}.cls-13,.cls-14,.cls-15,.cls-16,.cls-19,.cls-20,.cls-21{stroke-width:2px;}.cls-13{fill:url(#linear-gradient-8);}.cls-14,.cls-21{fill:#2697f4;}.cls-14{stroke:url(#linear-gradient-9);}.cls-15{fill:url(#linear-gradient-10);}.cls-16{fill:#ff6234;stroke:url(#linear-gradient-11);}.cls-17{fill:#fbfdfb;}.cls-18{fill:url(#linear-gradient-12);}.cls-19{fill:url(#linear-gradient-13);}.cls-20{fill:url(#linear-gradient-14);}.cls-21{stroke:url(#linear-gradient-15);}.cls-22{fill:#fea330;stroke-width:6px;stroke:url(#linear-gradient-16);}.cls-23{fill:#f7fcfd;}.cls-24{fill:url(#linear-gradient-17);}.cls-25{fill:url(#linear-gradient-18);}.cls-26{fill:#fac747;}.cls-27{fill:#fe6f23;}.cls-28{fill:#ee4e1c;}.cls-29{fill:#fff;}.cls-30{fill:#1280d5;}.cls-31{fill:#ff6d20;}.cls-32{opacity:0.1;}.cls-33{fill:#55d5fc;}.cls-34{fill:#fe6a22;}.cls-35{fill:#ed4a1f;}</style><linearGradient id="linear-gradient" x1="586.68" y1="-395.26" x2="583.27" y2="590.38" gradientUnits="userSpaceOnUse"><stop offset="0" stop-color="#b9e2f6"/><stop offset="1" stop-color="#e2f4fb"/></linearGradient><linearGradient id="linear-gradient-2" x1="606.85" y1="1138.13" x2="603.44" y2="795.94" gradientUnits="userSpaceOnUse"><stop offset="0.14" stop-color="#edf9ed"/><stop offset="1" stop-color="#cee9cc"/></linearGradient><linearGradient id="linear-gradient-3" x1="554.2" y1="851.89" x2="554.2" y2="1187.7" gradientUnits="userSpaceOnUse"><stop offset="0" stop-color="#2093fa" stop-opacity="0"/><stop offset="0.51" stop-color="#2093fa"/><stop offset="1" stop-color="#2093fa" stop-opacity="0"/></linearGradient><linearGradient id="linear-gradient-4" x1="685.39" y1="1153.16" x2="685.39" y2="838.3" xlink:href="#linear-gradient-3"/><linearGradient id="linear-gradient-5" x1="779.49" y1="1186.81" x2="593.05" y2="898.05" xlink:href="#linear-gradient-3"/><linearGradient id="linear-gradient-6" x1="671.34" y1="167.19" x2="665.97" y2="301.72" gradientTransform="translate(249.78 10.54)" gradientUnits="userSpaceOnUse"><stop offset="0" stop-color="#e2f4fb"/><stop offset="1" stop-color="#b9e2f6"/></linearGradient><linearGradient id="linear-gradient-7" x1="496.96" y1="276.33" x2="491.59" y2="410.86" gradientTransform="translate(240.16 -6.6)" xlink:href="#linear-gradient-6"/><linearGradient id="linear-gradient-8" x1="176.93" y1="649.54" x2="176.93" y2="816.71" gradientUnits="userSpaceOnUse"><stop offset="0" stop-color="#1263cb"/><stop offset="1" stop-color="#2c589a"/></linearGradient><linearGradient id="linear-gradient-9" x1="103.93" y1="701.5" x2="263.81" y2="701.5" gradientUnits="userSpaceOnUse"><stop offset="0" stop-color="#1860bf"/><stop offset="1" stop-color="#2697f4"/></linearGradient><linearGradient id="linear-gradient-10" x1="1041.93" y1="679.47" x2="1041.93" y2="810.73" xlink:href="#linear-gradient-8"/><linearGradient id="linear-gradient-11" x1="957.58" y1="720.07" x2="1119.65" y2="720.07" gradientUnits="userSpaceOnUse"><stop offset="0" stop-color="#ff6234"/><stop offset="1" stop-color="#fea330"/></linearGradient><linearGradient id="linear-gradient-12" x1="811.81" y1="343.59" x2="806.44" y2="478.12" gradientTransform="translate(232.3 23.14)" xlink:href="#linear-gradient-6"/><linearGradient id="linear-gradient-13" x1="871.74" y1="859.08" x2="870.22" y2="776.47" xlink:href="#linear-gradient-8"/><linearGradient id="linear-gradient-14" x1="836.39" y1="660.54" x2="837.15" y2="820.45" xlink:href="#linear-gradient-8"/><linearGradient id="linear-gradient-15" x1="776.71" y1="791.57" x2="955.79" y2="791.57" xlink:href="#linear-gradient-9"/><linearGradient id="linear-gradient-16" x1="750.46" y1="616.84" x2="921.42" y2="616.84" xlink:href="#linear-gradient-11"/><linearGradient id="linear-gradient-17" x1="-1474.78" y1="2597.64" x2="-1474.78" y2="2215.82" gradientTransform="matrix(0.76, 0.65, -0.65, 0.76, 2957.58, 38.99)" gradientUnits="userSpaceOnUse"><stop offset="0" stop-color="#fac747" stop-opacity="0"/><stop offset="0.49" stop-color="#fac546"/><stop offset="1" stop-color="#ff902a"/></linearGradient><linearGradient id="linear-gradient-18" x1="-1483.92" y1="2619.13" x2="-1480.73" y2="2226.54" xlink:href="#linear-gradient-17"/></defs><g id="Layer_2" data-name="Layer 2"><g id="Layer_2-2" data-name="Layer 2"><circle class="cls-1" cx="583.43" cy="543.5" r="541.5"/><path class="cls-2" d="M55.93,826s-21-3-25-34-17-20-28-72,6-141,102-143,91-73,204-18,76-74,235,18,201,7,293-16,90-44,170,46,106-26,148,86,8,116-7,133S55.93,826,55.93,826Z"/><path class="cls-3" d="M143.93,844s-65.69-23.39-52.34-73.69S177.93,793,176.93,770s-38-150,43-134,109-51,160-22,26,92,53,96,73,53,114,41,53-38,91-14,75-19,116-6,46-22,83,20,18-75,93-97,64,8.4,121-10.8,76-20.2,68,17.8-55,96,0,113-24,54-68,69S143.93,844,143.93,844Z"/><path class="cls-4" d="M294.93,800s-266,3-269,25,73,20,73,20-30,28,8,28,80,19,53,31-89,27-52,38,117,11,105,22-63,12-8,37,115,48,113,100,441,56,514-16,242-45,206-84-84-26-18-43,20-18,0-40,45,0,62-20-1-38,10-40,131-10,75-32S530.93,757,294.93,800Z"/><path class="cls-5" d="M45.93,809s-21,5,5.49,17,173.51,29,223.51,25,152-20,105-36S80.93,796,45.93,809Z"/><path class="cls-6" d="M104.93,815s-55.85,6.82-43.42-2.09S89.93,810,75.93,795s-2-22,29-3c0,0-3-40,16-28s9,28,15,28,12-10,18-2,11-7,23,2,15-29,28-10,5.12,18.73,21.56,18.86S263.93,816,238.93,815,140.93,809,104.93,815Z"/><path class="cls-7" d="M379.4,1176.26l-21.39-.47c.06-.26,1.51-6.48,6.63-16l20.91,1.51A68.14,68.14,0,0,0,379.4,1176.26ZM395,1146.54l-20.37-2.19a141.5,141.5,0,0,1,13.15-15l19.66,2.91A134.83,134.83,0,0,0,395,1146.54ZM423,1118.69,404.36,1115a199.82,199.82,0,0,1,20.46-13.55l17.29,4.55A182.47,182.47,0,0,0,423,1118.69Zm41.85-24.16-15.36-5.47a294.85,294.85,0,0,1,29.13-10.78l12.81,6.39A270.67,270.67,0,0,0,464.89,1094.53Zm56.69-17.75-9.7-7.18c10.93-2.34,22.49-4.34,34.37-5.95l1.94-.26,6.44,7.73-1.88.26C542,1072.84,531.48,1074.66,521.58,1076.78Zm68.63-9.92L585,1059c11.08-1.19,23.16-2.39,36.93-3.67l4.6,7.93C612.94,1064.51,601.08,1065.69,590.21,1066.86Zm72.94-6.87-4.37-8,12.51-1.08,24.22-2.09,4.51,7.93-24.36,2.11Zm73.79-6.57-5-7.88c13.27-1.28,25-2.5,35.84-3.75l6,7.78C762.57,1050.85,750.54,1052.11,736.94,1053.42Zm73.16-8.55-7.49-7.57c12.09-1.76,23.25-3.65,33.17-5.62l9.69,7.19C834.69,1041,823.12,1043,810.1,1044.87Zm68.53-13.94L866,1024.49a174.26,174.26,0,0,0,25.09-9.14l16.17,5.12A197,197,0,0,1,878.63,1030.93Zm49.2-23.45-19.06-3.26a34.18,34.18,0,0,0,9.31-12.58L938.49,993A38.92,38.92,0,0,1,927.83,1007.48Zm12.54-29.28-20.55.18-.07-.6a36.38,36.38,0,0,0-1-5,39.91,39.91,0,0,0-3-7.74l20.1-1.37a44.25,44.25,0,0,1,3.36,8.43,40.3,40.3,0,0,1,1.13,5.4C940.32,977.76,940.34,978,940.37,978.2Zm-34.65-25.61a69.65,69.65,0,0,0-17.45-10.79l15.47-4.86a82.77,82.77,0,0,1,20.68,12.7Zm-42.58-19a294.57,294.57,0,0,0-30.79-5.4l6.39-7.16a338.39,338.39,0,0,1,35.08,6.15ZM798.57,925c-10.63-.73-22.11-1.3-35.12-1.75l1.88-7.5c13.56.47,25.6,1.07,36.78,1.83Zm-70.83-2.63c-10.13-.18-21.24-.31-36-.45l.66-7.51c14.88.13,26.09.27,36.35.44Zm-72.19-.75c-14.56-.13-25.76-.26-36.3-.42l1.14-7.5c10.4.15,21.48.28,35.9.41Zm-72.65-1.16c-12.91-.35-24.78-.76-36.3-1.27l2.84-7.45c11.19.5,22.73.9,35.31,1.24Zm-72.39-3.29c-4.49-.31-9-.63-13.32-1-7.66-.6-15.16-1.27-22.27-2l5.79-7.22c6.75.68,13.87,1.32,21.16,1.89,4.17.33,8.47.65,12.77.94Zm-70.27-7.25c-11.76-1.74-22.53-3.67-32.92-5.89l10.39-6.48c9.59,2,19.55,3.83,30.44,5.44ZM377.3,896.47c-10-2.92-18.7-5.88-26.78-8.65l13.76-5.51c7.81,2.68,16.23,5.52,25.67,8.28Zm-52.13-17.08c-9.31-2.85-17.86-5-26.91-6.91l10.25-6.4c10,2.07,19.44,4.48,29.61,7.57Zm-56.83-11.68c-9.84-1.17-20.72-2.11-32.33-2.8l4.24-7.14c12.52.75,24.3,1.76,35,3Zm-66-4.1c-10.67-.23-22.22-.31-34.3-.25l1.09-7.21c12.51-.07,24.48,0,35.58.25Z"/><path class="cls-8" d="M288.19,1145.86a58,58,0,0,1-7-15.53l21-1.38a55.15,55.15,0,0,0,6.45,14.27Zm-9.56-31c-.07-1.92-.05-3.86.06-5.77a59.82,59.82,0,0,1,1.35-9.68l20.91.33a57.39,57.39,0,0,0-1.22,9.13c-.09,1.8-.1,3.64,0,5.45Zm27.49-29.48-20.49-1.25a80.09,80.09,0,0,1,10.08-14.92l19.74,2.23A74.25,74.25,0,0,0,306.12,1085.38Zm23-27.23-18.62-3.24a162.31,162.31,0,0,1,19.44-13.37l17.13,4.21A148.79,148.79,0,0,0,329.1,1058.15ZM369,1034.46l-15.33-5.1c8.44-3.77,17.69-7.4,27.49-10.79l13.38,5.83C385.45,1027.57,376.86,1031,369,1034.46Zm54-18.81-11.42-6.41c5-1.36,10.19-2.69,15.44-4,5.47-1.33,11.07-2.67,16.62-4L454,1008c-5.48,1.3-11,2.62-16.41,3.94C432.64,1013.12,427.75,1014.37,423.05,1015.65Zm62.79-15L476,993.89c10.59-2.36,21.25-4.67,32.58-7.06l9.51,6.83C506.84,996,496.3,998.32,485.84,1000.65Zm64.73-13.72-9.24-6.87c8.49-1.72,16.62-3.35,24.46-4.92l8.3-1.66,9.22,6.86L575,982C567.15,983.58,559,985.21,550.57,986.93Zm65.48-13.29-9.67-6.76c12.44-2.62,22.28-4.85,31-7l11,6.44C639.19,968.59,628.94,970.91,616.05,973.64Zm62.78-16-13.45-5.71a146.86,146.86,0,0,0,22.74-9.58l16.57,4.34A167.55,167.55,0,0,1,678.83,957.59Zm44.06-23.79L704.15,931a56.22,56.22,0,0,0,10-12.4l19.63,1.6A61,61,0,0,1,722.89,933.8ZM740,906.74l-19.75-1.22a61.74,61.74,0,0,1,8.56-13.5l19.08,2.15A56.65,56.65,0,0,0,740,906.74Zm20.54-24.31-17.71-3.33a117.05,117.05,0,0,1,20.7-11.69l15.3,4.64A103.25,103.25,0,0,0,760.56,882.43Zm42.28-18.87-12-5.79c9.66-2.69,20.47-5.08,32.12-7.1l8.51,6.56C821.06,859,811.42,861.17,802.84,863.56Zm287.34-11.86c-6.17-.3-12.31-.59-18.25-.85l1.78-7.18c6,.26,12.23.55,18.49.85Zm-226.94,1.19-5.58-6.95c11.11-1.17,23.14-2.13,35.75-2.87l3.35,7.13C884.89,850.89,873.62,851.8,863.24,852.89Zm173.35-3.39c-12.16-.39-24-.68-35.29-.88l.49-7.22c11.5.2,23.62.5,36,.9Zm-105.39-.72-1.68-7.21c5.84-.15,11.89-.26,18-.34,5.88-.07,12-.12,18.18-.13l.44,7.22C954,848.34,942.26,848.49,931.2,848.78Z"/><path class="cls-9" d="M780.4,1173.7c-.06,0-6.47-5.46-16.45-14.4l19.66-3.48c9.9,8.82,16.24,14.13,16.3,14.19ZM748.3,1145c-5.09-4.74-10.14-9.53-15-14.26l19.75-3.22c4.88,4.69,9.92,9.44,15,14.13Zm-29.45-28.48c-4.74-4.78-9.37-9.55-13.78-14.19l19.83-3c4.4,4.6,9,9.33,13.75,14.05ZM692,1088.16c-4.33-4.8-8.5-9.56-12.38-14.14l19.94-2.63c3.86,4.52,8,9.23,12.32,14ZM668,1059.89c-3.8-4.84-7.36-9.6-10.59-14.14l20.08-2.22c3.2,4.47,6.74,9.15,10.51,13.92Zm-20-28.31c-3.06-4.92-5.76-9.7-8-14.21l20.27-1.61c2.25,4.4,4.92,9.06,7.93,13.87Zm-14.21-28.5a70.14,70.14,0,0,1-3.55-14.42l20.46-.48a67.58,67.58,0,0,0,3.47,13.75Zm17.36-28.38-20.32-.61a30.27,30.27,0,0,1,7.14-13.4l19.21,2.42A26,26,0,0,0,651.14,974.7Z"/><path class="cls-5" d="M996.93,808s-134,3-173,14-43,8-26,19,229,2,274,3,99,11,91-11S1016.93,807,996.93,808Z"/><path class="cls-6" d="M1032.93,830s-44-12-43-22,25-6,30,0-13-20,0-16,22,14.79,22,14.79,10-47.79,24-32.79,6,33,6,33,26-31,34-15-24,23-24,23,35-14,43,0S1081.93,839,1032.93,830Z"/><rect class="cls-10" x="755.93" y="183.5" width="325" height="123" rx="15.66" transform="translate(27.57 -86.53) rotate(5.48)"/><text class="cls-11" transform="translate(789.67 249.27) rotate(5.48)">Positioning</text><rect class="cls-12" x="571.93" y="275.5" width="325" height="123" rx="15.66" transform="translate(35.51 -68.55) rotate(5.48)"/><text class="cls-11" transform="translate(614.67 342.27) rotate(5.48)">Targeting</text><rect class="cls-13" x="167.93" y="654" width="18" height="166" rx="3.88"/><path class="cls-14" d="M234,726H110.15a5.22,5.22,0,0,1-5.22-5.22V682.22a5.22,5.22,0,0,1,5.22-5.22h123.9a5.36,5.36,0,0,1,3.35,1.18l23.4,18.71a5.37,5.37,0,0,1,.08,8.32l-23.45,19.55A5.42,5.42,0,0,1,234,726Z"/><rect class="cls-15" x="1032.93" y="677" width="18" height="149" rx="3.39"/><path class="cls-16" d="M989.2,692.56l121.65,6.07a8.21,8.21,0,0,1,7.79,8.61L1117,739.78a8.21,8.21,0,0,1-8.61,7.79L986.72,741.5a2.7,2.7,0,0,1-1.66-.68l-25.57-22.63a2.72,2.72,0,0,1,.17-4.2l27.77-20.89A2.73,2.73,0,0,1,989.2,692.56Z"/><path class="cls-17" d="M180.93,363s12-39,47-31c0,0,0-36,42-43s51,33,51,33,36-18,48,27c0,0,20-8,29,14Z"/><path class="cls-17" d="M364.53,185s9.94-32.32,38.94-25.69c0,0,0-29.83,34.8-35.63S480.53,151,480.53,151s29.83-14.92,39.78,22.37c0,0,16.57-6.63,24,11.6Z"/><path class="cls-17" d="M150.63,502s3.85-12.51,15.08-9.94c0,0,0-11.55,13.47-13.8s16.36,10.59,16.36,10.59,11.54-5.77,15.39,8.66c0,0,6.42-2.57,9.3,4.49Z"/><path class="cls-17" d="M813.23,519s-3.84-12.51-15.07-9.94c0,0,0-11.55-13.47-13.8s-16.36,10.59-16.36,10.59-11.55-5.77-15.4,8.66c0,0-6.41-2.57-9.3,4.49Z"/><path class="cls-17" d="M455.14,289a10.19,10.19,0,0,1-9.78-13.45C450.88,259,467,251.25,484.94,251c22.25-.31,42.91,10.1,42.81,36.41.36,25.42-20.59,28.35-29.64,35.32a13.69,13.69,0,0,0-5.09,8.35,10.25,10.25,0,0,1-9.9,8.09h-.69a10.17,10.17,0,0,1-10.11-11.79c2.33-14.28,9.35-18.7,16.06-22.77,8.3-5,17.9-6.56,17.75-17.08-.19-13.51-11.44-16.5-21.22-16.37-8,.12-16.21,4.23-19.22,11.47a10.19,10.19,0,0,1-9.26,6.3Zm39.56,72.23c.26,18.41-25,18.77-25.24.35C469.2,343,494.44,342.59,494.7,361.18Z"/><path class="cls-17" d="M293.14,451.2a8.14,8.14,0,0,1-7.9-10.65c4.36-12.83,17-18.83,30.91-19,17.4-.25,33.56,7.89,33.48,28.47.28,19.88-16.1,22.17-23.18,27.62a10.74,10.74,0,0,0-4,6.59,8.15,8.15,0,0,1-8,6.27h0a8.2,8.2,0,0,1-8.09-9.65c1.9-10.82,7.31-14.23,12.49-17.37,6.49-3.93,14-5.13,13.88-13.36-.15-10.56-8.94-12.9-16.59-12.8-6.21.09-12.52,3.23-14.94,8.76a8.36,8.36,0,0,1-7.46,5.14Zm30.65,56.49c.2,14.39-19.54,14.67-19.75.27S323.58,493.15,323.79,507.69Z"/><path class="cls-17" d="M623.43,139.2a8.79,8.79,0,0,1-8.54-11.5c4.71-13.86,18.32-20.34,33.39-20.56,18.8-.26,36.25,8.53,36.17,30.76.3,21.48-17.4,23.95-25.05,29.84a11.57,11.57,0,0,0-4.31,7.12,8.81,8.81,0,0,1-8.63,6.77h0a8.81,8.81,0,0,1-8.77-10.22c2-11.85,7.9-15.56,13.53-19,7-4.25,15.12-5.55,15-14.43-.16-11.41-9.66-13.94-17.92-13.83-6.71.1-13.53,3.49-16.14,9.46a9,9,0,0,1-8.06,5.55Zm33.1,61c.22,15.56-21.11,15.86-21.33.31C635,184.82,656.31,184.52,656.53,200.22Z"/><rect class="cls-18" x="878.93" y="372.5" width="325" height="123" rx="15.66" transform="translate(46.17 -97.4) rotate(5.48)"/><text class="cls-11" transform="translate(927.67 439.27) rotate(5.48)">Roadmap</text><rect class="cls-19" x="861.93" y="748" width="18" height="134" rx="3.16"/><rect class="cls-20" x="827.93" y="684" width="18" height="180" rx="3.16"/><path class="cls-21" d="M811.36,761.33,944.84,768a10.48,10.48,0,0,1,9.94,11l-1.64,32.88a10.48,10.48,0,0,1-11,9.94l-133.53-6.66a4.58,4.58,0,0,1-2.79-1.13l-26.56-23.24a4.58,4.58,0,0,1,.29-7.12l28.84-21.43A4.55,4.55,0,0,1,811.36,761.33Z"/><path class="cls-22" d="M824.68,550.19l-69.46,120.3A13,13,0,0,0,766.49,690H905.4a13,13,0,0,0,11.26-19.51l-69.45-120.3A13,13,0,0,0,824.68,550.19Z"/><path class="cls-23" d="M829.15,668.23a9.67,9.67,0,0,1,0-13.73,9.75,9.75,0,0,1,7.07-2.78,9.57,9.57,0,0,1,6.93,2.78,9.67,9.67,0,0,1,0,13.73,9.56,9.56,0,0,1-6.93,2.77A9.74,9.74,0,0,1,829.15,668.23Zm14.73-80.16-1.59,52.24a3,3,0,0,1-3,2.89h-7.14a3,3,0,0,1-3-2.89l-1.58-52.24a3,3,0,0,1,3-3.07H840.9A3,3,0,0,1,843.88,588.07Z"/><path class="cls-24" d="M378.16,784.79s-46.39,8.26-120,94.93-179.25,96.4-179.25,96.4,40.28,81.86,93.66,104.4S460.52,929.33,456,846.79,378.16,784.79,378.16,784.79Z"/><path class="cls-25" d="M78,1006.44s61.49-1.65,138.36-48.25S345.57,852.43,345.57,852.43l42.08,54.87s-77.21,91.4-155.71,118-91.68,29.88-111.72,31.51S78,1006.44,78,1006.44Z"/><path class="cls-26" d="M329.07,924.05C326.2,860.7,382,797.48,382,797.48L416.55,825l32.73,29.7s-53.36,65.25-116.34,72.68A3.46,3.46,0,0,1,329.07,924.05Z"/><path class="cls-27" d="M380.48,744.29c-13.26-8.55-34.41-8.32-55.71-4.67-17.86,3.06-35.83,8.5-49.32,13.18A8.75,8.75,0,0,1,265.11,740c83.95-139,180.66-115.34,180.66-115.34l-22.33,40.91Z"/><path class="cls-28" d="M380.48,744.29c-13.26-8.55-34.41-8.32-55.71-4.67,32.59-30.69,73.47-58.21,98.67-74Z"/><path class="cls-27" d="M496.69,843c10.58,11.7,13.78,32.61,13.63,54.22-.13,18.12-2.59,36.73-5,50.8a8.75,8.75,0,0,0,14.31,8.13c123.62-105.35,84.56-197,84.56-197l-36.75,28.66Z"/><path class="cls-28" d="M496.69,843c10.58,11.7,13.78,32.61,13.63,54.22,25-37.13,45.54-81.93,57.09-109.36Z"/><path class="cls-29" d="M497.19,843.41q-9.6,5.75-19.64,11.29c-9.95,5.5-21.86,4.72-30.38-2S427,836.62,413.62,825.27l-.85-.73c-13.76-11.68-25.28-22-33.38-29.4s-10.68-18.94-6.87-29.64q3.86-10.8,8-21.21C439.07,595.48,533.93,507.18,617,455.54c57.29-35.61,109-53.79,139.44-62.37a20.62,20.62,0,0,1,18.15,3.37h0a20.65,20.65,0,0,1,8.15,19c-3.4,30.16-12.35,81.13-35.94,140.28C710.22,647.64,638.33,759.24,497.19,843.41Z"/><path class="cls-30" d="M497.19,843.41q-9.6,5.75-19.64,11.29c-9.95,5.5-21.86,4.72-30.38-2s-20.65-16.48-34.4-28.17-25.28-22-33.38-29.4-10.68-18.94-6.87-29.64q3.86-10.8,8-21.21Z"/><path class="cls-31" d="M746.85,555.79C705.53,508.23,645.13,471.29,617,455.54c57.29-35.61,109-53.79,139.44-62.37a20.77,20.77,0,0,1,26.31,22.34C779.39,445.67,770.44,496.64,746.85,555.79Z"/><path class="cls-32" d="M497.19,843.41q-9.6,5.75-19.64,11.29c-9.95,5.5-21.86,4.72-30.38-2S427,836.62,413.62,825.27c42.86-55.39,110.76-141.64,119.69-143.88,13.17-3.31,5.44,66.78,5.44,66.78C721.37,580.4,765.32,437.45,774.64,396.55a20.65,20.65,0,0,1,8.15,19c-3.4,30.16-12.35,81.13-35.94,140.28C710.22,647.64,638.33,759.24,497.19,843.41Z"/><circle class="cls-30" cx="609.23" cy="595.66" r="60.8"/><circle class="cls-33" cx="609.23" cy="595.66" r="37.11"/><path class="cls-34" d="M388.24,861.91A2.55,2.55,0,0,1,386,861c-7.08-10,46.68-95.22,84.68-137.53,23.22-25.84,43-36.78,55-41.38a9.8,9.8,0,0,1,13.23,10.69c-.23,1.45-.53,3-.94,4.62C535,709.3,527.4,726.91,511,751.55,483,793.72,403.93,861.67,388.24,861.91Z"/><path class="cls-35" d="M388.24,861.91C479.31,777,521.66,707.3,534.76,683.21a9.74,9.74,0,0,1,4.08,9.57c-.23,1.45-.53,3-.94,4.62C535,709.3,527.4,726.91,511,751.55,483,793.72,403.93,861.67,388.24,861.91Z"/></g></g></svg>