<svg xmlns="http://www.w3.org/2000/svg" xmlns:xlink="http://www.w3.org/1999/xlink" viewBox="0 0 147.82 139"><defs><style>.cls-1{fill:url(#linear-gradient);}.cls-2{fill:url(#linear-gradient-2);}.cls-3{fill:url(#linear-gradient-3);}.cls-4{fill:url(#linear-gradient-4);}.cls-5{fill:url(#linear-gradient-5);}.cls-6{fill:url(#linear-gradient-6);}.cls-7{fill:url(#linear-gradient-7);}</style><linearGradient id="linear-gradient" x1="32.83" y1="19.03" x2="151.82" y2="132.71" gradientUnits="userSpaceOnUse"><stop offset="0" stop-color="#24b6ff"/><stop offset="1" stop-color="#22d5ff"/></linearGradient><linearGradient id="linear-gradient-2" x1="27.49" y1="24.61" x2="146.48" y2="138.3" xlink:href="#linear-gradient"/><linearGradient id="linear-gradient-3" x1="53.97" y1="-3.1" x2="172.96" y2="110.59" xlink:href="#linear-gradient"/><linearGradient id="linear-gradient-4" x1="-5.35" y1="58.99" x2="113.64" y2="172.68" xlink:href="#linear-gradient"/><linearGradient id="linear-gradient-5" x1="31.33" y1="20.6" x2="150.32" y2="134.28" xlink:href="#linear-gradient"/><linearGradient id="linear-gradient-6" x1="64.36" y1="-13.98" x2="183.35" y2="99.71" xlink:href="#linear-gradient"/><linearGradient id="linear-gradient-7" x1="-4.76" y1="58.37" x2="114.23" y2="172.05" xlink:href="#linear-gradient"/></defs><g id="Layer_2" data-name="Layer 2"><g id="Layer_2-2" data-name="Layer 2"><path class="cls-1" d="M127,126a17,17,0,1,1,17-17A17,17,0,0,1,127,126Zm0-28a11,11,0,1,0,11,11A11,11,0,0,0,127,98Z"/><path class="cls-2" d="M75,87A17,17,0,1,1,92,70,17,17,0,0,1,75,87Zm0-28A11,11,0,1,0,86,70,11,11,0,0,0,75,59Z"/><path class="cls-3" d="M75,34A17,17,0,1,1,92,17,17,17,0,0,1,75,34ZM75,6A11,11,0,1,0,86,17,11,11,0,0,0,75,6Z"/><path class="cls-4" d="M76,139a3,3,0,0,1-3-3V121.91A5.92,5.92,0,0,0,67.09,116H11.91A11.92,11.92,0,0,1,0,104.09V78.91A11.92,11.92,0,0,1,11.91,67H49a3,3,0,0,1,0,6H11.91A5.92,5.92,0,0,0,6,78.91v25.18A5.92,5.92,0,0,0,11.91,110H67.09A11.92,11.92,0,0,1,79,121.91V136A3,3,0,0,1,76,139Z"/><path class="cls-5" d="M36,60a3,3,0,0,1-3-3V25.91A11.92,11.92,0,0,1,44.91,14H61a3,3,0,0,1,0,6H44.91A5.92,5.92,0,0,0,39,25.91V57A3,3,0,0,1,36,60Z"/><path class="cls-6" d="M127,89a3,3,0,0,1-3-3V76.91A11.92,11.92,0,0,1,135.91,65a5.91,5.91,0,0,0,5.91-6l-.65-33.17a5.94,5.94,0,0,0-5.91-5.8H101a3,3,0,0,1,0-6h34.26a12,12,0,0,1,11.91,11.68l.65,33.17A11.9,11.9,0,0,1,135.91,71,5.92,5.92,0,0,0,130,76.91V86A3,3,0,0,1,127,89Z"/><path class="cls-7" d="M91,139H62a3,3,0,0,1,0-6H91a3,3,0,0,1,0,6Z"/></g></g></svg>