<svg xmlns="http://www.w3.org/2000/svg" xmlns:xlink="http://www.w3.org/1999/xlink" viewBox="0 0 120 130"><defs><style>.cls-1{fill:url(#linear-gradient);}.cls-2{fill:url(#linear-gradient-2);}.cls-3{fill:url(#linear-gradient-3);}</style><linearGradient id="linear-gradient" x1="141.15" y1="22.45" x2="22.92" y2="154.32" gradientUnits="userSpaceOnUse"><stop offset="0" stop-color="#24b6ff"/><stop offset="1" stop-color="#22d5ff"/></linearGradient><linearGradient id="linear-gradient-2" x1="126.76" y1="9.54" x2="8.53" y2="141.41" xlink:href="#linear-gradient"/><linearGradient id="linear-gradient-3" x1="110.87" y1="-4.7" x2="-7.36" y2="127.17" xlink:href="#linear-gradient"/></defs><g id="Layer_2" data-name="Layer 2"><g id="Layer_2-2" data-name="Layer 2"><path class="cls-1" d="M113.32,130H92.68A6.69,6.69,0,0,1,86,123.32V6.68A6.69,6.69,0,0,1,92.68,0h20.64A6.69,6.69,0,0,1,120,6.68V123.32A6.69,6.69,0,0,1,113.32,130ZM92.68,6a.67.67,0,0,0-.68.68V123.32a.67.67,0,0,0,.68.68h20.64a.67.67,0,0,0,.68-.68V6.68a.67.67,0,0,0-.68-.68Z"/><path class="cls-2" d="M70.32,130H49.68A6.69,6.69,0,0,1,43,123.32V44.68A6.69,6.69,0,0,1,49.68,38H70.32A6.69,6.69,0,0,1,77,44.68v78.64A6.69,6.69,0,0,1,70.32,130ZM49.68,44a.67.67,0,0,0-.68.68v78.64a.67.67,0,0,0,.68.68H70.32a.67.67,0,0,0,.68-.68V44.68a.67.67,0,0,0-.68-.68Z"/><path class="cls-3" d="M27.32,130H6.68A6.69,6.69,0,0,1,0,123.32V76.68A6.69,6.69,0,0,1,6.68,70H27.32A6.69,6.69,0,0,1,34,76.68v46.64A6.69,6.69,0,0,1,27.32,130ZM6.68,76a.67.67,0,0,0-.68.68v46.64a.67.67,0,0,0,.68.68H27.32a.67.67,0,0,0,.68-.68V76.68a.67.67,0,0,0-.68-.68Z"/></g></g></svg>