<svg xmlns="http://www.w3.org/2000/svg" xmlns:xlink="http://www.w3.org/1999/xlink" viewBox="0 0 136.27 152.94"><defs><style>.cls-1{fill:url(#linear-gradient);}.cls-2{fill:url(#linear-gradient-2);}.cls-3{fill:url(#linear-gradient-3);}.cls-4{fill:url(#linear-gradient-6);}.cls-10,.cls-5{opacity:0.2;}.cls-5{fill:url(#linear-gradient-7);}.cls-6{fill:url(#linear-gradient-8);}.cls-7{fill:url(#linear-gradient-9);}.cls-8{fill:url(#linear-gradient-10);}.cls-9{fill:url(#linear-gradient-12);}.cls-10{fill:url(#linear-gradient-13);}.cls-11{fill:url(#linear-gradient-14);}.cls-12{fill:url(#linear-gradient-15);}.cls-13{fill:url(#linear-gradient-16);}.cls-14{fill:url(#linear-gradient-17);}.cls-15{fill:url(#linear-gradient-18);}.cls-16{fill:url(#linear-gradient-19);}</style><linearGradient id="linear-gradient" x1="68.13" y1="-1.09" x2="68.13" y2="120.94" gradientUnits="userSpaceOnUse"><stop offset="0" stop-color="#24b6ff"/><stop offset="1" stop-color="#22d5ff"/></linearGradient><linearGradient id="linear-gradient-2" x1="68.14" y1="-1.09" x2="68.14" y2="120.94" xlink:href="#linear-gradient"/><linearGradient id="linear-gradient-3" x1="68.14" y1="-1.09" x2="68.14" y2="120.94" xlink:href="#linear-gradient"/><linearGradient id="linear-gradient-6" x1="68.14" y1="-1.85" x2="68.14" y2="182.6" xlink:href="#linear-gradient"/><linearGradient id="linear-gradient-7" x1="23.14" y1="74.95" x2="23.14" y2="96.97" xlink:href="#linear-gradient"/><linearGradient id="linear-gradient-8" x1="23.14" y1="74.95" x2="23.14" y2="96.97" xlink:href="#linear-gradient"/><linearGradient id="linear-gradient-9" x1="51.57" y1="40.85" x2="51.57" y2="107.92" xlink:href="#linear-gradient"/><linearGradient id="linear-gradient-10" x1="84.7" y1="40.85" x2="84.7" y2="107.92" xlink:href="#linear-gradient"/><linearGradient id="linear-gradient-12" x1="23.14" y1="-1.85" x2="23.14" y2="182.6" xlink:href="#linear-gradient"/><linearGradient id="linear-gradient-13" x1="113.14" y1="74.95" x2="113.14" y2="96.97" xlink:href="#linear-gradient"/><linearGradient id="linear-gradient-14" x1="113.14" y1="74.95" x2="113.14" y2="96.97" xlink:href="#linear-gradient"/><linearGradient id="linear-gradient-15" x1="113.14" y1="-1.85" x2="113.14" y2="182.6" xlink:href="#linear-gradient"/><linearGradient id="linear-gradient-16" x1="23.14" y1="-1.85" x2="23.14" y2="182.6" xlink:href="#linear-gradient"/><linearGradient id="linear-gradient-17" x1="113.14" y1="-1.85" x2="113.14" y2="182.6" xlink:href="#linear-gradient"/><linearGradient id="linear-gradient-18" x1="91.52" y1="-1.85" x2="91.52" y2="182.6" xlink:href="#linear-gradient"/><linearGradient id="linear-gradient-19" x1="45.02" y1="-1.85" x2="45.02" y2="182.6" xlink:href="#linear-gradient"/></defs><g id="Layer_2" data-name="Layer 2"><g id="Layer_2-2" data-name="Layer 2"><path class="cls-1" d="M68.13,152.94a63.5,63.5,0,0,1-63-55.53,3,3,0,1,1,6-.75,57.51,57.51,0,0,0,114.11,0,3,3,0,1,1,5.95.75,63.5,63.5,0,0,1-63,55.53Z"/><path class="cls-2" d="M68.14,152.94a63.65,63.65,0,0,1-52-27l-1.68-2.4,2.35-1.74a86.58,86.58,0,0,1,84.81-10.11,85.42,85.42,0,0,1,17.8,10.11l2.36,1.74-1.69,2.4A63.64,63.64,0,0,1,68.14,152.94ZM22.85,124.87a57.49,57.49,0,0,0,90.57,0A80.6,80.6,0,0,0,37,117.21,79.6,79.6,0,0,0,22.85,124.87Z"/><path class="cls-3" d="M68.13,152.94c-15.29,0-29.12-14.81-35.23-37.73a96.23,96.23,0,0,1-2.66-14.43,3,3,0,1,1,6-.65,89.9,89.9,0,0,0,2.5,13.54c5.39,20.21,16.94,33.27,29.43,33.27s24.06-13.06,29.44-33.27a90.42,90.42,0,0,0,2.5-13.54,3,3,0,1,1,6,.65,97,97,0,0,1-2.66,14.43C97.26,138.13,83.43,152.94,68.13,152.94Z"/><path class="cls-2" d="M68.14,152.94a3,3,0,0,1-3-3v-84a3,3,0,0,1,6,0v84A3,3,0,0,1,68.14,152.94Z"/><path class="cls-2" d="M88.27,66.94H48a3,3,0,0,1,0-6H88.27a3,3,0,0,1,0,6Z"/><path class="cls-4" d="M88.27,35.94H48a3,3,0,1,1,0-6H88.27a3,3,0,1,1,0,6Z"/><path class="cls-5" d="M46.23,77.94a27,27,0,0,1-46.18,0Z"/><path class="cls-6" d="M43.27,80.94H3a3,3,0,0,1,0-6H43.27a3,3,0,1,1,0,6Z"/><path class="cls-7" d="M51.57,57.94a2,2,0,0,1-2-2v-14a2,2,0,0,1,4,0v14A2,2,0,0,1,51.57,57.94Z"/><path class="cls-8" d="M84.7,57.94a2,2,0,0,1-2-2v-14a2,2,0,0,1,4,0v14A2,2,0,0,1,84.7,57.94Z"/><path class="cls-4" d="M82,27.94a3,3,0,0,1-2.61-1.5L68.14,6.94,56.88,26.44a3,3,0,1,1-5.2-3L63.76,2.53A5,5,0,0,1,68.14,0h0a5,5,0,0,1,4.38,2.53L84.59,23.44A3,3,0,0,1,82,27.94Z"/><path class="cls-9" d="M37,73a3,3,0,0,1-2.81-2l-11-29.7-11,29.7A3,3,0,0,1,6.47,69L18.54,36.49a5,5,0,0,1,4.6-3.55h0a5,5,0,0,1,4.59,3.55L39.8,69A3,3,0,0,1,37,73Z"/><path class="cls-10" d="M136.23,77.94a27,27,0,0,1-46.18,0Z"/><path class="cls-11" d="M133.27,80.94H93a3,3,0,0,1,0-6h40.27a3,3,0,0,1,0,6Z"/><path class="cls-12" d="M127,73a3,3,0,0,1-2.81-2l-11-29.7-11,29.7A3,3,0,1,1,96.47,69l12.07-32.46a5,5,0,0,1,4.6-3.55h0a5,5,0,0,1,4.59,3.55L129.8,69A3,3,0,0,1,127,73Z"/><path class="cls-13" d="M38.27,27.44H8a3,3,0,1,1,0-6H38.27a3,3,0,0,1,0,6Z"/><path class="cls-14" d="M128.27,27.44H98a3,3,0,0,1,0-6h30.27a3,3,0,0,1,0,6Z"/><path class="cls-15" d="M97.27,27.44a3,3,0,0,1-3-3,8.51,8.51,0,0,0-8.5-8.5,3,3,0,0,1,0-6,14.52,14.52,0,0,1,14.5,14.5A3,3,0,0,1,97.27,27.44Z"/><path class="cls-16" d="M39.27,27.44a3,3,0,0,1-3-3,14.52,14.52,0,0,1,14.5-14.5,3,3,0,0,1,0,6,8.51,8.51,0,0,0-8.5,8.5A3,3,0,0,1,39.27,27.44Z"/></g></g></svg>