<svg xmlns="http://www.w3.org/2000/svg" xmlns:xlink="http://www.w3.org/1999/xlink" viewBox="0 0 131 139"><defs><style>.cls-1{fill:url(#linear-gradient);}.cls-2{fill:url(#linear-gradient-2);}.cls-3{fill:url(#linear-gradient-3);}.cls-4{fill:url(#linear-gradient-4);}.cls-5{fill:url(#linear-gradient-5);}.cls-6{fill:url(#linear-gradient-6);}.cls-7{fill:url(#linear-gradient-7);}.cls-8{fill:url(#linear-gradient-8);}.cls-9{fill:url(#linear-gradient-9);}.cls-10{fill:url(#linear-gradient-10);}.cls-11{fill:url(#linear-gradient-11);}.cls-12{fill:url(#linear-gradient-12);}.cls-13{fill:url(#linear-gradient-13);}.cls-14{fill:url(#linear-gradient-14);}.cls-15{fill:url(#linear-gradient-15);}.cls-16{fill:url(#linear-gradient-16);}.cls-17{fill:url(#linear-gradient-17);}.cls-18{fill:url(#linear-gradient-18);}.cls-19{fill:url(#linear-gradient-19);}.cls-20{fill:url(#linear-gradient-20);}</style><linearGradient id="linear-gradient" x1="18.59" y1="149.84" x2="112.19" y2="19.1" gradientUnits="userSpaceOnUse"><stop offset="0" stop-color="#24b6ff"/><stop offset="1" stop-color="#22d5ff"/></linearGradient><linearGradient id="linear-gradient-2" x1="36.73" y1="162.83" x2="130.33" y2="32.09" xlink:href="#linear-gradient"/><linearGradient id="linear-gradient-3" x1="-8.5" y1="130.44" x2="85.1" y2="-0.29" xlink:href="#linear-gradient"/><linearGradient id="linear-gradient-4" x1="60.21" y1="179.63" x2="153.81" y2="48.9" xlink:href="#linear-gradient"/><linearGradient id="linear-gradient-5" x1="43.05" y1="167.35" x2="136.65" y2="36.61" xlink:href="#linear-gradient"/><linearGradient id="linear-gradient-6" x1="-15.73" y1="125.26" x2="77.87" y2="-5.47" xlink:href="#linear-gradient"/><linearGradient id="linear-gradient-7" x1="-12.22" y1="127.78" x2="81.38" y2="-2.96" xlink:href="#linear-gradient"/><linearGradient id="linear-gradient-8" x1="-8.36" y1="130.54" x2="85.24" y2="-0.2" xlink:href="#linear-gradient"/><linearGradient id="linear-gradient-9" x1="1.56" y1="137.64" x2="95.16" y2="6.9" xlink:href="#linear-gradient"/><linearGradient id="linear-gradient-10" x1="11.47" y1="144.74" x2="105.07" y2="14" xlink:href="#linear-gradient"/><linearGradient id="linear-gradient-11" x1="0.63" y1="136.98" x2="94.23" y2="6.24" xlink:href="#linear-gradient"/><linearGradient id="linear-gradient-12" x1="10.55" y1="144.08" x2="104.15" y2="13.34" xlink:href="#linear-gradient"/><linearGradient id="linear-gradient-13" x1="20.47" y1="151.18" x2="114.07" y2="20.44" xlink:href="#linear-gradient"/><linearGradient id="linear-gradient-14" x1="9.62" y1="143.42" x2="103.22" y2="12.68" xlink:href="#linear-gradient"/><linearGradient id="linear-gradient-15" x1="-6.05" y1="132.2" x2="87.55" y2="1.46" xlink:href="#linear-gradient"/><linearGradient id="linear-gradient-16" x1="2.95" y1="138.64" x2="96.55" y2="7.9" xlink:href="#linear-gradient"/><linearGradient id="linear-gradient-17" x1="50.81" y1="172.9" x2="144.41" y2="42.17" xlink:href="#linear-gradient"/><linearGradient id="linear-gradient-18" x1="59.8" y1="179.34" x2="153.4" y2="48.61" xlink:href="#linear-gradient"/><linearGradient id="linear-gradient-19" x1="19.54" y1="150.52" x2="113.14" y2="19.78" xlink:href="#linear-gradient"/><linearGradient id="linear-gradient-20" x1="29.46" y1="157.62" x2="123.06" y2="26.88" xlink:href="#linear-gradient"/></defs><g id="Layer_2" data-name="Layer 2"><g id="Layer_2-2" data-name="Layer 2"><path class="cls-1" d="M98.5,139h-66V31.35A5.36,5.36,0,0,1,37.85,26h55.3a5.36,5.36,0,0,1,5.35,5.35Zm-60-6h54V32h-54Z"/><path class="cls-2" d="M82.38,139h-34V108.35A5.36,5.36,0,0,1,53.73,103H77a5.36,5.36,0,0,1,5.36,5.35Zm-28-6h22V109h-22Z"/><path class="cls-3" d="M9.5,139a3,3,0,0,1-3-3V75.35A5.36,5.36,0,0,1,11.85,70H24.5a3,3,0,0,1,0,6h-12v60A3,3,0,0,1,9.5,139Z"/><path class="cls-4" d="M121.5,139a3,3,0,0,1-3-3V76h-12a3,3,0,0,1,0-6h12.65a5.36,5.36,0,0,1,5.35,5.35V136A3,3,0,0,1,121.5,139Zm-2.35-63h0Z"/><path class="cls-5" d="M128,139H3a3,3,0,0,1,0-6H128a3,3,0,0,1,0,6Z"/><path class="cls-6" d="M87,22a3,3,0,0,1-3-3V6H47V19a3,3,0,0,1-6,0V5.35A5.36,5.36,0,0,1,46.35,0h38.3A5.36,5.36,0,0,1,90,5.35V19A3,3,0,0,1,87,22Z"/><path class="cls-7" d="M73.38,21h-14a3,3,0,1,1,0-6h14a3,3,0,0,1,0,6Z"/><rect class="cls-8" x="47.38" y="44" width="6" height="9"/><rect class="cls-9" x="62.38" y="44" width="6" height="9"/><rect class="cls-10" x="77.38" y="44" width="6" height="9"/><rect class="cls-11" x="47.38" y="63" width="6" height="9"/><rect class="cls-12" x="62.38" y="63" width="6" height="9"/><rect class="cls-13" x="77.38" y="63" width="6" height="9"/><rect class="cls-14" x="47.38" y="82" width="6" height="9"/><rect class="cls-15" x="19.38" y="88" width="6" height="9"/><rect class="cls-16" x="19.38" y="107" width="6" height="9"/><rect class="cls-17" x="105.38" y="88" width="6" height="9"/><rect class="cls-18" x="105.38" y="107" width="6" height="9"/><rect class="cls-19" x="62.38" y="82" width="6" height="9"/><rect class="cls-20" x="77.38" y="82" width="6" height="9"/></g></g></svg>