<svg xmlns="http://www.w3.org/2000/svg" xmlns:xlink="http://www.w3.org/1999/xlink" viewBox="0 0 161 125"><defs><style>.cls-1,.cls-4{opacity:0.35;}.cls-1{fill:url(#linear-gradient);}.cls-2{fill:url(#linear-gradient-2);}.cls-3{fill:url(#linear-gradient-3);}.cls-4{fill:url(#linear-gradient-4);}.cls-5{fill:url(#linear-gradient-5);}.cls-6{fill:url(#linear-gradient-6);}.cls-7{fill:url(#linear-gradient-7);}</style><linearGradient id="linear-gradient" x1="80.5" y1="35.47" x2="80.5" y2="4.4" gradientUnits="userSpaceOnUse"><stop offset="0" stop-color="#24b6ff"/><stop offset="1" stop-color="#22d5ff"/></linearGradient><linearGradient id="linear-gradient-2" x1="12.06" y1="26.38" x2="110.58" y2="144.11" xlink:href="#linear-gradient"/><linearGradient id="linear-gradient-3" x1="54.05" y1="-8.76" x2="152.58" y2="108.96" xlink:href="#linear-gradient"/><linearGradient id="linear-gradient-4" x1="24.35" y1="44.62" x2="138.04" y2="87.57" xlink:href="#linear-gradient"/><linearGradient id="linear-gradient-5" x1="32.89" y1="8.95" x2="131.42" y2="126.67" xlink:href="#linear-gradient"/><linearGradient id="linear-gradient-6" x1="-12.69" y1="47.09" x2="85.84" y2="164.82" xlink:href="#linear-gradient"/><linearGradient id="linear-gradient-7" x1="78.47" y1="-29.2" x2="176.99" y2="88.53" xlink:href="#linear-gradient"/></defs><g id="Layer_2" data-name="Layer 2"><g id="Layer_2-2" data-name="Layer 2"><path class="cls-1" d="M62.81,2H98.19a33,33,0,0,1,33,33v1a0,0,0,0,1,0,0H29.81a0,0,0,0,1,0,0V35A33,33,0,0,1,62.81,2Z"/><path class="cls-2" d="M107,125H54a27,27,0,0,1-24.88-16.49,3,3,0,0,1,5.53-2.34A21,21,0,0,0,54,119h53a21,21,0,0,0,19.35-12.83,3,3,0,0,1,5.53,2.34A27,27,0,0,1,107,125Z"/><path class="cls-3" d="M127,28a3,3,0,0,1-2.9-2.23A26.59,26.59,0,0,0,98.54,6h-36A26.41,26.41,0,0,0,36.87,25.75a3,3,0,0,1-5.81-1.5A32.41,32.41,0,0,1,62.54,0h36a32.61,32.61,0,0,1,31.4,24.22,3,3,0,0,1-2.13,3.68A3,3,0,0,1,127,28Z"/><path class="cls-4" d="M146.5,46.09V85.57a10.76,10.76,0,0,1-10.76,10.76H104.18a10.76,10.76,0,0,1-10.37-7.88h0a13.81,13.81,0,0,0-26.62,0h0a10.75,10.75,0,0,1-10.37,7.88H25.26A10.76,10.76,0,0,1,14.5,85.57V46.09A10.76,10.76,0,0,1,25.26,35.33H135.74A10.76,10.76,0,0,1,146.5,46.09Z"/><path class="cls-5" d="M135.74,99.33H104.18A13.8,13.8,0,0,1,90.92,89.26,10.81,10.81,0,0,0,80.5,81.33a10.85,10.85,0,0,0-10.42,7.93A13.8,13.8,0,0,1,56.82,99.33H25.26A13.77,13.77,0,0,1,11.5,85.57V46.09A13.78,13.78,0,0,1,25.26,32.33H135.74A13.78,13.78,0,0,1,149.5,46.09V85.57A13.77,13.77,0,0,1,135.74,99.33Zm-55.24-24A16.83,16.83,0,0,1,96.7,87.65a7.78,7.78,0,0,0,7.48,5.68h31.56a7.77,7.77,0,0,0,7.76-7.76V46.09a7.77,7.77,0,0,0-7.76-7.76H25.26a7.77,7.77,0,0,0-7.76,7.76V85.57a7.77,7.77,0,0,0,7.76,7.76H56.82a7.78,7.78,0,0,0,7.48-5.68A16.86,16.86,0,0,1,80.5,75.33Z"/><path class="cls-6" d="M3,82.33a3,3,0,0,1-3-3v-27a3,3,0,0,1,6,0v27A3,3,0,0,1,3,82.33Z"/><path class="cls-7" d="M158,82.33a3,3,0,0,1-3-3v-27a3,3,0,1,1,6,0v27A3,3,0,0,1,158,82.33Z"/></g></g></svg>