<svg xmlns="http://www.w3.org/2000/svg" xmlns:xlink="http://www.w3.org/1999/xlink" viewBox="0 0 135.5 135.5"><defs><style>.cls-1{fill:url(#linear-gradient);}.cls-2{fill:url(#linear-gradient-2);}.cls-3{fill:url(#linear-gradient-3);}.cls-4{fill:url(#linear-gradient-4);}.cls-5{fill:url(#linear-gradient-5);}.cls-6{fill:url(#linear-gradient-6);}.cls-7{fill:url(#linear-gradient-7);}.cls-8{fill:url(#linear-gradient-8);}.cls-9{fill:url(#linear-gradient-9);}.cls-10{fill:url(#linear-gradient-10);}.cls-11{fill:url(#linear-gradient-11);}.cls-12{fill:url(#linear-gradient-12);}.cls-13{fill:url(#linear-gradient-13);}.cls-14{fill:url(#linear-gradient-14);}.cls-15{fill:url(#linear-gradient-15);}.cls-16{fill:url(#linear-gradient-16);}.cls-17{fill:url(#linear-gradient-17);}</style><linearGradient id="linear-gradient" x1="35.53" y1="-17.93" x2="155.28" y2="104.47" gradientUnits="userSpaceOnUse"><stop offset="0" stop-color="#24b6ff"/><stop offset="1" stop-color="#22d5ff"/></linearGradient><linearGradient id="linear-gradient-2" x1="9.16" y1="7.86" x2="128.91" y2="130.26" xlink:href="#linear-gradient"/><linearGradient id="linear-gradient-3" x1="-17.21" y1="33.66" x2="102.54" y2="156.06" xlink:href="#linear-gradient"/><linearGradient id="linear-gradient-4" x1="23.78" y1="-6.44" x2="143.53" y2="115.96" xlink:href="#linear-gradient"/><linearGradient id="linear-gradient-5" x1="-5.27" y1="21.99" x2="114.48" y2="144.39" xlink:href="#linear-gradient"/><linearGradient id="linear-gradient-6" x1="36.11" y1="-18.5" x2="155.86" y2="103.9" xlink:href="#linear-gradient"/><linearGradient id="linear-gradient-7" x1="-17.79" y1="34.23" x2="101.96" y2="156.63" xlink:href="#linear-gradient"/><linearGradient id="linear-gradient-8" x1="24.11" y1="-6.76" x2="143.85" y2="115.64" xlink:href="#linear-gradient"/><linearGradient id="linear-gradient-9" x1="-5.59" y1="22.3" x2="114.16" y2="144.7" xlink:href="#linear-gradient"/><linearGradient id="linear-gradient-10" x1="56.97" y1="-38.91" x2="176.72" y2="83.49" xlink:href="#linear-gradient"/><linearGradient id="linear-gradient-11" x1="-38.65" y1="54.64" x2="81.1" y2="177.04" xlink:href="#linear-gradient"/><linearGradient id="linear-gradient-12" x1="35.12" y1="-17.53" x2="154.87" y2="104.87" gradientTransform="translate(57.11 -53.74) rotate(45)" xlink:href="#linear-gradient"/><linearGradient id="linear-gradient-13" x1="-16.6" y1="33.07" x2="103.14" y2="155.47" gradientTransform="translate(78.31 -2.57) rotate(45)" xlink:href="#linear-gradient"/><linearGradient id="linear-gradient-14" x1="9.69" y1="7.35" x2="129.43" y2="129.75" xlink:href="#linear-gradient"/><linearGradient id="linear-gradient-15" x1="8.64" y1="8.38" x2="128.39" y2="130.78" xlink:href="#linear-gradient"/><linearGradient id="linear-gradient-16" x1="9.44" y1="7.59" x2="129.19" y2="129.99" gradientTransform="translate(93.31 -38.65) rotate(45)" xlink:href="#linear-gradient"/><linearGradient id="linear-gradient-17" x1="8.88" y1="8.14" x2="128.63" y2="130.54" gradientTransform="translate(42.14 -17.45) rotate(45)" xlink:href="#linear-gradient"/></defs><g id="Layer_2" data-name="Layer 2"><g id="Layer_2-2" data-name="Layer 2"><path class="cls-1" d="M67.75,30a15,15,0,1,1,15-15A15,15,0,0,1,67.75,30Zm0-24a9,9,0,1,0,9,9A9,9,0,0,0,67.75,6Z"/><path class="cls-2" d="M67.75,88.25a20.5,20.5,0,1,1,20.5-20.5A20.53,20.53,0,0,1,67.75,88.25Zm0-35a14.5,14.5,0,1,0,14.5,14.5A14.51,14.51,0,0,0,67.75,53.25Z"/><path class="cls-3" d="M67.75,135.5a15,15,0,1,1,15-15A15,15,0,0,1,67.75,135.5Zm0-24a9,9,0,1,0,9,9A9,9,0,0,0,67.75,111.5Z"/><rect class="cls-4" x="64.75" y="27" width="6" height="23"/><rect class="cls-5" x="64.75" y="85.13" width="6" height="23"/><path class="cls-6" d="M120.5,82.75a15,15,0,1,1,15-15A15,15,0,0,1,120.5,82.75Zm0-24a9,9,0,1,0,9,9A9,9,0,0,0,120.5,58.75Z"/><path class="cls-7" d="M15,82.75a15,15,0,1,1,15-15A15,15,0,0,1,15,82.75Zm0-24a9,9,0,1,0,9,9A9,9,0,0,0,15,58.75Z"/><rect class="cls-8" x="85.5" y="64.75" width="23" height="6"/><rect class="cls-9" x="27.38" y="64.75" width="23" height="6"/><path class="cls-10" d="M115.05,35.44a15,15,0,1,1,10.61-4.38A15,15,0,0,1,115.05,35.44Zm0-24a9,9,0,1,0,6.36,2.64A8.94,8.94,0,0,0,115.05,11.45Z"/><path class="cls-11" d="M20.45,130a15,15,0,1,1,10.61-4.38h0A15,15,0,0,1,20.45,130Zm0-24a9,9,0,1,0,6.36,2.64A8.95,8.95,0,0,0,20.45,106.05Z"/><rect class="cls-12" x="74.86" y="39.07" width="37.13" height="6" transform="translate(-2.38 78.39) rotate(-45)"/><rect class="cls-13" x="23.59" y="90.24" width="37.34" height="6" transform="translate(-53.55 57.19) rotate(-45)"/><path class="cls-14" d="M115.05,130a15,15,0,0,1-10.61-4.38h0A15,15,0,1,1,115.05,130Zm-6.36-8.63a9,9,0,1,0,0-12.72,9,9,0,0,0,0,12.72Z"/><path class="cls-15" d="M20.45,35.44A15,15,0,0,1,9.84,31.06h0a15,15,0,1,1,10.61,4.38Zm-6.36-8.63a9,9,0,1,0,0-12.72,9,9,0,0,0,0,12.72Z"/><rect class="cls-16" x="90.31" y="74.92" width="6" height="36.78" transform="translate(-38.65 93.31) rotate(-45)"/><rect class="cls-17" x="39.14" y="23.29" width="6" height="37.7" transform="translate(-17.45 42.14) rotate(-45)"/></g></g></svg>