<svg xmlns="http://www.w3.org/2000/svg" xmlns:xlink="http://www.w3.org/1999/xlink" viewBox="0 0 110.66 165.5"><defs><style>.cls-1{fill:url(#linear-gradient);}.cls-2{fill:url(#linear-gradient-2);}.cls-3{fill:url(#linear-gradient-3);}.cls-4{fill:url(#linear-gradient-4);}.cls-5{fill:url(#linear-gradient-5);}</style><linearGradient id="linear-gradient" x1="94.95" y1="-5.44" x2="94.95" y2="151.83" gradientUnits="userSpaceOnUse"><stop offset="0" stop-color="#24b6ff"/><stop offset="1" stop-color="#22d5ff"/></linearGradient><linearGradient id="linear-gradient-2" x1="55.91" y1="-5.44" x2="55.91" y2="151.83" xlink:href="#linear-gradient"/><linearGradient id="linear-gradient-3" x1="16.87" y1="-5.44" x2="16.87" y2="151.83" xlink:href="#linear-gradient"/><linearGradient id="linear-gradient-4" x1="53.66" y1="-5.44" x2="53.66" y2="151.83" xlink:href="#linear-gradient"/><linearGradient id="linear-gradient-5" x1="90.86" y1="-5.42" x2="90.86" y2="151.33" xlink:href="#linear-gradient"/></defs><g id="Layer_2" data-name="Layer 2"><g id="Layer_2-2" data-name="Layer 2"><path class="cls-1" d="M104,165.5H85.92a6.69,6.69,0,0,1-6.68-6.68V53.6a6.68,6.68,0,0,1,6.68-6.67H104a6.68,6.68,0,0,1,6.68,6.67V158.82A6.69,6.69,0,0,1,104,165.5ZM85.92,52.93a.67.67,0,0,0-.68.67V158.82a.68.68,0,0,0,.68.68H104a.69.69,0,0,0,.68-.68V53.6a.68.68,0,0,0-.68-.67Z"/><path class="cls-2" d="M64.94,165.5H46.88a6.69,6.69,0,0,1-6.68-6.68V88.1a6.69,6.69,0,0,1,6.68-6.68H64.94a6.69,6.69,0,0,1,6.68,6.68v70.72A6.69,6.69,0,0,1,64.94,165.5ZM46.88,87.42a.68.68,0,0,0-.68.68v70.72a.68.68,0,0,0,.68.68H64.94a.69.69,0,0,0,.68-.68V88.1a.69.69,0,0,0-.68-.68Z"/><path class="cls-3" d="M25.9,165.5H7.84a6.69,6.69,0,0,1-6.68-6.68V117.15a6.69,6.69,0,0,1,6.68-6.68H25.9a6.69,6.69,0,0,1,6.68,6.68v41.67A6.69,6.69,0,0,1,25.9,165.5Zm-18.06-49a.69.69,0,0,0-.68.68v41.67a.69.69,0,0,0,.68.68H25.9a.68.68,0,0,0,.68-.68V117.15a.68.68,0,0,0-.68-.68Z"/><path class="cls-4" d="M3,69.27a3,3,0,0,1-.15-6h0c.42,0,42.88-2.87,99.32-60.67a3,3,0,1,1,4.29,4.19C48.17,66.49,5,69.18,3.14,69.26Z"/><path class="cls-5" d="M104.33,35.88h0a3,3,0,0,1-2.87-3.13l1.1-26.55L76,7A3,3,0,0,1,72.9,4.12h0A3,3,0,0,1,75.81,1l33-1-1.37,33A3,3,0,0,1,104.33,35.88Z"/></g></g></svg>