<svg xmlns="http://www.w3.org/2000/svg" xmlns:xlink="http://www.w3.org/1999/xlink" viewBox="0 0 140.36 172.89"><defs><style>.cls-1{fill:url(#linear-gradient);}.cls-2{fill:url(#linear-gradient-2);}.cls-3{fill:url(#linear-gradient-3);}.cls-4{fill:url(#linear-gradient-4);}.cls-5{fill:url(#linear-gradient-5);}.cls-6{fill:url(#linear-gradient-6);}</style><linearGradient id="linear-gradient" x1="107.23" y1="-2.96" x2="107.23" y2="154.31" gradientUnits="userSpaceOnUse"><stop offset="0" stop-color="#24b6ff"/><stop offset="1" stop-color="#22d5ff"/></linearGradient><linearGradient id="linear-gradient-2" x1="58.43" y1="-2.96" x2="58.43" y2="154.31" xlink:href="#linear-gradient"/><linearGradient id="linear-gradient-3" x1="34.63" y1="-2.96" x2="34.63" y2="154.31" xlink:href="#linear-gradient"/><linearGradient id="linear-gradient-4" x1="44.27" y1="-2.96" x2="44.27" y2="154.31" xlink:href="#linear-gradient"/><linearGradient id="linear-gradient-5" x1="93.37" y1="-2.96" x2="93.38" y2="154.31" xlink:href="#linear-gradient"/><linearGradient id="linear-gradient-6" x1="86.01" y1="-2.96" x2="86.01" y2="154.31" xlink:href="#linear-gradient"/></defs><g id="Layer_2" data-name="Layer 2"><g id="Layer_2-2" data-name="Layer 2"><path class="cls-1" d="M107.23,49.38a24.69,24.69,0,1,1,24.69-24.69A24.72,24.72,0,0,1,107.23,49.38Zm0-43.38a18.69,18.69,0,1,0,18.69,18.69A18.71,18.71,0,0,0,107.23,6Z"/><path class="cls-2" d="M58.43,114.45A24.69,24.69,0,1,1,83.12,89.76,24.72,24.72,0,0,1,58.43,114.45Zm0-43.38A18.69,18.69,0,1,0,77.12,89.76,18.71,18.71,0,0,0,58.43,71.07Z"/><path class="cls-3" d="M34.63,172.89a17.76,17.76,0,1,1,17.76-17.76A17.78,17.78,0,0,1,34.63,172.89Zm0-29.52a11.76,11.76,0,1,0,11.76,11.76A11.78,11.78,0,0,0,34.63,143.37Z"/><path class="cls-4" d="M36.74,92.76h-1.2a35.54,35.54,0,1,1,0-71.07h50a3,3,0,0,1,0,6h-50a29.54,29.54,0,1,0,0,59.07h1.2a3,3,0,0,1,0,6Z"/><path class="cls-5" d="M104.82,157.83H49.39a3,3,0,0,1,0-6h55.43a29.54,29.54,0,1,0,0-59.07H80.12a3,3,0,0,1,0-6h24.7a35.54,35.54,0,1,1,0,71.07Z"/><path class="cls-6" d="M78.61,171.39a3,3,0,0,1-2.12-5.13l11.44-11.43L76.79,143.7A3,3,0,0,1,81,139.45l15.37,15.38L80.73,170.51A3,3,0,0,1,78.61,171.39Z"/></g></g></svg>