<svg xmlns="http://www.w3.org/2000/svg" xmlns:xlink="http://www.w3.org/1999/xlink" viewBox="0 0 128.5 168.43"><defs><style>.cls-1{fill:url(#linear-gradient);}.cls-2{fill:url(#linear-gradient-2);}.cls-3{fill:url(#linear-gradient-3);}.cls-4{fill:url(#linear-gradient-4);}.cls-5{fill:url(#linear-gradient-5);}.cls-6{fill:url(#linear-gradient-6);}.cls-7{fill:url(#linear-gradient-7);}.cls-8{fill:url(#linear-gradient-8);}.cls-9{fill:url(#linear-gradient-9);}</style><linearGradient id="linear-gradient" x1="14.3" y1="-5.64" x2="14.3" y2="151.63" gradientUnits="userSpaceOnUse"><stop offset="0" stop-color="#24b6ff"/><stop offset="1" stop-color="#22d5ff"/></linearGradient><linearGradient id="linear-gradient-2" x1="39.27" y1="-5.64" x2="39.27" y2="151.63" xlink:href="#linear-gradient"/><linearGradient id="linear-gradient-3" x1="64.25" y1="-5.64" x2="64.25" y2="151.63" xlink:href="#linear-gradient"/><linearGradient id="linear-gradient-4" x1="89.23" y1="-5.64" x2="89.23" y2="151.63" xlink:href="#linear-gradient"/><linearGradient id="linear-gradient-5" x1="114.2" y1="-5.64" x2="114.2" y2="151.63" xlink:href="#linear-gradient"/><linearGradient id="linear-gradient-6" x1="26.19" y1="-5.64" x2="26.19" y2="151.63" xlink:href="#linear-gradient"/><linearGradient id="linear-gradient-7" x1="51.76" y1="-5.64" x2="51.76" y2="151.63" xlink:href="#linear-gradient"/><linearGradient id="linear-gradient-8" x1="76.14" y1="-5.64" x2="76.14" y2="151.63" xlink:href="#linear-gradient"/><linearGradient id="linear-gradient-9" x1="101.71" y1="-5.64" x2="101.71" y2="151.63" xlink:href="#linear-gradient"/></defs><g id="Layer_2" data-name="Layer 2"><g id="Layer_2-2" data-name="Layer 2"><path class="cls-1" d="M14.3,132.75a14.3,14.3,0,1,1,14.3-14.3A14.31,14.31,0,0,1,14.3,132.75Zm0-22.6a8.3,8.3,0,1,0,8.3,8.3A8.31,8.31,0,0,0,14.3,110.15Z"/><path class="cls-2" d="M39.27,168.43a14.3,14.3,0,1,1,14.3-14.3A14.31,14.31,0,0,1,39.27,168.43Zm0-22.6a8.3,8.3,0,1,0,8.3,8.3A8.31,8.31,0,0,0,39.27,145.83Z"/><path class="cls-3" d="M64.25,132.75a14.3,14.3,0,1,1,14.3-14.3A14.32,14.32,0,0,1,64.25,132.75Zm0-22.6a8.3,8.3,0,1,0,8.3,8.3A8.31,8.31,0,0,0,64.25,110.15Z"/><path class="cls-4" d="M89.23,168.43a14.3,14.3,0,1,1,14.29-14.3A14.31,14.31,0,0,1,89.23,168.43Zm0-22.6a8.3,8.3,0,1,0,8.29,8.3A8.31,8.31,0,0,0,89.23,145.83Z"/><path class="cls-5" d="M114.2,132.75a14.3,14.3,0,1,1,14.3-14.3A14.32,14.32,0,0,1,114.2,132.75Zm0-22.6a8.3,8.3,0,1,0,8.3,8.3A8.32,8.32,0,0,0,114.2,110.15Z"/><path class="cls-6" d="M32.73,147.62a3,3,0,0,1-2.32-1.11l-13.09-16A3,3,0,0,1,22,126.67l13.08,16a3,3,0,0,1-.43,4.22A3,3,0,0,1,32.73,147.62Z"/><path class="cls-7" d="M45.22,147.62a2.93,2.93,0,0,1-1.89-.68,3,3,0,0,1-.43-4.22l13.08-16a3,3,0,0,1,4.65,3.79l-13.08,16A3,3,0,0,1,45.22,147.62Z"/><path class="cls-8" d="M82.69,147.62a3,3,0,0,1-2.33-1.11l-13.08-16a3,3,0,1,1,4.65-3.79l13.08,16a3,3,0,0,1-.43,4.22A3,3,0,0,1,82.69,147.62Z"/><path class="cls-9" d="M95.17,147.62a2.93,2.93,0,0,1-1.89-.68,3,3,0,0,1-.43-4.22l13.08-16a3,3,0,0,1,4.65,3.79l-13.08,16A3,3,0,0,1,95.17,147.62Z"/><path class="cls-3" d="M115.09,89.94H13.41a3,3,0,1,1,0-6H115.09a3,3,0,0,1,0,6Z"/><path class="cls-3" d="M115.22,74.48H13.28a3.94,3.94,0,0,1-3.86-3.22l-9-49A3.92,3.92,0,0,1,6.5,18.34l25.68,17.4L61.26,1.39a3.91,3.91,0,0,1,6,0L96.32,35.74,122,18.34a3.92,3.92,0,0,1,6.05,3.95l-9,49A3.92,3.92,0,0,1,115.22,74.48ZM15,68.48h98.48l7.77-42.4L98.14,41.75a3.92,3.92,0,0,1-5.2-.71h0L64.25,7.14,35.56,41a3.92,3.92,0,0,1-5.2.71L7.24,26.08Z"/></g></g></svg>