<svg xmlns="http://www.w3.org/2000/svg" xmlns:xlink="http://www.w3.org/1999/xlink" viewBox="0 0 123.73 142.71"><defs><style>.cls-1{fill:url(#linear-gradient);}.cls-2{fill:url(#linear-gradient-2);}.cls-3{opacity:0.35;fill:url(#linear-gradient-3);}.cls-4{fill:url(#linear-gradient-4);}.cls-5{fill:url(#linear-gradient-5);}</style><linearGradient id="linear-gradient" x1="96.75" y1="8.94" x2="16.41" y2="130.96" gradientUnits="userSpaceOnUse"><stop offset="0" stop-color="#24b6ff"/><stop offset="1" stop-color="#22d5ff"/></linearGradient><linearGradient id="linear-gradient-2" x1="97.99" y1="9.74" x2="17.64" y2="131.78" xlink:href="#linear-gradient"/><linearGradient id="linear-gradient-3" x1="68.94" y1="53.87" x2="54.8" y2="75.35" xlink:href="#linear-gradient"/><linearGradient id="linear-gradient-4" x1="113.76" y1="20.14" x2="33.43" y2="142.16" xlink:href="#linear-gradient"/><linearGradient id="linear-gradient-5" x1="142.63" y1="39.14" x2="62.29" y2="161.16" xlink:href="#linear-gradient"/></defs><g id="Layer_2" data-name="Layer 2"><g id="Layer_2-2" data-name="Layer 2"><path class="cls-1" d="M21.53,129.22A10,10,0,0,1,15.15,127l-7.22-5.85a10.16,10.16,0,0,1-1.49-14.26l6.08-7.51A62.33,62.33,0,0,1,0,64.65a3,3,0,0,1,3.47-3.1l10.94,1.74a4.16,4.16,0,0,0,4.74-3.45l1.45-9.17a4.14,4.14,0,0,0-3.43-4.73L6.2,44.2a3,3,0,0,1-2.34-4,62.17,62.17,0,0,1,24.7-30.5A3,3,0,0,1,33,11.14L37,21.5a4.13,4.13,0,0,0,5.34,2.38L51,20.55a4.16,4.16,0,0,0,2.39-5.35l-4-10.33a3,3,0,0,1,2.31-4A62.27,62.27,0,0,1,90.44,7a3,3,0,0,1,1,4.55l-7,8.62A4.13,4.13,0,0,0,85,26l7.22,5.85a4.14,4.14,0,0,0,5.82-.61l7-8.62a3,3,0,0,1,2.32-1.11h0a3,3,0,0,1,2.32,1.09,62.28,62.28,0,0,1,14,36.63,3,3,0,0,1-1,2.37,3,3,0,0,1-2.47.72l-10.94-1.74A4.16,4.16,0,0,0,104.59,64l-1.45,9.17a4.13,4.13,0,0,0,3.43,4.73l11,1.74a3,3,0,0,1,2.33,4A61.72,61.72,0,0,1,110,100.89h0A62,62,0,0,1,35.5,118l-6.08,7.51A10.13,10.13,0,0,1,21.53,129.22ZM6.29,68.08A56.24,56.24,0,0,0,18.68,97.47a3,3,0,0,1,0,3.79l-7.59,9.38a4.14,4.14,0,0,0,.61,5.82l7.22,5.85a4.14,4.14,0,0,0,5.82-.62l7.6-9.37a3,3,0,0,1,3.71-.77,56.26,56.26,0,0,0,35,5.53A56,56,0,0,0,112.84,85l-7.2-1.15a10,10,0,0,1-6.61-4,10.1,10.1,0,0,1-1.82-7.56l1.45-9.17a10.18,10.18,0,0,1,11.6-8.44l7.19,1.14A56.33,56.33,0,0,0,107.31,29.3L102.72,35a10.15,10.15,0,0,1-14.26,1.5l-7.22-5.85a10.15,10.15,0,0,1-1.5-14.26l4.59-5.67a56.33,56.33,0,0,0-28-4.41L59,13.05a10.18,10.18,0,0,1-5.84,13.11l-8.68,3.32a10.12,10.12,0,0,1-13.09-5.84l-2.61-6.8a56.35,56.35,0,0,0-17.85,22L18.1,40a10.12,10.12,0,0,1,8.42,11.59l-1.45,9.17a10.17,10.17,0,0,1-11.59,8.44ZM107.66,99h0Z"/><path class="cls-2" d="M61.86,45.74A18.87,18.87,0,1,0,80.73,64.61,18.88,18.88,0,0,0,61.86,45.74Zm0,31.73A12.87,12.87,0,1,1,74.73,64.61,12.88,12.88,0,0,1,61.86,77.47Z"/><path class="cls-3" d="M74.73,64.61A12.87,12.87,0,1,1,61.86,51.74,12.88,12.88,0,0,1,74.73,64.61Z"/><path class="cls-4" d="M61.11,122.75a3,3,0,0,1-3-3V80.47a3,3,0,0,1,6,0v39.28A3,3,0,0,1,61.11,122.75Z"/><path class="cls-5" d="M65.3,142.71a71.7,71.7,0,0,1-12.86-1.17,3,3,0,1,1,1.08-5.9,65.85,65.85,0,0,0,58-17.9,3,3,0,1,1,4.22,4.28A72,72,0,0,1,65.3,142.71Z"/></g></g></svg>