<svg xmlns="http://www.w3.org/2000/svg" xmlns:xlink="http://www.w3.org/1999/xlink" viewBox="0 0 151.03 160.09"><defs><style>.cls-1{fill:url(#linear-gradient);}.cls-2{fill:url(#linear-gradient-2);}.cls-3{fill:url(#linear-gradient-3);}.cls-4{fill:url(#linear-gradient-4);}.cls-5{fill:url(#linear-gradient-5);}.cls-6{fill:url(#linear-gradient-6);}.cls-7{fill:url(#linear-gradient-7);}.cls-8{fill:url(#linear-gradient-8);}.cls-9{fill:url(#linear-gradient-9);}</style><linearGradient id="linear-gradient" x1="15.09" y1="154.33" x2="15.09" y2="9.54" gradientUnits="userSpaceOnUse"><stop offset="0" stop-color="#24b6ff"/><stop offset="1" stop-color="#22d5ff"/></linearGradient><linearGradient id="linear-gradient-2" x1="49.83" y1="154.33" x2="49.83" y2="9.54" xlink:href="#linear-gradient"/><linearGradient id="linear-gradient-3" x1="75.51" y1="154.33" x2="75.51" y2="9.54" xlink:href="#linear-gradient"/><linearGradient id="linear-gradient-4" x1="135.94" y1="154.33" x2="135.94" y2="9.54" xlink:href="#linear-gradient"/><linearGradient id="linear-gradient-5" x1="75.51" y1="154.33" x2="75.51" y2="9.54" xlink:href="#linear-gradient"/><linearGradient id="linear-gradient-6" x1="101.2" y1="154.33" x2="101.2" y2="9.54" xlink:href="#linear-gradient"/><linearGradient id="linear-gradient-7" x1="75.74" y1="154.33" x2="75.74" y2="9.54" xlink:href="#linear-gradient"/><linearGradient id="linear-gradient-8" x1="16.97" y1="154.33" x2="16.97" y2="9.54" xlink:href="#linear-gradient"/><linearGradient id="linear-gradient-9" x1="134.05" y1="154.33" x2="134.05" y2="9.54" xlink:href="#linear-gradient"/></defs><g id="Layer_2" data-name="Layer 2"><g id="Layer_2-2" data-name="Layer 2"><path class="cls-1" d="M15.09,160.09A15.09,15.09,0,1,1,30.17,145,15.11,15.11,0,0,1,15.09,160.09Zm0-24.17A9.09,9.09,0,1,0,24.17,145,9.1,9.1,0,0,0,15.09,135.92Z"/><path class="cls-2" d="M39.26,148a3,3,0,1,1,0-6,18.18,18.18,0,0,0,18.15-18.15,3,3,0,1,1,6,0A24.19,24.19,0,0,1,39.26,148Z"/><path class="cls-3" d="M129.9,114.77H21.13a3,3,0,0,1-2.88-2.14L1.64,56.73A3,3,0,0,1,5.46,53l42.91,14.3,24.49-46.1a3,3,0,0,1,5.3,0l24.49,46.1L145.57,53a3,3,0,0,1,3.82,3.7l-16.62,55.9A3,3,0,0,1,129.9,114.77Zm-106.53-6H127.66L142,60.54,102.14,73.83a3,3,0,0,1-3.59-1.44L75.51,29l-23,43.36a3,3,0,0,1-3.6,1.44L9,60.54Z"/><path class="cls-4" d="M135.94,160.09A15.09,15.09,0,1,1,151,145,15.1,15.1,0,0,1,135.94,160.09Zm0-24.17A9.09,9.09,0,1,0,145,145,9.09,9.09,0,0,0,135.94,135.92Z"/><path class="cls-5" d="M75.51,25.64A12.82,12.82,0,1,1,88.33,12.82,12.83,12.83,0,0,1,75.51,25.64ZM75.51,6a6.82,6.82,0,1,0,6.82,6.82A6.83,6.83,0,0,0,75.51,6Z"/><path class="cls-6" d="M111.77,148a24.18,24.18,0,0,1-24.15-24.15,3,3,0,0,1,6,0A18.17,18.17,0,0,0,111.77,142a3,3,0,0,1,0,6Z"/><path class="cls-7" d="M90.62,100.47a3,3,0,0,1-2.72-1.74L75.74,72.36,63.58,98.73a3,3,0,1,1-5.45-2.51l13-28.13a5,5,0,0,1,9.28,0l13,28.13a3,3,0,0,1-2.72,4.25Z"/><path class="cls-8" d="M12.82,123.08a3,3,0,0,1-2.12-.88,3,3,0,0,1,0-4.24L19,109.65a3,3,0,0,1,4.24,4.24l-8.31,8.31A3,3,0,0,1,12.82,123.08Z"/><path class="cls-9" d="M138.21,123.08a3,3,0,0,1-2.12-.88l-8.31-8.31a3,3,0,0,1,4.24-4.24l8.31,8.31a3,3,0,0,1-2.12,5.12Z"/></g></g></svg>