<svg xmlns="http://www.w3.org/2000/svg" xmlns:xlink="http://www.w3.org/1999/xlink" viewBox="0 0 163.08 138.94"><defs><style>.cls-1{fill:url(#linear-gradient);}.cls-2{fill:url(#linear-gradient-2);}.cls-3{fill:url(#linear-gradient-3);}.cls-4{fill:url(#linear-gradient-4);}.cls-5{fill:url(#linear-gradient-5);}.cls-6{fill:url(#linear-gradient-6);}</style><linearGradient id="linear-gradient" x1="159.22" y1="73.51" x2="3.1" y2="68.21" gradientUnits="userSpaceOnUse"><stop offset="0" stop-color="#24b6ff"/><stop offset="1" stop-color="#22d5ff"/></linearGradient><linearGradient id="linear-gradient-2" x1="159.39" y1="68.57" x2="3.26" y2="63.27" xlink:href="#linear-gradient"/><linearGradient id="linear-gradient-3" x1="160.64" y1="31.87" x2="4.51" y2="26.57" xlink:href="#linear-gradient"/><linearGradient id="linear-gradient-4" x1="158.13" y1="105.81" x2="2" y2="100.51" xlink:href="#linear-gradient"/><linearGradient id="linear-gradient-5" x1="159.3" y1="71.24" x2="3.17" y2="65.93" xlink:href="#linear-gradient"/><linearGradient id="linear-gradient-6" x1="159.21" y1="74.02" x2="3.08" y2="68.72" xlink:href="#linear-gradient"/></defs><g id="Layer_2" data-name="Layer 2"><g id="Layer_2-2" data-name="Layer 2"><path class="cls-1" d="M18.11,99.59a3,3,0,0,1-3-3V40.84a3,3,0,0,1,1.09-2.32,3.06,3.06,0,0,1,2.49-.62l27.19,5.4a3,3,0,0,1,2.42,2.94V91.19a3,3,0,0,1-2.42,3L18.69,99.53A2.86,2.86,0,0,1,18.11,99.59Zm3-55.09V92.93l21.19-4.2v-40Z"/><path class="cls-2" d="M160.08,71.34H145a3,3,0,0,1,0-6h15.1a3,3,0,0,1,0,6Z"/><path class="cls-3" d="M139.62,39.24a3,3,0,0,1-2.12-5.13l9.82-9.82a3,3,0,0,1,4.24,4.25l-9.82,9.82A3,3,0,0,1,139.62,39.24Z"/><path class="cls-4" d="M150.2,114a3,3,0,0,1-2.13-.88l-11.33-11.33A3,3,0,0,1,141,97.56l11.33,11.33A3,3,0,0,1,150.2,114Z"/><path class="cls-5" d="M107.24,138.94H107a3,3,0,0,1-2.58-2c-6.76-20.35-21-34.95-43.65-44.64a3,3,0,0,1-1.82-2.76v-40a3,3,0,0,1,1.82-2.75C83.35,37,97.63,22.4,104.39,2.05a3,3,0,0,1,5.49-.48c12,22.13,17.5,44.34,16.83,67.9.67,23.57-4.84,45.78-16.83,67.9A3,3,0,0,1,107.24,138.94ZM64.92,87.53c20.56,9.23,34.9,23,42.72,41.07,9.38-19.24,13.66-38.62,13.07-59a.54.54,0,0,1,0-.18c.59-20.42-3.69-39.79-13.07-59C99.82,28.39,85.48,42.18,64.92,51.41Z"/><path class="cls-6" d="M3,81.54a3,3,0,0,1-3-3V58.9a3,3,0,0,1,6,0V78.54A3,3,0,0,1,3,81.54Z"/></g></g></svg>