<svg xmlns="http://www.w3.org/2000/svg" xmlns:xlink="http://www.w3.org/1999/xlink" viewBox="0 0 142.33 148.03"><defs><style>.cls-1{fill:url(#linear-gradient);}.cls-2{fill:url(#linear-gradient-2);}.cls-3{fill:url(#linear-gradient-3);}.cls-4{fill:url(#linear-gradient-4);}.cls-5{fill:url(#linear-gradient-5);}.cls-6{fill:url(#linear-gradient-6);}.cls-7{fill:url(#linear-gradient-7);}</style><linearGradient id="linear-gradient" x1="8.48" y1="98.03" x2="128.23" y2="12.39" gradientUnits="userSpaceOnUse"><stop offset="0" stop-color="#24b6ff"/><stop offset="1" stop-color="#22d5ff"/></linearGradient><linearGradient id="linear-gradient-2" x1="21.43" y1="116.13" x2="141.18" y2="30.49" xlink:href="#linear-gradient"/><linearGradient id="linear-gradient-3" x1="6.29" y1="94.97" x2="126.04" y2="9.33" xlink:href="#linear-gradient"/><linearGradient id="linear-gradient-4" x1="26.7" y1="123.5" x2="146.44" y2="37.86" xlink:href="#linear-gradient"/><linearGradient id="linear-gradient-5" x1="42.97" y1="146.25" x2="162.72" y2="60.61" xlink:href="#linear-gradient"/><linearGradient id="linear-gradient-6" x1="-11.68" y1="69.84" x2="108.07" y2="-15.8" xlink:href="#linear-gradient"/><linearGradient id="linear-gradient-7" x1="29.02" y1="126.74" x2="148.76" y2="41.1" xlink:href="#linear-gradient"/></defs><g id="Layer_2" data-name="Layer 2"><g id="Layer_2-2" data-name="Layer 2"><path class="cls-1" d="M122.35,33.19A16.6,16.6,0,1,1,138.94,16.6,16.61,16.61,0,0,1,122.35,33.19Zm0-27.19a10.6,10.6,0,1,0,10.59,10.6A10.61,10.61,0,0,0,122.35,6Z"/><path class="cls-2" d="M74,95.13A16.6,16.6,0,1,1,90.6,78.54,16.61,16.61,0,0,1,74,95.13Zm0-27.19a10.6,10.6,0,1,0,10.6,10.6A10.6,10.6,0,0,0,74,67.94Z"/><path class="cls-3" d="M16.6,104.2A16.6,16.6,0,1,1,33.19,87.6,16.62,16.62,0,0,1,16.6,104.2Zm0-27.2A10.6,10.6,0,1,0,27.19,87.6,10.61,10.61,0,0,0,16.6,77Z"/><path class="cls-4" d="M125.35,81.54H87.53a3,3,0,0,1,0-6h31.82V30.19a3,3,0,1,1,6,0Z"/><path class="cls-5" d="M77.16,148a67.39,67.39,0,0,1-12.68-1.22,66.41,66.41,0,0,1-40.15-24.76,3,3,0,0,1,4.76-3.66A60.45,60.45,0,0,0,136.39,93a3,3,0,1,1,5.89,1.14A66.5,66.5,0,0,1,77.16,148Z"/><path class="cls-6" d="M14.31,53.17a3,3,0,0,1-1.19-.25,3,3,0,0,1-1.56-4A66.48,66.48,0,0,1,85,10.26a3,3,0,1,1-1.13,5.89A60.83,60.83,0,0,0,17.06,51.36,3,3,0,0,1,14.31,53.17Z"/><path class="cls-7" d="M25.66,142a3,3,0,0,1-3-3V119.32a3,3,0,0,1,3-3H45.3a3,3,0,1,1,0,6H28.66V139A3,3,0,0,1,25.66,142Z"/></g></g></svg>