<svg xmlns="http://www.w3.org/2000/svg" xmlns:xlink="http://www.w3.org/1999/xlink" viewBox="0 0 1921.37 1260"><defs><style>.cls-1{fill:url(#linear-gradient);}.cls-2{fill:url(#linear-gradient-2);}.cls-3{fill:url(#linear-gradient-3);}.cls-4{fill:url(#linear-gradient-4);}.cls-5{fill:url(#linear-gradient-5);}.cls-6{fill:url(#linear-gradient-6);}.cls-7{fill:url(#linear-gradient-7);}.cls-8{fill:url(#linear-gradient-8);}.cls-9{fill:url(#linear-gradient-9);}.cls-10{fill:url(#linear-gradient-10);}.cls-11{fill:url(#linear-gradient-11);}.cls-12{fill:url(#linear-gradient-12);}.cls-13{fill:url(#linear-gradient-13);}.cls-14{fill:url(#linear-gradient-14);}.cls-15{fill:url(#linear-gradient-15);}.cls-16{fill:url(#linear-gradient-16);}.cls-17{fill:none;}</style><linearGradient id="linear-gradient" x1="960" x2="960" y2="1310.91" gradientUnits="userSpaceOnUse"><stop offset="0" stop-color="#fff"/><stop offset="0.21" stop-color="#f1f2ff"/><stop offset="0.44" stop-color="#dbdfff"/><stop offset="0.56" stop-color="#e5e0ff"/><stop offset="0.77" stop-color="#f0e1ff"/><stop offset="1" stop-color="#f4e1ff"/></linearGradient><linearGradient id="linear-gradient-2" x1="1527.43" y1="1024.14" x2="1763.87" y2="743.75" gradientUnits="userSpaceOnUse"><stop offset="0" stop-color="#fff" stop-opacity="0.5"/><stop offset="1" stop-color="#f4e1ff"/></linearGradient><linearGradient id="linear-gradient-3" x1="109.29" y1="857.38" x2="165.38" y2="714.9" xlink:href="#linear-gradient-2"/><linearGradient id="linear-gradient-4" x1="418.51" y1="629.99" x2="380.61" y2="705.77" xlink:href="#linear-gradient-2"/><linearGradient id="linear-gradient-5" x1="577.49" y1="547.44" x2="528.98" y2="671.73" xlink:href="#linear-gradient-2"/><linearGradient id="linear-gradient-6" x1="1306.57" y1="694.74" x2="1305.05" y2="753.86" xlink:href="#linear-gradient-2"/><linearGradient id="linear-gradient-7" x1="1219.66" y1="677.89" x2="1185.55" y2="1030.31" gradientUnits="userSpaceOnUse"><stop offset="0" stop-color="#a6b3f7"/><stop offset="1" stop-color="#f4e1ff"/></linearGradient><linearGradient id="linear-gradient-8" x1="834.54" y1="800.38" x2="789.07" y2="1091.41" xlink:href="#linear-gradient-7"/><linearGradient id="linear-gradient-9" x1="657" y1="1099.46" x2="657" y2="656.09" gradientUnits="userSpaceOnUse"><stop offset="0" stop-color="#a6b3f7"/><stop offset="1" stop-color="#5564e1"/></linearGradient><linearGradient id="linear-gradient-10" x1="1018.33" y1="1235.96" x2="1774.08" y2="876.19" xlink:href="#linear-gradient-9"/><linearGradient id="linear-gradient-11" x1="199.5" y1="1236.02" x2="1647.84" y2="756.27" xlink:href="#linear-gradient-9"/><linearGradient id="linear-gradient-12" x1="1736.64" y1="1184.38" x2="1024.98" y2="1072.97" xlink:href="#linear-gradient-9"/><linearGradient id="linear-gradient-13" y1="1063.37" x2="1359.62" y2="1063.37" gradientUnits="userSpaceOnUse"><stop offset="0" stop-color="#466fd9"/><stop offset="1" stop-color="#2742a9"/></linearGradient><linearGradient id="linear-gradient-14" x1="944.47" y1="752.62" x2="984.7" y2="1223.89" xlink:href="#linear-gradient-13"/><linearGradient id="linear-gradient-15" x1="960" y1="1358.66" x2="960" y2="1006.18" xlink:href="#linear-gradient-13"/><linearGradient id="linear-gradient-16" x1="1180.52" y1="1267.12" x2="1662.67" y2="1125.14" xlink:href="#linear-gradient-13"/></defs><g id="Layer_2" data-name="Layer 2"><g id="Layer_3" data-name="Layer 3"><path class="cls-1" d="M1920,0V1070.65C1744.11,1182.91,1380.29,1260,960,1260S175.89,1182.91,0,1070.65V0Z"/><path class="cls-2" d="M1921.23,949c0,1.61,0,3.27,0,5H1305V891s10.27,1.47,28.43-2.7c26.83-6.17,70.9-24.63,124.57-78.3,90-90,207-144,324-54,0,0,87-94,138-56V910c.61,0,1,13.33,1.19,34.74A14.31,14.31,0,0,1,1921.23,949Z"/><path class="cls-3" d="M288,846H0V692.41c28.8-13.12,88.6-31.61,153,.59,49.41,24.7,85.25,68.39,107.54,102.78C278.85,824,288,846,288,846Z"/><path class="cls-4" d="M108,612S414,729,675,756c0,0-153-36-171-45s-36-27-81-27-36.63-44.91-99-36C261,657,126,612,108,612Z"/><path class="cls-5" d="M108,549S585,720,972,738c0,0-288-54-288-63s-90-144-198-72c0,0-36-18-81,0S108,549,108,549Z"/><path class="cls-6" d="M1188,747s153,18,234,18c0,0-43.75-39.85-108-27C1269,747,1269,711,1188,747Z"/><path class="cls-7" d="M837,909s126-72,189-63c0,0,9-54,81-54,36,0,63,45,63,45s54-27,99,9,162,108,279,90v72H828Z"/><path class="cls-8" d="M513,846s108-9,351,72,261,36,261,36l-9,54S477,1035,513,846Z"/><path class="cls-9" d="M1314,945l-2.16,9-12.28,51.15h0l-.68,2.84-9,37.62-18.49,77.05L1260,1170H234.91c-90.83-26.59-167.24-58.11-225.07-93.23-3.34-2-6.62-4.07-9.84-6.12V720s135,99,207,90c20.81-2.6,37.86-8.21,53.54-14.22C299.12,781,329.41,763.8,387,783c33.14,11,81.35,35.65,133.53,62.72h0c75.35,39.1,159,83.33,217.46,99.28,45.81,12.49,70.42,13.42,94.34,15.28C860.12,962.43,887,965.82,945,990c23,9.57,52.87,13,85.72,12.56h0c27.88-.41,57.89-3.66,87.58-8.44C1199.83,981,1278.91,956.49,1305,948,1310.82,946.1,1314,945,1314,945Z"/><path class="cls-10" d="M1921.23,949c0,1.61,0,3.27,0,5h-1.21l-.06.17v116.48l-.84.53q-17.65,11.22-37.76,22c-104.83,56-258.37,101.57-441.95,130.87q-30,4.8-61.07,9H828l-.47-9-.85-16-2-38-.5-9.59-.7-13.3L819,1062s4.14-.44,11.61-1.51c28.41-4.09,105-17.44,184.87-51.24l2.93-1.25q6.15-2.64,12.31-5.44h0a530.48,530.48,0,0,0,68.73-37.31h0c5.59-3.61,11.08-7.36,16.52-11.24,65.77-47,126.63-44.91,189-33.48C1362.1,931,1420.47,949.3,1485,945a197,197,0,0,0,38.1-6.48h0C1640.79,906.84,1739.22,778.31,1845,819c36.73,14.12,60.15,30,75,45.18V910c.61,0,1,13.33,1.19,34.74A14.31,14.31,0,0,1,1921.23,949Z"/><path class="cls-11" d="M1921.23,949a27.31,27.31,0,0,1-1.17,5l-.06.17c-3,9-10.81,20.73-22.27,34.31h0l-1,1.23c-27.62,32.32-75.49,74.42-128.6,112.39h0c-78.54,56.14-168.55,103.23-221.56,96.28h0a64.32,64.32,0,0,1-7.48-1.4c-49.35-12.34-190.76,1.63-350.41,17h0l-30.87,3h0c-24.87,2.38-50.06,4.75-75.3,7-36.47,3.29-73,6.38-108.91,9-48.19,3.53-95.11,6.2-138.79,7.35h0c-65.8,1.75-124.27.05-168.66-7.35-16.68-2.78-34-5.78-51.81-9q-10-1.8-20.1-3.69c-70.52-13.18-147.1-29.79-219.21-50.31C232.59,1129.5,107.7,1073.75,81,999q-3.94-11-7.25-20.9-3.24-9.61-5.92-18.16c-20.63-65.69-18.32-86.69-15.71-93.17C53,864.48,54,864,54,864s135-45,252,18S468,990,585,990s81,18,162,45c20.7,6.9,49.61,16.15,83.61,25.49,45.22,12.44,99.43,25,155.2,32.52,66.36,8.91,134.93,10.55,193.19-4,44.71-11.17,69.46-28.42,87.73-46.63,11.54-11.5,20.5-23.39,30.26-34.37.85-1,1.71-1.9,2.57-2.84h0c24.11-26.23,54.72-46.44,140.44-42.15,33.43,1.67,70.18.61,108-2,25.87-1.76,52.23-4.24,78.39-7,93.9-10,185.13-24.24,240.74-24.74,28.25-.26,47.31,3,52.87,12.18a9,9,0,0,1,1.19,3.3A14.31,14.31,0,0,1,1921.23,949Z"/><path class="cls-12" d="M1881.4,1093.13c-104.83,56-258.37,101.57-441.95,130.87H585.93l8.16-3.69,75-33.91,36.25-16.4,15.78-7.14L765,1143s3.81,2.28,12.75,4h0c9.25,1.74,24,2.85,45.71.13,29.46-3.68,71.74-14.4,130.52-40.11,11.23-4.92,21.8-9.58,31.81-14,114.94-50.64,156.23-68,280.92-50.64q5.52.77,11.27,1.63,6,.9,11.85,1.62c96.27,11.94,147.19-13.47,199-37.62,18.84-8.78,37.81-17.4,59.12-24a267.66,267.66,0,0,1,81-12c68.93,0,106.8,7.28,136.62,13.66,36.48,7.8,60.91,14.24,115.38,4.34a42.14,42.14,0,0,1,14.52-.5c.4.06.78.14,1.15.22,8.39,1.84,12.65,7.59,13.76,16.14C1912.92,1025,1899.59,1058.28,1881.4,1093.13Z"/><path class="cls-13" d="M1359.62,1235.47c-63,8.08-128.92,14.29-197.15,18.44h-.18C1103.08,1260,1099,1260,1099,1260H960c-279.58,0-534.18-34.11-725.09-90-90.83-26.59-167.24-58.11-225.07-93.23-3.34-2-6.62-4.07-9.84-6.12V874s20-7.78,52.12-7.23c28.79.49,67.33,7.7,109.88,33.23,90,54,81,54,189,81s135,99,261,117c88.49,12.64,128.16,34.16,165.75,49h0c14.83,5.84,29.34,10.64,46.41,13.43,1.26.21,2.53.41,3.82.59,11.71,1.67,22.18,4.9,32.91,9,33.1,12.61,68.67,33.43,150.88,42.07h0c34.46,3.62,77.11,5.09,131.2,2.93q12.16-.48,23.58-.73t22-.27h0c56.07-.16,97.59,4.06,128.23,10a300.37,300.37,0,0,1,35.62,9l1.63.54h0Q1357,1234.5,1359.62,1235.47Z"/><path class="cls-14" d="M1919.16,1071.18q-17.65,11.22-37.76,22c-104.83,56-258.37,101.57-441.95,130.87q-30,4.8-61.07,9-9.33,1.26-18.76,2.47c-63,8.08-128.92,14.29-197.15,18.44h-.18C1103.08,1260,1099,1260,1099,1260H960c-279.58,0-534.18-34.11-725.09-90-90.83-26.59-167.24-58.11-225.07-93.23,10.62-44.64,29.85-83.85,63.91-98.67A76.14,76.14,0,0,1,99,972s5.61-.37,15.45-.29h0C152.94,972.07,256,979.52,342,1044c108,81,243,45,342,99,12.48,6.81,24.81,13.47,37.09,19.86q7,3.63,13.93,7.14c30.22,15.22,60.32,28.51,91.66,38,52,15.71,107.37,20.93,172.32,7q6.29-1.35,12.79-2.93h0c39-9.49,83.35-25,129.86-42.07,42.24-15.53,86.26-32.4,129.7-47.33,62.83-21.59,124.43-39.12,177.64-42.67,119.16-7.94,245.33-58,316.62-94.34,9.48-4.84,18-9.44,25.38-13.66,11-6.31,21.53-12.34,31.44-18,16.59-9.47,31.54-17.88,44.69-24.74,23.79-12.42,41.72-19.79,52.87-19.26.61,0,1,13.33,1.19,34.74,0,1.4,0,2.83,0,4.3s0,3.27,0,5h-1.21l-.06.17v116.48Z"/><path class="cls-15" d="M1920,980v90.65l-.84.53q-17.65,11.22-37.76,22c-104.83,56-258.37,101.57-441.95,130.87q-30,4.8-61.07,9-9.33,1.26-18.76,2.47c-63,8.08-128.92,14.29-197.15,18.44h-.18C1103.08,1260,1099,1260,1099,1260H960c-279.58,0-534.18-34.11-725.09-90-90.83-26.59-167.24-58.11-225.07-93.23-3.34-2-6.62-4.07-9.84-6.12V956s28.22-2.87,67.83,3.94a307.08,307.08,0,0,1,46.62,11.77h0A273.32,273.32,0,0,1,198,1017c81.14,64.91,235.44,122.51,383.74,153,16.19,3.34,32.31,6.34,48.26,9,14.42,2.4,27.35,4.88,39.06,7.4,57.79,12.43,85.74,26,114.6,37.6a318.89,318.89,0,0,0,51,16.35h0c21,4.77,47.09,8.49,83.33,10.65,62.23,3.71,123.61-4.81,180-18,12-2.81,23.79-5.84,35.3-9q12.43-3.42,24.42-7h0c3-.9,5.94-1.79,8.87-2.7,51.41-15.82,96-33.12,129.42-44.27,81-27,162-9,252-36s126-45,198-54c63.7-8,85.19-60.51,149.52-90.5l2.2-1h0A200.35,200.35,0,0,1,1920,980Z"/><path class="cls-16" d="M1920,997.91l-.84,73.27q-17.65,11.22-37.76,22c-104.83,56-258.37,101.57-441.95,130.87q-30,4.8-61.07,9-9.33,1.26-18.76,2.47c-63,8.08-128.92,14.29-197.15,18.44,37.5-3.85,97.06-10.13,191.6-20.37h0l4.92-.54c26.78-2.9,50.4-5.91,71.3-9,54.82-8.1,90.92-16.77,116.18-25.6h0c54.65-19.09,58.55-38.92,91.51-55.4,36.21-18.1,88.6-28.12,130-40.88h0c20.36-6.27,38.07-13.22,49.93-22.11,27.6-20.7,72.82-57.9,92.43-74.14Z"/><path class="cls-17" d="M1920,0V1070.65l-.84.53q-17.65,11.22-37.76,22c-104.83,56-258.37,101.57-441.95,130.87q-30,4.8-61.07,9-9.33,1.26-18.76,2.47c-63,8.08-128.92,14.29-197.15,18.44h-.18c-65.51,4-133.14,6.08-202.29,6.08-279.58,0-534.18-34.11-725.09-90-90.83-26.59-167.24-58.11-225.07-93.23-3.34-2-6.62-4.07-9.84-6.12V0Z"/></g></g></svg>