<svg xmlns="http://www.w3.org/2000/svg" xmlns:xlink="http://www.w3.org/1999/xlink" viewBox="0 0 420 650"><defs><style>.cls-1{fill:url(#linear-gradient);}.cls-2{fill:url(#linear-gradient-2);}.cls-3{fill:url(#linear-gradient-3);}.cls-4{fill:url(#linear-gradient-4);}.cls-5{fill:url(#linear-gradient-5);}.cls-6{fill:url(#linear-gradient-6);}.cls-7{fill:url(#linear-gradient-7);}.cls-8{fill:url(#linear-gradient-8);}.cls-9{fill:url(#linear-gradient-9);}.cls-10{fill:url(#linear-gradient-10);}.cls-11{fill:url(#linear-gradient-11);}.cls-12{fill:url(#linear-gradient-12);}.cls-13{fill:url(#linear-gradient-13);}.cls-14{fill:url(#linear-gradient-14);}.cls-15{fill:url(#linear-gradient-15);}.cls-16{fill:none;}</style><linearGradient id="linear-gradient" x1="210" x2="210" y2="676.26" gradientUnits="userSpaceOnUse"><stop offset="0" stop-color="#fff"/><stop offset="0.21" stop-color="#f1f2ff"/><stop offset="0.44" stop-color="#dbdfff"/><stop offset="0.56" stop-color="#e5e0ff"/><stop offset="0.77" stop-color="#f0e1ff"/><stop offset="1" stop-color="#f4e1ff"/></linearGradient><linearGradient id="linear-gradient-2" x1="299.51" y1="505.98" x2="374.6" y2="416.93" gradientUnits="userSpaceOnUse"><stop offset="0" stop-color="#fff" stop-opacity="0.5"/><stop offset="1" stop-color="#f4e1ff"/></linearGradient><linearGradient id="linear-gradient-3" x1="25.76" y1="438.14" x2="41.62" y2="397.85" xlink:href="#linear-gradient-2"/><linearGradient id="linear-gradient-4" x1="82.79" y1="293.78" x2="71.78" y2="315.82" xlink:href="#linear-gradient-2"/><linearGradient id="linear-gradient-5" x1="135.85" y1="265.94" x2="120.6" y2="305" xlink:href="#linear-gradient-2"/><linearGradient id="linear-gradient-6" x1="350.72" y1="315.38" x2="350.22" y2="334.78" xlink:href="#linear-gradient-2"/><linearGradient id="linear-gradient-7" x1="296.26" y1="380.18" x2="285.07" y2="495.82" gradientUnits="userSpaceOnUse"><stop offset="0" stop-color="#a6b3f7"/><stop offset="1" stop-color="#f4e1ff"/></linearGradient><linearGradient id="linear-gradient-8" x1="165.83" y1="421.05" x2="150.91" y2="516.54" xlink:href="#linear-gradient-7"/><linearGradient id="linear-gradient-9" x1="160.58" y1="523.16" x2="160.58" y2="395.3" gradientUnits="userSpaceOnUse"><stop offset="0" stop-color="#a6b3f7"/><stop offset="1" stop-color="#5564e1"/></linearGradient><linearGradient id="linear-gradient-10" x1="212.25" y1="574.19" x2="397.5" y2="486" xlink:href="#linear-gradient-9"/><linearGradient id="linear-gradient-11" x1="18.55" y1="567.96" x2="362.15" y2="454.15" xlink:href="#linear-gradient-9"/><linearGradient id="linear-gradient-12" x1="381.68" y1="576.44" x2="200.66" y2="548.1" xlink:href="#linear-gradient-9"/><linearGradient id="linear-gradient-13" y1="548.77" x2="366.34" y2="548.77" gradientUnits="userSpaceOnUse"><stop offset="0" stop-color="#466fd9"/><stop offset="1" stop-color="#2742a9"/></linearGradient><linearGradient id="linear-gradient-14" x1="201.66" y1="456.68" x2="215.99" y2="624.43" xlink:href="#linear-gradient-13"/><linearGradient id="linear-gradient-15" x1="204.65" y1="678.76" x2="204.65" y2="575.52" xlink:href="#linear-gradient-13"/></defs><g id="Layer_2" data-name="Layer 2"><g id="Layer_3" data-name="Layer 3"><path class="cls-1" d="M420,0V571.55C381.52,618.06,301.94,650,210,650S38.48,618.06,0,571.55V0Z"/><path class="cls-2" d="M420,399.51v86H231V464.83s20.67,2.95,50.2-26.58c3.08-3.08,6.26-6,9.53-8.82,28-23.89,62.4-35.35,96.79-8.9C387.52,420.53,404.54,402.14,420,399.51Z"/><path class="cls-3" d="M68.94,450.9l-7.49-1.51L0,437V381.12a55.4,55.4,0,0,1,35.48,11.79c15.44,12.06,24.34,30.23,29,43,.49,1.33.93,2.6,1.33,3.8A100.89,100.89,0,0,1,68.94,450.9Z"/><path class="cls-4" d="M151.48,327.48C97.11,321.86,36.8,304.33,0,292.29v-4c13.13,2.85,27.08,5.07,36.31,3.75C56.78,289.12,54,303.86,68.8,303.86s20.67,5.91,26.58,8.86S151.48,327.48,151.48,327.48Z"/><path class="cls-5" d="M248.94,321.58C158.56,317.37,53.22,287.74,0,271v-2.39c24.54,5.92,54.55,12,62.89,8.67,14.77-5.9,26.58,0,26.58,0,35.44-23.62,65,20.67,65,23.63S248.94,321.58,248.94,321.58Z"/><path class="cls-6" d="M311.81,332.53s50.21,5.91,76.78,5.91a43,43,0,0,0-35.43-8.86C338.39,332.53,338.39,320.72,311.81,332.53Z"/><path class="cls-7" d="M170.7,456s41.35-23.63,62-20.68c0,0,2.95-17.71,26.58-17.71,11.81,0,20.67,14.76,20.67,14.76s17.72-8.86,32.48,2.95,53.16,35.44,91.55,29.54V488.5H167.75Z"/><path class="cls-8" d="M60.33,436s35.44-3,115.17,23.62,85.64,11.81,85.64,11.81l-2.95,17.72S48.52,498,60.33,436Z"/><path class="cls-9" d="M321.16,469.67l-3.8,15.83-.72,3-4.39,18.3L305,537.16l-1.52,6.34H0V413.75a47.71,47.71,0,0,1,17,2.77C27.73,420.1,43.31,428,60.2,436.79l5.63,2.93c23.36,12.12,48.43,25.07,66.33,29.95,18.72,5.11,26.65,4.33,36.79,5.58,7.46.92,16.11,2.93,31.13,9.19,6.14,2.55,13.78,3.78,22.22,4.06,2.7.1,5.48.09,8.32,0l.75,0a217.55,217.55,0,0,0,27.34-3l.09,0C290.83,480.13,321.16,469.67,321.16,469.67Z"/><path class="cls-10" d="M400.12,465.38A154.75,154.75,0,0,0,420,455.2V565.5H161.81l-.28-5.36-.88-16.64-1.79-34.11s1.13-.12,3.2-.41c9.41-1.32,38.12-6.17,66.88-19.38.79-.35,1.58-.72,2.37-1.1l.06,0c2-.94,4-1.93,6-3a158.33,158.33,0,0,0,18-10.84l1-.71c41.35-29.53,76.78,0,121.08-2.95A72.57,72.57,0,0,0,400.12,465.38Z"/><path class="cls-11" d="M404,478.89c5.28-.34,10.63-.77,16-1.27V555.4c-6.51,1.58-12.31,2-17,.79-13.05-3.26-45.75-.92-85.39,2.76-21.78,2-45.65,4.44-69.51,6.55-18.56,1.64-37.12,3.1-54.68,4-6,.32-11.79.58-17.47.76h0a407.32,407.32,0,0,1-46-.66c-4.81-.4-9.3-.94-13.42-1.63-32.72-5.45-73-13.42-108.33-24.5-2.77-.87-5.5-1.75-8.2-2.66V453.69c37.22,20.22,52.1,34.58,90,34.58,38.39,0,26.58,5.9,53.16,14.76,5,1.67,11.45,3.75,18.95,6,32.42,9.53,84.43,21.36,122.8,11.77,13.56-3.39,21.53-8.48,27.39-13.95,6.72-6.27,10.67-13,17.13-18.3a36.47,36.47,0,0,1,4.28-3c7.39-4.4,18.11-7,36.84-6.09A299.49,299.49,0,0,0,404,478.89Z"/><path class="cls-12" d="M420,515.28v56.18A138.56,138.56,0,0,1,409.3,583h0a168.33,168.33,0,0,1-17.14,14.51H87.26l51.45-23.27,7.31-3.31s7.73,4.64,29.9-.63h0c3.4-.8,7.13-1.84,11.23-3.17q2.31-.75,4.79-1.62c4.88-1.73,10.23-3.83,16.08-6.39,15.05-6.58,26.47-11.79,36.59-15.61,19.45-7.33,34.07-9.49,60.34-6.34,3,.36,6.09.79,9.38,1.28C369.21,546.67,380.76,519.22,420,515.28Z"/><path class="cls-13" d="M366.34,597.5H27.85A159.15,159.15,0,0,1,0,571.46V500c5.44,1.67,12.32,3.45,22.17,5.91,33.94,8.49,43.5,30.52,80.57,37.55q2.45.46,5.07.84c28.51,4.08,41.58,11,53.72,15.8A72,72,0,0,0,178.69,565c.93.13,1.83.29,2.71.48a48.6,48.6,0,0,1,5.76,1.62c2.06.71,4.1,1.53,6.24,2.41,11.54,4.81,25.74,11.61,58.24,13.19,8.72.43,18.76.48,30.41,0,62.56-2.5,79.62,9.84,83.37,13.67A6.49,6.49,0,0,1,366.34,597.5Z"/><path class="cls-14" d="M374.45,545.44A227.29,227.29,0,0,0,420,537.18v34.28A138.56,138.56,0,0,1,409.3,583h0a168.33,168.33,0,0,1-17.14,14.51c-18.42,13.69-41,25.25-66.55,34H94.4c-25.56-8.75-48.13-20.31-66.55-34A159.15,159.15,0,0,1,0,571.46V526.29a103.52,103.52,0,0,1,11.22,7.33,83.91,83.91,0,0,0,17.11,9.88c31.83,13.74,67.68,7.65,95.11,22.61,2.18,1.19,4.35,2.37,6.51,3.52q4.4,2.37,8.76,4.6c26.86,13.68,53.29,23,88.09,15.5a243.36,243.36,0,0,0,24.84-7c14.91-4.93,31.14-11.21,47.52-17.22,6.14-2.25,12.31-4.46,18.43-6.55C337.71,552.1,357.39,546.58,374.45,545.44Z"/><path class="cls-15" d="M383.89,592.16c10.4-3.52,18.32-6.58,25.4-9.17a168.33,168.33,0,0,1-17.14,14.51c-18.42,13.69-41,25.25-66.55,34C291.48,643.19,252,649.86,210,649.86s-81.48-6.67-115.6-18.36c-25.56-8.75-48.13-20.31-66.55-34A159.15,159.15,0,0,1,0,571.46V560.65c19.7,14.59,48.71,27.63,79,36.85a358.73,358.73,0,0,0,38.1,9.42c47.08,8.86,39.82,20.67,83.7,23.63S287.11,612.83,310.65,604c14.51-5.46,29-5.31,44.14-6.47,3.5-.26,7-.6,10.63-1.1A99.39,99.39,0,0,0,383.89,592.16Z"/><path class="cls-16" d="M420,.14V571.46A138.56,138.56,0,0,1,409.3,583h0a168.33,168.33,0,0,1-17.14,14.51c-18.42,13.69-41,25.25-66.55,34C291.48,643.19,252,649.86,210,649.86s-81.48-6.67-115.6-18.36c-25.56-8.75-48.13-20.31-66.55-34A159.15,159.15,0,0,1,0,571.46V.14Z"/></g></g></svg>